ply
format ascii 1.0
comment VCGLIB generated
element vertex 192
property float x
property float y
property float z
property float nx
property float ny
property float nz
property float texture_u
property float texture_v
element face 124
property list uchar int vertex_indices
end_header
0 1 -1 0.09801866 0.9951846 0 0.500000 1.000000
0 1 1 0.09801866 0.9951846 0 0.500000 1.000000
0.19509 0.980785 1 0.09801866 0.9951846 0 0.597545 0.990393
0.19509 0.980785 -1 0.09801866 0.9951846 0 0.597545 0.990393
0.19509 0.980785 -1 0.2902815 0.9569414 0 0.597545 0.990393
0.19509 0.980785 1 0.2902815 0.9569414 0 0.597545 0.990393
0.382683 0.92388 1 0.2902815 0.9569414 0 0.691342 0.961940
0.382683 0.92388 -1 0.2902815 0.9569414 0 0.691342 0.961940
0.382683 0.92388 -1 0.4713965 0.8819214 0 0.691342 0.961940
0.382683 0.92388 1 0.4713965 0.8819214 0 0.691342 0.961940
0.55557 0.83147 1 0.4713965 0.8819214 0 0.777785 0.915735
0.55557 0.83147 -1 0.4713965 0.8819214 0 0.777785 0.915735
0.55557 0.83147 -1 0.6343927 0.773011 0 0.777785 0.915735
0.55557 0.83147 1 0.6343927 0.773011 0 0.777785 0.915735
0.707107 0.707107 1 0.6343927 0.773011 0 0.853554 0.853554
0.707107 0.707107 -1 0.6343927 0.773011 0 0.853554 0.853554
0.707107 0.707107 -1 0.773011 0.6343927 0 0.853554 0.853554
0.707107 0.707107 1 0.773011 0.6343927 0 0.853554 0.853554
0.83147 0.55557 1 0.773011 0.6343927 0 0.915735 0.777785
0.83147 0.55557 -1 0.773011 0.6343927 0 0.915735 0.777785
0.83147 0.55557 -1 0.8819214 0.4713965 0 0.915735 0.777785
0.83147 0.55557 1 0.8819214 0.4713965 0 0.915735 0.777785
0.92388 0.382683 1 0.8819214 0.4713965 0 0.961940 0.691342
0.92388 0.382683 -1 0.8819214 0.4713965 0 0.961940 0.691342
0.92388 0.382683 -1 0.9569414 0.2902815 0 0.961940 0.691342
0.92388 0.382683 1 0.9569414 0.2902815 0 0.961940 0.691342
0.980785 0.19509 1 0.9569414 0.2902815 0 0.990393 0.597545
0.980785 0.19509 -1 0.9569414 0.2902815 0 0.990393 0.597545
0.980785 0.19509 -1 0.9951846 0.09801866 0 0.990393 0.597545
0.980785 0.19509 1 0.9951846 0.09801866 0 0.990393 0.597545
1 0 1 0.9951846 0.09801866 0 1.000000 0.500000
1 0 -1 0.9951846 0.09801866 0 1.000000 0.500000
1 0 -1 0.9951846 -0.09801866 0 1.000000 0.500000
1 0 1 0.9951846 -0.09801866 0 1.000000 0.500000
0.980785 -0.19509 1 0.9951846 -0.09801866 0 0.990393 0.402455
0.980785 -0.19509 -1 0.9951846 -0.09801866 0 0.990393 0.402455
0.980785 -0.19509 -1 0.9569414 -0.2902815 0 0.990393 0.402455
0.980785 -0.19509 1 0.9569414 -0.2902815 0 0.990393 0.402455
0.92388 -0.382683 1 0.9569414 -0.2902815 0 0.961940 0.308658
0.92388 -0.382683 -1 0.9569414 -0.2902815 0 0.961940 0.308658
0.92388 -0.382683 -1 0.8819214 -0.4713965 0 0.961940 0.308658
0.92388 -0.382683 1 0.8819214 -0.4713965 0 0.961940 0.308658
0.83147 -0.55557 1 0.8819214 -0.4713965 0 0.915735 0.222215
0.83147 -0.55557 -1 0.8819214 -0.4713965 0 0.915735 0.222215
0.83147 -0.55557 -1 0.773011 -0.6343927 0 0.915735 0.222215
0.83147 -0.55557 1 0.773011 -0.6343927 0 0.915735 0.222215
0.707107 -0.707107 1 0.773011 -0.6343927 0 0.853554 0.146446
0.707107 -0.707107 -1 0.773011 -0.6343927 0 0.853554 0.146446
0.707107 -0.707107 -1 0.6343927 -0.773011 0 0.853554 0.146446
0.707107 -0.707107 1 0.6343927 -0.773011 0 0.853554 0.146446
0.55557 -0.83147 1 0.6343927 -0.773011 0 0.777785 0.084265
0.55557 -0.83147 -1 0.6343927 -0.773011 0 0.777785 0.084265
0.55557 -0.83147 -1 0.4713965 -0.8819214 0 0.777785 0.084265
0.55557 -0.83147 1 0.4713965 -0.8819214 0 0.777785 0.084265
0.382683 -0.92388 1 0.4713965 -0.8819214 0 0.691342 0.038060
0.382683 -0.92388 -1 0.4713965 -0.8819214 0 0.691342 0.038060
0.382683 -0.92388 -1 0.2902815 -0.9569414 0 0.691342 0.038060
0.382683 -0.92388 1 0.2902815 -0.9569414 0 0.691342 0.038060
0.19509 -0.980785 1 0.2902815 -0.9569414 0 0.597545 0.009607
0.19509 -0.980785 -1 0.2902815 -0.9569414 0 0.597545 0.009607
0.19509 -0.980785 -1 0.09801866 -0.9951846 0 0.597545 0.009607
0.19509 -0.980785 1 0.09801866 -0.9951846 0 0.597545 0.009607
-0 -1 1 0.09801866 -0.9951846 0 0.500000 0.000000
-0 -1 -1 0.09801866 -0.9951846 0 0.500000 0.000000
-0 -1 -1 -0.09801816 -0.9951847 0 0.500000 0.000000
-0 -1 1 -0.09801816 -0.9951847 0 0.500000 0.000000
-0.195091 -0.980785 1 -0.09801816 -0.9951847 0 0.402454 0.009607
-0.195091 -0.980785 -1 -0.09801816 -0.9951847 0 0.402454 0.009607
-0.195091 -0.980785 -1 -0.2902859 -0.95694 0 0.402454 0.009607
-0.195091 -0.980785 1 -0.2902859 -0.95694 0 0.402454 0.009607
-0.382684 -0.923879 1 -0.2902859 -0.95694 0 0.308658 0.038060
-0.382684 -0.923879 -1 -0.2902859 -0.95694 0 0.308658 0.038060
-0.382684 -0.923879 -1 -0.4713967 -0.8819214 0 0.308658 0.038060
-0.382684 -0.923879 1 -0.4713967 -0.8819214 0 0.308658 0.038060
-0.555571 -0.831469 1 -0.4713967 -0.8819214 0 0.222214 0.084266
-0.555571 -0.831469 -1 -0.4713967 -0.8819214 0 0.222214 0.084266
-0.555571 -0.831469 -1 -0.6343952 -0.7730089 0 0.222214 0.084266
-0.555571 -0.831469 1 -0.6343952 -0.7730089 0 0.222214 0.084266
-0.707107 -0.707106 1 -0.6343952 -0.7730089 0 0.146446 0.146447
-0.707107 -0.707106 -1 -0.6343952 -0.7730089 0 0.146446 0.146447
-0.707107 -0.707106 -1 -0.7730089 -0.6343952 0 0.146446 0.146447
-0.707107 -0.707106 1 -0.7730089 -0.6343952 0 0.146446 0.146447
-0.83147 -0.55557 1 -0.7730089 -0.6343952 0 0.084265 0.222215
-0.83147 -0.55557 -1 -0.7730089 -0.6343952 0 0.084265 0.222215
-0.83147 -0.55557 -1 -0.8819214 -0.4713965 0 0.084265 0.222215
-0.83147 -0.55557 1 -0.8819214 -0.4713965 0 0.084265 0.222215
-0.92388 -0.382683 1 -0.8819214 -0.4713965 0 0.038060 0.308658
-0.92388 -0.382683 -1 -0.8819214 -0.4713965 0 0.038060 0.308658
-0.92388 -0.382683 -1 -0.9569418 -0.2902801 0 0.038060 0.308658
-0.92388 -0.382683 1 -0.9569418 -0.2902801 0 0.038060 0.308658
-0.980785 -0.195089 1 -0.9569418 -0.2902801 0 0.009607 0.402456
-0.980785 -0.195089 -1 -0.9569418 -0.2902801 0 0.009607 0.402456
-0.980785 -0.195089 -1 -0.9951846 -0.09801866 0 0.009607 0.402456
-0.980785 -0.195089 1 -0.9951846 -0.09801866 0 0.009607 0.402456
-1 1e-06 1 -0.9951846 -0.09801866 0 0.000000 0.500000
-1 1e-06 -1 -0.9951846 -0.09801866 0 0.000000 0.500000
-1 1e-06 -1 -0.9951846 0.09801866 0 0.000000 0.500000
-1 1e-06 1 -0.9951846 0.09801866 0 0.000000 0.500000
-0.980785 0.195091 1 -0.9951846 0.09801866 0 0.009607 0.597546
-0.980785 0.195091 -1 -0.9951846 0.09801866 0 0.009607 0.597546
-0.980785 0.195091 -1 -0.95694 0.2902859 0 0.009607 0.597546
-0.980785 0.195091 1 -0.95694 0.2902859 0 0.009607 0.597546
-0.923879 0.382684 1 -0.95694 0.2902859 0 0.038060 0.691342
-0.923879 0.382684 -1 -0.95694 0.2902859 0 0.038060 0.691342
-0.923879 0.382684 -1 -0.8819214 0.4713967 0 0.038060 0.691342
-0.923879 0.382684 1 -0.8819214 0.4713967 0 0.038060 0.691342
-0.831469 0.555571 1 -0.8819214 0.4713967 0 0.084266 0.777786
-0.831469 0.555571 -1 -0.8819214 0.4713967 0 0.084266 0.777786
-0.831469 0.555571 -1 -0.773011 0.6343927 0 0.084266 0.777786
-0.831469 0.555571 1 -0.773011 0.6343927 0 0.084266 0.777786
-0.707106 0.707108 1 -0.773011 0.6343927 0 0.146447 0.853554
-0.707106 0.707108 -1 -0.773011 0.6343927 0 0.146447 0.853554
-0.707106 0.707108 -1 -0.6343896 0.7730135 0 0.146447 0.853554
-0.707106 0.707108 1 -0.6343896 0.7730135 0 0.146447 0.853554
-0.555569 0.83147 1 -0.6343896 0.7730135 0 0.222216 0.915735
-0.555569 0.83147 -1 -0.6343896 0.7730135 0 0.222216 0.915735
-0.555569 0.83147 -1 -0.4713965 0.8819214 0 0.222216 0.915735
-0.555569 0.83147 1 -0.4713965 0.8819214 0 0.222216 0.915735
-0.382682 0.92388 1 -0.4713965 0.8819214 0 0.308659 0.961940
-0.382682 0.92388 -1 -0.4713965 0.8819214 0 0.308659 0.961940
0.19509 0.980785 1 0 0 1 0.597545 0.990393
0 1 1 0 0 1 0.500000 1.000000
-0.195089 0.980786 1 0 0 1 0.402456 0.990393
-0.382682 0.92388 1 0 0 1 0.308659 0.961940
-0.555569 0.83147 1 0 0 1 0.222216 0.915735
-0.707106 0.707108 1 0 0 1 0.146447 0.853554
-0.831469 0.555571 1 0 0 1 0.084266 0.777786
-0.923879 0.382684 1 0 0 1 0.038060 0.691342
-0.980785 0.195091 1 0 0 1 0.009607 0.597546
-1 1e-06 1 0 0 1 0.000000 0.500000
-0.980785 -0.195089 1 0 0 1 0.009607 0.402456
-0.92388 -0.382683 1 0 0 1 0.038060 0.308658
-0.83147 -0.55557 1 0 0 1 0.084265 0.222215
-0.707107 -0.707106 1 0 0 1 0.146446 0.146447
-0.555571 -0.831469 1 0 0 1 0.222214 0.084266
-0.382684 -0.923879 1 0 0 1 0.308658 0.038060
-0.195091 -0.980785 1 0 0 1 0.402454 0.009607
-0 -1 1 0 0 1 0.500000 0.000000
0.19509 -0.980785 1 0 0 1 0.597545 0.009607
0.382683 -0.92388 1 0 0 1 0.691342 0.038060
0.55557 -0.83147 1 0 0 1 0.777785 0.084265
0.707107 -0.707107 1 0 0 1 0.853554 0.146446
0.83147 -0.55557 1 0 0 1 0.915735 0.222215
0.92388 -0.382683 1 0 0 1 0.961940 0.308658
0.980785 -0.19509 1 0 0 1 0.990393 0.402455
1 0 1 0 0 1 1.000000 0.500000
0.980785 0.19509 1 0 0 1 0.990393 0.597545
0.92388 0.382683 1 0 0 1 0.961940 0.691342
0.83147 0.55557 1 0 0 1 0.915735 0.777785
0.707107 0.707107 1 0 0 1 0.853554 0.853554
0.55557 0.83147 1 0 0 1 0.777785 0.915735
0.382683 0.92388 1 0 0 1 0.691342 0.961940
-0.382682 0.92388 -1 -0.2902862 0.9569399 0 0.308659 0.961940
-0.382682 0.92388 1 -0.2902862 0.9569399 0 0.308659 0.961940
-0.195089 0.980786 1 -0.2902862 0.9569399 0 0.402456 0.990393
-0.195089 0.980786 -1 -0.2902862 0.9569399 0 0.402456 0.990393
-0.195089 0.980786 -1 -0.09801404 0.9951851 0 0.402456 0.990393
-0.195089 0.980786 1 -0.09801404 0.9951851 0 0.402456 0.990393
0 1 1 -0.09801404 0.9951851 0 0.500000 1.000000
0 1 -1 -0.09801404 0.9951851 0 0.500000 1.000000
0 1 -1 0 0 -1 0.500000 1.000000
0.19509 0.980785 -1 0 0 -1 0.597545 0.990393
0.382683 0.92388 -1 0 0 -1 0.691342 0.961940
0.55557 0.83147 -1 0 0 -1 0.777785 0.915735
0.707107 0.707107 -1 0 0 -1 0.853554 0.853554
0.83147 0.55557 -1 0 0 -1 0.915735 0.777785
0.92388 0.382683 -1 0 0 -1 0.961940 0.691342
0.980785 0.19509 -1 0 0 -1 0.990393 0.597545
1 0 -1 0 0 -1 1.000000 0.500000
0.980785 -0.19509 -1 0 0 -1 0.990393 0.402455
0.92388 -0.382683 -1 0 0 -1 0.961940 0.308658
0.83147 -0.55557 -1 0 0 -1 0.915735 0.222215
0.707107 -0.707107 -1 0 0 -1 0.853554 0.146446
0.55557 -0.83147 -1 0 0 -1 0.777785 0.084265
0.382683 -0.92388 -1 0 0 -1 0.691342 0.038060
0.19509 -0.980785 -1 0 0 -1 0.597545 0.009607
-0 -1 -1 0 0 -1 0.500000 0.000000
-0.195091 -0.980785 -1 0 0 -1 0.402454 0.009607
-0.382684 -0.923879 -1 0 0 -1 0.308658 0.038060
-0.555571 -0.831469 -1 0 0 -1 0.222214 0.084266
-0.707107 -0.707106 -1 0 0 -1 0.146446 0.146447
-0.83147 -0.55557 -1 0 0 -1 0.084265 0.222215
-0.92388 -0.382683 -1 0 0 -1 0.038060 0.308658
-0.980785 -0.195089 -1 0 0 -1 0.009607 0.402456
-1 1e-06 -1 0 0 -1 0.000000 0.500000
-0.980785 0.195091 -1 0 0 -1 0.009607 0.597546
-0.923879 0.382684 -1 0 0 -1 0.038060 0.691342
-0.831469 0.555571 -1 0 0 -1 0.084266 0.777786
-0.707106 0.707108 -1 0 0 -1 0.146447 0.853554
-0.555569 0.83147 -1 0 0 -1 0.222216 0.915735
-0.382682 0.92388 -1 0 0 -1 0.308659 0.961940
-0.195089 0.980786 -1 0 0 -1 0.402456 0.990393
3 0 1 2 
3 0 2 3 
3 4 5 6 
3 4 6 7 
3 8 9 10 
3 8 10 11 
3 12 13 14 
3 12 14 15 
3 16 17 18 
3 16 18 19 
3 20 21 22 
3 20 22 23 
3 24 25 26 
3 24 26 27 
3 28 29 30 
3 28 30 31 
3 32 33 34 
3 32 34 35 
3 36 37 38 
3 36 38 39 
3 40 41 42 
3 40 42 43 
3 44 45 46 
3 44 46 47 
3 48 49 50 
3 48 50 51 
3 52 53 54 
3 52 54 55 
3 56 57 58 
3 56 58 59 
3 60 61 62 
3 60 62 63 
3 64 65 66 
3 64 66 67 
3 68 69 70 
3 68 70 71 
3 72 73 74 
3 72 74 75 
3 76 77 78 
3 76 78 79 
3 80 81 82 
3 80 82 83 
3 84 85 86 
3 84 86 87 
3 88 89 90 
3 88 90 91 
3 92 93 94 
3 92 94 95 
3 96 97 98 
3 96 98 99 
3 100 101 102 
3 100 102 103 
3 104 105 106 
3 104 106 107 
3 108 109 110 
3 108 110 111 
3 112 113 114 
3 112 114 115 
3 116 117 118 
3 116 118 119 
3 120 121 122 
3 120 122 123 
3 120 123 124 
3 120 124 125 
3 120 125 126 
3 120 126 127 
3 120 127 128 
3 120 128 129 
3 120 129 130 
3 120 130 131 
3 120 131 132 
3 120 132 133 
3 120 133 134 
3 120 134 135 
3 120 135 136 
3 120 136 137 
3 120 137 138 
3 120 138 139 
3 120 139 140 
3 120 140 141 
3 120 141 142 
3 120 142 143 
3 120 143 144 
3 120 144 145 
3 120 145 146 
3 120 146 147 
3 120 147 148 
3 120 148 149 
3 120 149 150 
3 120 150 151 
3 152 153 154 
3 152 154 155 
3 156 157 158 
3 156 158 159 
3 160 161 162 
3 160 162 163 
3 160 163 164 
3 160 164 165 
3 160 165 166 
3 160 166 167 
3 160 167 168 
3 160 168 169 
3 160 169 170 
3 160 170 171 
3 160 171 172 
3 160 172 173 
3 160 173 174 
3 160 174 175 
3 160 175 176 
3 160 176 177 
3 160 177 178 
3 160 178 179 
3 160 179 180 
3 160 180 181 
3 160 181 182 
3 160 182 183 
3 160 183 184 
3 160 184 185 
3 160 185 186 
3 160 186 187 
3 160 187 188 
3 160 188 189 
3 160 189 190 
3 160 190 191 
