ply
format ascii 1.0
comment VCGLIB generated
element vertex 8
property float x
property float y
property float z
property float nx
property float ny
property float nz
element face 12
property list uchar int vertex_indices
end_header
-50 0 -50 -5773.504 -5773.504 -5773.504 
50 0 -50 3333.334 -6666.667 -6666.667 
-50 100 -50 -6666.667 3333.334 -6666.667 
50 100 -50 6666.667 6666.667 -3333.334 
-50 0 50 -6666.667 -6666.667 3333.334 
50 0 50 6666.667 -3333.334 6666.667 
-50 100 50 -3333.334 6666.667 6666.667 
50 100 50 5773.504 5773.504 5773.504 
3 2 1 0 
3 1 2 3 
3 4 2 0 
3 2 4 6 
3 1 4 0 
3 4 1 5 
3 6 5 7 
3 5 6 4 
3 3 6 7 
3 6 3 2 
3 5 3 7 
3 3 5 1 
