ply
format ascii 1.0
comment VCGLIB generated
element vertex 330
property float x
property float y
property float z
property float nx
property float ny
property float nz
property float texture_u
property float texture_v
element face 652
property list uchar int vertex_indices
end_header
0.154837 0.2938164 -5.976402 0.09754369 0.06297582 -0.2350293 0.626627 0.373985
0.309674 0.2474251 -5.803264 0.2621441 -1.296468e-07 2.032653e-07 0.753253 0.393881
0.154837 0.2010328 -5.630126 0.09754357 -0.06297623 0.2350293 0.626627 0.413779
-0.154837 0.2010328 -5.630126 -0.09754357 -0.06297622 0.2350293 0.373373 0.413779
-0.309674 0.2474251 -5.803264 -0.2621441 -1.295165e-07 2.063925e-07 0.246747 0.393881
-0.154837 0.2938164 -5.976402 -0.0975437 0.06297584 -0.2350293 0.373373 0.373985
0.154837 0.8027218 -5.68258 0.09754341 0.1720535 -0.1720534 0.626627 0.155719
0.309674 0.6759762 -5.55584 0.2621441 -1.45934e-07 1.448917e-07 0.753253 0.210079
0.154837 0.5492306 -5.42909 0.09754352 -0.1720537 0.1720532 0.626627 0.264439
-0.154837 0.5492306 -5.42909 -0.09754352 -0.1720537 0.1720532 0.373373 0.264439
-0.309674 0.6759762 -5.55584 -0.2621441 -1.448917e-07 1.438493e-07 0.246747 0.210079
-0.154837 0.8027218 -5.68258 -0.09754341 0.1720535 -0.1720534 0.373373 0.155719
0.154837 1.096537 -5.173679 0.09754309 0.2350296 -0.06297584 0.626627 0.029703
0.309674 0.9234002 -5.127286 0.2621441 -1.45934e-07 2.501725e-08 0.753253 0.103961
0.154837 0.7502623 -5.080894 0.09754299 -0.2350296 0.06297594 0.626627 0.178218
-0.154837 0.7502623 -5.080894 -0.09754299 -0.2350296 0.06297594 0.373373 0.178218
-0.309674 0.9234002 -5.127286 -0.2621441 -1.448917e-07 2.449605e-08 0.246747 0.103961
-0.154837 1.096537 -5.173679 -0.09754309 0.2350296 -0.06297584 0.373373 0.029703
0.154837 1.096537 -4.586046 0.09754299 0.2350296 0.06297602 0.626627 0.029703
0.309674 0.9234002 -4.632439 0.2621441 -1.740785e-07 -3.244429e-08 0.753253 0.103961
0.154837 0.7502623 -4.678831 0.09754309 -0.2350295 -0.06297594 0.626627 0.178218
-0.154837 0.7502623 -4.678831 -0.09754302 -0.2350296 -0.06297594 0.373373 0.178218
-0.309674 0.9234002 -4.632439 -0.2621441 -1.261287e-07 -1.433292e-09 0.246747 0.103961
-0.154837 1.096537 -4.586046 -0.09754299 0.2350296 0.06297602 0.373373 0.029703
0.154837 0.8027218 -4.077142 0.09754346 0.1720535 0.1720534 0.626627 0.155719
0.309674 0.6759762 -4.203887 0.2621441 2.814441e-08 3.544112e-08 0.753253 0.210079
0.154837 0.5492306 -4.330632 0.09754318 -0.1720536 -0.1720535 0.626627 0.264439
-0.154837 0.5492306 -4.330632 -0.09754318 -0.1720536 -0.1720535 0.373373 0.264439
-0.309674 0.6759762 -4.203887 -0.2621441 3.02292e-08 3.544112e-08 0.246747 0.210079
-0.154837 0.8027218 -4.077142 -0.09754349 0.1720535 0.1720534 0.373373 0.155719
0.154837 0.2938173 -3.783326 0.09754355 0.06297586 0.2350294 0.626627 0.373984
0.309674 0.2474249 -3.956463 0.2621441 3.491992e-08 3.095888e-07 0.753253 0.393881
0.154837 0.2010327 -4.129601 0.0975437 -0.06297597 -0.2350293 0.626627 0.413779
-0.154837 0.2010327 -4.129601 -0.09754372 -0.06297597 -0.2350293 0.373373 0.413779
-0.309674 0.2474249 -3.956463 -0.2621441 3.596231e-08 3.064616e-07 0.246747 0.393881
-0.154837 0.2938173 -3.783326 -0.09754355 0.06297589 0.2350294 0.373373 0.373984
0.154837 -0.2938155 -3.783326 0.09754357 -0.06297584 0.2350294 0.626627 0.626015
0.309674 -0.2474241 -3.956463 0.2621441 -4.338935e-08 3.648353e-07 0.753253 0.606119
0.154837 -0.2010318 -4.129601 0.09754372 0.06297604 -0.2350293 0.626627 0.586221
-0.154837 -0.2010318 -4.129601 -0.09754374 0.06297604 -0.2350293 0.373373 0.586221
-0.309674 -0.2474241 -3.956463 -0.2621441 -4.299847e-08 3.679625e-07 0.246747 0.606119
-0.154837 -0.2938155 -3.783326 -0.09754357 -0.06297584 0.2350294 0.373373 0.626015
0.154837 -0.8027208 -4.077142 0.09754335 -0.1720535 0.1720535 0.626627 0.844281
0.309674 -0.6759752 -4.203887 0.2621441 -1.97011e-07 2.0535e-07 0.753253 0.789921
0.154837 -0.5492296 -4.330632 0.09754321 0.1720535 -0.1720536 0.626627 0.735561
-0.154837 -0.5492296 -4.330632 -0.09754324 0.1720535 -0.1720536 0.373373 0.735561
-0.309674 -0.6759752 -4.203887 -0.2621441 -1.959686e-07 2.074348e-07 0.246747 0.789921
-0.154837 -0.8027208 -4.077142 -0.09754335 -0.1720535 0.1720535 0.373373 0.844281
0.154837 -1.096536 -4.586046 0.09754299 -0.2350296 0.062976 0.626627 0.970296
0.309674 -0.9233993 -4.632439 0.2621441 -4.273782e-08 7.817893e-09 0.753253 0.896039
0.154837 -0.7502612 -4.678831 0.09754314 0.2350295 -0.06297589 0.626627 0.821782
-0.154837 -0.7502612 -4.678831 -0.09754312 0.2350295 -0.06297589 0.373373 0.821782
-0.309674 -0.9233993 -4.632439 -0.2621441 -4.48226e-08 7.296698e-09 0.246747 0.896039
-0.154837 -1.096537 -4.586046 -0.09754302 -0.2350296 0.062976 0.373373 0.970297
0.154837 -1.096536 -5.173679 0.09754307 -0.2350296 -0.06297591 0.626627 0.970296
0.309674 -0.9233993 -5.127286 0.2621441 -6.879748e-08 -1.394192e-08 0.753253 0.896039
0.154837 -0.7502612 -5.080894 0.09754302 0.2350296 0.062976 0.626627 0.821782
-0.154837 -0.7502612 -5.080894 -0.09754302 0.2350296 0.06297597 0.373373 0.821782
-0.309674 -0.9233993 -5.127286 -0.2621441 -6.879748e-08 -1.49843e-08 0.246747 0.896039
-0.154837 -1.096536 -5.173679 -0.09754307 -0.2350295 -0.06297594 0.373373 0.970296
0.154837 -0.8027208 -5.68258 0.09754344 -0.1720535 -0.1720535 0.626627 0.844281
0.309674 -0.6759752 -5.55584 0.2621441 1.501036e-07 1.547944e-07 0.753253 0.789921
0.154837 -0.5492296 -5.42909 0.09754355 0.1720536 0.1720532 0.626627 0.735561
-0.154837 -0.5492296 -5.42909 -0.09754355 0.1720536 0.1720532 0.373373 0.735561
-0.309674 -0.6759752 -5.55584 -0.2621441 1.501036e-07 1.553155e-07 0.246747 0.789921
-0.154837 -0.8027208 -5.68258 -0.09754344 -0.1720535 -0.1720534 0.373373 0.844281
0.154837 -0.2938153 -5.976402 0.09754363 -0.06297586 -0.2350294 0.626627 0.626015
0.309674 -0.247424 -5.803264 0.2621441 1.37595e-07 2.553847e-07 0.753253 0.606119
0.154837 -0.2010316 -5.630126 0.09754355 0.06297623 0.2350293 0.626627 0.586221
-0.154837 -0.2010316 -5.630126 -0.09754357 0.06297623 0.2350293 0.373373 0.586221
-0.309674 -0.247424 -5.803264 -0.2621441 1.37595e-07 2.543423e-07 0.246747 0.606119
-0.154837 -0.2938153 -5.976402 -0.09754359 -0.06297586 -0.2350294 0.373373 0.626015
0.309674 0.8283955 -4.401589 0.2621441 9.11283e-17 -1.042386e-09 0.753253 0.144707
0.154837 0.9837199 -5.447813 0.09759393 0.2107042 -0.1216498 0.626627 0.078090
0.154837 -0.5679504 -5.863583 0.0975943 -0.1216499 -0.210704 0.626627 0.743590
0.154837 -0.6730701 -5.26846 0.0975939 0.210704 0.1216501 0.626627 0.788675
0.2709647 -0.8224021 -4.6595 0.2044773 0.1584488 -0.04245625 0.721597 0.852722
-0.2709647 -0.6020404 -4.277822 -0.2044769 0.1159929 -0.1159928 0.278403 0.758211
0.2709647 -0.2744854 -3.855467 0.2044769 -0.04245614 0.1584493 0.721597 0.617725
-0.154837 -0.5679504 -5.863583 -0.0975943 -0.1216499 -0.210704 0.373373 0.743590
-0.2709647 -0.7499101 -5.629773 -0.2044771 -0.1159927 -0.1159927 0.278403 0.821631
-0.154837 -0.6730701 -4.491265 -0.09759353 0.2107044 -0.1216498 0.373373 0.788675
0 -0.1932996 -4.158457 -1.002561e-09 0.06784774 -0.2532117 0.500000 0.582905
0.154837 0.6730711 -5.26846 0.09759386 -0.2107041 0.12165 0.626627 0.211325
0 0.1933004 -4.158457 0 -0.06784776 -0.2532117 0.500000 0.417095
-0.2709647 -0.2203619 -4.05746 -0.2044774 0.04245643 -0.1584485 0.278403 0.594512
0.154837 8.766244e-07 -3.743962 0.09759434 -2.126996e-08 0.2432999 0.626627 0.500000
0.309674 -0.8283945 -4.401589 0.2621441 1.667818e-08 -1.146624e-08 0.753253 0.855293
0.154837 0.7771955 -4.879863 0.0975936 -0.2433002 -2.126998e-08 0.626627 0.166667
0 -0.8238449 -4.056018 0 -0.1853639 0.1853638 0.500000 0.853341
0.154837 9.079834e-07 -4.102667 0.09759434 -5.488148e-08 -0.2432999 0.626627 0.500000
-0.2709647 0.2744872 -3.855467 -0.204477 0.04245619 0.1584492 0.278403 0.382275
-0.154837 0.5679514 -5.863583 -0.0975943 0.1216499 -0.210704 0.373373 0.256410
0.2709647 -0.8224021 -5.100225 0.2044773 0.1584488 0.04245614 0.721597 0.852722
0.309674 -0.4782737 -4.051467 0.2621441 -2.095196e-07 3.710893e-07 0.753253 0.705128
0 0.7214071 -4.686563 0 -0.2532118 -0.06784765 0.500000 0.190594
-0.309674 0.9565482 -4.879863 -0.2621441 -3.961067e-07 -3.462876e-14 0.246747 0.089744
0.2709647 -0.7499101 -5.629773 0.2044771 -0.1159927 -0.1159927 0.721597 0.821631
0.2709647 -0.6020404 -4.277822 0.2044769 0.1159929 -0.1159928 0.721597 0.758211
-0.2709647 1.024397 -4.605376 -0.2044768 0.1584493 0.04245646 0.278403 0.060644
0 -0.5281055 -5.407969 -1.00256e-09 0.1853639 0.1853638 0.500000 0.726501
-0.2709647 1.024397 -5.15435 -0.2044768 0.1584494 -0.04245633 0.278403 0.060644
0.2709647 0.8224031 -5.100225 0.2044774 -0.1584487 0.04245612 0.721597 0.147278
-0.309674 8.298911e-08 -5.836411 -0.2621441 -5.211935e-10 4.169548e-09 0.246747 0.500000
-0.2709647 -0.8224021 -5.100225 -0.2044773 0.1584488 0.04245612 0.278403 0.852722
-0.309674 0.4782745 -4.051467 -0.2621441 2.126467e-07 3.794286e-07 0.246747 0.294872
0.309674 0.4782745 -4.051467 0.2621441 2.126467e-07 3.794286e-07 0.753253 0.294872
0.2709647 0.6020414 -5.481902 0.2044775 -0.1159924 0.1159925 0.721597 0.241789
-0.2709647 0.2744864 -5.904262 -0.2044771 0.0424563 -0.158449 0.278403 0.382275
0.154837 0.5679514 -5.863583 0.0975943 0.1216499 -0.210704 0.626627 0.256410
-0.309674 -0.8283945 -5.358137 -0.2621441 3.585808e-07 2.230707e-07 0.246747 0.855293
0.154837 1.135902 -4.879863 0.0975936 0.2433002 2.177098e-08 0.626627 0.012820
0.2709647 0.7499111 -5.629773 0.2044771 0.1159927 -0.1159927 0.721597 0.178369
-0.2709647 -0.2203617 -5.702268 -0.204477 0.04245675 0.1584491 0.278403 0.594512
0.2709647 0.2744864 -5.904262 0.2044771 0.0424563 -0.158449 0.721597 0.382275
-0.154837 -0.7771946 -4.879863 -0.09759358 0.2433002 2.076899e-08 0.373373 0.833333
-0.154837 1.135902 -4.879863 -0.0975936 0.2433002 2.227197e-08 0.373373 0.012820
-0.2709647 0.6020414 -5.481902 -0.2044775 -0.1159924 0.1159925 0.278403 0.241789
-0.154837 -0.3885969 -4.206792 -0.09759366 0.1216497 -0.2107044 0.373373 0.666667
-0.154837 9.866875e-08 -6.015765 -0.09759434 -3.283763e-08 -0.2432999 0.373373 0.500000
-0.154837 -0.3885977 -5.552932 -0.09759369 0.1216506 0.2107039 0.373373 0.666667
0 1.125394 -5.181409 0 0.2532117 -0.0678477 0.500000 0.017327
0.154837 6.730952e-08 -5.657058 0.09759434 5.989145e-08 0.2432999 0.626627 0.500000
0 0.3015485 -3.75447 -1.002561e-09 0.06784782 0.2532117 0.500000 0.370668
0.154837 0.3885987 -4.206792 0.0975937 -0.1216498 -0.2107043 0.626627 0.333333
-0.154837 0.3885989 -5.552932 -0.0975937 -0.1216506 0.2107038 0.373373 0.333333
0.309674 -0.8283945 -5.358137 0.2621441 3.585808e-07 2.230707e-07 0.753253 0.855293
0.2709647 -0.7499101 -4.129953 0.2044771 -0.1159928 0.1159926 0.721597 0.821631
0.2709647 0.7499111 -4.129953 0.2044773 0.1159926 0.1159925 0.721597 0.178369
-0.309674 0.8283955 -5.358137 -0.2621441 -3.419027e-07 2.116043e-07 0.246747 0.144707
0.2709647 -0.2203617 -5.702268 0.204477 0.04245675 0.158449 0.721597 0.594512
-0.154837 -1.135901 -4.879863 -0.0975936 -0.2433002 -4.701629e-07 0.373373 0.987180
-0.2709647 -1.024396 -4.605376 -0.2044774 -0.1584487 0.04245631 0.278403 0.939356
0.2709647 -1.024396 -5.15435 0.2044768 -0.1584494 -0.04245643 0.721597 0.939356
-0.154837 0.9837199 -4.311912 -0.09759393 0.2107041 0.1216499 0.373373 0.078090
0.2709647 -1.024396 -4.605376 0.2044768 -0.1584493 0.04245643 0.721597 0.939356
0.154837 0.6730711 -4.491265 0.09759349 -0.2107044 -0.1216498 0.626627 0.211325
-0.309674 -0.8283945 -4.401589 -0.2621441 1.667818e-08 -1.146624e-08 0.246747 0.855293
0.309674 0.8283955 -5.358137 0.2621441 -3.419027e-07 2.116043e-07 0.753253 0.144707
0.309674 -0.4782735 -5.708258 0.2621441 1.678241e-07 2.981223e-07 0.753253 0.705128
0 -0.8238449 -5.703706 0 -0.1853639 -0.1853638 0.500000 0.853341
0.2709647 -0.2203619 -4.05746 0.2044774 0.04245643 -0.1584485 0.721597 0.594512
0.154837 9.866875e-08 -6.015765 0.09759434 -3.233665e-08 -0.2432999 0.626627 0.500000
0.309674 8.923039e-07 -3.923315 0.2621441 -5.211935e-10 2.084773e-09 0.753253 0.500000
0.154837 -1.135901 -4.879863 0.0975936 -0.2433002 -2.126998e-08 0.626627 0.987180
-0.2709647 0.6020414 -4.277822 -0.2044768 -0.115993 -0.115993 0.278403 0.241789
-0.154837 -0.6730701 -5.26846 -0.0975939 0.210704 0.1216501 0.373373 0.788675
0 -0.7214059 -4.686563 -1.00256e-09 0.2532118 -0.0678476 0.500000 0.809406
0 -0.3015474 -6.005258 1.00256e-09 -0.06784789 -0.2532117 0.500000 0.629332
-0.2709647 -0.2744854 -3.855467 -0.2044769 -0.04245614 0.1584493 0.278403 0.617725
-0.2709647 0.8224031 -4.659502 -0.2044772 -0.1584489 -0.04245622 0.278403 0.147278
-0.154837 0.7771955 -4.879863 -0.0975936 -0.2433002 -2.126998e-08 0.373373 0.166667
-0.2709647 -0.6020404 -5.481902 -0.2044775 0.1159923 0.1159925 0.278403 0.758211
-0.154837 -0.983719 -4.311912 -0.09759393 -0.210704 0.1216502 0.373373 0.921910
0.154837 0.9837199 -4.311912 0.09759393 0.2107041 0.1216499 0.626627 0.078090
0.154837 -0.6730701 -4.491265 0.09759353 0.2107044 -0.1216498 0.626627 0.788675
-0.154837 0.6730711 -5.26846 -0.09759386 -0.2107041 0.12165 0.373373 0.211325
0 -0.3015476 -3.75447 -1.002561e-09 -0.06784797 0.2532117 0.500000 0.629332
0 -0.7214059 -5.073164 0 0.2532117 0.06784797 0.500000 0.809406
-0.154837 9.079834e-07 -4.102667 -0.09759434 -5.488148e-08 -0.2432999 0.373373 0.500000
0 0.823846 -5.703706 -1.00256e-09 0.1853639 -0.1853637 0.500000 0.146659
0 -0.5281055 -4.351757 0 0.1853638 -0.1853639 0.500000 0.726501
0.2709647 0.2203627 -4.05746 0.2044774 -0.04245646 -0.1584485 0.721597 0.405488
-0.2709647 -0.7499101 -4.129953 -0.2044771 -0.1159928 0.1159926 0.278403 0.821631
0 0.5281065 -4.351757 0 -0.1853637 -0.1853639 0.500000 0.273499
-0.309674 0.8283955 -4.401589 -0.2621441 9.11283e-17 -1.042386e-09 0.246747 0.144707
-0.2709647 -0.2744862 -5.904262 -0.2044771 -0.04245638 -0.158449 0.278403 0.617725
-0.2709647 0.2203627 -4.05746 -0.2044774 -0.04245643 -0.1584485 0.278403 0.405488
0.2709647 0.8224031 -4.6595 0.2044773 -0.1584488 -0.0424563 0.721597 0.147278
0.2709647 -0.6020404 -5.481902 0.2044775 0.1159923 0.1159925 0.721597 0.758211
0.154837 -0.5679504 -3.896144 0.09759369 -0.12165 0.2107042 0.626627 0.743590
0.154837 0.5679514 -3.896144 0.09759407 0.12165 0.210704 0.626627 0.256410
-0.2709647 0.8224031 -5.100225 -0.2044774 -0.1584487 0.04245612 0.278403 0.147278
0.154837 -0.983719 -4.311912 0.09759393 -0.2107042 0.1216498 0.626627 0.921910
-0.154837 -0.5679504 -3.896144 -0.09759369 -0.12165 0.2107042 0.373373 0.743590
0 0.5281065 -5.407969 1.00256e-09 -0.1853639 0.1853637 0.500000 0.273499
-0.154837 0.3885987 -4.206792 -0.0975937 -0.1216498 -0.2107043 0.373373 0.333333
0 1.125394 -4.578315 -1.002561e-09 0.2532117 0.06784782 0.500000 0.017327
-0.2709647 0.2203628 -5.702268 -0.204477 -0.04245677 0.158449 0.278403 0.405488
-0.309674 -0.9565482 -4.879863 -0.2621441 -3.981916e-07 -5.212278e-10 0.246747 0.910257
0.309674 0.4782746 -5.708258 0.2621441 -1.688665e-07 2.981223e-07 0.753253 0.294872
0.309674 0.9565482 -4.879863 0.2621441 -3.961067e-07 -3.462876e-14 0.753253 0.089744
0 0.3015486 -6.005258 0 0.06784789 -0.2532117 0.500000 0.370668
-0.309674 0.4782746 -5.708258 -0.2621441 -1.688666e-07 2.981223e-07 0.246747 0.294872
0 -1.125392 -5.181409 -1.002561e-09 -0.2532117 -0.06784782 0.500000 0.982673
-0.154837 8.766244e-07 -3.743962 -0.09759434 -2.126996e-08 0.2432999 0.373373 0.500000
-0.309674 8.923039e-07 -3.923315 -0.2621441 -5.211935e-10 2.084773e-09 0.246747 0.500000
0.2709647 1.024397 -5.15435 0.2044768 0.1584494 -0.04245635 0.721597 0.060644
0.2709647 0.2203628 -5.702268 0.204477 -0.04245675 0.158449 0.721597 0.405488
0 -0.1932994 -5.60127 0 0.06784806 0.2532117 0.500000 0.582905
0 0.7214071 -5.073164 0 -0.2532117 0.06784791 0.500000 0.190594
-0.154837 6.730952e-08 -5.657058 -0.09759434 5.989145e-08 0.2432999 0.373373 0.500000
-0.154837 0.9837199 -5.447813 -0.09759393 0.2107042 -0.1216498 0.373373 0.078090
0 0.823846 -4.056018 0 0.185364 0.1853637 0.500000 0.146659
0.154837 -0.7771946 -4.879863 0.0975936 0.2433002 2.126998e-08 0.626627 0.833333
-0.154837 0.5679514 -3.896144 -0.09759407 0.12165 0.210704 0.373373 0.256410
-0.2709647 0.7499111 -4.129953 -0.2044773 0.1159926 0.1159925 0.278403 0.178369
0.309674 8.298911e-08 -5.836411 0.2621441 -5.211935e-10 4.169548e-09 0.753253 0.500000
0.154837 -0.3885969 -4.206792 0.09759366 0.1216497 -0.2107044 0.626627 0.666667
0.2709647 0.2744872 -3.855467 0.204477 0.04245619 0.1584492 0.721597 0.382275
0.2709647 1.024397 -4.605376 0.2044769 0.1584493 0.04245646 0.721597 0.060644
-0.2709647 -1.024396 -5.15435 -0.2044768 -0.1584494 -0.04245643 0.278403 0.939356
0.2709647 0.6020414 -4.277822 0.2044768 -0.1159931 -0.1159929 0.721597 0.241789
-0.2709647 0.7499111 -5.629773 -0.2044771 0.1159927 -0.1159927 0.278403 0.178369
0.154837 0.3885989 -5.552932 0.0975937 -0.1216506 0.2107038 0.626627 0.333333
0.2709647 -0.2744862 -5.904262 0.2044771 -0.04245638 -0.158449 0.721597 0.617725
-0.309674 -0.4782735 -5.708258 -0.2621441 1.678241e-07 2.981223e-07 0.246747 0.705128
-0.154837 -0.983719 -5.447813 -0.09759393 -0.2107041 -0.1216499 0.373373 0.921910
-0.2709647 -0.8224021 -4.6595 -0.2044773 0.1584488 -0.04245625 0.278403 0.852722
-0.309674 -0.4782737 -4.051467 -0.2621441 -2.095196e-07 3.710893e-07 0.246747 0.705128
-0.154837 0.6730711 -4.491265 -0.09759349 -0.2107044 -0.1216498 0.373373 0.211325
0.309674 -0.9565482 -4.879863 0.2621441 -3.981916e-07 -5.212278e-10 0.753253 0.910257
0.154837 -0.3885977 -5.552932 0.09759369 0.1216506 0.2107038 0.626627 0.666667
0.154837 -0.983719 -5.447813 0.09759393 -0.2107041 -0.1216499 0.626627 0.921910
0 -1.125392 -4.578315 8.642066e-07 -0.2532117 0.06784782 0.500000 0.982673
0 0.1933005 -5.60127 1.002561e-09 -0.06784804 0.2532117 0.500000 0.417095
0 1.012819e-07 -6.045656 0 -3.526613e-08 -0.2621441 0.500000 0.500000
0.2709647 9.213553e-08 -5.941034 0.2045252 -5.557204e-09 -0.1639785 0.721597 0.500000
0.2709647 7.384275e-08 -5.731789 0.2045251 3.604205e-08 0.1639786 0.721597 0.500000
0 6.469643e-08 -5.627167 -1.003164e-09 6.385631e-08 0.2621441 0.500000 0.500000
-0.2709647 7.384275e-08 -5.731789 -0.2045251 3.617121e-08 0.1639786 0.278403 0.500000
-0.2709647 9.213553e-08 -5.941034 -0.2045252 -5.040512e-09 -0.1639785 0.278403 0.500000
0 0.5828967 -5.88947 -5.015817e-10 0.131072 -0.2270235 0.500000 0.250000
0.2709647 0.5305856 -5.798862 0.2045254 0.08198904 -0.1420093 0.721597 0.272436
0.2709647 0.4259636 -5.617654 0.204525 -0.0819895 0.1420096 0.721597 0.317308
0 0.3736525 -5.527046 0 -0.1310725 0.2270232 0.500000 0.339743
-0.2709647 0.4259636 -5.617654 -0.204525 -0.08198948 0.1420096 0.278403 0.317308
-0.2709647 0.5305856 -5.798862 -0.2045254 0.08198904 -0.1420093 0.278403 0.272436
0 1.009607 -5.462759 0 0.2270235 -0.1310719 0.500000 0.066987
0.2709647 0.9190011 -5.410448 0.2045253 0.1420095 -0.08198914 0.721597 0.105847
0.2709647 0.73779 -5.305826 0.2045254 -0.1420094 0.08198902 0.721597 0.183567
0 0.6471844 -5.253515 -5.015812e-10 -0.2270233 0.1310722 0.500000 0.222428
-0.2709647 0.73779 -5.305826 -0.2045254 -0.1420094 0.08198902 0.278403 0.183567
-0.2709647 0.9190011 -5.410448 -0.2045253 0.1420095 -0.08198914 0.278403 0.105847
0 1.165793 -4.879863 5.015814e-10 0.2621441 5.200909e-08 0.500000 0.000000
0.2709647 1.061171 -4.879863 0.2045252 0.1639785 1.885652e-08 0.721597 0.044872
0.2709647 0.851926 -4.879863 0.2045253 -0.1639784 -2.311922e-08 0.721597 0.134615
0 0.747304 -4.879863 5.015809e-10 -0.2621441 -1.091893e-07 0.500000 0.179487
-0.2709647 0.851926 -4.879863 -0.2045253 -0.1639784 -4.520782e-08 0.278403 0.134615
-0.2709647 1.061171 -4.879863 -0.2045252 0.1639785 1.924404e-08 0.278403 0.044872
0 1.009607 -4.296966 5.015814e-10 0.2270235 0.1310719 0.500000 0.066987
0.2709647 0.9190011 -4.349277 0.2045253 0.1420094 0.08198922 0.721597 0.105847
0.2709647 0.73779 -4.453901 0.2045251 -0.1420097 -0.0819892 0.721597 0.183567
0 0.6471844 -4.506211 -1.003163e-09 -0.2270235 -0.1310718 0.500000 0.222428
-0.2709647 0.73779 -4.453901 -0.2045251 -0.1420097 -0.08198914 0.278403 0.183567
-0.2709647 0.9190011 -4.349277 -0.2045253 0.1420095 0.08198922 0.278403 0.105847
0 0.5828977 -3.870256 -1.003163e-09 0.1310721 0.2270234 0.500000 0.250000
0.2709647 0.5305856 -3.960862 0.2045251 0.0819893 0.1420096 0.721597 0.272436
0.2709647 0.4259634 -4.142074 0.2045251 -0.08198939 -0.1420096 0.721597 0.317308
0 0.3736524 -4.232679 0 -0.1310717 -0.2270236 0.500000 0.339743
-0.2709647 0.4259634 -4.142074 -0.2045251 -0.08198939 -0.1420096 0.278403 0.317308
-0.2709647 0.5305856 -3.960862 -0.2045251 0.0819893 0.1420096 0.278403 0.272436
0 8.740107e-07 -3.71407 1.003163e-09 8.682298e-09 0.2621441 0.500000 0.500000
0.2709647 8.831575e-07 -3.818693 0.2045251 -1.149366e-08 0.1639787 0.721597 0.500000
0.2709647 9.014503e-07 -4.027937 0.2045254 -3.320026e-08 -0.1639783 0.721597 0.500000
0 9.105967e-07 -4.13256 0 -6.134839e-08 -0.2621441 0.500000 0.500000
-0.2709647 9.014503e-07 -4.027937 -0.2045254 -3.38461e-08 -0.1639783 0.278403 0.500000
-0.2709647 8.831575e-07 -3.818693 -0.2045251 -1.175201e-08 0.1639787 0.278403 0.500000
0 -0.5828956 -3.870256 0 -0.131072 0.2270235 0.500000 0.750000
0.2709647 -0.5305846 -3.960862 0.2045251 -0.08198927 0.1420097 0.721597 0.727564
0.2709647 -0.4259626 -4.142074 0.2045253 0.08198922 -0.1420095 0.721597 0.682692
0 -0.3736516 -4.232679 -5.015814e-10 0.1310717 -0.2270236 0.500000 0.660257
-0.2709647 -0.4259626 -4.142074 -0.2045253 0.08198922 -0.1420095 0.278403 0.682692
-0.2709647 -0.5305846 -3.960862 -0.2045251 -0.08198927 0.1420097 0.278403 0.727564
0 -1.009606 -4.296966 2.081562e-07 -0.2270235 0.1310719 0.500000 0.933013
0.2709647 -0.9190001 -4.349277 0.2045253 -0.1420095 0.0819892 0.721597 0.894153
0.2709647 -0.7377889 -4.453901 0.2045252 0.1420096 -0.08198911 0.721597 0.816432
0 -0.6471834 -4.506211 -5.015814e-10 0.2270236 -0.1310718 0.500000 0.777572
-0.2709647 -0.7377889 -4.453901 -0.2045252 0.1420096 -0.08198911 0.278403 0.816432
-0.2709647 -0.9190001 -4.349277 -0.2045254 -0.1420093 0.0819892 0.278403 0.894153
0 -1.165792 -4.879863 2.206958e-07 -0.2621441 -1.076846e-07 0.500000 1.000000
0.2709647 -1.06117 -4.879863 0.204525 -0.1639787 -1.007276e-08 0.721597 0.955128
0.2709647 -0.851925 -4.879863 0.2045254 0.1639782 6.3267e-09 0.721597 0.865385
0 -0.7473029 -4.879863 1.003162e-09 0.2621441 -6.134827e-08 0.500000 0.820513
-0.2709647 -0.851925 -4.879863 -0.2045254 0.1639783 6.455876e-09 0.278403 0.865385
-0.2709647 -1.06117 -4.879863 -0.2045251 -0.1639786 -1.342081e-07 0.278403 0.955128
0 -1.009606 -5.462759 0 -0.2270235 -0.131072 0.500000 0.933013
0.2709647 -0.9190001 -5.410448 0.2045253 -0.1420094 -0.0819892 0.721597 0.894153
0.2709647 -0.7377889 -5.305826 0.2045254 0.1420094 0.08198906 0.721597 0.816432
0 -0.6471834 -5.253515 -5.015812e-10 0.2270233 0.1310722 0.500000 0.777572
-0.2709647 -0.7377889 -5.305826 -0.2045254 0.1420094 0.08198906 0.278403 0.816432
-0.2709647 -0.9190001 -5.410448 -0.2045253 -0.1420094 -0.0819892 0.278403 0.894153
0 -0.5828956 -5.88947 0 -0.131072 -0.2270235 0.500000 0.750000
0.2709647 -0.5305846 -5.798862 0.2045254 -0.08198909 -0.1420093 0.721597 0.727564
0.2709647 -0.4259624 -5.617654 0.2045251 0.08198947 0.1420097 0.721597 0.682692
0 -0.3736514 -5.527046 0 0.1310724 0.2270232 0.500000 0.660257
-0.2709647 -0.4259624 -5.617654 -0.2045251 0.08198947 0.1420097 0.278403 0.682692
-0.2709647 -0.5305846 -5.798862 -0.2045254 -0.08198909 -0.1420093 0.278403 0.727564
0 0.2717408 -3.993666 0.00651466 0.07293941 -0.251708 0.500000 0.383453
0 0.2717404 0.7367629 -0.02205439 0.2469252 0.08521194 0.500000 0.383453
0.1358705 0.2353346 -3.993666 0.1425623 0.2028163 -0.0852119 0.611116 0.399067
0.1358705 0.2353341 0.7367629 0.03082778 0.06642468 0.251708 0.611116 0.399067
0.2353347 0.1358704 -3.993666 0.1959486 0.09093995 -0.1485045 0.692458 0.441726
0.2353347 0.1358699 0.7367629 0.2028163 0.1425622 0.08521194 0.692458 0.441726
0.2717409 -1.086263e-07 -3.993666 0.2151664 -0.0192181 -0.1485045 0.722232 0.500000
0.2717409 -5.526912e-07 0.7367629 0.2151665 0.0192177 0.1485045 0.722232 0.500000
0.2353347 -0.1358695 -3.993666 0.1767306 -0.1242265 -0.1485045 0.692458 0.558274
0.2353347 -0.13587 0.7367629 0.1959485 -0.09094024 0.1485045 0.692458 0.558274
0.1358705 -0.2353338 -3.993666 0.09093995 -0.1959486 -0.1485045 0.611116 0.600933
0.1358705 -0.2353342 0.7367629 0.1242264 -0.1767307 0.1485045 0.611116 0.600933
0 -0.27174 -3.993666 -0.01921784 -0.2151665 -0.1485045 0.500000 0.616547
0 -0.2717405 0.7367629 0.01921784 -0.2151665 0.1485045 0.500000 0.616548
-0.1358705 -0.2353338 -3.993666 -0.124227 -0.1767302 -0.1485046 0.388884 0.600933
-0.1358705 -0.2353342 0.7367629 -0.09094026 -0.1959484 0.1485045 0.388884 0.600933
-0.2353336 -0.1358695 -3.993666 -0.1959483 -0.09094083 -0.1485043 0.307543 0.558274
-0.2353336 -0.13587 0.7367629 -0.1767309 -0.1242263 0.1485043 0.307543 0.558274
-0.2717409 -1.086263e-07 -3.993666 -0.2151665 0.01921723 -0.1485046 0.277768 0.500000
-0.2717409 -5.526912e-07 0.7367629 -0.2151663 -0.01921915 0.1485046 0.277768 0.500000
-0.2353347 0.1358704 -3.993666 -0.1767307 0.1242264 -0.1485045 0.307542 0.441726
-0.2353347 0.1358699 0.7367629 -0.1959486 0.09093995 0.1485045 0.307542 0.441726
-0.1358705 0.2353346 -3.993666 -0.1043627 0.2248708 -0.0852119 0.388884 0.399067
-0.1358705 0.2353341 0.7367629 -0.1242264 0.1767307 0.1485045 0.388884 0.399067
-0.1165148 -0.2018095 0.5556358 -0.05383193 -0.1391354 -0.2155527 0.404713 0.586555
-0.0005672961 -0.01573384 6.045656 -0.1515697 -0.1702044 0.1295244 0.499536 0.506748
-0.1165148 0.2018094 0.5556358 -0.1377299 0.1471012 -0.1676641 0.404713 0.413445
-0.0005672961 0.01573266 6.045656 -0.06207966 0.1743633 0.1856423 0.499536 0.493252
0.1165148 -0.2018095 0.5556358 0.1377297 -0.1471013 -0.1676641 0.595287 0.586555
0.0005672961 -0.01573384 6.045656 0.06207845 -0.1743642 0.1856419 0.500464 0.506748
0.1165148 0.2018094 0.5556358 0.05383204 0.1391354 -0.2155527 0.595287 0.413445
0.0005672961 0.01573266 6.045656 0.1515712 0.1702028 0.1295249 0.500464 0.493252
-0.03693363 -1.024001 1.824338 -0.1346551 -0.2235507 -0.02475031 0.469795 0.939186
-0.03693363 1.024 1.824338 -0.1373525 0.218489 -0.04600393 0.469795 0.060814
0.03693363 1.024 1.824338 0.1346552 0.2235507 -0.02475019 0.530205 0.060814
0.03693363 -1.024001 1.824338 0.1373515 -0.2184897 -0.04600367 0.530205 0.939186
-0.009394175 -1.077845e-06 6.045656 -0.1589498 0.02972218 0.2063276 0.492317 0.500000
-0.2330296 -5.368566e-07 0.5556358 -0.1450488 -0.02719018 -0.2166588 0.309427 0.500000
0.009394175 -1.077845e-06 6.045656 0.1589493 -0.02972496 0.2063275 0.507683 0.500000
0.2330296 -5.368566e-07 0.5556358 0.1450489 0.02719005 -0.2166588 0.690573 0.500000
0.6113915 -6.782874e-07 1.824338 0.2614057 8.594508e-05 -0.01966166 1.000000 0.500000
-0.6113915 -6.782874e-07 1.824338 -0.2614056 -8.72087e-05 -0.01966179 0.000000 0.500000
3 0 142 216 
3 0 216 182 
3 0 182 222 
3 0 222 109 
3 0 109 223 
3 0 223 114 
3 0 114 217 
3 0 217 142 
3 1 197 217 
3 1 217 114 
3 1 114 223 
3 1 223 180 
3 1 180 224 
3 1 224 188 
3 1 188 218 
3 1 218 197 
3 2 122 218 
3 2 218 188 
3 2 188 224 
3 2 224 204 
3 2 204 225 
3 2 225 215 
3 2 215 219 
3 2 219 122 
3 3 191 219 
3 3 219 215 
3 3 215 225 
3 3 225 125 
3 3 125 226 
3 3 226 178 
3 3 178 220 
3 3 220 191 
3 4 103 220 
3 4 220 178 
3 4 178 226 
3 4 226 183 
3 4 183 227 
3 4 227 108 
3 4 108 221 
3 4 221 103 
3 5 182 216 
3 5 216 119 
3 5 119 221 
3 5 221 108 
3 5 108 227 
3 5 227 92 
3 5 92 222 
3 5 222 182 
3 6 109 222 
3 6 222 160 
3 6 160 228 
3 6 228 73 
3 6 73 229 
3 6 229 112 
3 6 112 223 
3 6 223 109 
3 7 180 223 
3 7 223 112 
3 7 112 229 
3 7 229 138 
3 7 138 230 
3 7 230 107 
3 7 107 224 
3 7 224 180 
3 8 204 224 
3 8 224 107 
3 8 107 230 
3 8 230 83 
3 8 83 231 
3 8 231 175 
3 8 175 225 
3 8 225 204 
3 9 125 225 
3 9 225 175 
3 9 175 231 
3 9 231 156 
3 9 156 232 
3 9 232 117 
3 9 117 226 
3 9 226 125 
3 10 183 226 
3 10 226 117 
3 10 117 232 
3 10 232 129 
3 10 129 233 
3 10 233 203 
3 10 203 227 
3 10 227 183 
3 11 92 227 
3 11 227 203 
3 11 203 233 
3 11 233 192 
3 11 192 228 
3 11 228 160 
3 11 160 222 
3 11 222 92 
3 12 73 228 
3 12 228 121 
3 12 121 234 
3 12 234 111 
3 12 111 235 
3 12 235 187 
3 12 187 229 
3 12 229 73 
3 13 138 229 
3 13 229 187 
3 13 187 235 
3 13 235 181 
3 13 181 236 
3 13 236 102 
3 13 102 230 
3 13 230 138 
3 14 83 230 
3 14 230 102 
3 14 102 236 
3 14 236 88 
3 14 88 237 
3 14 237 190 
3 14 190 231 
3 14 231 83 
3 15 156 231 
3 15 231 190 
3 15 190 237 
3 15 237 151 
3 15 151 238 
3 15 238 172 
3 15 172 232 
3 15 232 156 
3 16 129 232 
3 16 232 172 
3 16 172 238 
3 16 238 96 
3 16 96 239 
3 16 239 101 
3 16 101 233 
3 16 233 129 
3 17 192 233 
3 17 233 101 
3 17 101 239 
3 17 239 116 
3 17 116 234 
3 17 234 121 
3 17 121 228 
3 17 228 192 
3 18 111 234 
3 18 234 177 
3 18 177 240 
3 18 240 154 
3 18 154 241 
3 18 241 200 
3 18 200 235 
3 18 235 111 
3 19 181 235 
3 19 235 200 
3 19 200 241 
3 19 241 72 
3 19 72 242 
3 19 242 168 
3 19 168 236 
3 19 236 181 
3 20 88 236 
3 20 236 168 
3 20 168 242 
3 20 242 136 
3 20 136 243 
3 20 243 95 
3 20 95 237 
3 20 237 88 
3 21 151 237 
3 21 237 95 
3 21 95 243 
3 21 243 210 
3 21 210 244 
3 21 244 150 
3 21 150 238 
3 21 238 151 
3 22 96 238 
3 22 238 150 
3 22 150 244 
3 22 244 165 
3 22 165 245 
3 22 245 99 
3 22 99 239 
3 22 239 96 
3 23 116 239 
3 23 239 99 
3 23 99 245 
3 23 245 134 
3 23 134 240 
3 23 240 177 
3 23 177 234 
3 23 234 116 
3 24 154 240 
3 24 240 193 
3 24 193 246 
3 24 246 171 
3 24 171 247 
3 24 247 128 
3 24 128 241 
3 24 241 154 
3 25 72 241 
3 25 241 128 
3 25 128 247 
3 25 247 106 
3 25 106 248 
3 25 248 202 
3 25 202 242 
3 25 242 72 
3 26 136 242 
3 26 242 202 
3 26 202 248 
3 26 248 124 
3 26 124 249 
3 26 249 164 
3 26 164 243 
3 26 243 136 
3 27 210 243 
3 27 243 164 
3 27 164 249 
3 27 249 176 
3 27 176 250 
3 27 250 145 
3 27 145 244 
3 27 244 210 
3 28 165 244 
3 28 244 145 
3 28 145 250 
3 28 250 105 
3 28 105 251 
3 28 251 196 
3 28 196 245 
3 28 245 165 
3 29 134 245 
3 29 245 196 
3 29 196 251 
3 29 251 195 
3 29 195 246 
3 29 246 193 
3 29 193 240 
3 29 240 134 
3 30 171 246 
3 30 246 123 
3 30 123 252 
3 30 252 86 
3 30 86 253 
3 30 253 199 
3 30 199 247 
3 30 247 171 
3 31 106 247 
3 31 247 199 
3 31 199 253 
3 31 253 143 
3 31 143 254 
3 31 254 162 
3 31 162 248 
3 31 248 106 
3 32 124 248 
3 32 248 162 
3 32 162 254 
3 32 254 90 
3 32 90 255 
3 32 255 84 
3 32 84 249 
3 32 249 124 
3 33 176 249 
3 33 249 84 
3 33 84 255 
3 33 255 159 
3 33 159 256 
3 33 256 167 
3 33 167 250 
3 33 250 176 
3 34 105 250 
3 34 250 167 
3 34 167 256 
3 34 256 186 
3 34 186 257 
3 34 257 91 
3 34 91 251 
3 34 251 105 
3 35 195 251 
3 35 251 91 
3 35 91 257 
3 35 257 185 
3 35 185 252 
3 35 252 123 
3 35 123 246 
3 35 246 195 
3 36 86 252 
3 36 252 157 
3 36 157 258 
3 36 258 170 
3 36 170 259 
3 36 259 78 
3 36 78 253 
3 36 253 86 
3 37 143 253 
3 37 253 78 
3 37 78 259 
3 37 259 94 
3 37 94 260 
3 37 260 141 
3 37 141 254 
3 37 254 143 
3 38 90 254 
3 38 254 141 
3 38 141 260 
3 38 260 198 
3 38 198 261 
3 38 261 82 
3 38 82 255 
3 38 255 90 
3 39 159 255 
3 39 255 82 
3 39 82 261 
3 39 261 118 
3 39 118 262 
3 39 262 85 
3 39 85 256 
3 39 256 159 
3 40 186 256 
3 40 256 85 
3 40 85 262 
3 40 262 209 
3 40 209 263 
3 40 263 149 
3 40 149 257 
3 40 257 186 
3 41 185 257 
3 41 257 149 
3 41 149 263 
3 41 263 174 
3 41 174 258 
3 41 258 157 
3 41 157 252 
3 41 252 185 
3 42 170 258 
3 42 258 89 
3 42 89 264 
3 42 264 173 
3 42 173 265 
3 42 265 127 
3 42 127 259 
3 42 259 170 
3 43 94 259 
3 43 259 127 
3 43 127 265 
3 43 265 87 
3 43 87 266 
3 43 266 98 
3 43 98 260 
3 43 260 94 
3 44 198 260 
3 44 260 98 
3 44 98 266 
3 44 266 155 
3 44 155 267 
3 44 267 161 
3 44 161 261 
3 44 261 198 
3 45 118 261 
3 45 261 161 
3 45 161 267 
3 45 267 81 
3 45 81 268 
3 45 268 77 
3 45 77 262 
3 45 262 118 
3 46 209 262 
3 46 262 77 
3 46 77 268 
3 46 268 137 
3 46 137 269 
3 46 269 163 
3 46 163 263 
3 46 263 209 
3 47 174 263 
3 47 263 163 
3 47 163 269 
3 47 269 153 
3 47 153 264 
3 47 264 89 
3 47 89 258 
3 47 258 174 
3 48 173 264 
3 48 264 214 
3 48 214 270 
3 48 270 144 
3 48 144 271 
3 48 271 135 
3 48 135 265 
3 48 265 173 
3 49 87 265 
3 49 265 135 
3 49 135 271 
3 49 271 211 
3 49 211 272 
3 49 272 76 
3 49 76 266 
3 49 266 87 
3 50 155 266 
3 50 266 76 
3 50 76 272 
3 50 272 194 
3 50 194 273 
3 50 273 147 
3 50 147 267 
3 50 267 155 
3 51 81 267 
3 51 267 147 
3 51 147 273 
3 51 273 115 
3 51 115 274 
3 51 274 208 
3 51 208 268 
3 51 268 81 
3 52 137 268 
3 52 268 208 
3 52 208 274 
3 52 274 179 
3 52 179 275 
3 52 275 132 
3 52 132 269 
3 52 269 137 
3 53 153 269 
3 53 269 132 
3 53 132 275 
3 53 275 131 
3 53 131 270 
3 53 270 214 
3 53 214 264 
3 53 264 153 
3 54 144 270 
3 54 270 184 
3 54 184 276 
3 54 276 213 
3 54 213 277 
3 54 277 133 
3 54 133 271 
3 54 271 144 
3 55 211 271 
3 55 271 133 
3 55 133 277 
3 55 277 126 
3 55 126 278 
3 55 278 93 
3 55 93 272 
3 55 272 211 
3 56 194 272 
3 56 272 93 
3 56 93 278 
3 56 278 75 
3 56 75 279 
3 56 279 158 
3 56 158 273 
3 56 273 194 
3 57 115 273 
3 57 273 158 
3 57 158 279 
3 57 279 146 
3 57 146 280 
3 57 280 104 
3 57 104 274 
3 57 274 115 
3 58 179 274 
3 58 274 104 
3 58 104 280 
3 58 280 110 
3 58 110 281 
3 58 281 201 
3 58 201 275 
3 58 275 179 
3 59 131 275 
3 59 275 201 
3 59 201 281 
3 59 281 207 
3 59 207 276 
3 59 276 184 
3 59 184 270 
3 59 270 131 
3 60 213 276 
3 60 276 140 
3 60 140 282 
3 60 282 74 
3 60 74 283 
3 60 283 97 
3 60 97 277 
3 60 277 213 
3 61 126 277 
3 61 277 97 
3 61 97 283 
3 61 283 139 
3 61 139 284 
3 61 284 169 
3 61 169 278 
3 61 278 126 
3 62 75 278 
3 62 278 169 
3 62 169 284 
3 62 284 212 
3 62 212 285 
3 62 285 100 
3 62 100 279 
3 62 279 75 
3 63 146 279 
3 63 279 100 
3 63 100 285 
3 63 285 120 
3 63 120 286 
3 63 286 152 
3 63 152 280 
3 63 280 146 
3 64 110 280 
3 64 280 152 
3 64 152 286 
3 64 286 206 
3 64 206 287 
3 64 287 80 
3 64 80 281 
3 64 281 110 
3 65 207 281 
3 65 281 80 
3 65 80 287 
3 65 287 79 
3 65 79 282 
3 65 282 140 
3 65 140 276 
3 65 276 207 
3 66 74 282 
3 66 282 148 
3 66 148 216 
3 66 216 142 
3 66 142 217 
3 66 217 205 
3 66 205 283 
3 66 283 74 
3 67 139 283 
3 67 283 205 
3 67 205 217 
3 67 217 197 
3 67 197 218 
3 67 218 130 
3 67 130 284 
3 67 284 139 
3 68 212 284 
3 68 284 130 
3 68 130 218 
3 68 218 122 
3 68 122 219 
3 68 219 189 
3 68 189 285 
3 68 285 212 
3 69 120 285 
3 69 285 189 
3 69 189 219 
3 69 219 191 
3 69 191 220 
3 69 220 113 
3 69 113 286 
3 69 286 120 
3 70 206 286 
3 70 286 113 
3 70 113 220 
3 70 220 103 
3 70 103 221 
3 70 221 166 
3 70 166 287 
3 70 287 206 
3 71 79 287 
3 71 287 166 
3 71 166 221 
3 71 221 119 
3 71 119 216 
3 71 216 148 
3 71 148 282 
3 71 282 79 
3 288 289 291 
3 288 291 290 
3 290 291 293 
3 290 293 292 
3 292 293 295 
3 292 295 294 
3 294 295 297 
3 294 297 296 
3 296 297 299 
3 296 299 298 
3 298 299 301 
3 298 301 300 
3 300 301 303 
3 300 303 302 
3 302 303 305 
3 302 305 304 
3 304 305 307 
3 304 307 306 
3 306 307 309 
3 306 309 308 
3 291 289 311 
3 291 311 309 
3 291 309 307 
3 291 307 305 
3 291 305 303 
3 291 303 301 
3 291 301 299 
3 291 299 297 
3 291 297 295 
3 291 295 293 
3 310 311 289 
3 310 289 288 
3 308 309 311 
3 308 311 310 
3 288 290 292 
3 288 292 294 
3 288 294 296 
3 288 296 298 
3 288 298 300 
3 288 300 302 
3 288 302 304 
3 288 304 306 
3 288 306 308 
3 288 308 310 
3 329 321 314 
3 329 314 325 
3 321 322 318 
3 321 318 314 
3 328 323 316 
3 328 316 327 
3 323 320 312 
3 323 312 316 
3 325 314 318 
3 325 318 327 
3 326 319 315 
3 326 315 324 
3 317 313 320 
3 317 320 323 
3 326 317 323 
3 326 323 328 
3 315 319 322 
3 315 322 321 
3 324 315 321 
3 324 321 329 
3 313 324 329 
3 313 329 320 
3 319 326 328 
3 319 328 322 
3 317 326 324 
3 317 324 313 
3 312 325 327 
3 312 327 316 
3 322 328 327 
3 322 327 318 
3 320 329 325 
3 320 325 312 
