ply
format ascii 1.0
comment VCGLIB generated
element vertex 100
property float x
property float y
property float z
property float nx
property float ny
property float nz
property float texture_u
property float texture_v
element face 162
property list uchar int vertex_indices
end_header
864 -486 -7.553328e-05 8.742278e-08 0 1 1.000000 0.000000
650.6667 -486 -5.688309e-05 8.742277e-08 0 1 0.888889 0.000000
437.3333 -486 -3.823289e-05 8.742277e-08 0 1 0.777778 0.000000
224 -486 -1.95827e-05 8.742276e-08 0 1 0.666667 0.000000
10.66669 -486 -9.325114e-07 8.742277e-08 0 1 0.555556 0.000000
-202.6666 -486 1.771768e-05 8.742277e-08 0 1 0.444444 0.000000
-416 -486 3.636787e-05 8.742277e-08 0 1 0.333333 0.000000
-629.3333 -486 5.501806e-05 8.742278e-08 0 1 0.222222 0.000000
-842.6666 -486 7.366826e-05 8.742277e-08 0 1 0.111111 0.000000
-1056 -486 9.231845e-05 8.742276e-08 0 1 0.000000 0.000000
864 -366 -7.553328e-05 8.742278e-08 0 1 1.000000 0.111111
650.6667 -366 -5.688309e-05 8.742278e-08 0 1 0.888889 0.111111
437.3333 -366 -3.823289e-05 8.742277e-08 0 1 0.777778 0.111111
224 -366 -1.95827e-05 8.742277e-08 0 1 0.666667 0.111111
10.66669 -366 -9.325114e-07 8.742277e-08 0 1 0.555556 0.111111
-202.6666 -366 1.771768e-05 8.742277e-08 0 1 0.444444 0.111111
-416 -366 3.636787e-05 8.742277e-08 0 1 0.333333 0.111111
-629.3333 -366 5.501806e-05 8.742278e-08 0 1 0.222222 0.111111
-842.6666 -366 7.366826e-05 8.742277e-08 0 1 0.111111 0.111111
-1056 -366 9.231845e-05 8.742276e-08 0 1 0.000000 0.111111
864 -246 -7.553328e-05 8.742278e-08 0 1 1.000000 0.222222
650.6667 -246 -5.688309e-05 8.742278e-08 0 1 0.888889 0.222222
437.3333 -246 -3.823289e-05 8.742277e-08 0 1 0.777778 0.222222
224 -246 -1.95827e-05 8.742277e-08 0 1 0.666667 0.222222
10.66669 -246 -9.325114e-07 8.742277e-08 0 1 0.555556 0.222222
-202.6666 -246 1.771768e-05 8.742277e-08 0 1 0.444444 0.222222
-416 -246 3.636787e-05 8.742277e-08 0 1 0.333333 0.222222
-629.3333 -246 5.501806e-05 8.742278e-08 0 1 0.222222 0.222222
-842.6666 -246 7.366826e-05 8.742277e-08 0 1 0.111111 0.222222
-1056 -246 9.231845e-05 8.742276e-08 0 1 0.000000 0.222222
864 -126 -7.553328e-05 8.742278e-08 0 1 1.000000 0.333333
650.6667 -126 -5.688309e-05 8.742278e-08 0 1 0.888889 0.333333
437.3333 -126 -3.823289e-05 8.742277e-08 0 1 0.777778 0.333333
224 -126 -1.95827e-05 8.742277e-08 0 1 0.666667 0.333333
10.66669 -126 -9.325114e-07 8.742277e-08 0 1 0.555556 0.333333
-202.6666 -126 1.771768e-05 8.742277e-08 0 1 0.444444 0.333333
-416 -126 3.636787e-05 8.742277e-08 0 1 0.333333 0.333333
-629.3333 -126 5.501806e-05 8.742278e-08 0 1 0.222222 0.333333
-842.6666 -126 7.366826e-05 8.742277e-08 0 1 0.111111 0.333333
-1056 -126 9.231845e-05 8.742276e-08 0 1 0.000000 0.333333
864 -6 -7.553328e-05 8.742278e-08 0 1 1.000000 0.444444
650.6667 -6 -5.688309e-05 8.742278e-08 0 1 0.888889 0.444444
437.3333 -6 -3.823289e-05 8.742277e-08 0 1 0.777778 0.444444
224 -6 -1.95827e-05 8.742277e-08 0 1 0.666667 0.444444
10.66669 -6 -9.325114e-07 8.742277e-08 0 1 0.555556 0.444444
-202.6666 -6 1.771768e-05 8.742277e-08 0 1 0.444444 0.444444
-416 -6 3.636787e-05 8.742277e-08 0 1 0.333333 0.444444
-629.3333 -6 5.501806e-05 8.742278e-08 0 1 0.222222 0.444444
-842.6666 -6 7.366826e-05 8.742277e-08 0 1 0.111111 0.444444
-1056 -6 9.231845e-05 8.742276e-08 0 1 0.000000 0.444444
864 114 -7.553328e-05 8.742278e-08 0 1 1.000000 0.555556
650.6667 114 -5.688309e-05 8.742278e-08 0 1 0.888889 0.555556
437.3333 114 -3.823289e-05 8.742277e-08 0 1 0.777778 0.555556
224 114 -1.95827e-05 8.742277e-08 0 1 0.666667 0.555556
10.66669 114 -9.325114e-07 8.742277e-08 0 1 0.555556 0.555556
-202.6666 114 1.771768e-05 8.742277e-08 0 1 0.444444 0.555556
-416 114 3.636787e-05 8.742277e-08 0 1 0.333333 0.555556
-629.3333 114 5.501806e-05 8.742278e-08 0 1 0.222222 0.555556
-842.6666 114 7.366826e-05 8.742277e-08 0 1 0.111111 0.555556
-1056 114 9.231845e-05 8.742276e-08 0 1 0.000000 0.555556
864 234 -7.553328e-05 8.742278e-08 0 1 1.000000 0.666667
650.6667 234 -5.688309e-05 8.742278e-08 0 1 0.888889 0.666667
437.3333 234 -3.823289e-05 8.742277e-08 0 1 0.777778 0.666667
224 234 -1.95827e-05 8.742277e-08 0 1 0.666667 0.666667
10.66669 234 -9.325114e-07 8.742277e-08 0 1 0.555556 0.666667
-202.6666 234 1.771768e-05 8.742277e-08 0 1 0.444444 0.666667
-416 234 3.636787e-05 8.742277e-08 0 1 0.333333 0.666667
-629.3333 234 5.501806e-05 8.742278e-08 0 1 0.222222 0.666667
-842.6666 234 7.366826e-05 8.742277e-08 0 1 0.111111 0.666667
-1056 234 9.231845e-05 8.742276e-08 0 1 0.000000 0.666667
864 354 -7.553328e-05 8.742278e-08 0 1 1.000000 0.777778
650.6667 354 -5.688309e-05 8.742278e-08 0 1 0.888889 0.777778
437.3333 354 -3.823289e-05 8.742277e-08 0 1 0.777778 0.777778
224 354 -1.95827e-05 8.742277e-08 0 1 0.666667 0.777778
10.66669 354 -9.325114e-07 8.742277e-08 0 1 0.555556 0.777778
-202.6666 354 1.771768e-05 8.742277e-08 0 1 0.444444 0.777778
-416 354 3.636787e-05 8.742277e-08 0 1 0.333333 0.777778
-629.3333 354 5.501806e-05 8.742278e-08 0 1 0.222222 0.777778
-842.6666 354 7.366826e-05 8.742277e-08 0 1 0.111111 0.777778
-1056 354 9.231845e-05 8.742276e-08 0 1 0.000000 0.777778
864 474 -7.553328e-05 8.742278e-08 0 1 1.000000 0.888889
650.6667 474 -5.688309e-05 8.742278e-08 0 1 0.888889 0.888889
437.3333 474 -3.823289e-05 8.742277e-08 0 1 0.777778 0.888889
224 474 -1.95827e-05 8.742277e-08 0 1 0.666667 0.888889
10.66669 474 -9.325114e-07 8.742277e-08 0 1 0.555556 0.888889
-202.6666 474 1.771768e-05 8.742277e-08 0 1 0.444444 0.888889
-416 474 3.636787e-05 8.742277e-08 0 1 0.333333 0.888889
-629.3333 474 5.501806e-05 8.742278e-08 0 1 0.222222 0.888889
-842.6666 474 7.366826e-05 8.742277e-08 0 1 0.111111 0.888889
-1056 474 9.231845e-05 8.742276e-08 0 1 0.000000 0.888889
864 594 -7.553328e-05 8.742278e-08 0 1 1.000000 1.000000
650.6667 594 -5.688309e-05 8.742278e-08 0 1 0.888889 1.000000
437.3333 594 -3.823289e-05 8.742277e-08 0 1 0.777778 1.000000
224 594 -1.95827e-05 8.742277e-08 0 1 0.666667 1.000000
10.66669 594 -9.325114e-07 8.742277e-08 0 1 0.555556 1.000000
-202.6666 594 1.771768e-05 8.742277e-08 0 1 0.444444 1.000000
-416 594 3.636787e-05 8.742277e-08 0 1 0.333333 1.000000
-629.3333 594 5.501806e-05 8.742278e-08 0 1 0.222222 1.000000
-842.6666 594 7.366826e-05 8.742277e-08 0 1 0.111111 1.000000
-1056 594 9.231845e-05 8.742276e-08 0 1 0.000000 1.000000
3 11 1 0 
3 0 10 11 
3 12 2 1 
3 1 11 12 
3 13 3 2 
3 2 12 13 
3 14 4 3 
3 3 13 14 
3 15 5 4 
3 4 14 15 
3 16 6 5 
3 5 15 16 
3 17 7 6 
3 6 16 17 
3 18 8 7 
3 7 17 18 
3 19 9 8 
3 8 18 19 
3 21 11 10 
3 10 20 21 
3 22 12 11 
3 11 21 22 
3 23 13 12 
3 12 22 23 
3 24 14 13 
3 13 23 24 
3 25 15 14 
3 14 24 25 
3 26 16 15 
3 15 25 26 
3 27 17 16 
3 16 26 27 
3 28 18 17 
3 17 27 28 
3 29 19 18 
3 18 28 29 
3 31 21 20 
3 20 30 31 
3 32 22 21 
3 21 31 32 
3 33 23 22 
3 22 32 33 
3 34 24 23 
3 23 33 34 
3 35 25 24 
3 24 34 35 
3 36 26 25 
3 25 35 36 
3 37 27 26 
3 26 36 37 
3 38 28 27 
3 27 37 38 
3 39 29 28 
3 28 38 39 
3 41 31 30 
3 30 40 41 
3 42 32 31 
3 31 41 42 
3 43 33 32 
3 32 42 43 
3 44 34 33 
3 33 43 44 
3 45 35 34 
3 34 44 45 
3 46 36 35 
3 35 45 46 
3 47 37 36 
3 36 46 47 
3 48 38 37 
3 37 47 48 
3 49 39 38 
3 38 48 49 
3 51 41 40 
3 40 50 51 
3 52 42 41 
3 41 51 52 
3 53 43 42 
3 42 52 53 
3 54 44 43 
3 43 53 54 
3 55 45 44 
3 44 54 55 
3 56 46 45 
3 45 55 56 
3 57 47 46 
3 46 56 57 
3 58 48 47 
3 47 57 58 
3 59 49 48 
3 48 58 59 
3 61 51 50 
3 50 60 61 
3 62 52 51 
3 51 61 62 
3 63 53 52 
3 52 62 63 
3 64 54 53 
3 53 63 64 
3 65 55 54 
3 54 64 65 
3 66 56 55 
3 55 65 66 
3 67 57 56 
3 56 66 67 
3 68 58 57 
3 57 67 68 
3 69 59 58 
3 58 68 69 
3 71 61 60 
3 60 70 71 
3 72 62 61 
3 61 71 72 
3 73 63 62 
3 62 72 73 
3 74 64 63 
3 63 73 74 
3 75 65 64 
3 64 74 75 
3 76 66 65 
3 65 75 76 
3 77 67 66 
3 66 76 77 
3 78 68 67 
3 67 77 78 
3 79 69 68 
3 68 78 79 
3 81 71 70 
3 70 80 81 
3 82 72 71 
3 71 81 82 
3 83 73 72 
3 72 82 83 
3 84 74 73 
3 73 83 84 
3 85 75 74 
3 74 84 85 
3 86 76 75 
3 75 85 86 
3 87 77 76 
3 76 86 87 
3 88 78 77 
3 77 87 88 
3 89 79 78 
3 78 88 89 
3 91 81 80 
3 80 90 91 
3 92 82 81 
3 81 91 92 
3 93 83 82 
3 82 92 93 
3 94 84 83 
3 83 93 94 
3 95 85 84 
3 84 94 95 
3 96 86 85 
3 85 95 96 
3 97 87 86 
3 86 96 97 
3 98 88 87 
3 87 97 98 
3 99 89 88 
3 88 98 99 
