ply
format ascii 1.0
comment VCGLIB generated
element vertex 312
property float x
property float y
property float z
property float nx
property float ny
property float nz
property float texture_u
property float texture_v
element face 104
property list uchar int vertex_indices
end_header
5 2 5 0 1 4.37114e-08 0.330976 0.999023
5 2 -5 0 1 4.37114e-08 0.000977 0.999023
-5 2 -5 0 1 4.37114e-08 0.000977 0.669024
5 2 5 0 -1.04371e-06 1 0.334310 0.500977
1 1.362 5 0 -1.04371e-06 1 0.497642 0.500977
5 -2 5 0 -1.04371e-06 1 0.334310 0.664309
5 2 -5 -0 1.04371e-06 -1 0.497642 0.499023
5 -2 -5 -0 1.04371e-06 -1 0.334310 0.499023
1 -1.362 -5 -0 1.04371e-06 -1 0.334310 0.335691
-5 2 5 -1 -0 0 0.002358 0.167643
-5 2 -5 -1 -0 0 0.164309 0.167643
-5 1.36224 -1 -1 -0 0 0.083333 0.248619
-5 1.36224 1 -1 0 0 0.500977 0.502358
-5 -2 5 -1 0 0 0.664309 0.665690
-5 -2 -5 -1 0 0 0.459310 0.044024
-5 -1.36224 1 -1 0 0 0.497642 0.082357
-5 -1.36224 -1 -1 0 0 0.459310 0.082357
-5 -2 5 0 -4.37114e-08 1 0.419024 0.082357
1 -1.362 5 0 -4.37114e-08 1 0.457357 0.044024
-1 -1.362 5 0 -4.37114e-08 1 0.457357 0.082357
-1 1.362 4.5 0 -1 -4.37114e-08 0.499023 0.002358
1 1.362 4.5 0 -1 -4.37114e-08 0.499023 0.040690
1 1.362 5 0 -1 -4.37114e-08 0.460691 0.040690
1 -1.362 5 -1 0 -0 0.460691 0.042643
1 1.362 5 -1 0 -0 0.499023 0.042643
1 1.362 4.5 -1 0 -0 0.499023 0.080976
5 -1.36224 -1 1 -1e-06 -1e-06 0.081952 0.250000
5 -2 5 1 -1e-06 -1e-06 0.000977 0.330976
5 -2 -5 1 -1e-06 -1e-06 0.000977 0.169024
4.5 1.36224 1 -0 4.37114e-08 -1 0.499023 0.085691
5 1.36224 1 -0 4.37114e-08 -1 0.499023 0.124023
5 -1.36224 1 -0 4.37114e-08 -1 0.460691 0.124023
5 1.36224 -1 0 -1 -4.37114e-08 0.460691 0.125977
5 1.36224 1 0 -1 -4.37114e-08 0.499023 0.125977
4.5 1.36224 1 0 -1 -4.37114e-08 0.499023 0.164309
-1 -1.362 -5 -0 4.37114e-08 -1 0.081952 0.083333
5 -2 -5 -0 4.37114e-08 -1 0.000977 0.164309
-5 -2 -5 -0 4.37114e-08 -1 0.000977 0.002358
1 -1.362 -4.5 -1 0 0 0.419024 0.084310
1 1.362 -4.5 -1 0 0 0.457357 0.084310
1 1.362 -5 -1 0 0 0.457357 0.122642
-1 1.362 -5 0 -1 -4.37114e-08 0.459310 0.122642
1 1.362 -5 0 -1 -4.37114e-08 0.459310 0.084310
1 1.362 -4.5 0 -1 -4.37114e-08 0.497642 0.084310
-5 -2 5 0 -1 -4.37114e-08 0.002358 0.667643
-5 -2 -5 0 -1 -4.37114e-08 0.332357 0.667643
5 -2 -5 0 -1 -4.37114e-08 0.332357 0.997642
1 -1.362 5 0 1 4.37114e-08 0.415690 0.002358
1 -1.362 4.5 0 1 4.37114e-08 0.415690 0.040690
-1 -1.362 4.5 0 1 4.37114e-08 0.377358 0.040690
-1 1.362 4.5 1 0 0 0.377358 0.042643
-1 1.362 5 1 0 0 0.415690 0.042643
-1 -1.362 5 1 0 0 0.415690 0.080976
4.5 1.8 4.5 -0 1.04371e-06 -1 0.664309 0.165690
1 1.362 4.5 -0 1.04371e-06 -1 0.584310 0.165690
-4.5 1.8 4.5 -0 1.04371e-06 -1 0.584310 0.085691
4.5 -1.36224 -1 0 -4.37114e-08 1 0.335691 0.000977
5 -1.36224 -1 0 -4.37114e-08 1 0.374023 0.000977
5 1.36224 -1 0 -4.37114e-08 1 0.374023 0.039309
4.5 -1.36224 1 0 1 4.37114e-08 0.375977 0.039309
5 -1.36224 1 0 1 4.37114e-08 0.375977 0.000977
5 -1.36224 -1 0 1 4.37114e-08 0.414309 0.000977
4.5 1.8 4.5 -1 -1e-06 -4.37114e-14 0.499023 0.665690
4.5 1.36224 1 -1 -1e-06 -4.37114e-14 0.335691 0.665690
4.5 -1.8 4.5 -1 -1e-06 -4.37114e-14 0.499023 0.502358
-1 -1.362 -5 1 0 0 0.419024 0.000977
-1 1.362 -5 1 0 0 0.457357 0.000977
-1 1.362 -4.5 1 0 0 0.457357 0.039309
1 -1.362 -4.5 0 1 4.37114e-08 0.459310 0.039309
1 -1.362 -5 0 1 4.37114e-08 0.459310 0.000977
-1 -1.362 -5 0 1 4.37114e-08 0.497642 0.000977
1 1.362 -4.5 0 -1.04371e-06 1 0.502358 0.499023
4.5 -1.8 -4.5 0 -1.04371e-06 1 0.665690 0.335691
4.5 1.8 -4.5 0 -1.04371e-06 1 0.665690 0.499023
4.5 1.8 -4.5 0 -1 -4.37114e-08 0.334310 0.999023
4.5 1.8 4.5 0 -1 -4.37114e-08 0.334310 0.669024
-4.5 1.8 -4.5 0 -1 -4.37114e-08 0.664309 0.999023
-4.5 1.8 4.5 0 -1 -4.37114e-08 0.665690 0.667643
-1 1.362 -4.5 0 -4.37114e-08 1 0.502358 0.500977
-4.5 1.8 -4.5 0 -4.37114e-08 1 0.665690 0.500977
-4.5 -1.8 -4.5 0 -4.37114e-08 1 0.665690 0.664309
-4.5 -1.8 4.5 0 1 4.37114e-08 0.667643 0.999023
4.5 -1.8 4.5 0 1 4.37114e-08 0.667643 0.669024
-4.5 -1.8 -4.5 0 1 4.37114e-08 0.997642 0.999023
4.5 -1.8 -4.5 0 1 4.37114e-08 0.999023 0.667643
-4.5 1.8 4.5 1 0 0 0.582357 0.085691
-4.5 1.36224 1 1 0 0 0.582357 0.165690
-4.5 1.8 -4.5 1 0 0 0.502358 0.165690
-4.5 -1.36224 1 1 0 0 0.002358 0.165690
-5 -1.36224 1 0 4.37114e-08 -1 0.417643 0.080976
-5 1.36224 1 0 4.37114e-08 -1 0.417643 0.042643
-4.5 1.36224 1 0 4.37114e-08 -1 0.455976 0.042643
-4.5 -1.36224 -1 0 1 4.37114e-08 0.455976 0.040690
-5 -1.36224 -1 0 1 4.37114e-08 0.417643 0.040690
-5 -1.36224 1 0 1 4.37114e-08 0.417643 0.002358
-5 1.36224 1 0 -1 -4.37114e-08 0.582357 0.002358
-5 1.36224 -1 0 -1 -4.37114e-08 0.582357 0.040690
-4.5 1.36224 -1 0 -1 -4.37114e-08 0.544024 0.040690
-4.5 -1.36224 -1 0 -4.37114e-08 1 0.544024 0.042643
-4.5 1.36224 -1 0 -4.37114e-08 1 0.582357 0.042643
-5 1.36224 -1 0 -4.37114e-08 1 0.582357 0.080976
-5 2 5 0 1 4.37114e-08 0.000977 0.665690
-1 1.362 5 0 -1.04371e-06 1 0.540690 0.000977
-5 2 5 0 -1.04371e-06 1 0.502358 0.000977
1 -1.362 5 0 -1.04371e-06 1 0.248619 0.250000
5 2 5 1 1e-06 -1e-06 0.335691 0.334310
5 -2 5 1 1e-06 -1e-06 0.499023 0.334310
5 -1.36224 1 1 1e-06 -1e-06 0.499023 0.497642
5 2 -5 1 -1e-06 -4.37114e-14 0.164309 0.332357
5 2 5 1 -1e-06 -4.37114e-14 0.002358 0.332357
5 1.36224 -1 1 -1e-06 -4.37114e-14 0.083333 0.251381
5 2 5 1 0 0 0.165690 0.169024
5 -1.36224 1 1 0 0 0.165690 0.330976
5 1.36224 1 1 0 0 0.084714 0.250000
5 2 5 1 1e-06 4.37114e-14 0.542643 0.039309
5 1.36224 1 1 1e-06 4.37114e-14 0.542643 0.000977
5 1.36224 -1 1 1e-06 4.37114e-14 0.580976 0.000977
-5 2 -5 -0 4.37114e-08 -1 0.330976 0.165690
5 2 -5 -0 4.37114e-08 -1 0.169024 0.165690
-1 1.362 -5 -0 4.37114e-08 -1 0.250000 0.084714
1 -1.362 -5 -0 4.37114e-08 -1 0.332357 0.164309
1 1.362 -5 -0 4.37114e-08 -1 0.251381 0.083333
1 1.362 -5 -0 1.04371e-06 -1 0.624023 0.000977
-1 1.362 -5 -0 1.04371e-06 -1 0.624023 0.039309
-5 1.36224 1 -1 1e-06 4.37114e-14 0.332357 0.330976
-5 -1.36224 1 -1 1e-06 4.37114e-14 0.251381 0.250000
-5 -2 5 -1 1e-06 4.37114e-14 0.332357 0.169024
-5 -1.36224 -1 -1 1e-06 4.37114e-14 0.084714 0.083333
-5 1.36224 -1 -1 1e-06 4.37114e-14 0.165690 0.002358
-5 -2 -5 -1 1e-06 4.37114e-14 0.165690 0.164309
-5 2 5 0 -4.37114e-08 1 0.667643 0.664309
5 -2 5 0 -4.37114e-08 1 0.164309 0.000977
-1 1.362 5 0 -1 -4.37114e-08 0.584310 0.042643
-1 -1.362 5 0 -1.04371e-06 1 0.330976 0.000977
1 -1.362 4.5 -1 -0 0 0.584310 0.040690
5 -2 -5 1 -1e-06 -4.37114e-14 0.830976 0.499023
5 -1.36224 -1 1 2e-06 8.74228e-14 0.502358 0.084310
5 -1.36224 1 1 2e-06 8.74228e-14 0.540690 0.084310
5 -2 5 1 2e-06 8.74228e-14 0.540690 0.122642
5 -2 -5 1 4.37114e-14 -1e-06 0.167643 0.164309
5 1.36224 -1 1 4.37114e-14 -1e-06 0.167643 0.002358
5 -1.36224 -1 1 4.37114e-14 -1e-06 0.248619 0.083333
4.5 -1.36224 1 0 4.37114e-08 -1 0.542643 0.084310
4.5 1.36224 -1 0 -1 -4.37114e-08 0.500977 0.125977
-1 -1.362 -5 -0 2.04371e-06 -1 0.539309 0.124023
1 -1.362 -5 -0 2.04371e-06 -1 0.500977 0.124023
5 -2 -5 -0 2.04371e-06 -1 0.500977 0.085691
-5 -2 -5 -1e-06 4.37114e-08 -1 0.335691 0.167643
-1 1.362 -5 -1e-06 4.37114e-08 -1 0.497642 0.167643
-1 -1.362 -5 -1e-06 4.37114e-08 -1 0.416667 0.248619
1 -1.362 -5 -1 0 0 0.500977 0.042643
-1 1.362 -4.5 0 -1 -4.37114e-08 0.500977 0.040690
5 -2 5 0 -1 -4.37114e-08 0.332357 0.334310
-1 -1.362 5 0 1 4.37114e-08 0.542643 0.082357
-1 -1.362 4.5 1 0 0 0.540690 0.082357
1 -1.362 4.5 -0 1.04371e-06 -1 0.415286 0.250000
4.5 -1.8 4.5 -0 1.04371e-06 -1 0.334310 0.169024
1 1.362 4.5 -0 4.37114e-08 -1 0.749023 0.169024
-1 1.362 4.5 -0 4.37114e-08 -1 0.749023 0.207357
-4.5 1.8 4.5 -0 4.37114e-08 -1 0.710691 0.207357
4.5 1.36224 -1 0 -4.37114e-08 1 0.749023 0.209310
4.5 -1.36224 -1 0 1 4.37114e-08 0.707357 0.167643
4.5 1.8 4.5 -1 1e-06 4.37114e-14 0.585691 0.082357
4.5 1.8 -4.5 -1 1e-06 4.37114e-14 0.665690 0.002358
4.5 1.36224 -1 -1 1e-06 4.37114e-14 0.665690 0.082357
4.5 1.36224 1 -1 -4.37114e-14 1e-06 0.334310 0.002358
4.5 -1.36224 1 -1 -4.37114e-14 1e-06 0.415286 0.083333
4.5 -1.8 4.5 -1 -4.37114e-14 1e-06 0.334310 0.164309
4.5 1.8 4.5 -1 -2e-06 -8.74228e-14 0.747642 0.167643
4.5 1.36224 -1 -1 -2e-06 -8.74228e-14 0.709310 0.205976
4.5 1.36224 1 -1 -2e-06 -8.74228e-14 0.709310 0.167643
-1 -1.362 -4.5 1 0 0 0.790690 0.167643
-1 -1.362 -4.5 0 1 4.37114e-08 0.792643 0.167643
4.5 1.8 -4.5 0 -4.37114e-08 1 0.665690 0.164309
1 1.362 -4.5 1e-06 -4.37114e-08 1 0.335691 0.165690
1 -1.362 -4.5 1e-06 -4.37114e-08 1 0.416667 0.084714
4.5 -1.8 -4.5 1e-06 -4.37114e-08 1 0.497642 0.165690
4.5 1.8 -4.5 0 -2.04371e-06 1 0.789309 0.209310
-1 1.362 -4.5 0 -2.04371e-06 1 0.750977 0.247642
1 1.362 -4.5 0 -2.04371e-06 1 0.750977 0.209310
1 -1.362 4.5 -0 4.37114e-08 -1 0.665690 0.249023
4.5 -1.8 4.5 -0 4.37114e-08 -1 0.585691 0.249023
-4.5 -1.8 4.5 -0 4.37114e-08 -1 0.665690 0.169024
-1 1.362 4.5 -0 1.04371e-06 -1 0.581952 0.250000
-1 -1.362 4.5 -0 1.04371e-06 -1 0.500977 0.330976
-1 -1.362 4.5 0 4.37114e-08 -1 0.750977 0.207357
4.5 -1.8 -4.5 -1 1e-06 1e-06 0.999023 0.500977
4.5 -1.36224 -1 -1 1e-06 1e-06 0.999023 0.664309
4.5 1.8 -4.5 -1 1e-06 1e-06 0.835691 0.500977
4.5 -1.36224 1 -1 -2e-06 -8.74228e-14 0.707357 0.250977
4.5 -1.36224 -1 -1 -2e-06 -8.74228e-14 0.707357 0.289309
4.5 -1.8 4.5 -1 -2e-06 -8.74228e-14 0.669024 0.250977
4.5 -1.8 4.5 -1 1e-06 1e-06 0.585691 0.250977
4.5 -1.36224 -1 -1 0 -0 0.502358 0.332357
4.5 1.36224 -1 -1 0 -0 0.583333 0.251381
4.5 1.8 -4.5 -1 0 -0 0.664309 0.332357
1 -1.362 -4.5 0 -2.04371e-06 1 0.709310 0.250977
-1 -1.362 -4.5 0 -2.04371e-06 1 0.747642 0.250977
4.5 -1.8 -4.5 0 -2.04371e-06 1 0.709310 0.289309
-1 -1.362 -4.5 1e-06 -4.37114e-08 1 0.416667 0.251381
-1 1.362 -4.5 1e-06 -4.37114e-08 1 0.497642 0.332357
-4.5 -1.8 -4.5 1e-06 -4.37114e-08 1 0.335691 0.332357
-1 -1.362 -4.5 0 9.56289e-07 1 0.582357 0.167643
-4.5 -1.8 -4.5 0 9.56289e-07 1 0.582357 0.247642
4.5 -1.8 -4.5 0 9.56289e-07 1 0.502358 0.167643
-4.5 -1.8 -4.5 1 0 0 0.669024 0.334310
-4.5 1.36224 -1 1 0 0 0.832357 0.497642
-4.5 -1.8 4.5 1 -1e-06 -4.37114e-14 0.664309 0.167643
-4.5 -1.8 -4.5 1 -1e-06 -4.37114e-14 0.584310 0.247642
-4.5 -1.36224 1 1 -1e-06 -4.37114e-14 0.584310 0.167643
-4.5 -1.36224 -1 1 0 0 0.418048 0.250000
-4.5 -1.8 4.5 1 0 0 0.834310 0.334310
-4.5 -1.36224 1 0 4.37114e-08 -1 0.667643 0.290690
-4.5 1.36224 1 1 -1e-06 -4.37114e-14 0.667643 0.247642
-4.5 1.36224 -1 1 -1e-06 -4.37114e-14 0.667643 0.209310
-4.5 1.8 -4.5 1 -1e-06 -4.37114e-14 0.705976 0.209310
-4.5 -1.36224 1 0 1 4.37114e-08 0.667643 0.207357
-4.5 1.36224 1 0 -1 -4.37114e-08 0.709310 0.249023
-5 -1.36224 -1 0 -4.37114e-08 1 0.707357 0.249023
-5 2 5 -1 -0 0 0.500977 0.665690
4.5 1.8 4.5 0 -1 -4.37114e-08 0.335691 0.667643
-4.5 1.8 -4.5 0 -1 -4.37114e-08 0.665690 0.997642
4.5 -1.8 4.5 0 1 4.37114e-08 0.669024 0.667643
-4.5 -1.8 -4.5 0 1 4.37114e-08 0.999023 0.997642
-4.5 1.8 4.5 1 0 0 0.164309 0.165690
-4.5 1.36224 1 1 0 0 0.083333 0.084714
5 2 5 0 1 4.37114e-08 0.000977 0.335691
-5 2 -5 0 1 4.37114e-08 0.330976 0.665690
1 1.362 5 0 -1.04371e-06 1 0.540690 0.039309
1 1.362 5 0 -1.04371e-06 1 0.167643 0.169024
5 -2 5 0 -1.04371e-06 1 0.167643 0.330976
1 1.362 5 0 -1.04371e-06 1 0.250000 0.251381
5 2 5 0 -1.04371e-06 1 0.330976 0.332357
-5 2 5 0 -1.04371e-06 1 0.169024 0.332357
5 2 -5 -0 4.37114e-08 -1 0.332357 0.002358
5 2 -5 -0 1.04371e-06 -1 0.585691 0.000977
-5 2 5 -1 -0 0 0.664309 0.000977
-5 1.36224 -1 -1 -0 0 0.625977 0.039309
-5 1.36224 1 -1 0 0 0.625977 0.000977
-5 1.36224 -1 -1 -0 0 0.500977 0.497642
-5 2 -5 -1 -0 0 0.500977 0.334310
-5 -2 -5 -1 0 0 0.664309 0.334310
-5 -2 -5 -1 0 0 0.169024 0.167643
-5 -2 5 -1 0 0 0.330976 0.167643
-5 -1.36224 1 -1 0 0 0.250000 0.248619
-5 -2 5 0 -4.37114e-08 1 0.667643 0.500977
-1 -1.362 5 0 -4.37114e-08 1 0.830976 0.500977
-5 -2 5 0 -4.37114e-08 1 0.002358 0.000977
1 -1.362 5 0 -4.37114e-08 1 0.083333 0.081952
-1 1.362 4.5 0 -1 -4.37114e-08 0.622642 0.042643
1 1.362 5 0 -1 -4.37114e-08 0.584310 0.080976
-1 1.362 5 0 -1.04371e-06 1 0.250000 0.081952
-5 2 5 0 -1.04371e-06 1 0.169024 0.000977
1 -1.362 5 -1 0 -0 0.584310 0.002358
1 1.362 4.5 -1 0 -0 0.622642 0.040690
5 2 -5 1 -1e-06 -4.37114e-14 0.667643 0.499023
5 1.36224 -1 1 -1e-06 -4.37114e-14 0.667643 0.335691
4.5 1.36224 1 -0 4.37114e-08 -1 0.580976 0.084310
5 -1.36224 1 -0 4.37114e-08 -1 0.542643 0.122642
5 1.36224 -1 0 -1 -4.37114e-08 0.539309 0.125977
4.5 1.36224 1 0 -1 -4.37114e-08 0.500977 0.164309
-5 -2 -5 -0 4.37114e-08 -1 0.997642 0.665690
-5 2 -5 -0 4.37114e-08 -1 0.834310 0.665690
-1 1.362 -5 -0 4.37114e-08 -1 0.834310 0.502358
1 -1.362 -4.5 -1 0 0 0.539309 0.042643
1 1.362 -5 -1 0 0 0.500977 0.080976
-1 1.362 -5 0 -1 -4.37114e-08 0.500977 0.002358
1 1.362 -4.5 0 -1 -4.37114e-08 0.539309 0.040690
-5 -2 5 0 -1 -4.37114e-08 0.332357 0.664309
5 -2 -5 0 -1 -4.37114e-08 0.002358 0.334310
1 -1.362 5 0 1 4.37114e-08 0.542643 0.044024
-1 -1.362 4.5 0 1 4.37114e-08 0.580976 0.082357
-1 1.362 4.5 1 0 0 0.502358 0.082357
-1 -1.362 5 1 0 0 0.540690 0.044024
1 1.362 4.5 -0 1.04371e-06 -1 0.334310 0.330976
4.5 -1.36224 -1 0 -4.37114e-08 1 0.749023 0.247642
5 1.36224 -1 0 -4.37114e-08 1 0.710691 0.209310
1 1.362 4.5 -0 1.04371e-06 -1 0.832357 0.502358
4.5 1.8 4.5 -0 1.04371e-06 -1 0.832357 0.665690
4.5 -1.8 4.5 -0 1.04371e-06 -1 0.669024 0.665690
4.5 -1.36224 1 0 1 4.37114e-08 0.707357 0.205976
5 -1.36224 -1 0 1 4.37114e-08 0.669024 0.167643
-1 -1.362 -5 1 0 0 0.790690 0.205976
-1 1.362 -4.5 1 0 0 0.752358 0.167643
1 -1.362 -4.5 0 1 4.37114e-08 0.830976 0.167643
-1 -1.362 -5 0 1 4.37114e-08 0.792643 0.205976
-4.5 1.8 -4.5 0 -4.37114e-08 1 0.585691 0.084310
-1 1.362 -4.5 0 -4.37114e-08 1 0.665690 0.084310
-4.5 1.8 4.5 -0 1.04371e-06 -1 0.500977 0.169024
1 -1.362 4.5 -0 4.37114e-08 -1 0.750977 0.169024
-4.5 -1.8 4.5 -0 4.37114e-08 -1 0.789309 0.207357
-1 -1.362 4.5 0 4.37114e-08 -1 0.999023 0.335691
-4.5 -1.8 4.5 -0 4.37114e-08 -1 0.999023 0.499023
-4.5 1.8 4.5 -0 4.37114e-08 -1 0.835691 0.499023
4.5 -1.36224 -1 -1 1e-06 1e-06 0.665690 0.250977
4.5 -1.8 -4.5 -1 1e-06 1e-06 0.665690 0.330976
-4.5 1.8 -4.5 1 0 0 0.832357 0.334310
-4.5 -1.8 -4.5 1 0 0 0.499023 0.169024
-4.5 1.36224 -1 1 0 0 0.499023 0.330976
-4.5 -1.8 -4.5 1 0 0 0.667643 0.330976
-4.5 -1.36224 -1 1 0 0 0.667643 0.292643
-4.5 -1.36224 1 1 0 0 0.705976 0.292643
-4.5 1.8 4.5 1 0 0 0.834310 0.497642
-4.5 -1.36224 1 1 0 0 0.997642 0.334310
-5 -1.36224 1 0 4.37114e-08 -1 0.667643 0.252358
-4.5 1.36224 1 0 4.37114e-08 -1 0.705976 0.290690
-4.5 -1.36224 -1 0 1 4.37114e-08 0.667643 0.169024
-5 -1.36224 1 0 1 4.37114e-08 0.705976 0.207357
-5 1.36224 1 0 -1 -4.37114e-08 0.709310 0.210691
-4.5 1.36224 -1 0 -1 -4.37114e-08 0.747642 0.249023
-4.5 -1.36224 -1 0 -4.37114e-08 1 0.669024 0.249023
-5 1.36224 -1 0 -4.37114e-08 1 0.707357 0.210691
3 0 1 2 
3 3 4 5 
3 6 7 8 
3 9 10 11 
3 12 13 219 
3 14 15 16 
3 17 18 19 
3 20 21 22 
3 23 24 25 
3 26 27 28 
3 29 30 31 
3 32 33 34 
3 35 36 37 
3 38 39 40 
3 41 42 43 
3 44 45 46 
3 47 48 49 
3 50 51 52 
3 53 54 55 
3 56 57 58 
3 59 60 61 
3 62 63 64 
3 65 66 67 
3 68 69 70 
3 71 72 73 
3 74 75 76 
3 220 77 221 
3 78 79 80 
3 81 82 83 
3 222 84 223 
3 85 86 87 
3 224 88 225 
3 89 90 91 
3 92 93 94 
3 95 96 97 
3 98 99 100 
3 101 226 227 
3 102 228 103 
3 229 104 230 
3 105 106 107 
3 231 232 233 
3 108 109 110 
3 111 112 113 
3 114 115 116 
3 117 118 119 
3 234 120 121 
3 235 122 123 
3 124 125 126 
3 236 237 238 
3 239 240 241 
3 242 243 244 
3 127 128 129 
3 245 246 130 
3 247 131 248 
3 132 249 250 
3 133 251 252 
3 134 253 254 
3 135 255 256 
3 136 137 138 
3 139 140 141 
3 142 257 258 
3 143 259 260 
3 261 262 263 
3 144 145 146 
3 147 148 149 
3 150 264 265 
3 151 266 267 
3 152 268 269 
3 153 270 271 
3 154 272 273 
3 155 274 156 
3 157 158 159 
3 160 275 276 
3 277 278 279 
3 161 280 281 
3 162 163 164 
3 165 166 167 
3 168 169 170 
3 171 282 283 
3 172 284 285 
3 173 286 287 
3 174 175 176 
3 177 178 179 
3 180 181 182 
3 183 184 288 
3 185 289 290 
3 291 292 293 
3 186 187 188 
3 189 190 191 
3 294 295 192 
3 193 194 195 
3 196 197 198 
3 199 200 201 
3 202 203 204 
3 205 296 206 
3 207 208 209 
3 297 298 210 
3 299 300 301 
3 302 211 303 
3 212 304 305 
3 213 214 215 
3 216 306 307 
3 217 308 309 
3 218 310 311 
