ply
format ascii 1.0
comment VCGLIB generated
comment TextureFile SpaceInteriors_Texture.png
element vertex 40
property float x
property float y
property float z
property float nx
property float ny
property float nz
property float texture_u
property float texture_v
element face 28
property list uchar int vertex_indices
end_header
0 0 1.31945 -30.15114 -30.15114 90.45341 0.356300 0.473177
21.3706 0 1.31945 48.50713 -48.50713 72.7607 0.356300 0.473177
0 36.4141 1.31945 -48.50713 48.50713 72.7607 0.449350 0.473177
21.3706 36.4141 1.31945 30.15114 30.15114 90.45341 0.449350 0.473177
0 36.4141 -1.3195 -30.15114 30.15114 -90.45341 0.449350 0.473177
21.3706 36.4141 -1.3195 48.50713 48.50713 -72.7607 0.449350 0.473177
0 0 -1.3195 -48.50713 -48.50713 -72.7607 0.356300 0.473177
21.3706 0 -1.3195 30.15114 -30.15114 -90.45341 0.356300 0.473177
16.4899 17.0679 1.31945 0 0 100 0.163120 0.473177
18.8792 17.0679 1.31945 0 0 100 0.163120 0.473177
18.8792 19.3462 1.31945 0 0 100 0.163120 0.473177
16.4899 19.3462 1.31945 0 0 100 0.163120 0.473177
16.4899 19.3462 -1.3195 0 0 -100 0.163120 0.473177
18.8792 19.3462 -1.3195 0 0 -100 0.163120 0.473177
18.8792 17.0679 -1.3195 0 0 -100 0.163120 0.473177
16.4899 17.0679 -1.3195 0 0 -100 0.163120 0.473177
21.3706 0 1.31945 48.50713 -48.50713 72.7607 0.391699 0.473177
21.3706 0 -1.3195 30.15114 -30.15114 -90.45341 0.391699 0.473177
21.3706 36.4141 -1.3195 48.50713 48.50713 -72.7607 0.391699 0.473177
21.3706 36.4141 1.31945 30.15114 30.15114 90.45341 0.391699 0.473177
0 0 -1.3195 -48.50713 -48.50713 -72.7607 0.391699 0.473177
0 0 1.31945 -30.15114 -30.15114 90.45341 0.391699 0.473177
0 36.4141 1.31945 -48.50713 48.50713 72.7607 0.391699 0.473177
0 36.4141 -1.3195 -30.15114 30.15114 -90.45341 0.391699 0.473177
0 0 1.31945 -30.15114 -30.15114 90.45341 0.419007 0.473177
21.3706 0 1.31945 48.50713 -48.50713 72.7607 0.419007 0.473177
18.8792 17.0679 1.31945 0 0 100 0.419007 0.473177
16.4899 17.0679 1.31945 0 0 100 0.419007 0.473177
21.3706 36.4141 1.31945 30.15114 30.15114 90.45341 0.419007 0.473177
18.8792 19.3462 1.31945 0 0 100 0.419007 0.473177
0 36.4141 1.31945 -48.50713 48.50713 72.7607 0.419007 0.473177
16.4899 19.3462 1.31945 0 0 100 0.419007 0.473177
0 36.4141 -1.3195 -30.15114 30.15114 -90.45341 0.419007 0.473177
21.3706 36.4141 -1.3195 48.50713 48.50713 -72.7607 0.419007 0.473177
18.8792 19.3462 -1.3195 0 0 -100 0.419007 0.473177
16.4899 19.3462 -1.3195 0 0 -100 0.419007 0.473177
21.3706 0 -1.3195 30.15114 -30.15114 -90.45341 0.419007 0.473177
18.8792 17.0679 -1.3195 0 0 -100 0.419007 0.473177
0 0 -1.3195 -48.50713 -48.50713 -72.7607 0.419007 0.473177
16.4899 17.0679 -1.3195 0 0 -100 0.419007 0.473177
3 8 9 10 
3 8 10 11 
3 2 3 5 
3 2 5 4 
3 12 13 14 
3 12 14 15 
3 6 7 1 
3 6 1 0 
3 16 17 18 
3 16 18 19 
3 20 21 22 
3 20 22 23 
3 24 25 26 
3 24 26 27 
3 25 28 29 
3 25 29 26 
3 28 30 31 
3 28 31 29 
3 30 24 27 
3 30 27 31 
3 32 33 34 
3 32 34 35 
3 33 36 37 
3 33 37 34 
3 36 38 39 
3 36 39 37 
3 38 32 35 
3 38 35 39 
