ply
format ascii 1.0
comment VCGLIB generated
comment TextureFile SpaceInteriors_Texture.png
element vertex 82
property float x
property float y
property float z
property float nx
property float ny
property float nz
property float texture_u
property float texture_v
element face 96
property list uchar int vertex_indices
end_header
-50 0 0 -26.72613 -53.45226 80.17838 0.327371 0.062481
0 0 0 53.45226 -26.72613 80.17838 0.327371 0.062481
-50 50 0 -53.45226 26.72613 80.17838 0.327371 0.062481
0 50 0 26.72613 53.45226 80.17838 0.327371 0.062481
-25 50 0 0 44.72137 89.44273 0.327371 0.062481
-25 0 0 0 -44.72137 89.44273 0.327371 0.062481
-50 25 0 -44.72137 0 89.44273 0.327371 0.062481
-25 25 0 0 0 100 0.327371 0.062481
0 25 0 44.72137 0 89.44273 0.327371 0.062481
-24.1667 25.8333 0 0 0 100 0.364026 0.063229
-0.83332 25.8333 0 0 0 100 0.364026 0.063229
-0.83332 49.1667 0 0 0 100 0.364026 0.063229
-24.1667 49.1667 0 0 0 100 0.364026 0.063229
-49.1667 25.8333 0 0 0 100 0.364026 0.063229
-25.8333 25.8333 0 0 0 100 0.364026 0.063229
-25.8333 49.1667 0 0 0 100 0.364026 0.063229
-49.1667 49.1667 0 0 0 100 0.364026 0.063229
-49.1667 0.83333 0 0 0 100 0.364026 0.063229
-25.8333 0.83333 0 0 0 100 0.364026 0.063229
-25.8333 24.1667 0 0 0 100 0.364026 0.063229
-49.1667 24.1667 0 0 0 100 0.364026 0.063229
-24.1667 0.83333 0 0 0 100 0.364026 0.063229
-0.83332 0.83333 0 0 0 100 0.364026 0.063229
-0.83332 24.1667 0 0 0 100 0.364026 0.063229
-24.1667 24.1667 0 0 0 100 0.364026 0.063229
-24.1667 25.8333 -2.94704 -8.46784e-12 3.31378e-05 -100 0.364026 0.063229
-0.83332 25.8333 -2.94704 -5.292401e-12 2.071115e-05 -100 0.364026 0.063229
-0.83332 49.1667 -2.94703 -8.46784e-12 3.31378e-05 -100 0.364026 0.063229
-24.1667 49.1667 -2.94703 -5.292401e-12 2.071115e-05 -100 0.364026 0.063229
-49.1667 25.8333 -2.94704 -8.46784e-12 3.31378e-05 -100 0.364026 0.063229
-25.8333 25.8333 -2.94704 -5.292401e-12 2.071115e-05 -100 0.364026 0.063229
-25.8333 49.1667 -2.94703 -8.46784e-12 3.31378e-05 -100 0.364026 0.063229
-49.1667 49.1667 -2.94703 -5.292401e-12 2.071115e-05 -100 0.364026 0.063229
-49.1667 0.83333 -2.94703 8.46784e-12 -3.31378e-05 -100 0.364026 0.063229
-25.8333 0.83333 -2.94703 6.174475e-12 -2.071115e-05 -100 0.364026 0.063229
-25.8333 24.1667 -2.94704 9.879141e-12 -3.31378e-05 -100 0.364026 0.063229
-49.1667 24.1667 -2.94704 5.292401e-12 -2.071115e-05 -100 0.364026 0.063229
-24.1667 0.83333 -2.94703 8.46784e-12 -3.31378e-05 -100 0.364026 0.063229
-0.83332 0.83333 -2.94703 6.174475e-12 -2.071115e-05 -100 0.364026 0.063229
-0.83332 24.1667 -2.94704 9.879161e-12 -3.31378e-05 -100 0.364026 0.063229
-24.1667 24.1667 -2.94704 5.292401e-12 -2.071115e-05 -100 0.364026 0.063229
-25 25 -2.94704 2.940225e-13 0 -100 0.327371 0.062481
0 25 -2.94704 44.72137 6.066543e-06 -89.44273 0.327371 0.062481
0 50 -2.94703 53.45226 26.72613 -80.17838 0.327371 0.062481
-25 50 -2.94703 -9.467335e-12 44.72137 -89.44273 0.327371 0.062481
-50 25 -2.94704 -44.72137 -6.066543e-06 -89.44273 0.327371 0.062481
-50 50 -2.94703 -26.72613 53.45226 -80.17838 0.327371 0.062481
-50 0 -2.94703 -53.45226 -26.72613 -80.17838 0.327371 0.062481
-25 0 -2.94703 1.051926e-11 -44.72137 -89.44273 0.327371 0.062481
0 0 -2.94703 26.72613 -53.45226 -80.17838 0.327371 0.062481
-24.1667 25.8333 -2.94704 -8.46784e-12 3.31378e-05 -100 0.327371 0.062481
-0.83332 25.8333 -2.94704 -5.292401e-12 2.071115e-05 -100 0.327371 0.062481
-0.83332 49.1667 -2.94703 -8.46784e-12 3.31378e-05 -100 0.327371 0.062481
-24.1667 49.1667 -2.94703 -5.292401e-12 2.071115e-05 -100 0.327371 0.062481
-49.1667 25.8333 -2.94704 -8.46784e-12 3.31378e-05 -100 0.327371 0.062481
-25.8333 25.8333 -2.94704 -5.292401e-12 2.071115e-05 -100 0.327371 0.062481
-25.8333 49.1667 -2.94703 -8.46784e-12 3.31378e-05 -100 0.327371 0.062481
-49.1667 49.1667 -2.94703 -5.292401e-12 2.071115e-05 -100 0.327371 0.062481
-49.1667 0.83333 -2.94703 8.46784e-12 -3.31378e-05 -100 0.327371 0.062481
-25.8333 0.83333 -2.94703 6.174475e-12 -2.071115e-05 -100 0.327371 0.062481
-25.8333 24.1667 -2.94704 9.879141e-12 -3.31378e-05 -100 0.327371 0.062481
-49.1667 24.1667 -2.94704 5.292401e-12 -2.071115e-05 -100 0.327371 0.062481
-24.1667 0.83333 -2.94703 8.46784e-12 -3.31378e-05 -100 0.327371 0.062481
-0.83332 0.83333 -2.94703 6.174475e-12 -2.071115e-05 -100 0.327371 0.062481
-0.83332 24.1667 -2.94704 9.879161e-12 -3.31378e-05 -100 0.327371 0.062481
-24.1667 24.1667 -2.94704 5.292401e-12 -2.071115e-05 -100 0.327371 0.062481
-0.83332 25.8333 0 0 0 100 0.327371 0.062481
-24.1667 25.8333 0 0 0 100 0.327371 0.062481
-0.83332 49.1667 0 0 0 100 0.327371 0.062481
-24.1667 49.1667 0 0 0 100 0.327371 0.062481
-25.8333 25.8333 0 0 0 100 0.327371 0.062481
-49.1667 25.8333 0 0 0 100 0.327371 0.062481
-25.8333 49.1667 0 0 0 100 0.327371 0.062481
-49.1667 49.1667 0 0 0 100 0.327371 0.062481
-25.8333 0.83333 0 0 0 100 0.327371 0.062481
-49.1667 0.83333 0 0 0 100 0.327371 0.062481
-25.8333 24.1667 0 0 0 100 0.327371 0.062481
-49.1667 24.1667 0 0 0 100 0.327371 0.062481
-0.83332 0.83333 0 0 0 100 0.327371 0.062481
-24.1667 0.83333 0 0 0 100 0.327371 0.062481
-0.83332 24.1667 0 0 0 100 0.327371 0.062481
-24.1667 24.1667 0 0 0 100 0.327371 0.062481
3 25 28 27 
3 25 27 26 
3 29 32 31 
3 29 31 30 
3 33 36 35 
3 33 35 34 
3 37 40 39 
3 37 39 38 
3 41 50 51 
3 41 51 42 
3 42 51 52 
3 42 52 43 
3 43 52 53 
3 43 53 44 
3 44 53 50 
3 44 50 41 
3 45 54 55 
3 45 55 41 
3 41 55 56 
3 41 56 44 
3 44 56 57 
3 44 57 46 
3 46 57 54 
3 46 54 45 
3 47 58 59 
3 47 59 48 
3 48 59 60 
3 48 60 41 
3 41 60 61 
3 41 61 45 
3 45 61 58 
3 45 58 47 
3 48 62 63 
3 48 63 49 
3 49 63 64 
3 49 64 42 
3 42 64 65 
3 42 65 41 
3 41 65 62 
3 41 62 48 
3 9 10 11 
3 9 11 12 
3 13 14 15 
3 13 15 16 
3 17 18 19 
3 17 19 20 
3 21 22 23 
3 21 23 24 
3 7 8 66 
3 7 66 67 
3 8 3 68 
3 8 68 66 
3 3 4 69 
3 3 69 68 
3 4 7 67 
3 4 67 69 
3 6 7 70 
3 6 70 71 
3 7 4 72 
3 7 72 70 
3 4 2 73 
3 4 73 72 
3 2 6 71 
3 2 71 73 
3 0 5 74 
3 0 74 75 
3 5 7 76 
3 5 76 74 
3 7 6 77 
3 7 77 76 
3 6 0 75 
3 6 75 77 
3 5 1 78 
3 5 78 79 
3 1 8 80 
3 1 80 78 
3 8 7 81 
3 8 81 80 
3 7 5 79 
3 7 79 81 
3 8 42 43 
3 8 43 3 
3 3 43 44 
3 3 44 4 
3 4 44 46 
3 4 46 2 
3 2 46 45 
3 2 45 6 
3 0 47 48 
3 0 48 5 
3 6 45 47 
3 6 47 0 
3 5 48 49 
3 5 49 1 
3 1 49 42 
3 1 42 8 
