ply
format ascii 1.0
comment VCGLIB generated
comment TextureFile SpaceInteriors_Texture.png
element vertex 69
property float x
property float y
property float z
property float nx
property float ny
property float nz
property float texture_u
property float texture_v
element face 64
property list uchar int vertex_indices
end_header
-50 0 -50 0 -100 0 0.327371 0.062481
0 0 -50 0 -100 0 0.327371 0.062481
-50 0 0 0 -100 0 0.327371 0.062481
0 0 0 0 -100 0 0.327371 0.062481
-25 0 0 0 -100 0 0.327371 0.062481
-25 0 -50 0 -100 0 0.327371 0.062481
-50 0 -25 0 -100 0 0.327371 0.062481
-25 0 -25 0 -100 0 0.327371 0.062481
0 0 -25 0 -100 0 0.327371 0.062481
-24.1667 0 -24.1667 0 -100 0 0.364026 0.063229
-0.83332 0 -24.1667 0 -100 0 0.364026 0.063229
-0.83332 0 -0.83333 0 -100 0 0.364026 0.063229
-24.1667 0 -0.83333 0 -100 0 0.364026 0.063229
-49.1667 0 -24.1667 0 -100 0 0.364026 0.063229
-25.8333 0 -24.1667 0 -100 0 0.364026 0.063229
-25.8333 0 -0.83333 0 -100 0 0.364026 0.063229
-49.1667 0 -0.83333 0 -100 0 0.364026 0.063229
-49.1667 0 -49.1667 0 -100 0 0.327371 0.062481
-25.8333 0 -49.1667 0 -100 0 0.327371 0.062481
-25.8333 0 -25.8333 0 -100 0 0.327371 0.062481
-49.1667 0 -25.8333 0 -100 0 0.327371 0.062481
-24.1667 0 -49.1667 0 -100 0 0.364026 0.063229
-0.83332 0 -49.1667 0 -100 0 0.364026 0.063229
-0.83332 0 -25.8333 0 -100 0 0.364026 0.063229
-24.1667 0 -25.8333 0 -100 0 0.364026 0.063229
-45.3562 0 -45.3562 26.72613 -80.17838 53.45226 0.364026 0.063229
-29.6438 0 -45.3562 -53.45226 -80.17838 26.72613 0.364026 0.063229
-29.6438 0 -29.6438 -26.72613 -80.17838 -53.45226 0.364026 0.063229
-45.3562 0 -29.6438 53.45226 -80.17838 -26.72613 0.364026 0.063229
-45.3562 0.99886 -45.3562 66.27953 -42.67374 61.53029 0.141852 0.063229
-29.6438 0.99886 -45.3562 -61.5302 -42.67368 66.27966 0.141852 0.063229
-29.6438 0.99886 -29.6438 -66.27966 -42.67368 -61.5302 0.112814 0.061777
-45.3562 0.99886 -29.6438 61.5302 -42.67368 -66.27966 0.141852 0.063229
-41.8859 5.61638 -41.8859 38.05252 -90.49867 19.02626 0.141852 0.063229
-33.114 5.61638 -41.8859 -24.04993 -84.309 48.09985 0.141852 0.063229
-33.114 5.61638 -33.1141 -38.05252 -90.49867 -19.02626 0.141852 0.063229
-41.8859 5.61638 -33.1141 24.0499 -84.309 -48.09985 0.141852 0.063229
-0.83332 0 -24.1667 0 -100 0 0.327371 0.062481
-24.1667 0 -24.1667 0 -100 0 0.327371 0.062481
-0.83332 0 -0.83333 0 -100 0 0.327371 0.062481
-24.1667 0 -0.83333 0 -100 0 0.327371 0.062481
-25.8333 0 -24.1667 0 -100 0 0.327371 0.062481
-49.1667 0 -24.1667 0 -100 0 0.327371 0.062481
-25.8333 0 -0.83333 0 -100 0 0.327371 0.062481
-49.1667 0 -0.83333 0 -100 0 0.327371 0.062481
-0.83332 0 -49.1667 0 -100 0 0.327371 0.062481
-24.1667 0 -49.1667 0 -100 0 0.327371 0.062481
-0.83332 0 -25.8333 0 -100 0 0.327371 0.062481
-24.1667 0 -25.8333 0 -100 0 0.327371 0.062481
-49.1667 0 -49.1667 0 -100 0 0.364026 0.063229
-25.8333 0 -49.1667 0 -100 0 0.364026 0.063229
-25.8333 0 -25.8333 0 -100 0 0.364026 0.063229
-49.1667 0 -25.8333 0 -100 0 0.364026 0.063229
-45.3562 0 -45.3562 26.72613 -80.17838 53.45226 0.141852 0.063229
-29.6438 0 -45.3562 -53.45225 -80.17838 26.72613 0.141852 0.063229
-29.6438 0 -45.3562 -53.45226 -80.17838 26.72613 0.112814 0.061777
-29.6438 0 -29.6438 -26.72613 -80.17838 -53.45225 0.112814 0.061777
-29.6438 0.99886 -45.3562 -61.5302 -42.67368 66.27966 0.112814 0.061777
-29.6438 0 -29.6438 -26.72613 -80.17838 -53.45226 0.141852 0.063229
-45.3562 0 -29.6438 53.45225 -80.17838 -26.72613 0.141852 0.063229
-29.6438 0.99886 -29.6438 -66.27966 -42.67368 -61.5302 0.141852 0.063229
-45.3562 0 -29.6438 53.45226 -80.17838 -26.72613 0.112814 0.061777
-45.3562 0 -45.3562 26.72613 -80.17838 53.45225 0.112814 0.061777
-45.3562 0.99886 -45.3562 66.27953 -42.67374 61.53029 0.112814 0.061777
-45.3562 0.99886 -29.6438 61.5302 -42.67368 -66.27966 0.112814 0.061777
-33.114 5.61638 -33.1141 -38.05252 -90.49867 -19.02626 0.112814 0.061777
-33.114 5.61638 -41.8859 -24.04992 -84.30899 48.09985 0.112814 0.061777
-41.8859 5.61638 -41.8859 38.05252 -90.49867 19.02626 0.112814 0.061777
-41.8859 5.61638 -33.1141 24.0499 -84.309 -48.09985 0.112814 0.061777
3 9 10 11 
3 9 11 12 
3 13 14 15 
3 13 15 16 
3 33 34 35 
3 33 35 36 
3 21 22 23 
3 21 23 24 
3 7 8 37 
3 7 37 38 
3 8 3 39 
3 8 39 37 
3 3 4 40 
3 3 40 39 
3 4 7 38 
3 4 38 40 
3 6 7 41 
3 6 41 42 
3 7 4 43 
3 7 43 41 
3 4 2 44 
3 4 44 43 
3 2 6 42 
3 2 42 44 
3 0 5 18 
3 0 18 17 
3 5 7 19 
3 5 19 18 
3 7 6 20 
3 7 20 19 
3 6 0 17 
3 6 17 20 
3 5 1 45 
3 5 45 46 
3 1 8 47 
3 1 47 45 
3 8 7 48 
3 8 48 47 
3 7 5 46 
3 7 46 48 
3 49 50 26 
3 49 26 25 
3 50 51 27 
3 50 27 26 
3 51 52 28 
3 51 28 27 
3 52 49 25 
3 52 25 28 
3 53 54 30 
3 53 30 29 
3 55 56 31 
3 55 31 57 
3 58 59 32 
3 58 32 60 
3 61 62 63 
3 61 63 64 
3 29 30 34 
3 29 34 33 
3 57 31 65 
3 57 65 66 
3 60 32 36 
3 60 36 35 
3 64 63 67 
3 64 67 68 
