ply
format ascii 1.0
comment VCGLIB generated
comment TextureFile SpaceInteriors_Texture.png
element vertex 72
property float x
property float y
property float z
property float nx
property float ny
property float nz
property float texture_u
property float texture_v
element face 44
property list uchar int vertex_indices
end_header
-1.99243 0 10.0001 -66.66667 -33.33334 66.66667 0.265187 0.061667
1.99247 0 10.0001 66.66667 -66.66667 33.33334 0.265187 0.061667
-1.99243 50 10.0001 -40.82483 81.64966 40.82483 0.265187 0.061667
1.99247 50 10.0001 40.82483 40.82483 81.64967 0.265187 0.061667
-1.99243 50 8e-05 -40.82483 40.82483 -81.64967 0.265187 0.061667
1.99247 50 8e-05 40.82483 81.64966 -40.82483 0.265187 0.061667
-1.99243 0 8e-05 -66.66667 -66.66667 -33.33334 0.265187 0.061667
1.99247 0 8e-05 66.66667 -33.33334 -66.66667 0.265187 0.061667
-1.99243 50 7.50008 -66.66667 66.66667 -33.33334 0.233148 0.061667
1.99247 50 7.50008 48.50713 72.7607 -48.50713 0.233148 0.061667
1.99247 0 7.50008 40.82483 -81.64966 -40.82483 0.233148 0.061667
-1.99243 0 7.50008 -26.72613 -80.17838 -53.45225 0.233148 0.061667
1.99247 0 2.50008 26.72613 -80.17838 53.45225 0.233148 0.061667
1.99247 50 2.50008 66.66667 66.66667 33.33334 0.233148 0.061667
-1.99243 50 2.50008 -48.50713 72.7607 48.50713 0.233148 0.061667
-1.99243 0 2.50008 -40.82483 -81.64966 40.82483 0.233148 0.061667
1.18412 50 2.50008 26.72613 80.17838 53.45226 0.300052 0.061667
-1.18415 50 2.50008 -81.64967 40.82483 40.82483 0.300052 0.061667
-1.18415 0 2.50008 -26.72613 -80.17838 53.45226 0.200168 0.061667
1.18412 0 2.50008 81.64967 -40.82483 40.82483 0.200168 0.061667
-1.18415 50 7.50008 -26.72613 80.17838 -53.45226 0.300052 0.061667
1.18412 50 7.50008 81.64967 40.82483 -40.82483 0.300052 0.061667
1.18412 0 7.50008 26.72613 -80.17838 -53.45226 0.200168 0.061667
-1.18415 0 7.50008 -81.64967 -40.82483 -40.82483 0.200168 0.061667
1.18412 0 2.50008 81.64967 -40.82483 40.82483 0.203554 0.061667
1.18412 50 2.50008 26.72613 80.17838 53.45225 0.203554 0.061667
1.18412 50 7.50008 81.64967 40.82483 -40.82483 0.203554 0.061667
1.18412 0 7.50008 26.72613 -80.17838 -53.45225 0.203554 0.061667
-1.18415 50 2.50008 -81.64967 40.82483 40.82483 0.203554 0.061667
-1.18415 0 2.50008 -26.72613 -80.17838 53.45225 0.203554 0.061667
-1.18415 0 7.50008 -81.64967 -40.82483 -40.82483 0.203554 0.061667
-1.18415 50 7.50008 -26.72613 80.17838 -53.45225 0.203554 0.061667
1.99247 0 10.0001 66.66667 -66.66667 33.33334 0.233148 0.061667
1.99247 50 10.0001 40.82483 40.82483 81.64966 0.233148 0.061667
-1.99243 0 10.0001 -66.66667 -33.33334 66.66667 0.233148 0.061667
-1.99243 50 10.0001 -40.82483 81.64966 40.82483 0.233148 0.061667
1.99247 0 8e-05 66.66667 -33.33334 -66.66667 0.233148 0.061667
1.99247 50 8e-05 40.82483 81.64966 -40.82483 0.233148 0.061667
-1.99243 0 8e-05 -66.66667 -66.66667 -33.33334 0.233148 0.061667
-1.99243 50 8e-05 -40.82483 40.82483 -81.64966 0.233148 0.061667
-1.99243 50 2.50008 -48.50713 72.7607 48.50713 0.300052 0.061667
1.99247 50 2.50008 66.66667 66.66667 33.33334 0.300052 0.061667
1.99247 50 8e-05 40.82483 81.64967 -40.82483 0.300052 0.061667
-1.99243 50 8e-05 -40.82483 40.82483 -81.64966 0.300052 0.061667
1.99247 0 2.50008 26.72613 -80.17838 53.45226 0.200168 0.061667
-1.99243 0 2.50008 -40.82483 -81.64967 40.82483 0.200168 0.061667
-1.99243 0 8e-05 -66.66667 -66.66667 -33.33334 0.200168 0.061667
1.99247 0 8e-05 66.66667 -33.33334 -66.66667 0.200168 0.061667
1.99247 0 2.50008 26.72613 -80.17838 53.45226 0.172673 0.061667
1.99247 50 2.50008 66.66667 66.66667 33.33334 0.172673 0.061667
1.18412 50 2.50008 26.72613 80.17838 53.45226 0.172673 0.061667
1.18412 0 2.50008 81.64966 -40.82483 40.82483 0.172673 0.061667
-1.99243 50 2.50008 -48.50713 72.7607 48.50713 0.172673 0.061667
-1.99243 0 2.50008 -40.82483 -81.64966 40.82483 0.172673 0.061667
-1.18415 0 2.50008 -26.72613 -80.17838 53.45226 0.172673 0.061667
-1.18415 50 2.50008 -81.64966 40.82483 40.82483 0.172673 0.061667
1.99247 50 7.50008 48.50713 72.7607 -48.50713 0.300052 0.061667
-1.99243 50 7.50008 -66.66667 66.66667 -33.33334 0.300052 0.061667
-1.99243 50 10.0001 -40.82483 81.64967 40.82483 0.300052 0.061667
1.99247 50 10.0001 40.82483 40.82483 81.64966 0.300052 0.061667
1.99247 50 7.50008 48.50713 72.7607 -48.50713 0.172673 0.061667
1.99247 0 7.50008 40.82483 -81.64966 -40.82483 0.172673 0.061667
1.18412 0 7.50008 26.72613 -80.17838 -53.45226 0.172673 0.061667
1.18412 50 7.50008 81.64966 40.82483 -40.82483 0.172673 0.061667
-1.99243 0 7.50008 -26.72613 -80.17838 -53.45226 0.200168 0.061667
1.99247 0 7.50008 40.82483 -81.64967 -40.82483 0.200168 0.061667
1.99247 0 10.0001 66.66667 -66.66667 33.33334 0.200168 0.061667
-1.99243 0 10.0001 -66.66667 -33.33334 66.66667 0.200168 0.061667
-1.99243 0 7.50008 -26.72613 -80.17838 -53.45226 0.172673 0.061667
-1.99243 50 7.50008 -66.66667 66.66667 -33.33334 0.172673 0.061667
-1.18415 50 7.50008 -26.72613 80.17838 -53.45226 0.172673 0.061667
-1.18415 0 7.50008 -81.64966 -40.82483 -40.82483 0.172673 0.061667
3 0 1 3 
3 0 3 2 
3 16 17 20 
3 16 20 21 
3 4 5 7 
3 4 7 6 
3 18 19 22 
3 18 22 23 
3 24 25 26 
3 24 26 27 
3 28 29 30 
3 28 30 31 
3 32 10 9 
3 32 9 33 
3 8 11 34 
3 8 34 35 
3 13 12 36 
3 13 36 37 
3 38 15 14 
3 38 14 39 
3 40 17 16 
3 40 16 41 
3 40 41 42 
3 40 42 43 
3 44 19 18 
3 44 18 45 
3 44 45 46 
3 44 46 47 
3 48 49 50 
3 48 50 51 
3 52 53 54 
3 52 54 55 
3 56 21 20 
3 56 20 57 
3 56 57 58 
3 56 58 59 
3 60 61 62 
3 60 62 63 
3 64 23 22 
3 64 22 65 
3 64 65 66 
3 64 66 67 
3 68 69 70 
3 68 70 71 
