ply
format ascii 1.0
comment VCGLIB generated
comment TextureFile SpaceInteriors_Texture.png
element vertex 20
property float x
property float y
property float z
property float nx
property float ny
property float nz
property float texture_u
property float texture_v
element face 10
property list uchar int vertex_indices
end_header
-100 0 -100 0 100 0 0.275592 0.060173
0 0 -100 0 100 0 0.275592 0.060173
-100 0 0 0 100 0 0.275592 0.060173
0 0 0 0 100 0 0.275592 0.060173
-100 0 -93.4991 0 100 0 0.275592 0.060173
0 0 -93.4991 0 100 0 0.275592 0.060173
-100 0 -6.50089 0 100 0 0.275592 0.060173
0 0 -6.50089 0 100 0 0.275592 0.060173
-100 0 -9.50001 0 100 0 0.202744 0.170573
0 0 -9.50001 0 100 0 0.202744 0.170573
-100 0 -90.5 0 100 0 0.202744 0.170573
0 0 -90.5 0 100 0 0.202744 0.170573
0 0 -93.4991 0 100 0 0.202744 0.170573
-100 0 -93.4991 0 100 0 0.202744 0.170573
-100 0 -6.50089 0 100 0 0.202744 0.170573
0 0 -6.50089 0 100 0 0.202744 0.170573
0 0 -9.50001 0 100 0 0.275592 0.060173
0 0 -90.5 0 100 0 0.275592 0.060173
-100 0 -90.5 0 100 0 0.275592 0.060173
-100 0 -9.50001 0 100 0 0.275592 0.060173
3 4 5 1 
3 4 1 0 
3 10 11 12 
3 10 12 13 
3 3 7 6 
3 3 6 2 
3 14 15 9 
3 14 9 8 
3 16 17 18 
3 16 18 19 
