ply
format ascii 1.0
comment VCGLIB generated
comment TextureFile SpaceInteriors_Texture.png
element vertex 66
property float x
property float y
property float z
property float nx
property float ny
property float nz
property float texture_u
property float texture_v
element face 38
property list uchar int vertex_indices
end_header
3.47589 2.43515 0.18883 42.02912 -90.73894 0 0.173600 0.088437
2.63482 4.07659 0.18883 -42.02908 90.73896 0 0.173600 0.088437
97.3652 45.9234 0.18883 42.02904 -90.73898 0 0.173600 0.088437
96.52409 47.5648 0.18883 -42.02908 90.73895 0 0.173600 0.088437
97.3652 45.9234 2.1315 18.79599 -40.57968 89.44273 0.205638 0.088437
96.52409 47.5648 2.1315 -37.59196 81.1594 44.72134 0.205638 0.088437
3.47589 2.43515 2.1315 37.59192 -81.15941 44.72135 0.205638 0.088437
2.63482 4.07659 2.1315 -18.79599 40.57972 89.44272 0.205638 0.088437
96.52409 2.43515 2.13158 -18.79599 -40.57972 89.44272 0.205638 0.088437
97.3652 4.07659 2.13158 37.59196 81.1594 44.72134 0.205638 0.088437
2.63482 45.9234 2.13158 -37.59192 -81.15941 44.72135 0.205638 0.088437
3.4759 47.5648 2.13158 18.79599 40.57968 89.44273 0.205638 0.088437
2.63482 45.9234 0.1889 -42.02908 -90.73895 0 0.173600 0.088437
3.4759 47.5648 0.1889 42.02908 90.73896 0 0.173600 0.088437
96.52409 2.43515 0.1889 -42.02904 -90.73898 0 0.173600 0.088437
97.3652 4.07659 0.1889 42.02912 90.73894 0 0.173600 0.088437
100 0 0 0 0 100 0.391929 0.062464
0 0 0 0 0 100 0.391929 0.062464
100 50 0 0 0 100 0.391929 0.062464
0 50 0 0 0 100 0.391929 0.062464
0 0 3.21823 -30.15114 -30.15114 90.45341 0.140619 0.088437
100 0 3.21823 48.50713 -48.50713 72.7607 0.140619 0.088437
0 50 3.21823 -48.50713 48.50713 72.7607 0.240504 0.088437
100 50 3.21823 30.15114 30.15114 90.45341 0.240504 0.088437
0 50 0 -70.71069 70.71069 0 0.240504 0.088437
100 50 0 70.71069 70.71069 0 0.240504 0.088437
0 0 0 -70.71069 -70.71069 0 0.140619 0.088437
100 0 0 70.71069 -70.71069 0 0.140619 0.088437
3.05537 3.25587 3.21823 26.72613 53.45226 80.17838 0.205638 0.088437
96.9446 3.25587 3.21823 -53.45226 26.72613 80.17838 0.205638 0.088437
96.9446 46.7441 3.21823 -26.72613 -53.45226 80.17838 0.205638 0.088437
3.05537 46.7441 3.21823 53.45226 -26.72613 80.17838 0.205638 0.088437
3.05537 46.7441 0 44.72137 -89.44273 0 0.205638 0.088437
96.9446 46.7441 0 -89.44273 -44.72137 0 0.175920 0.088437
96.9446 3.25587 0 -44.72137 89.44273 0 0.237214 0.088437
3.05537 3.25587 0 89.44273 44.72136 0 0.237214 0.088437
2.63482 4.07659 2.1315 -18.79598 40.57971 89.44271 0.173600 0.088437
96.52409 47.5648 2.1315 -37.59196 81.1594 44.72134 0.173600 0.088437
3.47589 2.43515 2.1315 37.59192 -81.15942 44.72135 0.173600 0.088437
97.3652 45.9234 2.1315 18.79599 -40.57968 89.44273 0.173600 0.088437
97.3652 4.07659 2.13158 37.59196 81.1594 44.72134 0.173600 0.088437
3.4759 47.5648 2.13158 18.79599 40.57968 89.44273 0.173600 0.088437
96.52409 2.43515 2.13158 -18.79598 -40.57971 89.44271 0.173600 0.088437
2.63482 45.9234 2.13158 -37.59192 -81.15942 44.72135 0.173600 0.088437
100 0 3.21823 48.50713 -48.50713 72.7607 0.173600 0.088437
100 0 0 70.71069 -70.71069 0 0.173600 0.088437
100 50 0 70.71069 70.71069 0 0.173600 0.088437
100 50 3.21823 30.15114 30.15114 90.45341 0.173600 0.088437
0 0 0 -70.71069 -70.71069 0 0.173600 0.088437
0 0 3.21823 -30.15114 -30.15114 90.45341 0.173600 0.088437
0 50 3.21823 -48.50713 48.50713 72.7607 0.173600 0.088437
0 50 0 -70.71069 70.71069 0 0.173600 0.088437
0 0 3.21823 -30.15114 -30.15114 90.45341 0.205638 0.088437
100 0 3.21823 48.50713 -48.50713 72.7607 0.205638 0.088437
100 50 3.21823 30.15114 30.15114 90.45341 0.205638 0.088437
0 50 3.21823 -48.50713 48.50713 72.7607 0.205638 0.088437
3.05537 3.25587 3.21823 26.72613 53.45226 80.17838 0.237214 0.088437
96.9446 3.25587 3.21823 -53.45225 26.72613 80.17838 0.237214 0.088437
96.9446 3.25587 3.21823 -53.45226 26.72613 80.17838 0.175920 0.088437
96.9446 46.7441 3.21823 -26.72613 -53.45225 80.17838 0.175920 0.088437
96.9446 3.25587 0 -44.72136 89.44273 0 0.175920 0.088437
96.9446 46.7441 0 -89.44273 -44.72136 0 0.205638 0.088437
3.05537 46.7441 3.21823 53.45226 -26.72613 80.17838 0.175920 0.088437
3.05537 3.25587 3.21823 26.72613 53.45225 80.17838 0.175920 0.088437
3.05537 3.25587 0 89.44273 44.72137 0 0.175920 0.088437
3.05537 46.7441 0 44.72136 -89.44273 0 0.175920 0.088437
3 4 5 7 
3 4 7 6 
3 1 36 37 
3 1 37 3 
3 38 0 2 
3 38 2 39 
3 8 9 11 
3 8 11 10 
3 40 15 13 
3 40 13 41 
3 14 42 43 
3 14 43 12 
3 19 17 16 
3 19 16 18 
3 22 23 25 
3 22 25 24 
3 26 27 21 
3 26 21 20 
3 44 45 46 
3 44 46 47 
3 48 49 50 
3 48 50 51 
3 52 53 29 
3 52 29 28 
3 53 54 30 
3 53 30 29 
3 54 55 31 
3 54 31 30 
3 55 52 28 
3 55 28 31 
3 56 57 34 
3 56 34 35 
3 58 59 33 
3 58 33 60 
3 30 31 32 
3 30 32 61 
3 62 63 64 
3 62 64 65 
