ply
format ascii 1.0
comment VCGLIB generated
comment TextureFile SpaceInteriors_Texture.png
element vertex 164
property float x
property float y
property float z
property float nx
property float ny
property float nz
property float texture_u
property float texture_v
element face 116
property list uchar int vertex_indices
end_header
55 -1.20786 50 81.64967 -40.82483 40.82483 0.139815 0.266803
55 -1.20786 -5 66.61903 -33.35238 -66.70475 0.933887 0.369569
55 1.20786 50 33.33334 66.66667 66.66667 0.139815 0.266803
55 1.20786 -5 40.78114 81.66714 -40.83353 0.139815 0.266803
45 1.20786 50 -81.64966 40.82483 40.82483 0.228524 0.266803
45.0154 1.20786 -4.98718 -0.02877708 44.72136 -89.44273 0.228524 0.266803
45 -1.20786 50 -33.33334 -66.66667 66.66667 0.139815 0.266803
45.0154 -1.20786 -4.98718 -0.01438854 -89.44273 -44.72137 0.997951 0.369569
55 -1.20786 25 60.00001 -80.00001 0 0.139815 0.266803
55 1.20786 25 83.20504 55.47002 0 0.139815 0.266803
45 1.20786 25 -44.72137 89.44273 -0.01724149 0.228524 0.266803
45 -1.20786 25 -89.44273 -44.72136 -0.03448308 0.139815 0.266803
45.0154 -1.20786 5.01282 -23.58548 -94.28159 23.55223 0.139815 0.266803
55 -1.20786 5 55.47002 -83.20504 0 0.139815 0.266803
55 1.20786 5 80.00001 60.00001 0 0.139815 0.266803
45.0154 1.20786 5.01282 -34.83837 87.04021 34.78928 0.228524 0.266803
0 -1.20786 5 -40.82483 -40.82483 81.64967 0.112643 0.264406
0 1.20786 5 -66.66667 66.66667 33.33334 0.112643 0.264406
0 1.20786 -5 -40.82483 40.82483 -81.64966 0.228524 0.266803
0 -1.20786 -5 -66.66667 -66.66667 -33.33334 0.112643 0.264406
25 -1.20786 5 -0.0256198 -80.00001 60.00001 0.112643 0.264406
25 1.20786 5 -0.01776414 55.47002 83.20504 0.112643 0.264406
25 1.20786 -5 0.01432224 89.44273 -44.72137 0.228524 0.266803
25 -1.20786 -5 0.02864448 -44.72136 -89.44273 0.112643 0.264406
46.2246 1.20786 49.4339 81.64967 -40.82483 40.82483 0.236436 0.263411
46.2246 1.20786 48.6271 33.33334 -66.66667 -66.66667 0.236436 0.263411
46.2246 19.8132 49.4339 33.33334 66.66667 66.66667 0.236436 0.263411
46.2246 19.8132 48.6271 81.64967 40.82483 -40.82483 0.236436 0.263411
45.4178 19.8132 49.4339 -81.64967 40.82483 40.82483 0.236436 0.263412
45.4178 19.8132 48.6271 -33.33334 66.66667 -66.66667 0.236436 0.263412
45.4178 1.20786 49.4339 -33.33334 -66.66667 66.66667 0.236436 0.263411
45.4178 1.20786 48.6271 -81.64967 -40.82483 -40.82483 0.236436 0.263411
54.5888 1.20786 49.4339 81.64967 -40.82483 40.82483 0.236436 0.263411
54.5888 1.20786 48.6271 33.33334 -66.66667 -66.66667 0.236436 0.263411
54.5888 19.8132 49.4339 33.33334 66.66667 66.66667 0.236436 0.263411
54.5888 19.8132 48.6271 81.64967 40.82483 -40.82483 0.236436 0.263411
53.782 19.8132 49.4339 -81.64967 40.82483 40.82483 0.236436 0.263412
53.782 19.8132 48.6271 -33.33334 66.66667 -66.66667 0.236436 0.263412
53.782 1.20786 49.4339 -33.33334 -66.66667 66.66667 0.236436 0.263411
53.782 1.20786 48.6271 -81.64967 -40.82483 -40.82483 0.236436 0.263411
0.5661 1.20786 -3.77533 -40.82483 -40.82483 81.64967 0.196478 0.265809
1.37291 1.20786 -3.77533 66.66667 -66.66667 33.33334 0.196477 0.265809
0.5661 19.8132 -3.77533 -66.66667 66.66667 33.33334 0.196478 0.265809
1.37291 19.8132 -3.77533 40.82483 40.82483 81.64967 0.196477 0.265809
0.5661 19.8132 -4.58221 -40.82483 40.82483 -81.64966 0.236436 0.263412
1.37291 19.8132 -4.58221 66.66667 66.66667 -33.33334 0.236436 0.263412
0.5661 1.20786 -4.58221 -66.66667 -66.66667 -33.33334 0.196478 0.265809
1.37291 1.20786 -4.58221 40.82483 -40.82483 -81.64967 0.196477 0.265809
0.5661 1.20786 4.58878 -40.82483 -40.82483 81.64967 0.196478 0.265809
1.37291 1.20786 4.58878 66.66667 -66.66667 33.33334 0.196477 0.265809
0.5661 19.8132 4.58878 -66.66667 66.66667 33.33334 0.196478 0.265809
1.37291 19.8132 4.58878 40.82483 40.82483 81.64967 0.196477 0.265809
0.5661 19.8132 3.78197 -40.82483 40.82483 -81.64966 0.236436 0.263412
1.37291 19.8132 3.78197 66.66667 66.66667 -33.33334 0.236436 0.263412
0.5661 1.20786 3.78197 -66.66667 -66.66667 -33.33334 0.196478 0.265809
1.37291 1.20786 3.78197 40.82483 -40.82483 -81.64967 0.196477 0.265809
53.1448 1.20786 -3.1485 -40.82483 -40.82483 81.64967 0.236436 0.263411
53.9516 1.20786 -3.1485 66.66667 -66.66667 33.33334 0.236436 0.263411
53.1448 19.8132 -3.1485 -66.66667 66.66667 33.33334 0.236436 0.263411
53.9516 19.8132 -3.1485 40.82483 40.82483 81.64967 0.236436 0.263411
53.1448 19.8132 -3.95538 -40.82483 40.82483 -81.64966 0.236436 0.263412
53.9516 19.8132 -3.95538 66.66667 66.66667 -33.33334 0.236436 0.263412
53.1448 1.20786 -3.95538 -66.66667 -66.66667 -33.33334 0.196478 0.265809
53.9516 1.20786 -3.95538 40.82483 -40.82483 -81.64967 0.196477 0.265809
45.5579 1.20786 4.38301 -40.82483 -40.82483 81.64967 0.196478 0.265809
46.3648 1.20786 4.38301 66.66667 -66.66667 33.33334 0.196477 0.265809
45.5579 19.8132 4.38301 -66.66667 66.66667 33.33334 0.196478 0.265809
46.3648 19.8132 4.38301 40.82483 40.82483 81.64967 0.196477 0.265809
45.5579 19.8132 3.5762 -40.82483 40.82483 -81.64966 0.236436 0.263412
46.3648 19.8132 3.5762 66.66667 66.66667 -33.33334 0.236436 0.263412
45.5579 1.20786 3.5762 -66.66667 -66.66667 -33.33334 0.196478 0.265809
46.3648 1.20786 3.5762 40.82483 -40.82483 -81.64967 0.196477 0.265809
55 1.20786 50 33.33334 66.66667 66.66667 0.228524 0.266803
55 1.20786 25 83.20504 55.47002 0 0.228524 0.266803
45 1.20786 50 -81.64967 40.82483 40.82483 0.139815 0.266803
45 1.20786 25 -44.72137 89.44273 -0.01724149 0.139815 0.266803
45 -1.20786 50 -33.33334 -66.66667 66.66667 0.997951 0.369570
45 -1.20786 25 -89.44273 -44.72136 -0.03448308 0.997951 0.169445
55 -1.20786 25 60.00001 -80.00001 0 0.933887 0.169445
55 -1.20786 50 81.64966 -40.82483 40.82483 0.933887 0.369569
45 -1.20786 50 -33.33334 -66.66667 66.66667 0.112643 0.264406
55 -1.20786 50 81.64966 -40.82483 40.82483 0.112643 0.264406
55 1.20786 50 33.33334 66.66667 66.66667 0.112643 0.264406
45 1.20786 50 -81.64966 40.82483 40.82483 0.112643 0.264406
55 1.20786 5 80.00001 60.00001 0 0.228524 0.266803
45.0154 1.20786 5.01282 -34.83837 87.04021 34.78928 0.139815 0.266803
45.0154 -1.20786 5.01282 -23.58549 -94.2816 23.55223 0.997951 0.302934
55 -1.20786 5 55.47002 -83.20504 0 0.933887 0.302934
55 -1.20786 -5 66.61904 -33.35238 -66.70476 0.139815 0.266803
55 1.20786 -5 40.78114 81.66715 -40.83353 0.228524 0.266803
0 1.20786 5 -66.66667 66.66667 33.33334 0.228524 0.266803
25 1.20786 5 -0.01776414 55.47002 83.20504 0.228524 0.266803
0 1.20786 -5 -40.82483 40.82483 -81.64967 0.112643 0.264406
25 1.20786 -5 0.01432224 89.44273 -44.72137 0.112643 0.264406
0 -1.20786 -5 -66.66667 -66.66667 -33.33334 0.997951 0.369570
25 -1.20786 -5 0.02864448 -44.72136 -89.44273 0.997951 0.169445
25 -1.20786 5 -0.0256198 -80.00001 60.00001 0.933887 0.169445
0 -1.20786 5 -40.82483 -40.82483 81.64966 0.933887 0.369569
0 -1.20786 -5 -66.66667 -66.66667 -33.33334 0.139815 0.266803
0 -1.20786 5 -40.82483 -40.82483 81.64966 0.139815 0.266803
0 1.20786 5 -66.66667 66.66667 33.33334 0.139815 0.266803
0 1.20786 -5 -40.82483 40.82483 -81.64966 0.139815 0.266803
45.0154 -1.20786 5.01282 -23.58548 -94.28159 23.55223 0.112643 0.264406
45.0154 1.20786 5.01282 -34.83837 87.04021 34.78928 0.112643 0.264406
45.0154 1.20786 -4.98718 -0.02877708 44.72136 -89.44273 0.112643 0.264406
45.0154 -1.20786 -4.98718 -0.01438854 -89.44273 -44.72136 0.112643 0.264406
45.0154 -1.20786 -4.98718 -0.01438854 -89.44273 -44.72137 0.997951 0.304990
45.0154 -1.20786 5.01282 -23.58548 -94.28159 23.55223 0.933887 0.304990
45.0154 1.20786 -4.98718 -0.02877708 44.72136 -89.44273 0.114130 0.266005
55 1.20786 -5 40.78114 81.66714 -40.83353 0.114130 0.266005
55 -1.20786 -5 66.61904 -33.35238 -66.70476 0.114130 0.266005
45.0154 -1.20786 -4.98718 -0.01438854 -89.44273 -44.72136 0.114130 0.266005
46.2246 1.20786 48.6271 33.33334 -66.66667 -66.66667 0.196477 0.265809
45.4178 1.20786 48.6271 -81.64966 -40.82483 -40.82483 0.196477 0.265809
45.4178 19.8132 48.6271 -33.33334 66.66667 -66.66667 0.196477 0.265809
46.2246 19.8132 48.6271 81.64966 40.82483 -40.82483 0.196477 0.265809
45.4178 1.20786 49.4339 -33.33334 -66.66667 66.66667 0.196477 0.265809
46.2246 1.20786 49.4339 81.64966 -40.82483 40.82483 0.196478 0.265809
46.2246 19.8132 49.4339 33.33334 66.66667 66.66667 0.196478 0.265809
45.4178 19.8132 49.4339 -81.64966 40.82483 40.82483 0.196477 0.265809
54.5888 1.20786 48.6271 33.33334 -66.66667 -66.66667 0.196477 0.265809
53.782 1.20786 48.6271 -81.64966 -40.82483 -40.82483 0.196477 0.265809
53.782 19.8132 48.6271 -33.33334 66.66667 -66.66667 0.196477 0.265809
54.5888 19.8132 48.6271 81.64966 40.82483 -40.82483 0.196477 0.265809
53.782 1.20786 49.4339 -33.33334 -66.66667 66.66667 0.196477 0.265809
54.5888 1.20786 49.4339 81.64966 -40.82483 40.82483 0.196478 0.265809
54.5888 19.8132 49.4339 33.33334 66.66667 66.66667 0.196478 0.265809
53.782 19.8132 49.4339 -81.64966 40.82483 40.82483 0.196477 0.265809
0.5661 19.8132 -3.77533 -66.66667 66.66667 33.33334 0.236436 0.263411
1.37291 19.8132 -3.77533 40.82483 40.82483 81.64967 0.236436 0.263411
0.5661 19.8132 -4.58221 -40.82483 40.82483 -81.64967 0.196478 0.265809
1.37291 19.8132 -4.58221 66.66667 66.66667 -33.33334 0.196477 0.265809
0.5661 1.20786 -4.58221 -66.66667 -66.66667 -33.33334 0.236436 0.263411
1.37291 1.20786 -4.58221 40.82483 -40.82483 -81.64967 0.236436 0.263411
1.37291 1.20786 -3.77533 66.66667 -66.66667 33.33334 0.236436 0.263411
0.5661 1.20786 -3.77533 -40.82483 -40.82483 81.64967 0.236436 0.263411
1.37291 19.8132 -4.58221 66.66667 66.66667 -33.33334 0.236436 0.263411
0.5661 19.8132 -4.58221 -40.82483 40.82483 -81.64966 0.236436 0.263411
0.5661 19.8132 4.58878 -66.66667 66.66667 33.33334 0.236436 0.263411
1.37291 19.8132 4.58878 40.82483 40.82483 81.64967 0.236436 0.263411
0.5661 19.8132 3.78197 -40.82483 40.82483 -81.64967 0.196478 0.265809
1.37291 19.8132 3.78197 66.66667 66.66667 -33.33334 0.196477 0.265809
0.5661 1.20786 3.78197 -66.66667 -66.66667 -33.33334 0.236436 0.263411
1.37291 1.20786 3.78197 40.82483 -40.82483 -81.64967 0.236436 0.263411
1.37291 1.20786 4.58878 66.66667 -66.66667 33.33334 0.236436 0.263411
0.5661 1.20786 4.58878 -40.82483 -40.82483 81.64967 0.236436 0.263411
1.37291 19.8132 3.78197 66.66667 66.66667 -33.33334 0.236436 0.263411
0.5661 19.8132 3.78197 -40.82483 40.82483 -81.64966 0.236436 0.263411
53.1448 19.8132 -3.95538 -40.82483 40.82483 -81.64967 0.196478 0.265809
53.9516 19.8132 -3.95538 66.66667 66.66667 -33.33334 0.196477 0.265809
53.1448 1.20786 -3.95538 -66.66667 -66.66667 -33.33334 0.236436 0.263411
53.9516 1.20786 -3.95538 40.82483 -40.82483 -81.64967 0.236436 0.263411
53.9516 19.8132 -3.95538 66.66667 66.66667 -33.33334 0.236436 0.263411
53.1448 19.8132 -3.95538 -40.82483 40.82483 -81.64966 0.236436 0.263411
45.5579 19.8132 4.38301 -66.66667 66.66667 33.33334 0.236436 0.263411
46.3648 19.8132 4.38301 40.82483 40.82483 81.64967 0.236436 0.263411
45.5579 19.8132 3.5762 -40.82483 40.82483 -81.64967 0.196478 0.265809
46.3648 19.8132 3.5762 66.66667 66.66667 -33.33334 0.196477 0.265809
45.5579 1.20786 3.5762 -66.66667 -66.66667 -33.33334 0.236436 0.263411
46.3648 1.20786 3.5762 40.82483 -40.82483 -81.64967 0.236436 0.263411
46.3648 1.20786 4.38301 66.66667 -66.66667 33.33334 0.236436 0.263411
45.5579 1.20786 4.38301 -40.82483 -40.82483 81.64967 0.236436 0.263411
46.3648 19.8132 3.5762 66.66667 66.66667 -33.33334 0.236436 0.263411
45.5579 19.8132 3.5762 -40.82483 40.82483 -81.64966 0.236436 0.263411
3 0 8 9 
3 0 9 2 
3 72 73 10 
3 72 10 4 
3 74 75 11 
3 74 11 6 
3 76 77 78 
3 76 78 79 
3 80 81 82 
3 80 82 83 
3 8 13 14 
3 8 14 9 
3 10 73 84 
3 10 84 15 
3 11 75 85 
3 11 85 12 
3 78 77 86 
3 78 86 87 
3 87 86 7 
3 87 7 1 
3 14 13 88 
3 14 88 3 
3 15 84 89 
3 15 89 5 
3 16 20 21 
3 16 21 17 
3 90 91 22 
3 90 22 18 
3 92 93 23 
3 92 23 19 
3 94 95 96 
3 94 96 97 
3 98 99 100 
3 98 100 101 
3 20 102 103 
3 20 103 21 
3 22 91 15 
3 22 15 5 
3 23 93 104 
3 23 104 105 
3 96 95 106 
3 96 106 107 
3 108 109 110 
3 108 110 111 
3 24 25 27 
3 24 27 26 
3 26 27 29 
3 26 29 28 
3 28 29 31 
3 28 31 30 
3 30 31 25 
3 30 25 24 
3 112 113 114 
3 112 114 115 
3 116 117 118 
3 116 118 119 
3 32 33 35 
3 32 35 34 
3 34 35 37 
3 34 37 36 
3 36 37 39 
3 36 39 38 
3 38 39 33 
3 38 33 32 
3 120 121 122 
3 120 122 123 
3 124 125 126 
3 124 126 127 
3 40 41 43 
3 40 43 42 
3 128 129 45 
3 128 45 44 
3 130 131 47 
3 130 47 46 
3 132 133 134 
3 132 134 135 
3 134 133 136 
3 134 136 129 
3 132 135 128 
3 132 128 137 
3 48 49 51 
3 48 51 50 
3 138 139 53 
3 138 53 52 
3 140 141 55 
3 140 55 54 
3 142 143 144 
3 142 144 145 
3 144 143 146 
3 144 146 139 
3 142 145 138 
3 142 138 147 
3 56 57 59 
3 56 59 58 
3 58 59 61 
3 58 61 60 
3 148 149 63 
3 148 63 62 
3 150 151 57 
3 150 57 56 
3 57 151 152 
3 57 152 59 
3 150 56 58 
3 150 58 153 
3 64 65 67 
3 64 67 66 
3 154 155 69 
3 154 69 68 
3 156 157 71 
3 156 71 70 
3 158 159 160 
3 158 160 161 
3 160 159 162 
3 160 162 155 
3 158 161 154 
3 158 154 163 
