ply
format ascii 1.0
comment VCGLIB generated
comment TextureFile SpaceInteriors_Texture.png
element vertex 68
property float x
property float y
property float z
property float nx
property float ny
property float nz
property float texture_u
property float texture_v
element face 50
property list uchar int vertex_indices
end_header
3.5548 0 3.55486 44.72137 0 89.44273 0.235402 0.085770
-3.5548 0 3.55486 -89.44273 0 44.72136 0.235402 0.085770
-3.5548 0 -3.5548 -44.72136 0 -89.44273 0.265166 0.085770
3.5548 0 -3.5548 89.44273 0 -44.72137 0.235402 0.085770
3.5548 -0.93024 3.55486 53.45226 -80.17838 26.72613 0.235402 0.085770
-3.5548 -0.93024 3.55486 -26.72613 -80.17838 53.45226 0.235402 0.085770
-3.5548 -0.93024 -3.5548 -53.45226 -80.17838 -26.72613 0.265166 0.085770
3.5548 -0.93024 -3.5548 26.72613 -80.17838 -53.45226 0.235402 0.085770
2.72734 -0.93024 2.72734 20.82089 -88.50114 41.64182 0.293953 0.080092
-2.72734 -0.93024 2.72734 -41.64182 -88.50114 20.82089 0.293953 0.080092
-2.72734 -0.93024 -2.72734 -20.82072 -88.50154 -41.64105 0.293953 0.080092
2.72734 -0.93024 -2.72734 41.64159 -88.50132 -20.82058 0.293953 0.080092
2.05922 -2.80941 2.05922 41.64182 -88.50113 20.82089 0.269974 0.064019
-2.05922 -2.80941 2.05922 -20.82089 -88.50114 41.64182 0.269974 0.064019
-2.05922 -2.80941 -2.05916 -41.64159 -88.50132 -20.82058 0.299737 0.064019
2.05922 -2.80941 -2.05916 20.82072 -88.50154 -41.64105 0.269974 0.064019
1.68921 -2.80941 1.68924 -14.29462 -94.75424 -28.58844 0.259109 0.064121
-1.68924 -2.80941 1.68924 28.58835 -94.75433 -14.29421 0.259109 0.064121
-1.68924 -2.80941 -1.68921 14.29415 -94.75449 28.58785 0.259109 0.064121
1.68921 -2.80941 -1.68921 -28.58922 -94.7541 14.29404 0.259109 0.064121
0.64327 -1.61878 0.64324 -18.127 -88.84798 42.15982 0.269974 0.064019
-0.64324 -1.61878 0.64324 -42.16008 -88.84818 -18.12544 0.269974 0.064019
-0.64324 -1.61878 -0.64317 18.12567 -88.84754 -42.1613 0.299737 0.064019
0.64327 -1.61878 -0.64317 42.15798 -88.84946 18.12406 0.269974 0.064019
0.42288 -2.7495 0.42291 58.03432 -76.09211 29.01742 0.892686 0.386010
-0.42291 -2.7495 0.42291 -36.34362 -58.27262 72.68731 0.892686 0.386010
-0.42291 -2.7495 -0.42288 -58.03638 -76.09018 -29.01837 0.892686 0.386010
0.42288 -2.7495 -0.42288 36.34327 -58.27231 -72.68774 0.892686 0.386010
-3.5548 0 3.55486 -89.44273 0 44.72137 0.265166 0.085770
-3.5548 -0.93024 3.55486 -26.72613 -80.17838 53.45225 0.265166 0.085770
-3.5548 0 -3.5548 -44.72137 0 -89.44273 0.235402 0.085770
-3.5548 -0.93024 -3.5548 -53.45225 -80.17838 -26.72613 0.235402 0.085770
3.5548 -0.93024 3.55486 53.45226 -80.17838 26.72613 0.293953 0.080092
-3.5548 -0.93024 3.55486 -26.72613 -80.17838 53.45226 0.293953 0.080092
-3.5548 -0.93024 -3.5548 -53.45226 -80.17838 -26.72613 0.293953 0.080092
3.5548 -0.93024 -3.5548 26.72613 -80.17838 -53.45226 0.293953 0.080092
2.72734 -0.93024 2.72734 20.82089 -88.50114 41.64182 0.269974 0.064019
-2.72734 -0.93024 2.72734 -41.64182 -88.50113 20.82089 0.269974 0.064019
-2.72734 -0.93024 2.72734 -41.64182 -88.50114 20.82089 0.299737 0.064019
-2.72734 -0.93024 -2.72734 -20.82072 -88.50154 -41.64105 0.299737 0.064019
-2.05922 -2.80941 2.05922 -20.82089 -88.50113 41.64182 0.299737 0.064019
-2.72734 -0.93024 -2.72734 -20.82072 -88.50154 -41.64105 0.269974 0.064019
2.72734 -0.93024 -2.72734 41.64159 -88.50131 -20.82058 0.269974 0.064019
-2.05922 -2.80941 -2.05916 -41.64159 -88.50131 -20.82058 0.269974 0.064019
2.72734 -0.93024 -2.72734 41.64159 -88.50132 -20.82058 0.299737 0.064019
2.72734 -0.93024 2.72734 20.82089 -88.50113 41.64182 0.299737 0.064019
2.05922 -2.80941 2.05922 41.64182 -88.50114 20.82089 0.299737 0.064019
2.05922 -2.80941 -2.05916 20.82072 -88.50154 -41.64105 0.299737 0.064019
2.05922 -2.80941 2.05922 41.64182 -88.50114 20.82089 0.259109 0.064121
-2.05922 -2.80941 2.05922 -20.82089 -88.50114 41.64182 0.259109 0.064121
-2.05922 -2.80941 -2.05916 -41.64159 -88.50132 -20.82058 0.259109 0.064121
2.05922 -2.80941 -2.05916 20.82072 -88.50154 -41.64105 0.259109 0.064121
1.68921 -2.80941 1.68924 -14.29462 -94.75424 -28.58844 0.269974 0.064019
-1.68924 -2.80941 1.68924 28.58835 -94.75433 -14.29421 0.269974 0.064019
-1.68924 -2.80941 1.68924 28.58835 -94.75433 -14.29421 0.299737 0.064019
-1.68924 -2.80941 -1.68921 14.29415 -94.75449 28.58785 0.299737 0.064019
-0.64324 -1.61878 0.64324 -42.16008 -88.84817 -18.12544 0.299737 0.064019
-1.68924 -2.80941 -1.68921 14.29415 -94.75449 28.58785 0.269974 0.064019
1.68921 -2.80941 -1.68921 -28.58921 -94.7541 14.29404 0.269974 0.064019
-0.64324 -1.61878 -0.64317 18.12567 -88.84754 -42.1613 0.269974 0.064019
1.68921 -2.80941 -1.68921 -28.58922 -94.7541 14.29404 0.299737 0.064019
1.68921 -2.80941 1.68924 -14.29462 -94.75424 -28.58844 0.299737 0.064019
0.64327 -1.61878 0.64324 -18.127 -88.84798 42.15982 0.299737 0.064019
0.64327 -1.61878 -0.64317 42.15797 -88.84945 18.12405 0.299737 0.064019
0.64327 -1.61878 0.64324 -18.127 -88.84798 42.15982 0.892686 0.386010
-0.64324 -1.61878 0.64324 -42.16008 -88.84818 -18.12544 0.892686 0.386010
-0.64324 -1.61878 -0.64317 18.12567 -88.84754 -42.1613 0.892686 0.386010
0.64327 -1.61878 -0.64317 42.15798 -88.84946 18.12406 0.892686 0.386010
3 24 25 26 
3 24 26 27 
3 0 1 5 
3 0 5 4 
3 28 2 6 
3 28 6 29 
3 30 3 7 
3 30 7 31 
3 3 0 4 
3 3 4 7 
3 32 33 9 
3 32 9 8 
3 33 34 10 
3 33 10 9 
3 34 35 11 
3 34 11 10 
3 35 32 8 
3 35 8 11 
3 36 37 13 
3 36 13 12 
3 38 39 14 
3 38 14 40 
3 41 42 15 
3 41 15 43 
3 44 45 46 
3 44 46 47 
3 48 49 17 
3 48 17 16 
3 49 50 18 
3 49 18 17 
3 50 51 19 
3 50 19 18 
3 51 48 16 
3 51 16 19 
3 52 53 21 
3 52 21 20 
3 54 55 22 
3 54 22 56 
3 57 58 23 
3 57 23 59 
3 60 61 62 
3 60 62 63 
3 64 65 25 
3 64 25 24 
3 65 66 26 
3 65 26 25 
3 66 67 27 
3 66 27 26 
3 67 64 24 
3 67 24 27 
