ply
format ascii 1.0
comment VCGLIB generated
comment TextureFile SpaceInteriors_Texture.png
element vertex 92
property float x
property float y
property float z
property float nx
property float ny
property float nz
property uchar red
property uchar green
property uchar blue
property uchar alpha
property float texture_u
property float texture_v
element face 58
property list uchar int vertex_indices
end_header
0.534904 0 0.534902 1 0 2 192 192 192 255 0.233246 0.083739
-0.534905 -0 0.534902 -2 0 1 192 192 192 255 0.233246 0.083739
-0.534905 -0 -0.534907 -1 0 -2 192 192 192 255 0.264414 0.084538
0.534904 0 -0.534907 2 0 -1 192 192 192 255 0.233246 0.083739
0.534904 -0.128602 0.534902 2 -3 1 192 192 192 255 0.233246 0.083739
-0.534905 -0.128602 0.534902 -1 -3 2 192 192 192 255 0.233246 0.083739
-0.534905 -0.128602 -0.534907 -2 -3 -1 192 192 192 255 0.264414 0.084538
0.534904 -0.128602 -0.534907 1 -3 -2 192 192 192 255 0.233246 0.083739
0.466698 -0.128602 0.466698 0.738602 -5.02243 1.4772 192 192 192 255 0.296381 0.082141
-0.466698 -0.128602 0.466698 -1.4772 -5.02243 0.738602 192 192 192 255 0.296381 0.082141
-0.466698 -0.128602 -0.466698 -0.738602 -5.02243 -1.4772 192 192 192 255 0.296381 0.082141
0.466698 -0.128602 -0.466698 1.4772 -5.02243 -0.738602 192 192 192 255 0.296381 0.082141
0.333659 -0.164249 0.333662 0.934584 -4.06726 1.86915 192 192 192 255 0.296381 0.082141
-0.333665 -0.164249 0.333662 -1.86912 -4.06738 0.934577 192 192 192 255 0.296381 0.082141
-0.333665 -0.164249 -0.333662 -0.934559 -4.06733 -1.86915 192 192 192 255 0.296381 0.082141
0.333659 -0.164249 -0.333662 1.86917 -4.06725 -0.934577 192 192 192 255 0.296381 0.082141
-0.434162 -0.164249 0.434162 -0.738602 -5.02243 1.4772 192 192 192 255 0.233246 0.083739
0.434162 -0.164249 0.434162 1.4772 -5.02243 0.738602 192 192 192 255 0.233246 0.083739
0.434162 -0.164249 -0.434162 0.738602 -5.02243 -1.4772 192 192 192 255 0.233246 0.083739
-0.434162 -0.164249 -0.434162 -1.4772 -5.02243 -0.738602 192 192 192 255 0.264414 0.084538
0.314151 -0.215499 0.314153 1.86917 -4.06725 0.934577 192 192 192 255 0.233246 0.083739
-0.314153 -0.215499 0.314153 -0.934559 -4.06733 1.86915 192 192 192 255 0.233246 0.083739
-0.314153 -0.215499 -0.314153 -1.86912 -4.06738 -0.934577 192 192 192 255 0.264414 0.084538
0.314151 -0.215499 -0.314153 0.934584 -4.06726 -1.86915 192 192 192 255 0.233246 0.083739
0.212765 -0.215499 0.212768 0.883183 -4.40709 1.76637 192 192 192 255 0.296381 0.082141
-0.212771 -0.215499 0.212768 -1.76637 -4.40709 0.883183 192 192 192 255 0.296381 0.082141
-0.212771 -0.215499 -0.212768 -0.883183 -4.40709 -1.76637 192 192 192 255 0.296381 0.082141
0.212765 -0.215499 -0.212768 1.76637 -4.40709 -0.883183 192 192 192 255 0.296381 0.082141
0.184953 -0.267869 0.184956 1.76637 -3.40709 0.883183 192 192 192 255 0.296381 0.082141
-0.184959 -0.267869 0.184956 -0.883183 -2.40709 1.76637 192 192 192 255 0.296381 0.082141
-0.184959 -0.267869 -0.184956 -1.76637 -3.40709 -0.883183 192 192 192 255 0.296381 0.082141
0.184953 -0.267869 -0.184956 0.883183 -2.40709 -1.76637 192 192 192 255 0.296381 0.082141
-0.534905 -0 0.534902 -2 0 1 192 192 192 255 0.264414 0.084538
-0.534905 -0.128602 0.534902 -1 -3 2 192 192 192 255 0.264414 0.084538
-0.534905 -0 -0.534907 -1 0 -2 192 192 192 255 0.233246 0.083739
-0.534905 -0.128602 -0.534907 -2 -3 -1 192 192 192 255 0.233246 0.083739
0.534904 0 -0.534907 2 0 -1 192 192 192 255 0.264414 0.084538
0.534904 0 0.534902 1 0 2 192 192 192 255 0.264414 0.084538
0.534904 -0.128602 0.534902 2 -3 1 192 192 192 255 0.264414 0.084538
0.534904 -0.128602 -0.534907 1 -3 -2 192 192 192 255 0.264414 0.084538
0.534904 -0.128602 0.534902 2 -3 1 192 192 192 255 0.296381 0.082141
-0.534905 -0.128602 0.534902 -1 -3 2 192 192 192 255 0.296381 0.082141
-0.534905 -0.128602 -0.534907 -2 -3 -1 192 192 192 255 0.296381 0.082141
0.534904 -0.128602 -0.534907 1 -3 -2 192 192 192 255 0.296381 0.082141
0.466698 -0.128602 0.466698 0.738602 -5.02243 1.4772 192 192 192 255 0.233246 0.083739
-0.466698 -0.128602 0.466698 -1.4772 -5.02243 0.738602 192 192 192 255 0.233246 0.083739
-0.466698 -0.128602 0.466698 -1.4772 -5.02243 0.738602 192 192 192 255 0.264414 0.084538
-0.466698 -0.128602 -0.466698 -0.738602 -5.02243 -1.4772 192 192 192 255 0.264414 0.084538
-0.434162 -0.164249 0.434162 -0.738602 -5.02243 1.4772 192 192 192 255 0.264414 0.084538
-0.466698 -0.128602 -0.466698 -0.738602 -5.02243 -1.4772 192 192 192 255 0.233246 0.083739
0.466698 -0.128602 -0.466698 1.4772 -5.02243 -0.738602 192 192 192 255 0.233246 0.083739
-0.434162 -0.164249 -0.434162 -1.4772 -5.02243 -0.738602 192 192 192 255 0.233246 0.083739
0.466698 -0.128602 -0.466698 1.4772 -5.02243 -0.738602 192 192 192 255 0.264414 0.084538
0.466698 -0.128602 0.466698 0.738602 -5.02243 1.4772 192 192 192 255 0.264414 0.084538
0.434162 -0.164249 0.434162 1.4772 -5.02243 0.738602 192 192 192 255 0.264414 0.084538
0.434162 -0.164249 -0.434162 0.738602 -5.02243 -1.4772 192 192 192 255 0.264414 0.084538
0.434162 -0.164249 0.434162 1.4772 -5.02243 0.738602 192 192 192 255 0.296381 0.082141
-0.434162 -0.164249 0.434162 -0.738602 -5.02243 1.4772 192 192 192 255 0.296381 0.082141
0.434162 -0.164249 -0.434162 0.738602 -5.02243 -1.4772 192 192 192 255 0.296381 0.082141
-0.434162 -0.164249 -0.434162 -1.4772 -5.02243 -0.738602 192 192 192 255 0.296381 0.082141
0.333659 -0.164249 0.333662 0.934584 -4.06726 1.86915 192 192 192 255 0.233246 0.083739
-0.333665 -0.164249 0.333662 -1.86912 -4.06738 0.934577 192 192 192 255 0.233246 0.083739
-0.333665 -0.164249 0.333662 -1.86912 -4.06738 0.934577 192 192 192 255 0.264414 0.084538
-0.333665 -0.164249 -0.333662 -0.934559 -4.06733 -1.86915 192 192 192 255 0.264414 0.084538
-0.314153 -0.215499 0.314153 -0.934559 -4.06733 1.86915 192 192 192 255 0.264414 0.084538
-0.333665 -0.164249 -0.333662 -0.934559 -4.06733 -1.86915 192 192 192 255 0.233246 0.083739
0.333659 -0.164249 -0.333662 1.86917 -4.06725 -0.934577 192 192 192 255 0.233246 0.083739
-0.314153 -0.215499 -0.314153 -1.86912 -4.06738 -0.934577 192 192 192 255 0.233246 0.083739
0.333659 -0.164249 -0.333662 1.86917 -4.06725 -0.934577 192 192 192 255 0.264414 0.084538
0.333659 -0.164249 0.333662 0.934584 -4.06726 1.86915 192 192 192 255 0.264414 0.084538
0.314151 -0.215499 0.314153 1.86917 -4.06725 0.934577 192 192 192 255 0.264414 0.084538
0.314151 -0.215499 -0.314153 0.934584 -4.06726 -1.86915 192 192 192 255 0.264414 0.084538
0.314151 -0.215499 0.314153 1.86917 -4.06725 0.934577 192 192 192 255 0.296381 0.082141
-0.314153 -0.215499 0.314153 -0.934559 -4.06733 1.86915 192 192 192 255 0.296381 0.082141
-0.314153 -0.215499 -0.314153 -1.86912 -4.06738 -0.934577 192 192 192 255 0.296381 0.082141
0.314151 -0.215499 -0.314153 0.934584 -4.06726 -1.86915 192 192 192 255 0.296381 0.082141
0.212765 -0.215499 0.212768 0.883183 -4.40709 1.76637 192 192 192 255 0.233246 0.083739
-0.212771 -0.215499 0.212768 -1.76637 -4.40709 0.883183 192 192 192 255 0.233246 0.083739
-0.184959 -0.267869 0.184956 -0.883183 -2.40709 1.76637 192 192 192 255 0.233246 0.083739
0.184953 -0.267869 0.184956 1.76637 -3.40709 0.883183 192 192 192 255 0.233246 0.083739
-0.212771 -0.215499 0.212768 -1.76637 -4.40709 0.883183 192 192 192 255 0.264414 0.084538
-0.212771 -0.215499 -0.212768 -0.883183 -4.40709 -1.76637 192 192 192 255 0.264414 0.084538
-0.184959 -0.267869 -0.184956 -1.76637 -3.40709 -0.883183 192 192 192 255 0.264414 0.084538
-0.184959 -0.267869 0.184956 -0.883183 -2.40709 1.76637 192 192 192 255 0.264414 0.084538
-0.212771 -0.215499 -0.212768 -0.883183 -4.40709 -1.76637 192 192 192 255 0.233246 0.083739
0.212765 -0.215499 -0.212768 1.76637 -4.40709 -0.883183 192 192 192 255 0.233246 0.083739
0.184953 -0.267869 -0.184956 0.883183 -2.40709 -1.76637 192 192 192 255 0.233246 0.083739
-0.184959 -0.267869 -0.184956 -1.76637 -3.40709 -0.883183 192 192 192 255 0.233246 0.083739
0.212765 -0.215499 -0.212768 1.76637 -4.40709 -0.883183 192 192 192 255 0.264414 0.084538
0.212765 -0.215499 0.212768 0.883183 -4.40709 1.76637 192 192 192 255 0.264414 0.084538
0.184953 -0.267869 0.184956 1.76637 -3.40709 0.883183 192 192 192 255 0.264414 0.084538
0.184953 -0.267869 -0.184956 0.883183 -2.40709 -1.76637 192 192 192 255 0.264414 0.084538
3 28 29 30 
3 28 30 31 
3 0 1 5 
3 0 5 4 
3 32 2 6 
3 32 6 33 
3 34 3 7 
3 34 7 35 
3 36 37 38 
3 36 38 39 
3 40 41 9 
3 40 9 8 
3 41 42 10 
3 41 10 9 
3 42 43 11 
3 42 11 10 
3 43 40 8 
3 43 8 11 
3 44 45 16 
3 44 16 17 
3 46 47 19 
3 46 19 48 
3 49 50 18 
3 49 18 51 
3 52 53 54 
3 52 54 55 
3 56 57 13 
3 56 13 12 
3 58 56 12 
3 58 12 15 
3 59 58 15 
3 59 15 14 
3 57 59 14 
3 57 14 13 
3 60 61 21 
3 60 21 20 
3 62 63 22 
3 62 22 64 
3 65 66 23 
3 65 23 67 
3 68 69 70 
3 68 70 71 
3 72 73 25 
3 72 25 24 
3 73 74 26 
3 73 26 25 
3 74 75 27 
3 74 27 26 
3 75 72 24 
3 75 24 27 
3 76 77 78 
3 76 78 79 
3 80 81 82 
3 80 82 83 
3 84 85 86 
3 84 86 87 
3 88 89 90 
3 88 90 91 
