ply
format ascii 1.0
comment VCGLIB generated
comment TextureFile SpaceInteriors_Texture.png
element vertex 270
property float x
property float y
property float z
property float nx
property float ny
property float nz
property uchar red
property uchar green
property uchar blue
property uchar alpha
property float texture_u
property float texture_v
element face 200
property list uchar int vertex_indices
end_header
-4.55986 0.228478 -4.71269 0.706655 -0.707558 2 192 192 192 255 0.234053 0.061667
-0.228477 4.55986 -4.71269 0.707102 -0.707112 2 192 192 192 255 0.169034 0.061667
-4.77152 0.440141 -4.71269 -1.41437 1.41406 1 192 192 192 255 0.234053 0.061667
-0.44014 4.77152 -4.71269 -1.41422 1.41421 1 192 192 192 255 0.234053 0.061667
-4.77152 0.440141 -4.95302 -0.707185 0.707029 -2 192 192 192 255 0.234053 0.061667
-0.44014 4.77152 -4.95302 -0.707103 0.707111 -2 192 192 192 255 0.268919 0.061667
-4.55986 0.228478 -4.95302 1.41331 -1.41512 -1 192 192 192 255 0.169034 0.061667
-0.228477 4.55986 -4.95302 1.41421 -1.41421 -1 192 192 192 255 0.169034 0.061667
-4.77152 4.55986 -4.71269 -0.707107 -0.707107 2 192 192 192 255 0.234053 0.061667
-0.44014 0.228478 -4.71269 -0.707111 -0.707102 2 192 192 192 255 0.169034 0.061667
-4.55986 4.77152 -4.71269 1.41359 1.41483 1 192 192 192 255 0.234053 0.061667
-0.228477 0.440141 -4.71269 1.41483 1.4136 1 192 192 192 255 0.234053 0.061667
-4.55986 4.77152 -4.95302 0.706797 0.707416 -2 192 192 192 255 0.234053 0.061667
-0.228477 0.440141 -4.95302 0.70742 0.706794 -2 192 192 192 255 0.268919 0.061667
-4.77152 4.55986 -4.95302 -1.41421 -1.41421 -1 192 192 192 255 0.169034 0.061667
-0.44014 0.228478 -4.95302 -1.41421 -1.41422 -1 192 192 192 255 0.169034 0.061667
-2.91785 2.29422 -4.71269 -2.70716 0.70703 4 192 192 192 255 0.234053 0.061667
-2.7048 2.08117 -4.71269 1.41334 -2.41512 3 192 192 192 255 0.169034 0.061667
-2.7048 2.08117 -4.95302 0.706644 -2.70756 -4 192 192 192 255 0.234053 0.061667
-2.91785 2.29422 -4.95302 -2.41438 1.41406 -3 192 192 192 255 0.234053 0.061667
-2.08154 2.7068 -4.95303 1.70711 -0.707103 -3 192 192 192 255 0.202886 0.058059
-2.08154 2.7068 -4.7127 3.41428 -1.41422 7 192 192 192 255 0.202886 0.058059
-2.2932 2.91846 -4.7127 -0.707099 1.7071 3 192 192 192 255 0.268918 0.061667
-2.2932 2.91846 -4.95303 -1.41424 3.41421 -7 192 192 192 255 0.234053 0.061667
-2.29283 2.08117 -4.95303 -0.707112 -1.70711 -4 192 192 192 255 0.234053 0.061667
-2.29283 2.08117 -4.7127 -1.41419 -3.41421 3 192 192 192 255 0.169034 0.061667
-2.08154 2.29483 -4.7127 1.70742 0.706802 3 192 192 192 255 0.202886 0.058059
-2.08154 2.29483 -4.95303 3.41483 1.41359 -3 192 192 192 255 0.202886 0.058059
-2.70517 2.91846 -4.71269 0.706822 2.70742 4 192 192 192 255 0.268919 0.061667
-2.91785 2.70619 -4.71269 -2.41419 -1.41421 3 192 192 192 255 0.234053 0.061667
-2.91785 2.70619 -4.95302 -2.70712 -0.707106 -4 192 192 192 255 0.234053 0.061667
-2.70517 2.91846 -4.95302 1.41359 2.41483 -2 192 192 192 255 0.234053 0.061667
-5 0 0 -3 -3 3 192 192 192 255 0.265187 0.061667
0 0 0 3 -3 3 192 192 192 255 0.265187 0.061667
-5 5 0 -3 3 3 192 192 192 255 0.265187 0.061667
0 5 0 3 3 3 192 192 192 255 0.265187 0.061667
-5 5 -5 -3 3 -3 192 192 192 255 0.265187 0.061667
0 5 -5 3 3 -3 192 192 192 255 0.265187 0.061667
-5 0 -5 -3 -3 -3 192 192 192 255 0.265187 0.061667
0 0 -5 3 -3 -3 192 192 192 255 0.265187 0.061667
-4.66569 0.334309 0 1 2 3.00003 192 192 192 255 0.265187 0.061667
-0.334309 0.334309 0 -2 1 3.00003 192 192 192 255 0.265187 0.061667
-0.334309 4.66569 0 -1 -2 3.00003 192 192 192 255 0.265187 0.061667
-4.66569 4.66569 0 2 -1 3.00003 192 192 192 255 0.265187 0.061667
-4.66569 4.66569 -5 1 -2 -3.00003 192 192 192 255 0.265187 0.061667
-0.334309 4.66569 -5 -2 -1 -3.00003 192 192 192 255 0.265187 0.061667
-0.334309 0.334309 -5 -1 2 -3.00003 192 192 192 255 0.265187 0.061667
-4.66569 0.334309 -5 2 1 -3.00003 192 192 192 255 0.265187 0.061667
0 0.334309 -4.6657 3.00005 1 2 192 192 192 255 0.233148 0.061667
0 0.334309 -0.334312 3.00005 2 -1 192 192 192 255 0.233148 0.061667
0 4.66569 -4.6657 3.00004 -2 1 192 192 192 255 0.233148 0.061667
0 4.66569 -0.334312 3.00006 -1 -2 192 192 192 255 0.233148 0.061667
-5 0.334309 -4.6657 -3.00005 2 1 192 192 192 255 0.233148 0.061667
-5 0.334309 -0.334312 -3.00006 1 -2 192 192 192 255 0.233148 0.061667
-5 4.66569 -0.334312 -3.00004 -2 -1 192 192 192 255 0.233148 0.061667
-5 4.66569 -4.6657 -3.00005 -1 2 192 192 192 255 0.233148 0.061667
-4.66569 5 -0.334312 1 3.00006 -2 192 192 192 255 0.300052 0.061667
-0.334309 5 -0.334312 -2 3.00004 -1 192 192 192 255 0.300052 0.061667
-0.334309 5 -4.6657 -1 3.00005 2 192 192 192 255 0.300052 0.061667
-4.66569 5 -4.6657 2 3.00004 1 192 192 192 255 0.300052 0.061667
-4.66569 0 -4.6657 1 -3.00005 2 192 192 192 255 0.200168 0.061667
-0.334309 0 -4.6657 -2 -3.00004 1 192 192 192 255 0.200168 0.061667
-0.334309 0 -0.334312 -1 -3.00006 -2 192 192 192 255 0.200168 0.061667
-4.66569 0 -0.334312 2 -3.00004 -1 192 192 192 255 0.200168 0.061667
-4.66569 0.334313 -0.33432 2.99995 2.99994 -2.99997 192 192 192 255 0.30031 0.058538
-0.334312 0.334313 -0.33432 -2.99994 2.99996 -2.99997 192 192 192 255 0.30031 0.058538
-0.334312 4.66569 -0.33432 -2.99996 -2.99994 -2.99997 192 192 192 255 0.265187 0.061667
-4.66569 4.66569 -0.33432 2.99994 -2.99996 -2.99997 192 192 192 255 0.265187 0.061667
-0.334312 4.66569 -4.66569 -2.99995 -2.99996 2.99997 192 192 192 255 0.235531 0.061667
-4.66569 4.66569 -4.66569 2.99996 -2.99995 2.99997 192 192 192 255 0.204969 0.061667
-0.334312 0.334313 -4.66569 -2.99995 2.99995 2.99997 192 192 192 255 0.265187 0.061667
-4.66569 0.334313 -4.66569 2.99995 2.99996 2.99997 192 192 192 255 0.30031 0.058538
-4.55986 0.228478 -0.046997 0.706655 -0.707558 2 192 192 192 255 0.234053 0.061667
-0.228477 4.55986 -0.046997 0.707102 -0.707112 2 192 192 192 255 0.169034 0.061667
-4.77152 0.440141 -0.046997 -1.41437 1.41406 1 192 192 192 255 0.234053 0.061667
-0.44014 4.77152 -0.046997 -1.41422 1.41421 1 192 192 192 255 0.234053 0.061667
-4.77152 0.440141 -0.287323 -0.707185 0.707029 -2 192 192 192 255 0.234053 0.061667
-0.44014 4.77152 -0.287323 -0.707103 0.707111 -2 192 192 192 255 0.268919 0.061667
-4.55986 0.228478 -0.287323 1.41331 -1.41512 -1 192 192 192 255 0.169034 0.061667
-0.228477 4.55986 -0.287323 1.41421 -1.41421 -1 192 192 192 255 0.169034 0.061667
-4.77152 4.55986 -0.046997 -0.707107 -0.707107 2 192 192 192 255 0.234053 0.061667
-0.44014 0.228478 -0.046997 -0.707111 -0.707102 2 192 192 192 255 0.169034 0.061667
-4.55986 4.77152 -0.046997 1.41359 1.41483 1 192 192 192 255 0.234053 0.061667
-0.228477 0.440141 -0.046997 1.41483 1.4136 1 192 192 192 255 0.234053 0.061667
-4.55986 4.77152 -0.287323 0.706797 0.707416 -2 192 192 192 255 0.234053 0.061667
-0.228477 0.440141 -0.287323 0.70742 0.706794 -2 192 192 192 255 0.268919 0.061667
-4.77152 4.55986 -0.287323 -1.41421 -1.41421 -1 192 192 192 255 0.169034 0.061667
-0.44014 0.228478 -0.287323 -1.41421 -1.41422 -1 192 192 192 255 0.169034 0.061667
-2.91785 2.29422 -0.046997 -2.70716 0.70703 4 192 192 192 255 0.234053 0.061667
-2.7048 2.08117 -0.046997 1.41333 -2.41512 3 192 192 192 255 0.169034 0.061667
-2.7048 2.08117 -0.287323 0.706643 -2.70756 -4 192 192 192 255 0.234053 0.061667
-2.91785 2.29422 -0.287323 -2.41438 1.41406 -3 192 192 192 255 0.234053 0.061667
-2.08154 2.7068 -0.287331 1.70711 -0.707103 -3 192 192 192 255 0.202886 0.058059
-2.08154 2.7068 -0.047005 3.41428 -1.41422 7 192 192 192 255 0.202886 0.058059
-2.2932 2.91846 -0.047005 -0.707099 1.7071 3 192 192 192 255 0.268918 0.061667
-2.2932 2.91846 -0.287331 -1.41425 3.41421 -7 192 192 192 255 0.234053 0.061667
-2.29283 2.08117 -0.287331 -0.707113 -1.70711 -4 192 192 192 255 0.234053 0.061667
-2.29283 2.08117 -0.047005 -1.41419 -3.41421 3 192 192 192 255 0.169034 0.061667
-2.08154 2.29483 -0.047005 1.70742 0.706802 3 192 192 192 255 0.202886 0.058059
-2.08154 2.29483 -0.287331 3.41483 1.41359 -3 192 192 192 255 0.202886 0.058059
-2.70517 2.91846 -0.046997 0.706822 2.70742 4 192 192 192 255 0.268919 0.061667
-2.91785 2.70619 -0.046997 -2.41419 -1.41421 3 192 192 192 255 0.234053 0.061667
-2.91785 2.70619 -0.287323 -2.70712 -0.707106 -4 192 192 192 255 0.234053 0.061667
-2.70517 2.91846 -0.287323 1.41359 2.41483 -2 192 192 192 255 0.234053 0.061667
-2.08154 2.7068 -4.95303 1.70711 -0.707103 -3 192 192 192 255 0.234053 0.061667
-2.08154 2.29483 -4.95303 3.41483 1.41359 -3 192 192 192 255 0.234053 0.061667
-2.7048 2.08117 -4.95302 0.706644 -2.70756 -4 192 192 192 255 0.169034 0.061667
-2.29283 2.08117 -4.95303 -0.707112 -1.70711 -4 192 192 192 255 0.169034 0.061667
-2.2932 2.91846 -4.95303 -1.41424 3.41421 -7 192 192 192 255 0.268919 0.061667
-2.70517 2.91846 -4.95302 1.41359 2.41483 -2 192 192 192 255 0.268919 0.061667
-2.08154 2.7068 -4.7127 3.41428 -1.41422 7 192 192 192 255 0.234053 0.061667
-2.2932 2.91846 -4.7127 -0.707099 1.7071 3 192 192 192 255 0.234053 0.061667
-2.70517 2.91846 -4.71269 0.706822 2.70742 4 192 192 192 255 0.234053 0.061667
-2.7048 2.08117 -4.71269 1.41334 -2.41512 3 192 192 192 255 0.234053 0.061667
-2.29283 2.08117 -4.7127 -1.41419 -3.41421 3 192 192 192 255 0.234053 0.061667
-2.08154 2.29483 -4.7127 1.70742 0.706802 3 192 192 192 255 0.234053 0.061667
-2.91785 2.29422 -4.71269 -2.70716 0.70703 4 192 192 192 255 0.202886 0.058059
-2.91785 2.70619 -4.71269 -2.41419 -1.41421 3 192 192 192 255 0.202886 0.058059
-2.91785 2.70619 -4.95302 -2.70712 -0.707106 -4 192 192 192 255 0.202886 0.058059
-2.91785 2.29422 -4.95302 -2.41438 1.41406 -3 192 192 192 255 0.202886 0.058059
-4.55986 0.228478 -4.71269 0.706655 -0.707558 2 192 192 192 255 0.169034 0.061667
-4.55986 0.228478 -4.95302 1.41331 -1.41512 -1 192 192 192 255 0.234053 0.061667
-4.77152 0.440141 -4.71269 -1.41437 1.41406 1 192 192 192 255 0.268919 0.061667
-2.91785 2.29422 -4.71269 -2.70716 0.70703 4 192 192 192 255 0.268919 0.061667
-2.91785 2.29422 -4.95302 -2.41438 1.41406 -3 192 192 192 255 0.268919 0.061667
-4.77152 0.440141 -4.95302 -0.707185 0.707029 -2 192 192 192 255 0.268919 0.061667
-0.44014 0.228478 -4.71269 -0.707111 -0.707102 2 192 192 192 255 0.234053 0.061667
-2.08154 2.29483 -4.95303 3.41483 1.41359 -3 192 192 192 255 0.268919 0.061667
-2.08154 2.29483 -4.7127 1.70742 0.706802 3 192 192 192 255 0.268919 0.061667
-0.228477 0.440141 -4.71269 1.41483 1.4136 1 192 192 192 255 0.268919 0.061667
-0.228477 0.440141 -4.95302 0.70742 0.706794 -2 192 192 192 255 0.234053 0.061667
-0.44014 0.228478 -4.95302 -1.41421 -1.41422 -1 192 192 192 255 0.234053 0.061667
-2.08154 2.7068 -4.7127 3.41428 -1.41422 7 192 192 192 255 0.169034 0.061667
-2.08154 2.7068 -4.95303 1.70711 -0.707103 -3 192 192 192 255 0.169034 0.061667
-0.228477 4.55986 -4.71269 0.707102 -0.707112 2 192 192 192 255 0.234053 0.061667
-0.44014 4.77152 -4.71269 -1.41422 1.41421 1 192 192 192 255 0.268919 0.061667
-0.44014 4.77152 -4.95302 -0.707103 0.707111 -2 192 192 192 255 0.234053 0.061667
-0.228477 4.55986 -4.95302 1.41421 -1.41421 -1 192 192 192 255 0.234053 0.061667
-2.91785 2.70619 -4.95302 -2.70712 -0.707106 -4 192 192 192 255 0.169034 0.061667
-2.91785 2.70619 -4.71269 -2.41419 -1.41421 3 192 192 192 255 0.169034 0.061667
-4.77152 4.55986 -4.71269 -0.707107 -0.707107 2 192 192 192 255 0.169034 0.061667
-4.77152 4.55986 -4.95302 -1.41421 -1.41421 -1 192 192 192 255 0.234053 0.061667
-4.55986 4.77152 -4.71269 1.41359 1.41483 1 192 192 192 255 0.268919 0.061667
-4.55986 4.77152 -4.95302 0.706797 0.707416 -2 192 192 192 255 0.268919 0.061667
0 0 0 3 -3 3 192 192 192 255 0.233148 0.061667
0 0 -5 3 -3 -3 192 192 192 255 0.233148 0.061667
0 5 -5 3 3 -3 192 192 192 255 0.233148 0.061667
0 5 0 3 3 3 192 192 192 255 0.233148 0.061667
-5 0 -5 -3 -3 -3 192 192 192 255 0.233148 0.061667
-5 0 0 -3 -3 3 192 192 192 255 0.233148 0.061667
-5 5 0 -3 3 3 192 192 192 255 0.233148 0.061667
-5 5 -5 -3 3 -3 192 192 192 255 0.233148 0.061667
-5 5 0 -3 3 3 192 192 192 255 0.300052 0.061667
0 5 0 3 3 3 192 192 192 255 0.300052 0.061667
0 5 -5 3 3 -3 192 192 192 255 0.300052 0.061667
-5 5 -5 -3 3 -3 192 192 192 255 0.300052 0.061667
-5 5 -5 -3 3 -3 192 192 192 255 0.30031 0.058538
-5 5 0 -3 3 3 192 192 192 255 0.30031 0.058538
-4.66569 5 -0.334312 1 3.00006 -2 192 192 192 255 0.30031 0.058538
-4.66569 5 -4.6657 2 3.00004 1 192 192 192 255 0.30031 0.058538
-5 0 -5 -3 -3 -3 192 192 192 255 0.200168 0.061667
0 0 -5 3 -3 -3 192 192 192 255 0.200168 0.061667
0 0 0 3 -3 3 192 192 192 255 0.200168 0.061667
-5 0 0 -3 -3 3 192 192 192 255 0.200168 0.061667
-4.66569 0.334309 0 1 2 3.00003 192 192 192 255 0.30031 0.058538
-0.334309 0.334309 0 -2 1 3.00003 192 192 192 255 0.30031 0.058538
-0.334312 0.334313 -0.33432 -2.99994 2.99996 -2.99997 192 192 192 255 0.265187 0.061667
-4.66569 4.66569 0 2 -1 3.00003 192 192 192 255 0.244812 0.061667
-4.66569 0.334309 0 1 2 3.00003 192 192 192 255 0.244812 0.061667
-4.66569 0.334313 -0.33432 2.99995 2.99994 -2.99997 192 192 192 255 0.244812 0.061667
-4.66569 4.66569 -0.33432 2.99994 -2.99996 -2.99997 192 192 192 255 0.244812 0.061667
-4.66569 5 -0.334312 1 3.00006 -2 192 192 192 255 0.204969 0.061667
-0.334309 5 -0.334312 -2 3.00004 -1 192 192 192 255 0.204969 0.061667
-0.334312 4.66569 -0.33432 -2.99996 -2.99994 -2.99997 192 192 192 255 0.204969 0.061667
-4.66569 4.66569 -0.33432 2.99994 -2.99996 -2.99997 192 192 192 255 0.204969 0.061667
-0.334309 5 -0.334312 -2 3.00004 -1 192 192 192 255 0.235531 0.061667
-0.334309 5 -4.6657 -1 3.00005 2 192 192 192 255 0.235531 0.061667
-0.334312 4.66569 -0.33432 -2.99996 -2.99994 -2.99997 192 192 192 255 0.235531 0.061667
-0.334309 5 -4.6657 -1 3.00005 2 192 192 192 255 0.204969 0.061667
-4.66569 5 -4.6657 2 3.00004 1 192 192 192 255 0.204969 0.061667
-0.334312 4.66569 -4.66569 -2.99995 -2.99996 2.99997 192 192 192 255 0.204969 0.061667
-4.66569 5 -4.6657 2 3.00004 1 192 192 192 255 0.235531 0.061667
-4.66569 5 -0.334312 1 3.00006 -2 192 192 192 255 0.235531 0.061667
-4.66569 4.66569 -0.33432 2.99994 -2.99996 -2.99997 192 192 192 255 0.235531 0.061667
-4.66569 4.66569 -4.66569 2.99996 -2.99995 2.99997 192 192 192 255 0.235531 0.061667
-0.334312 4.66569 -4.66569 -2.99995 -2.99996 2.99997 192 192 192 255 0.265187 0.061667
-4.66569 4.66569 -4.66569 2.99996 -2.99995 2.99997 192 192 192 255 0.265187 0.061667
-0.334309 0.334309 -5 -1 2 -3.00003 192 192 192 255 0.30031 0.058538
-4.66569 0.334309 -5 2 1 -3.00003 192 192 192 255 0.30031 0.058538
-0.334312 0.334313 -4.66569 -2.99995 2.99995 2.99997 192 192 192 255 0.30031 0.058538
-4.66569 0.334309 -5 2 1 -3.00003 192 192 192 255 0.244812 0.061667
-4.66569 4.66569 -5 1 -2 -3.00003 192 192 192 255 0.244812 0.061667
-4.66569 4.66569 -4.66569 2.99996 -2.99995 2.99997 192 192 192 255 0.244812 0.061667
-4.66569 0.334313 -4.66569 2.99995 2.99996 2.99997 192 192 192 255 0.244812 0.061667
-0.334312 0.334313 -4.66569 -2.99995 2.99995 2.99997 192 192 192 255 0.200168 0.061667
-4.66569 0.334313 -4.66569 2.99995 2.99996 2.99997 192 192 192 255 0.200168 0.061667
-0.334309 0 -4.6657 -2 -3.00004 1 192 192 192 255 0.23073 0.061667
-0.334309 0 -0.334312 -1 -3.00006 -2 192 192 192 255 0.23073 0.061667
-0.334312 0.334313 -0.33432 -2.99994 2.99996 -2.99997 192 192 192 255 0.23073 0.061667
-0.334312 0.334313 -4.66569 -2.99995 2.99995 2.99997 192 192 192 255 0.23073 0.061667
-4.66569 0.334313 -0.33432 2.99995 2.99994 -2.99997 192 192 192 255 0.200168 0.061667
-0.334312 0.334313 -0.33432 -2.99994 2.99996 -2.99997 192 192 192 255 0.200168 0.061667
-4.66569 0 -0.334312 2 -3.00004 -1 192 192 192 255 0.23073 0.061667
-4.66569 0 -4.6657 1 -3.00005 2 192 192 192 255 0.23073 0.061667
-4.66569 0.334313 -4.66569 2.99995 2.99996 2.99997 192 192 192 255 0.23073 0.061667
-4.66569 0.334313 -0.33432 2.99995 2.99994 -2.99997 192 192 192 255 0.23073 0.061667
0 0.334309 -0.334312 3.00005 2 -1 192 192 192 255 0.30031 0.058538
0 0.334309 -4.6657 3.00005 1 2 192 192 192 255 0.30031 0.058538
0 0.334309 -4.6657 3.00005 1 2 192 192 192 255 0.202586 0.061667
0 4.66569 -4.6657 3.00004 -2 1 192 192 192 255 0.202586 0.061667
-0.334312 4.66569 -4.66569 -2.99995 -2.99996 2.99997 192 192 192 255 0.202586 0.061667
-0.334312 0.334313 -4.66569 -2.99995 2.99995 2.99997 192 192 192 255 0.202586 0.061667
-0.334312 4.66569 -0.33432 -2.99996 -2.99994 -2.99997 192 192 192 255 0.233148 0.061667
-0.334312 4.66569 -4.66569 -2.99995 -2.99996 2.99997 192 192 192 255 0.233148 0.061667
0 4.66569 -0.334312 3.00006 -1 -2 192 192 192 255 0.202586 0.061667
0 0.334309 -0.334312 3.00005 2 -1 192 192 192 255 0.202586 0.061667
-0.334312 0.334313 -0.33432 -2.99994 2.99996 -2.99997 192 192 192 255 0.202586 0.061667
-0.334312 4.66569 -0.33432 -2.99996 -2.99994 -2.99997 192 192 192 255 0.202586 0.061667
-5 0.334309 -4.6657 -3.00005 2 1 192 192 192 255 0.30031 0.058538
-5 0.334309 -0.334312 -3.00006 1 -2 192 192 192 255 0.30031 0.058538
-5 0.334309 -0.334312 -3.00006 1 -2 192 192 192 255 0.202586 0.061667
-5 4.66569 -0.334312 -3.00004 -2 -1 192 192 192 255 0.202586 0.061667
-4.66569 4.66569 -0.33432 2.99994 -2.99996 -2.99997 192 192 192 255 0.202586 0.061667
-4.66569 0.334313 -0.33432 2.99995 2.99994 -2.99997 192 192 192 255 0.202586 0.061667
-4.66569 4.66569 -4.66569 2.99996 -2.99995 2.99997 192 192 192 255 0.233148 0.061667
-4.66569 4.66569 -0.33432 2.99994 -2.99996 -2.99997 192 192 192 255 0.233148 0.061667
-5 4.66569 -4.6657 -3.00005 -1 2 192 192 192 255 0.202586 0.061667
-5 0.334309 -4.6657 -3.00005 2 1 192 192 192 255 0.202586 0.061667
-4.66569 0.334313 -4.66569 2.99995 2.99996 2.99997 192 192 192 255 0.202586 0.061667
-4.66569 4.66569 -4.66569 2.99996 -2.99995 2.99997 192 192 192 255 0.202586 0.061667
-2.08154 2.7068 -0.287331 1.70711 -0.707103 -3 192 192 192 255 0.234053 0.061667
-2.08154 2.29483 -0.287331 3.41483 1.41359 -3 192 192 192 255 0.234053 0.061667
-2.7048 2.08117 -0.287323 0.706643 -2.70756 -4 192 192 192 255 0.169034 0.061667
-2.29283 2.08117 -0.287331 -0.707113 -1.70711 -4 192 192 192 255 0.169034 0.061667
-2.2932 2.91846 -0.287331 -1.41425 3.41421 -7 192 192 192 255 0.268919 0.061667
-2.70517 2.91846 -0.287323 1.41359 2.41483 -2 192 192 192 255 0.268919 0.061667
-2.08154 2.7068 -0.047005 3.41428 -1.41422 7 192 192 192 255 0.234053 0.061667
-2.2932 2.91846 -0.047005 -0.707099 1.7071 3 192 192 192 255 0.234053 0.061667
-2.70517 2.91846 -0.046997 0.706822 2.70742 4 192 192 192 255 0.234053 0.061667
-2.7048 2.08117 -0.046997 1.41333 -2.41512 3 192 192 192 255 0.234053 0.061667
-2.29283 2.08117 -0.047005 -1.41419 -3.41421 3 192 192 192 255 0.234053 0.061667
-2.08154 2.29483 -0.047005 1.70742 0.706802 3 192 192 192 255 0.234053 0.061667
-2.91785 2.29422 -0.046997 -2.70716 0.70703 4 192 192 192 255 0.202886 0.058059
-2.91785 2.70619 -0.046997 -2.41419 -1.41421 3 192 192 192 255 0.202886 0.058059
-2.91785 2.70619 -0.287323 -2.70712 -0.707106 -4 192 192 192 255 0.202886 0.058059
-2.91785 2.29422 -0.287323 -2.41438 1.41406 -3 192 192 192 255 0.202886 0.058059
-4.55986 0.228478 -0.046997 0.706655 -0.707558 2 192 192 192 255 0.169034 0.061667
-4.55986 0.228478 -0.287323 1.41331 -1.41512 -1 192 192 192 255 0.234053 0.061667
-4.77152 0.440141 -0.046997 -1.41437 1.41406 1 192 192 192 255 0.268919 0.061667
-2.91785 2.29422 -0.046997 -2.70716 0.70703 4 192 192 192 255 0.268919 0.061667
-2.91785 2.29422 -0.287323 -2.41438 1.41406 -3 192 192 192 255 0.268919 0.061667
-4.77152 0.440141 -0.287323 -0.707185 0.707029 -2 192 192 192 255 0.268919 0.061667
-0.44014 0.228478 -0.046997 -0.707111 -0.707102 2 192 192 192 255 0.234053 0.061667
-2.08154 2.29483 -0.287331 3.41483 1.41359 -3 192 192 192 255 0.268919 0.061667
-2.08154 2.29483 -0.047005 1.70742 0.706802 3 192 192 192 255 0.268919 0.061667
-0.228477 0.440141 -0.046997 1.41483 1.4136 1 192 192 192 255 0.268919 0.061667
-0.228477 0.440141 -0.287323 0.70742 0.706794 -2 192 192 192 255 0.234053 0.061667
-0.44014 0.228478 -0.287323 -1.41421 -1.41422 -1 192 192 192 255 0.234053 0.061667
-2.08154 2.7068 -0.047005 3.41428 -1.41422 7 192 192 192 255 0.169034 0.061667
-2.08154 2.7068 -0.287331 1.70711 -0.707103 -3 192 192 192 255 0.169034 0.061667
-0.228477 4.55986 -0.046997 0.707102 -0.707112 2 192 192 192 255 0.234053 0.061667
-0.44014 4.77152 -0.046997 -1.41422 1.41421 1 192 192 192 255 0.268919 0.061667
-0.44014 4.77152 -0.287323 -0.707103 0.707111 -2 192 192 192 255 0.234053 0.061667
-0.228477 4.55986 -0.287323 1.41421 -1.41421 -1 192 192 192 255 0.234053 0.061667
-2.91785 2.70619 -0.287323 -2.70712 -0.707106 -4 192 192 192 255 0.169034 0.061667
-2.91785 2.70619 -0.046997 -2.41419 -1.41421 3 192 192 192 255 0.169034 0.061667
-4.77152 4.55986 -0.046997 -0.707107 -0.707107 2 192 192 192 255 0.169034 0.061667
-4.77152 4.55986 -0.287323 -1.41421 -1.41421 -1 192 192 192 255 0.234053 0.061667
-4.55986 4.77152 -0.046997 1.41359 1.41483 1 192 192 192 255 0.268919 0.061667
-4.55986 4.77152 -0.287323 0.706797 0.707416 -2 192 192 192 255 0.268919 0.061667
3 21 26 27 
3 21 27 20 
3 23 104 105 
3 23 105 24 
3 23 24 18 
3 23 18 19 
3 23 19 30 
3 23 30 31 
3 106 107 25 
3 106 25 17 
3 108 109 28 
3 108 28 22 
3 110 111 112 
3 110 112 29 
3 110 29 16 
3 110 16 113 
3 110 113 114 
3 110 114 115 
3 116 117 118 
3 116 118 119 
3 0 113 16 
3 0 16 2 
3 6 106 17 
3 6 17 120 
3 4 19 18 
3 4 18 121 
3 122 123 124 
3 122 124 125 
3 25 107 15 
3 25 15 9 
3 115 114 126 
3 115 126 11 
3 127 128 129 
3 127 129 13 
3 24 105 130 
3 24 130 131 
3 132 133 7 
3 132 7 1 
3 111 110 134 
3 111 134 3 
3 108 22 135 
3 108 135 5 
3 104 23 136 
3 104 136 137 
3 8 29 112 
3 8 112 10 
3 14 138 139 
3 14 139 140 
3 12 31 30 
3 12 30 141 
3 142 28 109 
3 142 109 143 
3 32 33 41 
3 32 41 40 
3 33 35 42 
3 33 42 41 
3 35 34 43 
3 35 43 42 
3 34 32 40 
3 34 40 43 
3 36 37 45 
3 36 45 44 
3 37 39 46 
3 37 46 45 
3 39 38 47 
3 39 47 46 
3 38 36 44 
3 38 44 47 
3 144 145 48 
3 144 48 49 
3 145 146 50 
3 145 50 48 
3 146 147 51 
3 146 51 50 
3 147 144 49 
3 147 49 51 
3 148 149 53 
3 148 53 52 
3 149 150 54 
3 149 54 53 
3 150 151 55 
3 150 55 54 
3 151 148 52 
3 151 52 55 
3 152 153 57 
3 152 57 56 
3 153 154 58 
3 153 58 57 
3 154 155 59 
3 154 59 58 
3 156 157 158 
3 156 158 159 
3 160 161 61 
3 160 61 60 
3 161 162 62 
3 161 62 61 
3 162 163 63 
3 162 63 62 
3 163 160 60 
3 163 60 63 
3 164 165 65 
3 164 65 64 
3 41 42 66 
3 41 66 166 
3 42 43 67 
3 42 67 66 
3 167 168 169 
3 167 169 170 
3 171 172 173 
3 171 173 174 
3 175 176 68 
3 175 68 177 
3 178 179 69 
3 178 69 180 
3 181 182 183 
3 181 183 184 
3 44 45 185 
3 44 185 186 
3 45 46 70 
3 45 70 185 
3 187 188 71 
3 187 71 189 
3 190 191 192 
3 190 192 193 
3 60 61 194 
3 60 194 195 
3 196 197 198 
3 196 198 199 
3 62 63 200 
3 62 200 201 
3 202 203 204 
3 202 204 205 
3 206 207 189 
3 206 189 65 
3 208 209 210 
3 208 210 211 
3 50 51 212 
3 50 212 213 
3 214 215 216 
3 214 216 217 
3 218 219 64 
3 218 64 71 
3 220 221 222 
3 220 222 223 
3 54 55 224 
3 54 224 225 
3 226 227 228 
3 226 228 229 
3 93 98 99 
3 93 99 92 
3 95 230 231 
3 95 231 96 
3 95 96 90 
3 95 90 91 
3 95 91 102 
3 95 102 103 
3 232 233 97 
3 232 97 89 
3 234 235 100 
3 234 100 94 
3 236 237 238 
3 236 238 101 
3 236 101 88 
3 236 88 239 
3 236 239 240 
3 236 240 241 
3 242 243 244 
3 242 244 245 
3 72 239 88 
3 72 88 74 
3 78 232 89 
3 78 89 246 
3 76 91 90 
3 76 90 247 
3 248 249 250 
3 248 250 251 
3 97 233 87 
3 97 87 81 
3 241 240 252 
3 241 252 83 
3 253 254 255 
3 253 255 85 
3 96 231 256 
3 96 256 257 
3 258 259 79 
3 258 79 73 
3 237 236 260 
3 237 260 75 
3 234 94 261 
3 234 261 77 
3 230 95 262 
3 230 262 263 
3 80 101 238 
3 80 238 82 
3 86 264 265 
3 86 265 266 
3 84 103 102 
3 84 102 267 
3 268 100 235 
3 268 235 269 
