ply
format ascii 1.0
comment VCGLIB generated
comment TextureFile SpaceInteriors_Texture.png
element vertex 82
property float x
property float y
property float z
property float nx
property float ny
property float nz
property uchar red
property uchar green
property uchar blue
property uchar alpha
property float texture_u
property float texture_v
element face 96
property list uchar int vertex_indices
end_header
-5 0 0 -1 -2 3 192 192 192 255 0.327371 0.062481
0 0 0 2 -1 3 192 192 192 255 0.327371 0.062481
-5 5 0 -2 1 3 192 192 192 255 0.327371 0.062481
0 5 0 1 2 3 192 192 192 255 0.327371 0.062481
-2.5 5 0 0 3 6 192 192 192 255 0.327371 0.062481
-2.5 0 0 0 -3 6 192 192 192 255 0.327371 0.062481
-5 2.5 0 -3 0 6 192 192 192 255 0.327371 0.062481
-2.5 2.5 0 0 0 12 192 192 192 255 0.327371 0.062481
0 2.5 0 3 0 6 192 192 192 255 0.327371 0.062481
-2.41667 2.58333 0 0 0 5 192 192 192 255 0.364026 0.063229
-0.083332 2.58333 0 0 0 4 192 192 192 255 0.364026 0.063229
-0.083332 4.91667 0 0 0 5 192 192 192 255 0.364026 0.063229
-2.41667 4.91667 0 0 0 4 192 192 192 255 0.364026 0.063229
-4.91667 2.58333 0 0 0 5 192 192 192 255 0.364026 0.063229
-2.58333 2.58333 0 0 0 4 192 192 192 255 0.364026 0.063229
-2.58333 4.91667 0 0 0 5 192 192 192 255 0.364026 0.063229
-4.91667 4.91667 0 0 0 4 192 192 192 255 0.364026 0.063229
-4.91667 0.083333 0 0 0 5 192 192 192 255 0.364026 0.063229
-2.58333 0.083333 0 0 0 4 192 192 192 255 0.364026 0.063229
-2.58333 2.41667 0 0 0 5 192 192 192 255 0.364026 0.063229
-4.91667 2.41667 0 0 0 4 192 192 192 255 0.364026 0.063229
-2.41667 0.083333 0 0 0 5 192 192 192 255 0.364026 0.063229
-0.083332 0.083333 0 0 0 4 192 192 192 255 0.364026 0.063229
-0.083332 2.41667 0 0 0 5 192 192 192 255 0.364026 0.063229
-2.41667 2.41667 0 0 0 4 192 192 192 255 0.364026 0.063229
-2.41667 2.58333 -0.294704 -4.23392e-013 1.65689e-006 -5 192 192 192 255 0.364026 0.063229
-0.083332 2.58333 -0.294704 -2.11696e-013 8.28446e-007 -4 192 192 192 255 0.364026 0.063229
-0.083332 4.91667 -0.294703 -4.23392e-013 1.65689e-006 -5 192 192 192 255 0.364026 0.063229
-2.41667 4.91667 -0.294703 -2.11696e-013 8.28446e-007 -4 192 192 192 255 0.364026 0.063229
-4.91667 2.58333 -0.294704 -4.23392e-013 1.65689e-006 -5 192 192 192 255 0.364026 0.063229
-2.58333 2.58333 -0.294704 -2.11696e-013 8.28446e-007 -4 192 192 192 255 0.364026 0.063229
-2.58333 4.91667 -0.294703 -4.23392e-013 1.65689e-006 -5 192 192 192 255 0.364026 0.063229
-4.91667 4.91667 -0.294703 -2.11696e-013 8.28446e-007 -4 192 192 192 255 0.364026 0.063229
-4.91667 0.083333 -0.294703 4.23392e-013 -1.65689e-006 -5 192 192 192 255 0.364026 0.063229
-2.58333 0.083333 -0.294703 2.46979e-013 -8.28446e-007 -4 192 192 192 255 0.364026 0.063229
-2.58333 2.41667 -0.294704 4.93957e-013 -1.65689e-006 -5 192 192 192 255 0.364026 0.063229
-4.91667 2.41667 -0.294704 2.11696e-013 -8.28446e-007 -4 192 192 192 255 0.364026 0.063229
-2.41667 0.083333 -0.294703 4.23392e-013 -1.65689e-006 -5 192 192 192 255 0.364026 0.063229
-0.083332 0.083333 -0.294703 2.46979e-013 -8.28446e-007 -4 192 192 192 255 0.364026 0.063229
-0.083332 2.41667 -0.294704 4.93958e-013 -1.65689e-006 -5 192 192 192 255 0.364026 0.063229
-2.41667 2.41667 -0.294704 2.11696e-013 -8.28446e-007 -4 192 192 192 255 0.364026 0.063229
-2.5 2.5 -0.294704 3.52827e-014 0 -12 192 192 192 255 0.327371 0.062481
0 2.5 -0.294704 3 4.06956e-007 -6 192 192 192 255 0.327371 0.062481
0 5 -0.294703 2 1 -3 192 192 192 255 0.327371 0.062481
-2.5 5 -0.294703 -6.35088e-013 3 -6 192 192 192 255 0.327371 0.062481
-5 2.5 -0.294704 -3 -4.06956e-007 -6 192 192 192 255 0.327371 0.062481
-5 5 -0.294703 -1 2 -3 192 192 192 255 0.327371 0.062481
-5 0 -0.294703 -2 -1 -3 192 192 192 255 0.327371 0.062481
-2.5 0 -0.294703 7.05653e-013 -3 -6 192 192 192 255 0.327371 0.062481
0 0 -0.294703 1 -2 -3 192 192 192 255 0.327371 0.062481
-2.41667 2.58333 -0.294704 -4.23392e-013 1.65689e-006 -5 192 192 192 255 0.327371 0.062481
-0.083332 2.58333 -0.294704 -2.11696e-013 8.28446e-007 -4 192 192 192 255 0.327371 0.062481
-0.083332 4.91667 -0.294703 -4.23392e-013 1.65689e-006 -5 192 192 192 255 0.327371 0.062481
-2.41667 4.91667 -0.294703 -2.11696e-013 8.28446e-007 -4 192 192 192 255 0.327371 0.062481
-4.91667 2.58333 -0.294704 -4.23392e-013 1.65689e-006 -5 192 192 192 255 0.327371 0.062481
-2.58333 2.58333 -0.294704 -2.11696e-013 8.28446e-007 -4 192 192 192 255 0.327371 0.062481
-2.58333 4.91667 -0.294703 -4.23392e-013 1.65689e-006 -5 192 192 192 255 0.327371 0.062481
-4.91667 4.91667 -0.294703 -2.11696e-013 8.28446e-007 -4 192 192 192 255 0.327371 0.062481
-4.91667 0.083333 -0.294703 4.23392e-013 -1.65689e-006 -5 192 192 192 255 0.327371 0.062481
-2.58333 0.083333 -0.294703 2.46979e-013 -8.28446e-007 -4 192 192 192 255 0.327371 0.062481
-2.58333 2.41667 -0.294704 4.93957e-013 -1.65689e-006 -5 192 192 192 255 0.327371 0.062481
-4.91667 2.41667 -0.294704 2.11696e-013 -8.28446e-007 -4 192 192 192 255 0.327371 0.062481
-2.41667 0.083333 -0.294703 4.23392e-013 -1.65689e-006 -5 192 192 192 255 0.327371 0.062481
-0.083332 0.083333 -0.294703 2.46979e-013 -8.28446e-007 -4 192 192 192 255 0.327371 0.062481
-0.083332 2.41667 -0.294704 4.93958e-013 -1.65689e-006 -5 192 192 192 255 0.327371 0.062481
-2.41667 2.41667 -0.294704 2.11696e-013 -8.28446e-007 -4 192 192 192 255 0.327371 0.062481
-0.083332 2.58333 0 0 0 4 192 192 192 255 0.327371 0.062481
-2.41667 2.58333 0 0 0 5 192 192 192 255 0.327371 0.062481
-0.083332 4.91667 0 0 0 5 192 192 192 255 0.327371 0.062481
-2.41667 4.91667 0 0 0 4 192 192 192 255 0.327371 0.062481
-2.58333 2.58333 0 0 0 4 192 192 192 255 0.327371 0.062481
-4.91667 2.58333 0 0 0 5 192 192 192 255 0.327371 0.062481
-2.58333 4.91667 0 0 0 5 192 192 192 255 0.327371 0.062481
-4.91667 4.91667 0 0 0 4 192 192 192 255 0.327371 0.062481
-2.58333 0.083333 0 0 0 4 192 192 192 255 0.327371 0.062481
-4.91667 0.083333 0 0 0 5 192 192 192 255 0.327371 0.062481
-2.58333 2.41667 0 0 0 5 192 192 192 255 0.327371 0.062481
-4.91667 2.41667 0 0 0 4 192 192 192 255 0.327371 0.062481
-0.083332 0.083333 0 0 0 4 192 192 192 255 0.327371 0.062481
-2.41667 0.083333 0 0 0 5 192 192 192 255 0.327371 0.062481
-0.083332 2.41667 0 0 0 5 192 192 192 255 0.327371 0.062481
-2.41667 2.41667 0 0 0 4 192 192 192 255 0.327371 0.062481
3 25 28 27 
3 25 27 26 
3 29 32 31 
3 29 31 30 
3 33 36 35 
3 33 35 34 
3 37 40 39 
3 37 39 38 
3 41 50 51 
3 41 51 42 
3 42 51 52 
3 42 52 43 
3 43 52 53 
3 43 53 44 
3 44 53 50 
3 44 50 41 
3 45 54 55 
3 45 55 41 
3 41 55 56 
3 41 56 44 
3 44 56 57 
3 44 57 46 
3 46 57 54 
3 46 54 45 
3 47 58 59 
3 47 59 48 
3 48 59 60 
3 48 60 41 
3 41 60 61 
3 41 61 45 
3 45 61 58 
3 45 58 47 
3 48 62 63 
3 48 63 49 
3 49 63 64 
3 49 64 42 
3 42 64 65 
3 42 65 41 
3 41 65 62 
3 41 62 48 
3 9 10 11 
3 9 11 12 
3 13 14 15 
3 13 15 16 
3 17 18 19 
3 17 19 20 
3 21 22 23 
3 21 23 24 
3 7 8 66 
3 7 66 67 
3 8 3 68 
3 8 68 66 
3 3 4 69 
3 3 69 68 
3 4 7 67 
3 4 67 69 
3 6 7 70 
3 6 70 71 
3 7 4 72 
3 7 72 70 
3 4 2 73 
3 4 73 72 
3 2 6 71 
3 2 71 73 
3 0 5 74 
3 0 74 75 
3 5 7 76 
3 5 76 74 
3 7 6 77 
3 7 77 76 
3 6 0 75 
3 6 75 77 
3 5 1 78 
3 5 78 79 
3 1 8 80 
3 1 80 78 
3 8 7 81 
3 8 81 80 
3 7 5 79 
3 7 79 81 
3 8 42 43 
3 8 43 3 
3 3 43 44 
3 3 44 4 
3 4 44 46 
3 4 46 2 
3 2 46 45 
3 2 45 6 
3 0 47 48 
3 0 48 5 
3 6 45 47 
3 6 47 0 
3 5 48 49 
3 5 49 1 
3 1 49 42 
3 1 42 8 
