ply
format ascii 1.0
comment VCGLIB generated
comment TextureFile SpaceInteriors_Texture.png
element vertex 66
property float x
property float y
property float z
property float nx
property float ny
property float nz
property uchar red
property uchar green
property uchar blue
property uchar alpha
property float texture_u
property float texture_v
element face 38
property list uchar int vertex_indices
end_header
0.347589 -0.018883 0.243515 0.420291 0 -0.90739 192 192 192 255 0.1736 0.088437
0.263482 -0.018883 0.407661 -0.840581 0 1.81478 192 192 192 255 0.1736 0.088437
9.73652 -0.018883 4.59234 0.840581 0 -1.81478 192 192 192 255 0.1736 0.088437
9.65241 -0.018883 4.75648 -0.420291 0 0.90739 192 192 192 255 0.1736 0.088437
9.73652 -0.21315 4.59234 0.420291 -2 -0.90739 192 192 192 255 0.205638 0.088437
9.65241 -0.21315 4.75648 -0.840581 -1 1.81478 192 192 192 255 0.205638 0.088437
0.347589 -0.21315 0.243515 0.840581 -1 -1.81478 192 192 192 255 0.205638 0.088437
0.263482 -0.21315 0.407661 -0.420291 -2 0.90739 192 192 192 255 0.205638 0.088437
9.65241 -0.213158 0.243515 -0.420291 -2 -0.90739 192 192 192 255 0.205638 0.088437
9.73652 -0.213158 0.407661 0.840581 -1 1.81478 192 192 192 255 0.205638 0.088437
0.263482 -0.213158 4.59234 -0.840581 -1 -1.81478 192 192 192 255 0.205638 0.088437
0.34759 -0.213158 4.75648 0.420291 -2 0.90739 192 192 192 255 0.205638 0.088437
0.263482 -0.01889 4.59234 -0.420291 0 -0.90739 192 192 192 255 0.1736 0.088437
0.34759 -0.01889 4.75648 0.840581 0 1.81478 192 192 192 255 0.1736 0.088437
9.65241 -0.01889 0.243515 -0.840581 0 -1.81478 192 192 192 255 0.1736 0.088437
9.73652 -0.01889 0.407661 0.420291 0 0.90739 192 192 192 255 0.1736 0.088437
10 0 0 0 -2 0 192 192 192 255 0.751734 0.503018
0 0 0 0 -1 0 192 192 192 255 0.502292 0.503018
10 0 5 0 -1 0 192 192 192 255 0.751734 0.504362
0 0 5 0 -2 0 192 192 192 255 0.502292 0.504362
0 -0.321823 0 -1 -3 -1 192 192 192 255 0.140619 0.088437
10 -0.321823 0 2 -3 -2 192 192 192 255 0.140619 0.088437
0 -0.321823 5 -2 -3 2 192 192 192 255 0.240504 0.088437
10 -0.321823 5 1 -3 1 192 192 192 255 0.240504 0.088437
0 0 5 -1 0 1 192 192 192 255 0.240504 0.088437
10 0 5 2 0 2 192 192 192 255 0.240504 0.088437
0 0 0 -2 0 -2 192 192 192 255 0.140619 0.088437
10 0 0 1 0 -1 192 192 192 255 0.140619 0.088437
0.305537 -0.321823 0.325584 1 -3 2 192 192 192 255 0.205638 0.088437
9.69446 -0.321823 0.325584 -2 -3 1 192 192 192 255 0.205638 0.088437
9.69446 -0.321823 4.67442 -1 -3 -2 192 192 192 255 0.205638 0.088437
0.305537 -0.321823 4.67442 2 -3 -1 192 192 192 255 0.205638 0.088437
0.305537 0 4.67442 1 0 -2 192 192 192 255 0.205638 0.088437
9.69446 0 4.67442 -2 0 -1 192 192 192 255 0.17592 0.088437
9.69446 0 0.325584 -1 0 2 192 192 192 255 0.237214 0.088437
0.305537 0 0.325584 2 0 1 192 192 192 255 0.237214 0.088437
0.263482 -0.21315 0.407661 -0.420291 -2 0.90739 192 192 192 255 0.1736 0.088437
9.65241 -0.21315 4.75648 -0.840581 -1 1.81478 192 192 192 255 0.1736 0.088437
0.347589 -0.21315 0.243515 0.840581 -1 -1.81478 192 192 192 255 0.1736 0.088437
9.73652 -0.21315 4.59234 0.420291 -2 -0.90739 192 192 192 255 0.1736 0.088437
9.73652 -0.213158 0.407661 0.840581 -1 1.81478 192 192 192 255 0.1736 0.088437
0.34759 -0.213158 4.75648 0.420291 -2 0.90739 192 192 192 255 0.1736 0.088437
9.65241 -0.213158 0.243515 -0.420291 -2 -0.90739 192 192 192 255 0.1736 0.088437
0.263482 -0.213158 4.59234 -0.840581 -1 -1.81478 192 192 192 255 0.1736 0.088437
10 -0.321823 0 2 -3 -2 192 192 192 255 0.1736 0.088437
10 0 0 1 0 -1 192 192 192 255 0.1736 0.088437
10 0 5 2 0 2 192 192 192 255 0.1736 0.088437
10 -0.321823 5 1 -3 1 192 192 192 255 0.1736 0.088437
0 0 0 -2 0 -2 192 192 192 255 0.1736 0.088437
0 -0.321823 0 -1 -3 -1 192 192 192 255 0.1736 0.088437
0 -0.321823 5 -2 -3 2 192 192 192 255 0.1736 0.088437
0 0 5 -1 0 1 192 192 192 255 0.1736 0.088437
0 -0.321823 0 -1 -3 -1 192 192 192 255 0.205638 0.088437
10 -0.321823 0 2 -3 -2 192 192 192 255 0.205638 0.088437
10 -0.321823 5 1 -3 1 192 192 192 255 0.205638 0.088437
0 -0.321823 5 -2 -3 2 192 192 192 255 0.205638 0.088437
0.305537 -0.321823 0.325584 1 -3 2 192 192 192 255 0.237214 0.088437
9.69446 -0.321823 0.325584 -2 -3 1 192 192 192 255 0.237214 0.088437
9.69446 -0.321823 0.325584 -2 -3 1 192 192 192 255 0.17592 0.088437
9.69446 -0.321823 4.67442 -1 -3 -2 192 192 192 255 0.17592 0.088437
9.69446 0 0.325584 -1 0 2 192 192 192 255 0.17592 0.088437
9.69446 0 4.67442 -2 0 -1 192 192 192 255 0.205638 0.088437
0.305537 -0.321823 4.67442 2 -3 -1 192 192 192 255 0.17592 0.088437
0.305537 -0.321823 0.325584 1 -3 2 192 192 192 255 0.17592 0.088437
0.305537 0 0.325584 2 0 1 192 192 192 255 0.17592 0.088437
0.305537 0 4.67442 1 0 -2 192 192 192 255 0.17592 0.088437
3 4 5 7 
3 4 7 6 
3 1 36 37 
3 1 37 3 
3 38 0 2 
3 38 2 39 
3 8 9 11 
3 8 11 10 
3 40 15 13 
3 40 13 41 
3 14 42 43 
3 14 43 12 
3 19 17 16 
3 19 16 18 
3 22 23 25 
3 22 25 24 
3 26 27 21 
3 26 21 20 
3 44 45 46 
3 44 46 47 
3 48 49 50 
3 48 50 51 
3 52 53 29 
3 52 29 28 
3 53 54 30 
3 53 30 29 
3 54 55 31 
3 54 31 30 
3 55 52 28 
3 55 28 31 
3 56 57 34 
3 56 34 35 
3 58 59 33 
3 58 33 60 
3 30 31 32 
3 30 32 61 
3 62 63 64 
3 62 64 65 
