ply
format ascii 1.0
comment VCGLIB generated
comment TextureFile SpaceInteriors_Texture.png
element vertex 356
property float x
property float y
property float z
property float nx
property float ny
property float nz
property uchar red
property uchar green
property uchar blue
property uchar alpha
property float texture_u
property float texture_v
element face 222
property list uchar int vertex_indices
end_header
-5 0 1.25 6.13128e-007 2.12132 2.12132 192 192 192 255 0.300119 0.063433
0 0 1.25 -1.21183e-006 2.12132 2.12132 192 192 192 255 0.300119 0.063433
-5 5 1.25 -1.82475e-007 -2.12131 2.12133 192 192 192 255 0.300119 0.063433
0 5 1.25 9.79133e-008 -2.12129 2.12135 192 192 192 255 0.300119 0.063433
-5 3.75 0 -9.12374e-008 -2.12129 5.12135 192 192 192 255 0.300119 0.063433
0 3.75 0 1.95827e-007 -2.12131 5.12133 192 192 192 255 0.300119 0.063433
-5 1.25 0 1.22626e-006 2.12132 5.12132 192 192 192 255 0.58788 0.592067
0 1.25 0 -6.05915e-007 2.12132 5.12133 192 192 192 255 0.74933 0.592067
-0.733047 0.356813 1.20057 -3 -1.0001 1.99989 192 192 192 255 0.200168 0.219525
-0.646828 0.356813 1.20057 3 -2 1 192 192 192 255 0.244197 0.219525
-0.733047 4.64255 1.20057 -3 2 1 192 192 192 255 0.300052 0.219525
-0.646828 4.64255 1.20057 3 1 2 192 192 192 255 0.300052 0.219525
-0.733047 4.55414 1.11435 -3 -1 0 192 192 192 255 0.198113 0.219525
-0.646828 4.55414 1.11435 3 -2 0 192 192 192 255 0.240032 0.219525
-0.733047 0.445222 1.11435 -4 1.31184 -0.725832 192 192 192 255 0.29711 0.219525
-0.646828 0.445222 1.11435 3 -0.375996 -1.45129 192 192 192 255 0.29711 0.219525
-0.733047 4.64255 0.976231 -2 1 3 192 192 192 255 0.300052 0.219525
-0.646828 4.64255 0.976231 1 2 3 192 192 192 255 0.300052 0.219525
-0.646828 4.55414 0.976231 2 -1 3 192 192 192 255 0.240032 0.219525
-0.733047 4.55414 0.976231 -1 -2 3 192 192 192 255 0.198113 0.219525
-0.733047 0.445222 0.976231 -2 0.999932 2.99993 192 192 192 255 0.29711 0.219525
-0.646828 0.445222 0.976231 2 2 3 192 192 192 255 0.29711 0.219525
-0.646828 0.356813 0.976231 1 -1 3 192 192 192 255 0.244197 0.219525
-0.733047 0.356813 0.976231 -1 -2.00003 2.99997 192 192 192 255 0.200168 0.219525
-0.760895 4.6711 0.976231 -1 2 3 192 192 192 255 0.202727 0.220055
-0.618988 4.6711 0.976231 2 1 3 192 192 192 255 0.202727 0.220055
-0.618988 4.52559 0.976231 1 -2 3 192 192 192 255 0.202727 0.220055
-0.760895 4.52559 0.976231 -2 -1 3 192 192 192 255 0.202727 0.220055
-0.760895 0.473775 0.976231 -1 2 3 192 192 192 255 0.200573 0.220055
-0.61898 0.473775 0.976231 2 1 3 192 192 192 255 0.200573 0.220055
-0.61898 0.32826 0.976231 1 -2 3 192 192 192 255 0.200573 0.220055
-0.760895 0.32826 0.976231 -2 -1 3 192 192 192 255 0.200573 0.220055
-0.760895 4.6711 0.917461 -2 1 0 192 192 192 255 0.236948 0.220055
-0.618988 4.6711 0.917461 1 2 0 192 192 192 255 0.236948 0.220055
-0.618988 4.52559 0.752975 2 -1 0 192 192 192 255 0.174121 0.220055
-0.760895 4.52559 0.752975 -1 -2 0 192 192 192 255 0.148284 0.220055
-0.760895 0.473775 0.752975 -2 1 0 192 192 192 255 0.234795 0.220055
-0.61898 0.473775 0.752975 1 2 0 192 192 192 255 0.234795 0.220055
-0.61898 0.32826 0.917461 2 -1 0 192 192 192 255 0.171967 0.220055
-0.760895 0.32826 0.917461 -1 -2 0 192 192 192 255 0.146131 0.220055
-0.733047 1.25 0.35133 -3 -1.37609 -2.4514 192 192 192 255 0.234965 0.219525
-0.733047 1.28541 0.437553 -3 0.672231 2.7402 192 192 192 255 0.234965 0.219525
-0.646835 1.28541 0.437553 3 1.34466 2.48072 192 192 192 255 0.234965 0.219525
-0.646828 1.25 0.35133 3 -0.687902 -2.7255 192 192 192 255 0.234965 0.219525
-0.733047 3.7146 0.437553 -3 -1.34515 2.48006 192 192 192 255 0.234965 0.219525
-0.733047 3.75 0.35133 -3 0.688316 -2.72541 192 192 192 255 0.234965 0.219525
-0.646835 3.75 0.35133 3 1.37663 -2.45074 192 192 192 255 0.234965 0.219525
-0.646835 3.7146 0.437553 3 -0.672587 2.74007 192 192 192 255 0.234965 0.219525
-0.646828 4.55414 1.20057 3 -1.34516 2.48006 192 192 192 255 0.233148 0.219525
-0.733047 4.55414 1.20057 -3 -0.672574 2.74003 192 192 192 255 0.233148 0.219525
-0.733047 4.55414 1.11435 -3 1.37663 -1.45082 192 192 192 255 0.233148 0.219525
-0.646828 4.55414 1.11435 3 0.688302 -0.725414 192 192 192 255 0.267261 0.219525
-0.733055 0.445222 1.20057 -2 1.34452 2.48049 192 192 192 255 0.233148 0.219525
-0.646835 0.445222 1.20057 3 0.672423 2.74042 192 192 192 255 0.233148 0.219525
-4.35317 0.356813 1.20057 -3 -1 2 192 192 192 255 0.200168 0.219525
-4.26694 0.356813 1.20057 3 -2 1 192 192 192 255 0.244197 0.219525
-4.35317 4.64255 1.20057 -3 2 1 192 192 192 255 0.300052 0.219525
-4.26694 4.64255 1.20057 3 1 2 192 192 192 255 0.300052 0.219525
-4.35317 4.55414 1.11435 -3 -1 0 192 192 192 255 0.198113 0.219525
-4.26694 4.55414 1.11435 3 -2 0 192 192 192 255 0.240032 0.219525
-4.35317 0.445222 1.11435 -4 1.31197 -0.725682 192 192 192 255 0.29711 0.219525
-4.26694 0.445222 1.11435 3 -0.376061 -1.45136 192 192 192 255 0.29711 0.219525
-4.35317 4.64255 0.976231 -2 1 3 192 192 192 255 0.300052 0.219525
-4.26694 4.64255 0.976231 1 2 3 192 192 192 255 0.300052 0.219525
-4.26694 4.55414 0.976231 2 -1 3 192 192 192 255 0.240032 0.219525
-4.35317 4.55414 0.976231 -1 -2 3 192 192 192 255 0.198113 0.219525
-4.35317 0.445222 0.976231 -2 1 3 192 192 192 255 0.29711 0.219525
-4.26694 0.445222 0.976231 2 2 3 192 192 192 255 0.29711 0.219525
-4.26694 0.356813 0.976231 1 -1 3 192 192 192 255 0.244197 0.219525
-4.35317 0.356813 0.976231 -1 -2 3 192 192 192 255 0.200168 0.219525
-4.38101 4.6711 0.976231 -1 2 3 192 192 192 255 0.202727 0.220055
-4.2391 4.6711 0.976231 2 1 3 192 192 192 255 0.202727 0.220055
-4.2391 4.52559 0.976231 1 -2 3 192 192 192 255 0.202727 0.220055
-4.38101 4.52559 0.976231 -2 -1 3 192 192 192 255 0.202727 0.220055
-4.38101 0.473775 0.976231 -1 2 3 192 192 192 255 0.200573 0.220055
-4.2391 0.473775 0.976231 2 1 3 192 192 192 255 0.200573 0.220055
-4.2391 0.32826 0.976231 1 -2 3 192 192 192 255 0.200573 0.220055
-4.38101 0.32826 0.976231 -2 -1 3 192 192 192 255 0.200573 0.220055
-4.38101 4.6711 0.917461 -2 1 0 192 192 192 255 0.236948 0.220055
-4.2391 4.6711 0.917461 1 2 0 192 192 192 255 0.236948 0.220055
-4.2391 4.52559 0.752975 2 -1 0 192 192 192 255 0.174121 0.220055
-4.38101 4.52559 0.752975 -1 -2 0 192 192 192 255 0.148284 0.220055
-4.38101 0.473775 0.752975 -2 1 0 192 192 192 255 0.234795 0.220055
-4.2391 0.473775 0.752975 1 2 0 192 192 192 255 0.234795 0.220055
-4.2391 0.32826 0.917461 2 -1 0 192 192 192 255 0.171967 0.220055
-4.38101 0.32826 0.917461 -1 -2 0 192 192 192 255 0.146131 0.220055
-4.35317 1.25 0.35133 -3 -1.37606 -2.45136 192 192 192 255 0.234965 0.219525
-4.35317 1.28541 0.437553 -3 0.672295 2.74028 192 192 192 255 0.234965 0.219525
-4.26694 1.28541 0.437553 3 1.34459 2.48057 192 192 192 255 0.234965 0.219525
-4.26694 1.25 0.35133 3 -0.688031 -2.72568 192 192 192 255 0.234965 0.219525
-4.35317 3.7146 0.437553 -3 -1.34515 2.48006 192 192 192 255 0.234965 0.219525
-4.35317 3.75 0.35133 -3 0.688317 -2.72541 192 192 192 255 0.234965 0.219525
-4.26694 3.75 0.35133 3 1.37663 -2.45082 192 192 192 255 0.234965 0.219525
-4.26694 3.7146 0.437553 3 -0.672574 2.74003 192 192 192 255 0.234965 0.219525
-4.26694 4.55414 1.20057 3 -1.34515 2.48006 192 192 192 255 0.233148 0.219525
-4.35317 4.55414 1.20057 -3 -0.672574 2.74003 192 192 192 255 0.233148 0.219525
-4.35317 4.55414 1.11435 -3 1.37663 -1.45082 192 192 192 255 0.233148 0.219525
-4.26694 4.55414 1.11435 3 0.688317 -0.725411 192 192 192 255 0.267261 0.219525
-4.35317 0.445222 1.20057 -2 1.34459 2.48057 192 192 192 255 0.233148 0.219525
-4.26694 0.445222 1.20057 3 0.672295 2.74028 192 192 192 255 0.233148 0.219525
-3.97644 4.90649 1.15649 -2 -1.41419 2.82846 192 192 192 255 0.300119 0.063433
-1.02356 4.90649 1.15649 1 -0.707108 3.53556 192 192 192 255 0.300119 0.063433
-3.97644 3.84351 0.093506 -1 -3.5355 0.707096 192 192 192 255 0.300119 0.063433
-1.02356 3.84351 0.093506 2 -2.82839 1.41423 192 192 192 255 0.300119 0.063433
-1.02356 1.58382 0 2 -1 3 192 192 192 255 0.716279 0.602868
-1.02356 3.41618 0 1 2 3 192 192 192 255 0.716279 0.66216
-3.97644 3.41618 0 -2 1 3 192 192 192 255 0.620931 0.66216
-3.97644 1.58382 0 -1 -2 3 192 192 192 255 0.620931 0.602868
-3.29016 0.854314 0.395683 -2 2.82842 1.41421 192 192 192 255 0.300119 0.063433
-1.70984 0.854314 0.395683 0.999999 3.53552 0.707101 192 192 192 255 0.300119 0.063433
-3.29016 0.395687 0.854313 -0.999999 0.707124 3.53555 192 192 192 255 0.300119 0.063433
-1.70984 0.395687 0.854313 2 1.41422 2.82843 192 192 192 255 0.300119 0.063433
-3.97644 4.81635 1.24663 -1 0.707091 2.12133 192 192 192 255 0.508606 0.993098
-1.02356 4.81635 1.24663 2 -0.707118 2.12132 192 192 192 255 0.751388 0.993098
-3.97644 3.75337 0.183647 -2 -2.12131 0.707091 192 192 192 255 0.508606 0.881208
-1.02356 3.75337 0.183647 1 -2.1213 -0.707132 192 192 192 255 0.751388 0.881208
-1.02356 1.58382 0.12748 1 -2 2 192 192 192 255 0.992393 0.705621
-1.02356 3.41618 0.12748 2 1 1 192 192 192 255 0.992393 0.872878
-3.97644 3.41618 0.12748 -1 2 2 192 192 192 255 0.749611 0.872878
-3.97644 1.58382 0.12748 -2 -1 1 192 192 192 255 0.749611 0.705621
-3.29016 0.944457 0.485825 -1 2.12131 -0.707116 192 192 192 255 0.749611 0.991096
-1.70984 0.944457 0.485825 2 2.12132 0.7071 192 192 192 255 0.992393 0.991096
-3.29016 0.48583 0.944454 -2 0.707118 2.12133 192 192 192 255 0.749611 0.952027
-1.70984 0.48583 0.944454 1 -0.707089 2.12133 192 192 192 255 0.992393 0.952027
-0.646835 1.28541 0.437553 3 1.34466 2.48072 192 192 192 255 0.200852 0.219525
-0.646828 1.25 0.35133 3 -0.687902 -2.7255 192 192 192 255 0.200852 0.219525
-0.646835 3.75 0.35133 3 1.37663 -2.45074 192 192 192 255 0.200852 0.219525
-0.646835 3.7146 0.437553 3 -0.672587 2.74007 192 192 192 255 0.200852 0.219525
-0.733047 1.25 0.35133 -3 -1.37609 -2.4514 192 192 192 255 0.200852 0.219525
-0.733047 1.28541 0.437553 -3 0.672231 2.7402 192 192 192 255 0.200852 0.219525
-0.733047 3.7146 0.437553 -3 -1.34515 2.48006 192 192 192 255 0.200852 0.219525
-0.733047 3.75 0.35133 -3 0.688316 -2.72541 192 192 192 255 0.200852 0.219525
-0.646828 4.64255 1.20057 3 1 2 192 192 192 255 0.240032 0.219525
-0.646828 4.64255 0.976231 1 2 3 192 192 192 255 0.240032 0.219525
-0.646828 4.55414 1.11435 3 -2 0 192 192 192 255 0.198113 0.219525
-0.646828 4.55414 0.976231 2 -1 3 192 192 192 255 0.198113 0.219525
-0.733047 4.55414 1.11435 -3 -1 0 192 192 192 255 0.240032 0.219525
-0.733047 4.64255 1.20057 -3 2 1 192 192 192 255 0.240032 0.219525
-0.733047 4.64255 0.976231 -2 1 3 192 192 192 255 0.240032 0.219525
-0.733047 4.55414 0.976231 -1 -2 3 192 192 192 255 0.240032 0.219525
-0.646828 0.445222 0.976231 2 2 3 192 192 192 255 0.244197 0.219525
-0.646828 0.445222 1.11435 3 -0.375996 -1.45129 192 192 192 255 0.233148 0.219525
-0.646828 0.356813 1.20057 3 -2 1 192 192 192 255 0.200168 0.219525
-0.646828 0.356813 0.976231 1 -1 3 192 192 192 255 0.200168 0.219525
-0.733047 4.64255 0.976231 -2 1 3 192 192 192 255 0.202727 0.220055
-0.646828 4.64255 0.976231 1 2 3 192 192 192 255 0.202727 0.220055
-0.646828 4.55414 0.976231 2 -1 3 192 192 192 255 0.202727 0.220055
-0.733047 4.55414 0.976231 -1 -2 3 192 192 192 255 0.202727 0.220055
-0.733047 0.445222 0.976231 -2 0.999932 2.99993 192 192 192 255 0.200573 0.220055
-0.646828 0.445222 0.976231 2 2 3 192 192 192 255 0.200573 0.220055
-0.646828 0.356813 0.976231 1 -1 3 192 192 192 255 0.200573 0.220055
-0.733047 0.356813 0.976231 -1 -2.00003 2.99997 192 192 192 255 0.200573 0.220055
-0.760895 4.6711 0.976231 -1 2 3 192 192 192 255 0.236948 0.220055
-0.618988 4.6711 0.976231 2 1 3 192 192 192 255 0.236948 0.220055
-0.618988 4.6711 0.976231 2 1 3 192 192 192 255 0.174121 0.220055
-0.618988 4.52559 0.976231 1 -2 3 192 192 192 255 0.174121 0.220055
-0.618988 4.6711 0.917461 1 2 0 192 192 192 255 0.174121 0.220055
-0.618988 4.52559 0.976231 1 -2 3 192 192 192 255 0.148284 0.220055
-0.760895 4.52559 0.976231 -2 -1 3 192 192 192 255 0.148284 0.220055
-0.618988 4.52559 0.752975 2 -1 0 192 192 192 255 0.148284 0.220055
-0.760895 4.52559 0.976231 -2 -1 3 192 192 192 255 0.174121 0.220055
-0.760895 4.6711 0.976231 -1 2 3 192 192 192 255 0.174121 0.220055
-0.760895 4.6711 0.917461 -2 1 0 192 192 192 255 0.174121 0.220055
-0.760895 4.52559 0.752975 -1 -2 0 192 192 192 255 0.174121 0.220055
-0.760895 0.473775 0.976231 -1 2 3 192 192 192 255 0.234795 0.220055
-0.61898 0.473775 0.976231 2 1 3 192 192 192 255 0.234795 0.220055
-0.61898 0.473775 0.976231 2 1 3 192 192 192 255 0.171967 0.220055
-0.61898 0.32826 0.976231 1 -2 3 192 192 192 255 0.171967 0.220055
-0.61898 0.473775 0.752975 1 2 0 192 192 192 255 0.171967 0.220055
-0.61898 0.32826 0.976231 1 -2 3 192 192 192 255 0.146131 0.220055
-0.760895 0.32826 0.976231 -2 -1 3 192 192 192 255 0.146131 0.220055
-0.61898 0.32826 0.917461 2 -1 0 192 192 192 255 0.146131 0.220055
-0.760895 0.32826 0.976231 -2 -1 3 192 192 192 255 0.171967 0.220055
-0.760895 0.473775 0.976231 -1 2 3 192 192 192 255 0.171967 0.220055
-0.760895 0.473775 0.752975 -2 1 0 192 192 192 255 0.171967 0.220055
-0.760895 0.32826 0.917461 -1 -2 0 192 192 192 255 0.171967 0.220055
-0.733047 0.445222 1.11435 -4 1.31184 -0.725832 192 192 192 255 0.238673 0.219525
-0.733047 1.28541 0.437553 -3 0.672231 2.7402 192 192 192 255 0.233148 0.219525
-0.733047 1.25 0.35133 -3 -1.37609 -2.4514 192 192 192 255 0.233148 0.219525
-0.733055 0.445222 1.20057 -2 1.34452 2.48049 192 192 192 255 0.267261 0.219525
-0.646835 0.445222 1.20057 3 0.672423 2.74042 192 192 192 255 0.267261 0.219525
-0.646835 1.28541 0.437553 3 1.34466 2.48072 192 192 192 255 0.267261 0.219525
-0.733047 1.28541 0.437553 -3 0.672231 2.7402 192 192 192 255 0.267261 0.219525
-0.646828 1.25 0.35133 3 -0.687902 -2.7255 192 192 192 255 0.233148 0.219525
-0.646835 1.28541 0.437553 3 1.34466 2.48072 192 192 192 255 0.233148 0.219525
-0.733047 1.25 0.35133 -3 -1.37609 -2.4514 192 192 192 255 0.267261 0.219525
-0.646828 1.25 0.35133 3 -0.687902 -2.7255 192 192 192 255 0.267261 0.219525
-0.646828 0.445222 1.11435 3 -0.375996 -1.45129 192 192 192 255 0.267261 0.219525
-0.733047 0.445222 1.11435 -4 1.31184 -0.725832 192 192 192 255 0.267261 0.219525
-0.733047 3.75 0.35133 -3 0.688316 -2.72541 192 192 192 255 0.233148 0.219525
-0.733047 3.7146 0.437553 -3 -1.34515 2.48006 192 192 192 255 0.233148 0.219525
-0.733047 4.55414 1.11435 -3 1.37663 -1.45082 192 192 192 255 0.267261 0.219525
-0.646835 3.75 0.35133 3 1.37663 -2.45074 192 192 192 255 0.267261 0.219525
-0.733047 3.75 0.35133 -3 0.688316 -2.72541 192 192 192 255 0.267261 0.219525
-0.646835 3.7146 0.437553 3 -0.672587 2.74007 192 192 192 255 0.233148 0.219525
-0.646835 3.75 0.35133 3 1.37663 -2.45074 192 192 192 255 0.233148 0.219525
-0.646828 4.55414 1.11435 3 0.688302 -0.725414 192 192 192 255 0.233148 0.219525
-0.733047 3.7146 0.437553 -3 -1.34515 2.48006 192 192 192 255 0.267261 0.219525
-0.646835 3.7146 0.437553 3 -0.672587 2.74007 192 192 192 255 0.267261 0.219525
-0.646828 4.55414 1.20057 3 -1.34516 2.48006 192 192 192 255 0.267261 0.219525
-0.733047 4.55414 1.20057 -3 -0.672574 2.74003 192 192 192 255 0.267261 0.219525
-0.646828 4.64255 1.20057 3 1 2 192 192 192 255 0.267261 0.219525
-0.733047 4.64255 1.20057 -3 2 1 192 192 192 255 0.267261 0.219525
-0.733047 4.64255 1.20057 -3 2 1 192 192 192 255 0.233148 0.219525
-0.733047 4.55414 1.11435 -3 -1 0 192 192 192 255 0.233148 0.219525
-0.733047 4.55414 1.11435 -3 -1 0 192 192 192 255 0.267261 0.219525
-0.646828 4.55414 1.11435 3 -2 0 192 192 192 255 0.267261 0.219525
-0.646828 4.55414 1.11435 3 -2 0 192 192 192 255 0.233148 0.219525
-0.646828 4.64255 1.20057 3 1 2 192 192 192 255 0.233148 0.219525
-0.733047 0.356813 1.20057 -3 -1.0001 1.99989 192 192 192 255 0.267261 0.219525
-0.646828 0.356813 1.20057 3 -2 1 192 192 192 255 0.267261 0.219525
-0.733047 0.356813 1.20057 -3 -1.0001 1.99989 192 192 192 255 0.233148 0.219525
-0.733047 0.445222 0.976231 -2 0.999932 2.99993 192 192 192 255 0.244197 0.219525
-0.733047 0.356813 0.976231 -1 -2.00003 2.99997 192 192 192 255 0.244197 0.219525
-4.26694 1.28541 0.437553 3 1.34459 2.48057 192 192 192 255 0.200852 0.219525
-4.26694 1.25 0.35133 3 -0.688031 -2.72568 192 192 192 255 0.200852 0.219525
-4.26694 3.75 0.35133 3 1.37663 -2.45082 192 192 192 255 0.200852 0.219525
-4.26694 3.7146 0.437553 3 -0.672574 2.74003 192 192 192 255 0.200852 0.219525
-4.35317 1.25 0.35133 -3 -1.37606 -2.45136 192 192 192 255 0.200852 0.219525
-4.35317 1.28541 0.437553 -3 0.672295 2.74028 192 192 192 255 0.200852 0.219525
-4.35317 3.7146 0.437553 -3 -1.34515 2.48006 192 192 192 255 0.200852 0.219525
-4.35317 3.75 0.35133 -3 0.688317 -2.72541 192 192 192 255 0.200852 0.219525
-4.26694 4.64255 1.20057 3 1 2 192 192 192 255 0.240032 0.219525
-4.26694 4.64255 0.976231 1 2 3 192 192 192 255 0.240032 0.219525
-4.26694 4.55414 1.11435 3 -2 0 192 192 192 255 0.198113 0.219525
-4.26694 4.55414 0.976231 2 -1 3 192 192 192 255 0.198113 0.219525
-4.35317 4.55414 1.11435 -3 -1 0 192 192 192 255 0.240032 0.219525
-4.35317 4.64255 1.20057 -3 2 1 192 192 192 255 0.240032 0.219525
-4.35317 4.64255 0.976231 -2 1 3 192 192 192 255 0.240032 0.219525
-4.35317 4.55414 0.976231 -1 -2 3 192 192 192 255 0.240032 0.219525
-4.26694 0.445222 0.976231 2 2 3 192 192 192 255 0.244197 0.219525
-4.26694 0.445222 1.11435 3 -0.376061 -1.45136 192 192 192 255 0.233148 0.219525
-4.26694 0.356813 1.20057 3 -2 1 192 192 192 255 0.200168 0.219525
-4.26694 0.356813 0.976231 1 -1 3 192 192 192 255 0.200168 0.219525
-4.35317 4.64255 0.976231 -2 1 3 192 192 192 255 0.202727 0.220055
-4.26694 4.64255 0.976231 1 2 3 192 192 192 255 0.202727 0.220055
-4.26694 4.55414 0.976231 2 -1 3 192 192 192 255 0.202727 0.220055
-4.35317 4.55414 0.976231 -1 -2 3 192 192 192 255 0.202727 0.220055
-4.35317 0.445222 0.976231 -2 1 3 192 192 192 255 0.200573 0.220055
-4.26694 0.445222 0.976231 2 2 3 192 192 192 255 0.200573 0.220055
-4.26694 0.356813 0.976231 1 -1 3 192 192 192 255 0.200573 0.220055
-4.35317 0.356813 0.976231 -1 -2 3 192 192 192 255 0.200573 0.220055
-4.38101 4.6711 0.976231 -1 2 3 192 192 192 255 0.236948 0.220055
-4.2391 4.6711 0.976231 2 1 3 192 192 192 255 0.236948 0.220055
-4.2391 4.6711 0.976231 2 1 3 192 192 192 255 0.174121 0.220055
-4.2391 4.52559 0.976231 1 -2 3 192 192 192 255 0.174121 0.220055
-4.2391 4.6711 0.917461 1 2 0 192 192 192 255 0.174121 0.220055
-4.2391 4.52559 0.976231 1 -2 3 192 192 192 255 0.148284 0.220055
-4.38101 4.52559 0.976231 -2 -1 3 192 192 192 255 0.148284 0.220055
-4.2391 4.52559 0.752975 2 -1 0 192 192 192 255 0.148284 0.220055
-4.38101 4.52559 0.976231 -2 -1 3 192 192 192 255 0.174121 0.220055
-4.38101 4.6711 0.976231 -1 2 3 192 192 192 255 0.174121 0.220055
-4.38101 4.6711 0.917461 -2 1 0 192 192 192 255 0.174121 0.220055
-4.38101 4.52559 0.752975 -1 -2 0 192 192 192 255 0.174121 0.220055
-4.38101 0.473775 0.976231 -1 2 3 192 192 192 255 0.234795 0.220055
-4.2391 0.473775 0.976231 2 1 3 192 192 192 255 0.234795 0.220055
-4.2391 0.473775 0.976231 2 1 3 192 192 192 255 0.171967 0.220055
-4.2391 0.32826 0.976231 1 -2 3 192 192 192 255 0.171967 0.220055
-4.2391 0.473775 0.752975 1 2 0 192 192 192 255 0.171967 0.220055
-4.2391 0.32826 0.976231 1 -2 3 192 192 192 255 0.146131 0.220055
-4.38101 0.32826 0.976231 -2 -1 3 192 192 192 255 0.146131 0.220055
-4.2391 0.32826 0.917461 2 -1 0 192 192 192 255 0.146131 0.220055
-4.38101 0.32826 0.976231 -2 -1 3 192 192 192 255 0.171967 0.220055
-4.38101 0.473775 0.976231 -1 2 3 192 192 192 255 0.171967 0.220055
-4.38101 0.473775 0.752975 -2 1 0 192 192 192 255 0.171967 0.220055
-4.38101 0.32826 0.917461 -1 -2 0 192 192 192 255 0.171967 0.220055
-4.35317 0.445222 1.11435 -4 1.31197 -0.725682 192 192 192 255 0.238673 0.219525
-4.35317 1.28541 0.437553 -3 0.672295 2.74028 192 192 192 255 0.233148 0.219525
-4.35317 1.25 0.35133 -3 -1.37606 -2.45136 192 192 192 255 0.233148 0.219525
-4.35317 0.445222 1.20057 -2 1.34459 2.48057 192 192 192 255 0.267261 0.219525
-4.26694 0.445222 1.20057 3 0.672295 2.74028 192 192 192 255 0.267261 0.219525
-4.26694 1.28541 0.437553 3 1.34459 2.48057 192 192 192 255 0.267261 0.219525
-4.35317 1.28541 0.437553 -3 0.672295 2.74028 192 192 192 255 0.267261 0.219525
-4.26694 1.25 0.35133 3 -0.688031 -2.72568 192 192 192 255 0.233148 0.219525
-4.26694 1.28541 0.437553 3 1.34459 2.48057 192 192 192 255 0.233148 0.219525
-4.35317 1.25 0.35133 -3 -1.37606 -2.45136 192 192 192 255 0.267261 0.219525
-4.26694 1.25 0.35133 3 -0.688031 -2.72568 192 192 192 255 0.267261 0.219525
-4.26694 0.445222 1.11435 3 -0.376061 -1.45136 192 192 192 255 0.267261 0.219525
-4.35317 0.445222 1.11435 -4 1.31197 -0.725682 192 192 192 255 0.267261 0.219525
-4.35317 3.75 0.35133 -3 0.688317 -2.72541 192 192 192 255 0.233148 0.219525
-4.35317 3.7146 0.437553 -3 -1.34515 2.48006 192 192 192 255 0.233148 0.219525
-4.35317 4.55414 1.11435 -3 1.37663 -1.45082 192 192 192 255 0.267261 0.219525
-4.26694 3.75 0.35133 3 1.37663 -2.45082 192 192 192 255 0.267261 0.219525
-4.35317 3.75 0.35133 -3 0.688317 -2.72541 192 192 192 255 0.267261 0.219525
-4.26694 3.7146 0.437553 3 -0.672574 2.74003 192 192 192 255 0.233148 0.219525
-4.26694 3.75 0.35133 3 1.37663 -2.45082 192 192 192 255 0.233148 0.219525
-4.26694 4.55414 1.11435 3 0.688317 -0.725411 192 192 192 255 0.233148 0.219525
-4.35317 3.7146 0.437553 -3 -1.34515 2.48006 192 192 192 255 0.267261 0.219525
-4.26694 3.7146 0.437553 3 -0.672574 2.74003 192 192 192 255 0.267261 0.219525
-4.26694 4.55414 1.20057 3 -1.34515 2.48006 192 192 192 255 0.267261 0.219525
-4.35317 4.55414 1.20057 -3 -0.672574 2.74003 192 192 192 255 0.267261 0.219525
-4.26694 4.64255 1.20057 3 1 2 192 192 192 255 0.267261 0.219525
-4.35317 4.64255 1.20057 -3 2 1 192 192 192 255 0.267261 0.219525
-4.35317 4.64255 1.20057 -3 2 1 192 192 192 255 0.233148 0.219525
-4.35317 4.55414 1.11435 -3 -1 0 192 192 192 255 0.233148 0.219525
-4.35317 4.55414 1.11435 -3 -1 0 192 192 192 255 0.267261 0.219525
-4.26694 4.55414 1.11435 3 -2 0 192 192 192 255 0.267261 0.219525
-4.26694 4.55414 1.11435 3 -2 0 192 192 192 255 0.233148 0.219525
-4.26694 4.64255 1.20057 3 1 2 192 192 192 255 0.233148 0.219525
-4.35317 0.356813 1.20057 -3 -1 2 192 192 192 255 0.267261 0.219525
-4.26694 0.356813 1.20057 3 -2 1 192 192 192 255 0.267261 0.219525
-4.35317 0.356813 1.20057 -3 -1 2 192 192 192 255 0.233148 0.219525
-4.35317 0.445222 0.976231 -2 1 3 192 192 192 255 0.244197 0.219525
-4.35317 0.356813 0.976231 -1 -2 3 192 192 192 255 0.244197 0.219525
0 3.75 0 1.95827e-007 -2.12131 5.12133 192 192 192 255 0.74933 0.672963
-5 3.75 0 -9.12374e-008 -2.12129 5.12135 192 192 192 255 0.58788 0.672963
0 1.25 0 -6.05915e-007 2.12132 5.12133 192 192 192 255 0.300119 0.063433
-5 1.25 0 1.22626e-006 2.12132 5.12132 192 192 192 255 0.300119 0.063433
-1.02356 4.90649 1.15649 1 -0.707108 3.53556 192 192 192 255 0.265219 0.063433
-3.97644 4.90649 1.15649 -2 -1.41419 2.82846 192 192 192 255 0.265219 0.063433
-3.97644 4.81635 1.24663 -1 0.707091 2.12133 192 192 192 255 0.265219 0.063433
-1.02356 4.81635 1.24663 2 -0.707118 2.12132 192 192 192 255 0.265219 0.063433
-3.97644 4.90649 1.15649 -2 -1.41419 2.82846 192 192 192 255 0.235631 0.063433
-3.97644 3.84351 0.093506 -1 -3.5355 0.707096 192 192 192 255 0.235631 0.063433
-3.97644 3.75337 0.183647 -2 -2.12131 0.707091 192 192 192 255 0.235631 0.063433
-3.97644 4.81635 1.24663 -1 0.707091 2.12133 192 192 192 255 0.235631 0.063433
-3.97644 3.84351 0.093506 -1 -3.5355 0.707096 192 192 192 255 0.265219 0.063433
-1.02356 3.84351 0.093506 2 -2.82839 1.41423 192 192 192 255 0.265219 0.063433
-1.02356 3.75337 0.183647 1 -2.1213 -0.707132 192 192 192 255 0.265219 0.063433
-3.97644 3.75337 0.183647 -2 -2.12131 0.707091 192 192 192 255 0.265219 0.063433
-1.02356 3.84351 0.093506 2 -2.82839 1.41423 192 192 192 255 0.235631 0.063433
-1.02356 4.90649 1.15649 1 -0.707108 3.53556 192 192 192 255 0.235631 0.063433
-1.02356 4.81635 1.24663 2 -0.707118 2.12132 192 192 192 255 0.235631 0.063433
-1.02356 3.75337 0.183647 1 -2.1213 -0.707132 192 192 192 255 0.235631 0.063433
-1.02356 1.58382 0 2 -1 3 192 192 192 255 0.2626 0.063433
-1.02356 3.41618 0 1 2 3 192 192 192 255 0.2626 0.063433
-1.02356 3.41618 0.12748 2 1 1 192 192 192 255 0.2626 0.063433
-1.02356 1.58382 0.12748 1 -2 2 192 192 192 255 0.2626 0.063433
-1.02356 3.41618 0 1 2 3 192 192 192 255 0.292188 0.063433
-3.97644 3.41618 0 -2 1 3 192 192 192 255 0.292188 0.063433
-3.97644 3.41618 0.12748 -1 2 2 192 192 192 255 0.292188 0.063433
-1.02356 3.41618 0.12748 2 1 1 192 192 192 255 0.292188 0.063433
-3.97644 3.41618 0 -2 1 3 192 192 192 255 0.2626 0.063433
-3.97644 1.58382 0 -1 -2 3 192 192 192 255 0.2626 0.063433
-3.97644 1.58382 0.12748 -2 -1 1 192 192 192 255 0.2626 0.063433
-3.97644 3.41618 0.12748 -1 2 2 192 192 192 255 0.2626 0.063433
-3.97644 1.58382 0 -1 -2 3 192 192 192 255 0.292188 0.063433
-1.02356 1.58382 0 2 -1 3 192 192 192 255 0.292188 0.063433
-1.02356 1.58382 0.12748 1 -2 2 192 192 192 255 0.292188 0.063433
-3.97644 1.58382 0.12748 -2 -1 1 192 192 192 255 0.292188 0.063433
-1.70984 0.854314 0.395683 0.999999 3.53552 0.707101 192 192 192 255 0.265219 0.063433
-3.29016 0.854314 0.395683 -2 2.82842 1.41421 192 192 192 255 0.265219 0.063433
-3.29016 0.944457 0.485825 -1 2.12131 -0.707116 192 192 192 255 0.265219 0.063433
-1.70984 0.944457 0.485825 2 2.12132 0.7071 192 192 192 255 0.265219 0.063433
-3.29016 0.854314 0.395683 -2 2.82842 1.41421 192 192 192 255 0.235631 0.063433
-3.29016 0.395687 0.854313 -0.999999 0.707124 3.53555 192 192 192 255 0.235631 0.063433
-3.29016 0.48583 0.944454 -2 0.707118 2.12133 192 192 192 255 0.235631 0.063433
-3.29016 0.944457 0.485825 -1 2.12131 -0.707116 192 192 192 255 0.235631 0.063433
-3.29016 0.395687 0.854313 -0.999999 0.707124 3.53555 192 192 192 255 0.265219 0.063433
-1.70984 0.395687 0.854313 2 1.41422 2.82843 192 192 192 255 0.265219 0.063433
-1.70984 0.48583 0.944454 1 -0.707089 2.12133 192 192 192 255 0.265219 0.063433
-3.29016 0.48583 0.944454 -2 0.707118 2.12133 192 192 192 255 0.265219 0.063433
-1.70984 0.395687 0.854313 2 1.41422 2.82843 192 192 192 255 0.235631 0.063433
-1.70984 0.854314 0.395683 0.999999 3.53552 0.707101 192 192 192 255 0.235631 0.063433
-1.70984 0.944457 0.485825 2 2.12132 0.7071 192 192 192 255 0.235631 0.063433
-1.70984 0.48583 0.944454 1 -0.707089 2.12133 192 192 192 255 0.235631 0.063433
3 113 112 114 
3 113 114 115 
3 116 117 118 
3 116 118 119 
3 121 120 122 
3 121 122 123 
3 41 42 47 
3 41 47 44 
3 45 46 43 
3 45 43 40 
3 124 125 126 
3 124 126 127 
3 128 129 130 
3 128 130 131 
3 10 11 17 
3 10 17 16 
3 132 13 18 
3 132 18 133 
3 134 12 19 
3 134 19 135 
3 136 137 138 
3 136 138 139 
3 14 15 21 
3 14 21 20 
3 9 22 140 
3 9 140 141 
3 9 141 53 
3 142 8 23 
3 142 23 143 
3 144 145 25 
3 144 25 24 
3 145 146 26 
3 145 26 25 
3 146 147 27 
3 146 27 26 
3 147 144 24 
3 147 24 27 
3 148 149 29 
3 148 29 28 
3 149 150 30 
3 149 30 29 
3 150 151 31 
3 150 31 30 
3 151 148 28 
3 151 28 31 
3 152 153 33 
3 152 33 32 
3 154 155 34 
3 154 34 156 
3 157 158 35 
3 157 35 159 
3 160 161 162 
3 160 162 163 
3 164 165 37 
3 164 37 36 
3 166 167 38 
3 166 38 168 
3 169 170 39 
3 169 39 171 
3 172 173 174 
3 172 174 175 
3 176 52 177 
3 176 177 178 
3 179 180 181 
3 179 181 182 
3 53 141 183 
3 53 183 184 
3 185 186 187 
3 185 187 188 
3 189 190 49 
3 189 49 50 
3 191 51 192 
3 191 192 193 
3 194 195 196 
3 194 196 48 
3 197 198 199 
3 197 199 200 
3 200 199 201 
3 200 201 202 
3 50 49 203 
3 50 203 204 
3 205 206 51 
3 205 51 191 
3 48 196 207 
3 48 207 208 
3 209 210 180 
3 209 180 179 
3 211 52 176 
3 211 176 212 
3 211 212 213 
3 87 88 93 
3 87 93 90 
3 91 92 89 
3 91 89 86 
3 214 215 216 
3 214 216 217 
3 218 219 220 
3 218 220 221 
3 56 57 63 
3 56 63 62 
3 222 59 64 
3 222 64 223 
3 224 58 65 
3 224 65 225 
3 226 227 228 
3 226 228 229 
3 60 61 67 
3 60 67 66 
3 55 68 230 
3 55 230 231 
3 55 231 99 
3 232 54 69 
3 232 69 233 
3 234 235 71 
3 234 71 70 
3 235 236 72 
3 235 72 71 
3 236 237 73 
3 236 73 72 
3 237 234 70 
3 237 70 73 
3 238 239 75 
3 238 75 74 
3 239 240 76 
3 239 76 75 
3 240 241 77 
3 240 77 76 
3 241 238 74 
3 241 74 77 
3 242 243 79 
3 242 79 78 
3 244 245 80 
3 244 80 246 
3 247 248 81 
3 247 81 249 
3 250 251 252 
3 250 252 253 
3 254 255 83 
3 254 83 82 
3 256 257 84 
3 256 84 258 
3 259 260 85 
3 259 85 261 
3 262 263 264 
3 262 264 265 
3 266 98 267 
3 266 267 268 
3 269 270 271 
3 269 271 272 
3 99 231 273 
3 99 273 274 
3 275 276 277 
3 275 277 278 
3 279 280 95 
3 279 95 96 
3 281 97 282 
3 281 282 283 
3 284 285 286 
3 284 286 94 
3 287 288 289 
3 287 289 290 
3 290 289 291 
3 290 291 292 
3 96 95 293 
3 96 293 294 
3 295 296 97 
3 295 97 281 
3 94 286 297 
3 94 297 298 
3 299 300 270 
3 299 270 269 
3 301 98 266 
3 301 266 302 
3 301 302 303 
3 3 2 100 
3 3 100 101 
3 2 4 102 
3 2 102 100 
3 4 5 103 
3 4 103 102 
3 5 3 101 
3 5 101 103 
3 7 304 105 
3 7 105 104 
3 304 305 106 
3 304 106 105 
3 305 6 107 
3 305 107 106 
3 6 7 104 
3 6 104 107 
3 306 307 108 
3 306 108 109 
3 307 0 110 
3 307 110 108 
3 0 1 111 
3 0 111 110 
3 1 306 109 
3 1 109 111 
3 308 309 310 
3 308 310 311 
3 312 313 314 
3 312 314 315 
3 316 317 318 
3 316 318 319 
3 320 321 322 
3 320 322 323 
3 324 325 326 
3 324 326 327 
3 328 329 330 
3 328 330 331 
3 332 333 334 
3 332 334 335 
3 336 337 338 
3 336 338 339 
3 340 341 342 
3 340 342 343 
3 344 345 346 
3 344 346 347 
3 348 349 350 
3 348 350 351 
3 352 353 354 
3 352 354 355 
