ply
format ascii 1.0
comment VCGLIB generated
comment TextureFile SpaceInteriors_Texture.png
element vertex 40
property float x
property float y
property float z
property float nx
property float ny
property float nz
property uchar red
property uchar green
property uchar blue
property uchar alpha
property float texture_u
property float texture_v
element face 28
property list uchar int vertex_indices
end_header
0 0 0.131945 -1 -1 3 192 192 192 255 0.3563 0.473177
2.13706 0 0.131945 2 -2 3 192 192 192 255 0.3563 0.473177
0 3.64141 0.131945 -2 2 3 192 192 192 255 0.44935 0.473177
2.13706 3.64141 0.131945 1 1 3 192 192 192 255 0.44935 0.473177
0 3.64141 -0.13195 -1 1 -3 192 192 192 255 0.44935 0.473177
2.13706 3.64141 -0.13195 2 2 -3 192 192 192 255 0.44935 0.473177
0 0 -0.13195 -2 -2 -3 192 192 192 255 0.3563 0.473177
2.13706 0 -0.13195 1 -1 -3 192 192 192 255 0.3563 0.473177
1.64899 1.70679 0.131945 0 0 5 192 192 192 255 0.16312 0.473177
1.88792 1.70679 0.131945 0 0 4 192 192 192 255 0.16312 0.473177
1.88792 1.93462 0.131945 0 0 5 192 192 192 255 0.16312 0.473177
1.64899 1.93462 0.131945 0 0 4 192 192 192 255 0.16312 0.473177
1.64899 1.93462 -0.13195 0 0 -5 192 192 192 255 0.16312 0.473177
1.88792 1.93462 -0.13195 0 0 -4 192 192 192 255 0.16312 0.473177
1.88792 1.70679 -0.13195 0 0 -5 192 192 192 255 0.16312 0.473177
1.64899 1.70679 -0.13195 0 0 -4 192 192 192 255 0.16312 0.473177
2.13706 0 0.131945 2 -2 3 192 192 192 255 0.391699 0.473177
2.13706 0 -0.13195 1 -1 -3 192 192 192 255 0.391699 0.473177
2.13706 3.64141 -0.13195 2 2 -3 192 192 192 255 0.391699 0.473177
2.13706 3.64141 0.131945 1 1 3 192 192 192 255 0.391699 0.473177
0 0 -0.13195 -2 -2 -3 192 192 192 255 0.391699 0.473177
0 0 0.131945 -1 -1 3 192 192 192 255 0.391699 0.473177
0 3.64141 0.131945 -2 2 3 192 192 192 255 0.391699 0.473177
0 3.64141 -0.13195 -1 1 -3 192 192 192 255 0.391699 0.473177
0 0 0.131945 -1 -1 3 192 192 192 255 0.419007 0.473177
2.13706 0 0.131945 2 -2 3 192 192 192 255 0.419007 0.473177
1.88792 1.70679 0.131945 0 0 4 192 192 192 255 0.419007 0.473177
1.64899 1.70679 0.131945 0 0 5 192 192 192 255 0.419007 0.473177
2.13706 3.64141 0.131945 1 1 3 192 192 192 255 0.419007 0.473177
1.88792 1.93462 0.131945 0 0 5 192 192 192 255 0.419007 0.473177
0 3.64141 0.131945 -2 2 3 192 192 192 255 0.419007 0.473177
1.64899 1.93462 0.131945 0 0 4 192 192 192 255 0.419007 0.473177
0 3.64141 -0.13195 -1 1 -3 192 192 192 255 0.419007 0.473177
2.13706 3.64141 -0.13195 2 2 -3 192 192 192 255 0.419007 0.473177
1.88792 1.93462 -0.13195 0 0 -4 192 192 192 255 0.419007 0.473177
1.64899 1.93462 -0.13195 0 0 -5 192 192 192 255 0.419007 0.473177
2.13706 0 -0.13195 1 -1 -3 192 192 192 255 0.419007 0.473177
1.88792 1.70679 -0.13195 0 0 -5 192 192 192 255 0.419007 0.473177
0 0 -0.13195 -2 -2 -3 192 192 192 255 0.419007 0.473177
1.64899 1.70679 -0.13195 0 0 -4 192 192 192 255 0.419007 0.473177
3 8 9 10 
3 8 10 11 
3 2 3 5 
3 2 5 4 
3 12 13 14 
3 12 14 15 
3 6 7 1 
3 6 1 0 
3 16 17 18 
3 16 18 19 
3 20 21 22 
3 20 22 23 
3 24 25 26 
3 24 26 27 
3 25 28 29 
3 25 29 26 
3 28 30 31 
3 28 31 29 
3 30 24 27 
3 30 27 31 
3 32 33 34 
3 32 34 35 
3 33 36 37 
3 33 37 34 
3 36 38 39 
3 36 39 37 
3 38 32 35 
3 38 35 39 
