ply
format ascii 1.0
comment VCGLIB generated
comment TextureFile SpaceInteriors_Texture.png
element vertex 26
property float x
property float y
property float z
property float nx
property float ny
property float nz
property uchar red
property uchar green
property uchar blue
property uchar alpha
property float texture_u
property float texture_v
element face 18
property list uchar int vertex_indices
end_header
-5 0 0 0 0 2 192 192 192 255 0.921085 0.641008
0 0 0 0 0 1 192 192 192 255 0.988954 0.641008
-5 5 0 0 0 1 192 192 192 255 0.921085 0.701938
0 5 0 0 0 2 192 192 192 255 0.988954 0.701938
-5 2.5 0 3.63547 -1 2 192 192 192 255 0.921085 0.671473
0 2.5 0 -2.63547 -2 1 192 192 192 255 0.988954 0.671473
-5 0.75 0 1 0 1 192 192 192 255 0.921085 0.650147
0 0.75 0 -2 0 2 192 192 192 255 0.988954 0.650147
-5 2.5 -1.8832 1.63547 -2 1 192 192 192 255 0.234058 0.059129
0 2.5 -1.8832 -1.63547 -1 2 192 192 192 255 0.234058 0.059129
-5 0.75 0 2 1.81136 0.84792 192 192 192 255 0.921085 0.650147
0 0.75 0 -1 0.905681 0.42396 192 192 192 255 0.988954 0.650147
-5 1.63155 -1.8832 2.63547 0.905681 2.42396 192 192 192 255 0.234058 0.059129
0 1.63155 -1.8832 -3.63547 1.81136 1.84792 192 192 192 255 0.234058 0.059129
0 2.5 0 -2.63547 -2 1 192 192 192 255 0.205433 0.060936
-5 2.5 0 3.63547 -1 2 192 192 192 255 0.205433 0.060936
-5 2.5 -1.8832 1.63547 -2 1 192 192 192 255 0.205433 0.060936
0 2.5 -1.8832 -1.63547 -1 2 192 192 192 255 0.205433 0.060936
-5 1.63155 -1.8832 2.63547 0.905681 2.42396 192 192 192 255 0.921085 0.665075
0 1.63155 -1.8832 -3.63547 1.81136 1.84792 192 192 192 255 0.988954 0.665075
0 2.5 -1.8832 -1.63547 -1 2 192 192 192 255 0.988954 0.671473
0 1.63155 -1.8832 -3.63547 1.81136 1.84792 192 192 192 255 0.99246 0.993843
-5 1.63155 -1.8832 2.63547 0.905681 2.42396 192 192 192 255 0.749427 0.993843
-5 0.75 0 2 1.81136 0.84792 192 192 192 255 0.749427 0.873204
0 0.75 0 -1 0.905681 0.42396 192 192 192 255 0.99246 0.873204
-5 2.5 -1.8832 1.63547 -2 1 192 192 192 255 0.921085 0.671473
3 3 2 4 
3 3 4 5 
3 9 8 12 
3 9 12 13 
3 7 6 0 
3 7 0 1 
3 14 15 16 
3 14 16 17 
3 4 6 10 
3 4 10 18 
3 6 7 11 
3 6 11 10 
3 19 5 20 
3 21 22 23 
3 21 23 24 
3 4 18 25 
3 7 5 19 
3 7 19 11 
