ply
format ascii 1.0
comment VCGLIB generated
comment TextureFile SpaceInteriors_Texture.png
element vertex 182
property float x
property float y
property float z
property float nx
property float ny
property float nz
property uchar red
property uchar green
property uchar blue
property uchar alpha
property float texture_u
property float texture_v
element face 110
property list uchar int vertex_indices
end_header
-2.44185 0.148714 0.012291 1 0 -1 192 192 192 255 0.325339 0.061667
-2.44185 1.0502 0.012291 2 0 -2 192 192 192 255 0.325339 0.061667
-2.44185 1.0502 0.128586 1 0 1 192 192 192 255 0.325339 0.061667
-2.44185 0.148714 0.128586 2 0 2 192 192 192 255 0.325339 0.061667
-2.55816 0.148714 0.012291 -1 0 -2 192 192 192 255 0.357377 0.061667
-2.55816 1.0502 0.012291 -2 0 -1 192 192 192 255 0.357377 0.061667
-2.55816 1.0502 0.128586 -1 0 2 192 192 192 255 0.357377 0.061667
-2.55816 0.148714 0.128586 -2 0 1 192 192 192 255 0.357377 0.061667
0 0 0 1 -1 -4 192 192 192 255 0.292358 0.061667
-5 0 0 -2 -2 -3 192 192 192 255 0.292358 0.061667
0 1.19891 0 2 2 -3 192 192 192 255 0.392243 0.061667
-5 1.19891 0 -1 1 -3 192 192 192 255 0.392243 0.061667
0 1.19891 0.140877 1 1 3 192 192 192 255 0.392243 0.061667
-5 1.19891 0.140877 -2 2 3 192 192 192 255 0.392243 0.061667
0 0 0.140877 2 -2 3 192 192 192 255 0.292358 0.061667
-5 0 0.140877 -1 -1 3 192 192 192 255 0.292358 0.061667
-0.140892 0.148714 0 -1 2 -3 192 192 192 255 0.357377 0.061667
-4.85912 0.148714 0 1 3 -3 192 192 192 255 0.357377 0.061667
-4.85912 1.0502 0 2 -2 -3 192 192 192 255 0.357377 0.061667
-0.140892 1.0502 0 -2 -1 -3 192 192 192 255 0.357377 0.061667
-0.140892 1.0502 0.140877 -1 -2 3 192 192 192 255 0.357377 0.061667
-4.85912 1.0502 0.140877 1 -1 3 192 192 192 255 0.357377 0.061667
-4.85912 0.148714 0.140877 2 1 3 192 192 192 255 0.357377 0.061667
-0.140892 0.148714 0.140877 -2 2 3 192 192 192 255 0.357377 0.061667
-2.5 0.148714 0 0 1 -2 192 192 192 255 0.357377 0.061667
-0.018856 0.148714 2.5516 1 0 1 192 192 192 255 0.325339 0.061667
-0.018856 1.0502 2.5516 2 0 2 192 192 192 255 0.325339 0.061667
-0.122044 1.0502 2.5516 -1 0 1 192 192 192 255 0.325339 0.061667
-0.122044 0.148714 2.5516 -2 0 2 192 192 192 255 0.325339 0.061667
-0.018856 0.148714 2.4484 2 0 -1 192 192 192 255 0.357377 0.061667
-0.018856 1.0502 2.4484 1 0 -2 192 192 192 255 0.357377 0.061667
-0.122044 1.0502 2.4484 -2 0 -1 192 192 192 255 0.357377 0.061667
-0.122044 0.148714 2.4484 -1 0 -2 192 192 192 255 0.357377 0.061667
-1.1e-005 0 5.00001 4 -1 1 192 192 192 255 0.292358 0.061667
-1.1e-005 0 0.140877 1 -2 0 192 192 192 255 0.292358 0.061667
-1.1e-005 1.19891 5.00001 3 2 2 192 192 192 255 0.392243 0.061667
-1.1e-005 1.19891 0.140877 2 1 0 192 192 192 255 0.392243 0.061667
-0.140888 1.19891 5.00001 -3 1 1 192 192 192 255 0.392243 0.061667
-0.140888 1.19891 0.140877 -1 2 0 192 192 192 255 0.392243 0.061667
-0.140888 0 5.00001 -3 -2 2 192 192 192 255 0.292358 0.061667
-0.140888 0 0.140877 -2 -1 0 192 192 192 255 0.292358 0.061667
-1.1e-005 0.148714 4.85911 3 2 -1 192 192 192 255 0.357377 0.061667
-1.1e-005 0.148714 0.140884 2 3 0 192 192 192 255 0.357377 0.061667
-1.1e-005 1.0502 0.140884 1 -2 0 192 192 192 255 0.357377 0.061667
-1.1e-005 1.0502 4.85911 3 -1 -2 192 192 192 255 0.357377 0.061667
-0.140888 1.0502 4.85911 -3 -2 -1 192 192 192 255 0.357377 0.061667
-0.140888 1.0502 0.140884 -2 -1 0 192 192 192 255 0.357377 0.061667
-0.140888 0.148714 0.140884 -1 1 0 192 192 192 255 0.357377 0.061667
-0.140888 0.148714 4.85911 -3 2 -2 192 192 192 255 0.357377 0.061667
-1.1e-005 0.148714 2.5 2 1 0 192 192 192 255 0.357377 0.061667
-2.55668 0.148714 4.98621 -1 0 1 192 192 192 255 0.325339 0.061667
-2.55668 1.0502 4.98621 -2 0 2 192 192 192 255 0.325339 0.061667
-2.55668 1.0502 4.87289 -1 0 -1 192 192 192 255 0.325339 0.061667
-2.55668 0.148714 4.87289 -2 0 -2 192 192 192 255 0.325339 0.061667
-2.44335 0.148714 4.98621 1 0 2 192 192 192 255 0.357377 0.061667
-2.44335 1.0502 4.98621 2 0 1 192 192 192 255 0.357377 0.061667
-2.44335 1.0502 4.87289 1 0 -2 192 192 192 255 0.357377 0.061667
-2.44335 0.148714 4.87289 2 0 -1 192 192 192 255 0.357377 0.061667
-5.00002 0 4.99999 -1 -1 4 192 192 192 255 0.292358 0.061667
-2.3e-005 0 4.99999 0 -2 1 192 192 192 255 0.292358 0.061667
-5.00002 1.19891 4.99999 -2 2 3 192 192 192 255 0.392243 0.061667
-2.3e-005 1.19891 4.99999 0 1 2 192 192 192 255 0.392243 0.061667
-5.00002 1.19891 4.85912 -1 1 -3 192 192 192 255 0.392243 0.061667
-2.3e-005 1.19891 4.85912 0 2 -1 192 192 192 255 0.392243 0.061667
-5.00002 0 4.85912 -2 -2 -3 192 192 192 255 0.292358 0.061667
-2.3e-005 0 4.85912 0 -1 -2 192 192 192 255 0.292358 0.061667
-4.85912 0.148714 4.99999 1 2 3 192 192 192 255 0.357377 0.061667
-0.1409 0.148714 4.99999 0 3 2 192 192 192 255 0.357377 0.061667
-0.1409 1.0502 4.99999 0 -2 1 192 192 192 255 0.357377 0.061667
-4.85912 1.0502 4.99999 2 -1 3 192 192 192 255 0.357377 0.061667
-4.85912 1.0502 4.85912 1 -2 -3 192 192 192 255 0.357377 0.061667
-0.1409 1.0502 4.85912 0 -1 -2 192 192 192 255 0.357377 0.061667
-0.1409 0.148714 4.85912 0 1 -1 192 192 192 255 0.357377 0.061667
-4.85912 0.148714 4.85912 2 2 -3 192 192 192 255 0.357377 0.061667
-2.50002 0.148714 4.99999 0 1 2 192 192 192 255 0.357377 0.061667
-2.44185 1.0502 0.012291 2 0 -2 192 192 192 255 0.357377 0.061667
-2.44185 0.148714 0.012291 1 0 -1 192 192 192 255 0.357377 0.061667
-2.44185 0.148714 0.128586 2 0 2 192 192 192 255 0.357377 0.061667
-2.44185 1.0502 0.128586 1 0 1 192 192 192 255 0.357377 0.061667
-2.55816 1.0502 0.012291 -2 0 -1 192 192 192 255 0.32255 0.061667
-2.55816 0.148714 0.012291 -1 0 -2 192 192 192 255 0.32255 0.061667
-2.55816 0.148714 0.128586 -2 0 1 192 192 192 255 0.32255 0.061667
-2.55816 1.0502 0.128586 -1 0 2 192 192 192 255 0.32255 0.061667
-5 0 0 -2 -2 -3 192 192 192 255 0.326363 0.061667
-5 0 0.140877 -1 -1 3 192 192 192 255 0.326363 0.061667
-5 1.19891 0.140877 -2 2 3 192 192 192 255 0.326363 0.061667
-5 1.19891 0 -1 1 -3 192 192 192 255 0.326363 0.061667
0 0 0.140877 2 -2 3 192 192 192 255 0.356247 0.05771
0 0 0 1 -1 -4 192 192 192 255 0.356247 0.05771
0 1.19891 0 2 2 -3 192 192 192 255 0.356247 0.05771
0 1.19891 0.140877 1 1 3 192 192 192 255 0.356247 0.05771
0 0 0 1 -1 -4 192 192 192 255 0.357377 0.061667
-5 0 0 -2 -2 -3 192 192 192 255 0.357377 0.061667
-5 1.19891 0 -1 1 -3 192 192 192 255 0.357377 0.061667
0 1.19891 0 2 2 -3 192 192 192 255 0.357377 0.061667
0 1.19891 0.140877 1 1 3 192 192 192 255 0.357377 0.061667
-5 1.19891 0.140877 -2 2 3 192 192 192 255 0.357377 0.061667
-5 0 0.140877 -1 -1 3 192 192 192 255 0.357377 0.061667
0 0 0.140877 2 -2 3 192 192 192 255 0.357377 0.061667
0 0 0.140877 2 -2 3 192 192 192 255 0.325348 0.061667
0 1.19891 0.140877 1 1 3 192 192 192 255 0.325348 0.061667
-0.140892 1.0502 0.140877 -1 -2 3 192 192 192 255 0.325348 0.061667
-0.140892 0.148714 0.140877 -2 2 3 192 192 192 255 0.325348 0.061667
-4.85912 1.0502 0 2 -2 -3 192 192 192 255 0.296835 0.061667
-0.140892 1.0502 0 -2 -1 -3 192 192 192 255 0.296835 0.061667
-0.140892 1.0502 0.140877 -1 -2 3 192 192 192 255 0.296835 0.061667
-4.85912 1.0502 0.140877 1 -1 3 192 192 192 255 0.296835 0.061667
-0.140892 1.0502 0 -2 -1 -3 192 192 192 255 0.32255 0.061667
-0.140892 0.148714 0 -1 2 -3 192 192 192 255 0.32255 0.061667
-0.140892 0.148714 0.140877 -2 2 3 192 192 192 255 0.32255 0.061667
-0.140892 1.0502 0.140877 -1 -2 3 192 192 192 255 0.32255 0.061667
-4.85912 1.0502 0 2 -2 -3 192 192 192 255 0.32255 0.061667
-4.85912 1.0502 0.140877 1 -1 3 192 192 192 255 0.32255 0.061667
-4.85912 0.148714 0.140877 2 1 3 192 192 192 255 0.32255 0.061667
-4.85912 0.148714 0 1 3 -3 192 192 192 255 0.32255 0.061667
-4.85912 0.148714 0 1 3 -3 192 192 192 255 0.388108 0.061667
-4.85912 0.148714 0.140877 2 1 3 192 192 192 255 0.388108 0.061667
-0.140892 0.148714 0.140877 -2 2 3 192 192 192 255 0.388108 0.061667
-0.140892 0.148714 0 -1 2 -3 192 192 192 255 0.388108 0.061667
-2.5 0.148714 0 0 1 -2 192 192 192 255 0.388108 0.061667
-0.018856 1.0502 2.5516 2 0 2 192 192 192 255 0.357377 0.061667
-0.018856 0.148714 2.5516 1 0 1 192 192 192 255 0.357377 0.061667
-0.122044 0.148714 2.5516 -2 0 2 192 192 192 255 0.357377 0.061667
-0.122044 1.0502 2.5516 -1 0 1 192 192 192 255 0.357377 0.061667
-0.018856 1.0502 2.4484 1 0 -2 192 192 192 255 0.32255 0.061667
-0.018856 0.148714 2.4484 2 0 -1 192 192 192 255 0.32255 0.061667
-0.122044 0.148714 2.4484 -1 0 -2 192 192 192 255 0.32255 0.061667
-0.122044 1.0502 2.4484 -2 0 -1 192 192 192 255 0.32255 0.061667
-0.140888 0 5.00001 -3 -2 2 192 192 192 255 0.362689 0.061667
-1.1e-005 0 5.00001 4 -1 1 192 192 192 255 0.362689 0.061667
-1.1e-005 1.19891 5.00001 3 2 2 192 192 192 255 0.362689 0.061667
-0.140888 1.19891 5.00001 -3 1 1 192 192 192 255 0.362689 0.061667
-1.1e-005 0 5.00001 4 -1 1 192 192 192 255 0.357377 0.061667
-1.1e-005 0 0.140877 1 -2 0 192 192 192 255 0.357377 0.061667
-1.1e-005 1.19891 0.140877 2 1 0 192 192 192 255 0.357377 0.061667
-1.1e-005 1.19891 5.00001 3 2 2 192 192 192 255 0.357377 0.061667
-0.140888 1.19891 5.00001 -3 1 1 192 192 192 255 0.357377 0.061667
-0.140888 1.19891 0.140877 -1 2 0 192 192 192 255 0.357377 0.061667
-0.140888 0 0.140877 -2 -1 0 192 192 192 255 0.357377 0.061667
-0.140888 0 5.00001 -3 -2 2 192 192 192 255 0.357377 0.061667
-0.140888 0 5.00001 -3 -2 2 192 192 192 255 0.324684 0.061667
-0.140888 1.19891 5.00001 -3 1 1 192 192 192 255 0.324684 0.061667
-0.140888 1.0502 4.85911 -3 -2 -1 192 192 192 255 0.324684 0.061667
-0.140888 0.148714 4.85911 -3 2 -2 192 192 192 255 0.324684 0.061667
-1.1e-005 1.0502 4.85911 3 -1 -2 192 192 192 255 0.32255 0.061667
-1.1e-005 0.148714 4.85911 3 2 -1 192 192 192 255 0.32255 0.061667
-0.140888 0.148714 4.85911 -3 2 -2 192 192 192 255 0.32255 0.061667
-0.140888 1.0502 4.85911 -3 -2 -1 192 192 192 255 0.32255 0.061667
-1.1e-005 0.148714 0.140884 2 3 0 192 192 192 255 0.388108 0.061667
-0.140888 0.148714 0.140884 -1 1 0 192 192 192 255 0.388108 0.061667
-0.140888 0.148714 4.85911 -3 2 -2 192 192 192 255 0.388108 0.061667
-1.1e-005 0.148714 4.85911 3 2 -1 192 192 192 255 0.388108 0.061667
-1.1e-005 0.148714 2.5 2 1 0 192 192 192 255 0.388108 0.061667
-2.55668 1.0502 4.98621 -2 0 2 192 192 192 255 0.357377 0.061667
-2.55668 0.148714 4.98621 -1 0 1 192 192 192 255 0.357377 0.061667
-2.55668 0.148714 4.87289 -2 0 -2 192 192 192 255 0.357377 0.061667
-2.55668 1.0502 4.87289 -1 0 -1 192 192 192 255 0.357377 0.061667
-2.44335 1.0502 4.98621 2 0 1 192 192 192 255 0.32255 0.061667
-2.44335 0.148714 4.98621 1 0 2 192 192 192 255 0.32255 0.061667
-2.44335 0.148714 4.87289 2 0 -1 192 192 192 255 0.32255 0.061667
-2.44335 1.0502 4.87289 1 0 -2 192 192 192 255 0.32255 0.061667
-5.00002 0 4.85912 -2 -2 -3 192 192 192 255 0.326363 0.061667
-5.00002 0 4.99999 -1 -1 4 192 192 192 255 0.326363 0.061667
-5.00002 1.19891 4.99999 -2 2 3 192 192 192 255 0.326363 0.061667
-5.00002 1.19891 4.85912 -1 1 -3 192 192 192 255 0.326363 0.061667
-5.00002 0 4.99999 -1 -1 4 192 192 192 255 0.357377 0.061667
-2.3e-005 0 4.99999 0 -2 1 192 192 192 255 0.357377 0.061667
-2.3e-005 1.19891 4.99999 0 1 2 192 192 192 255 0.357377 0.061667
-5.00002 1.19891 4.99999 -2 2 3 192 192 192 255 0.357377 0.061667
-5.00002 1.19891 4.85912 -1 1 -3 192 192 192 255 0.357377 0.061667
-2.3e-005 1.19891 4.85912 0 2 -1 192 192 192 255 0.357377 0.061667
-2.3e-005 0 4.85912 0 -1 -2 192 192 192 255 0.357377 0.061667
-5.00002 0 4.85912 -2 -2 -3 192 192 192 255 0.357377 0.061667
-4.85912 1.0502 4.99999 2 -1 3 192 192 192 255 0.32255 0.061667
-4.85912 0.148714 4.99999 1 2 3 192 192 192 255 0.32255 0.061667
-4.85912 0.148714 4.85912 2 2 -3 192 192 192 255 0.32255 0.061667
-4.85912 1.0502 4.85912 1 -2 -3 192 192 192 255 0.32255 0.061667
-0.1409 0.148714 4.99999 0 3 2 192 192 192 255 0.388108 0.061667
-0.1409 0.148714 4.85912 0 1 -1 192 192 192 255 0.388108 0.061667
-4.85912 0.148714 4.85912 2 2 -3 192 192 192 255 0.388108 0.061667
-4.85912 0.148714 4.99999 1 2 3 192 192 192 255 0.388108 0.061667
-2.50002 0.148714 4.99999 0 1 2 192 192 192 255 0.388108 0.061667
3 3 0 1 
3 3 1 2 
3 75 76 4 
3 75 4 5 
3 77 78 6 
3 77 6 7 
3 79 80 81 
3 79 81 82 
3 10 11 13 
3 10 13 12 
3 14 15 9 
3 14 9 8 
3 83 84 85 
3 83 85 86 
3 87 88 89 
3 87 89 90 
3 91 92 17 
3 91 17 24 
3 91 24 16 
3 92 93 18 
3 92 18 17 
3 93 94 19 
3 93 19 18 
3 94 91 16 
3 94 16 19 
3 95 96 21 
3 95 21 20 
3 96 97 22 
3 96 22 21 
3 97 98 23 
3 97 23 22 
3 99 100 101 
3 99 101 102 
3 103 104 105 
3 103 105 106 
3 107 108 109 
3 107 109 110 
3 111 112 113 
3 111 113 114 
3 115 116 117 
3 115 117 118 
3 115 118 119 
3 28 25 26 
3 28 26 27 
3 120 121 29 
3 120 29 30 
3 122 123 31 
3 122 31 32 
3 124 125 126 
3 124 126 127 
3 35 36 38 
3 35 38 37 
3 39 40 34 
3 39 34 33 
3 128 129 130 
3 128 130 131 
3 132 133 42 
3 132 42 49 
3 132 49 41 
3 134 135 44 
3 134 44 43 
3 135 132 41 
3 135 41 44 
3 136 137 46 
3 136 46 45 
3 138 139 48 
3 138 48 47 
3 140 141 142 
3 140 142 143 
3 43 44 45 
3 43 45 46 
3 144 145 146 
3 144 146 147 
3 148 149 150 
3 148 150 151 
3 148 151 152 
3 53 50 51 
3 53 51 52 
3 153 154 54 
3 153 54 55 
3 155 156 56 
3 155 56 57 
3 157 158 159 
3 157 159 160 
3 60 61 63 
3 60 63 62 
3 64 65 59 
3 64 59 58 
3 161 162 163 
3 161 163 164 
3 165 166 67 
3 165 67 74 
3 165 74 66 
3 167 168 69 
3 167 69 68 
3 168 165 66 
3 168 66 69 
3 169 170 71 
3 169 71 70 
3 171 172 73 
3 171 73 72 
3 172 169 70 
3 172 70 73 
3 68 69 70 
3 68 70 71 
3 173 174 175 
3 173 175 176 
3 177 178 179 
3 177 179 180 
3 177 180 181 
