ply
format ascii 1.0
comment VCGLIB generated
comment TextureFile SpaceInteriors_Texture.png
element vertex 62
property float x
property float y
property float z
property float nx
property float ny
property float nz
property uchar red
property uchar green
property uchar blue
property uchar alpha
property float texture_u
property float texture_v
element face 42
property list uchar int vertex_indices
end_header
-0.013779 0.148714 -2.44334 1 0 1 192 192 192 255 0.325339 0.061667
-0.013779 1.0502 -2.44334 2 0 2 192 192 192 255 0.325339 0.061667
-0.127098 1.0502 -2.44334 -1 0 1 192 192 192 255 0.325339 0.061667
-0.127098 0.148714 -2.44334 -2 0 2 192 192 192 255 0.325339 0.061667
-0.013779 0.148714 -2.55666 2 0 -1 192 192 192 255 0.357377 0.061667
-0.013779 1.0502 -2.55666 1 0 -2 192 192 192 255 0.357377 0.061667
-0.127098 1.0502 -2.55666 -2 0 -1 192 192 192 255 0.357377 0.061667
-0.127098 0.148714 -2.55666 -1 0 -2 192 192 192 255 0.357377 0.061667
0 0 0 4 -1 1 192 192 192 255 0.292358 0.061667
0 0 -5 3 -2 -2 192 192 192 255 0.292358 0.061667
0 1.19891 0 3 2 2 192 192 192 255 0.392243 0.061667
0 1.19891 -5 3 1 -1 192 192 192 255 0.392243 0.061667
-0.140877 1.19891 0 -3 1 1 192 192 192 255 0.392243 0.061667
-0.140877 1.19891 -5 -3 2 -2 192 192 192 255 0.392243 0.061667
-0.140877 0 0 -3 -2 2 192 192 192 255 0.292358 0.061667
-0.140877 0 -5 -3 -1 -1 192 192 192 255 0.292358 0.061667
0 0.148714 -0.140892 3 2 -1 192 192 192 255 0.357377 0.061667
0 0.148714 -4.85912 3 3 1 192 192 192 255 0.357377 0.061667
0 1.0502 -4.85912 3 -2 2 192 192 192 255 0.357377 0.061667
0 1.0502 -0.140892 3 -1 -2 192 192 192 255 0.357377 0.061667
-0.140877 1.0502 -0.140892 -3 -2 -1 192 192 192 255 0.357377 0.061667
-0.140877 1.0502 -4.85912 -3 -1 1 192 192 192 255 0.357377 0.061667
-0.140877 0.148714 -4.85912 -3 1 2 192 192 192 255 0.357377 0.061667
-0.140877 0.148714 -0.140892 -3 2 -2 192 192 192 255 0.357377 0.061667
0 0.148714 -2.5 2 1 0 192 192 192 255 0.357377 0.061667
-0.013779 1.0502 -2.44334 2 0 2 192 192 192 255 0.357377 0.061667
-0.013779 0.148714 -2.44334 1 0 1 192 192 192 255 0.357377 0.061667
-0.127098 0.148714 -2.44334 -2 0 2 192 192 192 255 0.357377 0.061667
-0.127098 1.0502 -2.44334 -1 0 1 192 192 192 255 0.357377 0.061667
-0.013779 1.0502 -2.55666 1 0 -2 192 192 192 255 0.32255 0.061667
-0.013779 0.148714 -2.55666 2 0 -1 192 192 192 255 0.32255 0.061667
-0.127098 0.148714 -2.55666 -1 0 -2 192 192 192 255 0.32255 0.061667
-0.127098 1.0502 -2.55666 -2 0 -1 192 192 192 255 0.32255 0.061667
0 0 -5 3 -2 -2 192 192 192 255 0.326363 0.061667
-0.140877 0 -5 -3 -1 -1 192 192 192 255 0.326363 0.061667
-0.140877 1.19891 -5 -3 2 -2 192 192 192 255 0.326363 0.061667
0 1.19891 -5 3 1 -1 192 192 192 255 0.326363 0.061667
-0.140877 0 0 -3 -2 2 192 192 192 255 0.326363 0.061667
0 0 0 4 -1 1 192 192 192 255 0.326363 0.061667
0 1.19891 0 3 2 2 192 192 192 255 0.326363 0.061667
-0.140877 1.19891 0 -3 1 1 192 192 192 255 0.326363 0.061667
0 0 0 4 -1 1 192 192 192 255 0.357377 0.061667
0 0 -5 3 -2 -2 192 192 192 255 0.357377 0.061667
0 1.19891 -5 3 1 -1 192 192 192 255 0.357377 0.061667
0 1.19891 0 3 2 2 192 192 192 255 0.357377 0.061667
-0.140877 1.19891 0 -3 1 1 192 192 192 255 0.357377 0.061667
-0.140877 1.19891 -5 -3 2 -2 192 192 192 255 0.357377 0.061667
-0.140877 0 -5 -3 -1 -1 192 192 192 255 0.357377 0.061667
-0.140877 0 0 -3 -2 2 192 192 192 255 0.357377 0.061667
0 1.0502 -0.140892 3 -1 -2 192 192 192 255 0.32255 0.061667
0 0.148714 -0.140892 3 2 -1 192 192 192 255 0.32255 0.061667
-0.140877 0.148714 -0.140892 -3 2 -2 192 192 192 255 0.32255 0.061667
-0.140877 1.0502 -0.140892 -3 -2 -1 192 192 192 255 0.32255 0.061667
0 1.0502 -4.85912 3 -2 2 192 192 192 255 0.32255 0.061667
-0.140877 1.0502 -4.85912 -3 -1 1 192 192 192 255 0.32255 0.061667
-0.140877 0.148714 -4.85912 -3 1 2 192 192 192 255 0.32255 0.061667
0 0.148714 -4.85912 3 3 1 192 192 192 255 0.32255 0.061667
0 0.148714 -4.85912 3 3 1 192 192 192 255 0.388108 0.061667
-0.140877 0.148714 -4.85912 -3 1 2 192 192 192 255 0.388108 0.061667
-0.140877 0.148714 -0.140892 -3 2 -2 192 192 192 255 0.388108 0.061667
0 0.148714 -0.140892 3 2 -1 192 192 192 255 0.388108 0.061667
0 0.148714 -2.5 2 1 0 192 192 192 255 0.388108 0.061667
3 3 0 1 
3 3 1 2 
3 25 26 4 
3 25 4 5 
3 27 28 6 
3 27 6 7 
3 29 30 31 
3 29 31 32 
3 10 11 13 
3 10 13 12 
3 14 15 9 
3 14 9 8 
3 33 34 35 
3 33 35 36 
3 37 38 39 
3 37 39 40 
3 41 42 17 
3 41 17 24 
3 41 24 16 
3 42 43 18 
3 42 18 17 
3 43 44 19 
3 43 19 18 
3 44 41 16 
3 44 16 19 
3 45 46 21 
3 45 21 20 
3 46 47 22 
3 46 22 21 
3 47 48 23 
3 47 23 22 
3 48 45 20 
3 48 20 23 
3 18 19 20 
3 18 20 21 
3 49 50 51 
3 49 51 52 
3 53 54 55 
3 53 55 56 
3 57 58 59 
3 57 59 60 
3 57 60 61 
