ply
format ascii 1.0
comment VCGLIB generated
comment TextureFile SpaceInteriors_Texture.png
element vertex 182
property float x
property float y
property float z
property float nx
property float ny
property float nz
property uchar red
property uchar green
property uchar blue
property uchar alpha
property float texture_u
property float texture_v
element face 160
property list uchar int vertex_indices
end_header
2e-006 3.75 2.5 4.95795 -6.83748e-006 1.2033 192 192 192 255 0.324667 0.063455
5 3.75 2.5 -3.98616 2.46486e-006 0.967446 192 192 192 255 0.324667 0.063455
2e-006 1.25 2.5 3.98616 -4.72506e-006 0.967446 192 192 192 255 0.324667 0.063455
5 1.25 2.5 -4.95795 -2.18832e-006 1.2033 192 192 192 255 0.324667 0.063455
1.25 -0 2.5 0 4.95796 1.2033 192 192 192 255 0.296692 0.063455
1.25 5 2.5 2.23263e-006 -3.98616 0.967442 192 192 192 255 0.324667 0.063455
3.75 -0 2.5 -2.23263e-006 3.98617 0.967443 192 192 192 255 0.324667 0.063455
3.75 5 2.5 -2.14577e-006 -4.95796 1.2033 192 192 192 255 0.324667 0.063455
1.54263 4.41473 0.088497 0.894474 -4.85241 3.24047 192 192 192 255 0.296692 0.063455
0.585276 3.45736 0.088498 3.58774 -1.60158 3.00462 192 192 192 255 0.296692 0.063455
0.585276 1.54263 0.0885 4.85242 0.894453 3.24048 192 192 192 255 0.324667 0.063455
1.54263 0.585271 0.088497 1.60158 3.58773 3.00462 192 192 192 255 0.296692 0.063455
3.45737 0.585271 0.088497 -0.894475 4.85242 3.24047 192 192 192 255 0.324667 0.063455
4.41473 1.54263 0.0885 -3.58774 1.60156 3.00462 192 192 192 255 0.296692 0.063455
4.41473 3.45736 0.088498 -4.85242 -0.894462 3.24048 192 192 192 255 0.324667 0.063455
3.45737 4.41473 0.088497 -1.60158 -3.58774 3.00462 192 192 192 255 0.296692 0.063455
1.54263 4.41473 0.220921 -0.707117 2.70713 3 192 192 192 255 0.269619 0.063455
0.585276 3.45736 0.220922 -2.41422 1.41422 3 192 192 192 255 0.269619 0.063455
0.585276 1.54263 0.220923 -2.70711 -0.707106 3 192 192 192 255 0.269619 0.063455
1.54263 0.585271 0.220921 -1.41422 -2.41421 3 192 192 192 255 0.269619 0.063455
3.45737 0.585271 0.220921 0.707106 -2.70711 3 192 192 192 255 0.269619 0.063455
4.41473 1.54263 0.220923 2.41422 -1.41421 3 192 192 192 255 0.269619 0.063455
4.41473 3.45736 0.220922 2.70712 0.707114 3 192 192 192 255 0.269619 0.063455
3.45737 4.41473 0.220921 1.41422 2.41424 3 192 192 192 255 0.269619 0.063455
1.62199 4.25601 0.220923 1.41421 -2.41418 3 192 192 192 255 0.357604 0.063455
0.743986 3.37801 0.220922 2.7071 -0.707097 3 192 192 192 255 0.357604 0.063455
0.743986 1.62199 0.220923 2.41422 1.41421 3 192 192 192 255 0.357604 0.063455
1.62199 0.743986 0.220921 0.707109 2.7071 3 192 192 192 255 0.357604 0.063455
3.37801 0.743986 0.220921 -1.41422 2.41421 3 192 192 192 255 0.357604 0.063455
4.25602 1.62199 0.220923 -2.70711 0.707105 3 192 192 192 255 0.357604 0.063455
4.25602 3.37801 0.220922 -2.41421 -1.41421 3 192 192 192 255 0.357604 0.063455
3.37801 4.25601 0.220923 -0.707099 -2.70708 3 192 192 192 255 0.357604 0.063455
1.62199 4.25601 0.0885 0.691715 -2.52671 2.04286 192 192 192 255 0.269619 0.063455
0.743986 3.37801 0.088498 2.36183 -1.39882 1.57498 192 192 192 255 0.269619 0.063455
0.743986 1.62199 0.0885 2.61058 0.691715 3.42772 192 192 192 255 0.269619 0.063455
1.62199 0.743986 0.088497 1.39882 2.32862 1.08004 192 192 192 255 0.269619 0.063455
3.37801 0.743986 0.088497 -0.691714 2.55132 2.07758 192 192 192 255 0.269619 0.063455
4.25602 1.62199 0.0885 -2.34193 1.39882 2.42802 192 192 192 255 0.269619 0.063455
4.25602 3.37801 0.088498 -2.63047 -0.691711 2.57469 192 192 192 255 0.269619 0.063455
3.37801 4.25601 0.0885 -1.39882 -2.31632 1.04627 192 192 192 255 0.269619 0.063455
5 -0 2.5 -5.32306 5.32305 3.50036 192 192 192 255 0.296692 0.063455
0 -0 2.5 5.32306 5.32304 3.50036 192 192 192 255 0.296692 0.063455
4e-006 5 2.5 5.32306 -5.32305 3.50036 192 192 192 255 0.296692 0.063455
5 5 2.5 -5.32306 -5.32305 3.50036 192 192 192 255 0.296692 0.063455
3.5332 4.04424 0.106031 1.02814 2.18039 2.56846 192 192 192 255 0.329445 0.062542
3.5332 0.993149 0.10603 2.04803 -1.08559 2.42584 192 192 192 255 0.329445 0.062542
1.4668 0.993149 0.10603 -1.04803 -2.15578 3.42338 192 192 192 255 0.329445 0.062542
1.4668 4.04424 0.106031 -2.02814 1.09789 1.57187 192 192 192 255 0.329445 0.062542
1.4668 3.31709 0.10603 -1.06125 -2 3.52501 192 192 192 255 0.329445 0.062542
1.4668 2.85503 0.106031 -2.05689 1.00001 4.34551 192 192 192 255 0.329445 0.062542
3.5332 3.31709 0.10603 2.037 -0.999995 3.5253 192 192 192 255 0.329445 0.062542
3.5332 2.85503 0.106031 1.08114 2 4.34521 192 192 192 255 0.329445 0.062542
1.66793 3.31709 0.10603 -2 -0.999996 2 192 192 192 255 0.332093 0.06246
1.66793 2.85503 0.106031 -1 2 1 192 192 192 255 0.332093 0.06246
3.33208 3.31709 0.10603 1 -2 1 192 192 192 255 0.332093 0.06246
3.33208 2.85503 0.106031 2 1 2 192 192 192 255 0.332093 0.06246
3.44476 3.95579 -3e-006 -1 -2 0 192 192 192 255 0.17564 0.052424
3.44476 3.40553 -3e-006 -2 1 0 192 192 192 255 0.17564 0.052424
3.44476 1.08159 0 -2 2 0 192 192 192 255 0.17564 0.052424
1.55525 1.08159 0 2 1 0 192 192 192 255 0.17564 0.052424
1.55525 3.40553 -3e-006 2 1 0 192 192 192 255 0.17564 0.052424
1.55525 3.95579 -3e-006 1 -1 0 192 192 192 255 0.17564 0.052424
1.55525 2.76659 -1e-006 1 -1 0 192 192 192 255 0.17564 0.052424
3.44476 2.76659 -1e-006 -1 -1 0 192 192 192 255 0.17564 0.052424
1.75637 3.40553 -3e-006 1 2 0 192 192 192 255 0.17564 0.052424
1.75637 2.76659 -1e-006 2 -2 0 192 192 192 255 0.17564 0.052424
3.24363 3.40553 -3e-006 -1 2 0 192 192 192 255 0.17564 0.052424
3.24363 2.76659 -1e-006 -2 -2 0 192 192 192 255 0.17564 0.052424
3.5332 4.04424 0.140191 2 0.999998 3 192 192 192 255 0.198978 0.062033
3.5332 3.31709 0.14019 1 -2 3 192 192 192 255 0.198978 0.062033
3.44476 3.95579 0.140191 -2 -1 3 192 192 192 255 0.198978 0.062033
3.44476 3.40553 0.14019 -1 2 3 192 192 192 255 0.198978 0.062033
1.4668 0.993149 0.140189 -2 -1 3 192 192 192 255 0.198978 0.062033
3.5332 0.993149 0.140189 1 -2 3 192 192 192 255 0.198978 0.062033
3.44476 1.08159 0.140189 -1 0.999999 3 192 192 192 255 0.17564 0.052424
1.55525 1.08159 0.140189 1 2 3 192 192 192 255 0.17564 0.052424
1.4668 4.04424 0.140191 -1 2 3 192 192 192 255 0.198978 0.062033
1.4668 3.31709 0.14019 -2 -1 3 192 192 192 255 0.198978 0.062033
1.55525 3.40553 0.14019 1 2 3 192 192 192 255 0.17564 0.052424
1.55525 3.95579 0.140191 2 -2 3 192 192 192 255 0.17564 0.052424
1.4668 2.85503 0.140191 -1 2 3 192 192 192 255 0.198978 0.062033
1.55525 2.76659 0.140191 2 -2 3 192 192 192 255 0.17564 0.052424
3.5332 2.85503 0.140191 2 0.999999 3 192 192 192 255 0.198978 0.062033
3.44476 2.76659 0.140191 -2 -2 3 192 192 192 255 0.17564 0.052424
1.66793 3.31709 0.14019 -1 -2 3 192 192 192 255 0.198978 0.062033
1.75637 3.40553 0.14019 2 1 3 192 192 192 255 0.17564 0.052424
1.66793 2.85503 0.140191 -2 1 3 192 192 192 255 0.198978 0.062033
1.75637 2.76659 0.140191 1 -0.999996 3 192 192 192 255 0.17564 0.052424
3.33208 3.31709 0.14019 2 -0.999998 3 192 192 192 255 0.198978 0.062033
3.24363 3.40553 0.14019 -2 1 3 192 192 192 255 0.198978 0.062033
3.33208 2.85503 0.140191 1 2 3 192 192 192 255 0.198978 0.062033
3.24363 2.76659 0.140191 -1 -0.999998 3 192 192 192 255 0.17564 0.052424
0.585276 3.45736 0.088498 3.58774 -1.60158 3.00462 192 192 192 255 0.324667 0.063455
1.25 -0 2.5 0 4.95796 1.2033 192 192 192 255 0.324667 0.063455
1.54263 0.585271 0.088497 1.60158 3.58773 3.00462 192 192 192 255 0.324667 0.063455
3.45737 0.585271 0.088497 -0.894475 4.85242 3.24047 192 192 192 255 0.296692 0.063455
4.41473 1.54263 0.0885 -3.58774 1.60156 3.00462 192 192 192 255 0.324667 0.063455
4.41473 3.45736 0.088498 -4.85242 -0.894462 3.24048 192 192 192 255 0.296692 0.063455
1.54263 4.41473 0.088497 0.894474 -4.85241 3.24047 192 192 192 255 0.324667 0.063455
3.45737 4.41473 0.088497 -1.60158 -3.58774 3.00462 192 192 192 255 0.324667 0.063455
1.54263 4.41473 0.088497 0.894474 -4.85241 3.24047 192 192 192 255 0.269619 0.063455
0.585276 3.45736 0.088498 3.58774 -1.60158 3.00462 192 192 192 255 0.269619 0.063455
0.585276 1.54263 0.0885 4.85242 0.894453 3.24048 192 192 192 255 0.269619 0.063455
1.54263 0.585271 0.088497 1.60158 3.58773 3.00462 192 192 192 255 0.269619 0.063455
3.45737 0.585271 0.088497 -0.894475 4.85242 3.24047 192 192 192 255 0.269619 0.063455
4.41473 1.54263 0.0885 -3.58774 1.60156 3.00462 192 192 192 255 0.269619 0.063455
4.41473 3.45736 0.088498 -4.85242 -0.894462 3.24048 192 192 192 255 0.269619 0.063455
3.45737 4.41473 0.088497 -1.60158 -3.58774 3.00462 192 192 192 255 0.269619 0.063455
1.54263 4.41473 0.220921 -0.707117 2.70713 3 192 192 192 255 0.357604 0.063455
0.585276 3.45736 0.220922 -2.41422 1.41422 3 192 192 192 255 0.357604 0.063455
0.585276 1.54263 0.220923 -2.70711 -0.707106 3 192 192 192 255 0.357604 0.063455
1.54263 0.585271 0.220921 -1.41422 -2.41421 3 192 192 192 255 0.357604 0.063455
3.45737 0.585271 0.220921 0.707106 -2.70711 3 192 192 192 255 0.357604 0.063455
4.41473 1.54263 0.220923 2.41422 -1.41421 3 192 192 192 255 0.357604 0.063455
4.41473 3.45736 0.220922 2.70712 0.707114 3 192 192 192 255 0.357604 0.063455
3.45737 4.41473 0.220921 1.41422 2.41424 3 192 192 192 255 0.357604 0.063455
1.62199 4.25601 0.220923 1.41421 -2.41418 3 192 192 192 255 0.269619 0.063455
0.743986 3.37801 0.220922 2.7071 -0.707097 3 192 192 192 255 0.269619 0.063455
0.743986 1.62199 0.220923 2.41422 1.41421 3 192 192 192 255 0.269619 0.063455
1.62199 0.743986 0.220921 0.707109 2.7071 3 192 192 192 255 0.269619 0.063455
3.37801 0.743986 0.220921 -1.41422 2.41421 3 192 192 192 255 0.269619 0.063455
4.25602 1.62199 0.220923 -2.70711 0.707105 3 192 192 192 255 0.269619 0.063455
4.25602 3.37801 0.220922 -2.41421 -1.41421 3 192 192 192 255 0.269619 0.063455
3.37801 4.25601 0.220923 -0.707099 -2.70708 3 192 192 192 255 0.269619 0.063455
2e-006 1.25 2.5 3.98616 -4.72506e-006 0.967446 192 192 192 255 0.296692 0.063455
0.585276 1.54263 0.0885 4.85242 0.894453 3.24048 192 192 192 255 0.296692 0.063455
3.75 -0 2.5 -2.23263e-006 3.98617 0.967443 192 192 192 255 0.296692 0.063455
5 1.25 2.5 -4.95795 -2.18832e-006 1.2033 192 192 192 255 0.296692 0.063455
5 3.75 2.5 -3.98616 2.46486e-006 0.967446 192 192 192 255 0.296692 0.063455
3.75 5 2.5 -2.14577e-006 -4.95796 1.2033 192 192 192 255 0.296692 0.063455
1.25 5 2.5 2.23263e-006 -3.98616 0.967442 192 192 192 255 0.296692 0.063455
2e-006 3.75 2.5 4.95795 -6.83748e-006 1.2033 192 192 192 255 0.296692 0.063455
3.37801 4.25601 0.0885 -1.39882 -2.31632 1.04627 192 192 192 255 0.329445 0.062542
4.25602 3.37801 0.088498 -2.63047 -0.691711 2.57469 192 192 192 255 0.329445 0.062542
4.25602 1.62199 0.0885 -2.34193 1.39882 2.42802 192 192 192 255 0.329445 0.062542
3.37801 0.743986 0.088497 -0.691714 2.55132 2.07758 192 192 192 255 0.329445 0.062542
1.62199 0.743986 0.088497 1.39882 2.32862 1.08004 192 192 192 255 0.329445 0.062542
0.743986 1.62199 0.0885 2.61058 0.691715 3.42772 192 192 192 255 0.329445 0.062542
0.743986 3.37801 0.088498 2.36183 -1.39882 1.57498 192 192 192 255 0.329445 0.062542
1.62199 4.25601 0.0885 0.691715 -2.52671 2.04286 192 192 192 255 0.329445 0.062542
0.743986 1.62199 0.0885 2.61058 0.691715 3.42772 192 192 192 255 0.332093 0.06246
1.4668 2.85503 0.106031 -2.05689 1.00001 4.34551 192 192 192 255 0.332093 0.06246
1.4668 3.31709 0.10603 -1.06125 -2 3.52501 192 192 192 255 0.332093 0.06246
0.743986 3.37801 0.088498 2.36183 -1.39882 1.57498 192 192 192 255 0.332093 0.06246
3.5332 3.31709 0.10603 2.037 -0.999995 3.5253 192 192 192 255 0.332093 0.06246
3.5332 2.85503 0.106031 1.08114 2 4.34521 192 192 192 255 0.332093 0.06246
3.44476 1.08159 0.140189 -1 0.999999 3 192 192 192 255 0.198978 0.062033
1.55525 1.08159 0.140189 1 2 3 192 192 192 255 0.198978 0.062033
1.55525 3.40553 0.14019 1 2 3 192 192 192 255 0.198978 0.062033
1.55525 3.95579 0.140191 2 -2 3 192 192 192 255 0.198978 0.062033
1.55525 2.76659 0.140191 2 -2 3 192 192 192 255 0.198978 0.062033
3.44476 2.76659 0.140191 -2 -2 3 192 192 192 255 0.198978 0.062033
1.75637 3.40553 0.14019 2 1 3 192 192 192 255 0.198978 0.062033
1.75637 2.76659 0.140191 1 -0.999996 3 192 192 192 255 0.198978 0.062033
3.24363 2.76659 0.140191 -1 -0.999998 3 192 192 192 255 0.198978 0.062033
3.5332 3.31709 0.10603 2.037 -0.999995 3.5253 192 192 192 255 0.181131 0.060661
3.5332 4.04424 0.106031 1.02814 2.18039 2.56846 192 192 192 255 0.181131 0.06066
3.5332 4.04424 0.140191 2 0.999998 3 192 192 192 255 0.181131 0.06066
3.5332 3.31709 0.14019 1 -2 3 192 192 192 255 0.181131 0.060661
3.44476 3.40553 0.14019 -1 2 3 192 192 192 255 0.17564 0.052424
3.44476 3.95579 0.140191 -2 -1 3 192 192 192 255 0.17564 0.052424
1.4668 0.993149 0.10603 -1.04803 -2.15578 3.42338 192 192 192 255 0.181133 0.060661
3.5332 0.993149 0.10603 2.04803 -1.08559 2.42584 192 192 192 255 0.181131 0.060661
3.5332 0.993149 0.140189 1 -2 3 192 192 192 255 0.181131 0.060661
1.4668 0.993149 0.140189 -2 -1 3 192 192 192 255 0.181133 0.060661
1.4668 4.04424 0.106031 -2.02814 1.09789 1.57187 192 192 192 255 0.181133 0.06066
1.4668 3.31709 0.10603 -1.06125 -2 3.52501 192 192 192 255 0.181133 0.060661
1.4668 3.31709 0.14019 -2 -1 3 192 192 192 255 0.181133 0.060661
1.4668 4.04424 0.140191 -1 2 3 192 192 192 255 0.181133 0.06066
1.4668 2.85503 0.106031 -2.05689 1.00001 4.34551 192 192 192 255 0.181133 0.060661
1.4668 2.85503 0.140191 -1 2 3 192 192 192 255 0.181133 0.060661
3.5332 2.85503 0.106031 1.08114 2 4.34521 192 192 192 255 0.181131 0.060661
3.5332 2.85503 0.140191 2 0.999999 3 192 192 192 255 0.181131 0.060661
1.66793 3.31709 0.10603 -2 -0.999996 2 192 192 192 255 0.181133 0.060661
1.66793 3.31709 0.14019 -1 -2 3 192 192 192 255 0.181133 0.060661
1.66793 2.85503 0.106031 -1 2 1 192 192 192 255 0.181133 0.060661
1.66793 2.85503 0.140191 -2 1 3 192 192 192 255 0.181133 0.060661
3.33208 3.31709 0.10603 1 -2 1 192 192 192 255 0.181131 0.060661
3.33208 3.31709 0.14019 2 -0.999998 3 192 192 192 255 0.181131 0.060661
3.24363 3.40553 0.14019 -2 1 3 192 192 192 255 0.17564 0.052424
3.33208 2.85503 0.106031 2 1 2 192 192 192 255 0.181131 0.060661
3.33208 2.85503 0.140191 1 2 3 192 192 192 255 0.181131 0.060661
3 8 42 9 
3 0 2 10 
3 0 10 92 
3 11 41 4 
3 93 6 12 
3 93 12 94 
3 95 40 13 
3 3 1 14 
3 3 14 96 
3 97 43 15 
3 7 5 98 
3 7 98 99 
3 100 101 17 
3 100 17 16 
3 101 102 18 
3 101 18 17 
3 102 103 19 
3 102 19 18 
3 103 104 20 
3 103 20 19 
3 104 105 21 
3 104 21 20 
3 105 106 22 
3 105 22 21 
3 106 107 23 
3 106 23 22 
3 107 100 16 
3 107 16 23 
3 108 109 25 
3 108 25 24 
3 109 110 26 
3 109 26 25 
3 110 111 27 
3 110 27 26 
3 111 112 28 
3 111 28 27 
3 112 113 29 
3 112 29 28 
3 113 114 30 
3 113 30 29 
3 114 115 31 
3 114 31 30 
3 115 108 24 
3 115 24 31 
3 116 117 33 
3 116 33 32 
3 117 118 34 
3 117 34 33 
3 118 119 35 
3 118 35 34 
3 119 120 36 
3 119 36 35 
3 120 121 37 
3 120 37 36 
3 121 122 38 
3 121 38 37 
3 122 123 39 
3 122 39 38 
3 123 116 32 
3 123 32 39 
3 124 41 125 
3 125 41 11 
3 126 40 95 
3 13 40 127 
3 128 43 97 
3 15 43 129 
3 130 42 8 
3 9 42 131 
3 132 44 133 
3 133 44 50 
3 134 45 135 
3 135 45 46 
3 135 46 136 
3 136 46 137 
3 137 46 49 
3 138 47 139 
3 139 47 44 
3 139 44 132 
3 48 47 138 
3 140 141 142 
3 140 142 143 
3 51 45 134 
3 133 50 51 
3 133 51 134 
3 141 53 52 
3 141 52 142 
3 144 54 55 
3 144 55 145 
3 58 59 75 
3 58 75 74 
3 60 61 79 
3 60 79 78 
3 59 62 81 
3 59 81 75 
3 64 60 78 
3 64 78 85 
3 65 64 85 
3 65 85 87 
3 67 63 83 
3 67 83 91 
3 69 68 70 
3 69 70 71 
3 72 73 146 
3 72 146 147 
3 76 77 148 
3 76 148 149 
3 68 76 149 
3 68 149 70 
3 80 72 147 
3 80 147 150 
3 73 82 151 
3 73 151 146 
3 77 84 152 
3 77 152 148 
3 86 80 150 
3 86 150 153 
3 84 86 153 
3 84 153 152 
3 88 69 71 
3 88 71 89 
3 82 90 154 
3 82 154 151 
3 90 88 89 
3 90 89 154 
3 155 156 157 
3 155 157 158 
3 57 159 160 
3 57 160 56 
3 161 162 163 
3 161 163 164 
3 165 166 167 
3 165 167 168 
3 156 165 168 
3 156 168 157 
3 56 160 79 
3 56 79 61 
3 169 161 164 
3 169 164 170 
3 162 171 172 
3 162 172 163 
3 58 74 83 
3 58 83 63 
3 166 173 174 
3 166 174 167 
3 175 169 170 
3 175 170 176 
3 65 87 81 
3 65 81 62 
3 173 175 176 
3 173 176 174 
3 177 155 158 
3 177 158 178 
3 66 179 159 
3 66 159 57 
3 171 180 181 
3 171 181 172 
3 180 177 178 
3 180 178 181 
3 67 91 179 
3 67 179 66 
