ply
format ascii 1.0
comment VCGLIB generated
comment TextureFile SpaceInteriors_Texture.png
element vertex 116
property float x
property float y
property float z
property float nx
property float ny
property float nz
property uchar red
property uchar green
property uchar blue
property uchar alpha
property float texture_u
property float texture_v
element face 68
property list uchar int vertex_indices
end_header
-0.21767 0 0.060205 -1 -1 2 192 192 192 255 0.265187 0.061667
0 0 0.060205 2 -2 1 192 192 192 255 0.265187 0.061667
-0.21767 5 0.060205 -2 2 1 192 192 192 255 0.265187 0.061667
0 5 0.060205 1 1 2 192 192 192 255 0.265187 0.061667
-0.21767 5 -0.417513 -1 1 -2 192 192 192 255 0.300052 0.061667
0 5 -0.417513 2 2 -1 192 192 192 255 0.300052 0.061667
-0.21767 0 -0.417513 -2 -2 -1 192 192 192 255 0.265187 0.061667
0 0 -0.417513 1 -1 -2 192 192 192 255 0.265187 0.061667
-5 0 0.060205 -1 -1 2 192 192 192 255 0.265187 0.061667
-4.7881 0 0.060205 2 -2 1 192 192 192 255 0.265187 0.061667
-5 5 0.060205 -2 2 1 192 192 192 255 0.265187 0.061667
-4.7881 5 0.060205 1 1 2 192 192 192 255 0.265187 0.061667
-5 5 -0.417513 -1 1 -2 192 192 192 255 0.300052 0.061667
-4.7881 5 -0.417513 2 2 -1 192 192 192 255 0.300052 0.061667
-5 0 -0.417513 -2 -2 -1 192 192 192 255 0.265187 0.061667
-4.7881 0 -0.417513 1 -1 -2 192 192 192 255 0.265187 0.061667
-4.7881 0 -0.417513 0 -0.257134 0.966376 192 192 192 255 0.918815 0.638601
-0.21767 0 -0.417513 0 -0.257134 0.966376 192 192 192 255 0.327754 0.060391
-4.7881 5 0 -1.68613e-007 -0.445829 2.96669 192 192 192 255 0.327754 0.060391
-0.21767 5 0 0 -0.29722 1.97779 192 192 192 255 0.327754 0.060391
-4.7881 1.30151 -0.071205 0 -0.162054 2.86867 192 192 192 255 0.358735 0.060391
-0.21767 1.30151 -0.071205 0 0.542374 4.74051 192 192 192 255 0.327754 0.060391
-4.7881 2.22174 -0.417513 -8.43065e-008 0.258591 4.83853 192 192 192 255 0.358735 0.060391
-0.21767 2.22174 -0.417513 0 0.90803 3.79666 192 192 192 255 0.327754 0.060391
-2.50289 5 0 4.41323e-007 -0.59444 3.95558 192 192 192 255 0.327754 0.060391
-2.50289 2.22174 -0.417513 8.63267e-007 0.665804 8.68816 192 192 192 255 0.327754 0.060391
-2.50289 1.30151 -0.071205 -9.69002e-009 1.2468 6.61235 192 192 192 255 0.327754 0.060391
-2.50289 0 -0.417513 0 -1.02854 3.8655 192 192 192 255 0.327754 0.060391
-2.6886 4.09044 -0.136688 -0.999999 -2.42362 2.66947 192 192 192 255 0.327754 0.060391
-2.6886 2.41874 -0.387907 -2 0.543059 3.1153 192 192 192 255 0.327754 0.060391
-3.68831 4.09044 -0.136688 2 -1.43473 2.81808 192 192 192 255 0.327754 0.060391
-3.68831 2.41874 -0.387907 1 1.53196 3.2639 192 192 192 255 0.327754 0.060391
-2.6886 4.12482 -0.365471 -2 -1.1375 0.840285 192 192 192 255 0.991111 0.873624
-2.6886 2.45312 -0.61669 -1 1.68057 2.27501 192 192 192 255 0.991111 0.763175
-3.68831 4.12482 -0.365471 1 -2.27501 1.68057 192 192 192 255 0.887817 0.873624
-3.68831 2.45312 -0.61669 2 0.840287 1.1375 192 192 192 255 0.887817 0.763175
-2.24339 1.99481 -0.332113 2 0.120722 3.15998 192 192 192 255 0.358735 0.060391
-0.477165 1.99481 -0.332113 -1 -0.815194 3.51219 192 192 192 255 0.358735 0.060391
-2.24339 1.52844 -0.156605 1 2.92848 2.10332 192 192 192 255 0.358735 0.060391
-0.477165 1.52844 -0.156605 -2 1.99256 2.45554 192 192 192 255 0.358735 0.060391
-2.24339 1.9383 -0.482275 1 -1.51962 1.64035 192 192 192 255 0.508621 0.748185
-0.477165 1.9383 -0.482275 -2 -0.231486 2.22406 192 192 192 255 0.749305 0.748185
-2.24339 1.47193 -0.306767 2 1.64035 1.51962 192 192 192 255 0.508621 0.673737
-0.477165 1.47193 -0.306767 -1 2.22405 0.231483 192 192 192 255 0.749305 0.673737
-0.21767 5 0.060205 -2 2 1 192 192 192 255 0.300052 0.061667
0 5 0.060205 1 1 2 192 192 192 255 0.300052 0.061667
-0.21767 5 -0.417513 -1 1 -2 192 192 192 255 0.265187 0.061667
0 5 -0.417513 2 2 -1 192 192 192 255 0.265187 0.061667
-0.21767 0 -0.417513 -2 -2 -1 192 192 192 255 0.200168 0.061667
0 0 -0.417513 1 -1 -2 192 192 192 255 0.200168 0.061667
0 0 0.060205 2 -2 1 192 192 192 255 0.200168 0.061667
-0.21767 0 0.060205 -1 -1 2 192 192 192 255 0.200168 0.061667
0 0 0.060205 2 -2 1 192 192 192 255 0.233148 0.061667
0 0 -0.417513 1 -1 -2 192 192 192 255 0.233148 0.061667
0 5 -0.417513 2 2 -1 192 192 192 255 0.233148 0.061667
0 5 0.060205 1 1 2 192 192 192 255 0.233148 0.061667
-0.21767 0 -0.417513 -2 -2 -1 192 192 192 255 0.233148 0.061667
-0.21767 0 0.060205 -1 -1 2 192 192 192 255 0.233148 0.061667
-0.21767 5 0.060205 -2 2 1 192 192 192 255 0.233148 0.061667
-0.21767 5 -0.417513 -1 1 -2 192 192 192 255 0.233148 0.061667
-5 5 0.060205 -2 2 1 192 192 192 255 0.300052 0.061667
-4.7881 5 0.060205 1 1 2 192 192 192 255 0.300052 0.061667
-5 5 -0.417513 -1 1 -2 192 192 192 255 0.265187 0.061667
-4.7881 5 -0.417513 2 2 -1 192 192 192 255 0.265187 0.061667
-5 0 -0.417513 -2 -2 -1 192 192 192 255 0.200168 0.061667
-4.7881 0 -0.417513 1 -1 -2 192 192 192 255 0.200168 0.061667
-4.7881 0 0.060205 2 -2 1 192 192 192 255 0.200168 0.061667
-5 0 0.060205 -1 -1 2 192 192 192 255 0.200168 0.061667
-4.7881 0 0.060205 2 -2 1 192 192 192 255 0.233148 0.061667
-4.7881 0 -0.417513 1 -1 -2 192 192 192 255 0.233148 0.061667
-4.7881 5 -0.417513 2 2 -1 192 192 192 255 0.233148 0.061667
-4.7881 5 0.060205 1 1 2 192 192 192 255 0.233148 0.061667
-5 0 -0.417513 -2 -2 -1 192 192 192 255 0.233148 0.061667
-5 0 0.060205 -1 -1 2 192 192 192 255 0.233148 0.061667
-5 5 0.060205 -2 2 1 192 192 192 255 0.233148 0.061667
-5 5 -0.417513 -1 1 -2 192 192 192 255 0.233148 0.061667
-2.50289 1.30151 -0.071205 -9.69002e-009 1.2468 6.61235 192 192 192 255 0.358735 0.060391
-2.50289 2.22174 -0.417513 8.63267e-007 0.665804 8.68816 192 192 192 255 0.358735 0.060391
-2.50289 0 -0.417513 0 -1.02854 3.8655 192 192 192 255 0.991532 0.638601
-2.50289 1.30151 -0.071205 -9.69002e-009 1.2468 6.61235 192 192 192 255 0.991532 0.704368
-4.7881 1.30151 -0.071205 0 -0.162054 2.86867 192 192 192 255 0.918815 0.704368
-4.7881 2.22174 -0.417513 -8.43065e-008 0.258591 4.83853 192 192 192 255 0.327754 0.060391
-2.6886 2.41874 -0.387907 -2 0.543059 3.1153 192 192 192 255 0.267893 0.060391
-2.6886 4.09044 -0.136688 -0.999999 -2.42362 2.66947 192 192 192 255 0.267893 0.060391
-2.6886 4.12482 -0.365471 -2 -1.1375 0.840285 192 192 192 255 0.267893 0.060391
-2.6886 2.45312 -0.61669 -1 1.68057 2.27501 192 192 192 255 0.267893 0.060391
-2.6886 4.09044 -0.136688 -0.999999 -2.42362 2.66947 192 192 192 255 0.236765 0.060391
-3.68831 4.09044 -0.136688 2 -1.43473 2.81808 192 192 192 255 0.236765 0.060391
-3.68831 4.12482 -0.365471 1 -2.27501 1.68057 192 192 192 255 0.236765 0.060391
-2.6886 4.12482 -0.365471 -2 -1.1375 0.840285 192 192 192 255 0.236765 0.060391
-3.68831 4.09044 -0.136688 2 -1.43473 2.81808 192 192 192 255 0.267893 0.060391
-3.68831 2.41874 -0.387907 1 1.53196 3.2639 192 192 192 255 0.267893 0.060391
-3.68831 2.45312 -0.61669 2 0.840287 1.1375 192 192 192 255 0.267893 0.060391
-3.68831 4.12482 -0.365471 1 -2.27501 1.68057 192 192 192 255 0.267893 0.060391
-3.68831 2.41874 -0.387907 1 1.53196 3.2639 192 192 192 255 0.356487 0.060391
-2.6886 2.41874 -0.387907 -2 0.543059 3.1153 192 192 192 255 0.356487 0.060391
-2.6886 2.45312 -0.61669 -1 1.68057 2.27501 192 192 192 255 0.356487 0.060391
-3.68831 2.45312 -0.61669 2 0.840287 1.1375 192 192 192 255 0.356487 0.060391
-0.21767 2.22174 -0.417513 0 0.90803 3.79666 192 192 192 255 0.358735 0.060391
-0.21767 1.30151 -0.071205 0 0.542374 4.74051 192 192 192 255 0.358735 0.060391
-0.477165 1.99481 -0.332113 -1 -0.815194 3.51219 192 192 192 255 0.267972 0.061416
-2.24339 1.99481 -0.332113 2 0.120722 3.15998 192 192 192 255 0.267972 0.061416
-2.24339 1.9383 -0.482275 1 -1.51962 1.64035 192 192 192 255 0.267972 0.061416
-0.477165 1.9383 -0.482275 -2 -0.231486 2.22406 192 192 192 255 0.267972 0.061416
-2.24339 1.99481 -0.332113 2 0.120722 3.15998 192 192 192 255 0.295144 0.061416
-2.24339 1.52844 -0.156605 1 2.92848 2.10332 192 192 192 255 0.295144 0.061416
-2.24339 1.47193 -0.306767 2 1.64035 1.51962 192 192 192 255 0.295144 0.061416
-2.24339 1.9383 -0.482275 1 -1.51962 1.64035 192 192 192 255 0.295144 0.061416
-2.24339 1.52844 -0.156605 1 2.92848 2.10332 192 192 192 255 0.386849 0.061416
-0.477165 1.52844 -0.156605 -2 1.99256 2.45554 192 192 192 255 0.386849 0.061416
-0.477165 1.47193 -0.306767 -1 2.22405 0.231483 192 192 192 255 0.386849 0.061416
-2.24339 1.47193 -0.306767 2 1.64035 1.51962 192 192 192 255 0.386849 0.061416
-0.477165 1.52844 -0.156605 -2 1.99256 2.45554 192 192 192 255 0.295144 0.061416
-0.477165 1.99481 -0.332113 -1 -0.815194 3.51219 192 192 192 255 0.295144 0.061416
-0.477165 1.9383 -0.482275 -2 -0.231486 2.22406 192 192 192 255 0.295144 0.061416
-0.477165 1.47193 -0.306767 -1 2.22405 0.231483 192 192 192 255 0.295144 0.061416
3 0 1 3 
3 0 3 2 
3 44 45 5 
3 44 5 4 
3 46 47 7 
3 46 7 6 
3 48 49 50 
3 48 50 51 
3 52 53 54 
3 52 54 55 
3 56 57 58 
3 56 58 59 
3 8 9 11 
3 8 11 10 
3 60 61 13 
3 60 13 12 
3 62 63 15 
3 62 15 14 
3 64 65 66 
3 64 66 67 
3 68 69 70 
3 68 70 71 
3 72 73 74 
3 72 74 75 
3 19 24 25 
3 19 25 23 
3 21 26 27 
3 21 27 17 
3 41 40 42 
3 41 42 43 
3 33 32 34 
3 33 34 35 
3 76 77 22 
3 76 22 20 
3 78 79 80 
3 78 80 16 
3 25 24 28 
3 25 28 29 
3 24 18 30 
3 24 30 28 
3 18 81 31 
3 18 31 30 
3 81 25 29 
3 81 29 31 
3 82 83 84 
3 82 84 85 
3 86 87 88 
3 86 88 89 
3 90 91 92 
3 90 92 93 
3 94 95 96 
3 94 96 97 
3 98 77 36 
3 98 36 37 
3 77 76 38 
3 77 38 36 
3 76 99 39 
3 76 39 38 
3 99 98 37 
3 99 37 39 
3 100 101 102 
3 100 102 103 
3 104 105 106 
3 104 106 107 
3 108 109 110 
3 108 110 111 
3 112 113 114 
3 112 114 115 
