ply
format ascii 1.0
comment VCGLIB generated
comment TextureFile SpaceInteriors_Texture.png
element vertex 67
property float x
property float y
property float z
property float nx
property float ny
property float nz
property uchar red
property uchar green
property uchar blue
property uchar alpha
property float texture_u
property float texture_v
element face 48
property list uchar int vertex_indices
end_header
-5 0 -0 0 0 3 192 192 192 255 0.32932 0.061786
0 0 -0 0 0 3 192 192 192 255 0.32932 0.061786
-5 5 -0 0 0 3 192 192 192 255 0.32932 0.061786
0 5 -0 0 0 2 192 192 192 255 0.32932 0.061786
-5 2.5 -0 0 0 3 192 192 192 255 0.32932 0.061786
0 2.5 -0 0 0 4 192 192 192 255 0.32932 0.061786
-2.5 0 -0 0 0 6 192 192 192 255 0.32932 0.061786
-2.5 2.5 -0 0 0 8 192 192 192 255 0.32932 0.061786
-2.5 5 -0 0 0 4 192 192 192 255 0.32932 0.061786
-2.09745 2.14319 -0 2 -1 3 192 192 192 255 0.32932 0.061786
-0.402554 2.14319 -0 -1 -2 3 192 192 192 255 0.32932 0.061786
-2.09745 0.356813 -0 1 2 3 192 192 192 255 0.32932 0.061786
-0.402554 0.356813 -0 -2 1 3 192 192 192 255 0.32932 0.061786
-2.09745 2.14319 -0.188693 1 -2 1 192 192 192 255 0.645299 0.992904
-0.402554 2.14319 -0.188693 -2 -1 2 192 192 192 255 0.750039 0.992904
-2.09745 0.356813 -0.188693 2 1 2 192 192 192 255 0.645299 0.880034
-0.402554 0.356813 -0.188693 -1 2 1 192 192 192 255 0.750039 0.880034
-2.84323 2.5 -0 -3 0 3 192 192 192 255 0.32932 0.061786
-2.84323 4.65677 -0 -1 -2 3 192 192 192 255 0.32932 0.061786
-4.65677 4.65677 -0 2 -1 3 192 192 192 255 0.32932 0.061786
-4.65677 2.5 -0 3 0 3 192 192 192 255 0.32932 0.061786
-2.84323 0.343232 -0 -2 1 3 192 192 192 255 0.32932 0.061786
-4.65677 0.343232 -0 1 2 3 192 192 192 255 0.32932 0.061786
-2.84323 2.5 -0.188693 -3 0 3 192 192 192 255 0.749592 0.873787
-2.84323 4.65677 -0.188693 -2 -1 1 192 192 192 255 0.99181 0.873787
-4.65677 4.65677 -0.188693 1 -2 2 192 192 192 255 0.99181 0.993355
-4.65677 2.5 -0.188693 3 0 3 192 192 192 255 0.749592 0.993355
-2.84323 0.343232 -0.188693 -1 2 2 192 192 192 255 0.749982 0.7047
-4.65677 0.343232 -0.188693 2 1 1 192 192 192 255 0.749982 0.874551
-2.84323 2.5 -0.188693 -3 0 3 192 192 192 255 0.989996 0.7047
-4.65677 2.5 -0.188693 3 0 3 192 192 192 255 0.989996 0.874551
-0.402554 2.14319 -0 -1 -2 3 192 192 192 255 0.235434 0.061786
-2.09745 2.14319 -0 2 -1 3 192 192 192 255 0.235434 0.061786
-2.09745 2.14319 -0.188693 1 -2 1 192 192 192 255 0.235434 0.061786
-0.402554 2.14319 -0.188693 -2 -1 2 192 192 192 255 0.235434 0.061786
-2.09745 2.14319 -0 2 -1 3 192 192 192 255 0.262818 0.061786
-2.09745 0.356813 -0 1 2 3 192 192 192 255 0.262818 0.061786
-2.09745 0.356813 -0.188693 2 1 2 192 192 192 255 0.262818 0.061786
-2.09745 2.14319 -0.188693 1 -2 1 192 192 192 255 0.262818 0.061786
-2.09745 0.356813 -0 1 2 3 192 192 192 255 0.3554 0.061786
-0.402554 0.356813 -0 -2 1 3 192 192 192 255 0.3554 0.061786
-0.402554 0.356813 -0.188693 -1 2 1 192 192 192 255 0.3554 0.061786
-2.09745 0.356813 -0.188693 2 1 2 192 192 192 255 0.3554 0.061786
-0.402554 0.356813 -0 -2 1 3 192 192 192 255 0.262818 0.061786
-0.402554 2.14319 -0 -1 -2 3 192 192 192 255 0.262818 0.061786
-0.402554 2.14319 -0.188693 -2 -1 2 192 192 192 255 0.262818 0.061786
-0.402554 0.356813 -0.188693 -1 2 1 192 192 192 255 0.262818 0.061786
-2.84323 2.5 -0 -3 0 3 192 192 192 255 0.264169 0.061786
-2.84323 4.65677 -0 -1 -2 3 192 192 192 255 0.264169 0.061786
-2.84323 4.65677 -0.188693 -2 -1 1 192 192 192 255 0.264169 0.061786
-2.84323 2.5 -0.188693 -3 0 3 192 192 192 255 0.264169 0.061786
-2.84323 4.65677 -0 -1 -2 3 192 192 192 255 0.235969 0.061786
-4.65677 4.65677 -0 2 -1 3 192 192 192 255 0.235969 0.061786
-4.65677 4.65677 -0.188693 1 -2 2 192 192 192 255 0.235969 0.061786
-2.84323 4.65677 -0.188693 -2 -1 1 192 192 192 255 0.235969 0.061786
-4.65677 4.65677 -0 2 -1 3 192 192 192 255 0.264169 0.061786
-4.65677 2.5 -0 3 0 3 192 192 192 255 0.264169 0.061786
-4.65677 2.5 -0.188693 3 0 3 192 192 192 255 0.264169 0.061786
-4.65677 4.65677 -0.188693 1 -2 2 192 192 192 255 0.264169 0.061786
-2.84323 0.343232 -0 -2 1 3 192 192 192 255 0.264169 0.061786
-2.84323 0.343232 -0.188693 -1 2 2 192 192 192 255 0.264169 0.061786
-4.65677 0.343232 -0 1 2 3 192 192 192 255 0.264169 0.061786
-4.65677 0.343232 -0.188693 2 1 1 192 192 192 255 0.264169 0.061786
-4.65677 0.343232 -0 1 2 3 192 192 192 255 0.356548 0.061786
-2.84323 0.343232 -0 -2 1 3 192 192 192 255 0.356548 0.061786
-2.84323 0.343232 -0.188693 -1 2 2 192 192 192 255 0.356548 0.061786
-4.65677 0.343232 -0.188693 2 1 1 192 192 192 255 0.356548 0.061786
3 23 24 25 
3 23 25 26 
3 27 29 30 
3 27 30 28 
3 14 13 15 
3 14 15 16 
3 3 8 7 
3 3 7 5 
3 5 7 9 
3 5 9 10 
3 7 6 11 
3 7 11 9 
3 6 1 12 
3 6 12 11 
3 1 5 10 
3 1 10 12 
3 31 32 33 
3 31 33 34 
3 35 36 37 
3 35 37 38 
3 39 40 41 
3 39 41 42 
3 43 44 45 
3 43 45 46 
3 7 8 18 
3 7 18 17 
3 8 2 19 
3 8 19 18 
3 2 4 20 
3 2 20 19 
3 6 7 17 
3 6 17 21 
3 4 0 22 
3 4 22 20 
3 0 6 21 
3 0 21 22 
3 47 48 49 
3 47 49 50 
3 51 52 53 
3 51 53 54 
3 55 56 57 
3 55 57 58 
3 59 47 50 
3 59 50 60 
3 56 61 62 
3 56 62 57 
3 63 64 65 
3 63 65 66 
