ply
format ascii 1.0
comment VCGLIB generated
comment TextureFile SpaceInteriors_Texture.png
element vertex 52
property float x
property float y
property float z
property float nx
property float ny
property float nz
property uchar red
property uchar green
property uchar blue
property uchar alpha
property float texture_u
property float texture_v
element face 84
property list uchar int vertex_indices
end_header
-5 0 -0.294703 -1 -2 -2 192 192 192 255 0.601106 0.004763
0 0 -0.294703 2 -1 -1 192 192 192 255 0.882937 0.004763
-5 5 -0.294703 -2 1 -1 192 192 192 255 0.601106 0.004665
0 5 -0.294703 1 2 -2 192 192 192 255 0.882937 0.004665
0 1.11944 -0.294703 3 0 -5 192 192 192 255 0.882937 0.004741
-5 1.11944 -0.294703 -3 0 -4 192 192 192 255 0.601106 0.004741
-2.5 5 -0.294703 0 3 -3 192 192 192 255 0.742021 0.004665
-2.5 1.11944 -0.294703 0 0 -9 192 192 192 255 0.742021 0.004741
-2.5 0 -0.294703 0 -3 -3 192 192 192 255 0.742021 0.004763
-5 3.58506 -0.294703 -3 0 -5 192 192 192 255 0.601106 0.004693
-2.5 3.58506 -0.294703 0 0 -9 192 192 192 255 0.742021 0.004693
0 3.58506 -0.294703 3 0 -4 192 192 192 255 0.882937 0.004693
-2.6875 1.30436 -0.294703 -1 2 -3 192 192 192 255 0.425434 0.064524
-4.8125 1.30436 -0.294703 2 1 -3 192 192 192 255 0.425433 0.064524
-2.6875 3.40014 -0.294703 -2 -1 -3 192 192 192 255 0.425434 0.064524
-4.8125 3.40014 -0.294703 1 -2 -3 192 192 192 255 0.425433 0.064524
-0.1875 1.30436 -0.294703 -1 2 -3 192 192 192 255 0.425434 0.064524
-2.3125 1.30436 -0.294703 2 1 -3 192 192 192 255 0.425434 0.064524
-0.1875 3.40014 -0.294703 -2 -1 -3 192 192 192 255 0.425434 0.064524
-2.3125 3.40014 -0.294703 1 -2 -3 192 192 192 255 0.425434 0.064524
-2.5 0 0 0 -3 3 192 192 192 255 0.742021 0.004763
0 0 0 1 -2 1 192 192 192 255 0.882937 0.004763
0 1.11944 0 3 0 5 192 192 192 255 0.882937 0.004741
-2.5 1.11944 0 0 0 9 192 192 192 255 0.742021 0.004741
-2.5 3.58506 0 0 0 9 192 192 192 255 0.742021 0.004693
0 3.58506 0 3 0 4 192 192 192 255 0.882937 0.004693
0 5 0 2 1 2 192 192 192 255 0.882937 0.004665
-2.5 5 0 0 3 3 192 192 192 255 0.742021 0.004665
-5 3.58506 0 -3 0 5 192 192 192 255 0.601106 0.004693
-5 5 0 -1 2 1 192 192 192 255 0.601106 0.004665
-5 0 0 -2 -1 2 192 192 192 255 0.601106 0.004763
-5 1.11944 0 -3 0 4 192 192 192 255 0.601106 0.004741
-2.6875 1.30436 0 -2 1 3 192 192 192 255 0.425434 0.064524
-4.8125 1.30436 0 1 2 3 192 192 192 255 0.425433 0.064524
-2.6875 3.40014 0 -1 -2 3 192 192 192 255 0.425434 0.064524
-4.8125 3.40014 0 2 -1 3 192 192 192 255 0.425433 0.064524
-0.1875 1.30436 0 -2 1 3 192 192 192 255 0.425434 0.064524
-2.3125 1.30436 0 1 2 3 192 192 192 255 0.425434 0.064524
-0.1875 3.40014 0 -1 -2 3 192 192 192 255 0.425434 0.064524
-2.3125 3.40014 0 2 -1 3 192 192 192 255 0.425434 0.064524
-5 1.11944 0 -3 0 4 192 192 192 255 0.425433 0.064524
-2.5 1.11944 0 0 0 9 192 192 192 255 0.425434 0.064524
-2.5 3.58506 0 0 0 9 192 192 192 255 0.425434 0.064524
-5 3.58506 0 -3 0 5 192 192 192 255 0.425433 0.064524
0 1.11944 0 3 0 5 192 192 192 255 0.425434 0.064524
0 3.58506 0 3 0 4 192 192 192 255 0.425434 0.064524
-5 1.11944 -0.294703 -3 0 -4 192 192 192 255 0.425433 0.064524
-2.5 1.11944 -0.294703 0 0 -9 192 192 192 255 0.425434 0.064524
-2.5 3.58506 -0.294703 0 0 -9 192 192 192 255 0.425434 0.064524
-5 3.58506 -0.294703 -3 0 -5 192 192 192 255 0.425433 0.064524
0 1.11944 -0.294703 3 0 -5 192 192 192 255 0.425434 0.064524
0 3.58506 -0.294703 3 0 -4 192 192 192 255 0.425434 0.064524
3 20 21 22 
3 20 22 23 
3 24 25 26 
3 24 26 27 
3 28 24 27 
3 28 27 29 
3 30 20 23 
3 30 23 31 
3 40 41 32 
3 40 32 33 
3 41 42 34 
3 41 34 32 
3 42 43 35 
3 42 35 34 
3 43 40 33 
3 43 33 35 
3 41 44 36 
3 41 36 37 
3 44 45 38 
3 44 38 36 
3 45 42 39 
3 45 39 38 
3 42 41 37 
3 42 37 39 
3 8 7 4 
3 8 4 1 
3 10 6 3 
3 10 3 11 
3 9 2 6 
3 9 6 10 
3 0 5 7 
3 0 7 8 
3 46 13 12 
3 46 12 47 
3 47 12 14 
3 47 14 48 
3 48 14 15 
3 48 15 49 
3 49 15 13 
3 49 13 46 
3 47 17 16 
3 47 16 50 
3 50 16 18 
3 50 18 51 
3 51 18 19 
3 51 19 48 
3 48 19 17 
3 48 17 47 
3 8 1 21 
3 8 21 20 
3 1 4 22 
3 1 22 21 
3 11 3 26 
3 11 26 25 
3 3 6 27 
3 3 27 26 
3 6 2 29 
3 6 29 27 
3 2 9 28 
3 2 28 29 
3 0 8 20 
3 0 20 30 
3 5 0 30 
3 5 30 31 
3 12 13 33 
3 12 33 32 
3 14 12 32 
3 14 32 34 
3 15 14 34 
3 15 34 35 
3 49 46 40 
3 49 40 43 
3 13 15 35 
3 13 35 33 
3 16 17 37 
3 16 37 36 
3 50 51 45 
3 50 45 44 
3 18 16 36 
3 18 36 38 
3 19 18 38 
3 19 38 39 
3 17 19 39 
3 17 39 37 
