ply
format ascii 1.0
comment VCGLIB generated
comment TextureFile WorldMap.png
element vertex 237
property float x
property float y
property float z
property float nx
property float ny
property float nz
property uchar red
property uchar green
property uchar blue
property uchar alpha
property float texture_u
property float texture_v
element face 220
property list uchar int vertex_indices
end_header
-16.3351 1.5201 -2.62373 2.12614 -4.42998e-005 10.6107 192 192 192 255 0.263613 0.063369
-16.3351 5.46747 -2.62373 2.12617 -1.34046e-006 11.6107 192 192 192 255 0.263613 0.063369
-8.66534 5.46747 -2.62373 -2.12616 -1.32615e-005 11.6107 192 192 192 255 0.263613 0.063369
-8.66534 1.5201 -2.62373 -2.12614 -4.55966e-005 10.6107 192 192 192 255 0.263613 0.063369
-1.74142 5.46747 0 -2.12616 -3.7215e-005 8.61066 192 192 192 255 0.263613 0.063369
-1.74142 1.5201 0 -1.7718 1.87616e-005 7.67555 192 192 192 255 0.577665 0.004236
-8.79044 1.71923 -2.62373 -2 1 3 192 192 192 255 0.263613 0.063369
-16.21 1.71923 -2.62373 1 2 2 192 192 192 255 0.263613 0.063369
-8.79044 5.36392 -2.62373 -1 -2 3 192 192 192 255 0.263613 0.063369
-16.21 5.36392 -2.62373 2 -1 3 192 192 192 255 0.263613 0.063369
-8.66534 0 -2.62373 -0.354348 0 1.93511 192 192 192 255 0.981786 0.004161
-16.3351 0 -2.62373 0.354348 0 2.93511 192 192 192 255 0.577808 0.004161
-1.74142 0 0 -0.354349 0 1.93511 192 192 192 255 0.577665 0.004161
-5.20337 5.46747 -1.31186 -2.12605 2.67724e-005 5.6107 192 192 192 255 0.263613 0.063369
-5.20337 1.5201 -1.31186 -3.18908 1.47248e-005 8.41604 192 192 192 255 0.779725 0.004236
-5.20337 0 -1.31186 -1.41739 0 3.74045 192 192 192 255 0.779725 0.004161
-5.11683 5.36878 -1.27907 -1.77173 -3.82762e-005 4.67557 192 192 192 255 0.108764 0.475552
-5.11683 1.61878 -1.27907 -1.41738 1.87616e-005 3.74046 192 192 192 255 0.263613 0.063369
-1.82797 1.61878 -0.032799 -1.41742 3.75231e-005 3.74044 192 192 192 255 0.263613 0.063369
-1.82797 5.36878 -0.032799 -1.41745 -1.91381e-005 3.74043 192 192 192 255 0.108764 0.475552
-8.57879 5.36878 -2.59093 -1.77177 4.59105e-005 4.67556 192 192 192 255 0.108764 0.475552
-8.57879 1.61878 -2.59093 -1.41742 -2.27983e-005 3.74044 192 192 192 255 0.263613 0.063369
-5.28993 1.61878 -1.34466 -1.41737 -4.55966e-005 3.74046 192 192 192 255 0.263613 0.063369
-5.28993 5.36878 -1.34466 -1.41736 2.29552e-005 3.74047 192 192 192 255 0.108764 0.475552
-16.3351 3.49378 -2.62373 0 0 2 192 192 192 255 0.263613 0.063369
-16.21 3.54157 -2.62373 3 0 4 192 192 192 255 0.263613 0.063369
-8.79044 3.54157 -2.62373 -3 0 3 192 192 192 255 0.263613 0.063369
-8.66534 2.60252 -2.62373 -0.708751 0 4.87021 192 192 192 255 0.263613 0.063369
-8.57879 2.60252 -2.59093 -2.1262 0 5.61064 192 192 192 255 0.108764 0.475552
-5.28993 2.60252 -1.34466 -2.48038 0 6.54582 192 192 192 255 0.108764 0.475552
-5.20337 2.60252 -1.31186 -1.77166 0 4.6756 192 192 192 255 0.263613 0.063369
-5.11683 2.60252 -1.27907 -2.12605 0 5.6107 192 192 192 255 0.108764 0.475552
-1.82797 2.60252 -0.032799 -2.48052 0 6.54576 192 192 192 255 0.108764 0.475552
-1.74142 2.60252 0 -1.06313 0 5.80531 192 192 192 255 0.263613 0.063369
-23.259 5.46747 0 2.12613 -3.86359e-005 8.61066 192 192 192 255 0.263613 0.063369
-23.259 1.5201 0 1.77178 1.89184e-005 7.67555 192 192 192 255 0.577665 0.004236
-23.259 0 0 0.354349 0 2.93511 192 192 192 255 0.577665 0.004161
-19.797 5.46747 -1.31186 2.12604 2.50364e-005 5.6107 192 192 192 255 0.263613 0.063369
-19.797 1.5201 -1.31186 3.18907 1.5687e-005 8.41605 192 192 192 255 0.779725 0.004236
-19.797 0 -1.31186 1.41739 0 3.74045 192 192 192 255 0.779725 0.004161
-19.8836 5.36878 -1.27907 1.77173 -3.83599e-005 4.67557 192 192 192 255 0.108764 0.475552
-19.8836 1.61878 -1.27907 1.41738 1.89184e-005 3.74046 192 192 192 255 0.263613 0.063369
-23.1724 1.61878 -0.032799 1.41742 3.78369e-005 3.74045 192 192 192 255 0.263613 0.063369
-23.1724 5.36878 -0.032799 1.41743 -1.91799e-005 3.74044 192 192 192 255 0.108764 0.475552
-16.4216 5.36878 -2.59093 1.77177 4.42163e-005 4.67556 192 192 192 255 0.108764 0.475552
-16.4216 1.61878 -2.59093 1.41742 -2.21499e-005 3.74044 192 192 192 255 0.263613 0.063369
-19.7105 1.61878 -1.34466 1.41738 -4.42998e-005 3.74046 192 192 192 255 0.263613 0.063369
-19.7105 5.36878 -1.34466 1.41736 2.21081e-005 3.74047 192 192 192 255 0.108764 0.475552
-16.3351 2.60252 -2.62373 0.708751 0 1.87021 192 192 192 255 0.263613 0.063369
-16.4216 2.60252 -2.59093 2.1262 0 5.61064 192 192 192 255 0.108764 0.475552
-19.7105 2.60252 -1.34466 2.48039 0 6.54581 192 192 192 255 0.108764 0.475552
-19.797 2.60252 -1.31186 1.77166 0 4.6756 192 192 192 255 0.263613 0.063369
-19.8836 2.60252 -1.27907 2.12602 0 5.61071 192 192 192 255 0.108764 0.475552
-23.1724 2.60252 -0.032799 2.4805 0 6.54577 192 192 192 255 0.108764 0.475552
-23.259 2.60252 0 1.06311 0 5.80532 192 192 192 255 0.263613 0.063369
-16.3351 6.53032 -2.62373 1.06306 4.68977e-005 5.80534 192 192 192 255 0.294345 0.062748
-8.66534 6.53032 -2.62373 -1.06308 1.79962e-005 5.80533 192 192 192 255 0.294345 0.062748
-23.259 6.53032 0 1.06309 -1.46661e-007 3.80532 192 192 192 255 0.294345 0.062748
-1.74142 6.53032 0 -1.06307 -9.66241e-007 4.80533 192 192 192 255 0.294345 0.062748
-4.11862 6.53032 -0.90081 -1.41739 1.11815e-005 3.74046 192 192 192 255 0.294345 0.062748
-3.98016 6.53032 -0.848343 -1.77176 -4.8312e-007 4.67556 192 192 192 255 0.294345 0.062748
-3.98016 5.46747 -0.848343 -1.4174 2.12232e-006 3.74045 192 192 192 255 0.294345 0.062748
-4.11862 5.46747 -0.90081 -1.77173 -5.36818e-006 4.67557 192 192 192 255 0.294345 0.062748
-6.4266 6.53032 -1.77539 -1.41738 3.59925e-005 3.74046 192 192 192 255 0.294345 0.062748
-6.28813 6.53032 -1.72292 -1.7718 5.59074e-006 4.67555 192 192 192 255 0.294345 0.062748
-6.28813 5.46747 -1.72292 -1.41742 -1.07364e-005 3.74044 192 192 192 255 0.294345 0.062748
-6.4266 5.46747 -1.77539 -1.77172 -1.81084e-005 4.67557 192 192 192 255 0.294345 0.062748
-11.2954 6.53032 -2.62373 0 0 4 192 192 192 255 0.294345 0.062748
-11.1485 6.53032 -2.62373 0 0 5 192 192 192 255 0.294345 0.062748
-11.1485 5.46747 -2.62373 0 0 4 192 192 192 255 0.294345 0.062748
-11.2954 5.46747 -2.62373 0 0 5 192 192 192 255 0.294345 0.062748
-13.8519 6.53032 -2.62373 0 0 4 192 192 192 255 0.294345 0.062748
-13.705 6.53032 -2.62373 0 0 5 192 192 192 255 0.294345 0.062748
-13.705 5.46747 -2.62373 0 0 4 192 192 192 255 0.294345 0.062748
-13.8519 5.46747 -2.62373 0 0 5 192 192 192 255 0.294345 0.062748
-21.0202 6.53032 -0.848343 1.4174 -2.93323e-007 3.74045 192 192 192 255 0.294345 0.062748
-20.8818 6.53032 -0.90081 1.77172 3.43635e-006 4.67558 192 192 192 255 0.294345 0.062748
-20.8818 5.46747 -0.90081 1.41738 -7.54928e-006 3.74046 192 192 192 255 0.294345 0.062748
-21.0202 5.46747 -0.848343 1.77176 -1.38037e-007 4.67556 192 192 192 255 0.294345 0.062748
-18.7123 6.53032 -1.72292 1.41742 6.8727e-006 3.74044 192 192 192 255 0.294345 0.062748
-18.5738 6.53032 -1.77539 1.77169 2.34488e-005 4.67559 192 192 192 255 0.294345 0.062748
-18.5738 5.46747 -1.77539 1.41737 -4.68972e-005 3.74046 192 192 192 255 0.294345 0.062748
-18.7123 5.46747 -1.72292 1.77179 -3.77464e-006 4.67555 192 192 192 255 0.294345 0.062748
-11.0688 6.43715 -2.62373 0 0 5 192 192 192 255 0.504961 0.078785
-11.0688 5.56064 -2.62373 0 0 4 192 192 192 255 0.504961 0.010793
-8.74505 5.56064 -2.62373 0 0 5 192 192 192 255 0.683903 0.010793
-8.74505 6.43715 -2.62373 0 0 4 192 192 192 255 0.683903 0.078785
-18.5019 6.43715 -1.80262 1.7717 4.68977e-005 4.67558 192 192 192 255 0.504961 0.078785
-18.5019 5.56064 -1.80262 1.41731 -2.34486e-005 3.74048 192 192 192 255 0.504961 0.010793
-16.4069 5.56064 -2.59649 1.77175 -4.68972e-005 4.67556 192 192 192 255 0.683903 0.010793
-16.4069 6.43715 -2.59649 1.41742 2.34488e-005 3.74044 192 192 192 255 0.683903 0.078785
-3.90828 6.43715 -0.821106 -1.77176 -9.66241e-007 4.67556 192 192 192 255 0.504961 0.078785
-3.90828 5.56064 -0.821106 -1.41743 1.06116e-006 3.74044 192 192 192 255 0.504961 0.010793
-1.81329 5.56064 -0.027237 -1.77176 2.12232e-006 4.67556 192 192 192 255 0.683903 0.010793
-1.81329 6.43715 -0.027237 -1.41743 -4.8312e-007 3.74044 192 192 192 255 0.683903 0.078785
-6.21848 6.43715 -1.69652 -1.77176 1.11815e-005 4.67556 192 192 192 255 0.504961 0.078785
-6.21848 5.56064 -1.69652 -1.41743 -5.36818e-006 3.74044 192 192 192 255 0.504961 0.010793
-4.18827 5.56064 -0.927204 -1.77174 -1.07364e-005 4.67557 192 192 192 255 0.683903 0.010793
-4.18827 6.43715 -0.927204 -1.4174 5.59074e-006 3.74045 192 192 192 255 0.683903 0.078785
-8.59346 5.56064 -2.59649 -1.77178 -1.81084e-005 4.67555 192 192 192 255 0.504961 0.010793
-6.49847 5.56064 -1.80262 -1.41737 -3.62168e-005 3.74046 192 192 192 255 0.683903 0.010793
-6.49847 6.43715 -1.80262 -1.7717 1.79962e-005 4.67558 192 192 192 255 0.683903 0.078785
-8.59346 6.43715 -2.59649 -1.41741 3.59925e-005 3.74045 192 192 192 255 0.504961 0.078785
-13.6277 6.43715 -2.62373 0 0 5 192 192 192 255 0.504961 0.078785
-13.6277 5.56064 -2.62373 0 0 4 192 192 192 255 0.504961 0.010793
-11.3727 5.56064 -2.62373 0 0 5 192 192 192 255 0.683903 0.010793
-11.3727 6.43715 -2.62373 0 0 4 192 192 192 255 0.683903 0.078785
-16.2553 5.56064 -2.62373 0 0 5 192 192 192 255 0.504961 0.010793
-13.9317 5.56064 -2.62373 0 0 4 192 192 192 255 0.683903 0.010793
-13.9317 6.43715 -2.62373 0 0 5 192 192 192 255 0.683903 0.078785
-16.2553 6.43715 -2.62373 0 0 4 192 192 192 255 0.504961 0.078785
-21.0921 5.56064 -0.821106 1.41741 -2.76074e-007 3.74045 192 192 192 255 0.683903 0.010793
-23.1871 5.56064 -0.027237 1.77178 -1.38037e-007 4.67555 192 192 192 255 0.504961 0.010793
-21.0921 6.43715 -0.821106 1.77178 -1.46661e-007 4.67555 192 192 192 255 0.683903 0.078785
-23.1871 6.43715 -0.027237 1.41741 -2.93323e-007 3.74045 192 192 192 255 0.504961 0.078785
-20.8121 6.43715 -0.927204 1.77174 6.8727e-006 4.67557 192 192 192 255 0.504961 0.078785
-20.8121 5.56064 -0.927204 1.4174 -3.77464e-006 3.74045 192 192 192 255 0.504961 0.010793
-18.7819 5.56064 -1.69652 1.77175 -7.54928e-006 4.67556 192 192 192 255 0.683903 0.010793
-18.7819 6.43715 -1.69652 1.41741 3.43635e-006 3.74045 192 192 192 255 0.683903 0.078785
0 5.46747 0 0 0 3 192 192 192 255 0.295329 0.062547
0 2.60252 0 0 0 3 192 192 192 255 0.295329 0.062548
0 1.5201 0 0 0 3 192 192 192 255 0.295329 0.062547
0 0 0 0 0 2 192 192 192 255 0.295329 0.062548
-25.0004 5.46747 0 0 0 3 192 192 192 255 0.295329 0.062547
-25.0004 2.60252 0 0 0 3 192 192 192 255 0.295329 0.062548
-25.0004 1.5201 0 0 0 3 192 192 192 255 0.295329 0.062547
-25.0004 0 0 0 0 1 192 192 192 255 0.295329 0.062548
-25.0004 6.53032 0 0 0 2 192 192 192 255 0.295329 0.062547
0 6.53032 0 0 0 1 192 192 192 255 0.295329 0.062547
-16.21 3.54157 -2.83493 3 0 0 192 192 192 255 0.294681 0.266415
-8.79044 3.54157 -2.83493 -3 0 0 192 192 192 255 0.294681 0.266415
-8.79044 5.36392 -2.83493 -2 -1 0 192 192 192 255 0.294681 0.266415
-16.21 5.36392 -2.83493 1 -2 0 192 192 192 255 0.294681 0.266415
-8.79044 1.71923 -2.83493 -1 2 0 192 192 192 255 0.294681 0.266415
-16.21 1.71923 -2.83493 2 1 0 192 192 192 255 0.294681 0.266415
-8.79044 3.54157 -2.83493 0 0 3 192 192 192 255 1 0.789722
-8.79044 5.36392 -2.83493 0 0 2 192 192 192 255 1 1.00033
-16.21 5.36392 -2.83493 0 0 1 192 192 192 255 0 1.00033
-16.21 3.54157 -2.83493 0 0 3 192 192 192 255 0 0.789722
-16.21 1.71923 -2.83493 0 0 2 192 192 192 255 0 0.579114
-8.79044 1.71923 -2.83493 0 0 1 192 192 192 255 1 0.579114
-8.66534 1.5201 -2.62373 -2.12614 -4.55966e-005 10.6107 192 192 192 255 0.981786 0.004236
-16.3351 1.5201 -2.62373 2.12614 -4.42998e-005 10.6107 192 192 192 255 0.577808 0.004236
-5.11683 2.60252 -1.27907 -2.12605 0 5.6107 192 192 192 255 0.263613 0.063369
-5.11683 5.36878 -1.27907 -1.77173 -3.82762e-005 4.67557 192 192 192 255 0.263613 0.063369
-5.20337 1.5201 -1.31186 -3.18908 1.47248e-005 8.41604 192 192 192 255 0.263613 0.063369
-1.74142 1.5201 0 -1.7718 1.87616e-005 7.67555 192 192 192 255 0.263613 0.063369
-1.82797 5.36878 -0.032799 -1.41745 -1.91381e-005 3.74043 192 192 192 255 0.263613 0.063369
-1.82797 2.60252 -0.032799 -2.48052 0 6.54576 192 192 192 255 0.263613 0.063369
-8.57879 2.60252 -2.59093 -2.1262 0 5.61064 192 192 192 255 0.263613 0.063369
-8.57879 5.36878 -2.59093 -1.77177 4.59105e-005 4.67556 192 192 192 255 0.263613 0.063369
-5.28993 5.36878 -1.34466 -1.41736 2.29552e-005 3.74047 192 192 192 255 0.263613 0.063369
-5.28993 2.60252 -1.34466 -2.48038 0 6.54582 192 192 192 255 0.263613 0.063369
-5.28993 2.60252 -1.34466 -2.48038 0 6.54582 192 192 192 255 0.170853 0.062621
-8.57879 2.60252 -2.59093 -2.1262 0 5.61064 192 192 192 255 0.170853 0.062621
-8.57879 1.61878 -2.59093 -1.41742 -2.27983e-005 3.74044 192 192 192 255 0.170853 0.062621
-5.28993 1.61878 -1.34466 -1.41737 -4.55966e-005 3.74046 192 192 192 255 0.170853 0.062621
-1.82797 2.60252 -0.032799 -2.48052 0 6.54576 192 192 192 255 0.170853 0.062621
-5.11683 2.60252 -1.27907 -2.12605 0 5.6107 192 192 192 255 0.170853 0.062621
-5.11683 1.61878 -1.27907 -1.41738 1.87616e-005 3.74046 192 192 192 255 0.170853 0.062621
-1.82797 1.61878 -0.032799 -1.41742 3.75231e-005 3.74044 192 192 192 255 0.170853 0.062621
-16.3351 0 -2.62373 0.354348 0 2.93511 192 192 192 255 0.981786 0.004161
-16.3351 1.5201 -2.62373 2.12614 -4.42998e-005 10.6107 192 192 192 255 0.981786 0.004236
-19.8836 5.36878 -1.27907 1.77173 -3.83599e-005 4.67557 192 192 192 255 0.263613 0.063369
-19.8836 2.60252 -1.27907 2.12602 0 5.61071 192 192 192 255 0.263613 0.063369
-19.797 1.5201 -1.31186 3.18907 1.5687e-005 8.41605 192 192 192 255 0.263613 0.063369
-23.259 1.5201 0 1.77178 1.89184e-005 7.67555 192 192 192 255 0.263613 0.063369
-23.1724 2.60252 -0.032799 2.4805 0 6.54577 192 192 192 255 0.263613 0.063369
-23.1724 5.36878 -0.032799 1.41743 -1.91799e-005 3.74044 192 192 192 255 0.263613 0.063369
-16.4216 5.36878 -2.59093 1.77177 4.42163e-005 4.67556 192 192 192 255 0.263613 0.063369
-16.4216 2.60252 -2.59093 2.1262 0 5.61064 192 192 192 255 0.263613 0.063369
-19.7105 2.60252 -1.34466 2.48039 0 6.54581 192 192 192 255 0.263613 0.063369
-19.7105 5.36878 -1.34466 1.41736 2.21081e-005 3.74047 192 192 192 255 0.263613 0.063369
-19.7105 2.60252 -1.34466 2.48039 0 6.54581 192 192 192 255 0.170853 0.062621
-19.7105 1.61878 -1.34466 1.41738 -4.42998e-005 3.74046 192 192 192 255 0.170853 0.062621
-16.4216 1.61878 -2.59093 1.41742 -2.21499e-005 3.74044 192 192 192 255 0.170853 0.062621
-16.4216 2.60252 -2.59093 2.1262 0 5.61064 192 192 192 255 0.170853 0.062621
-23.1724 2.60252 -0.032799 2.4805 0 6.54577 192 192 192 255 0.170853 0.062621
-23.1724 1.61878 -0.032799 1.41742 3.78369e-005 3.74045 192 192 192 255 0.170853 0.062621
-19.8836 1.61878 -1.27907 1.41738 1.89184e-005 3.74046 192 192 192 255 0.170853 0.062621
-19.8836 2.60252 -1.27907 2.12602 0 5.61071 192 192 192 255 0.170853 0.062621
-11.0688 5.56064 -2.62373 0 0 4 192 192 192 255 0.294345 0.062748
-11.0688 6.43715 -2.62373 0 0 5 192 192 192 255 0.294345 0.062748
-8.66534 5.46747 -2.62373 -2.12616 -1.32615e-005 11.6107 192 192 192 255 0.294345 0.062748
-8.74505 5.56064 -2.62373 0 0 5 192 192 192 255 0.294345 0.062748
-8.74505 6.43715 -2.62373 0 0 4 192 192 192 255 0.294345 0.062748
-18.5019 5.56064 -1.80262 1.41731 -2.34486e-005 3.74048 192 192 192 255 0.294345 0.062748
-18.5019 6.43715 -1.80262 1.7717 4.68977e-005 4.67558 192 192 192 255 0.294345 0.062748
-16.3351 5.46747 -2.62373 2.12617 -1.34046e-006 11.6107 192 192 192 255 0.294345 0.062748
-16.4069 5.56064 -2.59649 1.77175 -4.68972e-005 4.67556 192 192 192 255 0.294345 0.062748
-16.4069 6.43715 -2.59649 1.41742 2.34488e-005 3.74044 192 192 192 255 0.294345 0.062748
-3.90828 5.56064 -0.821106 -1.41743 1.06116e-006 3.74044 192 192 192 255 0.294345 0.062748
-3.90828 6.43715 -0.821106 -1.77176 -9.66241e-007 4.67556 192 192 192 255 0.294345 0.062748
-1.74142 5.46747 0 -2.12616 -3.7215e-005 8.61066 192 192 192 255 0.294345 0.062748
-1.81329 5.56064 -0.027237 -1.77176 2.12232e-006 4.67556 192 192 192 255 0.294345 0.062748
-1.81329 6.43715 -0.027237 -1.41743 -4.8312e-007 3.74044 192 192 192 255 0.294345 0.062748
-6.21848 5.56064 -1.69652 -1.41743 -5.36818e-006 3.74044 192 192 192 255 0.294345 0.062748
-6.21848 6.43715 -1.69652 -1.77176 1.11815e-005 4.67556 192 192 192 255 0.294345 0.062748
-4.18827 5.56064 -0.927204 -1.77174 -1.07364e-005 4.67557 192 192 192 255 0.294345 0.062748
-4.18827 6.43715 -0.927204 -1.4174 5.59074e-006 3.74045 192 192 192 255 0.294345 0.062748
-6.49847 5.56064 -1.80262 -1.41737 -3.62168e-005 3.74046 192 192 192 255 0.294345 0.062748
-8.59346 5.56064 -2.59649 -1.77178 -1.81084e-005 4.67555 192 192 192 255 0.294345 0.062748
-6.49847 6.43715 -1.80262 -1.7717 1.79962e-005 4.67558 192 192 192 255 0.294345 0.062748
-8.59346 6.43715 -2.59649 -1.41741 3.59925e-005 3.74045 192 192 192 255 0.294345 0.062748
-13.6277 5.56064 -2.62373 0 0 4 192 192 192 255 0.294345 0.062748
-13.6277 6.43715 -2.62373 0 0 5 192 192 192 255 0.294345 0.062748
-11.3727 5.56064 -2.62373 0 0 5 192 192 192 255 0.294345 0.062748
-11.3727 6.43715 -2.62373 0 0 4 192 192 192 255 0.294345 0.062748
-13.9317 5.56064 -2.62373 0 0 4 192 192 192 255 0.294345 0.062748
-16.2553 5.56064 -2.62373 0 0 5 192 192 192 255 0.294345 0.062748
-13.9317 6.43715 -2.62373 0 0 5 192 192 192 255 0.294345 0.062748
-16.2553 6.43715 -2.62373 0 0 4 192 192 192 255 0.294345 0.062748
-23.259 5.46747 0 2.12613 -3.86359e-005 8.61066 192 192 192 255 0.294345 0.062748
-21.0921 5.56064 -0.821106 1.41741 -2.76074e-007 3.74045 192 192 192 255 0.294345 0.062748
-23.1871 5.56064 -0.027237 1.77178 -1.38037e-007 4.67555 192 192 192 255 0.294345 0.062748
-21.0921 6.43715 -0.821106 1.77178 -1.46661e-007 4.67555 192 192 192 255 0.294345 0.062748
-23.1871 6.43715 -0.027237 1.41741 -2.93323e-007 3.74045 192 192 192 255 0.294345 0.062748
-20.8121 5.56064 -0.927204 1.4174 -3.77464e-006 3.74045 192 192 192 255 0.294345 0.062748
-20.8121 6.43715 -0.927204 1.77174 6.8727e-006 4.67557 192 192 192 255 0.294345 0.062748
-18.7819 5.56064 -1.69652 1.77175 -7.54928e-006 4.67556 192 192 192 255 0.294345 0.062748
-18.7819 6.43715 -1.69652 1.41741 3.43635e-006 3.74045 192 192 192 255 0.294345 0.062748
-1.74142 5.46747 0 -2.12616 -3.7215e-005 8.61066 192 192 192 255 0.295329 0.062547
-1.74142 2.60252 0 -1.06313 0 5.80531 192 192 192 255 0.295329 0.062548
-1.74142 1.5201 0 -1.7718 1.87616e-005 7.67555 192 192 192 255 0.295329 0.062547
-1.74142 0 0 -0.354349 0 1.93511 192 192 192 255 0.295329 0.062548
-23.259 2.60252 0 1.06311 0 5.80532 192 192 192 255 0.295329 0.062548
-23.259 5.46747 0 2.12613 -3.86359e-005 8.61066 192 192 192 255 0.295329 0.062547
-23.259 0 0 0.354349 0 2.93511 192 192 192 255 0.295329 0.062548
-23.259 1.5201 0 1.77178 1.89184e-005 7.67555 192 192 192 255 0.295329 0.062547
-23.259 6.53032 0 1.06309 -1.46661e-007 3.80532 192 192 192 255 0.295329 0.062547
-1.74142 6.53032 0 -1.06307 -9.66241e-007 4.80533 192 192 192 255 0.295329 0.062547
-8.79044 3.54157 -2.62373 -3 0 3 192 192 192 255 0.294681 0.266415
-8.79044 5.36392 -2.62373 -1 -2 3 192 192 192 255 0.294681 0.266415
-16.21 5.36392 -2.62373 2 -1 3 192 192 192 255 0.294681 0.266415
-16.21 3.54157 -2.62373 3 0 4 192 192 192 255 0.294681 0.266415
-16.21 1.71923 -2.62373 1 2 2 192 192 192 255 0.294681 0.266415
-8.79044 1.71923 -2.62373 -2 1 3 192 192 192 255 0.294681 0.266415
3 16 31 32 
3 16 32 19 
3 0 3 6 
3 0 6 7 
3 27 2 8 
3 27 8 26 
3 2 1 9 
3 2 9 8 
3 1 24 25 
3 1 25 9 
3 141 142 11 
3 141 11 10 
3 5 14 15 
3 5 15 12 
3 20 28 29 
3 20 29 23 
3 15 14 141 
3 15 141 10 
3 13 30 143 
3 13 143 144 
3 145 146 18 
3 145 18 17 
3 33 4 147 
3 33 147 148 
3 4 13 144 
3 4 144 147 
3 2 27 149 
3 2 149 150 
3 3 145 22 
3 3 22 21 
3 30 13 151 
3 30 151 152 
3 13 2 150 
3 13 150 151 
3 25 24 0 
3 25 0 7 
3 3 27 26 
3 3 26 6 
3 149 27 3 
3 149 3 21 
3 153 154 155 
3 153 155 156 
3 145 30 152 
3 145 152 22 
3 143 30 145 
3 143 145 17 
3 157 158 159 
3 157 159 160 
3 146 33 148 
3 146 148 18 
3 40 43 53 
3 40 53 52 
3 35 36 39 
3 35 39 38 
3 44 47 50 
3 44 50 49 
3 39 161 162 
3 39 162 38 
3 37 163 164 
3 37 164 51 
3 165 41 42 
3 165 42 166 
3 54 167 168 
3 54 168 34 
3 34 168 163 
3 34 163 37 
3 1 169 170 
3 1 170 48 
3 0 45 46 
3 0 46 165 
3 51 171 172 
3 51 172 37 
3 37 172 169 
3 37 169 1 
3 170 45 0 
3 170 0 48 
3 173 174 175 
3 173 175 176 
3 165 46 171 
3 165 171 51 
3 164 41 165 
3 164 165 51 
3 177 178 179 
3 177 179 180 
3 166 42 167 
3 166 167 54 
3 83 84 85 
3 83 85 86 
3 87 88 89 
3 87 89 90 
3 91 92 93 
3 91 93 94 
3 95 96 97 
3 95 97 98 
3 99 100 101 
3 99 101 102 
3 103 104 105 
3 103 105 106 
3 107 108 109 
3 107 109 110 
3 112 111 113 
3 112 113 114 
3 115 116 117 
3 115 117 118 
3 60 59 62 
3 60 62 61 
3 64 63 66 
3 64 66 65 
3 68 67 70 
3 68 70 69 
3 72 71 74 
3 72 74 73 
3 76 75 78 
3 76 78 77 
3 80 79 82 
3 80 82 81 
3 68 69 181 
3 68 181 182 
3 69 183 184 
3 69 184 181 
3 183 56 185 
3 183 185 184 
3 56 68 182 
3 56 182 185 
3 80 81 186 
3 80 186 187 
3 81 188 189 
3 81 189 186 
3 188 55 190 
3 188 190 189 
3 55 80 187 
3 55 187 190 
3 60 61 191 
3 60 191 192 
3 61 193 194 
3 61 194 191 
3 193 58 195 
3 193 195 194 
3 58 60 192 
3 58 192 195 
3 64 65 196 
3 64 196 197 
3 65 62 198 
3 65 198 196 
3 62 59 199 
3 62 199 198 
3 59 64 197 
3 59 197 199 
3 183 66 200 
3 183 200 201 
3 66 63 202 
3 66 202 200 
3 63 56 203 
3 63 203 202 
3 56 183 201 
3 56 201 203 
3 72 73 204 
3 72 204 205 
3 73 70 206 
3 73 206 204 
3 70 67 207 
3 70 207 206 
3 67 72 205 
3 67 205 207 
3 188 74 208 
3 188 208 209 
3 74 71 210 
3 74 210 208 
3 71 55 211 
3 71 211 210 
3 55 188 209 
3 55 209 211 
3 212 78 213 
3 212 213 214 
3 78 75 215 
3 78 215 213 
3 75 57 216 
3 75 216 215 
3 57 212 214 
3 57 214 216 
3 76 77 217 
3 76 217 218 
3 77 82 219 
3 77 219 217 
3 82 79 220 
3 82 220 219 
3 79 76 218 
3 79 218 220 
3 221 222 120 
3 221 120 119 
3 223 224 122 
3 223 122 121 
3 222 223 121 
3 222 121 120 
3 225 226 123 
3 225 123 124 
3 227 228 125 
3 227 125 126 
3 228 225 124 
3 228 124 125 
3 226 229 127 
3 226 127 123 
3 230 221 119 
3 230 119 128 
3 231 232 131 
3 231 131 130 
3 232 233 132 
3 232 132 131 
3 233 234 129 
3 233 129 132 
3 235 236 133 
3 235 133 134 
3 236 231 130 
3 236 130 133 
3 234 235 134 
3 234 134 129 
3 138 135 136 
3 138 136 137 
3 139 140 135 
3 139 135 138 
