ply
format ascii 1.0
comment VCGLIB generated
comment TextureFile SpaceInteriors_Texture.png
element vertex 46
property float x
property float y
property float z
property float nx
property float ny
property float nz
property uchar red
property uchar green
property uchar blue
property uchar alpha
property float texture_u
property float texture_v
element face 28
property list uchar int vertex_indices
end_header
-5 5 -5 0 -41.3004 0 192 192 192 255 0.587741 0.510713
0 5 -5 0 -51.2703 0 192 192 192 255 0.749611 0.510713
-5 5 0 0 -50.3413 0 192 192 192 255 0.587741 0.672706
0 5 0 0 -2 0 192 192 192 255 0.749611 0.672706
-14.2907 5 -4.83413 0 -50.3413 0 192 192 192 255 0.360306 0.060913
-15 5 0 0 -48.3413 0 192 192 192 255 0.360306 0.060913
-8.88596 5 -12.3488 0 -38.3004 0 192 192 192 255 0.360306 0.060913
-4.82703 5 -14.2992 0 -49.2703 0 192 192 192 255 0.360306 0.060913
0 5 -15 0 -48.2703 0 192 192 192 255 0.360306 0.060913
-12.117 5 -9.11768 0 -37.3004 0 192 192 192 255 0.360306 0.060913
-15 -0 0 1.97881 0 0.290334 192 192 192 255 0.921255 0.641378
-14.2907 -0 -4.83413 0.989407 0 0.145167 192 192 192 255 0.988669 0.641378
-15 5 0 0.989407 0 0.145167 192 192 192 255 0.921255 0.701531
-14.2907 5 -4.83413 1.97881 0 0.290334 192 192 192 255 0.988669 0.701531
-14.2907 -0 -4.83413 1.78351 0 0.905041 192 192 192 255 0.921255 0.641378
-12.117 -0 -9.11768 0.891754 0 0.45252 192 192 192 255 0.988669 0.641378
-14.2907 5 -4.83413 0.891754 0 0.45252 192 192 192 255 0.921255 0.701531
-12.117 5 -9.11768 1.78351 0 0.905041 192 192 192 255 0.988669 0.701531
-12.117 -0 -9.11768 1.41421 0 1.41421 192 192 192 255 0.921255 0.641378
-8.88596 -0 -12.3488 0.707107 0 0.707107 192 192 192 255 0.988669 0.641378
-12.117 5 -9.11768 0.707107 0 0.707107 192 192 192 255 0.921255 0.701531
-8.88596 5 -12.3488 1.41421 0 1.41421 192 192 192 255 0.988669 0.701531
-8.88596 -0 -12.3488 0.866255 0 1.80267 192 192 192 255 0.921255 0.641378
-4.82703 -0 -14.2992 0.433128 0 0.901333 192 192 192 255 0.988669 0.641378
-8.88596 5 -12.3488 0.433128 0 0.901333 192 192 192 255 0.921255 0.701531
-4.82703 5 -14.2992 0.866255 0 1.80267 192 192 192 255 0.988669 0.701531
-4.82703 -0 -14.2992 0.287332 0 1.97925 192 192 192 255 0.921255 0.641378
0 0 -15 0.143666 0 0.989626 192 192 192 255 0.988669 0.641378
-4.82703 5 -14.2992 0.143666 0 0.989626 192 192 192 255 0.921255 0.701531
0 5 -15 0.287332 0 1.97925 192 192 192 255 0.988669 0.701531
-5 0 -5 0 41.3004 0 192 192 192 255 0.587741 0.510713
0 0 -5 0 51.2703 0 192 192 192 255 0.749611 0.510713
-5 0 0 0 50.3413 0 192 192 192 255 0.587741 0.672706
0 0 0 0 2 0 192 192 192 255 0.749611 0.672706
-14.2907 -0 -4.83413 0 50.3413 0 192 192 192 255 0.360306 0.060913
-15 0 0 0 48.3413 0 192 192 192 255 0.360306 0.060913
-8.88596 -0 -12.3488 0 38.3004 0 192 192 192 255 0.360306 0.060913
-4.82703 -0 -14.2992 0 49.2703 0 192 192 192 255 0.360306 0.060913
0 0 -15 0 48.2703 0 192 192 192 255 0.360306 0.060913
-12.117 -0 -9.11768 0 37.3004 0 192 192 192 255 0.360306 0.060913
-5 5 -5 0 -41.3004 0 192 192 192 255 0.360306 0.060913
0 5 -5 0 -51.2703 0 192 192 192 255 0.360306 0.060913
-5 5 0 0 -50.3413 0 192 192 192 255 0.360306 0.060913
-5 0 -5 0 41.3004 0 192 192 192 255 0.360306 0.060913
0 0 -5 0 51.2703 0 192 192 192 255 0.360306 0.060913
-5 0 0 0 50.3413 0 192 192 192 255 0.360306 0.060913
3 3 2 0 
3 3 0 1 
3 40 9 6 
3 41 40 6 
3 41 6 7 
3 42 5 4 
3 40 42 4 
3 40 4 9 
3 41 7 8 
3 13 12 10 
3 13 10 11 
3 17 16 14 
3 17 14 15 
3 21 20 18 
3 21 18 19 
3 25 24 22 
3 25 22 23 
3 29 28 26 
3 29 26 27 
3 33 31 30 
3 33 30 32 
3 43 36 39 
3 44 37 36 
3 44 36 43 
3 45 34 35 
3 43 39 34 
3 43 34 45 
3 44 38 37 
