ply
format ascii 1.0
comment VCGLIB generated
comment TextureFile SpaceInteriors_Texture.png
element vertex 126
property float x
property float y
property float z
property float nx
property float ny
property float nz
property uchar red
property uchar green
property uchar blue
property uchar alpha
property float texture_u
property float texture_v
element face 96
property list uchar int vertex_indices
end_header
-5 0 0 -3 -3 3 192 192 192 255 0.265187 0.061667
0 0 0 3 -3 3 192 192 192 255 0.265187 0.061667
-5 5 0 -3 3 3 192 192 192 255 0.265187 0.061667
0 5 0 3 3 3 192 192 192 255 0.265187 0.061667
-5 5 -5 -3 3 -3 192 192 192 255 0.265187 0.061667
0 5 -5 3 3 -3 192 192 192 255 0.265187 0.061667
-5 0 -5 -3 -3 -3 192 192 192 255 0.265187 0.061667
0 0 -5 3 -3 -3 192 192 192 255 0.265187 0.061667
-4.66569 0.334309 0 1 2 3.00003 192 192 192 255 0.265187 0.061667
-0.334309 0.334309 0 -2 1 3.00004 192 192 192 255 0.265187 0.061667
-0.334309 4.66569 0 -1 -2 3.00003 192 192 192 255 0.265187 0.061667
-4.66569 4.66569 0 2 -1 3.00003 192 192 192 255 0.265187 0.061667
-4.66569 4.66569 -5 1 -2 -3.00003 192 192 192 255 0.265187 0.061667
-0.334309 4.66569 -5 -2 -1 -3.00003 192 192 192 255 0.265187 0.061667
-0.334309 0.334309 -5 -1 2 -3.00004 192 192 192 255 0.265187 0.061667
-4.66569 0.334309 -5 2 1 -3.00003 192 192 192 255 0.265187 0.061667
0 0.334309 -4.6657 3.00005 1 2 192 192 192 255 0.233148 0.061667
0 0.334309 -0.334312 3.00005 2 -1 192 192 192 255 0.233148 0.061667
0 4.66569 -4.6657 3.00004 -2 1 192 192 192 255 0.233148 0.061667
0 4.66569 -0.334312 3.00006 -1 -2 192 192 192 255 0.233148 0.061667
-5 0.334309 -4.6657 -3.00005 2 1 192 192 192 255 0.233148 0.061667
-5 0.334309 -0.334312 -3.00006 1 -2 192 192 192 255 0.233148 0.061667
-5 4.66569 -0.334312 -3.00004 -2 -1 192 192 192 255 0.233148 0.061667
-5 4.66569 -4.6657 -3.00005 -1 2 192 192 192 255 0.233148 0.061667
-4.66569 5 -0.334312 1 3.00006 -2 192 192 192 255 0.300052 0.061667
-0.334309 5 -0.334312 -2 3.00005 -1 192 192 192 255 0.300052 0.061667
-0.334309 5 -4.6657 -1 3.00005 2 192 192 192 255 0.300052 0.061667
-4.66569 5 -4.6657 2 3.00004 1 192 192 192 255 0.300052 0.061667
-4.66569 0 -4.6657 1 -3.00005 2 192 192 192 255 0.200168 0.061667
-0.334309 0 -4.6657 -2 -3.00005 1 192 192 192 255 0.200168 0.061667
-0.334309 0 -0.334312 -1 -3.00006 -2 192 192 192 255 0.200168 0.061667
-4.66569 0 -0.334312 2 -3.00004 -1 192 192 192 255 0.200168 0.061667
-4.66569 0.334313 -0.33432 2.99995 2.99994 -2.99997 192 192 192 255 0.30031 0.058538
-0.334313 0.334313 -0.33432 -2.99994 2.99995 -2.99996 192 192 192 255 0.30031 0.058538
-0.334313 4.66569 -0.33432 -2.99996 -2.99994 -2.99997 192 192 192 255 0.265187 0.061667
-4.66569 4.66569 -0.33432 2.99994 -2.99996 -2.99997 192 192 192 255 0.265187 0.061667
-0.334313 4.66569 -4.66569 -2.99995 -2.99995 2.99997 192 192 192 255 0.235531 0.061667
-4.66569 4.66569 -4.66569 2.99996 -2.99995 2.99997 192 192 192 255 0.204969 0.061667
-0.334313 0.334313 -4.66569 -2.99995 2.99995 2.99996 192 192 192 255 0.265187 0.061667
-4.66569 0.334313 -4.66569 2.99995 2.99996 2.99997 192 192 192 255 0.30031 0.058538
0 0 0 3 -3 3 192 192 192 255 0.233148 0.061667
0 0 -5 3 -3 -3 192 192 192 255 0.233148 0.061667
0 5 -5 3 3 -3 192 192 192 255 0.233148 0.061667
0 5 0 3 3 3 192 192 192 255 0.233148 0.061667
-5 0 -5 -3 -3 -3 192 192 192 255 0.233148 0.061667
-5 0 0 -3 -3 3 192 192 192 255 0.233148 0.061667
-5 5 0 -3 3 3 192 192 192 255 0.233148 0.061667
-5 5 -5 -3 3 -3 192 192 192 255 0.233148 0.061667
-5 5 0 -3 3 3 192 192 192 255 0.300052 0.061667
0 5 0 3 3 3 192 192 192 255 0.300052 0.061667
0 5 -5 3 3 -3 192 192 192 255 0.300052 0.061667
-5 5 -5 -3 3 -3 192 192 192 255 0.300052 0.061667
-5 5 -5 -3 3 -3 192 192 192 255 0.30031 0.058538
-5 5 0 -3 3 3 192 192 192 255 0.30031 0.058538
-4.66569 5 -0.334312 1 3.00006 -2 192 192 192 255 0.30031 0.058538
-4.66569 5 -4.6657 2 3.00004 1 192 192 192 255 0.30031 0.058538
-5 0 -5 -3 -3 -3 192 192 192 255 0.200168 0.061667
0 0 -5 3 -3 -3 192 192 192 255 0.200168 0.061667
0 0 0 3 -3 3 192 192 192 255 0.200168 0.061667
-5 0 0 -3 -3 3 192 192 192 255 0.200168 0.061667
-4.66569 0.334309 0 1 2 3.00003 192 192 192 255 0.30031 0.058538
-0.334309 0.334309 0 -2 1 3.00004 192 192 192 255 0.30031 0.058538
-0.334313 0.334313 -0.33432 -2.99994 2.99995 -2.99996 192 192 192 255 0.265187 0.061667
-4.66569 4.66569 0 2 -1 3.00003 192 192 192 255 0.244812 0.061667
-4.66569 0.334309 0 1 2 3.00003 192 192 192 255 0.244812 0.061667
-4.66569 0.334313 -0.33432 2.99995 2.99994 -2.99997 192 192 192 255 0.244812 0.061667
-4.66569 4.66569 -0.33432 2.99994 -2.99996 -2.99997 192 192 192 255 0.244812 0.061667
-4.66569 5 -0.334312 1 3.00006 -2 192 192 192 255 0.204969 0.061667
-0.334309 5 -0.334312 -2 3.00005 -1 192 192 192 255 0.204969 0.061667
-0.334313 4.66569 -0.33432 -2.99996 -2.99994 -2.99997 192 192 192 255 0.204969 0.061667
-4.66569 4.66569 -0.33432 2.99994 -2.99996 -2.99997 192 192 192 255 0.204969 0.061667
-0.334309 5 -0.334312 -2 3.00005 -1 192 192 192 255 0.235531 0.061667
-0.334309 5 -4.6657 -1 3.00005 2 192 192 192 255 0.235531 0.061667
-0.334313 4.66569 -0.33432 -2.99996 -2.99994 -2.99997 192 192 192 255 0.235531 0.061667
-0.334309 5 -4.6657 -1 3.00005 2 192 192 192 255 0.204969 0.061667
-4.66569 5 -4.6657 2 3.00004 1 192 192 192 255 0.204969 0.061667
-0.334313 4.66569 -4.66569 -2.99995 -2.99995 2.99997 192 192 192 255 0.204969 0.061667
-4.66569 5 -4.6657 2 3.00004 1 192 192 192 255 0.235531 0.061667
-4.66569 5 -0.334312 1 3.00006 -2 192 192 192 255 0.235531 0.061667
-4.66569 4.66569 -0.33432 2.99994 -2.99996 -2.99997 192 192 192 255 0.235531 0.061667
-4.66569 4.66569 -4.66569 2.99996 -2.99995 2.99997 192 192 192 255 0.235531 0.061667
-0.334313 4.66569 -4.66569 -2.99995 -2.99995 2.99997 192 192 192 255 0.265187 0.061667
-4.66569 4.66569 -4.66569 2.99996 -2.99995 2.99997 192 192 192 255 0.265187 0.061667
-0.334309 0.334309 -5 -1 2 -3.00004 192 192 192 255 0.30031 0.058538
-4.66569 0.334309 -5 2 1 -3.00003 192 192 192 255 0.30031 0.058538
-0.334313 0.334313 -4.66569 -2.99995 2.99995 2.99996 192 192 192 255 0.30031 0.058538
-4.66569 0.334309 -5 2 1 -3.00003 192 192 192 255 0.244812 0.061667
-4.66569 4.66569 -5 1 -2 -3.00003 192 192 192 255 0.244812 0.061667
-4.66569 4.66569 -4.66569 2.99996 -2.99995 2.99997 192 192 192 255 0.244812 0.061667
-4.66569 0.334313 -4.66569 2.99995 2.99996 2.99997 192 192 192 255 0.244812 0.061667
-0.334313 0.334313 -4.66569 -2.99995 2.99995 2.99996 192 192 192 255 0.200168 0.061667
-4.66569 0.334313 -4.66569 2.99995 2.99996 2.99997 192 192 192 255 0.200168 0.061667
-0.334309 0 -4.6657 -2 -3.00005 1 192 192 192 255 0.23073 0.061667
-0.334309 0 -0.334312 -1 -3.00006 -2 192 192 192 255 0.23073 0.061667
-0.334313 0.334313 -0.33432 -2.99994 2.99995 -2.99996 192 192 192 255 0.23073 0.061667
-0.334313 0.334313 -4.66569 -2.99995 2.99995 2.99996 192 192 192 255 0.23073 0.061667
-4.66569 0.334313 -0.33432 2.99995 2.99994 -2.99997 192 192 192 255 0.200168 0.061667
-0.334313 0.334313 -0.33432 -2.99994 2.99995 -2.99996 192 192 192 255 0.200168 0.061667
-4.66569 0 -0.334312 2 -3.00004 -1 192 192 192 255 0.23073 0.061667
-4.66569 0 -4.6657 1 -3.00005 2 192 192 192 255 0.23073 0.061667
-4.66569 0.334313 -4.66569 2.99995 2.99996 2.99997 192 192 192 255 0.23073 0.061667
-4.66569 0.334313 -0.33432 2.99995 2.99994 -2.99997 192 192 192 255 0.23073 0.061667
0 0.334309 -0.334312 3.00005 2 -1 192 192 192 255 0.30031 0.058538
0 0.334309 -4.6657 3.00005 1 2 192 192 192 255 0.30031 0.058538
0 0.334309 -4.6657 3.00005 1 2 192 192 192 255 0.202586 0.061667
0 4.66569 -4.6657 3.00004 -2 1 192 192 192 255 0.202586 0.061667
-0.334313 4.66569 -4.66569 -2.99995 -2.99995 2.99997 192 192 192 255 0.202586 0.061667
-0.334313 0.334313 -4.66569 -2.99995 2.99995 2.99996 192 192 192 255 0.202586 0.061667
-0.334313 4.66569 -0.33432 -2.99996 -2.99994 -2.99997 192 192 192 255 0.233148 0.061667
-0.334313 4.66569 -4.66569 -2.99995 -2.99995 2.99997 192 192 192 255 0.233148 0.061667
0 4.66569 -0.334312 3.00006 -1 -2 192 192 192 255 0.202586 0.061667
0 0.334309 -0.334312 3.00005 2 -1 192 192 192 255 0.202586 0.061667
-0.334313 0.334313 -0.33432 -2.99994 2.99995 -2.99996 192 192 192 255 0.202586 0.061667
-0.334313 4.66569 -0.33432 -2.99996 -2.99994 -2.99997 192 192 192 255 0.202586 0.061667
-5 0.334309 -4.6657 -3.00005 2 1 192 192 192 255 0.30031 0.058538
-5 0.334309 -0.334312 -3.00006 1 -2 192 192 192 255 0.30031 0.058538
-5 0.334309 -0.334312 -3.00006 1 -2 192 192 192 255 0.202586 0.061667
-5 4.66569 -0.334312 -3.00004 -2 -1 192 192 192 255 0.202586 0.061667
-4.66569 4.66569 -0.33432 2.99994 -2.99996 -2.99997 192 192 192 255 0.202586 0.061667
-4.66569 0.334313 -0.33432 2.99995 2.99994 -2.99997 192 192 192 255 0.202586 0.061667
-4.66569 4.66569 -4.66569 2.99996 -2.99995 2.99997 192 192 192 255 0.233148 0.061667
-4.66569 4.66569 -0.33432 2.99994 -2.99996 -2.99997 192 192 192 255 0.233148 0.061667
-5 4.66569 -4.6657 -3.00005 -1 2 192 192 192 255 0.202586 0.061667
-5 0.334309 -4.6657 -3.00005 2 1 192 192 192 255 0.202586 0.061667
-4.66569 0.334313 -4.66569 2.99995 2.99996 2.99997 192 192 192 255 0.202586 0.061667
-4.66569 4.66569 -4.66569 2.99996 -2.99995 2.99997 192 192 192 255 0.202586 0.061667
3 0 1 9 
3 0 9 8 
3 1 3 10 
3 1 10 9 
3 3 2 11 
3 3 11 10 
3 2 0 8 
3 2 8 11 
3 4 5 13 
3 4 13 12 
3 5 7 14 
3 5 14 13 
3 7 6 15 
3 7 15 14 
3 6 4 12 
3 6 12 15 
3 40 41 16 
3 40 16 17 
3 41 42 18 
3 41 18 16 
3 42 43 19 
3 42 19 18 
3 43 40 17 
3 43 17 19 
3 44 45 21 
3 44 21 20 
3 45 46 22 
3 45 22 21 
3 46 47 23 
3 46 23 22 
3 47 44 20 
3 47 20 23 
3 48 49 25 
3 48 25 24 
3 49 50 26 
3 49 26 25 
3 50 51 27 
3 50 27 26 
3 52 53 54 
3 52 54 55 
3 56 57 29 
3 56 29 28 
3 57 58 30 
3 57 30 29 
3 58 59 31 
3 58 31 30 
3 59 56 28 
3 59 28 31 
3 60 61 33 
3 60 33 32 
3 9 10 34 
3 9 34 62 
3 10 11 35 
3 10 35 34 
3 63 64 65 
3 63 65 66 
3 67 68 69 
3 67 69 70 
3 71 72 36 
3 71 36 73 
3 74 75 37 
3 74 37 76 
3 77 78 79 
3 77 79 80 
3 12 13 81 
3 12 81 82 
3 13 14 38 
3 13 38 81 
3 83 84 39 
3 83 39 85 
3 86 87 88 
3 86 88 89 
3 28 29 90 
3 28 90 91 
3 92 93 94 
3 92 94 95 
3 30 31 96 
3 30 96 97 
3 98 99 100 
3 98 100 101 
3 102 103 85 
3 102 85 33 
3 104 105 106 
3 104 106 107 
3 18 19 108 
3 18 108 109 
3 110 111 112 
3 110 112 113 
3 114 115 32 
3 114 32 39 
3 116 117 118 
3 116 118 119 
3 22 23 120 
3 22 120 121 
3 122 123 124 
3 122 124 125 
