ply
format ascii 1.0
comment VCGLIB generated
comment TextureFile SpaceInteriors_Texture.png
element vertex 224
property float x
property float y
property float z
property float nx
property float ny
property float nz
property uchar red
property uchar green
property uchar blue
property uchar alpha
property float texture_u
property float texture_v
element face 128
property list uchar int vertex_indices
end_header
-3.79311 2.24611 0.283115 -3 -1 2 192 192 192 255 0.267261 0.061667
-3.70689 2.24611 0.283115 3 -2 1 192 192 192 255 0.267261 0.061667
-3.79311 4.03249 0.283115 -3 2 1 192 192 192 255 0.267261 0.061667
-3.70689 4.03249 0.283115 3 1 2 192 192 192 255 0.267261 0.061667
-3.79311 3.94408 0.196896 -3 -1 -2 192 192 192 255 0.267261 0.061667
-3.70689 3.94408 0.196896 3 -2 -1 192 192 192 255 0.267261 0.061667
-3.79311 2.33452 0.196896 -3 2 -1 192 192 192 255 0.267261 0.061667
-3.70689 2.33452 0.196896 3 1 -2 192 192 192 255 0.267261 0.061667
-3.79311 4.03249 0.058773 -2 1 3 192 192 192 255 0.300052 0.061667
-3.70689 4.03249 0.058773 1 2 3 192 192 192 255 0.300052 0.061667
-3.70689 3.94408 0.058773 2 -1 3 192 192 192 255 0.240032 0.061667
-3.79311 3.94408 0.058773 -1 -2 3 192 192 192 255 0.198113 0.061667
-3.79311 2.33452 0.058773 -2 1 3 192 192 192 255 0.29711 0.061667
-3.70689 2.33452 0.058773 1 2 3 192 192 192 255 0.29711 0.061667
-3.70689 2.24611 0.058773 2 -1 3 192 192 192 255 0.244197 0.061667
-3.79311 2.24611 0.058773 -1 -2 3 192 192 192 255 0.200168 0.061667
-3.82096 4.06104 0.058773 -1 2 3 192 192 192 255 0.26373 0.062198
-3.67905 4.06104 0.058773 2 1 3 192 192 192 255 0.26373 0.062198
-3.67905 3.91553 0.058773 1 -2 3 192 192 192 255 0.26373 0.062198
-3.82096 3.91553 0.058773 -2 -1 3 192 192 192 255 0.26373 0.062198
-3.82096 2.36308 0.058773 -1 2 3 192 192 192 255 0.26373 0.062198
-3.67904 2.36308 0.058773 2 1 3 192 192 192 255 0.26373 0.062198
-3.67904 2.21756 0.058773 1 -2 3 192 192 192 255 0.26373 0.062198
-3.82096 2.21756 0.058773 -2 -1 3 192 192 192 255 0.26373 0.062198
-3.82096 4.06104 4e-006 -2 1 0 192 192 192 255 0.297952 0.062198
-3.67905 4.06104 4e-006 1 2 0 192 192 192 255 0.297952 0.062198
-3.67905 3.91553 4e-006 2 -1 0 192 192 192 255 0.235124 0.062198
-3.82096 3.91553 4e-006 -1 -2 0 192 192 192 255 0.209288 0.062198
-3.82096 2.36308 4e-006 -2 1 0 192 192 192 255 0.297952 0.062198
-3.67904 2.36308 4e-006 1 2 0 192 192 192 255 0.297952 0.062198
-3.67904 2.21756 4e-006 2 -1 0 192 192 192 255 0.235124 0.062198
-3.82096 2.21756 4e-006 -1 -2 0 192 192 192 255 0.209288 0.062198
-1.29311 2.24611 0.283115 -3 -1 2 192 192 192 255 0.267261 0.061667
-1.20689 2.24611 0.283115 3 -2 1 192 192 192 255 0.267261 0.061667
-1.29311 4.03249 0.283115 -3 2 1 192 192 192 255 0.267261 0.061667
-1.20689 4.03249 0.283115 3 1 2 192 192 192 255 0.267261 0.061667
-1.29311 3.94408 0.196896 -3 -1 -2 192 192 192 255 0.267261 0.061667
-1.20689 3.94408 0.196896 3 -2 -1 192 192 192 255 0.267261 0.061667
-1.29311 2.33452 0.196896 -3 2 -1 192 192 192 255 0.267261 0.061667
-1.20689 2.33452 0.196896 3 1 -2 192 192 192 255 0.267261 0.061667
-1.29311 4.03249 0.058773 -2 1 3 192 192 192 255 0.300052 0.061667
-1.20689 4.03249 0.058773 1 2 3 192 192 192 255 0.300052 0.061667
-1.20689 3.94408 0.058773 2 -1 3 192 192 192 255 0.240032 0.061667
-1.29311 3.94408 0.058773 -1 -2 3 192 192 192 255 0.198113 0.061667
-1.29311 2.33452 0.058773 -2 1 3 192 192 192 255 0.29711 0.061667
-1.20689 2.33452 0.058773 1 2 3 192 192 192 255 0.29711 0.061667
-1.20689 2.24611 0.058773 2 -1 3 192 192 192 255 0.244197 0.061667
-1.29311 2.24611 0.058773 -1 -2 3 192 192 192 255 0.200168 0.061667
-1.32096 4.06104 0.058773 -1 2 3 192 192 192 255 0.26373 0.062198
-1.17905 4.06104 0.058773 2 1 3 192 192 192 255 0.26373 0.062198
-1.17905 3.91553 0.058773 1 -2 3 192 192 192 255 0.26373 0.062198
-1.32096 3.91553 0.058773 -2 -1 3 192 192 192 255 0.26373 0.062198
-1.32096 2.36308 0.058773 -1 2 3 192 192 192 255 0.26373 0.062198
-1.17904 2.36308 0.058773 2 1 3 192 192 192 255 0.26373 0.062198
-1.17904 2.21756 0.058773 1 -2 3 192 192 192 255 0.26373 0.062198
-1.32096 2.21756 0.058773 -2 -1 3 192 192 192 255 0.26373 0.062198
-1.32096 4.06104 4e-006 -2 1 0 192 192 192 255 0.297952 0.062198
-1.17905 4.06104 4e-006 1 2 0 192 192 192 255 0.297952 0.062198
-1.17905 3.91553 4e-006 2 -1 0 192 192 192 255 0.235124 0.062198
-1.32096 3.91553 4e-006 -1 -2 0 192 192 192 255 0.209288 0.062198
-1.32096 2.36308 4e-006 -2 1 0 192 192 192 255 0.297952 0.062198
-1.17904 2.36308 4e-006 1 2 0 192 192 192 255 0.297952 0.062198
-1.17904 2.21756 4e-006 2 -1 0 192 192 192 255 0.235124 0.062198
-1.32096 2.21756 4e-006 -1 -2 0 192 192 192 255 0.209288 0.062198
-5 0 0 0 0 1 192 192 192 255 0.919392 0.640965
0 0 0 0 0 1 192 192 192 255 0.990896 0.640965
-5 5 0 0 0 1 192 192 192 255 0.750427 0.873158
0 5 0 0 0 2 192 192 192 255 0.8862 0.873158
-2.5 0 0 0 0 3 192 192 192 255 0.990895 0.640965
-2.5 5 0 0 0 3 192 192 192 255 0.750426 0.873158
-3.75 0 0 0 0 3 192 192 192 255 0.990896 0.640965
-3.75 5 0 0 0 3 192 192 192 255 0.8862 0.873158
-1.25 0 0 0 0 4 192 192 192 255 0.990895 0.640965
-1.25 5 0 0 0 3 192 192 192 255 0.8862 0.873158
-5 4 0 0 0 4 192 192 192 255 0.750427 0.789687
-3.75 4 0 0 0 6 192 192 192 255 0.8862 0.789687
-2.5 4 0 0 0 6 192 192 192 255 0.750426 0.789687
-1.25 4 0 0 0 5 192 192 192 255 0.8862 0.789687
0 4 0 0 0 3 192 192 192 255 0.8862 0.789687
-3.70689 2.24611 0.283115 3 -2 1 192 192 192 255 0.233148 0.061667
-3.70689 2.33452 0.196896 3 1 -2 192 192 192 255 0.233148 0.061667
-3.70689 3.94408 0.196896 3 -2 -1 192 192 192 255 0.233148 0.061667
-3.70689 4.03249 0.283115 3 1 2 192 192 192 255 0.233148 0.061667
-3.79311 2.33452 0.196896 -3 2 -1 192 192 192 255 0.233148 0.061667
-3.79311 2.24611 0.283115 -3 -1 2 192 192 192 255 0.233148 0.061667
-3.79311 4.03249 0.283115 -3 2 1 192 192 192 255 0.233148 0.061667
-3.79311 3.94408 0.196896 -3 -1 -2 192 192 192 255 0.233148 0.061667
-3.79311 4.03249 0.283115 -3 2 1 192 192 192 255 0.300052 0.061667
-3.70689 4.03249 0.283115 3 1 2 192 192 192 255 0.300052 0.061667
-3.70689 4.03249 0.283115 3 1 2 192 192 192 255 0.240032 0.061667
-3.70689 3.94408 0.196896 3 -2 -1 192 192 192 255 0.240032 0.061667
-3.70689 4.03249 0.058773 1 2 3 192 192 192 255 0.240032 0.061667
-3.70689 3.94408 0.196896 3 -2 -1 192 192 192 255 0.198113 0.061667
-3.79311 3.94408 0.196896 -3 -1 -2 192 192 192 255 0.198113 0.061667
-3.70689 3.94408 0.058773 2 -1 3 192 192 192 255 0.198113 0.061667
-3.79311 3.94408 0.196896 -3 -1 -2 192 192 192 255 0.240032 0.061667
-3.79311 4.03249 0.283115 -3 2 1 192 192 192 255 0.240032 0.061667
-3.79311 4.03249 0.058773 -2 1 3 192 192 192 255 0.240032 0.061667
-3.79311 3.94408 0.058773 -1 -2 3 192 192 192 255 0.240032 0.061667
-3.79311 2.33452 0.196896 -3 2 -1 192 192 192 255 0.29711 0.061667
-3.70689 2.33452 0.196896 3 1 -2 192 192 192 255 0.29711 0.061667
-3.70689 2.33452 0.196896 3 1 -2 192 192 192 255 0.244197 0.061667
-3.70689 2.24611 0.283115 3 -2 1 192 192 192 255 0.244197 0.061667
-3.70689 2.33452 0.058773 1 2 3 192 192 192 255 0.244197 0.061667
-3.70689 2.24611 0.283115 3 -2 1 192 192 192 255 0.200168 0.061667
-3.79311 2.24611 0.283115 -3 -1 2 192 192 192 255 0.200168 0.061667
-3.70689 2.24611 0.058773 2 -1 3 192 192 192 255 0.200168 0.061667
-3.79311 2.24611 0.283115 -3 -1 2 192 192 192 255 0.244197 0.061667
-3.79311 2.33452 0.196896 -3 2 -1 192 192 192 255 0.244197 0.061667
-3.79311 2.33452 0.058773 -2 1 3 192 192 192 255 0.244197 0.061667
-3.79311 2.24611 0.058773 -1 -2 3 192 192 192 255 0.244197 0.061667
-3.79311 4.03249 0.058773 -2 1 3 192 192 192 255 0.26373 0.062198
-3.70689 4.03249 0.058773 1 2 3 192 192 192 255 0.26373 0.062198
-3.70689 3.94408 0.058773 2 -1 3 192 192 192 255 0.26373 0.062198
-3.79311 3.94408 0.058773 -1 -2 3 192 192 192 255 0.26373 0.062198
-3.79311 2.33452 0.058773 -2 1 3 192 192 192 255 0.26373 0.062198
-3.70689 2.33452 0.058773 1 2 3 192 192 192 255 0.26373 0.062198
-3.70689 2.24611 0.058773 2 -1 3 192 192 192 255 0.26373 0.062198
-3.79311 2.24611 0.058773 -1 -2 3 192 192 192 255 0.26373 0.062198
-3.82096 4.06104 0.058773 -1 2 3 192 192 192 255 0.297952 0.062198
-3.67905 4.06104 0.058773 2 1 3 192 192 192 255 0.297952 0.062198
-3.67905 4.06104 0.058773 2 1 3 192 192 192 255 0.235124 0.062198
-3.67905 3.91553 0.058773 1 -2 3 192 192 192 255 0.235124 0.062198
-3.67905 4.06104 4e-006 1 2 0 192 192 192 255 0.235124 0.062198
-3.67905 3.91553 0.058773 1 -2 3 192 192 192 255 0.209288 0.062198
-3.82096 3.91553 0.058773 -2 -1 3 192 192 192 255 0.209288 0.062198
-3.67905 3.91553 4e-006 2 -1 0 192 192 192 255 0.209288 0.062198
-3.82096 3.91553 0.058773 -2 -1 3 192 192 192 255 0.235124 0.062198
-3.82096 4.06104 0.058773 -1 2 3 192 192 192 255 0.235124 0.062198
-3.82096 4.06104 4e-006 -2 1 0 192 192 192 255 0.235124 0.062198
-3.82096 3.91553 4e-006 -1 -2 0 192 192 192 255 0.235124 0.062198
-3.82096 2.36308 0.058773 -1 2 3 192 192 192 255 0.297952 0.062198
-3.67904 2.36308 0.058773 2 1 3 192 192 192 255 0.297952 0.062198
-3.67904 2.36308 0.058773 2 1 3 192 192 192 255 0.235124 0.062198
-3.67904 2.21756 0.058773 1 -2 3 192 192 192 255 0.235124 0.062198
-3.67904 2.36308 4e-006 1 2 0 192 192 192 255 0.235124 0.062198
-3.67904 2.21756 0.058773 1 -2 3 192 192 192 255 0.209288 0.062198
-3.82096 2.21756 0.058773 -2 -1 3 192 192 192 255 0.209288 0.062198
-3.67904 2.21756 4e-006 2 -1 0 192 192 192 255 0.209288 0.062198
-3.82096 2.21756 0.058773 -2 -1 3 192 192 192 255 0.235124 0.062198
-3.82096 2.36308 0.058773 -1 2 3 192 192 192 255 0.235124 0.062198
-3.82096 2.36308 4e-006 -2 1 0 192 192 192 255 0.235124 0.062198
-3.82096 2.21756 4e-006 -1 -2 0 192 192 192 255 0.235124 0.062198
-1.20689 2.24611 0.283115 3 -2 1 192 192 192 255 0.233148 0.061667
-1.20689 2.33452 0.196896 3 1 -2 192 192 192 255 0.233148 0.061667
-1.20689 3.94408 0.196896 3 -2 -1 192 192 192 255 0.233148 0.061667
-1.20689 4.03249 0.283115 3 1 2 192 192 192 255 0.233148 0.061667
-1.29311 2.33452 0.196896 -3 2 -1 192 192 192 255 0.233148 0.061667
-1.29311 2.24611 0.283115 -3 -1 2 192 192 192 255 0.233148 0.061667
-1.29311 4.03249 0.283115 -3 2 1 192 192 192 255 0.233148 0.061667
-1.29311 3.94408 0.196896 -3 -1 -2 192 192 192 255 0.233148 0.061667
-1.29311 4.03249 0.283115 -3 2 1 192 192 192 255 0.300052 0.061667
-1.20689 4.03249 0.283115 3 1 2 192 192 192 255 0.300052 0.061667
-1.20689 4.03249 0.283115 3 1 2 192 192 192 255 0.240032 0.061667
-1.20689 3.94408 0.196896 3 -2 -1 192 192 192 255 0.240032 0.061667
-1.20689 4.03249 0.058773 1 2 3 192 192 192 255 0.240032 0.061667
-1.20689 3.94408 0.196896 3 -2 -1 192 192 192 255 0.198113 0.061667
-1.29311 3.94408 0.196896 -3 -1 -2 192 192 192 255 0.198113 0.061667
-1.20689 3.94408 0.058773 2 -1 3 192 192 192 255 0.198113 0.061667
-1.29311 3.94408 0.196896 -3 -1 -2 192 192 192 255 0.240032 0.061667
-1.29311 4.03249 0.283115 -3 2 1 192 192 192 255 0.240032 0.061667
-1.29311 4.03249 0.058773 -2 1 3 192 192 192 255 0.240032 0.061667
-1.29311 3.94408 0.058773 -1 -2 3 192 192 192 255 0.240032 0.061667
-1.29311 2.33452 0.196896 -3 2 -1 192 192 192 255 0.29711 0.061667
-1.20689 2.33452 0.196896 3 1 -2 192 192 192 255 0.29711 0.061667
-1.20689 2.33452 0.196896 3 1 -2 192 192 192 255 0.244197 0.061667
-1.20689 2.24611 0.283115 3 -2 1 192 192 192 255 0.244197 0.061667
-1.20689 2.33452 0.058773 1 2 3 192 192 192 255 0.244197 0.061667
-1.20689 2.24611 0.283115 3 -2 1 192 192 192 255 0.200168 0.061667
-1.29311 2.24611 0.283115 -3 -1 2 192 192 192 255 0.200168 0.061667
-1.20689 2.24611 0.058773 2 -1 3 192 192 192 255 0.200168 0.061667
-1.29311 2.24611 0.283115 -3 -1 2 192 192 192 255 0.244197 0.061667
-1.29311 2.33452 0.196896 -3 2 -1 192 192 192 255 0.244197 0.061667
-1.29311 2.33452 0.058773 -2 1 3 192 192 192 255 0.244197 0.061667
-1.29311 2.24611 0.058773 -1 -2 3 192 192 192 255 0.244197 0.061667
-1.29311 4.03249 0.058773 -2 1 3 192 192 192 255 0.26373 0.062198
-1.20689 4.03249 0.058773 1 2 3 192 192 192 255 0.26373 0.062198
-1.20689 3.94408 0.058773 2 -1 3 192 192 192 255 0.26373 0.062198
-1.29311 3.94408 0.058773 -1 -2 3 192 192 192 255 0.26373 0.062198
-1.29311 2.33452 0.058773 -2 1 3 192 192 192 255 0.26373 0.062198
-1.20689 2.33452 0.058773 1 2 3 192 192 192 255 0.26373 0.062198
-1.20689 2.24611 0.058773 2 -1 3 192 192 192 255 0.26373 0.062198
-1.29311 2.24611 0.058773 -1 -2 3 192 192 192 255 0.26373 0.062198
-1.32096 4.06104 0.058773 -1 2 3 192 192 192 255 0.297952 0.062198
-1.17905 4.06104 0.058773 2 1 3 192 192 192 255 0.297952 0.062198
-1.17905 4.06104 0.058773 2 1 3 192 192 192 255 0.235124 0.062198
-1.17905 3.91553 0.058773 1 -2 3 192 192 192 255 0.235124 0.062198
-1.17905 4.06104 4e-006 1 2 0 192 192 192 255 0.235124 0.062198
-1.17905 3.91553 0.058773 1 -2 3 192 192 192 255 0.209288 0.062198
-1.32096 3.91553 0.058773 -2 -1 3 192 192 192 255 0.209288 0.062198
-1.17905 3.91553 4e-006 2 -1 0 192 192 192 255 0.209288 0.062198
-1.32096 3.91553 0.058773 -2 -1 3 192 192 192 255 0.235124 0.062198
-1.32096 4.06104 0.058773 -1 2 3 192 192 192 255 0.235124 0.062198
-1.32096 4.06104 4e-006 -2 1 0 192 192 192 255 0.235124 0.062198
-1.32096 3.91553 4e-006 -1 -2 0 192 192 192 255 0.235124 0.062198
-1.32096 2.36308 0.058773 -1 2 3 192 192 192 255 0.297952 0.062198
-1.17904 2.36308 0.058773 2 1 3 192 192 192 255 0.297952 0.062198
-1.17904 2.36308 0.058773 2 1 3 192 192 192 255 0.235124 0.062198
-1.17904 2.21756 0.058773 1 -2 3 192 192 192 255 0.235124 0.062198
-1.17904 2.36308 4e-006 1 2 0 192 192 192 255 0.235124 0.062198
-1.17904 2.21756 0.058773 1 -2 3 192 192 192 255 0.209288 0.062198
-1.32096 2.21756 0.058773 -2 -1 3 192 192 192 255 0.209288 0.062198
-1.17904 2.21756 4e-006 2 -1 0 192 192 192 255 0.209288 0.062198
-1.32096 2.21756 0.058773 -2 -1 3 192 192 192 255 0.235124 0.062198
-1.32096 2.36308 0.058773 -1 2 3 192 192 192 255 0.235124 0.062198
-1.32096 2.36308 4e-006 -2 1 0 192 192 192 255 0.235124 0.062198
-1.32096 2.21756 4e-006 -1 -2 0 192 192 192 255 0.235124 0.062198
-3.75 4 0 0 0 6 192 192 192 255 0.750427 0.789687
-2.5 4 0 0 0 6 192 192 192 255 0.8862 0.789687
-2.5 5 0 0 0 3 192 192 192 255 0.8862 0.873158
-3.75 5 0 0 0 3 192 192 192 255 0.750427 0.873158
-1.25 5 0 0 0 3 192 192 192 255 0.750427 0.873158
-1.25 4 0 0 0 5 192 192 192 255 0.750427 0.789687
-3.75 4 0 0 0 6 192 192 192 255 0.990896 0.701964
-5 4 0 0 0 4 192 192 192 255 0.919392 0.701964
-2.5 4 0 0 0 6 192 192 192 255 0.990895 0.701964
-3.75 4 0 0 0 6 192 192 192 255 0.919392 0.701964
-3.75 0 0 0 0 3 192 192 192 255 0.919392 0.640965
-1.25 4 0 0 0 5 192 192 192 255 0.990895 0.701964
-2.5 4 0 0 0 6 192 192 192 255 0.919392 0.701964
-2.5 0 0 0 0 3 192 192 192 255 0.919392 0.640965
0 4 0 0 0 3 192 192 192 255 0.990896 0.701964
-1.25 4 0 0 0 5 192 192 192 255 0.919392 0.701964
-1.25 0 0 0 0 4 192 192 192 255 0.919392 0.640965
3 0 1 3 
3 0 3 2 
3 4 5 7 
3 4 7 6 
3 79 80 81 
3 79 81 82 
3 83 84 85 
3 83 85 86 
3 87 88 9 
3 87 9 8 
3 89 90 10 
3 89 10 91 
3 92 93 11 
3 92 11 94 
3 95 96 97 
3 95 97 98 
3 99 100 13 
3 99 13 12 
3 101 102 14 
3 101 14 103 
3 104 105 15 
3 104 15 106 
3 107 108 109 
3 107 109 110 
3 111 112 17 
3 111 17 16 
3 112 113 18 
3 112 18 17 
3 113 114 19 
3 113 19 18 
3 114 111 16 
3 114 16 19 
3 115 116 21 
3 115 21 20 
3 116 117 22 
3 116 22 21 
3 117 118 23 
3 117 23 22 
3 118 115 20 
3 118 20 23 
3 119 120 25 
3 119 25 24 
3 121 122 26 
3 121 26 123 
3 124 125 27 
3 124 27 126 
3 127 128 129 
3 127 129 130 
3 131 132 29 
3 131 29 28 
3 133 134 30 
3 133 30 135 
3 136 137 31 
3 136 31 138 
3 139 140 141 
3 139 141 142 
3 32 33 35 
3 32 35 34 
3 36 37 39 
3 36 39 38 
3 143 144 145 
3 143 145 146 
3 147 148 149 
3 147 149 150 
3 151 152 41 
3 151 41 40 
3 153 154 42 
3 153 42 155 
3 156 157 43 
3 156 43 158 
3 159 160 161 
3 159 161 162 
3 163 164 45 
3 163 45 44 
3 165 166 46 
3 165 46 167 
3 168 169 47 
3 168 47 170 
3 171 172 173 
3 171 173 174 
3 175 176 49 
3 175 49 48 
3 176 177 50 
3 176 50 49 
3 177 178 51 
3 177 51 50 
3 178 175 48 
3 178 48 51 
3 179 180 53 
3 179 53 52 
3 180 181 54 
3 180 54 53 
3 181 182 55 
3 181 55 54 
3 182 179 52 
3 182 52 55 
3 183 184 57 
3 183 57 56 
3 185 186 58 
3 185 58 187 
3 188 189 59 
3 188 59 190 
3 191 192 193 
3 191 193 194 
3 195 196 61 
3 195 61 60 
3 197 198 62 
3 197 62 199 
3 200 201 63 
3 200 63 202 
3 203 204 205 
3 203 205 206 
3 74 75 71 
3 74 71 66 
3 76 77 73 
3 76 73 69 
3 207 208 209 
3 207 209 210 
3 67 211 212 
3 67 212 78 
3 70 213 214 
3 70 214 64 
3 68 215 216 
3 68 216 217 
3 72 218 219 
3 72 219 220 
3 221 222 223 
3 221 223 65 
