ply
format ascii 1.0
comment VCGLIB generated
comment TextureFile SpaceInteriors_Texture.png
element vertex 74
property float x
property float y
property float z
property float nx
property float ny
property float nz
property uchar red
property uchar green
property uchar blue
property uchar alpha
property float texture_u
property float texture_v
element face 42
property list uchar int vertex_indices
end_header
0.347585 0.243515 0.018883 0.420291 -0.90739 0 192 192 192 255 0.1736 0.088437
0.263478 0.407659 0.018883 -0.840582 1.81478 0 192 192 192 255 0.1736 0.088437
9.73651 4.59234 0.018883 0.840581 -1.81478 0 192 192 192 255 0.1736 0.088437
9.6524 4.75648 0.018883 -0.420291 0.90739 0 192 192 192 255 0.1736 0.088437
9.73651 4.59234 0.21315 0.420291 -0.90739 2 192 192 192 255 0.205638 0.088437
9.6524 4.75648 0.21315 -0.840582 1.81478 1 192 192 192 255 0.205638 0.088437
0.347585 0.243515 0.21315 0.840581 -1.81478 1 192 192 192 255 0.205638 0.088437
0.263478 0.407659 0.21315 -0.420291 0.90739 2 192 192 192 255 0.205638 0.088437
9.65241 0.243515 0.213158 -0.420291 -0.90739 2 192 192 192 255 0.205638 0.088437
9.73651 0.407659 0.213158 0.840582 1.81478 1 192 192 192 255 0.205638 0.088437
0.263478 4.59234 0.213158 -0.840581 -1.81478 1 192 192 192 255 0.205638 0.088437
0.347587 4.75648 0.213158 0.420291 0.90739 2 192 192 192 255 0.205638 0.088437
0.263478 4.59234 0.01889 -0.420291 -0.90739 0 192 192 192 255 0.1736 0.088437
0.347587 4.75648 0.01889 0.840582 1.81478 0 192 192 192 255 0.1736 0.088437
9.65241 0.243515 0.01889 -0.840581 -1.81478 0 192 192 192 255 0.1736 0.088437
9.73651 0.407659 0.01889 0.420291 0.90739 0 192 192 192 255 0.1736 0.088437
10 -0 0 0 0 2 192 192 192 255 0.391929 0.062464
-3e-006 -0 0 0 0 1 192 192 192 255 0.391929 0.062464
10 5 0 0 0 1 192 192 192 255 0.391929 0.062464
-3e-006 5 0 0 0 2 192 192 192 255 0.391929 0.062464
-3e-006 0 0.321823 -1 -1 3 192 192 192 255 0.140619 0.088437
10 0 0.321823 2 -2 3 192 192 192 255 0.140619 0.088437
-3e-006 5 0.321823 -2 2 3 192 192 192 255 0.240504 0.088437
10 5 0.321823 1 1 3 192 192 192 255 0.240504 0.088437
-3e-006 5 0 -1 1 0 192 192 192 255 0.240504 0.088437
10 5 0 2 2 0 192 192 192 255 0.240504 0.088437
-3e-006 0 0 -2 -2 0 192 192 192 255 0.140619 0.088437
10 0 0 1 -1 0 192 192 192 255 0.140619 0.088437
0.305533 0.325587 0.321823 1 2 3 192 192 192 255 0.205638 0.088437
9.69446 0.325587 0.321823 -2 1 3 192 192 192 255 0.205638 0.088437
9.69446 4.67441 0.321823 -1 -2 3 192 192 192 255 0.205638 0.088437
0.305533 4.67441 0.321823 2 -1 3 192 192 192 255 0.205638 0.088437
0.305533 4.67441 0 1 -2 0 192 192 192 255 0.205638 0.088437
9.69446 4.67441 0 -2 -1 0 192 192 192 255 0.17592 0.088437
9.69446 0.325587 0 -1 2 0 192 192 192 255 0.237214 0.088437
0.305533 0.325587 0 2 1 0 192 192 192 255 0.237214 0.088437
2.5 -0 0 0 0 4 192 192 192 255 0.662913 0.108379
2.5 5 0 0 0 2 192 192 192 255 0.662913 0.272579
7.5 -0 0 0 0 2 192 192 192 255 0.827113 0.108379
7.5 5 0 0 0 4 192 192 192 255 0.827113 0.272579
0.263478 0.407659 0.21315 -0.420291 0.90739 2 192 192 192 255 0.1736 0.088437
9.6524 4.75648 0.21315 -0.840582 1.81478 1 192 192 192 255 0.1736 0.088437
0.347585 0.243515 0.21315 0.840581 -1.81478 1 192 192 192 255 0.1736 0.088437
9.73651 4.59234 0.21315 0.420291 -0.90739 2 192 192 192 255 0.1736 0.088437
9.73651 0.407659 0.213158 0.840582 1.81478 1 192 192 192 255 0.1736 0.088437
0.347587 4.75648 0.213158 0.420291 0.90739 2 192 192 192 255 0.1736 0.088437
9.65241 0.243515 0.213158 -0.420291 -0.90739 2 192 192 192 255 0.1736 0.088437
0.263478 4.59234 0.213158 -0.840581 -1.81478 1 192 192 192 255 0.1736 0.088437
10 0 0.321823 2 -2 3 192 192 192 255 0.1736 0.088437
10 0 0 1 -1 0 192 192 192 255 0.1736 0.088437
10 5 0 2 2 0 192 192 192 255 0.1736 0.088437
10 5 0.321823 1 1 3 192 192 192 255 0.1736 0.088437
-3e-006 0 0 -2 -2 0 192 192 192 255 0.1736 0.088437
-3e-006 0 0.321823 -1 -1 3 192 192 192 255 0.1736 0.088437
-3e-006 5 0.321823 -2 2 3 192 192 192 255 0.1736 0.088437
-3e-006 5 0 -1 1 0 192 192 192 255 0.1736 0.088437
-3e-006 0 0.321823 -1 -1 3 192 192 192 255 0.205638 0.088437
10 0 0.321823 2 -2 3 192 192 192 255 0.205638 0.088437
10 5 0.321823 1 1 3 192 192 192 255 0.205638 0.088437
-3e-006 5 0.321823 -2 2 3 192 192 192 255 0.205638 0.088437
0.305533 0.325587 0.321823 1 2 3 192 192 192 255 0.237214 0.088437
9.69446 0.325587 0.321823 -2 1 3 192 192 192 255 0.237214 0.088437
9.69446 0.325587 0.321823 -2 1 3 192 192 192 255 0.17592 0.088437
9.69446 4.67441 0.321823 -1 -2 3 192 192 192 255 0.17592 0.088437
9.69446 0.325587 0 -1 2 0 192 192 192 255 0.17592 0.088437
9.69446 4.67441 0 -2 -1 0 192 192 192 255 0.205638 0.088437
0.305533 4.67441 0.321823 2 -1 3 192 192 192 255 0.17592 0.088437
0.305533 0.325587 0.321823 1 2 3 192 192 192 255 0.17592 0.088437
0.305533 0.325587 0 2 1 0 192 192 192 255 0.17592 0.088437
0.305533 4.67441 0 1 -2 0 192 192 192 255 0.17592 0.088437
2.5 -0 0 0 0 4 192 192 192 255 0.391929 0.062464
2.5 5 0 0 0 2 192 192 192 255 0.391929 0.062464
7.5 5 0 0 0 4 192 192 192 255 0.391929 0.062464
7.5 -0 0 0 0 2 192 192 192 255 0.391929 0.062464
3 4 5 7 
3 4 7 6 
3 1 40 41 
3 1 41 3 
3 42 0 2 
3 42 2 43 
3 8 9 11 
3 8 11 10 
3 44 15 13 
3 44 13 45 
3 14 46 47 
3 14 47 12 
3 36 38 39 
3 36 39 37 
3 22 23 25 
3 22 25 24 
3 26 27 21 
3 26 21 20 
3 48 49 50 
3 48 50 51 
3 52 53 54 
3 52 54 55 
3 56 57 29 
3 56 29 28 
3 57 58 30 
3 57 30 29 
3 58 59 31 
3 58 31 30 
3 59 56 28 
3 59 28 31 
3 60 61 34 
3 60 34 35 
3 62 63 33 
3 62 33 64 
3 30 31 32 
3 30 32 65 
3 66 67 68 
3 66 68 69 
3 19 17 70 
3 19 70 71 
3 72 73 16 
3 72 16 18 
