ply
format ascii 1.0
comment VCGLIB generated
comment TextureFile SpaceInteriors_Texture.png
element vertex 198
property float x
property float y
property float z
property float nx
property float ny
property float nz
property uchar red
property uchar green
property uchar blue
property uchar alpha
property float texture_u
property float texture_v
element face 148
property list uchar int vertex_indices
end_header
-4.55986 0.228478 -4.71269 0.706655 -0.707558 2 192 192 192 255 0.234053 0.061667
-0.228477 4.55986 -4.71269 0.707102 -0.707112 2 192 192 192 255 0.169034 0.061667
-4.77152 0.440141 -4.71269 -1.41437 1.41406 1 192 192 192 255 0.234053 0.061667
-0.44014 4.77152 -4.71269 -1.41422 1.41421 1 192 192 192 255 0.234053 0.061667
-4.77152 0.440141 -4.95302 -0.707185 0.707029 -2 192 192 192 255 0.234053 0.061667
-0.44014 4.77152 -4.95302 -0.707103 0.707111 -2 192 192 192 255 0.268919 0.061667
-4.55986 0.228478 -4.95302 1.41331 -1.41512 -1 192 192 192 255 0.169034 0.061667
-0.228477 4.55986 -4.95302 1.41421 -1.41421 -1 192 192 192 255 0.169034 0.061667
-4.77152 4.55986 -4.71269 -0.707107 -0.707107 2 192 192 192 255 0.234053 0.061667
-0.44014 0.228478 -4.71269 -0.707111 -0.707102 2 192 192 192 255 0.169034 0.061667
-4.55986 4.77152 -4.71269 1.41359 1.41483 1 192 192 192 255 0.234053 0.061667
-0.228477 0.440141 -4.71269 1.41483 1.4136 1 192 192 192 255 0.234053 0.061667
-4.55986 4.77152 -4.95302 0.706797 0.707416 -2 192 192 192 255 0.234053 0.061667
-0.228477 0.440141 -4.95302 0.70742 0.706794 -2 192 192 192 255 0.268919 0.061667
-4.77152 4.55986 -4.95302 -1.41421 -1.41421 -1 192 192 192 255 0.169034 0.061667
-0.44014 0.228478 -4.95302 -1.41421 -1.41422 -1 192 192 192 255 0.169034 0.061667
-2.91785 2.29422 -4.71269 -2.70716 0.70703 4 192 192 192 255 0.234053 0.061667
-2.7048 2.08117 -4.71269 1.41334 -2.41512 3 192 192 192 255 0.169034 0.061667
-2.7048 2.08117 -4.95302 0.706644 -2.70756 -4 192 192 192 255 0.234053 0.061667
-2.91785 2.29422 -4.95302 -2.41438 1.41406 -3 192 192 192 255 0.234053 0.061667
-2.08154 2.7068 -4.95303 1.70711 -0.707103 -3 192 192 192 255 0.202886 0.058059
-2.08154 2.7068 -4.7127 3.41428 -1.41422 7 192 192 192 255 0.202886 0.058059
-2.2932 2.91846 -4.7127 -0.707099 1.7071 3 192 192 192 255 0.268918 0.061667
-2.2932 2.91846 -4.95303 -1.41424 3.41421 -7 192 192 192 255 0.234053 0.061667
-2.29283 2.08117 -4.95303 -0.707112 -1.70711 -4 192 192 192 255 0.234053 0.061667
-2.29283 2.08117 -4.7127 -1.41419 -3.41421 3 192 192 192 255 0.169034 0.061667
-2.08154 2.29483 -4.7127 1.70742 0.706802 3 192 192 192 255 0.202886 0.058059
-2.08154 2.29483 -4.95303 3.41483 1.41359 -3 192 192 192 255 0.202886 0.058059
-2.70517 2.91846 -4.71269 0.706822 2.70742 4 192 192 192 255 0.268919 0.061667
-2.91785 2.70619 -4.71269 -2.41419 -1.41421 3 192 192 192 255 0.234053 0.061667
-2.91785 2.70619 -4.95302 -2.70712 -0.707106 -4 192 192 192 255 0.234053 0.061667
-2.70517 2.91846 -4.95302 1.41359 2.41483 -2 192 192 192 255 0.234053 0.061667
-5 0 0 -3 -3 3 192 192 192 255 0.265187 0.061667
0 0 0 3 -3 3 192 192 192 255 0.265187 0.061667
-5 5 0 -3 3 3 192 192 192 255 0.265187 0.061667
0 5 0 3 3 3 192 192 192 255 0.265187 0.061667
-5 5 -5 -3 3 -3 192 192 192 255 0.265187 0.061667
0 5 -5 3 3 -3 192 192 192 255 0.265187 0.061667
-5 0 -5 -3 -3 -3 192 192 192 255 0.265187 0.061667
0 0 -5 3 -3 -3 192 192 192 255 0.265187 0.061667
-4.66569 0.334309 0 1 2 3.00003 192 192 192 255 0.265187 0.061667
-0.334309 0.334309 0 -2 1 3.00003 192 192 192 255 0.265187 0.061667
-0.334309 4.66569 0 -1 -2 3.00003 192 192 192 255 0.265187 0.061667
-4.66569 4.66569 0 2 -1 3.00003 192 192 192 255 0.265187 0.061667
-4.66569 4.66569 -5 1 -2 -3.00003 192 192 192 255 0.265187 0.061667
-0.334309 4.66569 -5 -2 -1 -3.00003 192 192 192 255 0.265187 0.061667
-0.334309 0.334309 -5 -1 2 -3.00003 192 192 192 255 0.265187 0.061667
-4.66569 0.334309 -5 2 1 -3.00003 192 192 192 255 0.265187 0.061667
0 0.334309 -4.6657 3.00005 1 2 192 192 192 255 0.233148 0.061667
0 0.334309 -0.334312 3.00005 2 -1 192 192 192 255 0.233148 0.061667
0 4.66569 -4.6657 3.00004 -2 1 192 192 192 255 0.233148 0.061667
0 4.66569 -0.334312 3.00006 -1 -2 192 192 192 255 0.233148 0.061667
-5 0.334309 -4.6657 -3.00005 2 1 192 192 192 255 0.233148 0.061667
-5 0.334309 -0.334312 -3.00006 1 -2 192 192 192 255 0.233148 0.061667
-5 4.66569 -0.334312 -3.00004 -2 -1 192 192 192 255 0.233148 0.061667
-5 4.66569 -4.6657 -3.00005 -1 2 192 192 192 255 0.233148 0.061667
-4.66569 5 -0.334312 1 3.00006 -2 192 192 192 255 0.300052 0.061667
-0.334309 5 -0.334312 -2 3.00004 -1 192 192 192 255 0.300052 0.061667
-0.334309 5 -4.6657 -1 3.00005 2 192 192 192 255 0.300052 0.061667
-4.66569 5 -4.6657 2 3.00004 1 192 192 192 255 0.300052 0.061667
-4.66569 0 -4.6657 1 -3.00005 2 192 192 192 255 0.200168 0.061667
-0.334309 0 -4.6657 -2 -3.00004 1 192 192 192 255 0.200168 0.061667
-0.334309 0 -0.334312 -1 -3.00006 -2 192 192 192 255 0.200168 0.061667
-4.66569 0 -0.334312 2 -3.00004 -1 192 192 192 255 0.200168 0.061667
-4.66569 0.334313 -0.33432 2.99995 2.99994 -2.99997 192 192 192 255 0.30031 0.058538
-0.334312 0.334313 -0.33432 -2.99994 2.99996 -2.99997 192 192 192 255 0.30031 0.058538
-0.334312 4.66569 -0.33432 -2.99996 -2.99994 -2.99997 192 192 192 255 0.265187 0.061667
-4.66569 4.66569 -0.33432 2.99994 -2.99996 -2.99997 192 192 192 255 0.265187 0.061667
-0.334312 4.66569 -4.66569 -2.99995 -2.99996 2.99997 192 192 192 255 0.235531 0.061667
-4.66569 4.66569 -4.66569 2.99996 -2.99995 2.99997 192 192 192 255 0.204969 0.061667
-0.334312 0.334313 -4.66569 -2.99995 2.99995 2.99997 192 192 192 255 0.265187 0.061667
-4.66569 0.334313 -4.66569 2.99995 2.99996 2.99997 192 192 192 255 0.30031 0.058538
-2.08154 2.7068 -4.95303 1.70711 -0.707103 -3 192 192 192 255 0.234053 0.061667
-2.08154 2.29483 -4.95303 3.41483 1.41359 -3 192 192 192 255 0.234053 0.061667
-2.7048 2.08117 -4.95302 0.706644 -2.70756 -4 192 192 192 255 0.169034 0.061667
-2.29283 2.08117 -4.95303 -0.707112 -1.70711 -4 192 192 192 255 0.169034 0.061667
-2.2932 2.91846 -4.95303 -1.41424 3.41421 -7 192 192 192 255 0.268919 0.061667
-2.70517 2.91846 -4.95302 1.41359 2.41483 -2 192 192 192 255 0.268919 0.061667
-2.08154 2.7068 -4.7127 3.41428 -1.41422 7 192 192 192 255 0.234053 0.061667
-2.2932 2.91846 -4.7127 -0.707099 1.7071 3 192 192 192 255 0.234053 0.061667
-2.70517 2.91846 -4.71269 0.706822 2.70742 4 192 192 192 255 0.234053 0.061667
-2.7048 2.08117 -4.71269 1.41334 -2.41512 3 192 192 192 255 0.234053 0.061667
-2.29283 2.08117 -4.7127 -1.41419 -3.41421 3 192 192 192 255 0.234053 0.061667
-2.08154 2.29483 -4.7127 1.70742 0.706802 3 192 192 192 255 0.234053 0.061667
-2.91785 2.29422 -4.71269 -2.70716 0.70703 4 192 192 192 255 0.202886 0.058059
-2.91785 2.70619 -4.71269 -2.41419 -1.41421 3 192 192 192 255 0.202886 0.058059
-2.91785 2.70619 -4.95302 -2.70712 -0.707106 -4 192 192 192 255 0.202886 0.058059
-2.91785 2.29422 -4.95302 -2.41438 1.41406 -3 192 192 192 255 0.202886 0.058059
-4.55986 0.228478 -4.71269 0.706655 -0.707558 2 192 192 192 255 0.169034 0.061667
-4.55986 0.228478 -4.95302 1.41331 -1.41512 -1 192 192 192 255 0.234053 0.061667
-4.77152 0.440141 -4.71269 -1.41437 1.41406 1 192 192 192 255 0.268919 0.061667
-2.91785 2.29422 -4.71269 -2.70716 0.70703 4 192 192 192 255 0.268919 0.061667
-2.91785 2.29422 -4.95302 -2.41438 1.41406 -3 192 192 192 255 0.268919 0.061667
-4.77152 0.440141 -4.95302 -0.707185 0.707029 -2 192 192 192 255 0.268919 0.061667
-0.44014 0.228478 -4.71269 -0.707111 -0.707102 2 192 192 192 255 0.234053 0.061667
-2.08154 2.29483 -4.95303 3.41483 1.41359 -3 192 192 192 255 0.268919 0.061667
-2.08154 2.29483 -4.7127 1.70742 0.706802 3 192 192 192 255 0.268919 0.061667
-0.228477 0.440141 -4.71269 1.41483 1.4136 1 192 192 192 255 0.268919 0.061667
-0.228477 0.440141 -4.95302 0.70742 0.706794 -2 192 192 192 255 0.234053 0.061667
-0.44014 0.228478 -4.95302 -1.41421 -1.41422 -1 192 192 192 255 0.234053 0.061667
-2.08154 2.7068 -4.7127 3.41428 -1.41422 7 192 192 192 255 0.169034 0.061667
-2.08154 2.7068 -4.95303 1.70711 -0.707103 -3 192 192 192 255 0.169034 0.061667
-0.228477 4.55986 -4.71269 0.707102 -0.707112 2 192 192 192 255 0.234053 0.061667
-0.44014 4.77152 -4.71269 -1.41422 1.41421 1 192 192 192 255 0.268919 0.061667
-0.44014 4.77152 -4.95302 -0.707103 0.707111 -2 192 192 192 255 0.234053 0.061667
-0.228477 4.55986 -4.95302 1.41421 -1.41421 -1 192 192 192 255 0.234053 0.061667
-2.91785 2.70619 -4.95302 -2.70712 -0.707106 -4 192 192 192 255 0.169034 0.061667
-2.91785 2.70619 -4.71269 -2.41419 -1.41421 3 192 192 192 255 0.169034 0.061667
-4.77152 4.55986 -4.71269 -0.707107 -0.707107 2 192 192 192 255 0.169034 0.061667
-4.77152 4.55986 -4.95302 -1.41421 -1.41421 -1 192 192 192 255 0.234053 0.061667
-4.55986 4.77152 -4.71269 1.41359 1.41483 1 192 192 192 255 0.268919 0.061667
-4.55986 4.77152 -4.95302 0.706797 0.707416 -2 192 192 192 255 0.268919 0.061667
0 0 0 3 -3 3 192 192 192 255 0.233148 0.061667
0 0 -5 3 -3 -3 192 192 192 255 0.233148 0.061667
0 5 -5 3 3 -3 192 192 192 255 0.233148 0.061667
0 5 0 3 3 3 192 192 192 255 0.233148 0.061667
-5 0 -5 -3 -3 -3 192 192 192 255 0.233148 0.061667
-5 0 0 -3 -3 3 192 192 192 255 0.233148 0.061667
-5 5 0 -3 3 3 192 192 192 255 0.233148 0.061667
-5 5 -5 -3 3 -3 192 192 192 255 0.233148 0.061667
-5 5 0 -3 3 3 192 192 192 255 0.300052 0.061667
0 5 0 3 3 3 192 192 192 255 0.300052 0.061667
0 5 -5 3 3 -3 192 192 192 255 0.300052 0.061667
-5 5 -5 -3 3 -3 192 192 192 255 0.300052 0.061667
-5 5 -5 -3 3 -3 192 192 192 255 0.30031 0.058538
-5 5 0 -3 3 3 192 192 192 255 0.30031 0.058538
-4.66569 5 -0.334312 1 3.00006 -2 192 192 192 255 0.30031 0.058538
-4.66569 5 -4.6657 2 3.00004 1 192 192 192 255 0.30031 0.058538
-5 0 -5 -3 -3 -3 192 192 192 255 0.200168 0.061667
0 0 -5 3 -3 -3 192 192 192 255 0.200168 0.061667
0 0 0 3 -3 3 192 192 192 255 0.200168 0.061667
-5 0 0 -3 -3 3 192 192 192 255 0.200168 0.061667
-4.66569 0.334309 0 1 2 3.00003 192 192 192 255 0.30031 0.058538
-0.334309 0.334309 0 -2 1 3.00003 192 192 192 255 0.30031 0.058538
-0.334312 0.334313 -0.33432 -2.99994 2.99996 -2.99997 192 192 192 255 0.265187 0.061667
-4.66569 4.66569 0 2 -1 3.00003 192 192 192 255 0.244812 0.061667
-4.66569 0.334309 0 1 2 3.00003 192 192 192 255 0.244812 0.061667
-4.66569 0.334313 -0.33432 2.99995 2.99994 -2.99997 192 192 192 255 0.244812 0.061667
-4.66569 4.66569 -0.33432 2.99994 -2.99996 -2.99997 192 192 192 255 0.244812 0.061667
-4.66569 5 -0.334312 1 3.00006 -2 192 192 192 255 0.204969 0.061667
-0.334309 5 -0.334312 -2 3.00004 -1 192 192 192 255 0.204969 0.061667
-0.334312 4.66569 -0.33432 -2.99996 -2.99994 -2.99997 192 192 192 255 0.204969 0.061667
-4.66569 4.66569 -0.33432 2.99994 -2.99996 -2.99997 192 192 192 255 0.204969 0.061667
-0.334309 5 -0.334312 -2 3.00004 -1 192 192 192 255 0.235531 0.061667
-0.334309 5 -4.6657 -1 3.00005 2 192 192 192 255 0.235531 0.061667
-0.334312 4.66569 -0.33432 -2.99996 -2.99994 -2.99997 192 192 192 255 0.235531 0.061667
-0.334309 5 -4.6657 -1 3.00005 2 192 192 192 255 0.204969 0.061667
-4.66569 5 -4.6657 2 3.00004 1 192 192 192 255 0.204969 0.061667
-0.334312 4.66569 -4.66569 -2.99995 -2.99996 2.99997 192 192 192 255 0.204969 0.061667
-4.66569 5 -4.6657 2 3.00004 1 192 192 192 255 0.235531 0.061667
-4.66569 5 -0.334312 1 3.00006 -2 192 192 192 255 0.235531 0.061667
-4.66569 4.66569 -0.33432 2.99994 -2.99996 -2.99997 192 192 192 255 0.235531 0.061667
-4.66569 4.66569 -4.66569 2.99996 -2.99995 2.99997 192 192 192 255 0.235531 0.061667
-0.334312 4.66569 -4.66569 -2.99995 -2.99996 2.99997 192 192 192 255 0.265187 0.061667
-4.66569 4.66569 -4.66569 2.99996 -2.99995 2.99997 192 192 192 255 0.265187 0.061667
-0.334309 0.334309 -5 -1 2 -3.00003 192 192 192 255 0.30031 0.058538
-4.66569 0.334309 -5 2 1 -3.00003 192 192 192 255 0.30031 0.058538
-0.334312 0.334313 -4.66569 -2.99995 2.99995 2.99997 192 192 192 255 0.30031 0.058538
-4.66569 0.334309 -5 2 1 -3.00003 192 192 192 255 0.244812 0.061667
-4.66569 4.66569 -5 1 -2 -3.00003 192 192 192 255 0.244812 0.061667
-4.66569 4.66569 -4.66569 2.99996 -2.99995 2.99997 192 192 192 255 0.244812 0.061667
-4.66569 0.334313 -4.66569 2.99995 2.99996 2.99997 192 192 192 255 0.244812 0.061667
-0.334312 0.334313 -4.66569 -2.99995 2.99995 2.99997 192 192 192 255 0.200168 0.061667
-4.66569 0.334313 -4.66569 2.99995 2.99996 2.99997 192 192 192 255 0.200168 0.061667
-0.334309 0 -4.6657 -2 -3.00004 1 192 192 192 255 0.23073 0.061667
-0.334309 0 -0.334312 -1 -3.00006 -2 192 192 192 255 0.23073 0.061667
-0.334312 0.334313 -0.33432 -2.99994 2.99996 -2.99997 192 192 192 255 0.23073 0.061667
-0.334312 0.334313 -4.66569 -2.99995 2.99995 2.99997 192 192 192 255 0.23073 0.061667
-4.66569 0.334313 -0.33432 2.99995 2.99994 -2.99997 192 192 192 255 0.200168 0.061667
-0.334312 0.334313 -0.33432 -2.99994 2.99996 -2.99997 192 192 192 255 0.200168 0.061667
-4.66569 0 -0.334312 2 -3.00004 -1 192 192 192 255 0.23073 0.061667
-4.66569 0 -4.6657 1 -3.00005 2 192 192 192 255 0.23073 0.061667
-4.66569 0.334313 -4.66569 2.99995 2.99996 2.99997 192 192 192 255 0.23073 0.061667
-4.66569 0.334313 -0.33432 2.99995 2.99994 -2.99997 192 192 192 255 0.23073 0.061667
0 0.334309 -0.334312 3.00005 2 -1 192 192 192 255 0.30031 0.058538
0 0.334309 -4.6657 3.00005 1 2 192 192 192 255 0.30031 0.058538
0 0.334309 -4.6657 3.00005 1 2 192 192 192 255 0.202586 0.061667
0 4.66569 -4.6657 3.00004 -2 1 192 192 192 255 0.202586 0.061667
-0.334312 4.66569 -4.66569 -2.99995 -2.99996 2.99997 192 192 192 255 0.202586 0.061667
-0.334312 0.334313 -4.66569 -2.99995 2.99995 2.99997 192 192 192 255 0.202586 0.061667
-0.334312 4.66569 -0.33432 -2.99996 -2.99994 -2.99997 192 192 192 255 0.233148 0.061667
-0.334312 4.66569 -4.66569 -2.99995 -2.99996 2.99997 192 192 192 255 0.233148 0.061667
0 4.66569 -0.334312 3.00006 -1 -2 192 192 192 255 0.202586 0.061667
0 0.334309 -0.334312 3.00005 2 -1 192 192 192 255 0.202586 0.061667
-0.334312 0.334313 -0.33432 -2.99994 2.99996 -2.99997 192 192 192 255 0.202586 0.061667
-0.334312 4.66569 -0.33432 -2.99996 -2.99994 -2.99997 192 192 192 255 0.202586 0.061667
-5 0.334309 -4.6657 -3.00005 2 1 192 192 192 255 0.30031 0.058538
-5 0.334309 -0.334312 -3.00006 1 -2 192 192 192 255 0.30031 0.058538
-5 0.334309 -0.334312 -3.00006 1 -2 192 192 192 255 0.202586 0.061667
-5 4.66569 -0.334312 -3.00004 -2 -1 192 192 192 255 0.202586 0.061667
-4.66569 4.66569 -0.33432 2.99994 -2.99996 -2.99997 192 192 192 255 0.202586 0.061667
-4.66569 0.334313 -0.33432 2.99995 2.99994 -2.99997 192 192 192 255 0.202586 0.061667
-4.66569 4.66569 -4.66569 2.99996 -2.99995 2.99997 192 192 192 255 0.233148 0.061667
-4.66569 4.66569 -0.33432 2.99994 -2.99996 -2.99997 192 192 192 255 0.233148 0.061667
-5 4.66569 -4.6657 -3.00005 -1 2 192 192 192 255 0.202586 0.061667
-5 0.334309 -4.6657 -3.00005 2 1 192 192 192 255 0.202586 0.061667
-4.66569 0.334313 -4.66569 2.99995 2.99996 2.99997 192 192 192 255 0.202586 0.061667
-4.66569 4.66569 -4.66569 2.99996 -2.99995 2.99997 192 192 192 255 0.202586 0.061667
3 21 26 27 
3 21 27 20 
3 23 72 73 
3 23 73 24 
3 23 24 18 
3 23 18 19 
3 23 19 30 
3 23 30 31 
3 74 75 25 
3 74 25 17 
3 76 77 28 
3 76 28 22 
3 78 79 80 
3 78 80 29 
3 78 29 16 
3 78 16 81 
3 78 81 82 
3 78 82 83 
3 84 85 86 
3 84 86 87 
3 0 81 16 
3 0 16 2 
3 6 74 17 
3 6 17 88 
3 4 19 18 
3 4 18 89 
3 90 91 92 
3 90 92 93 
3 25 75 15 
3 25 15 9 
3 83 82 94 
3 83 94 11 
3 95 96 97 
3 95 97 13 
3 24 73 98 
3 24 98 99 
3 100 101 7 
3 100 7 1 
3 79 78 102 
3 79 102 3 
3 76 22 103 
3 76 103 5 
3 72 23 104 
3 72 104 105 
3 8 29 80 
3 8 80 10 
3 14 106 107 
3 14 107 108 
3 12 31 30 
3 12 30 109 
3 110 28 77 
3 110 77 111 
3 32 33 41 
3 32 41 40 
3 33 35 42 
3 33 42 41 
3 35 34 43 
3 35 43 42 
3 34 32 40 
3 34 40 43 
3 36 37 45 
3 36 45 44 
3 37 39 46 
3 37 46 45 
3 39 38 47 
3 39 47 46 
3 38 36 44 
3 38 44 47 
3 112 113 48 
3 112 48 49 
3 113 114 50 
3 113 50 48 
3 114 115 51 
3 114 51 50 
3 115 112 49 
3 115 49 51 
3 116 117 53 
3 116 53 52 
3 117 118 54 
3 117 54 53 
3 118 119 55 
3 118 55 54 
3 119 116 52 
3 119 52 55 
3 120 121 57 
3 120 57 56 
3 121 122 58 
3 121 58 57 
3 122 123 59 
3 122 59 58 
3 124 125 126 
3 124 126 127 
3 128 129 61 
3 128 61 60 
3 129 130 62 
3 129 62 61 
3 130 131 63 
3 130 63 62 
3 131 128 60 
3 131 60 63 
3 132 133 65 
3 132 65 64 
3 41 42 66 
3 41 66 134 
3 42 43 67 
3 42 67 66 
3 135 136 137 
3 135 137 138 
3 139 140 141 
3 139 141 142 
3 143 144 68 
3 143 68 145 
3 146 147 69 
3 146 69 148 
3 149 150 151 
3 149 151 152 
3 44 45 153 
3 44 153 154 
3 45 46 70 
3 45 70 153 
3 155 156 71 
3 155 71 157 
3 158 159 160 
3 158 160 161 
3 60 61 162 
3 60 162 163 
3 164 165 166 
3 164 166 167 
3 62 63 168 
3 62 168 169 
3 170 171 172 
3 170 172 173 
3 174 175 157 
3 174 157 65 
3 176 177 178 
3 176 178 179 
3 50 51 180 
3 50 180 181 
3 182 183 184 
3 182 184 185 
3 186 187 64 
3 186 64 71 
3 188 189 190 
3 188 190 191 
3 54 55 192 
3 54 192 193 
3 194 195 196 
3 194 196 197 
