ply
format ascii 1.0
comment VCGLIB generated
comment TextureFile SpaceInteriors_Texture.png
element vertex 40
property float x
property float y
property float z
property float nx
property float ny
property float nz
property uchar red
property uchar green
property uchar blue
property uchar alpha
property float texture_u
property float texture_v
element face 28
property list uchar int vertex_indices
end_header
-0.608624 0.445724 0 -2.00004 1 2.99721 192 192 192 255 0.650415 0.623353
-0.608624 4.55621 0 -0.999914 -2 2.99752 192 192 192 255 0.650415 0.623353
-4.39242 0.445724 0 0.999917 2 3.00071 192 192 192 255 0.650414 0.623353
-4.39242 4.55621 0 2.00004 -0.999997 3.00352 192 192 192 255 0.650414 0.623353
-2.50052 0.445724 0 -0.000123415 3 3.00043 192 192 192 255 0.650415 0.623353
-2.50052 4.55621 0 0.000122247 -3 3.00039 192 192 192 255 0.650415 0.623353
-2e-006 0 0 0 0 3 192 192 192 255 0.650415 0.623353
-2e-006 5 0 0 0 3 192 192 192 255 0.650415 0.623353
-5 0 0 0 0 3 192 192 192 255 0.650414 0.623353
-2.50055 0 0 0 0 3 192 192 192 255 0.650415 0.623353
-5 5 0 0 0 3 192 192 192 255 0.650414 0.623353
-2.50055 5 0 0 0 3 192 192 192 255 0.650415 0.623353
-4.39213 0.445569 -0.183472 1.99771 1.00104 1.00268 192 192 192 255 0.508373 0.673177
-4.39213 4.55606 -0.191959 0.995593 -1.99793 2.00237 192 192 192 255 0.508373 0.99223
-2.50023 0.445724 -0.183472 -0.00685456 3.00103 2.99957 192 192 192 255 0.750568 0.673177
-2.50023 4.55621 -0.183472 -0.00660921 -3.00103 2.99953 192 192 192 255 0.750568 0.99223
-0.608336 0.44588 -0.183468 -1.00457 1.99794 1.99924 192 192 192 255 0.993013 0.703764
-0.608336 4.55637 -0.17498 -2.0022 -1.00103 0.996348 192 192 192 255 0.993013 0.992154
-2.50023 4.55621 -0.183472 -0.00660921 -3.00103 2.99953 192 192 192 255 0.750818 0.992154
-2.50023 0.445724 -0.183472 -0.00685456 3.00103 2.99957 192 192 192 255 0.750818 0.703764
-4.39242 4.55621 0 2.00004 -0.999997 3.00352 192 192 192 255 0.265223 0.061378
-4.39242 0.445724 0 0.999917 2 3.00071 192 192 192 255 0.265223 0.061378
-4.39213 0.445569 -0.183472 1.99771 1.00104 1.00268 192 192 192 255 0.265223 0.061378
-4.39213 4.55606 -0.191959 0.995593 -1.99793 2.00237 192 192 192 255 0.265223 0.061378
-4.39242 0.445724 0 0.999917 2 3.00071 192 192 192 255 0.35185 0.060391
-2.50052 0.445724 0 -0.000123415 3 3.00043 192 192 192 255 0.35185 0.060391
-2.50023 0.445724 -0.183472 -0.00685456 3.00103 2.99957 192 192 192 255 0.35185 0.060391
-4.39213 0.445569 -0.183472 1.99771 1.00104 1.00268 192 192 192 255 0.35185 0.060391
-2.50052 4.55621 0 0.000122247 -3 3.00039 192 192 192 255 0.235964 0.061378
-4.39242 4.55621 0 2.00004 -0.999997 3.00352 192 192 192 255 0.235963 0.061378
-4.39213 4.55606 -0.191959 0.995593 -1.99793 2.00237 192 192 192 255 0.235963 0.061378
-2.50023 4.55621 -0.183472 -0.00660921 -3.00103 2.99953 192 192 192 255 0.235964 0.061378
-0.608624 0.445724 0 -2.00004 1 2.99721 192 192 192 255 0.35185 0.060391
-0.608336 0.44588 -0.183468 -1.00457 1.99794 1.99924 192 192 192 255 0.35185 0.060391
-0.608624 0.445724 0 -2.00004 1 2.99721 192 192 192 255 0.265223 0.061378
-0.608624 4.55621 0 -0.999914 -2 2.99752 192 192 192 255 0.265223 0.061378
-0.608336 4.55637 -0.17498 -2.0022 -1.00103 0.996348 192 192 192 255 0.265223 0.061378
-0.608336 0.44588 -0.183468 -1.00457 1.99794 1.99924 192 192 192 255 0.265223 0.061378
-0.608624 4.55621 0 -0.999914 -2 2.99752 192 192 192 255 0.235964 0.061378
-0.608336 4.55637 -0.17498 -2.0022 -1.00103 0.996348 192 192 192 255 0.235964 0.061378
3 13 12 14 
3 13 14 15 
3 18 19 16 
3 18 16 17 
3 1 0 6 
3 1 6 7 
3 4 2 8 
3 4 8 9 
3 3 5 11 
3 3 11 10 
3 2 3 10 
3 2 10 8 
3 0 4 9 
3 0 9 6 
3 5 1 7 
3 5 7 11 
3 20 21 22 
3 20 22 23 
3 24 25 26 
3 24 26 27 
3 28 29 30 
3 28 30 31 
3 25 32 33 
3 25 33 26 
3 34 35 36 
3 34 36 37 
3 38 28 31 
3 38 31 39 
