ply
format ascii 1.0
comment VCGLIB generated
comment TextureFile SpaceInteriors_Texture.png
element vertex 178
property float x
property float y
property float z
property float nx
property float ny
property float nz
property uchar red
property uchar green
property uchar blue
property uchar alpha
property float texture_u
property float texture_v
element face 156
property list uchar int vertex_indices
end_header
5 3.75 2.5 -2.62836 -0.684781 0.721004 192 192 192 255 0.296692 0.062542
0 3.75 2.5 2.34135 -1.36956 0.734444 192 192 192 255 0.331005 0.062542
5 1.25 2.5 -2.34135 1.36956 0.734445 192 192 192 255 0.331005 0.062542
0 1.25 2.5 2.62836 0.684781 0.721004 192 192 192 255 0.296692 0.062542
3.75 0 2.5 -0.684783 2.62836 0.721002 192 192 192 255 0.296692 0.062542
3.75 5 2.5 -1.36957 -2.34135 0.734443 192 192 192 255 0.296692 0.062542
1.25 0 2.5 1.36957 2.34135 0.734444 192 192 192 255 0.331005 0.062542
1.25 5 2.5 0.684783 -2.62836 0.721002 192 192 192 255 0.296692 0.062542
3.45737 4.41473 0.088497 0.729435 -0.214148 0.721002 192 192 192 255 0.296692 0.062542
4.41473 3.45736 0.088498 0.365755 -0.662457 0.734444 192 192 192 255 0.296692 0.062542
4.41473 1.54264 0.0885 -0.214142 -0.729429 0.721004 192 192 192 255 0.331005 0.062542
3.45737 0.585272 0.088497 -0.662457 -0.365755 0.734444 192 192 192 255 0.296692 0.062542
1.54263 0.585272 0.088497 -0.729435 0.214148 0.721002 192 192 192 255 0.331005 0.062542
0.585274 1.54264 0.0885 -0.365755 0.662457 0.734444 192 192 192 255 0.296692 0.062542
0.585274 3.45736 0.088498 0.214142 0.729429 0.721004 192 192 192 255 0.331005 0.062542
1.54263 4.41473 0.088497 0.662457 0.365754 0.734443 192 192 192 255 0.296692 0.062542
3.45737 4.41473 0.220921 0.707117 2.70713 3 192 192 192 255 0.269885 0.062542
4.41473 3.45736 0.220922 2.41422 1.41422 3 192 192 192 255 0.269885 0.062542
4.41473 1.54264 0.220923 2.70711 -0.707106 3 192 192 192 255 0.269885 0.062542
3.45737 0.585272 0.220921 1.41422 -2.41421 3 192 192 192 255 0.269885 0.062542
1.54263 0.585272 0.220921 -0.707106 -2.70711 3 192 192 192 255 0.269885 0.062542
0.585274 1.54264 0.220923 -2.41422 -1.41421 3 192 192 192 255 0.269885 0.062542
0.585274 3.45736 0.220922 -2.70712 0.707114 3 192 192 192 255 0.269885 0.062542
1.54263 4.41473 0.220921 -1.41422 2.41424 3 192 192 192 255 0.269885 0.062542
3.37801 4.25601 0.220923 -1.41421 -2.41418 3 192 192 192 255 0.357604 0.062542
4.25602 3.37801 0.220922 -2.7071 -0.707097 3 192 192 192 255 0.357604 0.062542
4.25602 1.62199 0.220923 -2.41422 1.41421 3 192 192 192 255 0.357604 0.062542
3.37801 0.743986 0.220921 -0.707109 2.7071 3 192 192 192 255 0.357604 0.062542
1.62199 0.743986 0.220921 1.41422 2.41421 3 192 192 192 255 0.357604 0.062542
0.743984 1.62199 0.220923 2.70711 0.707105 3 192 192 192 255 0.357604 0.062542
0.743984 3.37801 0.220922 2.41421 -1.41421 3 192 192 192 255 0.357604 0.062542
1.62199 4.25601 0.220923 0.707099 -2.70709 3 192 192 192 255 0.357604 0.062542
3.37801 4.25601 0.0885 -0.691714 -2.60921 1.04627 192 192 192 255 0.269885 0.062542
4.25602 3.37801 0.088498 -2.33758 -1.39882 2.57469 192 192 192 255 0.269885 0.062542
4.25602 1.62199 0.0885 -2.63483 0.691713 2.42801 192 192 192 255 0.269885 0.062542
3.37801 0.743986 0.088497 -1.39882 2.25843 2.07758 192 192 192 255 0.269885 0.062542
1.62199 0.743986 0.088497 0.691714 2.62152 1.08004 192 192 192 255 0.269885 0.062542
0.743984 1.62199 0.0885 2.31768 1.39882 3.42772 192 192 192 255 0.269885 0.062542
0.743984 3.37801 0.088498 2.65472 -0.691713 1.57498 192 192 192 255 0.269885 0.062542
1.62199 4.25601 0.0885 1.39882 -2.23382 2.04286 192 192 192 255 0.269885 0.062542
3.5332 4.04424 0.106031 1.02814 2.18039 2.56846 192 192 192 255 0.329445 0.062542
3.5332 0.99315 0.10603 2.04803 -1.08559 2.42584 192 192 192 255 0.329445 0.062542
1.4668 0.99315 0.10603 -1.04803 -2.15578 3.42338 192 192 192 255 0.329445 0.062542
1.4668 4.04424 0.106031 -2.02814 1.09789 1.57187 192 192 192 255 0.329445 0.062542
1.4668 3.31709 0.10603 -1.06125 -2 3.52501 192 192 192 255 0.329445 0.062542
1.4668 2.85503 0.106031 -2.05689 1.00001 4.34551 192 192 192 255 0.329445 0.062542
3.5332 3.31709 0.10603 2.037 -0.999995 3.5253 192 192 192 255 0.329445 0.062542
3.5332 2.85503 0.106031 1.08114 2 4.34521 192 192 192 255 0.329445 0.062542
1.66792 3.31709 0.10603 -2 -0.999996 2 192 192 192 255 0.332093 0.06246
1.66792 2.85503 0.106031 -1 2 1 192 192 192 255 0.332093 0.06246
3.33208 3.31709 0.10603 1 -2 1 192 192 192 255 0.332093 0.06246
3.33208 2.85503 0.106031 2 1 2 192 192 192 255 0.332093 0.06246
3.44476 3.95579 -3e-006 -1 -2 0 192 192 192 255 0.17564 0.052424
3.44476 3.40553 -3e-006 -2 1 0 192 192 192 255 0.17564 0.052424
3.44476 1.08159 0 -2 2 0 192 192 192 255 0.17564 0.052424
1.55524 1.08159 0 2 1 0 192 192 192 255 0.17564 0.052424
1.55524 3.40553 -3e-006 2 1 0 192 192 192 255 0.17564 0.052424
1.55524 3.95579 -3e-006 1 -1 0 192 192 192 255 0.17564 0.052424
1.55524 2.76659 -1e-006 1 -1 0 192 192 192 255 0.17564 0.052424
3.44476 2.76659 -1e-006 -1 -1 0 192 192 192 255 0.17564 0.052424
1.75637 3.40553 -3e-006 1 2 0 192 192 192 255 0.17564 0.052424
1.75637 2.76659 -1e-006 2 -2 0 192 192 192 255 0.17564 0.052424
3.24363 3.40553 -3e-006 -1 2 0 192 192 192 255 0.17564 0.052424
3.24363 2.76659 -1e-006 -2 -2 0 192 192 192 255 0.17564 0.052424
3.5332 4.04424 0.140191 2 0.999998 3 192 192 192 255 0.198978 0.062033
3.5332 3.31709 0.14019 1 -2 3 192 192 192 255 0.198978 0.062033
3.44476 3.95579 0.140191 -2 -1 3 192 192 192 255 0.198978 0.062033
3.44476 3.40553 0.14019 -1 2 3 192 192 192 255 0.198978 0.062033
1.4668 0.99315 0.140189 -2 -1 3 192 192 192 255 0.198978 0.062033
3.5332 0.99315 0.140189 1 -2 3 192 192 192 255 0.198978 0.062033
3.44476 1.08159 0.140189 -1 0.999999 3 192 192 192 255 0.17564 0.052424
1.55524 1.08159 0.140189 1 2 3 192 192 192 255 0.17564 0.052424
1.4668 4.04424 0.140191 -1 2 3 192 192 192 255 0.198978 0.062033
1.4668 3.31709 0.14019 -2 -1 3 192 192 192 255 0.198978 0.062033
1.55524 3.40553 0.14019 1 2 3 192 192 192 255 0.17564 0.052424
1.55524 3.95579 0.140191 2 -2 3 192 192 192 255 0.17564 0.052424
1.4668 2.85503 0.140191 -1 2 3 192 192 192 255 0.198978 0.062033
1.55524 2.76659 0.140191 2 -2 3 192 192 192 255 0.17564 0.052424
3.5332 2.85503 0.140191 2 0.999999 3 192 192 192 255 0.198978 0.062033
3.44476 2.76659 0.140191 -2 -2 3 192 192 192 255 0.17564 0.052424
1.66792 3.31709 0.14019 -1 -2 3 192 192 192 255 0.198978 0.062033
1.75637 3.40553 0.14019 2 1 3 192 192 192 255 0.17564 0.052424
1.66792 2.85503 0.140191 -2 1 3 192 192 192 255 0.198978 0.062033
1.75637 2.76659 0.140191 1 -0.999996 3 192 192 192 255 0.17564 0.052424
3.33208 3.31709 0.14019 2 -0.999998 3 192 192 192 255 0.198978 0.062033
3.24363 3.40553 0.14019 -2 1 3 192 192 192 255 0.198978 0.062033
3.33208 2.85503 0.140191 1 2 3 192 192 192 255 0.198978 0.062033
3.24363 2.76659 0.140191 -1 -0.999998 3 192 192 192 255 0.17564 0.052424
5 3.75 2.5 -2.62836 -0.684781 0.721004 192 192 192 255 0.331005 0.062542
4.41473 3.45736 0.088498 0.365755 -0.662457 0.734444 192 192 192 255 0.331005 0.062542
5 1.25 2.5 -2.34135 1.36956 0.734445 192 192 192 255 0.296692 0.062542
4.41473 1.54264 0.0885 -0.214142 -0.729429 0.721004 192 192 192 255 0.296692 0.062542
3.75 0 2.5 -0.684783 2.62836 0.721002 192 192 192 255 0.331005 0.062542
3.45737 0.585272 0.088497 -0.662457 -0.365755 0.734444 192 192 192 255 0.331005 0.062542
1.25 0 2.5 1.36957 2.34135 0.734444 192 192 192 255 0.296692 0.062542
1.54263 0.585272 0.088497 -0.729435 0.214148 0.721002 192 192 192 255 0.296692 0.062542
0 1.25 2.5 2.62836 0.684781 0.721004 192 192 192 255 0.331005 0.062542
0.585274 1.54264 0.0885 -0.365755 0.662457 0.734444 192 192 192 255 0.331005 0.062542
0 3.75 2.5 2.34135 -1.36956 0.734444 192 192 192 255 0.296692 0.062542
0.585274 3.45736 0.088498 0.214142 0.729429 0.721004 192 192 192 255 0.296692 0.062542
1.25 5 2.5 0.684783 -2.62836 0.721002 192 192 192 255 0.331005 0.062542
1.54263 4.41473 0.088497 0.662457 0.365754 0.734443 192 192 192 255 0.331005 0.062542
3.45737 4.41473 0.088497 0.729435 -0.214148 0.721002 192 192 192 255 0.331005 0.062542
3.75 5 2.5 -1.36957 -2.34135 0.734443 192 192 192 255 0.331005 0.062542
3.45737 4.41473 0.088497 0.729435 -0.214148 0.721002 192 192 192 255 0.269885 0.062542
4.41473 3.45736 0.088498 0.365755 -0.662457 0.734444 192 192 192 255 0.269885 0.062542
4.41473 1.54264 0.0885 -0.214142 -0.729429 0.721004 192 192 192 255 0.269885 0.062542
3.45737 0.585272 0.088497 -0.662457 -0.365755 0.734444 192 192 192 255 0.269885 0.062542
1.54263 0.585272 0.088497 -0.729435 0.214148 0.721002 192 192 192 255 0.269885 0.062542
0.585274 1.54264 0.0885 -0.365755 0.662457 0.734444 192 192 192 255 0.269885 0.062542
0.585274 3.45736 0.088498 0.214142 0.729429 0.721004 192 192 192 255 0.269885 0.062542
1.54263 4.41473 0.088497 0.662457 0.365754 0.734443 192 192 192 255 0.269885 0.062542
3.45737 4.41473 0.220921 0.707117 2.70713 3 192 192 192 255 0.357604 0.062542
4.41473 3.45736 0.220922 2.41422 1.41422 3 192 192 192 255 0.357604 0.062542
4.41473 1.54264 0.220923 2.70711 -0.707106 3 192 192 192 255 0.357604 0.062542
3.45737 0.585272 0.220921 1.41422 -2.41421 3 192 192 192 255 0.357604 0.062542
1.54263 0.585272 0.220921 -0.707106 -2.70711 3 192 192 192 255 0.357604 0.062542
0.585274 1.54264 0.220923 -2.41422 -1.41421 3 192 192 192 255 0.357604 0.062542
0.585274 3.45736 0.220922 -2.70712 0.707114 3 192 192 192 255 0.357604 0.062542
1.54263 4.41473 0.220921 -1.41422 2.41424 3 192 192 192 255 0.357604 0.062542
3.37801 4.25601 0.220923 -1.41421 -2.41418 3 192 192 192 255 0.269885 0.062542
4.25602 3.37801 0.220922 -2.7071 -0.707097 3 192 192 192 255 0.269885 0.062542
4.25602 1.62199 0.220923 -2.41422 1.41421 3 192 192 192 255 0.269885 0.062542
3.37801 0.743986 0.220921 -0.707109 2.7071 3 192 192 192 255 0.269885 0.062542
1.62199 0.743986 0.220921 1.41422 2.41421 3 192 192 192 255 0.269885 0.062542
0.743984 1.62199 0.220923 2.70711 0.707105 3 192 192 192 255 0.269885 0.062542
0.743984 3.37801 0.220922 2.41421 -1.41421 3 192 192 192 255 0.269885 0.062542
1.62199 4.25601 0.220923 0.707099 -2.70709 3 192 192 192 255 0.269885 0.062542
3.37801 4.25601 0.0885 -0.691714 -2.60921 1.04627 192 192 192 255 0.329445 0.062542
4.25602 3.37801 0.088498 -2.33758 -1.39882 2.57469 192 192 192 255 0.329445 0.062542
4.25602 1.62199 0.0885 -2.63483 0.691713 2.42801 192 192 192 255 0.329445 0.062542
3.37801 0.743986 0.088497 -1.39882 2.25843 2.07758 192 192 192 255 0.329445 0.062542
1.62199 0.743986 0.088497 0.691714 2.62152 1.08004 192 192 192 255 0.329445 0.062542
0.743984 1.62199 0.0885 2.31768 1.39882 3.42772 192 192 192 255 0.329445 0.062542
0.743984 3.37801 0.088498 2.65472 -0.691713 1.57498 192 192 192 255 0.329445 0.062542
1.62199 4.25601 0.0885 1.39882 -2.23382 2.04286 192 192 192 255 0.329445 0.062542
0.743984 1.62199 0.0885 2.31768 1.39882 3.42772 192 192 192 255 0.332093 0.06246
1.4668 2.85503 0.106031 -2.05689 1.00001 4.34551 192 192 192 255 0.332093 0.06246
1.4668 3.31709 0.10603 -1.06125 -2 3.52501 192 192 192 255 0.332093 0.06246
0.743984 3.37801 0.088498 2.65472 -0.691713 1.57498 192 192 192 255 0.332093 0.06246
3.5332 3.31709 0.10603 2.037 -0.999995 3.5253 192 192 192 255 0.332093 0.06246
3.5332 2.85503 0.106031 1.08114 2 4.34521 192 192 192 255 0.332093 0.06246
3.44476 1.08159 0.140189 -1 0.999999 3 192 192 192 255 0.198978 0.062033
1.55524 1.08159 0.140189 1 2 3 192 192 192 255 0.198978 0.062033
1.55524 3.40553 0.14019 1 2 3 192 192 192 255 0.198978 0.062033
1.55524 3.95579 0.140191 2 -2 3 192 192 192 255 0.198978 0.062033
1.55524 2.76659 0.140191 2 -2 3 192 192 192 255 0.198978 0.062033
3.44476 2.76659 0.140191 -2 -2 3 192 192 192 255 0.198978 0.062033
1.75637 3.40553 0.14019 2 1 3 192 192 192 255 0.198978 0.062033
1.75637 2.76659 0.140191 1 -0.999996 3 192 192 192 255 0.198978 0.062033
3.24363 2.76659 0.140191 -1 -0.999998 3 192 192 192 255 0.198978 0.062033
3.5332 3.31709 0.10603 2.037 -0.999995 3.5253 192 192 192 255 0.181131 0.060661
3.5332 4.04424 0.106031 1.02814 2.18039 2.56846 192 192 192 255 0.181131 0.06066
3.5332 4.04424 0.140191 2 0.999998 3 192 192 192 255 0.181131 0.06066
3.5332 3.31709 0.14019 1 -2 3 192 192 192 255 0.181131 0.060661
3.44476 3.40553 0.14019 -1 2 3 192 192 192 255 0.17564 0.052424
3.44476 3.95579 0.140191 -2 -1 3 192 192 192 255 0.17564 0.052424
1.4668 0.99315 0.10603 -1.04803 -2.15578 3.42338 192 192 192 255 0.181133 0.060661
3.5332 0.99315 0.10603 2.04803 -1.08559 2.42584 192 192 192 255 0.181131 0.060661
3.5332 0.99315 0.140189 1 -2 3 192 192 192 255 0.181131 0.060661
1.4668 0.99315 0.140189 -2 -1 3 192 192 192 255 0.181133 0.060661
1.4668 4.04424 0.106031 -2.02814 1.09789 1.57187 192 192 192 255 0.181133 0.06066
1.4668 3.31709 0.10603 -1.06125 -2 3.52501 192 192 192 255 0.181133 0.060661
1.4668 3.31709 0.14019 -2 -1 3 192 192 192 255 0.181133 0.060661
1.4668 4.04424 0.140191 -1 2 3 192 192 192 255 0.181133 0.06066
1.4668 2.85503 0.106031 -2.05689 1.00001 4.34551 192 192 192 255 0.181133 0.060661
1.4668 2.85503 0.140191 -1 2 3 192 192 192 255 0.181133 0.060661
3.5332 2.85503 0.106031 1.08114 2 4.34521 192 192 192 255 0.181131 0.060661
3.5332 2.85503 0.140191 2 0.999999 3 192 192 192 255 0.181131 0.060661
1.66792 3.31709 0.10603 -2 -0.999996 2 192 192 192 255 0.181133 0.060661
1.66792 3.31709 0.14019 -1 -2 3 192 192 192 255 0.181133 0.060661
1.66792 2.85503 0.106031 -1 2 1 192 192 192 255 0.181133 0.060661
1.66792 2.85503 0.140191 -2 1 3 192 192 192 255 0.181133 0.060661
3.33208 3.31709 0.10603 1 -2 1 192 192 192 255 0.181131 0.060661
3.33208 3.31709 0.14019 2 -0.999998 3 192 192 192 255 0.181131 0.060661
3.24363 3.40553 0.14019 -2 1 3 192 192 192 255 0.17564 0.052424
3.33208 2.85503 0.106031 2 1 2 192 192 192 255 0.181131 0.060661
3.33208 2.85503 0.140191 1 2 3 192 192 192 255 0.181131 0.060661
3 5 8 9 
3 5 9 0 
3 88 89 10 
3 88 10 2 
3 90 91 11 
3 90 11 4 
3 92 93 12 
3 92 12 6 
3 94 95 13 
3 94 13 3 
3 96 97 14 
3 96 14 1 
3 98 99 15 
3 98 15 7 
3 100 101 102 
3 100 102 103 
3 104 16 17 
3 104 17 105 
3 105 17 18 
3 105 18 106 
3 106 18 19 
3 106 19 107 
3 107 19 20 
3 107 20 108 
3 108 20 21 
3 108 21 109 
3 109 21 22 
3 109 22 110 
3 110 22 23 
3 110 23 111 
3 111 23 16 
3 111 16 104 
3 112 24 25 
3 112 25 113 
3 113 25 26 
3 113 26 114 
3 114 26 27 
3 114 27 115 
3 115 27 28 
3 115 28 116 
3 116 28 29 
3 116 29 117 
3 117 29 30 
3 117 30 118 
3 118 30 31 
3 118 31 119 
3 119 31 24 
3 119 24 112 
3 120 32 33 
3 120 33 121 
3 121 33 34 
3 121 34 122 
3 122 34 35 
3 122 35 123 
3 123 35 36 
3 123 36 124 
3 124 36 37 
3 124 37 125 
3 125 37 38 
3 125 38 126 
3 126 38 39 
3 126 39 127 
3 127 39 32 
3 127 32 120 
3 128 40 129 
3 129 40 46 
3 130 41 131 
3 131 41 42 
3 131 42 132 
3 132 42 133 
3 133 42 45 
3 134 43 135 
3 135 43 40 
3 135 40 128 
3 44 43 134 
3 136 137 138 
3 136 138 139 
3 47 41 130 
3 129 46 47 
3 129 47 130 
3 137 49 48 
3 137 48 138 
3 140 50 51 
3 140 51 141 
3 54 55 71 
3 54 71 70 
3 56 57 75 
3 56 75 74 
3 55 58 77 
3 55 77 71 
3 60 56 74 
3 60 74 81 
3 61 60 81 
3 61 81 83 
3 63 59 79 
3 63 79 87 
3 65 64 66 
3 65 66 67 
3 68 69 142 
3 68 142 143 
3 72 73 144 
3 72 144 145 
3 64 72 145 
3 64 145 66 
3 76 68 143 
3 76 143 146 
3 69 78 147 
3 69 147 142 
3 73 80 148 
3 73 148 144 
3 82 76 146 
3 82 146 149 
3 80 82 149 
3 80 149 148 
3 84 65 67 
3 84 67 85 
3 78 86 150 
3 78 150 147 
3 86 84 85 
3 86 85 150 
3 151 152 153 
3 151 153 154 
3 53 155 156 
3 53 156 52 
3 157 158 159 
3 157 159 160 
3 161 162 163 
3 161 163 164 
3 152 161 164 
3 152 164 153 
3 52 156 75 
3 52 75 57 
3 165 157 160 
3 165 160 166 
3 158 167 168 
3 158 168 159 
3 54 70 79 
3 54 79 59 
3 162 169 170 
3 162 170 163 
3 171 165 166 
3 171 166 172 
3 61 83 77 
3 61 77 58 
3 169 171 172 
3 169 172 170 
3 173 151 154 
3 173 154 174 
3 62 175 155 
3 62 155 53 
3 167 176 177 
3 167 177 168 
3 176 173 174 
3 176 174 177 
3 63 87 175 
3 63 175 62 
