ply
format ascii 1.0
comment VCGLIB generated
comment TextureFile SpaceInteriors_Texture.png
element vertex 49
property float x
property float y
property float z
property float nx
property float ny
property float nz
property uchar red
property uchar green
property uchar blue
property uchar alpha
property float texture_u
property float texture_v
element face 32
property list uchar int vertex_indices
end_header
-10 0 -10 0 0 0 192 192 192 255 0 0
0 0 -10 0 0 0 192 192 192 255 0 0
-10 0 0 0 0 0 192 192 192 255 0 0
0 0 0 0 0 0 192 192 192 255 0 0
-0.58429 0 -9.41571 0 4 0 192 192 192 255 0.267077 0.218675
-0.58429 0 -0.58429 0 4 0 192 192 192 255 0.267077 0.218675
-9.41571 0 -9.41571 0 4 0 192 192 192 255 0.267077 0.218675
-9.41571 0 -0.58429 0 4 0 192 192 192 255 0.267077 0.218675
-0.862901 0 -9.1371 0 2 0 192 192 192 255 0.267077 0.218675
-0.862901 0 -0.862904 0 2 0 192 192 192 255 0.267077 0.218675
-9.1371 0 -9.1371 0 2 0 192 192 192 255 0.267077 0.218675
-9.1371 0 -0.862904 0 2 0 192 192 192 255 0.267077 0.218675
-5 0 -5 0 12 0 192 192 192 255 0.275592 0.060173
-5 0 0 0 3 0 192 192 192 255 0.275592 0.060173
-5 0 -10 0 3 0 192 192 192 255 0.275592 0.060173
-10 0 -5 0 3 0 192 192 192 255 0.275592 0.060173
0 0 -5 0 3 0 192 192 192 255 0.275592 0.060173
-2.8618 0 -0.862904 0 3 0 192 192 192 255 0.267077 0.218675
-2.8618 0 -0.58429 0 3 0 192 192 192 255 0.267077 0.218675
-7.13821 0 -0.862904 0 4 0 192 192 192 255 0.275592 0.060173
-7.13821 0 -0.58429 0 2 0 192 192 192 255 0.275592 0.060173
-9.1371 0 -2.8618 0 3 0 192 192 192 255 0.267077 0.218675
-9.41571 0 -2.8618 0 3 0 192 192 192 255 0.267077 0.218675
-9.1371 0 -7.1382 0 4 0 192 192 192 255 0.275592 0.060173
-9.41571 0 -7.1382 0 2 0 192 192 192 255 0.275592 0.060173
-7.13821 0 -9.41571 0 3 0 192 192 192 255 0.275592 0.060173
-7.13821 0 -9.1371 0 3 0 192 192 192 255 0.275592 0.060173
-2.8618 0 -9.41571 0 2 0 192 192 192 255 0.267077 0.218675
-2.8618 0 -9.1371 0 4 0 192 192 192 255 0.267077 0.218675
-0.58429 0 -7.1382 0 3 0 192 192 192 255 0.275592 0.060173
-0.862901 0 -7.1382 0 3 0 192 192 192 255 0.275592 0.060173
-0.58429 0 -2.8618 0 2 0 192 192 192 255 0.267077 0.218675
-0.862901 0 -2.8618 0 4 0 192 192 192 255 0.267077 0.218675
-2.8618 0 -0.58429 0 3 0 192 192 192 255 0.275592 0.060173
-2.8618 0 -0.862904 0 3 0 192 192 192 255 0.275592 0.060173
-7.13821 0 -0.58429 0 2 0 192 192 192 255 0.267077 0.218675
-7.13821 0 -0.862904 0 4 0 192 192 192 255 0.267077 0.218675
-9.41571 0 -2.8618 0 3 0 192 192 192 255 0.275592 0.060173
-9.1371 0 -2.8618 0 3 0 192 192 192 255 0.275592 0.060173
-9.41571 0 -7.1382 0 2 0 192 192 192 255 0.267077 0.218675
-9.1371 0 -7.1382 0 4 0 192 192 192 255 0.267077 0.218675
-7.13821 0 -9.1371 0 3 0 192 192 192 255 0.267077 0.218675
-7.13821 0 -9.41571 0 3 0 192 192 192 255 0.267077 0.218675
-2.8618 0 -9.1371 0 4 0 192 192 192 255 0.275592 0.060173
-2.8618 0 -9.41571 0 2 0 192 192 192 255 0.275592 0.060173
-0.862901 0 -7.1382 0 3 0 192 192 192 255 0.267077 0.218675
-0.58429 0 -7.1382 0 3 0 192 192 192 255 0.267077 0.218675
-0.862901 0 -2.8618 0 4 0 192 192 192 255 0.275592 0.060173
-0.58429 0 -2.8618 0 2 0 192 192 192 255 0.275592 0.060173
3 12 16 29 
3 12 29 30 
3 12 14 25 
3 12 25 26 
3 21 22 7 
3 21 7 11 
3 17 18 5 
3 17 5 9 
3 19 20 13 
3 19 13 12 
3 4 27 28 
3 4 28 8 
3 23 24 15 
3 23 15 12 
3 5 31 32 
3 5 32 9 
3 12 13 33 
3 12 33 34 
3 7 35 36 
3 7 36 11 
3 12 15 37 
3 12 37 38 
3 6 39 40 
3 6 40 10 
3 41 42 6 
3 41 6 10 
3 43 44 14 
3 43 14 12 
3 45 46 4 
3 45 4 8 
3 47 48 16 
3 47 16 12 
