ply
format ascii 1.0
comment VCGLIB generated
comment TextureFile SpaceInteriors_Texture.png
element vertex 116
property float x
property float y
property float z
property float nx
property float ny
property float nz
property uchar red
property uchar green
property uchar blue
property uchar alpha
property float texture_u
property float texture_v
element face 74
property list uchar int vertex_indices
end_header
-5 -0 -5 -2 0 -1 192 192 192 255 0.298564 0.060574
0 -0 -5 1 0 -2 192 192 192 255 0.26389 0.060574
-5 -0 0 -1 0 2 192 192 192 255 0.26389 0.060574
0 -0 0 2 0 1 192 192 192 255 0.26389 0.060574
0 0.198916 -5 2 3 -1 192 192 192 255 0.26389 0.060574
0 0.198916 0 1 3 2 192 192 192 255 0.26389 0.060574
-5 0.198916 -5 -1 3 -2 192 192 192 255 0.298564 0.060574
-5 0.198916 0 -2 3 1 192 192 192 255 0.26389 0.060574
-0.236118 0.198916 -4.76388 1 3 -2 192 192 192 255 0.325292 0.060574
-0.236118 0.198916 -0.236115 2 3 1 192 192 192 255 0.325292 0.060574
-4.76388 0.198916 -4.76388 -2 3 -1 192 192 192 255 0.325292 0.060574
-4.76388 0.198916 -0.236115 -1 3 2 192 192 192 255 0.325292 0.060574
-0.236118 0.514392 -4.76388 2 3 -1 192 192 192 255 0.266344 0.060574
-0.236118 0.514392 -0.236115 1 3 2 192 192 192 255 0.266344 0.060574
-4.76388 0.514392 -4.76388 -1 3 -2 192 192 192 255 0.296008 0.060574
-4.76388 0.514392 -0.236115 -2 3 1 192 192 192 255 0.266344 0.060574
-1.58052 0.514392 -3.41947 1 3 -2 192 192 192 255 0.325292 0.060574
-1.58052 0.514392 -1.58052 2 3 1 192 192 192 255 0.325292 0.060574
-3.41948 0.514392 -3.41947 -2 3 -1 192 192 192 255 0.325292 0.060574
-3.41948 0.514392 -1.58052 -1 3 2 192 192 192 255 0.325292 0.060574
-1.58052 0.843261 -3.41947 2 3 -1 192 192 192 255 0.266344 0.060574
-1.58052 0.843261 -1.58052 1 3 2 192 192 192 255 0.266344 0.060574
-3.41948 0.843261 -3.41947 -1 3 -2 192 192 192 255 0.296008 0.060574
-3.41948 0.843261 -1.58052 -2 3 1 192 192 192 255 0.266344 0.060574
-1.83289 0.843261 -3.1671 1 3 -2 192 192 192 255 0.325292 0.060574
-1.83289 0.843261 -1.83289 2 3 1 192 192 192 255 0.325292 0.060574
-3.16711 0.843261 -3.1671 -2 3 -1 192 192 192 255 0.325292 0.060574
-3.16711 0.843261 -1.83289 -1 3 2 192 192 192 255 0.325292 0.060574
-1.83289 4.62086 -3.1671 2 -3 -1 192 192 192 255 0.266344 0.060574
-1.83289 4.62086 -1.83289 1 -3 2 192 192 192 255 0.266344 0.060574
-3.16711 4.62086 -3.1671 -1 -3 -2 192 192 192 255 0.296008 0.060574
-3.16711 4.62086 -1.83289 -2 -3 1 192 192 192 255 0.266344 0.060574
-1.57261 4.62086 -3.42738 1 -3 -2 192 192 192 255 0.236917 0.060856
-1.57261 4.62086 -1.57261 2 -3 1 192 192 192 255 0.236917 0.060856
-3.42739 4.62086 -3.42738 -2 -3 -1 192 192 192 255 0.236917 0.060856
-3.42739 4.62086 -1.57261 -1 -3 2 192 192 192 255 0.236917 0.060856
-1.57261 5 -3.42738 2 1 -1 192 192 192 255 0.325292 0.060574
-1.57261 5 -1.57261 1 2 2 192 192 192 255 0.325292 0.060574
-3.42739 5 -3.42738 -1 2 -2 192 192 192 255 0.325292 0.060574
-3.42739 5 -1.57261 -2 1 1 192 192 192 255 0.325292 0.060574
0 -0 -5 1 0 -2 192 192 192 255 0.298564 0.060574
0 0.198916 -5 2 3 -1 192 192 192 255 0.298564 0.060574
-5 -0 -5 -2 0 -1 192 192 192 255 0.26389 0.060574
-5 0.198916 -5 -1 3 -2 192 192 192 255 0.26389 0.060574
-5 -0 0 -1 0 2 192 192 192 255 0.298564 0.060574
0 -0 0 2 0 1 192 192 192 255 0.298564 0.060574
0 0.198916 0 1 3 2 192 192 192 255 0.298564 0.060574
-5 0.198916 0 -2 3 1 192 192 192 255 0.298564 0.060574
0 0.198916 0 1 3 2 192 192 192 255 0.325292 0.060574
0 0.198916 -5 2 3 -1 192 192 192 255 0.325292 0.060574
-5 0.198916 -5 -1 3 -2 192 192 192 255 0.325292 0.060574
-5 0.198916 0 -2 3 1 192 192 192 255 0.325292 0.060574
-0.236118 0.198916 -0.236115 2 3 1 192 192 192 255 0.266344 0.060574
-0.236118 0.198916 -4.76388 1 3 -2 192 192 192 255 0.266344 0.060574
-0.236118 0.198916 -4.76388 1 3 -2 192 192 192 255 0.296008 0.060574
-4.76388 0.198916 -4.76388 -2 3 -1 192 192 192 255 0.296008 0.060574
-0.236118 0.514392 -4.76388 2 3 -1 192 192 192 255 0.296008 0.060574
-4.76388 0.198916 -4.76388 -2 3 -1 192 192 192 255 0.266344 0.060574
-4.76388 0.198916 -0.236115 -1 3 2 192 192 192 255 0.266344 0.060574
-4.76388 0.514392 -4.76388 -1 3 -2 192 192 192 255 0.266344 0.060574
-4.76388 0.198916 -0.236115 -1 3 2 192 192 192 255 0.296008 0.060574
-0.236118 0.198916 -0.236115 2 3 1 192 192 192 255 0.296008 0.060574
-0.236118 0.514392 -0.236115 1 3 2 192 192 192 255 0.296008 0.060574
-4.76388 0.514392 -0.236115 -2 3 1 192 192 192 255 0.296008 0.060574
-0.236118 0.514392 -0.236115 1 3 2 192 192 192 255 0.325292 0.060574
-0.236118 0.514392 -4.76388 2 3 -1 192 192 192 255 0.325292 0.060574
-4.76388 0.514392 -4.76388 -1 3 -2 192 192 192 255 0.325292 0.060574
-4.76388 0.514392 -0.236115 -2 3 1 192 192 192 255 0.325292 0.060574
-1.58052 0.514392 -1.58052 2 3 1 192 192 192 255 0.266344 0.060574
-1.58052 0.514392 -3.41947 1 3 -2 192 192 192 255 0.266344 0.060574
-1.58052 0.514392 -3.41947 1 3 -2 192 192 192 255 0.296008 0.060574
-3.41948 0.514392 -3.41947 -2 3 -1 192 192 192 255 0.296008 0.060574
-1.58052 0.843261 -3.41947 2 3 -1 192 192 192 255 0.296008 0.060574
-3.41948 0.514392 -3.41947 -2 3 -1 192 192 192 255 0.266344 0.060574
-3.41948 0.514392 -1.58052 -1 3 2 192 192 192 255 0.266344 0.060574
-3.41948 0.843261 -3.41947 -1 3 -2 192 192 192 255 0.266344 0.060574
-3.41948 0.514392 -1.58052 -1 3 2 192 192 192 255 0.296008 0.060574
-1.58052 0.514392 -1.58052 2 3 1 192 192 192 255 0.296008 0.060574
-1.58052 0.843261 -1.58052 1 3 2 192 192 192 255 0.296008 0.060574
-3.41948 0.843261 -1.58052 -2 3 1 192 192 192 255 0.296008 0.060574
-1.58052 0.843261 -1.58052 1 3 2 192 192 192 255 0.325292 0.060574
-1.58052 0.843261 -3.41947 2 3 -1 192 192 192 255 0.325292 0.060574
-3.41948 0.843261 -3.41947 -1 3 -2 192 192 192 255 0.325292 0.060574
-3.41948 0.843261 -1.58052 -2 3 1 192 192 192 255 0.325292 0.060574
-1.83289 0.843261 -1.83289 2 3 1 192 192 192 255 0.266344 0.060574
-1.83289 0.843261 -3.1671 1 3 -2 192 192 192 255 0.266344 0.060574
-1.83289 0.843261 -3.1671 1 3 -2 192 192 192 255 0.296008 0.060574
-3.16711 0.843261 -3.1671 -2 3 -1 192 192 192 255 0.296008 0.060574
-1.83289 4.62086 -3.1671 2 -3 -1 192 192 192 255 0.296008 0.060574
-3.16711 0.843261 -3.1671 -2 3 -1 192 192 192 255 0.266344 0.060574
-3.16711 0.843261 -1.83289 -1 3 2 192 192 192 255 0.266344 0.060574
-3.16711 4.62086 -3.1671 -1 -3 -2 192 192 192 255 0.266344 0.060574
-3.16711 0.843261 -1.83289 -1 3 2 192 192 192 255 0.296008 0.060574
-1.83289 0.843261 -1.83289 2 3 1 192 192 192 255 0.296008 0.060574
-1.83289 4.62086 -1.83289 1 -3 2 192 192 192 255 0.296008 0.060574
-3.16711 4.62086 -1.83289 -2 -3 1 192 192 192 255 0.296008 0.060574
-1.83289 4.62086 -1.83289 1 -3 2 192 192 192 255 0.236917 0.060856
-1.83289 4.62086 -3.1671 2 -3 -1 192 192 192 255 0.236917 0.060856
-3.16711 4.62086 -3.1671 -1 -3 -2 192 192 192 255 0.236917 0.060856
-3.16711 4.62086 -1.83289 -2 -3 1 192 192 192 255 0.236917 0.060856
-1.57261 4.62086 -1.57261 2 -3 1 192 192 192 255 0.269359 0.060574
-1.57261 4.62086 -3.42738 1 -3 -2 192 192 192 255 0.269359 0.060574
-1.57261 5 -3.42738 2 1 -1 192 192 192 255 0.269359 0.060574
-1.57261 5 -1.57261 1 2 2 192 192 192 255 0.269359 0.060574
-1.57261 4.62086 -3.42738 1 -3 -2 192 192 192 255 0.296008 0.060574
-3.42739 4.62086 -3.42738 -2 -3 -1 192 192 192 255 0.296008 0.060574
-3.42739 5 -3.42738 -1 2 -2 192 192 192 255 0.296008 0.060574
-1.57261 5 -3.42738 2 1 -1 192 192 192 255 0.296008 0.060574
-3.42739 4.62086 -3.42738 -2 -3 -1 192 192 192 255 0.269359 0.060574
-3.42739 4.62086 -1.57261 -1 -3 2 192 192 192 255 0.269359 0.060574
-3.42739 5 -1.57261 -2 1 1 192 192 192 255 0.269359 0.060574
-3.42739 5 -3.42738 -1 2 -2 192 192 192 255 0.269359 0.060574
-3.42739 4.62086 -1.57261 -1 -3 2 192 192 192 255 0.296008 0.060574
-1.57261 4.62086 -1.57261 2 -3 1 192 192 192 255 0.296008 0.060574
-1.57261 5 -1.57261 1 2 2 192 192 192 255 0.296008 0.060574
-3.42739 5 -1.57261 -2 1 1 192 192 192 255 0.296008 0.060574
3 37 36 38 
3 37 38 39 
3 3 1 4 
3 3 4 5 
3 40 0 6 
3 40 6 41 
3 42 2 7 
3 42 7 43 
3 44 45 46 
3 44 46 47 
3 48 49 8 
3 48 8 9 
3 49 50 10 
3 49 10 8 
3 50 51 11 
3 50 11 10 
3 51 48 9 
3 51 9 11 
3 52 53 12 
3 52 12 13 
3 54 55 14 
3 54 14 56 
3 57 58 15 
3 57 15 59 
3 60 61 62 
3 60 62 63 
3 64 65 16 
3 64 16 17 
3 65 66 18 
3 65 18 16 
3 66 67 19 
3 66 19 18 
3 67 64 17 
3 67 17 19 
3 68 69 20 
3 68 20 21 
3 70 71 22 
3 70 22 72 
3 73 74 23 
3 73 23 75 
3 76 77 78 
3 76 78 79 
3 80 81 24 
3 80 24 25 
3 81 82 26 
3 81 26 24 
3 82 83 27 
3 82 27 26 
3 83 80 25 
3 83 25 27 
3 84 85 28 
3 84 28 29 
3 86 87 30 
3 86 30 88 
3 89 90 31 
3 89 31 91 
3 92 93 94 
3 92 94 95 
3 96 97 32 
3 96 32 33 
3 97 98 34 
3 97 34 32 
3 98 99 35 
3 98 35 34 
3 99 96 33 
3 99 33 35 
3 100 101 102 
3 100 102 103 
3 104 105 106 
3 104 106 107 
3 108 109 110 
3 108 110 111 
3 112 113 114 
3 112 114 115 
