ply
format ascii 1.0
comment VCGLIB generated
comment TextureFile SpaceInteriors_Texture.png
element vertex 96
property float x
property float y
property float z
property float nx
property float ny
property float nz
property uchar red
property uchar green
property uchar blue
property uchar alpha
property float texture_u
property float texture_v
element face 76
property list uchar int vertex_indices
end_header
0 -0.5 1.60705 -1 -1 2 192 192 192 255 0.357879 0.083793
5 -0.5 0.73283 2 -1 2 192 192 192 255 0.357879 0.083793
0 0.5 1.60705 -2 2 1 192 192 192 255 0.357879 0.083793
5 0.5 0.73283 1 2 1 192 192 192 255 0.357879 0.083793
0 0.5 -1.60705 -1 1 -2 192 192 192 255 0.389323 0.086503
5 0.5 -0.732834 2 1 -1 192 192 192 255 0.357879 0.083793
0 -0.5 -1.60705 -2 -2 -1 192 192 192 255 0.357879 0.083793
5 -0.5 -0.732834 1 -2 -2 192 192 192 255 0.357879 0.083793
3.33333 0.5 -0.732834 0.464508 3 -2.88557 192 192 192 255 0.357879 0.083793
3.33333 -0.5 -0.732834 0.929017 -3 -2.77114 192 192 192 255 0.357879 0.083793
3.33333 -0.5 0.73283 0.92902 -3 2.77114 192 192 192 255 0.328604 0.087045
3.33333 0.5 0.73283 0.46451 3 2.88557 192 192 192 255 0.357879 0.083793
1.66667 0.5 -1.60705 0.929017 4 -2.77114 192 192 192 255 0.389323 0.086503
1.66667 -0.5 -1.60705 0.464508 -2 -2.88557 192 192 192 255 0.357879 0.083793
1.66667 -0.5 1.60705 0.46451 -4 1.88557 192 192 192 255 0.357879 0.083793
1.66667 0.5 1.60705 0.92902 2 3.77114 192 192 192 255 0.357879 0.083793
4.83441 -0.582248 0.817039 -1 -1 2 192 192 192 255 0.300413 0.083793
4.95313 -0.582248 0.817039 2 -2 1 192 192 192 255 0.300413 0.083793
4.83441 0.582248 0.817039 -2 2 1 192 192 192 255 0.300413 0.083793
4.95313 0.582248 0.817039 1 1 2 192 192 192 255 0.300413 0.083793
4.83441 0.582248 -0.817039 -1 1 -2 192 192 192 255 0.300413 0.083793
4.95313 0.582248 -0.817039 2 2 -1 192 192 192 255 0.300413 0.083793
4.83441 -0.582248 -0.817039 -2 -2 -1 192 192 192 255 0.300413 0.083793
4.95313 -0.582248 -0.817039 1 -1 -2 192 192 192 255 0.300413 0.083793
0.067139 -0.582248 1.68159 -1 -1 2 192 192 192 255 0.300413 0.083793
0.185856 -0.582248 1.68159 2 -2 1 192 192 192 255 0.300413 0.083793
0.067139 0.582248 1.68159 -2 2 1 192 192 192 255 0.300413 0.083793
0.185856 0.582248 1.68159 1 1 2 192 192 192 255 0.300413 0.083793
0.067139 0.582248 -1.68159 -1 1 -2 192 192 192 255 0.300413 0.083793
0.185856 0.582248 -1.68159 2 2 -1 192 192 192 255 0.300413 0.083793
0.067139 -0.582248 -1.68159 -2 -2 -1 192 192 192 255 0.300413 0.083793
0.185856 -0.582248 -1.68159 1 -1 -2 192 192 192 255 0.300413 0.083793
1.57943 -0.582248 1.68159 -1 -1 2 192 192 192 255 0.300413 0.083793
1.69815 -0.582248 1.68159 2 -2 1 192 192 192 255 0.300413 0.083793
1.57943 0.582248 1.68159 -2 2 1 192 192 192 255 0.300413 0.083793
1.69815 0.582248 1.68159 1 1 2 192 192 192 255 0.300413 0.083793
1.57943 0.582248 -1.68159 -1 1 -2 192 192 192 255 0.300413 0.083793
1.69815 0.582248 -1.68159 2 2 -1 192 192 192 255 0.300413 0.083793
1.57943 -0.582248 -1.68159 -2 -2 -1 192 192 192 255 0.300413 0.083793
1.69815 -0.582248 -1.68159 1 -1 -2 192 192 192 255 0.300413 0.083793
3.27342 -0.582248 0.817039 -1 -1 2 192 192 192 255 0.300413 0.083793
3.39214 -0.582248 0.817039 2 -2 1 192 192 192 255 0.300413 0.083793
3.27342 0.582248 0.817039 -2 2 1 192 192 192 255 0.300413 0.083793
3.39214 0.582248 0.817039 1 1 2 192 192 192 255 0.300413 0.083793
3.27342 0.582248 -0.817039 -1 1 -2 192 192 192 255 0.300413 0.083793
3.39214 0.582248 -0.817039 2 2 -1 192 192 192 255 0.300413 0.083793
3.27342 -0.582248 -0.817039 -2 -2 -1 192 192 192 255 0.300413 0.083793
3.39214 -0.582248 -0.817039 1 -1 -2 192 192 192 255 0.300413 0.083793
0 0.5 1.60705 -2 2 1 192 192 192 255 0.389323 0.086503
1.66667 0.5 1.60705 0.92902 2 3.77114 192 192 192 255 0.389323 0.086503
0 0.5 -1.60705 -1 1 -2 192 192 192 255 0.357879 0.083793
1.66667 0.5 -1.60705 0.929017 4 -2.77114 192 192 192 255 0.357879 0.083793
0 -0.5 -1.60705 -2 -2 -1 192 192 192 255 0.328604 0.087045
1.66667 -0.5 -1.60705 0.464508 -2 -2.88557 192 192 192 255 0.328604 0.087045
1.66667 -0.5 1.60705 0.46451 -4 1.88557 192 192 192 255 0.328604 0.087045
0 -0.5 1.60705 -1 -1 2 192 192 192 255 0.328604 0.087045
3.33333 -0.5 -0.732834 0.929017 -3 -2.77114 192 192 192 255 0.328604 0.087045
5 -0.5 -0.732834 1 -2 -2 192 192 192 255 0.328604 0.087045
5 -0.5 0.73283 2 -1 2 192 192 192 255 0.328604 0.087045
3.33333 -0.5 0.73283 0.92902 -3 2.77114 192 192 192 255 0.357879 0.083793
3.33333 0.5 -0.732834 0.464508 3 -2.88557 192 192 192 255 0.389323 0.086503
3.33333 0.5 0.73283 0.46451 3 2.88557 192 192 192 255 0.389323 0.086503
5 0.5 0.73283 1 2 1 192 192 192 255 0.389323 0.086503
5 0.5 -0.732834 2 1 -1 192 192 192 255 0.389323 0.086503
4.95313 -0.582248 0.817039 2 -2 1 192 192 192 255 0.267343 0.084877
4.95313 -0.582248 -0.817039 1 -1 -2 192 192 192 255 0.267343 0.084877
4.95313 0.582248 -0.817039 2 2 -1 192 192 192 255 0.267343 0.084877
4.95313 0.582248 0.817039 1 1 2 192 192 192 255 0.267343 0.084877
4.83441 -0.582248 -0.817039 -2 -2 -1 192 192 192 255 0.267343 0.084877
4.83441 -0.582248 0.817039 -1 -1 2 192 192 192 255 0.267343 0.084877
4.83441 0.582248 0.817039 -2 2 1 192 192 192 255 0.267343 0.084877
4.83441 0.582248 -0.817039 -1 1 -2 192 192 192 255 0.267343 0.084877
0.185856 -0.582248 1.68159 2 -2 1 192 192 192 255 0.267343 0.084877
0.185856 -0.582248 -1.68159 1 -1 -2 192 192 192 255 0.267343 0.084877
0.185856 0.582248 -1.68159 2 2 -1 192 192 192 255 0.267343 0.084877
0.185856 0.582248 1.68159 1 1 2 192 192 192 255 0.267343 0.084877
0.067139 -0.582248 -1.68159 -2 -2 -1 192 192 192 255 0.267343 0.084877
0.067139 -0.582248 1.68159 -1 -1 2 192 192 192 255 0.267343 0.084877
0.067139 0.582248 1.68159 -2 2 1 192 192 192 255 0.267343 0.084877
0.067139 0.582248 -1.68159 -1 1 -2 192 192 192 255 0.267343 0.084877
1.69815 -0.582248 1.68159 2 -2 1 192 192 192 255 0.267343 0.084877
1.69815 -0.582248 -1.68159 1 -1 -2 192 192 192 255 0.267343 0.084877
1.69815 0.582248 -1.68159 2 2 -1 192 192 192 255 0.267343 0.084877
1.69815 0.582248 1.68159 1 1 2 192 192 192 255 0.267343 0.084877
1.57943 -0.582248 -1.68159 -2 -2 -1 192 192 192 255 0.267343 0.084877
1.57943 -0.582248 1.68159 -1 -1 2 192 192 192 255 0.267343 0.084877
1.57943 0.582248 1.68159 -2 2 1 192 192 192 255 0.267343 0.084877
1.57943 0.582248 -1.68159 -1 1 -2 192 192 192 255 0.267343 0.084877
3.39214 -0.582248 0.817039 2 -2 1 192 192 192 255 0.267343 0.084877
3.39214 -0.582248 -0.817039 1 -1 -2 192 192 192 255 0.267343 0.084877
3.39214 0.582248 -0.817039 2 2 -1 192 192 192 255 0.267343 0.084877
3.39214 0.582248 0.817039 1 1 2 192 192 192 255 0.267343 0.084877
3.27342 -0.582248 -0.817039 -2 -2 -1 192 192 192 255 0.267343 0.084877
3.27342 -0.582248 0.817039 -1 -1 2 192 192 192 255 0.267343 0.084877
3.27342 0.582248 0.817039 -2 2 1 192 192 192 255 0.267343 0.084877
3.27342 0.582248 -0.817039 -1 1 -2 192 192 192 255 0.267343 0.084877
3 0 14 15 
3 0 15 2 
3 48 49 12 
3 48 12 4 
3 50 51 13 
3 50 13 6 
3 52 53 54 
3 52 54 55 
3 1 7 5 
3 1 5 3 
3 8 5 7 
3 8 7 9 
3 10 56 57 
3 10 57 58 
3 11 59 1 
3 11 1 3 
3 60 61 62 
3 60 62 63 
3 51 8 9 
3 51 9 13 
3 54 53 56 
3 54 56 10 
3 15 14 59 
3 15 59 11 
3 12 49 61 
3 12 61 60 
3 2 50 6 
3 2 6 0 
3 16 17 19 
3 16 19 18 
3 18 19 21 
3 18 21 20 
3 20 21 23 
3 20 23 22 
3 22 23 17 
3 22 17 16 
3 64 65 66 
3 64 66 67 
3 68 69 70 
3 68 70 71 
3 24 25 27 
3 24 27 26 
3 26 27 29 
3 26 29 28 
3 28 29 31 
3 28 31 30 
3 30 31 25 
3 30 25 24 
3 72 73 74 
3 72 74 75 
3 76 77 78 
3 76 78 79 
3 32 33 35 
3 32 35 34 
3 34 35 37 
3 34 37 36 
3 36 37 39 
3 36 39 38 
3 38 39 33 
3 38 33 32 
3 80 81 82 
3 80 82 83 
3 84 85 86 
3 84 86 87 
3 40 41 43 
3 40 43 42 
3 42 43 45 
3 42 45 44 
3 44 45 47 
3 44 47 46 
3 46 47 41 
3 46 41 40 
3 88 89 90 
3 88 90 91 
3 92 93 94 
3 92 94 95 
