ply
format ascii 1.0
comment VCGLIB generated
comment TextureFile SpaceInteriors_Texture.png
element vertex 344
property float x
property float y
property float z
property float nx
property float ny
property float nz
property uchar red
property uchar green
property uchar blue
property uchar alpha
property float texture_u
property float texture_v
element face 202
property list uchar int vertex_indices
end_header
-3.75425 1.99992 0 -1 -1 6 192 192 192 255 0.200168 0.061667
-2.5 1.99992 0 2 -2 6 192 192 192 255 0.200168 0.061667
-3.75425 3.20601 0 -2 2 6 192 192 192 255 0.300052 0.061667
-2.5 3.20601 0 1 1 7 192 192 192 255 0.300052 0.061667
-3.75425 3.20601 -0.370731 -1 1 -3 192 192 192 255 0.300052 0.061667
-2.5 3.20601 -0.370731 2 2 -3 192 192 192 255 0.300052 0.061667
-3.75425 1.99992 -0.370731 -2 -2 -3 192 192 192 255 0.200168 0.061667
-2.5 1.99992 -0.370731 1 -1 -3 192 192 192 255 0.200168 0.061667
-3.64149 2.10835 0 1 2 3 192 192 192 255 0.265187 0.061667
-2.61276 2.10835 0 -2 1 3 192 192 192 255 0.265187 0.061667
-2.61276 3.09758 0 -1 -2 3 192 192 192 255 0.265187 0.061667
-3.64149 3.09758 0 2 -1 3 192 192 192 255 0.265187 0.061667
-3.64149 3.09758 -0.370731 1 -2 -3 192 192 192 255 0.265187 0.061667
-2.61276 3.09758 -0.370731 -2 -1 -3 192 192 192 255 0.265187 0.061667
-2.61276 2.10835 -0.370731 -1 2 -3 192 192 192 255 0.265187 0.061667
-3.64149 2.10835 -0.370731 2 1 -3 192 192 192 255 0.265187 0.061667
-3.64149 2.10835 -0.182377 2 1 3 192 192 192 255 0.299122 0.061667
-2.61276 2.10835 -0.182377 -1 2 3 192 192 192 255 0.299122 0.061667
-2.61276 3.09758 -0.182377 -2 -1 3 192 192 192 255 0.233038 0.061667
-3.64149 3.09758 -0.182377 1 -2 3 192 192 192 255 0.265187 0.061667
-3.64149 3.09758 -0.232307 2 -1 -3 192 192 192 255 0.265187 0.061667
-2.61276 3.09758 -0.232307 -1 -2 -3 192 192 192 255 0.265187 0.061667
-2.61276 2.10835 -0.232307 -2 1 -3 192 192 192 255 0.233038 0.061667
-3.64149 2.10835 -0.232307 1 2 -3 192 192 192 255 0.299122 0.061667
-3.55283 2.23164 -0.182377 1 1 3 192 192 192 255 0.20176 0.061667
-2.70142 2.23164 -0.182377 -1 2 3 192 192 192 255 0.20176 0.061667
-2.70142 2.9743 -0.182377 -2 -2 3 192 192 192 255 0.20176 0.061667
-3.55283 2.9743 -0.182377 2 -1 3 192 192 192 255 0.20176 0.061667
-3.55283 2.9743 -0.232307 1 -2 -3 192 192 192 255 0.20176 0.061667
-2.70142 2.9743 -0.232307 -1 -1 -3 192 192 192 255 0.20176 0.061667
-2.70142 2.23164 -0.232307 -2 1 -3 192 192 192 255 0.20176 0.061667
-3.55283 2.23164 -0.232307 2 2 -3 192 192 192 255 0.20176 0.061667
-2.86978 3.00549 -0.158211 -1 -1 2 192 192 192 255 0.356003 0.061667
-2.80909 3.00549 -0.158211 2 -2 1 192 192 192 255 0.356003 0.061667
-2.86978 3.06385 -0.158211 -2 2 1 192 192 192 255 0.356003 0.061667
-2.80909 3.06385 -0.158211 1 1 2 192 192 192 255 0.356003 0.061667
-2.86978 3.06385 -0.182377 -1 1 0 192 192 192 255 0.390868 0.061667
-2.80909 3.06385 -0.182377 2 2 0 192 192 192 255 0.390868 0.061667
-2.86978 3.00549 -0.182377 -2 -2 0 192 192 192 255 0.290983 0.061667
-2.80909 3.00549 -0.182377 1 -1 0 192 192 192 255 0.290983 0.061667
-3.44516 3.00549 -0.158211 -1 -1 2 192 192 192 255 0.356003 0.061667
-3.38447 3.00549 -0.158211 2 -2 1 192 192 192 255 0.356003 0.061667
-3.44516 3.06385 -0.158211 -2 2 1 192 192 192 255 0.356003 0.061667
-3.38447 3.06385 -0.158211 1 1 2 192 192 192 255 0.356003 0.061667
-3.44516 3.06385 -0.182377 -1 1 0 192 192 192 255 0.390868 0.061667
-3.38447 3.06385 -0.182377 2 2 0 192 192 192 255 0.390868 0.061667
-3.44516 3.00549 -0.182377 -2 -2 0 192 192 192 255 0.290983 0.061667
-3.38447 3.00549 -0.182377 1 -1 0 192 192 192 255 0.290983 0.061667
-3.15747 3.00549 -0.158211 -1 -1 2 192 192 192 255 0.356003 0.061667
-3.09678 3.00549 -0.158211 2 -2 1 192 192 192 255 0.356003 0.061667
-3.15747 3.06385 -0.158211 -2 2 1 192 192 192 255 0.356003 0.061667
-3.09678 3.06385 -0.158211 1 1 2 192 192 192 255 0.356003 0.061667
-3.15747 3.06385 -0.182377 -1 1 0 192 192 192 255 0.390868 0.061667
-3.09678 3.06385 -0.182377 2 2 0 192 192 192 255 0.390868 0.061667
-3.15747 3.00549 -0.182377 -2 -2 0 192 192 192 255 0.290983 0.061667
-3.09678 3.00549 -0.182377 1 -1 0 192 192 192 255 0.290983 0.061667
-2.86978 2.14209 -0.158211 -1 -1 2 192 192 192 255 0.356003 0.061667
-2.80909 2.14209 -0.158211 2 -2 1 192 192 192 255 0.356003 0.061667
-2.86978 2.20045 -0.158211 -2 2 1 192 192 192 255 0.356003 0.061667
-2.80909 2.20045 -0.158211 1 1 2 192 192 192 255 0.356003 0.061667
-2.86978 2.20045 -0.182377 -1 1 0 192 192 192 255 0.390868 0.061667
-2.80909 2.20045 -0.182377 2 2 0 192 192 192 255 0.390868 0.061667
-2.86978 2.14209 -0.182377 -2 -2 0 192 192 192 255 0.290983 0.061667
-2.80909 2.14209 -0.182377 1 -1 0 192 192 192 255 0.290983 0.061667
-3.44516 2.14209 -0.158211 -1 -1 2 192 192 192 255 0.356003 0.061667
-3.38447 2.14209 -0.158211 2 -2 1 192 192 192 255 0.356003 0.061667
-3.44516 2.20045 -0.158211 -2 2 1 192 192 192 255 0.356003 0.061667
-3.38447 2.20045 -0.158211 1 1 2 192 192 192 255 0.356003 0.061667
-3.44516 2.20045 -0.182377 -1 1 0 192 192 192 255 0.390868 0.061667
-3.38447 2.20045 -0.182377 2 2 0 192 192 192 255 0.390868 0.061667
-3.44516 2.14209 -0.182377 -2 -2 0 192 192 192 255 0.290983 0.061667
-3.38447 2.14209 -0.182377 1 -1 0 192 192 192 255 0.290983 0.061667
-3.15747 2.14209 -0.158211 -1 -1 2 192 192 192 255 0.356003 0.061667
-3.09678 2.14209 -0.158211 2 -2 1 192 192 192 255 0.356003 0.061667
-3.15747 2.20045 -0.158211 -2 2 1 192 192 192 255 0.356003 0.061667
-3.09678 2.20045 -0.158211 1 1 2 192 192 192 255 0.356003 0.061667
-3.15747 2.20045 -0.182377 -1 1 0 192 192 192 255 0.390868 0.061667
-3.09678 2.20045 -0.182377 2 2 0 192 192 192 255 0.390868 0.061667
-3.15747 2.14209 -0.182377 -2 -2 0 192 192 192 255 0.290983 0.061667
-3.09678 2.14209 -0.182377 1 -1 0 192 192 192 255 0.290983 0.061667
-1.20689 2.24611 0.283115 3 -1 2 192 192 192 255 0.267261 0.061667
-1.29311 2.24611 0.283115 -3 -2 1 192 192 192 255 0.267261 0.061667
-1.20689 4.03249 0.283115 3 2 1 192 192 192 255 0.267261 0.061667
-1.29311 4.03249 0.283115 -3 1 2 192 192 192 255 0.267261 0.061667
-1.20689 3.94408 0.196896 3 -1 -2 192 192 192 255 0.267261 0.061667
-1.29311 3.94408 0.196896 -3 -2 -1 192 192 192 255 0.267261 0.061667
-1.20689 2.33452 0.196896 3 2 -1 192 192 192 255 0.267261 0.061667
-1.29311 2.33452 0.196896 -3 1 -2 192 192 192 255 0.267261 0.061667
-1.20689 4.03249 0.058773 2 1 3 192 192 192 255 0.300052 0.061667
-1.29311 4.03249 0.058773 -1 2 3 192 192 192 255 0.300052 0.061667
-1.29311 3.94408 0.058773 -2 -1 3 192 192 192 255 0.240032 0.061667
-1.20689 3.94408 0.058773 1 -2 3 192 192 192 255 0.198113 0.061667
-1.20689 2.33452 0.058773 2 1 3 192 192 192 255 0.29711 0.061667
-1.29311 2.33452 0.058773 -1 2 3 192 192 192 255 0.29711 0.061667
-1.29311 2.24611 0.058773 -2 -1 3 192 192 192 255 0.244197 0.061667
-1.20689 2.24611 0.058773 1 -2 3 192 192 192 255 0.200168 0.061667
-1.17904 4.06104 0.058773 1 2 3 192 192 192 255 0.26373 0.062198
-1.32095 4.06104 0.058773 -2 1 3 192 192 192 255 0.26373 0.062198
-1.32095 3.91553 0.058773 -1 -2 3 192 192 192 255 0.26373 0.062198
-1.17904 3.91553 0.058773 2 -1 3 192 192 192 255 0.26373 0.062198
-1.17904 2.36308 0.058773 1 2 3 192 192 192 255 0.26373 0.062198
-1.32096 2.36308 0.058773 -2 1 3 192 192 192 255 0.26373 0.062198
-1.32096 2.21756 0.058773 -1 -2 3 192 192 192 255 0.26373 0.062198
-1.17904 2.21756 0.058773 2 -1 3 192 192 192 255 0.26373 0.062198
-1.17904 4.06104 4e-006 2 1 0 192 192 192 255 0.297952 0.062198
-1.32095 4.06104 4e-006 -1 2 0 192 192 192 255 0.297952 0.062198
-1.32095 3.91553 4e-006 -2 -1 0 192 192 192 255 0.235124 0.062198
-1.17904 3.91553 4e-006 1 -2 0 192 192 192 255 0.209288 0.062198
-1.17904 2.36308 4e-006 2 1 0 192 192 192 255 0.297952 0.062198
-1.32096 2.36308 4e-006 -1 2 0 192 192 192 255 0.297952 0.062198
-1.32096 2.21756 4e-006 -2 -1 0 192 192 192 255 0.235124 0.062198
-1.17904 2.21756 4e-006 1 -2 0 192 192 192 255 0.209288 0.062198
0 0 0 0 0 1 192 192 192 255 0.919392 0.640965
-5 0 0 0 0 1 192 192 192 255 0.990896 0.640965
0 5 0 0 0 1 192 192 192 255 0.750427 0.873158
-5 5 0 0 0 2 192 192 192 255 0.8862 0.873158
-2.5 0 0 0 0 5 192 192 192 255 0.990895 0.640965
-2.5 5 0 0 0 3 192 192 192 255 0.750426 0.873158
-1.25 0 0 0 0 3 192 192 192 255 0.990896 0.640965
-1.25 5 0 0 0 3 192 192 192 255 0.8862 0.873158
-3.75 0 0 0 0 4 192 192 192 255 0.919392 0.640965
-3.75 5 0 0 0 3 192 192 192 255 0.8862 0.873158
0 4 0 0 0 4 192 192 192 255 0.750427 0.789687
-1.25 4 0 0 0 6 192 192 192 255 0.8862 0.789687
-2.5 4 0 0 0 6 192 192 192 255 0.750426 0.789687
-3.75 4 0 0 0 6 192 192 192 255 0.8862 0.789687
-5 4 0 0 0 5 192 192 192 255 0.8862 0.789687
-2.5 1.99992 0 2 -2 6 192 192 192 255 0.233148 0.061667
-2.5 1.99992 -0.370731 1 -1 -3 192 192 192 255 0.233148 0.061667
-2.5 3.20601 -0.370731 2 2 -3 192 192 192 255 0.233148 0.061667
-2.5 3.20601 0 1 1 7 192 192 192 255 0.233148 0.061667
-3.75425 1.99992 -0.370731 -2 -2 -3 192 192 192 255 0.233148 0.061667
-3.75425 1.99992 0 -1 -1 6 192 192 192 255 0.233148 0.061667
-3.75425 3.20601 0 -2 2 6 192 192 192 255 0.233148 0.061667
-3.75425 3.20601 -0.370731 -1 1 -3 192 192 192 255 0.233148 0.061667
-3.75425 1.99992 0 -1 -1 6 192 192 192 255 0.265187 0.061667
-2.5 1.99992 0 2 -2 6 192 192 192 255 0.265187 0.061667
-2.5 3.20601 0 1 1 7 192 192 192 255 0.265187 0.061667
-3.75425 3.20601 0 -2 2 6 192 192 192 255 0.265187 0.061667
-3.75425 3.20601 -0.370731 -1 1 -3 192 192 192 255 0.265187 0.061667
-2.5 3.20601 -0.370731 2 2 -3 192 192 192 255 0.265187 0.061667
-2.5 1.99992 -0.370731 1 -1 -3 192 192 192 255 0.265187 0.061667
-3.75425 1.99992 -0.370731 -2 -2 -3 192 192 192 255 0.265187 0.061667
-3.64149 2.10835 0 1 2 3 192 192 192 255 0.299122 0.061667
-2.61276 2.10835 0 -2 1 3 192 192 192 255 0.299122 0.061667
-2.61276 2.10835 0 -2 1 3 192 192 192 255 0.233038 0.061667
-2.61276 3.09758 0 -1 -2 3 192 192 192 255 0.233038 0.061667
-2.61276 2.10835 -0.182377 -1 2 3 192 192 192 255 0.233038 0.061667
-2.61276 3.09758 -0.182377 -2 -1 3 192 192 192 255 0.265187 0.061667
-3.64149 3.09758 0 2 -1 3 192 192 192 255 0.233038 0.061667
-3.64149 2.10835 0 1 2 3 192 192 192 255 0.233038 0.061667
-3.64149 2.10835 -0.182377 2 1 3 192 192 192 255 0.233038 0.061667
-3.64149 3.09758 -0.182377 1 -2 3 192 192 192 255 0.233038 0.061667
-2.61276 3.09758 -0.370731 -2 -1 -3 192 192 192 255 0.233038 0.061667
-2.61276 2.10835 -0.370731 -1 2 -3 192 192 192 255 0.233038 0.061667
-2.61276 3.09758 -0.232307 -1 -2 -3 192 192 192 255 0.233038 0.061667
-2.61276 2.10835 -0.370731 -1 2 -3 192 192 192 255 0.299122 0.061667
-3.64149 2.10835 -0.370731 2 1 -3 192 192 192 255 0.299122 0.061667
-2.61276 2.10835 -0.232307 -2 1 -3 192 192 192 255 0.299122 0.061667
-3.64149 2.10835 -0.370731 2 1 -3 192 192 192 255 0.233038 0.061667
-3.64149 3.09758 -0.370731 1 -2 -3 192 192 192 255 0.233038 0.061667
-3.64149 3.09758 -0.232307 2 -1 -3 192 192 192 255 0.233038 0.061667
-3.64149 2.10835 -0.232307 1 2 -3 192 192 192 255 0.233038 0.061667
-3.64149 2.10835 -0.182377 2 1 3 192 192 192 255 0.20176 0.061667
-2.61276 2.10835 -0.182377 -1 2 3 192 192 192 255 0.20176 0.061667
-2.61276 3.09758 -0.182377 -2 -1 3 192 192 192 255 0.20176 0.061667
-3.64149 3.09758 -0.182377 1 -2 3 192 192 192 255 0.20176 0.061667
-3.64149 3.09758 -0.232307 2 -1 -3 192 192 192 255 0.20176 0.061667
-2.61276 3.09758 -0.232307 -1 -2 -3 192 192 192 255 0.20176 0.061667
-2.61276 2.10835 -0.232307 -2 1 -3 192 192 192 255 0.20176 0.061667
-3.64149 2.10835 -0.232307 1 2 -3 192 192 192 255 0.20176 0.061667
-3.55283 2.9743 -0.182377 2 -1 3 192 192 192 255 0.169611 0.061667
-3.55283 2.23164 -0.182377 1 1 3 192 192 192 255 0.169611 0.061667
-3.55283 2.23164 -0.232307 2 2 -3 192 192 192 255 0.169611 0.061667
-3.55283 2.9743 -0.232307 1 -2 -3 192 192 192 255 0.169611 0.061667
-2.70142 2.9743 -0.182377 -2 -2 3 192 192 192 255 0.169611 0.061667
-2.70142 2.9743 -0.232307 -1 -1 -3 192 192 192 255 0.169611 0.061667
-2.70142 2.23164 -0.232307 -2 1 -3 192 192 192 255 0.169611 0.061667
-2.70142 2.23164 -0.182377 -1 2 3 192 192 192 255 0.169611 0.061667
-2.70142 2.23164 -0.182377 -1 2 3 192 192 192 255 0.235695 0.061667
-2.70142 2.23164 -0.232307 -2 1 -3 192 192 192 255 0.235695 0.061667
-3.55283 2.23164 -0.232307 2 2 -3 192 192 192 255 0.235695 0.061667
-3.55283 2.23164 -0.182377 1 1 3 192 192 192 255 0.235695 0.061667
-2.86978 3.06385 -0.158211 -2 2 1 192 192 192 255 0.390868 0.061667
-2.80909 3.06385 -0.158211 1 1 2 192 192 192 255 0.390868 0.061667
-2.80909 3.00549 -0.158211 2 -2 1 192 192 192 255 0.290983 0.061667
-2.86978 3.00549 -0.158211 -1 -1 2 192 192 192 255 0.290983 0.061667
-2.80909 3.00549 -0.158211 2 -2 1 192 192 192 255 0.323964 0.061667
-2.80909 3.00549 -0.182377 1 -1 0 192 192 192 255 0.323964 0.061667
-2.80909 3.06385 -0.182377 2 2 0 192 192 192 255 0.323964 0.061667
-2.80909 3.06385 -0.158211 1 1 2 192 192 192 255 0.323964 0.061667
-2.86978 3.00549 -0.182377 -2 -2 0 192 192 192 255 0.323964 0.061667
-2.86978 3.00549 -0.158211 -1 -1 2 192 192 192 255 0.323964 0.061667
-2.86978 3.06385 -0.158211 -2 2 1 192 192 192 255 0.323964 0.061667
-2.86978 3.06385 -0.182377 -1 1 0 192 192 192 255 0.323964 0.061667
-3.44516 3.06385 -0.158211 -2 2 1 192 192 192 255 0.390868 0.061667
-3.38447 3.06385 -0.158211 1 1 2 192 192 192 255 0.390868 0.061667
-3.38447 3.00549 -0.158211 2 -2 1 192 192 192 255 0.290983 0.061667
-3.44516 3.00549 -0.158211 -1 -1 2 192 192 192 255 0.290983 0.061667
-3.38447 3.00549 -0.158211 2 -2 1 192 192 192 255 0.323964 0.061667
-3.38447 3.00549 -0.182377 1 -1 0 192 192 192 255 0.323964 0.061667
-3.38447 3.06385 -0.182377 2 2 0 192 192 192 255 0.323964 0.061667
-3.38447 3.06385 -0.158211 1 1 2 192 192 192 255 0.323964 0.061667
-3.44516 3.00549 -0.182377 -2 -2 0 192 192 192 255 0.323964 0.061667
-3.44516 3.00549 -0.158211 -1 -1 2 192 192 192 255 0.323964 0.061667
-3.44516 3.06385 -0.158211 -2 2 1 192 192 192 255 0.323964 0.061667
-3.44516 3.06385 -0.182377 -1 1 0 192 192 192 255 0.323964 0.061667
-3.15747 3.06385 -0.158211 -2 2 1 192 192 192 255 0.390868 0.061667
-3.09678 3.06385 -0.158211 1 1 2 192 192 192 255 0.390868 0.061667
-3.09678 3.00549 -0.158211 2 -2 1 192 192 192 255 0.290983 0.061667
-3.15747 3.00549 -0.158211 -1 -1 2 192 192 192 255 0.290983 0.061667
-3.09678 3.00549 -0.158211 2 -2 1 192 192 192 255 0.323964 0.061667
-3.09678 3.00549 -0.182377 1 -1 0 192 192 192 255 0.323964 0.061667
-3.09678 3.06385 -0.182377 2 2 0 192 192 192 255 0.323964 0.061667
-3.09678 3.06385 -0.158211 1 1 2 192 192 192 255 0.323964 0.061667
-3.15747 3.00549 -0.182377 -2 -2 0 192 192 192 255 0.323964 0.061667
-3.15747 3.00549 -0.158211 -1 -1 2 192 192 192 255 0.323964 0.061667
-3.15747 3.06385 -0.158211 -2 2 1 192 192 192 255 0.323964 0.061667
-3.15747 3.06385 -0.182377 -1 1 0 192 192 192 255 0.323964 0.061667
-2.86978 2.20045 -0.158211 -2 2 1 192 192 192 255 0.390868 0.061667
-2.80909 2.20045 -0.158211 1 1 2 192 192 192 255 0.390868 0.061667
-2.80909 2.14209 -0.158211 2 -2 1 192 192 192 255 0.290983 0.061667
-2.86978 2.14209 -0.158211 -1 -1 2 192 192 192 255 0.290983 0.061667
-2.80909 2.14209 -0.158211 2 -2 1 192 192 192 255 0.323964 0.061667
-2.80909 2.14209 -0.182377 1 -1 0 192 192 192 255 0.323964 0.061667
-2.80909 2.20045 -0.182377 2 2 0 192 192 192 255 0.323964 0.061667
-2.80909 2.20045 -0.158211 1 1 2 192 192 192 255 0.323964 0.061667
-2.86978 2.14209 -0.182377 -2 -2 0 192 192 192 255 0.323964 0.061667
-2.86978 2.14209 -0.158211 -1 -1 2 192 192 192 255 0.323964 0.061667
-2.86978 2.20045 -0.158211 -2 2 1 192 192 192 255 0.323964 0.061667
-2.86978 2.20045 -0.182377 -1 1 0 192 192 192 255 0.323964 0.061667
-3.44516 2.20045 -0.158211 -2 2 1 192 192 192 255 0.390868 0.061667
-3.38447 2.20045 -0.158211 1 1 2 192 192 192 255 0.390868 0.061667
-3.38447 2.14209 -0.158211 2 -2 1 192 192 192 255 0.290983 0.061667
-3.44516 2.14209 -0.158211 -1 -1 2 192 192 192 255 0.290983 0.061667
-3.38447 2.14209 -0.158211 2 -2 1 192 192 192 255 0.323964 0.061667
-3.38447 2.14209 -0.182377 1 -1 0 192 192 192 255 0.323964 0.061667
-3.38447 2.20045 -0.182377 2 2 0 192 192 192 255 0.323964 0.061667
-3.38447 2.20045 -0.158211 1 1 2 192 192 192 255 0.323964 0.061667
-3.44516 2.14209 -0.182377 -2 -2 0 192 192 192 255 0.323964 0.061667
-3.44516 2.14209 -0.158211 -1 -1 2 192 192 192 255 0.323964 0.061667
-3.44516 2.20045 -0.158211 -2 2 1 192 192 192 255 0.323964 0.061667
-3.44516 2.20045 -0.182377 -1 1 0 192 192 192 255 0.323964 0.061667
-3.15747 2.20045 -0.158211 -2 2 1 192 192 192 255 0.390868 0.061667
-3.09678 2.20045 -0.158211 1 1 2 192 192 192 255 0.390868 0.061667
-3.09678 2.14209 -0.158211 2 -2 1 192 192 192 255 0.290983 0.061667
-3.15747 2.14209 -0.158211 -1 -1 2 192 192 192 255 0.290983 0.061667
-3.09678 2.14209 -0.158211 2 -2 1 192 192 192 255 0.323964 0.061667
-3.09678 2.14209 -0.182377 1 -1 0 192 192 192 255 0.323964 0.061667
-3.09678 2.20045 -0.182377 2 2 0 192 192 192 255 0.323964 0.061667
-3.09678 2.20045 -0.158211 1 1 2 192 192 192 255 0.323964 0.061667
-3.15747 2.14209 -0.182377 -2 -2 0 192 192 192 255 0.323964 0.061667
-3.15747 2.14209 -0.158211 -1 -1 2 192 192 192 255 0.323964 0.061667
-3.15747 2.20045 -0.158211 -2 2 1 192 192 192 255 0.323964 0.061667
-3.15747 2.20045 -0.182377 -1 1 0 192 192 192 255 0.323964 0.061667
-1.29311 2.24611 0.283115 -3 -2 1 192 192 192 255 0.233148 0.061667
-1.29311 4.03249 0.283115 -3 1 2 192 192 192 255 0.233148 0.061667
-1.29311 3.94408 0.196896 -3 -2 -1 192 192 192 255 0.233148 0.061667
-1.29311 2.33452 0.196896 -3 1 -2 192 192 192 255 0.233148 0.061667
-1.20689 2.33452 0.196896 3 2 -1 192 192 192 255 0.233148 0.061667
-1.20689 3.94408 0.196896 3 -1 -2 192 192 192 255 0.233148 0.061667
-1.20689 4.03249 0.283115 3 2 1 192 192 192 255 0.233148 0.061667
-1.20689 2.24611 0.283115 3 -1 2 192 192 192 255 0.233148 0.061667
-1.20689 4.03249 0.283115 3 2 1 192 192 192 255 0.300052 0.061667
-1.29311 4.03249 0.283115 -3 1 2 192 192 192 255 0.300052 0.061667
-1.29311 4.03249 0.283115 -3 1 2 192 192 192 255 0.240032 0.061667
-1.29311 4.03249 0.058773 -1 2 3 192 192 192 255 0.240032 0.061667
-1.29311 3.94408 0.196896 -3 -2 -1 192 192 192 255 0.240032 0.061667
-1.29311 3.94408 0.196896 -3 -2 -1 192 192 192 255 0.198113 0.061667
-1.29311 3.94408 0.058773 -2 -1 3 192 192 192 255 0.198113 0.061667
-1.20689 3.94408 0.196896 3 -1 -2 192 192 192 255 0.198113 0.061667
-1.20689 3.94408 0.196896 3 -1 -2 192 192 192 255 0.240032 0.061667
-1.20689 3.94408 0.058773 1 -2 3 192 192 192 255 0.240032 0.061667
-1.20689 4.03249 0.058773 2 1 3 192 192 192 255 0.240032 0.061667
-1.20689 4.03249 0.283115 3 2 1 192 192 192 255 0.240032 0.061667
-1.20689 2.33452 0.196896 3 2 -1 192 192 192 255 0.29711 0.061667
-1.29311 2.33452 0.196896 -3 1 -2 192 192 192 255 0.29711 0.061667
-1.29311 2.33452 0.196896 -3 1 -2 192 192 192 255 0.244197 0.061667
-1.29311 2.33452 0.058773 -1 2 3 192 192 192 255 0.244197 0.061667
-1.29311 2.24611 0.283115 -3 -2 1 192 192 192 255 0.244197 0.061667
-1.29311 2.24611 0.283115 -3 -2 1 192 192 192 255 0.200168 0.061667
-1.29311 2.24611 0.058773 -2 -1 3 192 192 192 255 0.200168 0.061667
-1.20689 2.24611 0.283115 3 -1 2 192 192 192 255 0.200168 0.061667
-1.20689 2.24611 0.283115 3 -1 2 192 192 192 255 0.244197 0.061667
-1.20689 2.24611 0.058773 1 -2 3 192 192 192 255 0.244197 0.061667
-1.20689 2.33452 0.058773 2 1 3 192 192 192 255 0.244197 0.061667
-1.20689 2.33452 0.196896 3 2 -1 192 192 192 255 0.244197 0.061667
-1.20689 4.03249 0.058773 2 1 3 192 192 192 255 0.26373 0.062198
-1.29311 4.03249 0.058773 -1 2 3 192 192 192 255 0.26373 0.062198
-1.29311 3.94408 0.058773 -2 -1 3 192 192 192 255 0.26373 0.062198
-1.20689 3.94408 0.058773 1 -2 3 192 192 192 255 0.26373 0.062198
-1.20689 2.33452 0.058773 2 1 3 192 192 192 255 0.26373 0.062198
-1.29311 2.33452 0.058773 -1 2 3 192 192 192 255 0.26373 0.062198
-1.29311 2.24611 0.058773 -2 -1 3 192 192 192 255 0.26373 0.062198
-1.20689 2.24611 0.058773 1 -2 3 192 192 192 255 0.26373 0.062198
-1.17904 4.06104 0.058773 1 2 3 192 192 192 255 0.297952 0.062198
-1.32095 4.06104 0.058773 -2 1 3 192 192 192 255 0.297952 0.062198
-1.32095 4.06104 0.058773 -2 1 3 192 192 192 255 0.235124 0.062198
-1.32095 4.06104 4e-006 -1 2 0 192 192 192 255 0.235124 0.062198
-1.32095 3.91553 0.058773 -1 -2 3 192 192 192 255 0.235124 0.062198
-1.32095 3.91553 0.058773 -1 -2 3 192 192 192 255 0.209288 0.062198
-1.32095 3.91553 4e-006 -2 -1 0 192 192 192 255 0.209288 0.062198
-1.17904 3.91553 0.058773 2 -1 3 192 192 192 255 0.209288 0.062198
-1.17904 3.91553 0.058773 2 -1 3 192 192 192 255 0.235124 0.062198
-1.17904 3.91553 4e-006 1 -2 0 192 192 192 255 0.235124 0.062198
-1.17904 4.06104 4e-006 2 1 0 192 192 192 255 0.235124 0.062198
-1.17904 4.06104 0.058773 1 2 3 192 192 192 255 0.235124 0.062198
-1.17904 2.36308 0.058773 1 2 3 192 192 192 255 0.297952 0.062198
-1.32096 2.36308 0.058773 -2 1 3 192 192 192 255 0.297952 0.062198
-1.32096 2.36308 0.058773 -2 1 3 192 192 192 255 0.235124 0.062198
-1.32096 2.36308 4e-006 -1 2 0 192 192 192 255 0.235124 0.062198
-1.32096 2.21756 0.058773 -1 -2 3 192 192 192 255 0.235124 0.062198
-1.32096 2.21756 0.058773 -1 -2 3 192 192 192 255 0.209288 0.062198
-1.32096 2.21756 4e-006 -2 -1 0 192 192 192 255 0.209288 0.062198
-1.17904 2.21756 0.058773 2 -1 3 192 192 192 255 0.209288 0.062198
-1.17904 2.21756 0.058773 2 -1 3 192 192 192 255 0.235124 0.062198
-1.17904 2.21756 4e-006 1 -2 0 192 192 192 255 0.235124 0.062198
-1.17904 2.36308 4e-006 2 1 0 192 192 192 255 0.235124 0.062198
-1.17904 2.36308 0.058773 1 2 3 192 192 192 255 0.235124 0.062198
-1.25 4 0 0 0 6 192 192 192 255 0.750427 0.789687
-1.25 5 0 0 0 3 192 192 192 255 0.750427 0.873158
-2.5 5 0 0 0 3 192 192 192 255 0.8862 0.873158
-2.5 4 0 0 0 6 192 192 192 255 0.8862 0.789687
-3.75 4 0 0 0 6 192 192 192 255 0.750427 0.789687
-3.75 5 0 0 0 3 192 192 192 255 0.750427 0.873158
0 4 0 0 0 4 192 192 192 255 0.919392 0.701964
-1.25 4 0 0 0 6 192 192 192 255 0.990896 0.701964
-1.25 0 0 0 0 3 192 192 192 255 0.919392 0.640965
-1.25 4 0 0 0 6 192 192 192 255 0.919392 0.701964
-2.5 4 0 0 0 6 192 192 192 255 0.990895 0.701964
-2.5 3.20601 0 1 1 7 192 192 192 255 0.990895 0.689764
-2.5 1.99992 0 2 -2 6 192 192 192 255 0.990895 0.671463
-2.5 3.20601 0 1 1 7 192 192 192 255 0.919392 0.689764
-2.5 4 0 0 0 6 192 192 192 255 0.919392 0.701964
-3.75 4 0 0 0 6 192 192 192 255 0.990895 0.701964
-3.75425 3.20601 0 -2 2 6 192 192 192 255 0.990895 0.689764
-5 4 0 0 0 5 192 192 192 255 0.990896 0.701964
-3.75425 1.99992 0 -1 -1 6 192 192 192 255 0.919392 0.671463
-3.75425 3.20601 0 -2 2 6 192 192 192 255 0.919392 0.689764
-3.75 4 0 0 0 6 192 192 192 255 0.919392 0.701964
-3.75 0 0 0 0 4 192 192 192 255 0.990895 0.640965
-2.5 0 0 0 0 5 192 192 192 255 0.919392 0.640965
-2.5 1.99992 0 2 -2 6 192 192 192 255 0.919392 0.671463
-3.75425 1.99992 0 -1 -1 6 192 192 192 255 0.990895 0.671463
3 2 3 5 
3 2 5 4 
3 6 7 1 
3 6 1 0 
3 127 128 129 
3 127 129 130 
3 131 132 133 
3 131 133 134 
3 135 136 9 
3 135 9 8 
3 136 137 10 
3 136 10 9 
3 137 138 11 
3 137 11 10 
3 138 135 8 
3 138 8 11 
3 139 140 13 
3 139 13 12 
3 140 141 14 
3 140 14 13 
3 141 142 15 
3 141 15 14 
3 142 139 12 
3 142 12 15 
3 143 144 17 
3 143 17 16 
3 145 146 18 
3 145 18 147 
3 10 11 19 
3 10 19 148 
3 149 150 151 
3 149 151 152 
3 12 13 21 
3 12 21 20 
3 153 154 22 
3 153 22 155 
3 156 157 23 
3 156 23 158 
3 159 160 161 
3 159 161 162 
3 163 164 25 
3 163 25 24 
3 164 165 26 
3 164 26 25 
3 165 166 27 
3 165 27 26 
3 166 163 24 
3 166 24 27 
3 167 168 29 
3 167 29 28 
3 168 169 30 
3 168 30 29 
3 169 170 31 
3 169 31 30 
3 170 167 28 
3 170 28 31 
3 26 27 28 
3 26 28 29 
3 171 172 173 
3 171 173 174 
3 175 176 177 
3 175 177 178 
3 179 180 181 
3 179 181 182 
3 32 33 35 
3 32 35 34 
3 183 184 37 
3 183 37 36 
3 38 39 185 
3 38 185 186 
3 187 188 189 
3 187 189 190 
3 191 192 193 
3 191 193 194 
3 40 41 43 
3 40 43 42 
3 195 196 45 
3 195 45 44 
3 46 47 197 
3 46 197 198 
3 199 200 201 
3 199 201 202 
3 203 204 205 
3 203 205 206 
3 48 49 51 
3 48 51 50 
3 207 208 53 
3 207 53 52 
3 54 55 209 
3 54 209 210 
3 211 212 213 
3 211 213 214 
3 215 216 217 
3 215 217 218 
3 56 57 59 
3 56 59 58 
3 219 220 61 
3 219 61 60 
3 62 63 221 
3 62 221 222 
3 223 224 225 
3 223 225 226 
3 227 228 229 
3 227 229 230 
3 64 65 67 
3 64 67 66 
3 231 232 69 
3 231 69 68 
3 70 71 233 
3 70 233 234 
3 235 236 237 
3 235 237 238 
3 239 240 241 
3 239 241 242 
3 72 73 75 
3 72 75 74 
3 243 244 77 
3 243 77 76 
3 78 79 245 
3 78 245 246 
3 247 248 249 
3 247 249 250 
3 251 252 253 
3 251 253 254 
3 80 82 83 
3 80 83 81 
3 84 86 87 
3 84 87 85 
3 255 256 257 
3 255 257 258 
3 259 260 261 
3 259 261 262 
3 263 88 89 
3 263 89 264 
3 265 266 90 
3 265 90 267 
3 268 269 91 
3 268 91 270 
3 271 272 273 
3 271 273 274 
3 275 92 93 
3 275 93 276 
3 277 278 94 
3 277 94 279 
3 280 281 95 
3 280 95 282 
3 283 284 285 
3 283 285 286 
3 287 96 97 
3 287 97 288 
3 288 97 98 
3 288 98 289 
3 289 98 99 
3 289 99 290 
3 290 99 96 
3 290 96 287 
3 291 100 101 
3 291 101 292 
3 292 101 102 
3 292 102 293 
3 293 102 103 
3 293 103 294 
3 294 103 100 
3 294 100 291 
3 295 104 105 
3 295 105 296 
3 297 298 106 
3 297 106 299 
3 300 301 107 
3 300 107 302 
3 303 304 305 
3 303 305 306 
3 307 108 109 
3 307 109 308 
3 309 310 110 
3 309 110 311 
3 312 313 111 
3 312 111 314 
3 315 316 317 
3 315 317 318 
3 122 114 119 
3 122 119 123 
3 124 117 121 
3 124 121 125 
3 319 320 321 
3 319 321 322 
3 115 126 323 
3 115 323 324 
3 118 112 325 
3 118 325 326 
3 116 327 328 
3 116 328 329 
3 116 329 330 
3 116 330 331 
3 332 333 334 
3 332 334 335 
3 336 113 120 
3 336 120 337 
3 336 337 338 
3 336 338 339 
3 340 341 342 
3 340 342 343 
