ply
format ascii 1.0
comment VCGLIB generated
comment TextureFile SpaceInteriors_Texture.png
element vertex 208
property float x
property float y
property float z
property float nx
property float ny
property float nz
property uchar red
property uchar green
property uchar blue
property uchar alpha
property float texture_u
property float texture_v
element face 124
property list uchar int vertex_indices
end_header
-1 0 -0 -1 -1 3 192 192 192 255 0.200168 0.061667
0 0 -0 2 -2 3 192 192 192 255 0.200168 0.061667
-1 1 -0 -2 2 3 192 192 192 255 0.300052 0.061667
0 1 -0 1 1 3 192 192 192 255 0.300052 0.061667
-1 1 -0.370731 -1 1 -3 192 192 192 255 0.300052 0.061667
0 1 -0.370731 2 2 -3 192 192 192 255 0.300052 0.061667
-1 0 -0.370731 -2 -2 -3 192 192 192 255 0.200168 0.061667
0 0 -0.370731 1 -1 -3 192 192 192 255 0.200168 0.061667
-0.910099 0.089901 -0 1 2 3 192 192 192 255 0.265187 0.061667
-0.089901 0.089901 -0 -2 1 3 192 192 192 255 0.265187 0.061667
-0.089901 0.910099 -0 -1 -2 3 192 192 192 255 0.265187 0.061667
-0.910099 0.910099 -0 2 -1 3 192 192 192 255 0.265187 0.061667
-0.910099 0.910099 -0.370731 1 -2 -3 192 192 192 255 0.265187 0.061667
-0.089901 0.910099 -0.370731 -2 -1 -3 192 192 192 255 0.265187 0.061667
-0.089901 0.089901 -0.370731 -1 2 -3 192 192 192 255 0.265187 0.061667
-0.910099 0.089901 -0.370731 2 1 -3 192 192 192 255 0.265187 0.061667
-0.910099 0.089901 -0.182374 2 1 3 192 192 192 255 0.299122 0.061667
-0.089901 0.089901 -0.182374 -1 2 3 192 192 192 255 0.299122 0.061667
-0.089901 0.910099 -0.182374 -2 -1 3 192 192 192 255 0.233038 0.061667
-0.910099 0.910099 -0.182374 1 -2 3 192 192 192 255 0.265187 0.061667
-0.910099 0.910099 -0.232308 2 -1 -3 192 192 192 255 0.265187 0.061667
-0.089901 0.910099 -0.232308 -1 -2 -3 192 192 192 255 0.265187 0.061667
-0.089901 0.089901 -0.232308 -2 1 -3 192 192 192 255 0.233038 0.061667
-0.910099 0.089901 -0.232308 1 2 -3 192 192 192 255 0.299122 0.061667
-0.839411 0.192121 -0.182374 1 1 3 192 192 192 255 0.20176 0.061667
-0.160589 0.192121 -0.182374 -1 2 3 192 192 192 255 0.20176 0.061667
-0.160589 0.807879 -0.182374 -2 -2 3 192 192 192 255 0.20176 0.061667
-0.839411 0.807879 -0.182374 2 -1 3 192 192 192 255 0.20176 0.061667
-0.839411 0.807879 -0.232308 1 -2 -3 192 192 192 255 0.20176 0.061667
-0.160589 0.807879 -0.232308 -1 -1 -3 192 192 192 255 0.20176 0.061667
-0.160589 0.192121 -0.232308 -2 1 -3 192 192 192 255 0.20176 0.061667
-0.839411 0.192121 -0.232308 2 2 -3 192 192 192 255 0.20176 0.061667
-0.294823 0.833737 -0.158209 -1 -1 2 192 192 192 255 0.356003 0.061667
-0.246433 0.833737 -0.158209 2 -2 1 192 192 192 255 0.356003 0.061667
-0.294823 0.882127 -0.158209 -2 2 1 192 192 192 255 0.356003 0.061667
-0.246433 0.882127 -0.158209 1 1 2 192 192 192 255 0.356003 0.061667
-0.294823 0.882127 -0.182374 -1 1 0 192 192 192 255 0.390868 0.061667
-0.246433 0.882127 -0.182374 2 2 0 192 192 192 255 0.390868 0.061667
-0.294823 0.833737 -0.182374 -2 -2 0 192 192 192 255 0.290983 0.061667
-0.246433 0.833737 -0.182374 1 -1 0 192 192 192 255 0.290983 0.061667
-0.753567 0.833737 -0.158209 -1 -1 2 192 192 192 255 0.356003 0.061667
-0.705177 0.833737 -0.158209 2 -2 1 192 192 192 255 0.356003 0.061667
-0.753567 0.882127 -0.158209 -2 2 1 192 192 192 255 0.356003 0.061667
-0.705177 0.882127 -0.158209 1 1 2 192 192 192 255 0.356003 0.061667
-0.753567 0.882127 -0.182374 -1 1 0 192 192 192 255 0.390868 0.061667
-0.705177 0.882127 -0.182374 2 2 0 192 192 192 255 0.390868 0.061667
-0.753567 0.833737 -0.182374 -2 -2 0 192 192 192 255 0.290983 0.061667
-0.705177 0.833737 -0.182374 1 -1 0 192 192 192 255 0.290983 0.061667
-0.524195 0.833737 -0.158209 -1 -1 2 192 192 192 255 0.356003 0.061667
-0.475805 0.833737 -0.158209 2 -2 1 192 192 192 255 0.356003 0.061667
-0.524195 0.882127 -0.158209 -2 2 1 192 192 192 255 0.356003 0.061667
-0.475805 0.882127 -0.158209 1 1 2 192 192 192 255 0.356003 0.061667
-0.524195 0.882127 -0.182374 -1 1 0 192 192 192 255 0.390868 0.061667
-0.475805 0.882127 -0.182374 2 2 0 192 192 192 255 0.390868 0.061667
-0.524195 0.833737 -0.182374 -2 -2 0 192 192 192 255 0.290983 0.061667
-0.475805 0.833737 -0.182374 1 -1 0 192 192 192 255 0.290983 0.061667
-0.294823 0.117874 -0.158209 -1 -1 2 192 192 192 255 0.356003 0.061667
-0.246433 0.117874 -0.158209 2 -2 1 192 192 192 255 0.356003 0.061667
-0.294823 0.166263 -0.158209 -2 2 1 192 192 192 255 0.356003 0.061667
-0.246433 0.166263 -0.158209 1 1 2 192 192 192 255 0.356003 0.061667
-0.294823 0.166263 -0.182374 -1 1 0 192 192 192 255 0.390868 0.061667
-0.246433 0.166263 -0.182374 2 2 0 192 192 192 255 0.390868 0.061667
-0.294823 0.117874 -0.182374 -2 -2 0 192 192 192 255 0.290983 0.061667
-0.246433 0.117874 -0.182374 1 -1 0 192 192 192 255 0.290983 0.061667
-0.753567 0.117874 -0.158209 -1 -1 2 192 192 192 255 0.356003 0.061667
-0.705177 0.117874 -0.158209 2 -2 1 192 192 192 255 0.356003 0.061667
-0.753567 0.166263 -0.158209 -2 2 1 192 192 192 255 0.356003 0.061667
-0.705177 0.166263 -0.158209 1 1 2 192 192 192 255 0.356003 0.061667
-0.753567 0.166263 -0.182374 -1 1 0 192 192 192 255 0.390868 0.061667
-0.705177 0.166263 -0.182374 2 2 0 192 192 192 255 0.390868 0.061667
-0.753567 0.117874 -0.182374 -2 -2 0 192 192 192 255 0.290983 0.061667
-0.705177 0.117874 -0.182374 1 -1 0 192 192 192 255 0.290983 0.061667
-0.524195 0.117874 -0.158209 -1 -1 2 192 192 192 255 0.356003 0.061667
-0.475805 0.117874 -0.158209 2 -2 1 192 192 192 255 0.356003 0.061667
-0.524195 0.166263 -0.158209 -2 2 1 192 192 192 255 0.356003 0.061667
-0.475805 0.166263 -0.158209 1 1 2 192 192 192 255 0.356003 0.061667
-0.524195 0.166263 -0.182374 -1 1 0 192 192 192 255 0.390868 0.061667
-0.475805 0.166263 -0.182374 2 2 0 192 192 192 255 0.390868 0.061667
-0.524195 0.117874 -0.182374 -2 -2 0 192 192 192 255 0.290983 0.061667
-0.475805 0.117874 -0.182374 1 -1 0 192 192 192 255 0.290983 0.061667
0 0 -0 2 -2 3 192 192 192 255 0.233148 0.061667
0 0 -0.370731 1 -1 -3 192 192 192 255 0.233148 0.061667
0 1 -0.370731 2 2 -3 192 192 192 255 0.233148 0.061667
0 1 -0 1 1 3 192 192 192 255 0.233148 0.061667
-1 0 -0.370731 -2 -2 -3 192 192 192 255 0.233148 0.061667
-1 0 -0 -1 -1 3 192 192 192 255 0.233148 0.061667
-1 1 -0 -2 2 3 192 192 192 255 0.233148 0.061667
-1 1 -0.370731 -1 1 -3 192 192 192 255 0.233148 0.061667
-1 0 -0 -1 -1 3 192 192 192 255 0.265187 0.061667
0 0 -0 2 -2 3 192 192 192 255 0.265187 0.061667
0 1 -0 1 1 3 192 192 192 255 0.265187 0.061667
-1 1 -0 -2 2 3 192 192 192 255 0.265187 0.061667
-1 1 -0.370731 -1 1 -3 192 192 192 255 0.265187 0.061667
0 1 -0.370731 2 2 -3 192 192 192 255 0.265187 0.061667
0 0 -0.370731 1 -1 -3 192 192 192 255 0.265187 0.061667
-1 0 -0.370731 -2 -2 -3 192 192 192 255 0.265187 0.061667
-0.910099 0.089901 -0 1 2 3 192 192 192 255 0.299122 0.061667
-0.089901 0.089901 -0 -2 1 3 192 192 192 255 0.299122 0.061667
-0.089901 0.089901 -0 -2 1 3 192 192 192 255 0.233038 0.061667
-0.089901 0.910099 -0 -1 -2 3 192 192 192 255 0.233038 0.061667
-0.089901 0.089901 -0.182374 -1 2 3 192 192 192 255 0.233038 0.061667
-0.089901 0.910099 -0.182374 -2 -1 3 192 192 192 255 0.265187 0.061667
-0.910099 0.910099 -0 2 -1 3 192 192 192 255 0.233038 0.061667
-0.910099 0.089901 -0 1 2 3 192 192 192 255 0.233038 0.061667
-0.910099 0.089901 -0.182374 2 1 3 192 192 192 255 0.233038 0.061667
-0.910099 0.910099 -0.182374 1 -2 3 192 192 192 255 0.233038 0.061667
-0.089901 0.910099 -0.370731 -2 -1 -3 192 192 192 255 0.233038 0.061667
-0.089901 0.089901 -0.370731 -1 2 -3 192 192 192 255 0.233038 0.061667
-0.089901 0.910099 -0.232308 -1 -2 -3 192 192 192 255 0.233038 0.061667
-0.089901 0.089901 -0.370731 -1 2 -3 192 192 192 255 0.299122 0.061667
-0.910099 0.089901 -0.370731 2 1 -3 192 192 192 255 0.299122 0.061667
-0.089901 0.089901 -0.232308 -2 1 -3 192 192 192 255 0.299122 0.061667
-0.910099 0.089901 -0.370731 2 1 -3 192 192 192 255 0.233038 0.061667
-0.910099 0.910099 -0.370731 1 -2 -3 192 192 192 255 0.233038 0.061667
-0.910099 0.910099 -0.232308 2 -1 -3 192 192 192 255 0.233038 0.061667
-0.910099 0.089901 -0.232308 1 2 -3 192 192 192 255 0.233038 0.061667
-0.910099 0.089901 -0.182374 2 1 3 192 192 192 255 0.20176 0.061667
-0.089901 0.089901 -0.182374 -1 2 3 192 192 192 255 0.20176 0.061667
-0.089901 0.910099 -0.182374 -2 -1 3 192 192 192 255 0.20176 0.061667
-0.910099 0.910099 -0.182374 1 -2 3 192 192 192 255 0.20176 0.061667
-0.910099 0.910099 -0.232308 2 -1 -3 192 192 192 255 0.20176 0.061667
-0.089901 0.910099 -0.232308 -1 -2 -3 192 192 192 255 0.20176 0.061667
-0.089901 0.089901 -0.232308 -2 1 -3 192 192 192 255 0.20176 0.061667
-0.910099 0.089901 -0.232308 1 2 -3 192 192 192 255 0.20176 0.061667
-0.839411 0.807879 -0.182374 2 -1 3 192 192 192 255 0.169611 0.061667
-0.839411 0.192121 -0.182374 1 1 3 192 192 192 255 0.169611 0.061667
-0.839411 0.192121 -0.232308 2 2 -3 192 192 192 255 0.169611 0.061667
-0.839411 0.807879 -0.232308 1 -2 -3 192 192 192 255 0.169611 0.061667
-0.160589 0.807879 -0.182374 -2 -2 3 192 192 192 255 0.169611 0.061667
-0.160589 0.807879 -0.232308 -1 -1 -3 192 192 192 255 0.169611 0.061667
-0.160589 0.192121 -0.232308 -2 1 -3 192 192 192 255 0.169611 0.061667
-0.160589 0.192121 -0.182374 -1 2 3 192 192 192 255 0.169611 0.061667
-0.160589 0.192121 -0.182374 -1 2 3 192 192 192 255 0.235695 0.061667
-0.160589 0.192121 -0.232308 -2 1 -3 192 192 192 255 0.235695 0.061667
-0.839411 0.192121 -0.232308 2 2 -3 192 192 192 255 0.235695 0.061667
-0.839411 0.192121 -0.182374 1 1 3 192 192 192 255 0.235695 0.061667
-0.294823 0.882127 -0.158209 -2 2 1 192 192 192 255 0.390868 0.061667
-0.246433 0.882127 -0.158209 1 1 2 192 192 192 255 0.390868 0.061667
-0.246433 0.833737 -0.158209 2 -2 1 192 192 192 255 0.290983 0.061667
-0.294823 0.833737 -0.158209 -1 -1 2 192 192 192 255 0.290983 0.061667
-0.246433 0.833737 -0.158209 2 -2 1 192 192 192 255 0.323964 0.061667
-0.246433 0.833737 -0.182374 1 -1 0 192 192 192 255 0.323964 0.061667
-0.246433 0.882127 -0.182374 2 2 0 192 192 192 255 0.323964 0.061667
-0.246433 0.882127 -0.158209 1 1 2 192 192 192 255 0.323964 0.061667
-0.294823 0.833737 -0.182374 -2 -2 0 192 192 192 255 0.323964 0.061667
-0.294823 0.833737 -0.158209 -1 -1 2 192 192 192 255 0.323964 0.061667
-0.294823 0.882127 -0.158209 -2 2 1 192 192 192 255 0.323964 0.061667
-0.294823 0.882127 -0.182374 -1 1 0 192 192 192 255 0.323964 0.061667
-0.753567 0.882127 -0.158209 -2 2 1 192 192 192 255 0.390868 0.061667
-0.705177 0.882127 -0.158209 1 1 2 192 192 192 255 0.390868 0.061667
-0.705177 0.833737 -0.158209 2 -2 1 192 192 192 255 0.290983 0.061667
-0.753567 0.833737 -0.158209 -1 -1 2 192 192 192 255 0.290983 0.061667
-0.705177 0.833737 -0.158209 2 -2 1 192 192 192 255 0.323964 0.061667
-0.705177 0.833737 -0.182374 1 -1 0 192 192 192 255 0.323964 0.061667
-0.705177 0.882127 -0.182374 2 2 0 192 192 192 255 0.323964 0.061667
-0.705177 0.882127 -0.158209 1 1 2 192 192 192 255 0.323964 0.061667
-0.753567 0.833737 -0.182374 -2 -2 0 192 192 192 255 0.323964 0.061667
-0.753567 0.833737 -0.158209 -1 -1 2 192 192 192 255 0.323964 0.061667
-0.753567 0.882127 -0.158209 -2 2 1 192 192 192 255 0.323964 0.061667
-0.753567 0.882127 -0.182374 -1 1 0 192 192 192 255 0.323964 0.061667
-0.524195 0.882127 -0.158209 -2 2 1 192 192 192 255 0.390868 0.061667
-0.475805 0.882127 -0.158209 1 1 2 192 192 192 255 0.390868 0.061667
-0.475805 0.833737 -0.158209 2 -2 1 192 192 192 255 0.290983 0.061667
-0.524195 0.833737 -0.158209 -1 -1 2 192 192 192 255 0.290983 0.061667
-0.475805 0.833737 -0.158209 2 -2 1 192 192 192 255 0.323964 0.061667
-0.475805 0.833737 -0.182374 1 -1 0 192 192 192 255 0.323964 0.061667
-0.475805 0.882127 -0.182374 2 2 0 192 192 192 255 0.323964 0.061667
-0.475805 0.882127 -0.158209 1 1 2 192 192 192 255 0.323964 0.061667
-0.524195 0.833737 -0.182374 -2 -2 0 192 192 192 255 0.323964 0.061667
-0.524195 0.833737 -0.158209 -1 -1 2 192 192 192 255 0.323964 0.061667
-0.524195 0.882127 -0.158209 -2 2 1 192 192 192 255 0.323964 0.061667
-0.524195 0.882127 -0.182374 -1 1 0 192 192 192 255 0.323964 0.061667
-0.294823 0.166263 -0.158209 -2 2 1 192 192 192 255 0.390868 0.061667
-0.246433 0.166263 -0.158209 1 1 2 192 192 192 255 0.390868 0.061667
-0.246433 0.117874 -0.158209 2 -2 1 192 192 192 255 0.290983 0.061667
-0.294823 0.117874 -0.158209 -1 -1 2 192 192 192 255 0.290983 0.061667
-0.246433 0.117874 -0.158209 2 -2 1 192 192 192 255 0.323964 0.061667
-0.246433 0.117874 -0.182374 1 -1 0 192 192 192 255 0.323964 0.061667
-0.246433 0.166263 -0.182374 2 2 0 192 192 192 255 0.323964 0.061667
-0.246433 0.166263 -0.158209 1 1 2 192 192 192 255 0.323964 0.061667
-0.294823 0.117874 -0.182374 -2 -2 0 192 192 192 255 0.323964 0.061667
-0.294823 0.117874 -0.158209 -1 -1 2 192 192 192 255 0.323964 0.061667
-0.294823 0.166263 -0.158209 -2 2 1 192 192 192 255 0.323964 0.061667
-0.294823 0.166263 -0.182374 -1 1 0 192 192 192 255 0.323964 0.061667
-0.753567 0.166263 -0.158209 -2 2 1 192 192 192 255 0.390868 0.061667
-0.705177 0.166263 -0.158209 1 1 2 192 192 192 255 0.390868 0.061667
-0.705177 0.117874 -0.158209 2 -2 1 192 192 192 255 0.290983 0.061667
-0.753567 0.117874 -0.158209 -1 -1 2 192 192 192 255 0.290983 0.061667
-0.705177 0.117874 -0.158209 2 -2 1 192 192 192 255 0.323964 0.061667
-0.705177 0.117874 -0.182374 1 -1 0 192 192 192 255 0.323964 0.061667
-0.705177 0.166263 -0.182374 2 2 0 192 192 192 255 0.323964 0.061667
-0.705177 0.166263 -0.158209 1 1 2 192 192 192 255 0.323964 0.061667
-0.753567 0.117874 -0.182374 -2 -2 0 192 192 192 255 0.323964 0.061667
-0.753567 0.117874 -0.158209 -1 -1 2 192 192 192 255 0.323964 0.061667
-0.753567 0.166263 -0.158209 -2 2 1 192 192 192 255 0.323964 0.061667
-0.753567 0.166263 -0.182374 -1 1 0 192 192 192 255 0.323964 0.061667
-0.524195 0.166263 -0.158209 -2 2 1 192 192 192 255 0.390868 0.061667
-0.475805 0.166263 -0.158209 1 1 2 192 192 192 255 0.390868 0.061667
-0.475805 0.117874 -0.158209 2 -2 1 192 192 192 255 0.290983 0.061667
-0.524195 0.117874 -0.158209 -1 -1 2 192 192 192 255 0.290983 0.061667
-0.475805 0.117874 -0.158209 2 -2 1 192 192 192 255 0.323964 0.061667
-0.475805 0.117874 -0.182374 1 -1 0 192 192 192 255 0.323964 0.061667
-0.475805 0.166263 -0.182374 2 2 0 192 192 192 255 0.323964 0.061667
-0.475805 0.166263 -0.158209 1 1 2 192 192 192 255 0.323964 0.061667
-0.524195 0.117874 -0.182374 -2 -2 0 192 192 192 255 0.323964 0.061667
-0.524195 0.117874 -0.158209 -1 -1 2 192 192 192 255 0.323964 0.061667
-0.524195 0.166263 -0.158209 -2 2 1 192 192 192 255 0.323964 0.061667
-0.524195 0.166263 -0.182374 -1 1 0 192 192 192 255 0.323964 0.061667
3 2 3 5 
3 2 5 4 
3 6 7 1 
3 6 1 0 
3 80 81 82 
3 80 82 83 
3 84 85 86 
3 84 86 87 
3 88 89 9 
3 88 9 8 
3 89 90 10 
3 89 10 9 
3 90 91 11 
3 90 11 10 
3 91 88 8 
3 91 8 11 
3 92 93 13 
3 92 13 12 
3 93 94 14 
3 93 14 13 
3 94 95 15 
3 94 15 14 
3 95 92 12 
3 95 12 15 
3 96 97 17 
3 96 17 16 
3 98 99 18 
3 98 18 100 
3 10 11 19 
3 10 19 101 
3 102 103 104 
3 102 104 105 
3 12 13 21 
3 12 21 20 
3 106 107 22 
3 106 22 108 
3 109 110 23 
3 109 23 111 
3 112 113 114 
3 112 114 115 
3 116 117 25 
3 116 25 24 
3 117 118 26 
3 117 26 25 
3 118 119 27 
3 118 27 26 
3 119 116 24 
3 119 24 27 
3 120 121 29 
3 120 29 28 
3 121 122 30 
3 121 30 29 
3 122 123 31 
3 122 31 30 
3 123 120 28 
3 123 28 31 
3 26 27 28 
3 26 28 29 
3 124 125 126 
3 124 126 127 
3 128 129 130 
3 128 130 131 
3 132 133 134 
3 132 134 135 
3 32 33 35 
3 32 35 34 
3 136 137 37 
3 136 37 36 
3 38 39 138 
3 38 138 139 
3 140 141 142 
3 140 142 143 
3 144 145 146 
3 144 146 147 
3 40 41 43 
3 40 43 42 
3 148 149 45 
3 148 45 44 
3 46 47 150 
3 46 150 151 
3 152 153 154 
3 152 154 155 
3 156 157 158 
3 156 158 159 
3 48 49 51 
3 48 51 50 
3 160 161 53 
3 160 53 52 
3 54 55 162 
3 54 162 163 
3 164 165 166 
3 164 166 167 
3 168 169 170 
3 168 170 171 
3 56 57 59 
3 56 59 58 
3 172 173 61 
3 172 61 60 
3 62 63 174 
3 62 174 175 
3 176 177 178 
3 176 178 179 
3 180 181 182 
3 180 182 183 
3 64 65 67 
3 64 67 66 
3 184 185 69 
3 184 69 68 
3 70 71 186 
3 70 186 187 
3 188 189 190 
3 188 190 191 
3 192 193 194 
3 192 194 195 
3 72 73 75 
3 72 75 74 
3 196 197 77 
3 196 77 76 
3 78 79 198 
3 78 198 199 
3 200 201 202 
3 200 202 203 
3 204 205 206 
3 204 206 207 
