ply
format ascii 1.0
comment VCGLIB generated
comment TextureFile SpaceInteriors_Texture.png
element vertex 4
property float x
property float y
property float z
property float nx
property float ny
property float nz
property uchar red
property uchar green
property uchar blue
property uchar alpha
property float texture_u
property float texture_v
element face 2
property list uchar int vertex_indices
end_header
-5 -0 0 0 0 2 192 192 192 255 0.921255 0.641378
-2e-006 -0 0 0 0 1 192 192 192 255 0.988669 0.641378
-5 5 0 0 0 1 192 192 192 255 0.921255 0.701531
-2e-006 5 0 0 0 2 192 192 192 255 0.988669 0.701531
3 3 2 0 
3 3 0 1 
