ply
format ascii 1.0
comment VCGLIB generated
comment TextureFile SpaceInteriors_Texture.png
element vertex 44
property float x
property float y
property float z
property float nx
property float ny
property float nz
property uchar red
property uchar green
property uchar blue
property uchar alpha
property float texture_u
property float texture_v
element face 26
property list uchar int vertex_indices
end_header
0.534904 0 0.534904 1 0 2 192 192 192 255 0.296381 0.082141
-0.534904 -0 0.534904 -2 0 1 192 192 192 255 0.296381 0.082141
-0.534904 -0 -0.534904 -1 0 -2 192 192 192 255 0.258632 0.08577
0.534904 0 -0.534904 2 0 -1 192 192 192 255 0.296381 0.082141
0.534904 -0.128602 0.534904 2 -3 1 192 192 192 255 0.296381 0.082141
-0.534904 -0.128602 0.534904 -1 -3 2 192 192 192 255 0.296381 0.082141
-0.534904 -0.128602 -0.534904 -2 -3 -1 192 192 192 255 0.258632 0.08577
0.534904 -0.128602 -0.534904 1 -3 -2 192 192 192 255 0.296381 0.082141
0.466699 -0.128602 0.466698 -0.147948 -5.96699 -0.295897 192 192 192 255 0.329048 0.085044
-0.466699 -0.128602 0.466698 0.295897 -5.96699 -0.147949 192 192 192 255 0.329048 0.085044
-0.466699 -0.128602 -0.466698 0.147948 -5.96699 0.295897 192 192 192 255 0.329048 0.085044
0.466699 -0.128602 -0.466698 -0.295897 -5.96699 0.147949 192 192 192 255 0.329048 0.085044
0.120189 -0.076766 0.120189 -0.295897 -4.96699 -0.147949 192 192 192 255 0.3305 0.082867
-0.120189 -0.076766 0.120189 0.147948 -3.96699 -0.295897 192 192 192 255 0.3305 0.082867
-0.120189 -0.076766 -0.120189 0.295897 -4.96699 0.147949 192 192 192 255 0.3305 0.082866
0.120189 -0.076766 -0.120189 -0.147948 -3.96699 0.295897 192 192 192 255 0.3305 0.082866
-0.534904 -0 0.534904 -2 0 1 192 192 192 255 0.258632 0.08577
-0.534904 -0.128602 0.534904 -1 -3 2 192 192 192 255 0.258632 0.08577
-0.534904 -0 -0.534904 -1 0 -2 192 192 192 255 0.296381 0.082141
-0.534904 -0.128602 -0.534904 -2 -3 -1 192 192 192 255 0.296381 0.082141
0.534904 0 -0.534904 2 0 -1 192 192 192 255 0.258632 0.08577
0.534904 0 0.534904 1 0 2 192 192 192 255 0.258632 0.08577
0.534904 -0.128602 0.534904 2 -3 1 192 192 192 255 0.258632 0.08577
0.534904 -0.128602 -0.534904 1 -3 -2 192 192 192 255 0.258632 0.08577
0.534904 -0.128602 0.534904 2 -3 1 192 192 192 255 0.329048 0.085044
-0.534904 -0.128602 0.534904 -1 -3 2 192 192 192 255 0.329048 0.085044
-0.534904 -0.128602 -0.534904 -2 -3 -1 192 192 192 255 0.329048 0.085044
0.534904 -0.128602 -0.534904 1 -3 -2 192 192 192 255 0.329048 0.085044
0.466699 -0.128602 0.466698 -0.147948 -5.96699 -0.295897 192 192 192 255 0.296381 0.082141
-0.466699 -0.128602 0.466698 0.295897 -5.96699 -0.147949 192 192 192 255 0.296381 0.082141
-0.120189 -0.076766 0.120189 0.147948 -3.96699 -0.295897 192 192 192 255 0.296381 0.082141
0.120189 -0.076766 0.120189 -0.295897 -4.96699 -0.147949 192 192 192 255 0.296381 0.082141
-0.466699 -0.128602 0.466698 0.295897 -5.96699 -0.147949 192 192 192 255 0.258632 0.08577
-0.466699 -0.128602 -0.466698 0.147948 -5.96699 0.295897 192 192 192 255 0.258632 0.08577
-0.120189 -0.076766 -0.120189 0.295897 -4.96699 0.147949 192 192 192 255 0.258632 0.08577
-0.120189 -0.076766 0.120189 0.147948 -3.96699 -0.295897 192 192 192 255 0.258632 0.08577
-0.466699 -0.128602 -0.466698 0.147948 -5.96699 0.295897 192 192 192 255 0.296381 0.082141
0.466699 -0.128602 -0.466698 -0.295897 -5.96699 0.147949 192 192 192 255 0.296381 0.082141
0.120189 -0.076766 -0.120189 -0.147948 -3.96699 0.295897 192 192 192 255 0.296381 0.082141
-0.120189 -0.076766 -0.120189 0.295897 -4.96699 0.147949 192 192 192 255 0.296381 0.082141
0.466699 -0.128602 -0.466698 -0.295897 -5.96699 0.147949 192 192 192 255 0.258632 0.08577
0.466699 -0.128602 0.466698 -0.147948 -5.96699 -0.295897 192 192 192 255 0.258632 0.08577
0.120189 -0.076766 0.120189 -0.295897 -4.96699 -0.147949 192 192 192 255 0.258632 0.08577
0.120189 -0.076766 -0.120189 -0.147948 -3.96699 0.295897 192 192 192 255 0.258632 0.08577
3 12 13 14 
3 12 14 15 
3 0 1 5 
3 0 5 4 
3 16 2 6 
3 16 6 17 
3 18 3 7 
3 18 7 19 
3 20 21 22 
3 20 22 23 
3 24 25 9 
3 24 9 8 
3 25 26 10 
3 25 10 9 
3 26 27 11 
3 26 11 10 
3 27 24 8 
3 27 8 11 
3 28 29 30 
3 28 30 31 
3 32 33 34 
3 32 34 35 
3 36 37 38 
3 36 38 39 
3 40 41 42 
3 40 42 43 
