ply
format ascii 1.0
comment VCGLIB generated
comment TextureFile SpaceInteriors_Texture.png
element vertex 68
property float x
property float y
property float z
property float nx
property float ny
property float nz
property uchar red
property uchar green
property uchar blue
property uchar alpha
property float texture_u
property float texture_v
element face 50
property list uchar int vertex_indices
end_header
0.35548 0 0.355486 1 0 2 192 192 192 255 0.235402 0.08577
-0.35548 -0 0.355486 -2 0 1 192 192 192 255 0.235402 0.08577
-0.35548 -0 -0.35548 -1 0 -2 192 192 192 255 0.265166 0.08577
0.35548 0 -0.35548 2 0 -1 192 192 192 255 0.235402 0.08577
0.35548 -0.093024 0.355486 2 -3 1 192 192 192 255 0.235402 0.08577
-0.35548 -0.093024 0.355486 -1 -3 2 192 192 192 255 0.235402 0.08577
-0.35548 -0.093024 -0.35548 -2 -3 -1 192 192 192 255 0.265166 0.08577
0.35548 -0.093024 -0.35548 1 -3 -2 192 192 192 255 0.235402 0.08577
0.272734 -0.093024 0.272734 0.942219 -4.00499 1.88444 192 192 192 255 0.293953 0.080092
-0.272734 -0.093024 0.272734 -1.88444 -4.00499 0.942219 192 192 192 255 0.293953 0.080092
-0.272734 -0.093024 -0.272734 -0.942219 -4.00504 -1.88442 192 192 192 255 0.293953 0.080092
0.272734 -0.093024 -0.272734 1.88444 -4.00502 -0.94221 192 192 192 255 0.293953 0.080092
0.205922 -0.280941 0.205922 1.88444 -4.00499 0.942219 192 192 192 255 0.269974 0.064019
-0.205922 -0.280941 0.205922 -0.942219 -4.00499 1.88444 192 192 192 255 0.269974 0.064019
-0.205922 -0.280941 -0.205916 -1.88444 -4.00502 -0.94221 192 192 192 255 0.299737 0.064019
0.205922 -0.280941 -0.205916 0.942219 -4.00504 -1.88442 192 192 192 255 0.269974 0.064019
0.168921 -0.280941 0.168924 -0.751281 -4.97999 -1.50252 192 192 192 255 0.259109 0.064121
-0.168924 -0.280941 0.168924 1.50252 -4.98001 -0.751262 192 192 192 255 0.259109 0.064121
-0.168924 -0.280941 -0.168921 0.751262 -4.98004 1.5025 192 192 192 255 0.259109 0.064121
0.168921 -0.280941 -0.168921 -1.50256 -4.97998 0.75125 192 192 192 255 0.259109 0.064121
0.064327 -0.161878 0.064324 -0.521033 -2.5538 1.21182 192 192 192 255 0.269974 0.064019
-0.064324 -0.161878 0.064324 -1.21182 -2.55379 -0.520985 192 192 192 255 0.269974 0.064019
-0.064324 -0.161878 -0.064317 0.520985 -2.55374 -1.21184 192 192 192 255 0.299737 0.064019
0.064327 -0.161878 -0.064317 1.21178 -2.55387 0.520954 192 192 192 255 0.269974 0.064019
0.042288 -0.27495 0.042291 1.96306 -2.57388 0.981539 192 192 192 255 0.892686 0.38601
-0.042291 -0.27495 0.042291 -0.981539 -1.57378 1.96308 192 192 192 255 0.892686 0.38601
-0.042291 -0.27495 -0.042288 -1.96308 -2.57375 -0.981546 192 192 192 255 0.892686 0.38601
0.042288 -0.27495 -0.042288 0.981529 -1.57377 -1.96309 192 192 192 255 0.892686 0.38601
-0.35548 -0 0.355486 -2 0 1 192 192 192 255 0.265166 0.08577
-0.35548 -0.093024 0.355486 -1 -3 2 192 192 192 255 0.265166 0.08577
-0.35548 -0 -0.35548 -1 0 -2 192 192 192 255 0.235402 0.08577
-0.35548 -0.093024 -0.35548 -2 -3 -1 192 192 192 255 0.235402 0.08577
0.35548 -0.093024 0.355486 2 -3 1 192 192 192 255 0.293953 0.080092
-0.35548 -0.093024 0.355486 -1 -3 2 192 192 192 255 0.293953 0.080092
-0.35548 -0.093024 -0.35548 -2 -3 -1 192 192 192 255 0.293953 0.080092
0.35548 -0.093024 -0.35548 1 -3 -2 192 192 192 255 0.293953 0.080092
0.272734 -0.093024 0.272734 0.942219 -4.00499 1.88444 192 192 192 255 0.269974 0.064019
-0.272734 -0.093024 0.272734 -1.88444 -4.00499 0.942219 192 192 192 255 0.269974 0.064019
-0.272734 -0.093024 0.272734 -1.88444 -4.00499 0.942219 192 192 192 255 0.299737 0.064019
-0.272734 -0.093024 -0.272734 -0.942219 -4.00504 -1.88442 192 192 192 255 0.299737 0.064019
-0.205922 -0.280941 0.205922 -0.942219 -4.00499 1.88444 192 192 192 255 0.299737 0.064019
-0.272734 -0.093024 -0.272734 -0.942219 -4.00504 -1.88442 192 192 192 255 0.269974 0.064019
0.272734 -0.093024 -0.272734 1.88444 -4.00502 -0.94221 192 192 192 255 0.269974 0.064019
-0.205922 -0.280941 -0.205916 -1.88444 -4.00502 -0.94221 192 192 192 255 0.269974 0.064019
0.272734 -0.093024 -0.272734 1.88444 -4.00502 -0.94221 192 192 192 255 0.299737 0.064019
0.272734 -0.093024 0.272734 0.942219 -4.00499 1.88444 192 192 192 255 0.299737 0.064019
0.205922 -0.280941 0.205922 1.88444 -4.00499 0.942219 192 192 192 255 0.299737 0.064019
0.205922 -0.280941 -0.205916 0.942219 -4.00504 -1.88442 192 192 192 255 0.299737 0.064019
0.205922 -0.280941 0.205922 1.88444 -4.00499 0.942219 192 192 192 255 0.259109 0.064121
-0.205922 -0.280941 0.205922 -0.942219 -4.00499 1.88444 192 192 192 255 0.259109 0.064121
-0.205922 -0.280941 -0.205916 -1.88444 -4.00502 -0.94221 192 192 192 255 0.259109 0.064121
0.205922 -0.280941 -0.205916 0.942219 -4.00504 -1.88442 192 192 192 255 0.259109 0.064121
0.168921 -0.280941 0.168924 -0.751281 -4.97999 -1.50252 192 192 192 255 0.269974 0.064019
-0.168924 -0.280941 0.168924 1.50252 -4.98001 -0.751262 192 192 192 255 0.269974 0.064019
-0.168924 -0.280941 0.168924 1.50252 -4.98001 -0.751262 192 192 192 255 0.299737 0.064019
-0.168924 -0.280941 -0.168921 0.751262 -4.98004 1.5025 192 192 192 255 0.299737 0.064019
-0.064324 -0.161878 0.064324 -1.21182 -2.55379 -0.520985 192 192 192 255 0.299737 0.064019
-0.168924 -0.280941 -0.168921 0.751262 -4.98004 1.5025 192 192 192 255 0.269974 0.064019
0.168921 -0.280941 -0.168921 -1.50256 -4.97998 0.75125 192 192 192 255 0.269974 0.064019
-0.064324 -0.161878 -0.064317 0.520985 -2.55374 -1.21184 192 192 192 255 0.269974 0.064019
0.168921 -0.280941 -0.168921 -1.50256 -4.97998 0.75125 192 192 192 255 0.299737 0.064019
0.168921 -0.280941 0.168924 -0.751281 -4.97999 -1.50252 192 192 192 255 0.299737 0.064019
0.064327 -0.161878 0.064324 -0.521033 -2.5538 1.21182 192 192 192 255 0.299737 0.064019
0.064327 -0.161878 -0.064317 1.21178 -2.55387 0.520954 192 192 192 255 0.299737 0.064019
0.064327 -0.161878 0.064324 -0.521033 -2.5538 1.21182 192 192 192 255 0.892686 0.38601
-0.064324 -0.161878 0.064324 -1.21182 -2.55379 -0.520985 192 192 192 255 0.892686 0.38601
-0.064324 -0.161878 -0.064317 0.520985 -2.55374 -1.21184 192 192 192 255 0.892686 0.38601
0.064327 -0.161878 -0.064317 1.21178 -2.55387 0.520954 192 192 192 255 0.892686 0.38601
3 24 25 26 
3 24 26 27 
3 0 1 5 
3 0 5 4 
3 28 2 6 
3 28 6 29 
3 30 3 7 
3 30 7 31 
3 3 0 4 
3 3 4 7 
3 32 33 9 
3 32 9 8 
3 33 34 10 
3 33 10 9 
3 34 35 11 
3 34 11 10 
3 35 32 8 
3 35 8 11 
3 36 37 13 
3 36 13 12 
3 38 39 14 
3 38 14 40 
3 41 42 15 
3 41 15 43 
3 44 45 46 
3 44 46 47 
3 48 49 17 
3 48 17 16 
3 49 50 18 
3 49 18 17 
3 50 51 19 
3 50 19 18 
3 51 48 16 
3 51 16 19 
3 52 53 21 
3 52 21 20 
3 54 55 22 
3 54 22 56 
3 57 58 23 
3 57 23 59 
3 60 61 62 
3 60 62 63 
3 64 65 25 
3 64 25 24 
3 65 66 26 
3 65 26 25 
3 66 67 27 
3 66 27 26 
3 67 64 24 
3 67 24 27 
