ply
format ascii 1.0
comment VCGLIB generated
comment TextureFile SpaceInteriors_Texture.png
element vertex 69
property float x
property float y
property float z
property float nx
property float ny
property float nz
property uchar red
property uchar green
property uchar blue
property uchar alpha
property float texture_u
property float texture_v
element face 64
property list uchar int vertex_indices
end_header
-5 0 -5 0 -3 0 192 192 192 255 0.327371 0.062481
0 0 -5 0 -3 0 192 192 192 255 0.327371 0.062481
-5 0 0 0 -3 0 192 192 192 255 0.327371 0.062481
0 0 0 0 -3 0 192 192 192 255 0.327371 0.062481
-2.5 0 0 0 -6 0 192 192 192 255 0.327371 0.062481
-2.5 0 -5 0 -6 0 192 192 192 255 0.327371 0.062481
-5 0 -2.5 0 -6 0 192 192 192 255 0.327371 0.062481
-2.5 0 -2.5 0 -12 0 192 192 192 255 0.327371 0.062481
0 0 -2.5 0 -6 0 192 192 192 255 0.327371 0.062481
-2.41667 0 -2.41667 0 -5 0 192 192 192 255 0.364026 0.063229
-0.083332 0 -2.41667 0 -4 0 192 192 192 255 0.364026 0.063229
-0.083332 0 -0.083333 0 -5 0 192 192 192 255 0.364026 0.063229
-2.41667 0 -0.083333 0 -4 0 192 192 192 255 0.364026 0.063229
-4.91667 0 -2.41667 0 -5 0 192 192 192 255 0.364026 0.063229
-2.58333 0 -2.41667 0 -4 0 192 192 192 255 0.364026 0.063229
-2.58333 0 -0.083333 0 -5 0 192 192 192 255 0.364026 0.063229
-4.91667 0 -0.083333 0 -4 0 192 192 192 255 0.364026 0.063229
-4.91667 0 -4.91667 0 -6 0 192 192 192 255 0.327371 0.062481
-2.58333 0 -4.91667 0 -6 0 192 192 192 255 0.327371 0.062481
-2.58333 0 -2.58333 0 -6 0 192 192 192 255 0.327371 0.062481
-4.91667 0 -2.58333 0 -6 0 192 192 192 255 0.327371 0.062481
-2.41667 0 -4.91667 0 -5 0 192 192 192 255 0.364026 0.063229
-0.083332 0 -4.91667 0 -4 0 192 192 192 255 0.364026 0.063229
-0.083332 0 -2.58333 0 -5 0 192 192 192 255 0.364026 0.063229
-2.41667 0 -2.58333 0 -4 0 192 192 192 255 0.364026 0.063229
-4.53562 0 -4.53562 1 -3 2 192 192 192 255 0.364026 0.063229
-2.96438 0 -4.53562 -2 -3 1 192 192 192 255 0.364026 0.063229
-2.96438 0 -2.96438 -1 -3 -2 192 192 192 255 0.364026 0.063229
-4.53562 0 -2.96438 2 -3 -1 192 192 192 255 0.364026 0.063229
-4.53562 0.099886 -4.53562 2.7994 -1.80238 2.59881 192 192 192 255 0.141852 0.063229
-2.96438 0.099886 -4.53562 -2.59881 -1.80238 2.79941 192 192 192 255 0.141852 0.063229
-2.96438 0.099886 -2.96438 -2.79941 -1.80238 -2.59881 192 192 192 255 0.112814 0.061777
-4.53562 0.099886 -2.96438 2.59881 -1.80238 -2.79941 192 192 192 255 0.141852 0.063229
-4.18859 0.561638 -4.18859 1.59881 -3.80238 0.799405 192 192 192 255 0.141852 0.063229
-3.3114 0.561638 -4.18859 -0.799405 -2.80238 1.59881 192 192 192 255 0.141852 0.063229
-3.3114 0.561638 -3.31141 -1.59881 -3.80238 -0.799405 192 192 192 255 0.141852 0.063229
-4.18859 0.561638 -3.31141 0.799404 -2.80238 -1.59881 192 192 192 255 0.141852 0.063229
-0.083332 0 -2.41667 0 -4 0 192 192 192 255 0.327371 0.062481
-2.41667 0 -2.41667 0 -5 0 192 192 192 255 0.327371 0.062481
-0.083332 0 -0.083333 0 -5 0 192 192 192 255 0.327371 0.062481
-2.41667 0 -0.083333 0 -4 0 192 192 192 255 0.327371 0.062481
-2.58333 0 -2.41667 0 -4 0 192 192 192 255 0.327371 0.062481
-4.91667 0 -2.41667 0 -5 0 192 192 192 255 0.327371 0.062481
-2.58333 0 -0.083333 0 -5 0 192 192 192 255 0.327371 0.062481
-4.91667 0 -0.083333 0 -4 0 192 192 192 255 0.327371 0.062481
-0.083332 0 -4.91667 0 -4 0 192 192 192 255 0.327371 0.062481
-2.41667 0 -4.91667 0 -5 0 192 192 192 255 0.327371 0.062481
-0.083332 0 -2.58333 0 -5 0 192 192 192 255 0.327371 0.062481
-2.41667 0 -2.58333 0 -4 0 192 192 192 255 0.327371 0.062481
-4.91667 0 -4.91667 0 -6 0 192 192 192 255 0.364026 0.063229
-2.58333 0 -4.91667 0 -6 0 192 192 192 255 0.364026 0.063229
-2.58333 0 -2.58333 0 -6 0 192 192 192 255 0.364026 0.063229
-4.91667 0 -2.58333 0 -6 0 192 192 192 255 0.364026 0.063229
-4.53562 0 -4.53562 1 -3 2 192 192 192 255 0.141852 0.063229
-2.96438 0 -4.53562 -2 -3 1 192 192 192 255 0.141852 0.063229
-2.96438 0 -4.53562 -2 -3 1 192 192 192 255 0.112814 0.061777
-2.96438 0 -2.96438 -1 -3 -2 192 192 192 255 0.112814 0.061777
-2.96438 0.099886 -4.53562 -2.59881 -1.80238 2.79941 192 192 192 255 0.112814 0.061777
-2.96438 0 -2.96438 -1 -3 -2 192 192 192 255 0.141852 0.063229
-4.53562 0 -2.96438 2 -3 -1 192 192 192 255 0.141852 0.063229
-2.96438 0.099886 -2.96438 -2.79941 -1.80238 -2.59881 192 192 192 255 0.141852 0.063229
-4.53562 0 -2.96438 2 -3 -1 192 192 192 255 0.112814 0.061777
-4.53562 0 -4.53562 1 -3 2 192 192 192 255 0.112814 0.061777
-4.53562 0.099886 -4.53562 2.7994 -1.80238 2.59881 192 192 192 255 0.112814 0.061777
-4.53562 0.099886 -2.96438 2.59881 -1.80238 -2.79941 192 192 192 255 0.112814 0.061777
-3.3114 0.561638 -3.31141 -1.59881 -3.80238 -0.799405 192 192 192 255 0.112814 0.061777
-3.3114 0.561638 -4.18859 -0.799405 -2.80238 1.59881 192 192 192 255 0.112814 0.061777
-4.18859 0.561638 -4.18859 1.59881 -3.80238 0.799405 192 192 192 255 0.112814 0.061777
-4.18859 0.561638 -3.31141 0.799404 -2.80238 -1.59881 192 192 192 255 0.112814 0.061777
3 9 10 11 
3 9 11 12 
3 13 14 15 
3 13 15 16 
3 33 34 35 
3 33 35 36 
3 21 22 23 
3 21 23 24 
3 7 8 37 
3 7 37 38 
3 8 3 39 
3 8 39 37 
3 3 4 40 
3 3 40 39 
3 4 7 38 
3 4 38 40 
3 6 7 41 
3 6 41 42 
3 7 4 43 
3 7 43 41 
3 4 2 44 
3 4 44 43 
3 2 6 42 
3 2 42 44 
3 0 5 18 
3 0 18 17 
3 5 7 19 
3 5 19 18 
3 7 6 20 
3 7 20 19 
3 6 0 17 
3 6 17 20 
3 5 1 45 
3 5 45 46 
3 1 8 47 
3 1 47 45 
3 8 7 48 
3 8 48 47 
3 7 5 46 
3 7 46 48 
3 49 50 26 
3 49 26 25 
3 50 51 27 
3 50 27 26 
3 51 52 28 
3 51 28 27 
3 52 49 25 
3 52 25 28 
3 53 54 30 
3 53 30 29 
3 55 56 31 
3 55 31 57 
3 58 59 32 
3 58 32 60 
3 61 62 63 
3 61 63 64 
3 29 30 34 
3 29 34 33 
3 57 31 65 
3 57 65 66 
3 60 32 36 
3 60 36 35 
3 64 63 67 
3 64 67 68 
