ply
format ascii 1.0
comment VCGLIB generated
comment TextureFile SpaceInteriors_Texture.png
element vertex 446
property float x
property float y
property float z
property float nx
property float ny
property float nz
property uchar red
property uchar green
property uchar blue
property uchar alpha
property float texture_u
property float texture_v
element face 304
property list uchar int vertex_indices
end_header
-4.55986 0.228478 -4.71269 0.706655 -0.707558 2 192 192 192 255 0.234053 0.061667
-0.228477 4.55986 -4.71269 0.707102 -0.707112 2 192 192 192 255 0.169034 0.061667
-4.77152 0.440141 -4.71269 -1.41437 1.41406 1 192 192 192 255 0.234053 0.061667
-0.44014 4.77152 -4.71269 -1.41422 1.41421 1 192 192 192 255 0.234053 0.061667
-4.77152 0.440141 -4.95302 -0.707185 0.707029 -2 192 192 192 255 0.234053 0.061667
-0.44014 4.77152 -4.95302 -0.707103 0.707111 -2 192 192 192 255 0.268919 0.061667
-4.55986 0.228478 -4.95302 1.41331 -1.41512 -1 192 192 192 255 0.169034 0.061667
-0.228477 4.55986 -4.95302 1.41421 -1.41421 -1 192 192 192 255 0.169034 0.061667
-4.77152 4.55986 -4.71269 -0.707107 -0.707107 2 192 192 192 255 0.234053 0.061667
-0.44014 0.228478 -4.71269 -0.707111 -0.707102 2 192 192 192 255 0.169034 0.061667
-4.55986 4.77152 -4.71269 1.41359 1.41483 1 192 192 192 255 0.234053 0.061667
-0.228477 0.440141 -4.71269 1.41483 1.4136 1 192 192 192 255 0.234053 0.061667
-4.55986 4.77152 -4.95302 0.706797 0.707416 -2 192 192 192 255 0.234053 0.061667
-0.228477 0.440141 -4.95302 0.70742 0.706794 -2 192 192 192 255 0.268919 0.061667
-4.77152 4.55986 -4.95302 -1.41421 -1.41421 -1 192 192 192 255 0.169034 0.061667
-0.44014 0.228478 -4.95302 -1.41421 -1.41422 -1 192 192 192 255 0.169034 0.061667
-2.91785 2.29422 -4.71269 -2.70716 0.70703 4 192 192 192 255 0.234053 0.061667
-2.7048 2.08117 -4.71269 1.41334 -2.41512 3 192 192 192 255 0.169034 0.061667
-2.7048 2.08117 -4.95302 0.706644 -2.70756 -4 192 192 192 255 0.234053 0.061667
-2.91785 2.29422 -4.95302 -2.41438 1.41406 -3 192 192 192 255 0.234053 0.061667
-2.08154 2.7068 -4.95303 1.70711 -0.707103 -3 192 192 192 255 0.202886 0.058059
-2.08154 2.7068 -4.7127 3.41428 -1.41422 7 192 192 192 255 0.202886 0.058059
-2.2932 2.91846 -4.7127 -0.707099 1.7071 3 192 192 192 255 0.268918 0.061667
-2.2932 2.91846 -4.95303 -1.41424 3.41421 -7 192 192 192 255 0.234053 0.061667
-2.29283 2.08117 -4.95303 -0.707112 -1.70711 -4 192 192 192 255 0.234053 0.061667
-2.29283 2.08117 -4.7127 -1.41419 -3.41421 3 192 192 192 255 0.169034 0.061667
-2.08154 2.29483 -4.7127 1.70742 0.706802 3 192 192 192 255 0.202886 0.058059
-2.08154 2.29483 -4.95303 3.41483 1.41359 -3 192 192 192 255 0.202886 0.058059
-2.70517 2.91846 -4.71269 0.706822 2.70742 4 192 192 192 255 0.268919 0.061667
-2.91785 2.70619 -4.71269 -2.41419 -1.41421 3 192 192 192 255 0.234053 0.061667
-2.91785 2.70619 -4.95302 -2.70712 -0.707106 -4 192 192 192 255 0.234053 0.061667
-2.70517 2.91846 -4.95302 1.41359 2.41483 -2 192 192 192 255 0.234053 0.061667
-5 0 0 -3 -3 3 192 192 192 255 0.265187 0.061667
0 0 0 3 -3 3 192 192 192 255 0.265187 0.061667
-5 5 0 -3 3 3 192 192 192 255 0.265187 0.061667
0 5 0 3 3 3 192 192 192 255 0.265187 0.061667
-5 5 -5 -3 3 -3 192 192 192 255 0.265187 0.061667
0 5 -5 3 3 -3 192 192 192 255 0.265187 0.061667
-5 0 -5 -3 -3 -3 192 192 192 255 0.265187 0.061667
0 0 -5 3 -3 -3 192 192 192 255 0.265187 0.061667
-4.66569 0.334309 0 1 2 3.00003 192 192 192 255 0.265187 0.061667
-0.334309 0.334309 0 -2 1 3.00003 192 192 192 255 0.265187 0.061667
-0.334309 4.66569 0 -1 -2 3.00003 192 192 192 255 0.265187 0.061667
-4.66569 4.66569 0 2 -1 3.00003 192 192 192 255 0.265187 0.061667
-4.66569 4.66569 -5 1 -2 -3.00003 192 192 192 255 0.265187 0.061667
-0.334309 4.66569 -5 -2 -1 -3.00003 192 192 192 255 0.265187 0.061667
-0.334309 0.334309 -5 -1 2 -3.00003 192 192 192 255 0.265187 0.061667
-4.66569 0.334309 -5 2 1 -3.00003 192 192 192 255 0.265187 0.061667
0 0.334309 -4.6657 3.00005 1 2 192 192 192 255 0.233148 0.061667
0 0.334309 -0.334312 3.00005 2 -1 192 192 192 255 0.233148 0.061667
0 4.66569 -4.6657 3.00004 -2 1 192 192 192 255 0.233148 0.061667
0 4.66569 -0.334312 3.00006 -1 -2 192 192 192 255 0.233148 0.061667
-5 0.334309 -4.6657 -3.00005 2 1 192 192 192 255 0.233148 0.061667
-5 0.334309 -0.334312 -3.00006 1 -2 192 192 192 255 0.233148 0.061667
-5 4.66569 -0.334312 -3.00004 -2 -1 192 192 192 255 0.233148 0.061667
-5 4.66569 -4.6657 -3.00005 -1 2 192 192 192 255 0.233148 0.061667
-4.66569 5 -0.334312 1 3.00006 -2 192 192 192 255 0.300052 0.061667
-0.334309 5 -0.334312 -2 3.00004 -1 192 192 192 255 0.300052 0.061667
-0.334309 5 -4.6657 -1 3.00005 2 192 192 192 255 0.300052 0.061667
-4.66569 5 -4.6657 2 3.00004 1 192 192 192 255 0.300052 0.061667
-4.66569 0 -4.6657 1 -3.00005 2 192 192 192 255 0.200168 0.061667
-0.334309 0 -4.6657 -2 -3.00004 1 192 192 192 255 0.200168 0.061667
-0.334309 0 -0.334312 -1 -3.00006 -2 192 192 192 255 0.200168 0.061667
-4.66569 0 -0.334312 2 -3.00004 -1 192 192 192 255 0.200168 0.061667
-4.66569 0.334313 -0.33432 2.99995 2.99994 -2.99997 192 192 192 255 0.30031 0.058538
-0.334312 0.334313 -0.33432 -2.99994 2.99996 -2.99997 192 192 192 255 0.30031 0.058538
-0.334312 4.66569 -0.33432 -2.99996 -2.99994 -2.99997 192 192 192 255 0.265187 0.061667
-4.66569 4.66569 -0.33432 2.99994 -2.99996 -2.99997 192 192 192 255 0.265187 0.061667
-0.334312 4.66569 -4.66569 -2.99995 -2.99996 2.99997 192 192 192 255 0.235531 0.061667
-4.66569 4.66569 -4.66569 2.99996 -2.99995 2.99997 192 192 192 255 0.204969 0.061667
-0.334312 0.334313 -4.66569 -2.99995 2.99995 2.99997 192 192 192 255 0.265187 0.061667
-4.66569 0.334313 -4.66569 2.99995 2.99996 2.99997 192 192 192 255 0.30031 0.058538
-4.55986 0.228478 -0.046997 0.706655 -0.707558 2 192 192 192 255 0.234053 0.061667
-0.228477 4.55986 -0.046997 0.707102 -0.707112 2 192 192 192 255 0.169034 0.061667
-4.77152 0.440141 -0.046997 -1.41437 1.41406 1 192 192 192 255 0.234053 0.061667
-0.44014 4.77152 -0.046997 -1.41422 1.41421 1 192 192 192 255 0.234053 0.061667
-4.77152 0.440141 -0.287323 -0.707185 0.707029 -2 192 192 192 255 0.234053 0.061667
-0.44014 4.77152 -0.287323 -0.707103 0.707111 -2 192 192 192 255 0.268919 0.061667
-4.55986 0.228478 -0.287323 1.41331 -1.41512 -1 192 192 192 255 0.169034 0.061667
-0.228477 4.55986 -0.287323 1.41421 -1.41421 -1 192 192 192 255 0.169034 0.061667
-4.77152 4.55986 -0.046997 -0.707107 -0.707107 2 192 192 192 255 0.234053 0.061667
-0.44014 0.228478 -0.046997 -0.707111 -0.707102 2 192 192 192 255 0.169034 0.061667
-4.55986 4.77152 -0.046997 1.41359 1.41483 1 192 192 192 255 0.234053 0.061667
-0.228477 0.440141 -0.046997 1.41483 1.4136 1 192 192 192 255 0.234053 0.061667
-4.55986 4.77152 -0.287323 0.706797 0.707416 -2 192 192 192 255 0.234053 0.061667
-0.228477 0.440141 -0.287323 0.70742 0.706794 -2 192 192 192 255 0.268919 0.061667
-4.77152 4.55986 -0.287323 -1.41421 -1.41421 -1 192 192 192 255 0.169034 0.061667
-0.44014 0.228478 -0.287323 -1.41421 -1.41422 -1 192 192 192 255 0.169034 0.061667
-2.91785 2.29422 -0.046997 -2.70716 0.70703 4 192 192 192 255 0.234053 0.061667
-2.7048 2.08117 -0.046997 1.41333 -2.41512 3 192 192 192 255 0.169034 0.061667
-2.7048 2.08117 -0.287323 0.706643 -2.70756 -4 192 192 192 255 0.234053 0.061667
-2.91785 2.29422 -0.287323 -2.41438 1.41406 -3 192 192 192 255 0.234053 0.061667
-2.08154 2.7068 -0.287331 1.70711 -0.707103 -3 192 192 192 255 0.202886 0.058059
-2.08154 2.7068 -0.047005 3.41428 -1.41422 7 192 192 192 255 0.202886 0.058059
-2.2932 2.91846 -0.047005 -0.707099 1.7071 3 192 192 192 255 0.268918 0.061667
-2.2932 2.91846 -0.287331 -1.41425 3.41421 -7 192 192 192 255 0.234053 0.061667
-2.29283 2.08117 -0.287331 -0.707113 -1.70711 -4 192 192 192 255 0.234053 0.061667
-2.29283 2.08117 -0.047005 -1.41419 -3.41421 3 192 192 192 255 0.169034 0.061667
-2.08154 2.29483 -0.047005 1.70742 0.706802 3 192 192 192 255 0.202886 0.058059
-2.08154 2.29483 -0.287331 3.41483 1.41359 -3 192 192 192 255 0.202886 0.058059
-2.70517 2.91846 -0.046997 0.706822 2.70742 4 192 192 192 255 0.268919 0.061667
-2.91785 2.70619 -0.046997 -2.41419 -1.41421 3 192 192 192 255 0.234053 0.061667
-2.91785 2.70619 -0.287323 -2.70712 -0.707106 -4 192 192 192 255 0.234053 0.061667
-2.70517 2.91846 -0.287323 1.41359 2.41483 -2 192 192 192 255 0.234053 0.061667
-4.55986 4.71269 -4.77151 0.706656 -2 -0.707558 192 192 192 255 0.198729 0.060554
-0.228477 4.71269 -0.440132 0.707102 -2 -0.707111 192 192 192 255 0.232119 0.060542
-4.77152 4.71269 -4.55985 -1.41437 -1 1.41406 192 192 192 255 0.198729 0.060554
-0.44014 4.71269 -0.22847 -1.41422 -1 1.41421 192 192 192 255 0.198729 0.060554
-4.77152 4.95302 -4.55985 -0.707185 2 0.707028 192 192 192 255 0.29715 0.060554
-0.44014 4.95302 -0.22847 -0.707103 2 0.70711 192 192 192 255 0.232119 0.060542
-4.55986 4.95302 -4.77151 1.41331 1 -1.41512 192 192 192 255 0.232119 0.060542
-0.228477 4.95302 -0.440132 1.41422 1 -1.41421 192 192 192 255 0.232119 0.060542
-4.77152 4.71269 -0.440132 -0.707107 -2 -0.707107 192 192 192 255 0.198729 0.060554
-0.44014 4.71269 -4.77151 -0.707111 -2 -0.707102 192 192 192 255 0.232119 0.060542
-4.55986 4.71269 -0.22847 1.41359 -1 1.41483 192 192 192 255 0.198729 0.060554
-0.228477 4.71269 -4.55985 1.41483 -1 1.4136 192 192 192 255 0.198729 0.060554
-4.55986 4.95302 -0.22847 0.706797 2 0.707416 192 192 192 255 0.29715 0.060554
-0.228477 4.95302 -4.55985 0.707419 2 0.706794 192 192 192 255 0.232119 0.060542
-4.77152 4.95302 -0.440132 -1.41421 1 -1.41421 192 192 192 255 0.232119 0.060542
-0.44014 4.95302 -4.77151 -1.41421 1 -1.41422 192 192 192 255 0.232119 0.060542
-2.91785 4.71269 -2.70577 -2.70717 -3 0.707027 192 192 192 255 0.266739 0.060542
-2.7048 4.71269 -2.91882 1.41339 -7 -2.41513 192 192 192 255 0.266739 0.060542
-2.7048 4.95302 -2.91882 0.706644 4 -2.70756 192 192 192 255 0.29715 0.060554
-2.91785 4.95302 -2.70577 -2.41438 3 1.41406 192 192 192 255 0.29715 0.060554
-2.08154 4.95303 -2.2932 1.70711 3 -0.707103 192 192 192 255 0.266739 0.060542
-2.08154 4.7127 -2.2932 3.41424 -3 -1.41422 192 192 192 255 0.266739 0.060542
-2.2932 4.7127 -2.08154 -0.707085 -4 1.7071 192 192 192 255 0.266739 0.060542
-2.2932 4.95303 -2.08154 -1.41424 7 3.41421 192 192 192 255 0.29715 0.060554
-2.29283 4.95303 -2.91882 -0.707113 4 -1.70711 192 192 192 255 0.29715 0.060554
-2.29283 4.7127 -2.91882 -1.4142 -2 -3.41422 192 192 192 255 0.266739 0.060542
-2.08154 4.7127 -2.70517 1.70744 -4 0.706795 192 192 192 255 0.266739 0.060542
-2.08154 4.95303 -2.70517 3.41483 3 1.41359 192 192 192 255 0.266739 0.060542
-2.70517 4.71269 -2.08154 0.706821 -4 2.70741 192 192 192 255 0.266739 0.060542
-2.91785 4.71269 -2.2938 -2.41419 -3 -1.41422 192 192 192 255 0.266739 0.060542
-2.91785 4.95302 -2.2938 -2.70712 4 -0.707106 192 192 192 255 0.29715 0.060554
-2.70517 4.95302 -2.08154 1.41359 2 2.41483 192 192 192 255 0.29715 0.060554
-4.55986 0.046997 -4.77151 0.706656 -2 -0.707558 192 192 192 255 0.198729 0.060554
-0.228477 0.046997 -0.440132 0.707103 -2 -0.707111 192 192 192 255 0.232119 0.060542
-4.77152 0.046997 -4.55985 -1.41437 -1 1.41406 192 192 192 255 0.198729 0.060554
-0.44014 0.046997 -0.22847 -1.41422 -1 1.41421 192 192 192 255 0.198729 0.060554
-4.77152 0.287323 -4.55985 -0.707185 2 0.707028 192 192 192 255 0.29715 0.060554
-0.44014 0.287323 -0.22847 -0.707103 2 0.70711 192 192 192 255 0.232119 0.060542
-4.55986 0.287323 -4.77151 1.41331 1 -1.41512 192 192 192 255 0.232119 0.060542
-0.228477 0.287323 -0.440132 1.41422 1 -1.41421 192 192 192 255 0.232119 0.060542
-4.77152 0.046997 -0.440132 -0.707107 -2 -0.707107 192 192 192 255 0.198729 0.060554
-0.44014 0.046997 -4.77151 -0.707111 -2 -0.707102 192 192 192 255 0.232119 0.060542
-4.55986 0.046997 -0.22847 1.41359 -1 1.41483 192 192 192 255 0.198729 0.060554
-0.228477 0.046997 -4.55985 1.41483 -1 1.4136 192 192 192 255 0.198729 0.060554
-4.55986 0.287323 -0.22847 0.706797 2 0.707416 192 192 192 255 0.29715 0.060554
-0.228477 0.287323 -4.55985 0.707419 2 0.706794 192 192 192 255 0.232119 0.060542
-4.77152 0.287323 -0.440132 -1.41421 1 -1.41421 192 192 192 255 0.232119 0.060542
-0.44014 0.287323 -4.77151 -1.41421 1 -1.41422 192 192 192 255 0.232119 0.060542
-2.91785 0.046997 -2.70577 -2.70717 -3 0.707027 192 192 192 255 0.266739 0.060542
-2.7048 0.046997 -2.91882 1.41339 -7 -2.41513 192 192 192 255 0.266739 0.060542
-2.7048 0.287323 -2.91882 0.706643 4 -2.70756 192 192 192 255 0.29715 0.060554
-2.91785 0.287323 -2.70577 -2.41439 3 1.41406 192 192 192 255 0.29715 0.060554
-2.08154 0.287331 -2.2932 1.70711 3 -0.707103 192 192 192 255 0.266739 0.060542
-2.08154 0.047005 -2.2932 3.41424 -3 -1.41422 192 192 192 255 0.266739 0.060542
-2.2932 0.047005 -2.08154 -0.707085 -4 1.7071 192 192 192 255 0.266739 0.060542
-2.2932 0.287331 -2.08154 -1.41425 7 3.41421 192 192 192 255 0.29715 0.060554
-2.29283 0.287331 -2.91882 -0.707113 4 -1.70711 192 192 192 255 0.29715 0.060554
-2.29283 0.047005 -2.91882 -1.4142 -2 -3.41422 192 192 192 255 0.266739 0.060542
-2.08154 0.047005 -2.70517 1.70744 -4 0.706795 192 192 192 255 0.266739 0.060542
-2.08154 0.287331 -2.70517 3.41483 3 1.41359 192 192 192 255 0.266739 0.060542
-2.70517 0.046997 -2.08154 0.706821 -4 2.70741 192 192 192 255 0.266739 0.060542
-2.91785 0.046997 -2.2938 -2.41419 -3 -1.41422 192 192 192 255 0.266739 0.060542
-2.91785 0.287323 -2.2938 -2.70712 4 -0.707106 192 192 192 255 0.29715 0.060554
-2.70517 0.287323 -2.08154 1.41359 2 2.41483 192 192 192 255 0.29715 0.060554
-2.08154 2.7068 -4.95303 1.70711 -0.707103 -3 192 192 192 255 0.234053 0.061667
-2.08154 2.29483 -4.95303 3.41483 1.41359 -3 192 192 192 255 0.234053 0.061667
-2.7048 2.08117 -4.95302 0.706644 -2.70756 -4 192 192 192 255 0.169034 0.061667
-2.29283 2.08117 -4.95303 -0.707112 -1.70711 -4 192 192 192 255 0.169034 0.061667
-2.2932 2.91846 -4.95303 -1.41424 3.41421 -7 192 192 192 255 0.268919 0.061667
-2.70517 2.91846 -4.95302 1.41359 2.41483 -2 192 192 192 255 0.268919 0.061667
-2.08154 2.7068 -4.7127 3.41428 -1.41422 7 192 192 192 255 0.234053 0.061667
-2.2932 2.91846 -4.7127 -0.707099 1.7071 3 192 192 192 255 0.234053 0.061667
-2.70517 2.91846 -4.71269 0.706822 2.70742 4 192 192 192 255 0.234053 0.061667
-2.7048 2.08117 -4.71269 1.41334 -2.41512 3 192 192 192 255 0.234053 0.061667
-2.29283 2.08117 -4.7127 -1.41419 -3.41421 3 192 192 192 255 0.234053 0.061667
-2.08154 2.29483 -4.7127 1.70742 0.706802 3 192 192 192 255 0.234053 0.061667
-2.91785 2.29422 -4.71269 -2.70716 0.70703 4 192 192 192 255 0.202886 0.058059
-2.91785 2.70619 -4.71269 -2.41419 -1.41421 3 192 192 192 255 0.202886 0.058059
-2.91785 2.70619 -4.95302 -2.70712 -0.707106 -4 192 192 192 255 0.202886 0.058059
-2.91785 2.29422 -4.95302 -2.41438 1.41406 -3 192 192 192 255 0.202886 0.058059
-4.55986 0.228478 -4.71269 0.706655 -0.707558 2 192 192 192 255 0.169034 0.061667
-4.55986 0.228478 -4.95302 1.41331 -1.41512 -1 192 192 192 255 0.234053 0.061667
-4.77152 0.440141 -4.71269 -1.41437 1.41406 1 192 192 192 255 0.268919 0.061667
-2.91785 2.29422 -4.71269 -2.70716 0.70703 4 192 192 192 255 0.268919 0.061667
-2.91785 2.29422 -4.95302 -2.41438 1.41406 -3 192 192 192 255 0.268919 0.061667
-4.77152 0.440141 -4.95302 -0.707185 0.707029 -2 192 192 192 255 0.268919 0.061667
-0.44014 0.228478 -4.71269 -0.707111 -0.707102 2 192 192 192 255 0.234053 0.061667
-2.08154 2.29483 -4.95303 3.41483 1.41359 -3 192 192 192 255 0.268919 0.061667
-2.08154 2.29483 -4.7127 1.70742 0.706802 3 192 192 192 255 0.268919 0.061667
-0.228477 0.440141 -4.71269 1.41483 1.4136 1 192 192 192 255 0.268919 0.061667
-0.228477 0.440141 -4.95302 0.70742 0.706794 -2 192 192 192 255 0.234053 0.061667
-0.44014 0.228478 -4.95302 -1.41421 -1.41422 -1 192 192 192 255 0.234053 0.061667
-2.08154 2.7068 -4.7127 3.41428 -1.41422 7 192 192 192 255 0.169034 0.061667
-2.08154 2.7068 -4.95303 1.70711 -0.707103 -3 192 192 192 255 0.169034 0.061667
-0.228477 4.55986 -4.71269 0.707102 -0.707112 2 192 192 192 255 0.234053 0.061667
-0.44014 4.77152 -4.71269 -1.41422 1.41421 1 192 192 192 255 0.268919 0.061667
-0.44014 4.77152 -4.95302 -0.707103 0.707111 -2 192 192 192 255 0.234053 0.061667
-0.228477 4.55986 -4.95302 1.41421 -1.41421 -1 192 192 192 255 0.234053 0.061667
-2.91785 2.70619 -4.95302 -2.70712 -0.707106 -4 192 192 192 255 0.169034 0.061667
-2.91785 2.70619 -4.71269 -2.41419 -1.41421 3 192 192 192 255 0.169034 0.061667
-4.77152 4.55986 -4.71269 -0.707107 -0.707107 2 192 192 192 255 0.169034 0.061667
-4.77152 4.55986 -4.95302 -1.41421 -1.41421 -1 192 192 192 255 0.234053 0.061667
-4.55986 4.77152 -4.71269 1.41359 1.41483 1 192 192 192 255 0.268919 0.061667
-4.55986 4.77152 -4.95302 0.706797 0.707416 -2 192 192 192 255 0.268919 0.061667
0 0 0 3 -3 3 192 192 192 255 0.233148 0.061667
0 0 -5 3 -3 -3 192 192 192 255 0.233148 0.061667
0 5 -5 3 3 -3 192 192 192 255 0.233148 0.061667
0 5 0 3 3 3 192 192 192 255 0.233148 0.061667
-5 0 -5 -3 -3 -3 192 192 192 255 0.233148 0.061667
-5 0 0 -3 -3 3 192 192 192 255 0.233148 0.061667
-5 5 0 -3 3 3 192 192 192 255 0.233148 0.061667
-5 5 -5 -3 3 -3 192 192 192 255 0.233148 0.061667
-5 5 0 -3 3 3 192 192 192 255 0.300052 0.061667
0 5 0 3 3 3 192 192 192 255 0.300052 0.061667
0 5 -5 3 3 -3 192 192 192 255 0.300052 0.061667
-5 5 -5 -3 3 -3 192 192 192 255 0.300052 0.061667
-5 5 -5 -3 3 -3 192 192 192 255 0.30031 0.058538
-5 5 0 -3 3 3 192 192 192 255 0.30031 0.058538
-4.66569 5 -0.334312 1 3.00006 -2 192 192 192 255 0.30031 0.058538
-4.66569 5 -4.6657 2 3.00004 1 192 192 192 255 0.30031 0.058538
-5 0 -5 -3 -3 -3 192 192 192 255 0.200168 0.061667
0 0 -5 3 -3 -3 192 192 192 255 0.200168 0.061667
0 0 0 3 -3 3 192 192 192 255 0.200168 0.061667
-5 0 0 -3 -3 3 192 192 192 255 0.200168 0.061667
-4.66569 0.334309 0 1 2 3.00003 192 192 192 255 0.30031 0.058538
-0.334309 0.334309 0 -2 1 3.00003 192 192 192 255 0.30031 0.058538
-0.334312 0.334313 -0.33432 -2.99994 2.99996 -2.99997 192 192 192 255 0.265187 0.061667
-4.66569 4.66569 0 2 -1 3.00003 192 192 192 255 0.244812 0.061667
-4.66569 0.334309 0 1 2 3.00003 192 192 192 255 0.244812 0.061667
-4.66569 0.334313 -0.33432 2.99995 2.99994 -2.99997 192 192 192 255 0.244812 0.061667
-4.66569 4.66569 -0.33432 2.99994 -2.99996 -2.99997 192 192 192 255 0.244812 0.061667
-4.66569 5 -0.334312 1 3.00006 -2 192 192 192 255 0.204969 0.061667
-0.334309 5 -0.334312 -2 3.00004 -1 192 192 192 255 0.204969 0.061667
-0.334312 4.66569 -0.33432 -2.99996 -2.99994 -2.99997 192 192 192 255 0.204969 0.061667
-4.66569 4.66569 -0.33432 2.99994 -2.99996 -2.99997 192 192 192 255 0.204969 0.061667
-0.334309 5 -0.334312 -2 3.00004 -1 192 192 192 255 0.235531 0.061667
-0.334309 5 -4.6657 -1 3.00005 2 192 192 192 255 0.235531 0.061667
-0.334312 4.66569 -0.33432 -2.99996 -2.99994 -2.99997 192 192 192 255 0.235531 0.061667
-0.334309 5 -4.6657 -1 3.00005 2 192 192 192 255 0.204969 0.061667
-4.66569 5 -4.6657 2 3.00004 1 192 192 192 255 0.204969 0.061667
-0.334312 4.66569 -4.66569 -2.99995 -2.99996 2.99997 192 192 192 255 0.204969 0.061667
-4.66569 5 -4.6657 2 3.00004 1 192 192 192 255 0.235531 0.061667
-4.66569 5 -0.334312 1 3.00006 -2 192 192 192 255 0.235531 0.061667
-4.66569 4.66569 -0.33432 2.99994 -2.99996 -2.99997 192 192 192 255 0.235531 0.061667
-4.66569 4.66569 -4.66569 2.99996 -2.99995 2.99997 192 192 192 255 0.235531 0.061667
-0.334312 4.66569 -4.66569 -2.99995 -2.99996 2.99997 192 192 192 255 0.265187 0.061667
-4.66569 4.66569 -4.66569 2.99996 -2.99995 2.99997 192 192 192 255 0.265187 0.061667
-0.334309 0.334309 -5 -1 2 -3.00003 192 192 192 255 0.30031 0.058538
-4.66569 0.334309 -5 2 1 -3.00003 192 192 192 255 0.30031 0.058538
-0.334312 0.334313 -4.66569 -2.99995 2.99995 2.99997 192 192 192 255 0.30031 0.058538
-4.66569 0.334309 -5 2 1 -3.00003 192 192 192 255 0.244812 0.061667
-4.66569 4.66569 -5 1 -2 -3.00003 192 192 192 255 0.244812 0.061667
-4.66569 4.66569 -4.66569 2.99996 -2.99995 2.99997 192 192 192 255 0.244812 0.061667
-4.66569 0.334313 -4.66569 2.99995 2.99996 2.99997 192 192 192 255 0.244812 0.061667
-0.334312 0.334313 -4.66569 -2.99995 2.99995 2.99997 192 192 192 255 0.200168 0.061667
-4.66569 0.334313 -4.66569 2.99995 2.99996 2.99997 192 192 192 255 0.200168 0.061667
-0.334309 0 -4.6657 -2 -3.00004 1 192 192 192 255 0.23073 0.061667
-0.334309 0 -0.334312 -1 -3.00006 -2 192 192 192 255 0.23073 0.061667
-0.334312 0.334313 -0.33432 -2.99994 2.99996 -2.99997 192 192 192 255 0.23073 0.061667
-0.334312 0.334313 -4.66569 -2.99995 2.99995 2.99997 192 192 192 255 0.23073 0.061667
-4.66569 0.334313 -0.33432 2.99995 2.99994 -2.99997 192 192 192 255 0.200168 0.061667
-0.334312 0.334313 -0.33432 -2.99994 2.99996 -2.99997 192 192 192 255 0.200168 0.061667
-4.66569 0 -0.334312 2 -3.00004 -1 192 192 192 255 0.23073 0.061667
-4.66569 0 -4.6657 1 -3.00005 2 192 192 192 255 0.23073 0.061667
-4.66569 0.334313 -4.66569 2.99995 2.99996 2.99997 192 192 192 255 0.23073 0.061667
-4.66569 0.334313 -0.33432 2.99995 2.99994 -2.99997 192 192 192 255 0.23073 0.061667
0 0.334309 -0.334312 3.00005 2 -1 192 192 192 255 0.30031 0.058538
0 0.334309 -4.6657 3.00005 1 2 192 192 192 255 0.30031 0.058538
0 0.334309 -4.6657 3.00005 1 2 192 192 192 255 0.202586 0.061667
0 4.66569 -4.6657 3.00004 -2 1 192 192 192 255 0.202586 0.061667
-0.334312 4.66569 -4.66569 -2.99995 -2.99996 2.99997 192 192 192 255 0.202586 0.061667
-0.334312 0.334313 -4.66569 -2.99995 2.99995 2.99997 192 192 192 255 0.202586 0.061667
-0.334312 4.66569 -0.33432 -2.99996 -2.99994 -2.99997 192 192 192 255 0.233148 0.061667
-0.334312 4.66569 -4.66569 -2.99995 -2.99996 2.99997 192 192 192 255 0.233148 0.061667
0 4.66569 -0.334312 3.00006 -1 -2 192 192 192 255 0.202586 0.061667
0 0.334309 -0.334312 3.00005 2 -1 192 192 192 255 0.202586 0.061667
-0.334312 0.334313 -0.33432 -2.99994 2.99996 -2.99997 192 192 192 255 0.202586 0.061667
-0.334312 4.66569 -0.33432 -2.99996 -2.99994 -2.99997 192 192 192 255 0.202586 0.061667
-5 0.334309 -4.6657 -3.00005 2 1 192 192 192 255 0.30031 0.058538
-5 0.334309 -0.334312 -3.00006 1 -2 192 192 192 255 0.30031 0.058538
-5 0.334309 -0.334312 -3.00006 1 -2 192 192 192 255 0.202586 0.061667
-5 4.66569 -0.334312 -3.00004 -2 -1 192 192 192 255 0.202586 0.061667
-4.66569 4.66569 -0.33432 2.99994 -2.99996 -2.99997 192 192 192 255 0.202586 0.061667
-4.66569 0.334313 -0.33432 2.99995 2.99994 -2.99997 192 192 192 255 0.202586 0.061667
-4.66569 4.66569 -4.66569 2.99996 -2.99995 2.99997 192 192 192 255 0.233148 0.061667
-4.66569 4.66569 -0.33432 2.99994 -2.99996 -2.99997 192 192 192 255 0.233148 0.061667
-5 4.66569 -4.6657 -3.00005 -1 2 192 192 192 255 0.202586 0.061667
-5 0.334309 -4.6657 -3.00005 2 1 192 192 192 255 0.202586 0.061667
-4.66569 0.334313 -4.66569 2.99995 2.99996 2.99997 192 192 192 255 0.202586 0.061667
-4.66569 4.66569 -4.66569 2.99996 -2.99995 2.99997 192 192 192 255 0.202586 0.061667
-2.08154 2.7068 -0.287331 1.70711 -0.707103 -3 192 192 192 255 0.234053 0.061667
-2.08154 2.29483 -0.287331 3.41483 1.41359 -3 192 192 192 255 0.234053 0.061667
-2.7048 2.08117 -0.287323 0.706643 -2.70756 -4 192 192 192 255 0.169034 0.061667
-2.29283 2.08117 -0.287331 -0.707113 -1.70711 -4 192 192 192 255 0.169034 0.061667
-2.2932 2.91846 -0.287331 -1.41425 3.41421 -7 192 192 192 255 0.268919 0.061667
-2.70517 2.91846 -0.287323 1.41359 2.41483 -2 192 192 192 255 0.268919 0.061667
-2.08154 2.7068 -0.047005 3.41428 -1.41422 7 192 192 192 255 0.234053 0.061667
-2.2932 2.91846 -0.047005 -0.707099 1.7071 3 192 192 192 255 0.234053 0.061667
-2.70517 2.91846 -0.046997 0.706822 2.70742 4 192 192 192 255 0.234053 0.061667
-2.7048 2.08117 -0.046997 1.41333 -2.41512 3 192 192 192 255 0.234053 0.061667
-2.29283 2.08117 -0.047005 -1.41419 -3.41421 3 192 192 192 255 0.234053 0.061667
-2.08154 2.29483 -0.047005 1.70742 0.706802 3 192 192 192 255 0.234053 0.061667
-2.91785 2.29422 -0.046997 -2.70716 0.70703 4 192 192 192 255 0.202886 0.058059
-2.91785 2.70619 -0.046997 -2.41419 -1.41421 3 192 192 192 255 0.202886 0.058059
-2.91785 2.70619 -0.287323 -2.70712 -0.707106 -4 192 192 192 255 0.202886 0.058059
-2.91785 2.29422 -0.287323 -2.41438 1.41406 -3 192 192 192 255 0.202886 0.058059
-4.55986 0.228478 -0.046997 0.706655 -0.707558 2 192 192 192 255 0.169034 0.061667
-4.55986 0.228478 -0.287323 1.41331 -1.41512 -1 192 192 192 255 0.234053 0.061667
-4.77152 0.440141 -0.046997 -1.41437 1.41406 1 192 192 192 255 0.268919 0.061667
-2.91785 2.29422 -0.046997 -2.70716 0.70703 4 192 192 192 255 0.268919 0.061667
-2.91785 2.29422 -0.287323 -2.41438 1.41406 -3 192 192 192 255 0.268919 0.061667
-4.77152 0.440141 -0.287323 -0.707185 0.707029 -2 192 192 192 255 0.268919 0.061667
-0.44014 0.228478 -0.046997 -0.707111 -0.707102 2 192 192 192 255 0.234053 0.061667
-2.08154 2.29483 -0.287331 3.41483 1.41359 -3 192 192 192 255 0.268919 0.061667
-2.08154 2.29483 -0.047005 1.70742 0.706802 3 192 192 192 255 0.268919 0.061667
-0.228477 0.440141 -0.046997 1.41483 1.4136 1 192 192 192 255 0.268919 0.061667
-0.228477 0.440141 -0.287323 0.70742 0.706794 -2 192 192 192 255 0.234053 0.061667
-0.44014 0.228478 -0.287323 -1.41421 -1.41422 -1 192 192 192 255 0.234053 0.061667
-2.08154 2.7068 -0.047005 3.41428 -1.41422 7 192 192 192 255 0.169034 0.061667
-2.08154 2.7068 -0.287331 1.70711 -0.707103 -3 192 192 192 255 0.169034 0.061667
-0.228477 4.55986 -0.046997 0.707102 -0.707112 2 192 192 192 255 0.234053 0.061667
-0.44014 4.77152 -0.046997 -1.41422 1.41421 1 192 192 192 255 0.268919 0.061667
-0.44014 4.77152 -0.287323 -0.707103 0.707111 -2 192 192 192 255 0.234053 0.061667
-0.228477 4.55986 -0.287323 1.41421 -1.41421 -1 192 192 192 255 0.234053 0.061667
-2.91785 2.70619 -0.287323 -2.70712 -0.707106 -4 192 192 192 255 0.169034 0.061667
-2.91785 2.70619 -0.046997 -2.41419 -1.41421 3 192 192 192 255 0.169034 0.061667
-4.77152 4.55986 -0.046997 -0.707107 -0.707107 2 192 192 192 255 0.169034 0.061667
-4.77152 4.55986 -0.287323 -1.41421 -1.41421 -1 192 192 192 255 0.234053 0.061667
-4.55986 4.77152 -0.046997 1.41359 1.41483 1 192 192 192 255 0.268919 0.061667
-4.55986 4.77152 -0.287323 0.706797 0.707416 -2 192 192 192 255 0.268919 0.061667
-2.08154 4.95303 -2.2932 1.70711 3 -0.707103 192 192 192 255 0.29715 0.060554
-2.08154 4.95303 -2.70517 3.41483 3 1.41359 192 192 192 255 0.29715 0.060554
-2.7048 4.95302 -2.91882 0.706644 4 -2.70756 192 192 192 255 0.266739 0.060542
-2.29283 4.95303 -2.91882 -0.707113 4 -1.70711 192 192 192 255 0.266739 0.060542
-2.2932 4.95303 -2.08154 -1.41424 7 3.41421 192 192 192 255 0.266739 0.060542
-2.70517 4.95302 -2.08154 1.41359 2 2.41483 192 192 192 255 0.266739 0.060542
-2.91785 4.95302 -2.2938 -2.70712 4 -0.707106 192 192 192 255 0.266739 0.060542
-2.91785 4.95302 -2.70577 -2.41438 3 1.41406 192 192 192 255 0.266739 0.060542
-2.7048 4.71269 -2.91882 1.41339 -7 -2.41513 192 192 192 255 0.198729 0.060554
-2.91785 4.71269 -2.70577 -2.70717 -3 0.707027 192 192 192 255 0.198729 0.060554
-2.7048 4.95302 -2.91882 0.706644 4 -2.70756 192 192 192 255 0.232119 0.060542
-2.7048 4.71269 -2.91882 1.41339 -7 -2.41513 192 192 192 255 0.232119 0.060542
-4.55986 4.71269 -4.77151 0.706656 -2 -0.707558 192 192 192 255 0.232119 0.060542
-4.55986 4.95302 -4.77151 1.41331 1 -1.41512 192 192 192 255 0.29715 0.060554
-4.77152 4.71269 -4.55985 -1.41437 -1 1.41406 192 192 192 255 0.232119 0.060542
-2.91785 4.71269 -2.70577 -2.70717 -3 0.707027 192 192 192 255 0.232119 0.060542
-2.91785 4.95302 -2.70577 -2.41438 3 1.41406 192 192 192 255 0.232119 0.060542
-4.77152 4.95302 -4.55985 -0.707185 2 0.707028 192 192 192 255 0.232119 0.060542
-2.29283 4.7127 -2.91882 -1.4142 -2 -3.41422 192 192 192 255 0.232119 0.060542
-2.29283 4.95303 -2.91882 -0.707113 4 -1.70711 192 192 192 255 0.232119 0.060542
-2.08154 4.7127 -2.70517 1.70744 -4 0.706795 192 192 192 255 0.198729 0.060554
-2.29283 4.7127 -2.91882 -1.4142 -2 -3.41422 192 192 192 255 0.198729 0.060554
-0.44014 4.71269 -4.77151 -0.707111 -2 -0.707102 192 192 192 255 0.198729 0.060554
-2.08154 4.95303 -2.70517 3.41483 3 1.41359 192 192 192 255 0.232119 0.060542
-2.08154 4.7127 -2.70517 1.70744 -4 0.706795 192 192 192 255 0.232119 0.060542
-0.228477 4.71269 -4.55985 1.41483 -1 1.4136 192 192 192 255 0.232119 0.060542
-0.228477 4.95302 -4.55985 0.707419 2 0.706794 192 192 192 255 0.29715 0.060554
-0.44014 4.95302 -4.77151 -1.41421 1 -1.41422 192 192 192 255 0.29715 0.060554
-2.08154 4.7127 -2.2932 3.41424 -3 -1.41422 192 192 192 255 0.232119 0.060542
-2.08154 4.95303 -2.2932 1.70711 3 -0.707103 192 192 192 255 0.232119 0.060542
-2.2932 4.7127 -2.08154 -0.707085 -4 1.7071 192 192 192 255 0.198729 0.060554
-2.08154 4.7127 -2.2932 3.41424 -3 -1.41422 192 192 192 255 0.198729 0.060554
-0.228477 4.71269 -0.440132 0.707102 -2 -0.707111 192 192 192 255 0.198729 0.060554
-2.2932 4.95303 -2.08154 -1.41424 7 3.41421 192 192 192 255 0.232119 0.060542
-2.2932 4.7127 -2.08154 -0.707085 -4 1.7071 192 192 192 255 0.232119 0.060542
-0.44014 4.71269 -0.22847 -1.41422 -1 1.41421 192 192 192 255 0.232119 0.060542
-0.44014 4.95302 -0.22847 -0.707103 2 0.70711 192 192 192 255 0.29715 0.060554
-0.228477 4.95302 -0.440132 1.41422 1 -1.41421 192 192 192 255 0.29715 0.060554
-2.91785 4.71269 -2.2938 -2.41419 -3 -1.41422 192 192 192 255 0.198729 0.060554
-2.70517 4.71269 -2.08154 0.706821 -4 2.70741 192 192 192 255 0.198729 0.060554
-2.91785 4.95302 -2.2938 -2.70712 4 -0.707106 192 192 192 255 0.232119 0.060542
-2.91785 4.71269 -2.2938 -2.41419 -3 -1.41422 192 192 192 255 0.232119 0.060542
-4.77152 4.71269 -0.440132 -0.707107 -2 -0.707107 192 192 192 255 0.232119 0.060542
-4.77152 4.95302 -0.440132 -1.41421 1 -1.41421 192 192 192 255 0.29715 0.060554
-4.55986 4.71269 -0.22847 1.41359 -1 1.41483 192 192 192 255 0.232119 0.060542
-2.70517 4.71269 -2.08154 0.706821 -4 2.70741 192 192 192 255 0.232119 0.060542
-2.70517 4.95302 -2.08154 1.41359 2 2.41483 192 192 192 255 0.232119 0.060542
-4.55986 4.95302 -0.22847 0.706797 2 0.707416 192 192 192 255 0.232119 0.060542
-2.7048 4.71269 -2.91882 1.41339 -7 -2.41513 192 192 192 255 0.195139 0.059357
-2.29283 4.7127 -2.91882 -1.4142 -2 -3.41422 192 192 192 255 0.195139 0.059357
-2.08154 4.7127 -2.70517 1.70744 -4 0.706795 192 192 192 255 0.195139 0.059357
-2.08154 4.7127 -2.2932 3.41424 -3 -1.41422 192 192 192 255 0.195139 0.059357
-2.2932 4.7127 -2.08154 -0.707085 -4 1.7071 192 192 192 255 0.195139 0.059357
-2.70517 4.71269 -2.08154 0.706821 -4 2.70741 192 192 192 255 0.195139 0.059357
-2.91785 4.71269 -2.2938 -2.41419 -3 -1.41422 192 192 192 255 0.195139 0.059357
-2.91785 4.71269 -2.70577 -2.70717 -3 0.707027 192 192 192 255 0.195139 0.059357
-2.08154 0.287331 -2.2932 1.70711 3 -0.707103 192 192 192 255 0.29715 0.060554
-2.08154 0.287331 -2.70517 3.41483 3 1.41359 192 192 192 255 0.29715 0.060554
-2.7048 0.287323 -2.91882 0.706643 4 -2.70756 192 192 192 255 0.266739 0.060542
-2.29283 0.287331 -2.91882 -0.707113 4 -1.70711 192 192 192 255 0.266739 0.060542
-2.2932 0.287331 -2.08154 -1.41425 7 3.41421 192 192 192 255 0.266739 0.060542
-2.70517 0.287323 -2.08154 1.41359 2 2.41483 192 192 192 255 0.266739 0.060542
-2.91785 0.287323 -2.2938 -2.70712 4 -0.707106 192 192 192 255 0.266739 0.060542
-2.91785 0.287323 -2.70577 -2.41439 3 1.41406 192 192 192 255 0.266739 0.060542
-2.7048 0.046997 -2.91882 1.41339 -7 -2.41513 192 192 192 255 0.198729 0.060554
-2.91785 0.046997 -2.70577 -2.70717 -3 0.707027 192 192 192 255 0.198729 0.060554
-2.7048 0.287323 -2.91882 0.706643 4 -2.70756 192 192 192 255 0.232119 0.060542
-2.7048 0.046997 -2.91882 1.41339 -7 -2.41513 192 192 192 255 0.232119 0.060542
-4.55986 0.046997 -4.77151 0.706656 -2 -0.707558 192 192 192 255 0.232119 0.060542
-4.55986 0.287323 -4.77151 1.41331 1 -1.41512 192 192 192 255 0.29715 0.060554
-4.77152 0.046997 -4.55985 -1.41437 -1 1.41406 192 192 192 255 0.232119 0.060542
-2.91785 0.046997 -2.70577 -2.70717 -3 0.707027 192 192 192 255 0.232119 0.060542
-2.91785 0.287323 -2.70577 -2.41439 3 1.41406 192 192 192 255 0.232119 0.060542
-4.77152 0.287323 -4.55985 -0.707185 2 0.707028 192 192 192 255 0.232119 0.060542
-2.29283 0.047005 -2.91882 -1.4142 -2 -3.41422 192 192 192 255 0.232119 0.060542
-2.29283 0.287331 -2.91882 -0.707113 4 -1.70711 192 192 192 255 0.232119 0.060542
-2.08154 0.047005 -2.70517 1.70744 -4 0.706795 192 192 192 255 0.198729 0.060554
-2.29283 0.047005 -2.91882 -1.4142 -2 -3.41422 192 192 192 255 0.198729 0.060554
-0.44014 0.046997 -4.77151 -0.707111 -2 -0.707102 192 192 192 255 0.198729 0.060554
-2.08154 0.287331 -2.70517 3.41483 3 1.41359 192 192 192 255 0.232119 0.060542
-2.08154 0.047005 -2.70517 1.70744 -4 0.706795 192 192 192 255 0.232119 0.060542
-0.228477 0.046997 -4.55985 1.41483 -1 1.4136 192 192 192 255 0.232119 0.060542
-0.228477 0.287323 -4.55985 0.707419 2 0.706794 192 192 192 255 0.29715 0.060554
-0.44014 0.287323 -4.77151 -1.41421 1 -1.41422 192 192 192 255 0.29715 0.060554
-2.08154 0.047005 -2.2932 3.41424 -3 -1.41422 192 192 192 255 0.232119 0.060542
-2.08154 0.287331 -2.2932 1.70711 3 -0.707103 192 192 192 255 0.232119 0.060542
-2.2932 0.047005 -2.08154 -0.707085 -4 1.7071 192 192 192 255 0.198729 0.060554
-2.08154 0.047005 -2.2932 3.41424 -3 -1.41422 192 192 192 255 0.198729 0.060554
-0.228477 0.046997 -0.440132 0.707103 -2 -0.707111 192 192 192 255 0.198729 0.060554
-2.2932 0.287331 -2.08154 -1.41425 7 3.41421 192 192 192 255 0.232119 0.060542
-2.2932 0.047005 -2.08154 -0.707085 -4 1.7071 192 192 192 255 0.232119 0.060542
-0.44014 0.046997 -0.22847 -1.41422 -1 1.41421 192 192 192 255 0.232119 0.060542
-0.44014 0.287323 -0.22847 -0.707103 2 0.70711 192 192 192 255 0.29715 0.060554
-0.228477 0.287323 -0.440132 1.41422 1 -1.41421 192 192 192 255 0.29715 0.060554
-2.91785 0.046997 -2.2938 -2.41419 -3 -1.41422 192 192 192 255 0.198729 0.060554
-2.70517 0.046997 -2.08154 0.706821 -4 2.70741 192 192 192 255 0.198729 0.060554
-2.91785 0.287323 -2.2938 -2.70712 4 -0.707106 192 192 192 255 0.232119 0.060542
-2.91785 0.046997 -2.2938 -2.41419 -3 -1.41422 192 192 192 255 0.232119 0.060542
-4.77152 0.046997 -0.440132 -0.707107 -2 -0.707107 192 192 192 255 0.232119 0.060542
-4.77152 0.287323 -0.440132 -1.41421 1 -1.41421 192 192 192 255 0.29715 0.060554
-4.55986 0.046997 -0.22847 1.41359 -1 1.41483 192 192 192 255 0.232119 0.060542
-2.70517 0.046997 -2.08154 0.706821 -4 2.70741 192 192 192 255 0.232119 0.060542
-2.70517 0.287323 -2.08154 1.41359 2 2.41483 192 192 192 255 0.232119 0.060542
-4.55986 0.287323 -0.22847 0.706797 2 0.707416 192 192 192 255 0.232119 0.060542
-2.7048 0.046997 -2.91882 1.41339 -7 -2.41513 192 192 192 255 0.195139 0.059357
-2.29283 0.047005 -2.91882 -1.4142 -2 -3.41422 192 192 192 255 0.195139 0.059357
-2.08154 0.047005 -2.70517 1.70744 -4 0.706795 192 192 192 255 0.195139 0.059357
-2.08154 0.047005 -2.2932 3.41424 -3 -1.41422 192 192 192 255 0.195139 0.059357
-2.2932 0.047005 -2.08154 -0.707085 -4 1.7071 192 192 192 255 0.195139 0.059357
-2.70517 0.046997 -2.08154 0.706821 -4 2.70741 192 192 192 255 0.195139 0.059357
-2.91785 0.046997 -2.2938 -2.41419 -3 -1.41422 192 192 192 255 0.195139 0.059357
-2.91785 0.046997 -2.70577 -2.70717 -3 0.707027 192 192 192 255 0.195139 0.059357
3 21 26 27 
3 21 27 20 
3 23 168 169 
3 23 169 24 
3 23 24 18 
3 23 18 19 
3 23 19 30 
3 23 30 31 
3 170 171 25 
3 170 25 17 
3 172 173 28 
3 172 28 22 
3 174 175 176 
3 174 176 29 
3 174 29 16 
3 174 16 177 
3 174 177 178 
3 174 178 179 
3 180 181 182 
3 180 182 183 
3 0 177 16 
3 0 16 2 
3 6 170 17 
3 6 17 184 
3 4 19 18 
3 4 18 185 
3 186 187 188 
3 186 188 189 
3 25 171 15 
3 25 15 9 
3 179 178 190 
3 179 190 11 
3 191 192 193 
3 191 193 13 
3 24 169 194 
3 24 194 195 
3 196 197 7 
3 196 7 1 
3 175 174 198 
3 175 198 3 
3 172 22 199 
3 172 199 5 
3 168 23 200 
3 168 200 201 
3 8 29 176 
3 8 176 10 
3 14 202 203 
3 14 203 204 
3 12 31 30 
3 12 30 205 
3 206 28 173 
3 206 173 207 
3 32 33 41 
3 32 41 40 
3 33 35 42 
3 33 42 41 
3 35 34 43 
3 35 43 42 
3 34 32 40 
3 34 40 43 
3 36 37 45 
3 36 45 44 
3 37 39 46 
3 37 46 45 
3 39 38 47 
3 39 47 46 
3 38 36 44 
3 38 44 47 
3 208 209 48 
3 208 48 49 
3 209 210 50 
3 209 50 48 
3 210 211 51 
3 210 51 50 
3 211 208 49 
3 211 49 51 
3 212 213 53 
3 212 53 52 
3 213 214 54 
3 213 54 53 
3 214 215 55 
3 214 55 54 
3 215 212 52 
3 215 52 55 
3 216 217 57 
3 216 57 56 
3 217 218 58 
3 217 58 57 
3 218 219 59 
3 218 59 58 
3 220 221 222 
3 220 222 223 
3 224 225 61 
3 224 61 60 
3 225 226 62 
3 225 62 61 
3 226 227 63 
3 226 63 62 
3 227 224 60 
3 227 60 63 
3 228 229 65 
3 228 65 64 
3 41 42 66 
3 41 66 230 
3 42 43 67 
3 42 67 66 
3 231 232 233 
3 231 233 234 
3 235 236 237 
3 235 237 238 
3 239 240 68 
3 239 68 241 
3 242 243 69 
3 242 69 244 
3 245 246 247 
3 245 247 248 
3 44 45 249 
3 44 249 250 
3 45 46 70 
3 45 70 249 
3 251 252 71 
3 251 71 253 
3 254 255 256 
3 254 256 257 
3 60 61 258 
3 60 258 259 
3 260 261 262 
3 260 262 263 
3 62 63 264 
3 62 264 265 
3 266 267 268 
3 266 268 269 
3 270 271 253 
3 270 253 65 
3 272 273 274 
3 272 274 275 
3 50 51 276 
3 50 276 277 
3 278 279 280 
3 278 280 281 
3 282 283 64 
3 282 64 71 
3 284 285 286 
3 284 286 287 
3 54 55 288 
3 54 288 289 
3 290 291 292 
3 290 292 293 
3 93 98 99 
3 93 99 92 
3 95 294 295 
3 95 295 96 
3 95 96 90 
3 95 90 91 
3 95 91 102 
3 95 102 103 
3 296 297 97 
3 296 97 89 
3 298 299 100 
3 298 100 94 
3 300 301 302 
3 300 302 101 
3 300 101 88 
3 300 88 303 
3 300 303 304 
3 300 304 305 
3 306 307 308 
3 306 308 309 
3 72 303 88 
3 72 88 74 
3 78 296 89 
3 78 89 310 
3 76 91 90 
3 76 90 311 
3 312 313 314 
3 312 314 315 
3 97 297 87 
3 97 87 81 
3 305 304 316 
3 305 316 83 
3 317 318 319 
3 317 319 85 
3 96 295 320 
3 96 320 321 
3 322 323 79 
3 322 79 73 
3 301 300 324 
3 301 324 75 
3 298 94 325 
3 298 325 77 
3 294 95 326 
3 294 326 327 
3 80 101 302 
3 80 302 82 
3 86 328 329 
3 86 329 330 
3 84 103 102 
3 84 102 331 
3 332 100 299 
3 332 299 333 
3 125 130 131 
3 125 131 124 
3 127 334 335 
3 127 335 128 
3 127 128 122 
3 127 122 123 
3 127 123 134 
3 127 134 135 
3 336 337 129 
3 336 129 121 
3 338 339 132 
3 338 132 126 
3 120 133 340 
3 120 340 341 
3 104 342 343 
3 104 343 106 
3 110 344 345 
3 110 345 346 
3 108 123 122 
3 108 122 347 
3 348 349 350 
3 348 350 351 
3 352 353 119 
3 352 119 113 
3 354 355 356 
3 354 356 115 
3 357 358 359 
3 357 359 117 
3 128 335 360 
3 128 360 361 
3 362 363 111 
3 362 111 105 
3 364 365 366 
3 364 366 107 
3 367 368 369 
3 367 369 109 
3 334 127 370 
3 334 370 371 
3 112 372 373 
3 112 373 114 
3 118 374 375 
3 118 375 376 
3 116 135 134 
3 116 134 377 
3 378 379 380 
3 378 380 381 
3 382 383 384 
3 382 384 385 
3 382 385 386 
3 382 386 387 
3 382 387 388 
3 382 388 389 
3 157 162 163 
3 157 163 156 
3 159 390 391 
3 159 391 160 
3 159 160 154 
3 159 154 155 
3 159 155 166 
3 159 166 167 
3 392 393 161 
3 392 161 153 
3 394 395 164 
3 394 164 158 
3 152 165 396 
3 152 396 397 
3 136 398 399 
3 136 399 138 
3 142 400 401 
3 142 401 402 
3 140 155 154 
3 140 154 403 
3 404 405 406 
3 404 406 407 
3 408 409 151 
3 408 151 145 
3 410 411 412 
3 410 412 147 
3 413 414 415 
3 413 415 149 
3 160 391 416 
3 160 416 417 
3 418 419 143 
3 418 143 137 
3 420 421 422 
3 420 422 139 
3 423 424 425 
3 423 425 141 
3 390 159 426 
3 390 426 427 
3 144 428 429 
3 144 429 146 
3 150 430 431 
3 150 431 432 
3 148 167 166 
3 148 166 433 
3 434 435 436 
3 434 436 437 
3 438 439 440 
3 438 440 441 
3 438 441 442 
3 438 442 443 
3 438 443 444 
3 438 444 445 
