ply
format ascii 1.0
comment VCGLIB generated
comment TextureFile WorldMap.png
element vertex 6
property float x
property float y
property float z
property float nx
property float ny
property float nz
property uchar red
property uchar green
property uchar blue
property uchar alpha
property float texture_u
property float texture_v
element face 4
property list uchar int vertex_indices
end_header
3.9705 3.54157 -0.148858 0 0 3 192 192 192 255 1 0.789722
3.9705 5.36392 -0.148858 0 0 2 192 192 192 255 1 1.00033
-3.9705 5.36392 -0.148858 0 0 1 192 192 192 255 0 1.00033
-3.9705 3.54157 -0.148858 0 0 3 192 192 192 255 0 0.789722
-3.9705 1.71923 -0.148858 0 0 2 192 192 192 255 0 0.579114
3.9705 1.71923 -0.148858 0 0 1 192 192 192 255 1 0.579114
3 3 0 1 
3 3 1 2 
3 4 5 0 
3 4 0 3 
