ply
format ascii 1.0
comment VCGLIB generated
comment TextureFile SpaceInteriors_Texture.png
element vertex 64
property float x
property float y
property float z
property float nx
property float ny
property float nz
property uchar red
property uchar green
property uchar blue
property uchar alpha
property float texture_u
property float texture_v
element face 48
property list uchar int vertex_indices
end_header
2.45122 -0.582248 1.68159 -1 -1 2 192 192 192 255 0.300413 0.083793
2.56994 -0.582248 1.68159 2 -2 1 192 192 192 255 0.300413 0.083793
2.45122 0.582248 1.68159 -2 2 1 192 192 192 255 0.300413 0.083793
2.56994 0.582248 1.68159 1 1 2 192 192 192 255 0.300413 0.083793
2.45122 0.582248 -1.68159 -1 1 -2 192 192 192 255 0.300413 0.083793
2.56994 0.582248 -1.68159 2 2 -1 192 192 192 255 0.300413 0.083793
2.45122 -0.582248 -1.68159 -2 -2 -1 192 192 192 255 0.300413 0.083793
2.56994 -0.582248 -1.68159 1 -1 -2 192 192 192 255 0.300413 0.083793
0.061534 -0.582248 1.68159 -1 -1 2 192 192 192 255 0.300413 0.083793
0.180249 -0.582248 1.68159 2 -2 1 192 192 192 255 0.300413 0.083793
0.061534 0.582248 1.68159 -2 2 1 192 192 192 255 0.300413 0.083793
0.180249 0.582248 1.68159 1 1 2 192 192 192 255 0.300413 0.083793
0.061534 0.582248 -1.68159 -1 1 -2 192 192 192 255 0.300413 0.083793
0.180249 0.582248 -1.68159 2 2 -1 192 192 192 255 0.300413 0.083793
0.061534 -0.582248 -1.68159 -2 -2 -1 192 192 192 255 0.300413 0.083793
0.180249 -0.582248 -1.68159 1 -1 -2 192 192 192 255 0.300413 0.083793
4.83828 -0.582248 1.68159 -1 -1 2 192 192 192 255 0.300413 0.083793
4.957 -0.582248 1.68159 2 -2 1 192 192 192 255 0.300413 0.083793
4.83828 0.582248 1.68159 -2 2 1 192 192 192 255 0.300413 0.083793
4.957 0.582248 1.68159 1 1 2 192 192 192 255 0.300413 0.083793
4.83828 0.582248 -1.68159 -1 1 -2 192 192 192 255 0.300413 0.083793
4.957 0.582248 -1.68159 2 2 -1 192 192 192 255 0.300413 0.083793
4.83828 -0.582248 -1.68159 -2 -2 -1 192 192 192 255 0.300413 0.083793
4.957 -0.582248 -1.68159 1 -1 -2 192 192 192 255 0.300413 0.083793
0 -0.5 -1.60705 -2 -1 -2 192 192 192 255 0.357879 0.083793
0 -0.5 1.60705 -1 -2 1 192 192 192 255 0.357879 0.083793
0 0.5 1.60705 -2 1 2 192 192 192 255 0.357879 0.083793
0 0.5 -1.60705 -1 2 -1 192 192 192 255 0.357879 0.083793
5 -0.5 -1.60705 1 -2 -1 192 192 192 255 0.32752 0.088672
5 -0.5 1.60705 2 -1 2 192 192 192 255 0.32752 0.088672
5 0.5 1.60705 1 2 1 192 192 192 255 0.357879 0.083793
5 0.5 -1.60705 2 1 -2 192 192 192 255 0.389323 0.086503
2.56994 -0.582248 1.68159 2 -2 1 192 192 192 255 0.267343 0.084877
2.56994 -0.582248 -1.68159 1 -1 -2 192 192 192 255 0.267343 0.084877
2.56994 0.582248 -1.68159 2 2 -1 192 192 192 255 0.267343 0.084877
2.56994 0.582248 1.68159 1 1 2 192 192 192 255 0.267343 0.084877
2.45122 -0.582248 -1.68159 -2 -2 -1 192 192 192 255 0.267343 0.084877
2.45122 -0.582248 1.68159 -1 -1 2 192 192 192 255 0.267343 0.084877
2.45122 0.582248 1.68159 -2 2 1 192 192 192 255 0.267343 0.084877
2.45122 0.582248 -1.68159 -1 1 -2 192 192 192 255 0.267343 0.084877
0.180249 -0.582248 1.68159 2 -2 1 192 192 192 255 0.267343 0.084877
0.180249 -0.582248 -1.68159 1 -1 -2 192 192 192 255 0.267343 0.084877
0.180249 0.582248 -1.68159 2 2 -1 192 192 192 255 0.267343 0.084877
0.180249 0.582248 1.68159 1 1 2 192 192 192 255 0.267343 0.084877
0.061534 -0.582248 -1.68159 -2 -2 -1 192 192 192 255 0.267343 0.084877
0.061534 -0.582248 1.68159 -1 -1 2 192 192 192 255 0.267343 0.084877
0.061534 0.582248 1.68159 -2 2 1 192 192 192 255 0.267343 0.084877
0.061534 0.582248 -1.68159 -1 1 -2 192 192 192 255 0.267343 0.084877
4.957 -0.582248 1.68159 2 -2 1 192 192 192 255 0.267343 0.084877
4.957 -0.582248 -1.68159 1 -1 -2 192 192 192 255 0.267343 0.084877
4.957 0.582248 -1.68159 2 2 -1 192 192 192 255 0.267343 0.084877
4.957 0.582248 1.68159 1 1 2 192 192 192 255 0.267343 0.084877
4.83828 -0.582248 -1.68159 -2 -2 -1 192 192 192 255 0.267343 0.084877
4.83828 -0.582248 1.68159 -1 -1 2 192 192 192 255 0.267343 0.084877
4.83828 0.582248 1.68159 -2 2 1 192 192 192 255 0.267343 0.084877
4.83828 0.582248 -1.68159 -1 1 -2 192 192 192 255 0.267343 0.084877
0 -0.5 1.60705 -1 -2 1 192 192 192 255 0.32752 0.088672
0 -0.5 -1.60705 -2 -1 -2 192 192 192 255 0.32752 0.088672
5 -0.5 1.60705 2 -1 2 192 192 192 255 0.357879 0.083793
5 0.5 1.60705 1 2 1 192 192 192 255 0.389323 0.086503
0 0.5 -1.60705 -1 2 -1 192 192 192 255 0.389323 0.086503
0 0.5 1.60705 -2 1 2 192 192 192 255 0.389323 0.086503
5 0.5 -1.60705 2 1 -2 192 192 192 255 0.357879 0.083793
5 -0.5 -1.60705 1 -2 -1 192 192 192 255 0.357879 0.083793
3 0 1 3 
3 0 3 2 
3 2 3 5 
3 2 5 4 
3 4 5 7 
3 4 7 6 
3 6 7 1 
3 6 1 0 
3 32 33 34 
3 32 34 35 
3 36 37 38 
3 36 38 39 
3 8 9 11 
3 8 11 10 
3 10 11 13 
3 10 13 12 
3 12 13 15 
3 12 15 14 
3 14 15 9 
3 14 9 8 
3 40 41 42 
3 40 42 43 
3 44 45 46 
3 44 46 47 
3 16 17 19 
3 16 19 18 
3 18 19 21 
3 18 21 20 
3 20 21 23 
3 20 23 22 
3 22 23 17 
3 22 17 16 
3 48 49 50 
3 48 50 51 
3 52 53 54 
3 52 54 55 
3 24 25 26 
3 24 26 27 
3 28 29 56 
3 28 56 57 
3 58 30 26 
3 58 26 25 
3 59 31 60 
3 59 60 61 
3 62 63 24 
3 62 24 27 
3 58 63 62 
3 58 62 30 
