ply
format ascii 1.0
comment VCGLIB generated
comment TextureFile SpaceInteriors_Texture.png
element vertex 76
property float x
property float y
property float z
property float nx
property float ny
property float nz
property uchar red
property uchar green
property uchar blue
property uchar alpha
property float texture_u
property float texture_v
element face 48
property list uchar int vertex_indices
end_header
-5 0 0 0 0 1 192 192 192 255 0.325286 0.058656
0 0 0 0 0 1 192 192 192 255 0.325286 0.058656
-5 5 0 0 0 3 192 192 192 255 0.325286 0.058656
0 5 0 0 0 4 192 192 192 255 0.325286 0.058656
-1.25 0 0 -2 1 2 192 192 192 255 0.325286 0.058656
-3.75 0 0 1 2 2 192 192 192 255 0.325286 0.058656
-3.75 3.5 0 2 -1 3 192 192 192 255 0.325286 0.058656
-1.25 3.5 0 -1 -2 2 192 192 192 255 0.325286 0.058656
-3.75 -0 -0.331874 2 1 3 192 192 192 255 0.234896 0.058656
-3.75 3.5 -0.331874 1 -2 5 192 192 192 255 0.234896 0.058656
-1.25 -0 -0.331874 -1 2 5 192 192 192 255 0.32705 0.058656
-1.25 3.5 -0.331874 -2 -1 3 192 192 192 255 0.234896 0.058656
-3.41735 0.331333 -0.331874 1 2 3 192 192 192 255 0.292366 0.058656
-3.41735 3.16867 -0.331874 2 -1 3 192 192 192 255 0.292366 0.058656
-1.58265 0.331333 -0.331874 -2 1 3 192 192 192 255 0.292366 0.058656
-1.58265 3.16867 -0.331874 -1 -2 3 192 192 192 255 0.292366 0.058656
-3.41735 2.44762 -0.331874 1 2 3 192 192 192 255 0.292366 0.058656
-1.58265 2.44762 -0.331874 -2 1 4 192 192 192 255 0.292366 0.058656
-3.41735 1.92024 -0.331874 2 -1 4 192 192 192 255 0.292366 0.058656
-1.58265 1.92024 -0.331874 -1 -2 3 192 192 192 255 0.292366 0.058656
-3.41735 2.44762 -0.495464 2 1 1 192 192 192 255 0.509448 0.674097
-3.41735 3.16867 -0.495464 1 -2 2 192 192 192 255 0.509448 0.747805
-1.58265 2.44762 -0.495464 -1 2 2 192 192 192 255 0.749074 0.674097
-1.58265 3.16867 -0.495464 -2 -1 1 192 192 192 255 0.749074 0.747805
-3.41735 1.92024 -0.495464 1 -2 1 192 192 192 255 0.74985 0.874849
-1.58265 1.92024 -0.495464 -2 -1 2 192 192 192 255 0.992068 0.874849
-3.41735 0.331333 -0.495464 2 1 2 192 192 192 255 0.74985 0.703934
-1.58265 0.331333 -0.495464 -1 2 1 192 192 192 255 0.992068 0.703934
-3.75 3.5 0 2 -1 3 192 192 192 255 0.234896 0.058656
-3.75 0 0 1 2 2 192 192 192 255 0.234896 0.058656
-3.75 0 0 1 2 2 192 192 192 255 0.32705 0.058656
-1.25 0 0 -2 1 2 192 192 192 255 0.32705 0.058656
-3.75 -0 -0.331874 2 1 3 192 192 192 255 0.32705 0.058656
-1.25 0 0 -2 1 2 192 192 192 255 0.234896 0.058656
-1.25 3.5 0 -1 -2 2 192 192 192 255 0.234896 0.058656
-1.25 -0 -0.331874 -1 2 5 192 192 192 255 0.234896 0.058656
-1.25 3.5 0 -1 -2 2 192 192 192 255 0.326099 0.058656
-3.75 3.5 0 2 -1 3 192 192 192 255 0.326099 0.058656
-3.75 3.5 -0.331874 1 -2 5 192 192 192 255 0.326099 0.058656
-1.25 3.5 -0.331874 -2 -1 3 192 192 192 255 0.326099 0.058656
-3.75 3.5 -0.331874 1 -2 5 192 192 192 255 0.292366 0.058656
-3.75 -0 -0.331874 2 1 3 192 192 192 255 0.292366 0.058656
-1.25 -0 -0.331874 -1 2 5 192 192 192 255 0.292366 0.058656
-1.25 3.5 -0.331874 -2 -1 3 192 192 192 255 0.292366 0.058656
-3.41735 3.16867 -0.331874 2 -1 3 192 192 192 255 0.232993 0.058656
-3.41735 2.44762 -0.331874 1 2 3 192 192 192 255 0.232993 0.058656
-3.41735 2.44762 -0.495464 2 1 1 192 192 192 255 0.232993 0.058656
-3.41735 3.16867 -0.495464 1 -2 2 192 192 192 255 0.232993 0.058656
-3.41735 2.44762 -0.331874 1 2 3 192 192 192 255 0.328813 0.058656
-1.58265 2.44762 -0.331874 -2 1 4 192 192 192 255 0.328813 0.058656
-1.58265 2.44762 -0.495464 -1 2 2 192 192 192 255 0.328813 0.058656
-3.41735 2.44762 -0.495464 2 1 1 192 192 192 255 0.328813 0.058656
-1.58265 2.44762 -0.331874 -2 1 4 192 192 192 255 0.232993 0.058656
-1.58265 3.16867 -0.331874 -1 -2 3 192 192 192 255 0.232993 0.058656
-1.58265 3.16867 -0.495464 -2 -1 1 192 192 192 255 0.232993 0.058656
-1.58265 2.44762 -0.495464 -1 2 2 192 192 192 255 0.232993 0.058656
-1.58265 3.16867 -0.331874 -1 -2 3 192 192 192 255 0.201837 0.058656
-3.41735 3.16867 -0.331874 2 -1 3 192 192 192 255 0.201837 0.058656
-3.41735 3.16867 -0.495464 1 -2 2 192 192 192 255 0.201837 0.058656
-1.58265 3.16867 -0.495464 -2 -1 1 192 192 192 255 0.201837 0.058656
-1.58265 1.92024 -0.331874 -1 -2 3 192 192 192 255 0.201837 0.058656
-3.41735 1.92024 -0.331874 2 -1 4 192 192 192 255 0.201837 0.058656
-3.41735 1.92024 -0.495464 1 -2 1 192 192 192 255 0.201837 0.058656
-1.58265 1.92024 -0.495464 -2 -1 2 192 192 192 255 0.201837 0.058656
-3.41735 1.92024 -0.331874 2 -1 4 192 192 192 255 0.232993 0.058656
-3.41735 0.331333 -0.331874 1 2 3 192 192 192 255 0.232993 0.058656
-3.41735 0.331333 -0.495464 2 1 2 192 192 192 255 0.232993 0.058656
-3.41735 1.92024 -0.495464 1 -2 1 192 192 192 255 0.232993 0.058656
-3.41735 0.331333 -0.331874 1 2 3 192 192 192 255 0.328813 0.058656
-1.58265 0.331333 -0.331874 -2 1 3 192 192 192 255 0.328813 0.058656
-1.58265 0.331333 -0.495464 -1 2 1 192 192 192 255 0.328813 0.058656
-3.41735 0.331333 -0.495464 2 1 2 192 192 192 255 0.328813 0.058656
-1.58265 0.331333 -0.331874 -2 1 3 192 192 192 255 0.232993 0.058656
-1.58265 1.92024 -0.331874 -1 -2 3 192 192 192 255 0.232993 0.058656
-1.58265 1.92024 -0.495464 -2 -1 2 192 192 192 255 0.232993 0.058656
-1.58265 0.331333 -0.495464 -1 2 1 192 192 192 255 0.232993 0.058656
3 3 2 6 
3 3 6 7 
3 5 6 2 
3 5 2 0 
3 21 20 22 
3 21 22 23 
3 3 7 4 
3 3 4 1 
3 28 29 8 
3 28 8 9 
3 30 31 10 
3 30 10 32 
3 33 34 11 
3 33 11 35 
3 36 37 38 
3 36 38 39 
3 40 41 12 
3 40 12 18 
3 40 18 16 
3 40 16 13 
3 41 42 14 
3 41 14 12 
3 42 43 15 
3 42 15 17 
3 42 17 19 
3 42 19 14 
3 43 40 13 
3 43 13 15 
3 17 16 18 
3 17 18 19 
3 25 24 26 
3 25 26 27 
3 44 45 46 
3 44 46 47 
3 48 49 50 
3 48 50 51 
3 52 53 54 
3 52 54 55 
3 56 57 58 
3 56 58 59 
3 60 61 62 
3 60 62 63 
3 64 65 66 
3 64 66 67 
3 68 69 70 
3 68 70 71 
3 72 73 74 
3 72 74 75 
