ply
format ascii 1.0
comment VCGLIB generated
comment TextureFile SpaceInteriors_Texture.png
element vertex 246
property float x
property float y
property float z
property float nx
property float ny
property float nz
property uchar red
property uchar green
property uchar blue
property uchar alpha
property float texture_u
property float texture_v
element face 142
property list uchar int vertex_indices
end_header
-3.79311 2.24611 0.283115 -3 -1 2 192 192 192 255 0.267261 0.061667
-3.70689 2.24611 0.283115 3 -2 1 192 192 192 255 0.267261 0.061667
-3.79311 4.03249 0.283115 -3 2 1 192 192 192 255 0.267261 0.061667
-3.70689 4.03249 0.283115 3 1 2 192 192 192 255 0.267261 0.061667
-3.79311 3.94408 0.196896 -3 -1 -2 192 192 192 255 0.267261 0.061667
-3.70689 3.94408 0.196896 3 -2 -1 192 192 192 255 0.267261 0.061667
-3.79311 2.33452 0.196896 -3 2 -1 192 192 192 255 0.267261 0.061667
-3.70689 2.33452 0.196896 3 1 -2 192 192 192 255 0.267261 0.061667
-3.79311 4.03249 0.058773 -2 1 3 192 192 192 255 0.300052 0.061667
-3.70689 4.03249 0.058773 1 2 3 192 192 192 255 0.300052 0.061667
-3.70689 3.94408 0.058773 2 -1 3 192 192 192 255 0.240032 0.061667
-3.79311 3.94408 0.058773 -1 -2 3 192 192 192 255 0.198113 0.061667
-3.79311 2.33452 0.058773 -2 1 3 192 192 192 255 0.29711 0.061667
-3.70689 2.33452 0.058773 1 2 3 192 192 192 255 0.29711 0.061667
-3.70689 2.24611 0.058773 2 -1 3 192 192 192 255 0.244197 0.061667
-3.79311 2.24611 0.058773 -1 -2 3 192 192 192 255 0.200168 0.061667
-3.82096 4.06104 0.058773 -1 2 3 192 192 192 255 0.26373 0.062198
-3.67905 4.06104 0.058773 2 1 3 192 192 192 255 0.26373 0.062198
-3.67905 3.91553 0.058773 1 -2 3 192 192 192 255 0.26373 0.062198
-3.82096 3.91553 0.058773 -2 -1 3 192 192 192 255 0.26373 0.062198
-3.82096 2.36308 0.058773 -1 2 3 192 192 192 255 0.26373 0.062198
-3.67904 2.36308 0.058773 2 1 3 192 192 192 255 0.26373 0.062198
-3.67904 2.21756 0.058773 1 -2 3 192 192 192 255 0.26373 0.062198
-3.82096 2.21756 0.058773 -2 -1 3 192 192 192 255 0.26373 0.062198
-3.82096 4.06104 4e-006 -2 1 0 192 192 192 255 0.297952 0.062198
-3.67905 4.06104 4e-006 1 2 0 192 192 192 255 0.297952 0.062198
-3.67905 3.91553 4e-006 2 -1 0 192 192 192 255 0.235124 0.062198
-3.82096 3.91553 4e-006 -1 -2 0 192 192 192 255 0.209288 0.062198
-3.82096 2.36308 4e-006 -2 1 0 192 192 192 255 0.297952 0.062198
-3.67904 2.36308 4e-006 1 2 0 192 192 192 255 0.297952 0.062198
-3.67904 2.21756 4e-006 2 -1 0 192 192 192 255 0.235124 0.062198
-3.82096 2.21756 4e-006 -1 -2 0 192 192 192 255 0.209288 0.062198
-1.29311 2.24611 0.283115 -3 -1 2 192 192 192 255 0.267261 0.061667
-1.20689 2.24611 0.283115 3 -2 1 192 192 192 255 0.267261 0.061667
-1.29311 4.03249 0.283115 -3 2 1 192 192 192 255 0.267261 0.061667
-1.20689 4.03249 0.283115 3 1 2 192 192 192 255 0.267261 0.061667
-1.29311 3.94408 0.196896 -3 -1 -2 192 192 192 255 0.267261 0.061667
-1.20689 3.94408 0.196896 3 -2 -1 192 192 192 255 0.267261 0.061667
-1.29311 2.33452 0.196896 -3 2 -1 192 192 192 255 0.267261 0.061667
-1.20689 2.33452 0.196896 3 1 -2 192 192 192 255 0.267261 0.061667
-1.29311 4.03249 0.058773 -2 1 3 192 192 192 255 0.300052 0.061667
-1.20689 4.03249 0.058773 1 2 3 192 192 192 255 0.300052 0.061667
-1.20689 3.94408 0.058773 2 -1 3 192 192 192 255 0.240032 0.061667
-1.29311 3.94408 0.058773 -1 -2 3 192 192 192 255 0.198113 0.061667
-1.29311 2.33452 0.058773 -2 1 3 192 192 192 255 0.29711 0.061667
-1.20689 2.33452 0.058773 1 2 3 192 192 192 255 0.29711 0.061667
-1.20689 2.24611 0.058773 2 -1 3 192 192 192 255 0.244197 0.061667
-1.29311 2.24611 0.058773 -1 -2 3 192 192 192 255 0.200168 0.061667
-1.32096 4.06104 0.058773 -1 2 3 192 192 192 255 0.26373 0.062198
-1.17905 4.06104 0.058773 2 1 3 192 192 192 255 0.26373 0.062198
-1.17905 3.91553 0.058773 1 -2 3 192 192 192 255 0.26373 0.062198
-1.32096 3.91553 0.058773 -2 -1 3 192 192 192 255 0.26373 0.062198
-1.32096 2.36308 0.058773 -1 2 3 192 192 192 255 0.26373 0.062198
-1.17904 2.36308 0.058773 2 1 3 192 192 192 255 0.26373 0.062198
-1.17904 2.21756 0.058773 1 -2 3 192 192 192 255 0.26373 0.062198
-1.32096 2.21756 0.058773 -2 -1 3 192 192 192 255 0.26373 0.062198
-1.32096 4.06104 4e-006 -2 1 0 192 192 192 255 0.297952 0.062198
-1.17905 4.06104 4e-006 1 2 0 192 192 192 255 0.297952 0.062198
-1.17905 3.91553 4e-006 2 -1 0 192 192 192 255 0.235124 0.062198
-1.32096 3.91553 4e-006 -1 -2 0 192 192 192 255 0.209288 0.062198
-1.32096 2.36308 4e-006 -2 1 0 192 192 192 255 0.297952 0.062198
-1.17904 2.36308 4e-006 1 2 0 192 192 192 255 0.297952 0.062198
-1.17904 2.21756 4e-006 2 -1 0 192 192 192 255 0.235124 0.062198
-1.32096 2.21756 4e-006 -1 -2 0 192 192 192 255 0.209288 0.062198
-5 0 0 0 0 1 192 192 192 255 0.919392 0.640965
0 0 0 3.06981e-007 0 1 192 192 192 255 0.990896 0.640965
-5 5 0 0 0 1 192 192 192 255 0.750427 0.873158
0 5 0 0 0 2 192 192 192 255 0.8862 0.873158
-2.5 0 0 -6.02855e-006 -2.2098e-006 5 192 192 192 255 0.990895 0.640965
-2.5 5 0 0 0 3 192 192 192 255 0.750426 0.873158
-3.75 0 0 0 0 3 192 192 192 255 0.990896 0.640965
-3.75 5 0 0 0 3 192 192 192 255 0.8862 0.873158
-1.25 0 0 6.13962e-007 0 4 192 192 192 255 0.919392 0.640965
-1.25 5 0 0 0 3 192 192 192 255 0.8862 0.873158
-5 4 0 0 0 3 192 192 192 255 0.750427 0.789687
-3.75 4 0 -9.04282e-006 -8.14695e-007 9 192 192 192 255 0.8862 0.789687
-2.5 4 0 -1.50714e-006 2.36422e-006 5 192 192 192 255 0.750426 0.789687
-1.25 4 0 3.2e-006 3.33333e-006 6 192 192 192 255 0.8862 0.789687
0 4 0 5.65585e-006 0 5 192 192 192 255 0.8862 0.789687
-2.5 1.6 4e-006 -3.01427e-006 7.68509e-007 5 192 192 192 255 0.990895 0.665364
-1.25 1.6 4e-006 5.04189e-006 -6.25318e-006 5 192 192 192 255 0.990895 0.665364
-2.5 0.58988 0 -7.53568e-006 -9.4321e-006 6 192 192 192 255 0.990895 0.64996
-1.25 0.58988 0 2.14887e-006 -3.95993e-006 4 192 192 192 255 0.919392 0.64996
-3.75 3.2 0 0 0 5 192 192 192 255 0.919392 0.689764
-5 3.2 0 0 0 3 192 192 192 255 0.919392 0.689764
-3.75 1.68097 0 0 0 4 192 192 192 255 0.990896 0.666599
-5 1.68097 0 0 0 4 192 192 192 255 0.919392 0.666599
-3.70689 2.24611 0.283115 3 -2 1 192 192 192 255 0.233148 0.061667
-3.70689 2.33452 0.196896 3 1 -2 192 192 192 255 0.233148 0.061667
-3.70689 3.94408 0.196896 3 -2 -1 192 192 192 255 0.233148 0.061667
-3.70689 4.03249 0.283115 3 1 2 192 192 192 255 0.233148 0.061667
-3.79311 2.33452 0.196896 -3 2 -1 192 192 192 255 0.233148 0.061667
-3.79311 2.24611 0.283115 -3 -1 2 192 192 192 255 0.233148 0.061667
-3.79311 4.03249 0.283115 -3 2 1 192 192 192 255 0.233148 0.061667
-3.79311 3.94408 0.196896 -3 -1 -2 192 192 192 255 0.233148 0.061667
-3.79311 4.03249 0.283115 -3 2 1 192 192 192 255 0.300052 0.061667
-3.70689 4.03249 0.283115 3 1 2 192 192 192 255 0.300052 0.061667
-3.70689 4.03249 0.283115 3 1 2 192 192 192 255 0.240032 0.061667
-3.70689 3.94408 0.196896 3 -2 -1 192 192 192 255 0.240032 0.061667
-3.70689 4.03249 0.058773 1 2 3 192 192 192 255 0.240032 0.061667
-3.70689 3.94408 0.196896 3 -2 -1 192 192 192 255 0.198113 0.061667
-3.79311 3.94408 0.196896 -3 -1 -2 192 192 192 255 0.198113 0.061667
-3.70689 3.94408 0.058773 2 -1 3 192 192 192 255 0.198113 0.061667
-3.79311 3.94408 0.196896 -3 -1 -2 192 192 192 255 0.240032 0.061667
-3.79311 4.03249 0.283115 -3 2 1 192 192 192 255 0.240032 0.061667
-3.79311 4.03249 0.058773 -2 1 3 192 192 192 255 0.240032 0.061667
-3.79311 3.94408 0.058773 -1 -2 3 192 192 192 255 0.240032 0.061667
-3.79311 2.33452 0.196896 -3 2 -1 192 192 192 255 0.29711 0.061667
-3.70689 2.33452 0.196896 3 1 -2 192 192 192 255 0.29711 0.061667
-3.70689 2.33452 0.196896 3 1 -2 192 192 192 255 0.244197 0.061667
-3.70689 2.24611 0.283115 3 -2 1 192 192 192 255 0.244197 0.061667
-3.70689 2.33452 0.058773 1 2 3 192 192 192 255 0.244197 0.061667
-3.70689 2.24611 0.283115 3 -2 1 192 192 192 255 0.200168 0.061667
-3.79311 2.24611 0.283115 -3 -1 2 192 192 192 255 0.200168 0.061667
-3.70689 2.24611 0.058773 2 -1 3 192 192 192 255 0.200168 0.061667
-3.79311 2.24611 0.283115 -3 -1 2 192 192 192 255 0.244197 0.061667
-3.79311 2.33452 0.196896 -3 2 -1 192 192 192 255 0.244197 0.061667
-3.79311 2.33452 0.058773 -2 1 3 192 192 192 255 0.244197 0.061667
-3.79311 2.24611 0.058773 -1 -2 3 192 192 192 255 0.244197 0.061667
-3.79311 4.03249 0.058773 -2 1 3 192 192 192 255 0.26373 0.062198
-3.70689 4.03249 0.058773 1 2 3 192 192 192 255 0.26373 0.062198
-3.70689 3.94408 0.058773 2 -1 3 192 192 192 255 0.26373 0.062198
-3.79311 3.94408 0.058773 -1 -2 3 192 192 192 255 0.26373 0.062198
-3.79311 2.33452 0.058773 -2 1 3 192 192 192 255 0.26373 0.062198
-3.70689 2.33452 0.058773 1 2 3 192 192 192 255 0.26373 0.062198
-3.70689 2.24611 0.058773 2 -1 3 192 192 192 255 0.26373 0.062198
-3.79311 2.24611 0.058773 -1 -2 3 192 192 192 255 0.26373 0.062198
-3.82096 4.06104 0.058773 -1 2 3 192 192 192 255 0.297952 0.062198
-3.67905 4.06104 0.058773 2 1 3 192 192 192 255 0.297952 0.062198
-3.67905 4.06104 0.058773 2 1 3 192 192 192 255 0.235124 0.062198
-3.67905 3.91553 0.058773 1 -2 3 192 192 192 255 0.235124 0.062198
-3.67905 4.06104 4e-006 1 2 0 192 192 192 255 0.235124 0.062198
-3.67905 3.91553 0.058773 1 -2 3 192 192 192 255 0.209288 0.062198
-3.82096 3.91553 0.058773 -2 -1 3 192 192 192 255 0.209288 0.062198
-3.67905 3.91553 4e-006 2 -1 0 192 192 192 255 0.209288 0.062198
-3.82096 3.91553 0.058773 -2 -1 3 192 192 192 255 0.235124 0.062198
-3.82096 4.06104 0.058773 -1 2 3 192 192 192 255 0.235124 0.062198
-3.82096 4.06104 4e-006 -2 1 0 192 192 192 255 0.235124 0.062198
-3.82096 3.91553 4e-006 -1 -2 0 192 192 192 255 0.235124 0.062198
-3.82096 2.36308 0.058773 -1 2 3 192 192 192 255 0.297952 0.062198
-3.67904 2.36308 0.058773 2 1 3 192 192 192 255 0.297952 0.062198
-3.67904 2.36308 0.058773 2 1 3 192 192 192 255 0.235124 0.062198
-3.67904 2.21756 0.058773 1 -2 3 192 192 192 255 0.235124 0.062198
-3.67904 2.36308 4e-006 1 2 0 192 192 192 255 0.235124 0.062198
-3.67904 2.21756 0.058773 1 -2 3 192 192 192 255 0.209288 0.062198
-3.82096 2.21756 0.058773 -2 -1 3 192 192 192 255 0.209288 0.062198
-3.67904 2.21756 4e-006 2 -1 0 192 192 192 255 0.209288 0.062198
-3.82096 2.21756 0.058773 -2 -1 3 192 192 192 255 0.235124 0.062198
-3.82096 2.36308 0.058773 -1 2 3 192 192 192 255 0.235124 0.062198
-3.82096 2.36308 4e-006 -2 1 0 192 192 192 255 0.235124 0.062198
-3.82096 2.21756 4e-006 -1 -2 0 192 192 192 255 0.235124 0.062198
-1.20689 2.24611 0.283115 3 -2 1 192 192 192 255 0.233148 0.061667
-1.20689 2.33452 0.196896 3 1 -2 192 192 192 255 0.233148 0.061667
-1.20689 3.94408 0.196896 3 -2 -1 192 192 192 255 0.233148 0.061667
-1.20689 4.03249 0.283115 3 1 2 192 192 192 255 0.233148 0.061667
-1.29311 2.33452 0.196896 -3 2 -1 192 192 192 255 0.233148 0.061667
-1.29311 2.24611 0.283115 -3 -1 2 192 192 192 255 0.233148 0.061667
-1.29311 4.03249 0.283115 -3 2 1 192 192 192 255 0.233148 0.061667
-1.29311 3.94408 0.196896 -3 -1 -2 192 192 192 255 0.233148 0.061667
-1.29311 4.03249 0.283115 -3 2 1 192 192 192 255 0.300052 0.061667
-1.20689 4.03249 0.283115 3 1 2 192 192 192 255 0.300052 0.061667
-1.20689 4.03249 0.283115 3 1 2 192 192 192 255 0.240032 0.061667
-1.20689 3.94408 0.196896 3 -2 -1 192 192 192 255 0.240032 0.061667
-1.20689 4.03249 0.058773 1 2 3 192 192 192 255 0.240032 0.061667
-1.20689 3.94408 0.196896 3 -2 -1 192 192 192 255 0.198113 0.061667
-1.29311 3.94408 0.196896 -3 -1 -2 192 192 192 255 0.198113 0.061667
-1.20689 3.94408 0.058773 2 -1 3 192 192 192 255 0.198113 0.061667
-1.29311 3.94408 0.196896 -3 -1 -2 192 192 192 255 0.240032 0.061667
-1.29311 4.03249 0.283115 -3 2 1 192 192 192 255 0.240032 0.061667
-1.29311 4.03249 0.058773 -2 1 3 192 192 192 255 0.240032 0.061667
-1.29311 3.94408 0.058773 -1 -2 3 192 192 192 255 0.240032 0.061667
-1.29311 2.33452 0.196896 -3 2 -1 192 192 192 255 0.29711 0.061667
-1.20689 2.33452 0.196896 3 1 -2 192 192 192 255 0.29711 0.061667
-1.20689 2.33452 0.196896 3 1 -2 192 192 192 255 0.244197 0.061667
-1.20689 2.24611 0.283115 3 -2 1 192 192 192 255 0.244197 0.061667
-1.20689 2.33452 0.058773 1 2 3 192 192 192 255 0.244197 0.061667
-1.20689 2.24611 0.283115 3 -2 1 192 192 192 255 0.200168 0.061667
-1.29311 2.24611 0.283115 -3 -1 2 192 192 192 255 0.200168 0.061667
-1.20689 2.24611 0.058773 2 -1 3 192 192 192 255 0.200168 0.061667
-1.29311 2.24611 0.283115 -3 -1 2 192 192 192 255 0.244197 0.061667
-1.29311 2.33452 0.196896 -3 2 -1 192 192 192 255 0.244197 0.061667
-1.29311 2.33452 0.058773 -2 1 3 192 192 192 255 0.244197 0.061667
-1.29311 2.24611 0.058773 -1 -2 3 192 192 192 255 0.244197 0.061667
-1.29311 4.03249 0.058773 -2 1 3 192 192 192 255 0.26373 0.062198
-1.20689 4.03249 0.058773 1 2 3 192 192 192 255 0.26373 0.062198
-1.20689 3.94408 0.058773 2 -1 3 192 192 192 255 0.26373 0.062198
-1.29311 3.94408 0.058773 -1 -2 3 192 192 192 255 0.26373 0.062198
-1.29311 2.33452 0.058773 -2 1 3 192 192 192 255 0.26373 0.062198
-1.20689 2.33452 0.058773 1 2 3 192 192 192 255 0.26373 0.062198
-1.20689 2.24611 0.058773 2 -1 3 192 192 192 255 0.26373 0.062198
-1.29311 2.24611 0.058773 -1 -2 3 192 192 192 255 0.26373 0.062198
-1.32096 4.06104 0.058773 -1 2 3 192 192 192 255 0.297952 0.062198
-1.17905 4.06104 0.058773 2 1 3 192 192 192 255 0.297952 0.062198
-1.17905 4.06104 0.058773 2 1 3 192 192 192 255 0.235124 0.062198
-1.17905 3.91553 0.058773 1 -2 3 192 192 192 255 0.235124 0.062198
-1.17905 4.06104 4e-006 1 2 0 192 192 192 255 0.235124 0.062198
-1.17905 3.91553 0.058773 1 -2 3 192 192 192 255 0.209288 0.062198
-1.32096 3.91553 0.058773 -2 -1 3 192 192 192 255 0.209288 0.062198
-1.17905 3.91553 4e-006 2 -1 0 192 192 192 255 0.209288 0.062198
-1.32096 3.91553 0.058773 -2 -1 3 192 192 192 255 0.235124 0.062198
-1.32096 4.06104 0.058773 -1 2 3 192 192 192 255 0.235124 0.062198
-1.32096 4.06104 4e-006 -2 1 0 192 192 192 255 0.235124 0.062198
-1.32096 3.91553 4e-006 -1 -2 0 192 192 192 255 0.235124 0.062198
-1.32096 2.36308 0.058773 -1 2 3 192 192 192 255 0.297952 0.062198
-1.17904 2.36308 0.058773 2 1 3 192 192 192 255 0.297952 0.062198
-1.17904 2.36308 0.058773 2 1 3 192 192 192 255 0.235124 0.062198
-1.17904 2.21756 0.058773 1 -2 3 192 192 192 255 0.235124 0.062198
-1.17904 2.36308 4e-006 1 2 0 192 192 192 255 0.235124 0.062198
-1.17904 2.21756 0.058773 1 -2 3 192 192 192 255 0.209288 0.062198
-1.32096 2.21756 0.058773 -2 -1 3 192 192 192 255 0.209288 0.062198
-1.17904 2.21756 4e-006 2 -1 0 192 192 192 255 0.209288 0.062198
-1.32096 2.21756 0.058773 -2 -1 3 192 192 192 255 0.235124 0.062198
-1.32096 2.36308 0.058773 -1 2 3 192 192 192 255 0.235124 0.062198
-1.32096 2.36308 4e-006 -2 1 0 192 192 192 255 0.235124 0.062198
-1.32096 2.21756 4e-006 -1 -2 0 192 192 192 255 0.235124 0.062198
-3.75 4 0 -9.04282e-006 -8.14695e-007 9 192 192 192 255 0.750427 0.789687
-2.5 4 0 -1.50714e-006 2.36422e-006 5 192 192 192 255 0.8862 0.789687
-2.5 5 0 0 0 3 192 192 192 255 0.8862 0.873158
-3.75 5 0 0 0 3 192 192 192 255 0.750427 0.873158
-1.25 5 0 0 0 3 192 192 192 255 0.750427 0.873158
-1.25 4 0 3.2e-006 3.33333e-006 6 192 192 192 255 0.750427 0.789687
-3.75 4 0 -9.04282e-006 -8.14695e-007 9 192 192 192 255 0.919392 0.701964
-2.5 4 0 -1.50714e-006 2.36422e-006 5 192 192 192 255 0.990895 0.701964
-3.75 1.68097 0 0 0 4 192 192 192 255 0.919392 0.666599
-3.75 0 0 0 0 3 192 192 192 255 0.919392 0.640965
-2.5 1.6 4e-006 -3.01427e-006 7.68509e-007 5 192 192 192 255 0.919392 0.665364
-1.25 4 0 3.2e-006 3.33333e-006 6 192 192 192 255 0.990895 0.701964
-2.5 4 0 -1.50714e-006 2.36422e-006 5 192 192 192 255 0.919392 0.701964
0 4 0 5.65585e-006 0 5 192 192 192 255 0.990896 0.701964
-1.25 4 0 3.2e-006 3.33333e-006 6 192 192 192 255 0.919392 0.701964
-1.25 1.6 4e-006 5.04189e-006 -6.25318e-006 5 192 192 192 255 0.919392 0.665364
-2.5 0.58988 0 -7.53568e-006 -9.4321e-006 6 192 192 192 255 0.645506 0.880689
-1.25 0.58988 0 2.14887e-006 -3.95993e-006 4 192 192 192 255 0.750246 0.880689
-1.25 1.6 4e-006 5.04189e-006 -6.25318e-006 5 192 192 192 255 0.750246 0.992325
-2.5 1.6 4e-006 -3.01427e-006 7.68509e-007 5 192 192 192 255 0.645506 0.992325
-1.25 0 0 6.13962e-007 0 4 192 192 192 255 0.990895 0.640965
-1.25 0.58988 0 2.14887e-006 -3.95993e-006 4 192 192 192 255 0.990895 0.64996
-2.5 0.58988 0 -7.53568e-006 -9.4321e-006 6 192 192 192 255 0.919392 0.64996
-2.5 0 0 -6.02855e-006 -2.2098e-006 5 192 192 192 255 0.919392 0.640965
-3.75 3.2 0 0 0 5 192 192 192 255 0.990896 0.689764
-3.75 4 0 -9.04282e-006 -8.14695e-007 9 192 192 192 255 0.990896 0.701964
-5 4 0 0 0 3 192 192 192 255 0.919392 0.701964
-5 1.68097 0 0 0 4 192 192 192 255 0.886586 0.764848
-3.75 1.68097 0 0 0 4 192 192 192 255 0.991385 0.764848
-3.75 3.2 0 0 0 5 192 192 192 255 0.991385 0.872857
-5 3.2 0 0 0 3 192 192 192 255 0.886586 0.872857
3 0 1 3 
3 0 3 2 
3 4 5 7 
3 4 7 6 
3 87 88 89 
3 87 89 90 
3 91 92 93 
3 91 93 94 
3 95 96 9 
3 95 9 8 
3 97 98 10 
3 97 10 99 
3 100 101 11 
3 100 11 102 
3 103 104 105 
3 103 105 106 
3 107 108 13 
3 107 13 12 
3 109 110 14 
3 109 14 111 
3 112 113 15 
3 112 15 114 
3 115 116 117 
3 115 117 118 
3 119 120 17 
3 119 17 16 
3 120 121 18 
3 120 18 17 
3 121 122 19 
3 121 19 18 
3 122 119 16 
3 122 16 19 
3 123 124 21 
3 123 21 20 
3 124 125 22 
3 124 22 21 
3 125 126 23 
3 125 23 22 
3 126 123 20 
3 126 20 23 
3 127 128 25 
3 127 25 24 
3 129 130 26 
3 129 26 131 
3 132 133 27 
3 132 27 134 
3 135 136 137 
3 135 137 138 
3 139 140 29 
3 139 29 28 
3 141 142 30 
3 141 30 143 
3 144 145 31 
3 144 31 146 
3 147 148 149 
3 147 149 150 
3 32 33 35 
3 32 35 34 
3 36 37 39 
3 36 39 38 
3 151 152 153 
3 151 153 154 
3 155 156 157 
3 155 157 158 
3 159 160 41 
3 159 41 40 
3 161 162 42 
3 161 42 163 
3 164 165 43 
3 164 43 166 
3 167 168 169 
3 167 169 170 
3 171 172 45 
3 171 45 44 
3 173 174 46 
3 173 46 175 
3 176 177 47 
3 176 47 178 
3 179 180 181 
3 179 181 182 
3 183 184 49 
3 183 49 48 
3 184 185 50 
3 184 50 49 
3 185 186 51 
3 185 51 50 
3 186 183 48 
3 186 48 51 
3 187 188 53 
3 187 53 52 
3 188 189 54 
3 188 54 53 
3 189 190 55 
3 189 55 54 
3 190 187 52 
3 190 52 55 
3 191 192 57 
3 191 57 56 
3 193 194 58 
3 193 58 195 
3 196 197 59 
3 196 59 198 
3 199 200 201 
3 199 201 202 
3 203 204 61 
3 203 61 60 
3 205 206 62 
3 205 62 207 
3 208 209 63 
3 208 63 210 
3 211 212 213 
3 211 213 214 
3 74 75 71 
3 74 71 66 
3 76 77 73 
3 76 73 69 
3 215 216 217 
3 215 217 218 
3 67 219 220 
3 67 220 78 
3 70 85 86 
3 70 86 64 
3 221 83 68 
3 221 68 81 
3 221 81 79 
3 221 79 222 
3 223 224 68 
3 223 68 83 
3 225 80 226 
3 225 226 227 
3 228 229 230 
3 228 230 82 
3 228 82 72 
3 228 72 65 
3 231 232 233 
3 231 233 234 
3 235 236 237 
3 235 237 238 
3 84 239 240 
3 84 240 241 
3 242 243 244 
3 242 244 245 
