ply
format ascii 1.0
comment VCGLIB generated
comment TextureFile SpaceInteriors_Texture.png
element vertex 20
property float x
property float y
property float z
property float nx
property float ny
property float nz
property uchar red
property uchar green
property uchar blue
property uchar alpha
property float texture_u
property float texture_v
element face 10
property list uchar int vertex_indices
end_header
-10 0 -10 0 1 0 192 192 192 255 0.275592 0.060173
0 0 -10 0 2 0 192 192 192 255 0.275592 0.060173
-10 0 0 0 1 0 192 192 192 255 0.275592 0.060173
0 0 0 0 2 0 192 192 192 255 0.275592 0.060173
-10 0 -9.34991 0 3 0 192 192 192 255 0.275592 0.060173
0 0 -9.34991 0 3 0 192 192 192 255 0.275592 0.060173
-10 0 -0.650089 0 4 0 192 192 192 255 0.275592 0.060173
0 0 -0.650089 0 2 0 192 192 192 255 0.275592 0.060173
-10 0 -0.950001 0 2 0 192 192 192 255 0.202744 0.170573
0 0 -0.950001 0 4 0 192 192 192 255 0.202744 0.170573
-10 0 -9.05 0 4 0 192 192 192 255 0.202744 0.170573
0 0 -9.05 0 2 0 192 192 192 255 0.202744 0.170573
0 0 -9.34991 0 3 0 192 192 192 255 0.202744 0.170573
-10 0 -9.34991 0 3 0 192 192 192 255 0.202744 0.170573
-10 0 -0.650089 0 4 0 192 192 192 255 0.202744 0.170573
0 0 -0.650089 0 2 0 192 192 192 255 0.202744 0.170573
0 0 -0.950001 0 4 0 192 192 192 255 0.275592 0.060173
0 0 -9.05 0 2 0 192 192 192 255 0.275592 0.060173
-10 0 -9.05 0 4 0 192 192 192 255 0.275592 0.060173
-10 0 -0.950001 0 2 0 192 192 192 255 0.275592 0.060173
3 4 5 1 
3 4 1 0 
3 10 11 12 
3 10 12 13 
3 3 7 6 
3 3 6 2 
3 14 15 9 
3 14 9 8 
3 16 17 18 
3 16 18 19 
