ply
format ascii 1.0
comment VCGLIB generated
comment TextureFile SpaceInteriors_Texture.png
element vertex 585
property float x
property float y
property float z
property float nx
property float ny
property float nz
property uchar red
property uchar green
property uchar blue
property uchar alpha
property float texture_u
property float texture_v
element face 359
property list uchar int vertex_indices
end_header
-3.31582 1.89462 0.991211 -1 -1 2 192 192 192 255 0.367151 0.061667
-3.03112 1.89462 0.991211 2 -2 1 192 192 192 255 0.367151 0.061667
-3.31582 2.06785 0.991211 -2 2 1 192 192 192 255 0.367151 0.061667
-3.03112 2.06785 0.991211 1 1 2 192 192 192 255 0.367151 0.061667
-3.31582 2.06785 0.825073 -1 1 0 192 192 192 255 0.402016 0.061667
-3.03112 2.06785 0.825073 2 2 0 192 192 192 255 0.402016 0.061667
-3.31582 1.89462 0.825073 -2 -2 0 192 192 192 255 0.302131 0.061667
-3.03112 1.89462 0.825073 1 -1 0 192 192 192 255 0.302131 0.061667
-3.31582 2.90658 0.991211 -1 -1 2 192 192 192 255 0.367151 0.061667
-3.03112 2.90658 0.991211 2 -2 1 192 192 192 255 0.367151 0.061667
-3.31582 3.07981 0.991211 -2 2 1 192 192 192 255 0.367151 0.061667
-3.03112 3.07981 0.991211 1 1 2 192 192 192 255 0.367151 0.061667
-3.31582 3.07981 0.825073 -1 1 0 192 192 192 255 0.402016 0.061667
-3.03112 3.07981 0.825073 2 2 0 192 192 192 255 0.402016 0.061667
-3.31582 2.90658 0.825073 -2 -2 0 192 192 192 255 0.302131 0.061667
-3.03112 2.90658 0.825073 1 -1 0 192 192 192 255 0.302131 0.061667
-2.8001 2.19992 1.03588 -1 -2 -3 192 192 192 255 0.265363 0.061977
-2.19994 2.19992 1.03588 2 -1 -3 192 192 192 255 0.265363 0.061977
-2.8001 2.19992 1.12486 -2 -1 3 192 192 192 255 0.265363 0.061977
-2.19994 2.19992 1.12486 1 -2 3 192 192 192 255 0.265363 0.061977
-2.8001 2.80006 1.12486 -1 2 3 192 192 192 255 0.265363 0.061977
-2.19994 2.80006 1.12486 2 1 3 192 192 192 255 0.265363 0.061977
-2.8001 2.80006 1.03588 -2 1 -3 192 192 192 255 0.265363 0.061977
-2.19994 2.80006 1.03588 1 2 -3 192 192 192 255 0.265363 0.061977
-2.72945 2.27058 1.12486 1 1 3 192 192 192 255 0.300228 0.061977
-2.27062 2.27058 1.12486 -1 2 3 192 192 192 255 0.300228 0.061977
-2.27062 2.7294 1.12486 -2 -2 3 192 192 192 255 0.300228 0.061977
-2.72945 2.7294 1.12486 2 -1 3 192 192 192 255 0.300228 0.061977
-2.72945 2.7294 1.03588 1 -2 -3 192 192 192 255 0.200343 0.061977
-2.27062 2.7294 1.03588 -1 -1 -3 192 192 192 255 0.200343 0.061977
-2.27062 2.27058 1.03588 -2 1 -3 192 192 192 255 0.200343 0.061977
-2.72945 2.27058 1.03588 2 2 -3 192 192 192 255 0.200343 0.061977
-3.37961 1.6204 -7.6e-005 -1 -2 -1 192 192 192 255 0.172088 0.062686
-1.6204 1.6204 -7.6e-005 2 -1 -2 192 192 192 255 0.172088 0.062686
-3.20123 1.79876 0.948563 -2 -1 3 192 192 192 255 0.236718 0.061667
-1.79877 1.79876 0.948563 1 -2 3 192 192 192 255 0.236718 0.061667
-3.20123 3.20123 0.948563 -1 2 3 192 192 192 255 0.236144 0.061667
-1.79877 3.20123 0.948563 2 1 3 192 192 192 255 0.238957 0.061667
-3.37961 3.3796 -7.6e-005 -2 1 -2 192 192 192 255 0.172088 0.062686
-1.6204 3.3796 -7.6e-005 1 2 -1 192 192 192 255 0.172088 0.062686
-3.37961 3.3796 0.825073 -1 2 3 192 192 192 255 0.269275 0.063036
-3.37961 1.6204 0.825073 -2 -1 3 192 192 192 255 0.269275 0.063036
-1.6204 1.6204 0.825073 1 -2 3 192 192 192 255 0.269275 0.063036
-1.6204 3.3796 0.825073 2 1 3 192 192 192 255 0.269275 0.063036
-1.79877 1.79876 0.825073 2 -1 3 192 192 192 255 0.269275 0.063036
-3.20123 1.79876 0.825073 -1 -2 3 192 192 192 255 0.269275 0.063036
-3.20123 3.20123 0.825073 -2 1 3 192 192 192 255 0.269275 0.063036
-1.79877 3.20123 0.825073 1 2 3 192 192 192 255 0.269275 0.063036
-2.58816 2.41186 0.948563 -1.89389 -0.946936 3.96421 192 192 192 255 0.951238 0.667547
-2.41189 2.41186 0.948563 0.946925 -1.89387 3.9643 192 192 192 255 0.960144 0.667547
-2.41189 2.58814 0.948563 1.89385 0.946936 3.96433 192 192 192 255 0.960144 0.675527
-2.58816 2.58814 0.948563 -0.946945 1.89387 3.96424 192 192 192 255 0.951238 0.675527
-2.5342 2.46581 1.14049 -1.65456 -0.827378 3.68522 192 192 192 255 0.293294 0.061973
-2.46585 2.46581 1.14049 0.827265 -1.65476 2.6851 192 192 192 255 0.293294 0.061973
-2.46585 2.53418 1.14049 1.65453 0.827268 3.68543 192 192 192 255 0.293294 0.061973
-2.5342 2.53418 1.14049 -0.827282 1.65454 2.6854 192 192 192 255 0.293294 0.061973
-2.44714 2.4471 1.05239 3.89385 -1.94694 -2.03567 192 192 192 255 0.230297 0.061973
-2.55292 2.4471 1.05239 -1.94694 -3.89387 -2.03576 192 192 192 255 0.230297 0.061973
-2.55292 2.55289 1.05239 -3.89389 1.94694 -2.03579 192 192 192 255 0.230297 0.061973
-2.44714 2.55289 1.05239 1.94693 3.89387 -2.0357 192 192 192 255 0.193207 0.061973
-2.44714 2.4471 1.11293 2.65453 -2.82738 4.68527 192 192 192 255 0.230297 0.061973
-2.55292 2.4471 1.11293 -2.82728 -2.65476 4.68508 192 192 192 255 0.230297 0.061973
-2.55292 2.55289 1.11293 -2.65456 2.82727 4.68538 192 192 192 255 0.193207 0.061973
-2.44714 2.55289 1.11293 2.82727 2.65454 4.68542 192 192 192 255 0.230297 0.061973
-2.72943 2.4471 1.05239 0 -1 -2 192 192 192 255 0.193207 0.061973
-2.72943 2.55289 1.05239 0 2 -1 192 192 192 255 0.193207 0.061973
-2.72943 2.4471 1.11293 0 -2 1 192 192 192 255 0.231366 0.061973
-2.72943 2.55289 1.11293 0 1 2 192 192 192 255 0.294796 0.061971
-2.27062 2.55289 1.05239 0 1 -2 192 192 192 255 0.193207 0.061973
-2.27062 2.4471 1.05239 0 -2 -1 192 192 192 255 0.193207 0.061973
-2.27062 2.55289 1.11293 0 2 1 192 192 192 255 0.231366 0.061973
-2.27062 2.4471 1.11293 0 -1 2 192 192 192 255 0.294796 0.061971
-2.44714 2.27058 1.05239 1 0 -2 192 192 192 255 0.230297 0.061973
-2.55292 2.27058 1.05239 -2 0 -1 192 192 192 255 0.230297 0.061973
-2.44714 2.27058 1.11293 2 0 1 192 192 192 255 0.198871 0.061973
-2.55292 2.27058 1.11293 -1 0 2 192 192 192 255 0.294796 0.061971
-2.55292 2.7294 1.05239 -1 0 -2 192 192 192 255 0.230297 0.061973
-2.44714 2.7294 1.05239 2 0 -1 192 192 192 255 0.230297 0.061973
-2.55292 2.7294 1.11293 -2 0 1 192 192 192 255 0.198871 0.061973
-2.44714 2.7294 1.11293 1 0 2 192 192 192 255 0.294796 0.061971
-1.6204 3.3796 0.577671 1 2 -3 192 192 192 255 0.205069 0.062686
-3.37961 3.3796 0.577671 -2 1 -3 192 192 192 255 0.205069 0.062686
-3.37961 1.6204 0.577671 -1 -2 -3 192 192 192 255 0.205069 0.062686
-1.6204 1.6204 0.577671 2 -1 -3 192 192 192 255 0.237107 0.062686
-1.6204 3.3796 0.289806 2 1 3 192 192 192 255 0.237107 0.062686
-3.37961 3.3796 0.289806 -1 2 3 192 192 192 255 0.237107 0.062686
-3.37961 1.6204 0.289806 -2 -1 3 192 192 192 255 0.205069 0.062686
-1.6204 1.6204 0.289806 1 -2 3 192 192 192 255 0.237107 0.062686
-1.66956 3.33044 0.577671 2 1 -3 192 192 192 255 0.199963 0.062686
-3.33044 3.33044 0.577671 -1 2 -3 192 192 192 255 0.199963 0.062686
-1.66956 3.33044 0.289806 1 2 3 192 192 192 255 0.199963 0.062686
-3.33044 3.33044 0.289806 -2 1 3 192 192 192 255 0.199963 0.062686
-3.33044 1.66956 0.289806 -1 -2 3.00003 192 192 192 255 0.167925 0.062686
-3.33044 1.66956 0.577671 -2 -1 -2.99999 192 192 192 255 0.167925 0.062686
-1.66956 1.66956 0.289806 2 -1 3.00001 192 192 192 255 0.199963 0.062686
-1.66956 1.66956 0.577671 1 -2 -2.99997 192 192 192 255 0.199963 0.062686
-5 0 1.25 2.48595e-008 1.41421 1.41422 192 192 192 255 0.300119 0.063433
0 0 1.25 0 2.82841 2.82844 192 192 192 255 0.300119 0.063433
-5 5 1.25 0 -0.707107 0.707107 192 192 192 255 0.300119 0.063433
0 5 1.25 0 -1.41421 1.41421 192 192 192 255 0.300119 0.063433
-5 3.75 0 0 -1.41421 3.41421 192 192 192 255 0.300119 0.063433
0 3.75 0 0 -0.707107 1.70711 192 192 192 255 0.300119 0.063433
-5 1.25 0 4.97189e-008 2.12131 3.12133 192 192 192 255 0.587899 0.592067
0 1.25 0 0 2.12131 5.12134 192 192 192 255 0.749348 0.592067
-0.733047 0.356813 1.20057 -3 -1.0001 1.99989 192 192 192 255 0.200168 0.219525
-0.646828 0.356813 1.20057 3 -2 1 192 192 192 255 0.244197 0.219525
-0.733047 4.64255 1.20057 -3 2 1 192 192 192 255 0.300052 0.219525
-0.646828 4.64255 1.20057 3 1 2 192 192 192 255 0.300052 0.219525
-0.733047 4.55414 1.11435 -3 -1 0 192 192 192 255 0.198113 0.219525
-0.646828 4.55414 1.11435 3 -2 0 192 192 192 255 0.240032 0.219525
-0.733047 0.445222 1.11435 -4 1.31184 -0.725832 192 192 192 255 0.29711 0.219525
-0.646828 0.445222 1.11435 3 -0.375996 -1.45129 192 192 192 255 0.29711 0.219525
-0.733047 4.64255 0.976231 -2 1 3 192 192 192 255 0.300052 0.219525
-0.646828 4.64255 0.976231 1 2 3 192 192 192 255 0.300052 0.219525
-0.646828 4.55414 0.976231 2 -1 3 192 192 192 255 0.240032 0.219525
-0.733047 4.55414 0.976231 -1 -2 3 192 192 192 255 0.198113 0.219525
-0.733047 0.445222 0.976231 -2 0.999932 2.99993 192 192 192 255 0.29711 0.219525
-0.646828 0.445222 0.976231 2 2 3 192 192 192 255 0.29711 0.219525
-0.646828 0.356813 0.976231 1 -1 3 192 192 192 255 0.244197 0.219525
-0.733047 0.356813 0.976231 -1 -2.00003 2.99997 192 192 192 255 0.200168 0.219525
-0.760895 4.6711 0.976231 -1 2 3 192 192 192 255 0.202727 0.220055
-0.618988 4.6711 0.976231 2 1 3 192 192 192 255 0.202727 0.220055
-0.618988 4.52559 0.976231 1 -2 3 192 192 192 255 0.202727 0.220055
-0.760895 4.52559 0.976231 -2 -1 3 192 192 192 255 0.202727 0.220055
-0.760895 0.473775 0.976231 -1 2 3 192 192 192 255 0.200573 0.220055
-0.61898 0.473775 0.976231 2 1 3 192 192 192 255 0.200573 0.220055
-0.61898 0.32826 0.976231 1 -2 3 192 192 192 255 0.200573 0.220055
-0.760895 0.32826 0.976231 -2 -1 3 192 192 192 255 0.200573 0.220055
-0.760895 4.6711 0.917461 -2 1 0 192 192 192 255 0.236948 0.220055
-0.618988 4.6711 0.917461 1 2 0 192 192 192 255 0.236948 0.220055
-0.618988 4.52559 0.752975 2 -1 0 192 192 192 255 0.174121 0.220055
-0.760895 4.52559 0.752975 -1 -2 0 192 192 192 255 0.148284 0.220055
-0.760895 0.473775 0.752975 -2 1 0 192 192 192 255 0.234795 0.220055
-0.61898 0.473775 0.752975 1 2 0 192 192 192 255 0.234795 0.220055
-0.61898 0.32826 0.917461 2 -1 0 192 192 192 255 0.171967 0.220055
-0.760895 0.32826 0.917461 -1 -2 0 192 192 192 255 0.146131 0.220055
-0.733047 1.25 0.35133 -3 -1.37609 -2.4514 192 192 192 255 0.234965 0.219525
-0.733047 1.28541 0.437553 -3 0.672231 2.7402 192 192 192 255 0.234965 0.219525
-0.646835 1.28541 0.437553 3 1.34466 2.48072 192 192 192 255 0.234965 0.219525
-0.646828 1.25 0.35133 3 -0.687902 -2.7255 192 192 192 255 0.234965 0.219525
-0.733047 3.7146 0.437553 -3 -1.34515 2.48006 192 192 192 255 0.234965 0.219525
-0.733047 3.75 0.35133 -3 0.688316 -2.72541 192 192 192 255 0.234965 0.219525
-0.646835 3.75 0.35133 3 1.37663 -2.45074 192 192 192 255 0.234965 0.219525
-0.646835 3.7146 0.437553 3 -0.672587 2.74007 192 192 192 255 0.234965 0.219525
-0.646828 4.55414 1.20057 3 -1.34516 2.48006 192 192 192 255 0.233148 0.219525
-0.733047 4.55414 1.20057 -3 -0.672574 2.74003 192 192 192 255 0.233148 0.219525
-0.733047 4.55414 1.11435 -3 1.37663 -1.45082 192 192 192 255 0.233148 0.219525
-0.646828 4.55414 1.11435 3 0.688302 -0.725414 192 192 192 255 0.267261 0.219525
-0.733055 0.445222 1.20057 -2 1.34452 2.48049 192 192 192 255 0.233148 0.219525
-0.646835 0.445222 1.20057 3 0.672423 2.74042 192 192 192 255 0.233148 0.219525
-4.35317 0.356813 1.20057 -3 -1 2 192 192 192 255 0.200168 0.219525
-4.26694 0.356813 1.20057 3 -2 1 192 192 192 255 0.244197 0.219525
-4.35317 4.64255 1.20057 -3 2 1 192 192 192 255 0.300052 0.219525
-4.26694 4.64255 1.20057 3 1 2 192 192 192 255 0.300052 0.219525
-4.35317 4.55414 1.11435 -3 -1 0 192 192 192 255 0.198113 0.219525
-4.26694 4.55414 1.11435 3 -2 0 192 192 192 255 0.240032 0.219525
-4.35317 0.445222 1.11435 -4 1.31197 -0.725682 192 192 192 255 0.29711 0.219525
-4.26694 0.445222 1.11435 3 -0.376061 -1.45136 192 192 192 255 0.29711 0.219525
-4.35317 4.64255 0.976231 -2 1 3 192 192 192 255 0.300052 0.219525
-4.26694 4.64255 0.976231 1 2 3 192 192 192 255 0.300052 0.219525
-4.26694 4.55414 0.976231 2 -1 3 192 192 192 255 0.240032 0.219525
-4.35317 4.55414 0.976231 -1 -2 3 192 192 192 255 0.198113 0.219525
-4.35317 0.445222 0.976231 -2 1 3 192 192 192 255 0.29711 0.219525
-4.26694 0.445222 0.976231 2 2 3 192 192 192 255 0.29711 0.219525
-4.26694 0.356813 0.976231 1 -1 3 192 192 192 255 0.244197 0.219525
-4.35317 0.356813 0.976231 -1 -2 3 192 192 192 255 0.200168 0.219525
-4.38101 4.6711 0.976231 -1 2 3 192 192 192 255 0.202727 0.220055
-4.2391 4.6711 0.976231 2 1 3 192 192 192 255 0.202727 0.220055
-4.2391 4.52559 0.976231 1 -2 3 192 192 192 255 0.202727 0.220055
-4.38101 4.52559 0.976231 -2 -1 3 192 192 192 255 0.202727 0.220055
-4.38101 0.473775 0.976231 -1 2 3 192 192 192 255 0.200573 0.220055
-4.2391 0.473775 0.976231 2 1 3 192 192 192 255 0.200573 0.220055
-4.2391 0.32826 0.976231 1 -2 3 192 192 192 255 0.200573 0.220055
-4.38101 0.32826 0.976231 -2 -1 3 192 192 192 255 0.200573 0.220055
-4.38101 4.6711 0.917461 -2 1 0 192 192 192 255 0.236948 0.220055
-4.2391 4.6711 0.917461 1 2 0 192 192 192 255 0.236948 0.220055
-4.2391 4.52559 0.752975 2 -1 0 192 192 192 255 0.174121 0.220055
-4.38101 4.52559 0.752975 -1 -2 0 192 192 192 255 0.148284 0.220055
-4.38101 0.473775 0.752975 -2 1 0 192 192 192 255 0.234795 0.220055
-4.2391 0.473775 0.752975 1 2 0 192 192 192 255 0.234795 0.220055
-4.2391 0.32826 0.917461 2 -1 0 192 192 192 255 0.171967 0.220055
-4.38101 0.32826 0.917461 -1 -2 0 192 192 192 255 0.146131 0.220055
-4.35317 1.25 0.35133 -3 -1.37606 -2.45136 192 192 192 255 0.234965 0.219525
-4.35317 1.28541 0.437553 -3 0.672295 2.74028 192 192 192 255 0.234965 0.219525
-4.26694 1.28541 0.437553 3 1.34459 2.48057 192 192 192 255 0.234965 0.219525
-4.26694 1.25 0.35133 3 -0.688031 -2.72568 192 192 192 255 0.234965 0.219525
-4.35317 3.7146 0.437553 -3 -1.34515 2.48006 192 192 192 255 0.234965 0.219525
-4.35317 3.75 0.35133 -3 0.688317 -2.72541 192 192 192 255 0.234965 0.219525
-4.26694 3.75 0.35133 3 1.37663 -2.45082 192 192 192 255 0.234965 0.219525
-4.26694 3.7146 0.437553 3 -0.672574 2.74003 192 192 192 255 0.234965 0.219525
-4.26694 4.55414 1.20057 3 -1.34515 2.48006 192 192 192 255 0.233148 0.219525
-4.35317 4.55414 1.20057 -3 -0.672574 2.74003 192 192 192 255 0.233148 0.219525
-4.35317 4.55414 1.11435 -3 1.37663 -1.45082 192 192 192 255 0.233148 0.219525
-4.26694 4.55414 1.11435 3 0.688317 -0.725411 192 192 192 255 0.267261 0.219525
-4.35317 0.445222 1.20057 -2 1.34459 2.48057 192 192 192 255 0.233148 0.219525
-4.26694 0.445222 1.20057 3 0.672295 2.74028 192 192 192 255 0.233148 0.219525
-5 2.5 0 0 0 2 192 192 192 255 0.587899 0.632514
-3.67016 1.11553 0.134468 -2 2.82842 1.41424 192 192 192 255 0.300119 0.063433
-1.32985 1.11553 0.134468 1 3.53554 0.707127 192 192 192 255 0.300119 0.063433
-3.67016 0.134471 1.11553 -1 1.41419 4.24265 192 192 192 255 0.300119 0.063433
-1.32985 0.134471 1.11553 2 0.707096 2.12132 192 192 192 255 0.300119 0.063433
-3.67016 1.21414 0.233086 -1 2.12134 -0.707094 192 192 192 255 0.508622 0.880251
-1.32985 1.21414 0.233086 2 2.12133 0.70711 192 192 192 255 0.749348 0.880251
-3.67016 0.233087 1.21415 -2 0.707107 2.12131 192 192 192 255 0.508622 0.675155
-1.32985 0.233087 1.21415 1 -0.707112 2.12131 192 192 192 255 0.749348 0.675155
-3.31582 2.06785 0.991211 -2 2 1 192 192 192 255 0.402016 0.061667
-3.03112 2.06785 0.991211 1 1 2 192 192 192 255 0.402016 0.061667
-3.03112 1.89462 0.991211 2 -2 1 192 192 192 255 0.302131 0.061667
-3.31582 1.89462 0.991211 -1 -1 2 192 192 192 255 0.302131 0.061667
-3.03112 1.89462 0.991211 2 -2 1 192 192 192 255 0.335112 0.061667
-3.03112 1.89462 0.825073 1 -1 0 192 192 192 255 0.335112 0.061667
-3.03112 2.06785 0.825073 2 2 0 192 192 192 255 0.335112 0.061667
-3.03112 2.06785 0.991211 1 1 2 192 192 192 255 0.335112 0.061667
-3.31582 1.89462 0.825073 -2 -2 0 192 192 192 255 0.335112 0.061667
-3.31582 1.89462 0.991211 -1 -1 2 192 192 192 255 0.335112 0.061667
-3.31582 2.06785 0.991211 -2 2 1 192 192 192 255 0.335112 0.061667
-3.31582 2.06785 0.825073 -1 1 0 192 192 192 255 0.335112 0.061667
-3.31582 3.07981 0.991211 -2 2 1 192 192 192 255 0.402016 0.061667
-3.03112 3.07981 0.991211 1 1 2 192 192 192 255 0.402016 0.061667
-3.03112 2.90658 0.991211 2 -2 1 192 192 192 255 0.302131 0.061667
-3.31582 2.90658 0.991211 -1 -1 2 192 192 192 255 0.302131 0.061667
-3.03112 2.90658 0.991211 2 -2 1 192 192 192 255 0.335112 0.061667
-3.03112 2.90658 0.825073 1 -1 0 192 192 192 255 0.335112 0.061667
-3.03112 3.07981 0.825073 2 2 0 192 192 192 255 0.335112 0.061667
-3.03112 3.07981 0.991211 1 1 2 192 192 192 255 0.335112 0.061667
-3.31582 2.90658 0.825073 -2 -2 0 192 192 192 255 0.335112 0.061667
-3.31582 2.90658 0.991211 -1 -1 2 192 192 192 255 0.335112 0.061667
-3.31582 3.07981 0.991211 -2 2 1 192 192 192 255 0.335112 0.061667
-3.31582 3.07981 0.825073 -1 1 0 192 192 192 255 0.335112 0.061667
-2.19994 2.19992 1.03588 2 -1 -3 192 192 192 255 0.233324 0.061977
-2.19994 2.80006 1.03588 1 2 -3 192 192 192 255 0.233324 0.061977
-2.19994 2.80006 1.12486 2 1 3 192 192 192 255 0.233324 0.061977
-2.19994 2.19992 1.12486 1 -2 3 192 192 192 255 0.233324 0.061977
-2.8001 2.80006 1.03588 -2 1 -3 192 192 192 255 0.233324 0.061977
-2.8001 2.19992 1.03588 -1 -2 -3 192 192 192 255 0.233324 0.061977
-2.8001 2.19992 1.12486 -2 -1 3 192 192 192 255 0.233324 0.061977
-2.8001 2.80006 1.12486 -1 2 3 192 192 192 255 0.233324 0.061977
-2.8001 2.19992 1.12486 -2 -1 3 192 192 192 255 0.300228 0.061977
-2.19994 2.19992 1.12486 1 -2 3 192 192 192 255 0.300228 0.061977
-2.19994 2.80006 1.12486 2 1 3 192 192 192 255 0.300228 0.061977
-2.8001 2.80006 1.12486 -1 2 3 192 192 192 255 0.300228 0.061977
-2.8001 2.80006 1.03588 -2 1 -3 192 192 192 255 0.200343 0.061977
-2.19994 2.80006 1.03588 1 2 -3 192 192 192 255 0.200343 0.061977
-2.19994 2.19992 1.03588 2 -1 -3 192 192 192 255 0.200343 0.061977
-2.8001 2.19992 1.03588 -1 -2 -3 192 192 192 255 0.200343 0.061977
-2.27062 2.7294 1.12486 -2 -2 3 192 192 192 255 0.270981 0.061977
-2.72945 2.7294 1.12486 2 -1 3 192 192 192 255 0.270981 0.061977
-2.72945 2.7294 1.03588 1 -2 -3 192 192 192 255 0.270981 0.061977
-2.27062 2.7294 1.03588 -1 -1 -3 192 192 192 255 0.270981 0.061977
-2.72945 2.7294 1.12486 2 -1 3 192 192 192 255 0.229481 0.061977
-2.72945 2.27058 1.12486 1 1 3 192 192 192 255 0.229481 0.061977
-2.72945 2.27058 1.03588 2 2 -3 192 192 192 255 0.229481 0.061977
-2.72945 2.7294 1.03588 1 -2 -3 192 192 192 255 0.229481 0.061977
-2.27062 2.7294 1.12486 -2 -2 3 192 192 192 255 0.229481 0.061977
-2.27062 2.7294 1.03588 -1 -1 -3 192 192 192 255 0.229481 0.061977
-2.27062 2.27058 1.03588 -2 1 -3 192 192 192 255 0.229481 0.061977
-2.27062 2.27058 1.12486 -1 2 3 192 192 192 255 0.229481 0.061977
-2.27062 2.27058 1.12486 -1 2 3 192 192 192 255 0.270981 0.061977
-2.27062 2.27058 1.03588 -2 1 -3 192 192 192 255 0.270981 0.061977
-2.72945 2.27058 1.03588 2 2 -3 192 192 192 255 0.270981 0.061977
-2.72945 2.27058 1.12486 1 1 3 192 192 192 255 0.270981 0.061977
-3.37961 1.6204 0.825073 -2 -1 3 192 192 192 255 0.205069 0.062686
-3.37961 3.3796 0.825073 -1 2 3 192 192 192 255 0.205069 0.062686
-3.37961 1.6204 0.577671 -1 -2 -3 192 192 192 255 0.237107 0.062686
-1.6204 1.6204 0.825073 1 -2 3 192 192 192 255 0.237107 0.062686
-3.37961 1.6204 0.825073 -2 -1 3 192 192 192 255 0.237107 0.062686
-1.6204 1.6204 0.577671 2 -1 -3 192 192 192 255 0.205069 0.062686
-1.6204 3.3796 0.825073 2 1 3 192 192 192 255 0.205069 0.062686
-1.6204 1.6204 0.825073 1 -2 3 192 192 192 255 0.205069 0.062686
-3.37961 3.3796 0.825073 -1 2 3 192 192 192 255 0.237107 0.062686
-1.6204 3.3796 0.825073 2 1 3 192 192 192 255 0.237107 0.062686
-1.6204 3.3796 0.577671 1 2 -3 192 192 192 255 0.237107 0.062686
-3.37961 3.3796 0.577671 -2 1 -3 192 192 192 255 0.237107 0.062686
-3.20123 1.79876 0.825073 -1 -2 3 192 192 192 255 0.236718 0.061667
-1.79877 1.79876 0.825073 2 -1 3 192 192 192 255 0.236718 0.061667
-3.20123 3.20123 0.825073 -2 1 3 192 192 192 255 0.236144 0.061667
-3.20123 1.79876 0.825073 -1 -2 3 192 192 192 255 0.236144 0.061667
-3.20123 1.79876 0.948563 -2 -1 3 192 192 192 255 0.236144 0.061667
-3.20123 3.20123 0.948563 -1 2 3 192 192 192 255 0.238957 0.061667
-1.79877 3.20123 0.825073 1 2 3 192 192 192 255 0.238957 0.061667
-3.20123 3.20123 0.825073 -2 1 3 192 192 192 255 0.238957 0.061667
-1.79877 1.79876 0.825073 2 -1 3 192 192 192 255 0.236144 0.061667
-1.79877 3.20123 0.825073 1 2 3 192 192 192 255 0.236143 0.061667
-1.79877 3.20123 0.948563 2 1 3 192 192 192 255 0.236143 0.061667
-1.79877 1.79876 0.948563 1 -2 3 192 192 192 255 0.236144 0.061667
-3.20123 1.79876 0.948563 -2 -1 3 192 192 192 255 0.920264 0.639789
-1.79877 1.79876 0.948563 1 -2 3 192 192 192 255 0.991121 0.639789
-1.79877 3.20123 0.948563 2 1 3 192 192 192 255 0.991121 0.703285
-3.20123 3.20123 0.948563 -1 2 3 192 192 192 255 0.920264 0.703285
-2.41189 2.41186 0.948563 0.946925 -1.89387 3.9643 192 192 192 255 0.230297 0.061973
-2.58816 2.41186 0.948563 -1.89389 -0.946936 3.96421 192 192 192 255 0.230297 0.061973
-2.41189 2.58814 0.948563 1.89385 0.946936 3.96433 192 192 192 255 0.193207 0.061973
-2.44714 2.4471 1.05239 3.89385 -1.94694 -2.03567 192 192 192 255 0.193207 0.061973
-2.41189 2.41186 0.948563 0.946925 -1.89387 3.9643 192 192 192 255 0.193207 0.061973
-2.58816 2.58814 0.948563 -0.946945 1.89387 3.96424 192 192 192 255 0.230297 0.061973
-2.44714 2.55289 1.05239 1.94693 3.89387 -2.0357 192 192 192 255 0.230297 0.061973
-2.41189 2.58814 0.948563 1.89385 0.946936 3.96433 192 192 192 255 0.230297 0.061973
-2.58816 2.41186 0.948563 -1.89389 -0.946936 3.96421 192 192 192 255 0.193207 0.061973
-2.55292 2.4471 1.05239 -1.94694 -3.89387 -2.03576 192 192 192 255 0.193207 0.061973
-2.55292 2.55289 1.05239 -3.89389 1.94694 -2.03579 192 192 192 255 0.193207 0.061973
-2.58816 2.58814 0.948563 -0.946945 1.89387 3.96424 192 192 192 255 0.193207 0.061973
-2.46585 2.46581 1.14049 0.827265 -1.65476 2.6851 192 192 192 255 0.230297 0.061973
-2.5342 2.46581 1.14049 -1.65456 -0.827378 3.68522 192 192 192 255 0.230297 0.061973
-2.55292 2.4471 1.11293 -2.82728 -2.65476 4.68508 192 192 192 255 0.193207 0.061973
-2.5342 2.46581 1.14049 -1.65456 -0.827378 3.68522 192 192 192 255 0.193207 0.061973
-2.5342 2.53418 1.14049 -0.827282 1.65454 2.6854 192 192 192 255 0.193207 0.061973
-2.55292 2.55289 1.11293 -2.65456 2.82727 4.68538 192 192 192 255 0.230297 0.061973
-2.5342 2.53418 1.14049 -0.827282 1.65454 2.6854 192 192 192 255 0.230297 0.061973
-2.46585 2.53418 1.14049 1.65453 0.827268 3.68543 192 192 192 255 0.230297 0.061973
-2.44714 2.4471 1.11293 2.65453 -2.82738 4.68527 192 192 192 255 0.193207 0.061973
-2.44714 2.55289 1.11293 2.82727 2.65454 4.68542 192 192 192 255 0.193207 0.061973
-2.46585 2.53418 1.14049 1.65453 0.827268 3.68543 192 192 192 255 0.193207 0.061973
-2.46585 2.46581 1.14049 0.827265 -1.65476 2.6851 192 192 192 255 0.193207 0.061973
-2.55292 2.4471 1.05239 -1.94694 -3.89387 -2.03576 192 192 192 255 0.231366 0.061973
-2.55292 2.4471 1.11293 -2.82728 -2.65476 4.68508 192 192 192 255 0.231366 0.061973
-2.72943 2.4471 1.05239 0 -1 -2 192 192 192 255 0.231366 0.061973
-2.55292 2.4471 1.11293 -2.82728 -2.65476 4.68508 192 192 192 255 0.294796 0.061971
-2.55292 2.55289 1.11293 -2.65456 2.82727 4.68538 192 192 192 255 0.294796 0.061971
-2.72943 2.4471 1.11293 0 -2 1 192 192 192 255 0.294796 0.061971
-2.55292 2.55289 1.11293 -2.65456 2.82727 4.68538 192 192 192 255 0.231366 0.061973
-2.55292 2.55289 1.05239 -3.89389 1.94694 -2.03579 192 192 192 255 0.231366 0.061973
-2.72943 2.55289 1.05239 0 2 -1 192 192 192 255 0.231366 0.061973
-2.72943 2.55289 1.11293 0 1 2 192 192 192 255 0.231366 0.061973
-2.44714 2.55289 1.05239 1.94693 3.89387 -2.0357 192 192 192 255 0.231366 0.061973
-2.44714 2.55289 1.11293 2.82727 2.65454 4.68542 192 192 192 255 0.231366 0.061973
-2.27062 2.55289 1.05239 0 1 -2 192 192 192 255 0.231366 0.061973
-2.44714 2.55289 1.11293 2.82727 2.65454 4.68542 192 192 192 255 0.294796 0.061971
-2.44714 2.4471 1.11293 2.65453 -2.82738 4.68527 192 192 192 255 0.294796 0.061971
-2.27062 2.55289 1.11293 0 2 1 192 192 192 255 0.294796 0.061971
-2.44714 2.4471 1.11293 2.65453 -2.82738 4.68527 192 192 192 255 0.231366 0.061973
-2.44714 2.4471 1.05239 3.89385 -1.94694 -2.03567 192 192 192 255 0.231366 0.061973
-2.27062 2.4471 1.05239 0 -2 -1 192 192 192 255 0.231366 0.061973
-2.27062 2.4471 1.11293 0 -1 2 192 192 192 255 0.231366 0.061973
-2.44714 2.4471 1.05239 3.89385 -1.94694 -2.03567 192 192 192 255 0.198871 0.061973
-2.44714 2.4471 1.11293 2.65453 -2.82738 4.68527 192 192 192 255 0.198871 0.061973
-2.44714 2.27058 1.05239 1 0 -2 192 192 192 255 0.198871 0.061973
-2.44714 2.27058 1.11293 2 0 1 192 192 192 255 0.294796 0.061971
-2.55292 2.4471 1.11293 -2.82728 -2.65476 4.68508 192 192 192 255 0.198871 0.061973
-2.55292 2.4471 1.05239 -1.94694 -3.89387 -2.03576 192 192 192 255 0.198871 0.061973
-2.55292 2.27058 1.05239 -2 0 -1 192 192 192 255 0.198871 0.061973
-2.55292 2.27058 1.11293 -1 0 2 192 192 192 255 0.198871 0.061973
-2.55292 2.55289 1.05239 -3.89389 1.94694 -2.03579 192 192 192 255 0.198871 0.061973
-2.55292 2.55289 1.11293 -2.65456 2.82727 4.68538 192 192 192 255 0.198871 0.061973
-2.55292 2.7294 1.05239 -1 0 -2 192 192 192 255 0.198871 0.061973
-2.55292 2.7294 1.11293 -2 0 1 192 192 192 255 0.294796 0.061971
-2.44714 2.55289 1.11293 2.82727 2.65454 4.68542 192 192 192 255 0.198871 0.061973
-2.44714 2.55289 1.05239 1.94693 3.89387 -2.0357 192 192 192 255 0.198871 0.061973
-2.44714 2.7294 1.05239 2 0 -1 192 192 192 255 0.198871 0.061973
-2.44714 2.7294 1.11293 1 0 2 192 192 192 255 0.198871 0.061973
-3.33044 3.33044 0.289806 -2 1 3 192 192 192 255 0.167925 0.062686
-3.33044 3.33044 0.577671 -1 2 -3 192 192 192 255 0.167925 0.062686
-3.33044 1.66956 0.289806 -1 -2 3.00003 192 192 192 255 0.199963 0.062686
-3.33044 1.66956 0.577671 -2 -1 -2.99999 192 192 192 255 0.199963 0.062686
-1.66956 1.66956 0.289806 2 -1 3.00001 192 192 192 255 0.167925 0.062686
-1.66956 3.33044 0.289806 1 2 3 192 192 192 255 0.167925 0.062686
-1.66956 3.33044 0.577671 2 1 -3 192 192 192 255 0.167925 0.062686
-1.66956 1.66956 0.577671 1 -2 -2.99997 192 192 192 255 0.167925 0.062686
-1.6204 3.3796 -7.6e-005 1 2 -1 192 192 192 255 0.237107 0.062686
-3.37961 3.3796 -7.6e-005 -2 1 -2 192 192 192 255 0.237107 0.062686
-3.37961 3.3796 -7.6e-005 -2 1 -2 192 192 192 255 0.205069 0.062686
-3.37961 1.6204 -7.6e-005 -1 -2 -1 192 192 192 255 0.205069 0.062686
-3.37961 3.3796 0.289806 -1 2 3 192 192 192 255 0.205069 0.062686
-3.37961 1.6204 -7.6e-005 -1 -2 -1 192 192 192 255 0.237107 0.062686
-1.6204 1.6204 -7.6e-005 2 -1 -2 192 192 192 255 0.237107 0.062686
-3.37961 1.6204 0.289806 -2 -1 3 192 192 192 255 0.237107 0.062686
-1.6204 1.6204 -7.6e-005 2 -1 -2 192 192 192 255 0.205069 0.062686
-1.6204 3.3796 -7.6e-005 1 2 -1 192 192 192 255 0.205069 0.062686
-1.6204 3.3796 0.289806 2 1 3 192 192 192 255 0.205069 0.062686
-1.6204 1.6204 0.289806 1 -2 3 192 192 192 255 0.205069 0.062686
-3.37961 3.3796 0.577671 -2 1 -3 192 192 192 255 0.171928 0.060914
-1.6204 3.3796 0.577671 1 2 -3 192 192 192 255 0.171928 0.060914
-1.66956 3.33044 0.577671 2 1 -3 192 192 192 255 0.171928 0.060914
-3.33044 3.33044 0.577671 -1 2 -3 192 192 192 255 0.171928 0.060914
-1.6204 3.3796 0.289806 2 1 3 192 192 192 255 0.266222 0.0652
-3.37961 3.3796 0.289806 -1 2 3 192 192 192 255 0.266222 0.0652
-3.33044 3.33044 0.289806 -2 1 3 192 192 192 255 0.266222 0.0652
-1.66956 3.33044 0.289806 1 2 3 192 192 192 255 0.266222 0.0652
-3.37961 1.6204 0.289806 -2 -1 3 192 192 192 255 0.266222 0.0652
-3.33044 1.66956 0.289806 -1 -2 3.00003 192 192 192 255 0.266222 0.0652
-3.37961 1.6204 0.577671 -1 -2 -3 192 192 192 255 0.171928 0.060914
-3.33044 1.66956 0.577671 -2 -1 -2.99999 192 192 192 255 0.171928 0.060914
-1.6204 1.6204 0.289806 1 -2 3 192 192 192 255 0.266222 0.0652
-1.66956 1.66956 0.289806 2 -1 3.00001 192 192 192 255 0.266222 0.0652
-1.6204 1.6204 0.577671 2 -1 -3 192 192 192 255 0.171928 0.060914
-1.66956 1.66956 0.577671 1 -2 -2.99997 192 192 192 255 0.171928 0.060914
0 3.75 0 0 -0.707107 1.70711 192 192 192 255 0.749348 0.672963
-5 3.75 0 0 -1.41421 3.41421 192 192 192 255 0.587899 0.672963
-0.646835 1.28541 0.437553 3 1.34466 2.48072 192 192 192 255 0.200852 0.219525
-0.646828 1.25 0.35133 3 -0.687902 -2.7255 192 192 192 255 0.200852 0.219525
-0.646835 3.75 0.35133 3 1.37663 -2.45074 192 192 192 255 0.200852 0.219525
-0.646835 3.7146 0.437553 3 -0.672587 2.74007 192 192 192 255 0.200852 0.219525
-0.733047 1.25 0.35133 -3 -1.37609 -2.4514 192 192 192 255 0.200852 0.219525
-0.733047 1.28541 0.437553 -3 0.672231 2.7402 192 192 192 255 0.200852 0.219525
-0.733047 3.7146 0.437553 -3 -1.34515 2.48006 192 192 192 255 0.200852 0.219525
-0.733047 3.75 0.35133 -3 0.688316 -2.72541 192 192 192 255 0.200852 0.219525
-0.646828 4.64255 1.20057 3 1 2 192 192 192 255 0.240032 0.219525
-0.646828 4.64255 0.976231 1 2 3 192 192 192 255 0.240032 0.219525
-0.646828 4.55414 1.11435 3 -2 0 192 192 192 255 0.198113 0.219525
-0.646828 4.55414 0.976231 2 -1 3 192 192 192 255 0.198113 0.219525
-0.733047 4.55414 1.11435 -3 -1 0 192 192 192 255 0.240032 0.219525
-0.733047 4.64255 1.20057 -3 2 1 192 192 192 255 0.240032 0.219525
-0.733047 4.64255 0.976231 -2 1 3 192 192 192 255 0.240032 0.219525
-0.733047 4.55414 0.976231 -1 -2 3 192 192 192 255 0.240032 0.219525
-0.646828 0.445222 0.976231 2 2 3 192 192 192 255 0.244197 0.219525
-0.646828 0.445222 1.11435 3 -0.375996 -1.45129 192 192 192 255 0.233148 0.219525
-0.646828 0.356813 1.20057 3 -2 1 192 192 192 255 0.200168 0.219525
-0.646828 0.356813 0.976231 1 -1 3 192 192 192 255 0.200168 0.219525
-0.733047 4.64255 0.976231 -2 1 3 192 192 192 255 0.202727 0.220055
-0.646828 4.64255 0.976231 1 2 3 192 192 192 255 0.202727 0.220055
-0.646828 4.55414 0.976231 2 -1 3 192 192 192 255 0.202727 0.220055
-0.733047 4.55414 0.976231 -1 -2 3 192 192 192 255 0.202727 0.220055
-0.733047 0.445222 0.976231 -2 0.999932 2.99993 192 192 192 255 0.200573 0.220055
-0.646828 0.445222 0.976231 2 2 3 192 192 192 255 0.200573 0.220055
-0.646828 0.356813 0.976231 1 -1 3 192 192 192 255 0.200573 0.220055
-0.733047 0.356813 0.976231 -1 -2.00003 2.99997 192 192 192 255 0.200573 0.220055
-0.760895 4.6711 0.976231 -1 2 3 192 192 192 255 0.236948 0.220055
-0.618988 4.6711 0.976231 2 1 3 192 192 192 255 0.236948 0.220055
-0.618988 4.6711 0.976231 2 1 3 192 192 192 255 0.174121 0.220055
-0.618988 4.52559 0.976231 1 -2 3 192 192 192 255 0.174121 0.220055
-0.618988 4.6711 0.917461 1 2 0 192 192 192 255 0.174121 0.220055
-0.618988 4.52559 0.976231 1 -2 3 192 192 192 255 0.148284 0.220055
-0.760895 4.52559 0.976231 -2 -1 3 192 192 192 255 0.148284 0.220055
-0.618988 4.52559 0.752975 2 -1 0 192 192 192 255 0.148284 0.220055
-0.760895 4.52559 0.976231 -2 -1 3 192 192 192 255 0.174121 0.220055
-0.760895 4.6711 0.976231 -1 2 3 192 192 192 255 0.174121 0.220055
-0.760895 4.6711 0.917461 -2 1 0 192 192 192 255 0.174121 0.220055
-0.760895 4.52559 0.752975 -1 -2 0 192 192 192 255 0.174121 0.220055
-0.760895 0.473775 0.976231 -1 2 3 192 192 192 255 0.234795 0.220055
-0.61898 0.473775 0.976231 2 1 3 192 192 192 255 0.234795 0.220055
-0.61898 0.473775 0.976231 2 1 3 192 192 192 255 0.171967 0.220055
-0.61898 0.32826 0.976231 1 -2 3 192 192 192 255 0.171967 0.220055
-0.61898 0.473775 0.752975 1 2 0 192 192 192 255 0.171967 0.220055
-0.61898 0.32826 0.976231 1 -2 3 192 192 192 255 0.146131 0.220055
-0.760895 0.32826 0.976231 -2 -1 3 192 192 192 255 0.146131 0.220055
-0.61898 0.32826 0.917461 2 -1 0 192 192 192 255 0.146131 0.220055
-0.760895 0.32826 0.976231 -2 -1 3 192 192 192 255 0.171967 0.220055
-0.760895 0.473775 0.976231 -1 2 3 192 192 192 255 0.171967 0.220055
-0.760895 0.473775 0.752975 -2 1 0 192 192 192 255 0.171967 0.220055
-0.760895 0.32826 0.917461 -1 -2 0 192 192 192 255 0.171967 0.220055
-0.733047 0.445222 1.11435 -4 1.31184 -0.725832 192 192 192 255 0.238673 0.219525
-0.733047 1.28541 0.437553 -3 0.672231 2.7402 192 192 192 255 0.233148 0.219525
-0.733047 1.25 0.35133 -3 -1.37609 -2.4514 192 192 192 255 0.233148 0.219525
-0.733055 0.445222 1.20057 -2 1.34452 2.48049 192 192 192 255 0.267261 0.219525
-0.646835 0.445222 1.20057 3 0.672423 2.74042 192 192 192 255 0.267261 0.219525
-0.646835 1.28541 0.437553 3 1.34466 2.48072 192 192 192 255 0.267261 0.219525
-0.733047 1.28541 0.437553 -3 0.672231 2.7402 192 192 192 255 0.267261 0.219525
-0.646828 1.25 0.35133 3 -0.687902 -2.7255 192 192 192 255 0.233148 0.219525
-0.646835 1.28541 0.437553 3 1.34466 2.48072 192 192 192 255 0.233148 0.219525
-0.733047 1.25 0.35133 -3 -1.37609 -2.4514 192 192 192 255 0.267261 0.219525
-0.646828 1.25 0.35133 3 -0.687902 -2.7255 192 192 192 255 0.267261 0.219525
-0.646828 0.445222 1.11435 3 -0.375996 -1.45129 192 192 192 255 0.267261 0.219525
-0.733047 0.445222 1.11435 -4 1.31184 -0.725832 192 192 192 255 0.267261 0.219525
-0.733047 3.75 0.35133 -3 0.688316 -2.72541 192 192 192 255 0.233148 0.219525
-0.733047 3.7146 0.437553 -3 -1.34515 2.48006 192 192 192 255 0.233148 0.219525
-0.733047 4.55414 1.11435 -3 1.37663 -1.45082 192 192 192 255 0.267261 0.219525
-0.646835 3.75 0.35133 3 1.37663 -2.45074 192 192 192 255 0.267261 0.219525
-0.733047 3.75 0.35133 -3 0.688316 -2.72541 192 192 192 255 0.267261 0.219525
-0.646835 3.7146 0.437553 3 -0.672587 2.74007 192 192 192 255 0.233148 0.219525
-0.646835 3.75 0.35133 3 1.37663 -2.45074 192 192 192 255 0.233148 0.219525
-0.646828 4.55414 1.11435 3 0.688302 -0.725414 192 192 192 255 0.233148 0.219525
-0.733047 3.7146 0.437553 -3 -1.34515 2.48006 192 192 192 255 0.267261 0.219525
-0.646835 3.7146 0.437553 3 -0.672587 2.74007 192 192 192 255 0.267261 0.219525
-0.646828 4.55414 1.20057 3 -1.34516 2.48006 192 192 192 255 0.267261 0.219525
-0.733047 4.55414 1.20057 -3 -0.672574 2.74003 192 192 192 255 0.267261 0.219525
-0.646828 4.64255 1.20057 3 1 2 192 192 192 255 0.267261 0.219525
-0.733047 4.64255 1.20057 -3 2 1 192 192 192 255 0.267261 0.219525
-0.733047 4.64255 1.20057 -3 2 1 192 192 192 255 0.233148 0.219525
-0.733047 4.55414 1.11435 -3 -1 0 192 192 192 255 0.233148 0.219525
-0.733047 4.55414 1.11435 -3 -1 0 192 192 192 255 0.267261 0.219525
-0.646828 4.55414 1.11435 3 -2 0 192 192 192 255 0.267261 0.219525
-0.646828 4.55414 1.11435 3 -2 0 192 192 192 255 0.233148 0.219525
-0.646828 4.64255 1.20057 3 1 2 192 192 192 255 0.233148 0.219525
-0.733047 0.356813 1.20057 -3 -1.0001 1.99989 192 192 192 255 0.267261 0.219525
-0.646828 0.356813 1.20057 3 -2 1 192 192 192 255 0.267261 0.219525
-0.733047 0.356813 1.20057 -3 -1.0001 1.99989 192 192 192 255 0.233148 0.219525
-0.733047 0.445222 0.976231 -2 0.999932 2.99993 192 192 192 255 0.244197 0.219525
-0.733047 0.356813 0.976231 -1 -2.00003 2.99997 192 192 192 255 0.244197 0.219525
-4.26694 1.28541 0.437553 3 1.34459 2.48057 192 192 192 255 0.200852 0.219525
-4.26694 1.25 0.35133 3 -0.688031 -2.72568 192 192 192 255 0.200852 0.219525
-4.26694 3.75 0.35133 3 1.37663 -2.45082 192 192 192 255 0.200852 0.219525
-4.26694 3.7146 0.437553 3 -0.672574 2.74003 192 192 192 255 0.200852 0.219525
-4.35317 1.25 0.35133 -3 -1.37606 -2.45136 192 192 192 255 0.200852 0.219525
-4.35317 1.28541 0.437553 -3 0.672295 2.74028 192 192 192 255 0.200852 0.219525
-4.35317 3.7146 0.437553 -3 -1.34515 2.48006 192 192 192 255 0.200852 0.219525
-4.35317 3.75 0.35133 -3 0.688317 -2.72541 192 192 192 255 0.200852 0.219525
-4.26694 4.64255 1.20057 3 1 2 192 192 192 255 0.240032 0.219525
-4.26694 4.64255 0.976231 1 2 3 192 192 192 255 0.240032 0.219525
-4.26694 4.55414 1.11435 3 -2 0 192 192 192 255 0.198113 0.219525
-4.26694 4.55414 0.976231 2 -1 3 192 192 192 255 0.198113 0.219525
-4.35317 4.55414 1.11435 -3 -1 0 192 192 192 255 0.240032 0.219525
-4.35317 4.64255 1.20057 -3 2 1 192 192 192 255 0.240032 0.219525
-4.35317 4.64255 0.976231 -2 1 3 192 192 192 255 0.240032 0.219525
-4.35317 4.55414 0.976231 -1 -2 3 192 192 192 255 0.240032 0.219525
-4.26694 0.445222 0.976231 2 2 3 192 192 192 255 0.244197 0.219525
-4.26694 0.445222 1.11435 3 -0.376061 -1.45136 192 192 192 255 0.233148 0.219525
-4.26694 0.356813 1.20057 3 -2 1 192 192 192 255 0.200168 0.219525
-4.26694 0.356813 0.976231 1 -1 3 192 192 192 255 0.200168 0.219525
-4.35317 4.64255 0.976231 -2 1 3 192 192 192 255 0.202727 0.220055
-4.26694 4.64255 0.976231 1 2 3 192 192 192 255 0.202727 0.220055
-4.26694 4.55414 0.976231 2 -1 3 192 192 192 255 0.202727 0.220055
-4.35317 4.55414 0.976231 -1 -2 3 192 192 192 255 0.202727 0.220055
-4.35317 0.445222 0.976231 -2 1 3 192 192 192 255 0.200573 0.220055
-4.26694 0.445222 0.976231 2 2 3 192 192 192 255 0.200573 0.220055
-4.26694 0.356813 0.976231 1 -1 3 192 192 192 255 0.200573 0.220055
-4.35317 0.356813 0.976231 -1 -2 3 192 192 192 255 0.200573 0.220055
-4.38101 4.6711 0.976231 -1 2 3 192 192 192 255 0.236948 0.220055
-4.2391 4.6711 0.976231 2 1 3 192 192 192 255 0.236948 0.220055
-4.2391 4.6711 0.976231 2 1 3 192 192 192 255 0.174121 0.220055
-4.2391 4.52559 0.976231 1 -2 3 192 192 192 255 0.174121 0.220055
-4.2391 4.6711 0.917461 1 2 0 192 192 192 255 0.174121 0.220055
-4.2391 4.52559 0.976231 1 -2 3 192 192 192 255 0.148284 0.220055
-4.38101 4.52559 0.976231 -2 -1 3 192 192 192 255 0.148284 0.220055
-4.2391 4.52559 0.752975 2 -1 0 192 192 192 255 0.148284 0.220055
-4.38101 4.52559 0.976231 -2 -1 3 192 192 192 255 0.174121 0.220055
-4.38101 4.6711 0.976231 -1 2 3 192 192 192 255 0.174121 0.220055
-4.38101 4.6711 0.917461 -2 1 0 192 192 192 255 0.174121 0.220055
-4.38101 4.52559 0.752975 -1 -2 0 192 192 192 255 0.174121 0.220055
-4.38101 0.473775 0.976231 -1 2 3 192 192 192 255 0.234795 0.220055
-4.2391 0.473775 0.976231 2 1 3 192 192 192 255 0.234795 0.220055
-4.2391 0.473775 0.976231 2 1 3 192 192 192 255 0.171967 0.220055
-4.2391 0.32826 0.976231 1 -2 3 192 192 192 255 0.171967 0.220055
-4.2391 0.473775 0.752975 1 2 0 192 192 192 255 0.171967 0.220055
-4.2391 0.32826 0.976231 1 -2 3 192 192 192 255 0.146131 0.220055
-4.38101 0.32826 0.976231 -2 -1 3 192 192 192 255 0.146131 0.220055
-4.2391 0.32826 0.917461 2 -1 0 192 192 192 255 0.146131 0.220055
-4.38101 0.32826 0.976231 -2 -1 3 192 192 192 255 0.171967 0.220055
-4.38101 0.473775 0.976231 -1 2 3 192 192 192 255 0.171967 0.220055
-4.38101 0.473775 0.752975 -2 1 0 192 192 192 255 0.171967 0.220055
-4.38101 0.32826 0.917461 -1 -2 0 192 192 192 255 0.171967 0.220055
-4.35317 0.445222 1.11435 -4 1.31197 -0.725682 192 192 192 255 0.238673 0.219525
-4.35317 1.28541 0.437553 -3 0.672295 2.74028 192 192 192 255 0.233148 0.219525
-4.35317 1.25 0.35133 -3 -1.37606 -2.45136 192 192 192 255 0.233148 0.219525
-4.35317 0.445222 1.20057 -2 1.34459 2.48057 192 192 192 255 0.267261 0.219525
-4.26694 0.445222 1.20057 3 0.672295 2.74028 192 192 192 255 0.267261 0.219525
-4.26694 1.28541 0.437553 3 1.34459 2.48057 192 192 192 255 0.267261 0.219525
-4.35317 1.28541 0.437553 -3 0.672295 2.74028 192 192 192 255 0.267261 0.219525
-4.26694 1.25 0.35133 3 -0.688031 -2.72568 192 192 192 255 0.233148 0.219525
-4.26694 1.28541 0.437553 3 1.34459 2.48057 192 192 192 255 0.233148 0.219525
-4.35317 1.25 0.35133 -3 -1.37606 -2.45136 192 192 192 255 0.267261 0.219525
-4.26694 1.25 0.35133 3 -0.688031 -2.72568 192 192 192 255 0.267261 0.219525
-4.26694 0.445222 1.11435 3 -0.376061 -1.45136 192 192 192 255 0.267261 0.219525
-4.35317 0.445222 1.11435 -4 1.31197 -0.725682 192 192 192 255 0.267261 0.219525
-4.35317 3.75 0.35133 -3 0.688317 -2.72541 192 192 192 255 0.233148 0.219525
-4.35317 3.7146 0.437553 -3 -1.34515 2.48006 192 192 192 255 0.233148 0.219525
-4.35317 4.55414 1.11435 -3 1.37663 -1.45082 192 192 192 255 0.267261 0.219525
-4.26694 3.75 0.35133 3 1.37663 -2.45082 192 192 192 255 0.267261 0.219525
-4.35317 3.75 0.35133 -3 0.688317 -2.72541 192 192 192 255 0.267261 0.219525
-4.26694 3.7146 0.437553 3 -0.672574 2.74003 192 192 192 255 0.233148 0.219525
-4.26694 3.75 0.35133 3 1.37663 -2.45082 192 192 192 255 0.233148 0.219525
-4.26694 4.55414 1.11435 3 0.688317 -0.725411 192 192 192 255 0.233148 0.219525
-4.35317 3.7146 0.437553 -3 -1.34515 2.48006 192 192 192 255 0.267261 0.219525
-4.26694 3.7146 0.437553 3 -0.672574 2.74003 192 192 192 255 0.267261 0.219525
-4.26694 4.55414 1.20057 3 -1.34515 2.48006 192 192 192 255 0.267261 0.219525
-4.35317 4.55414 1.20057 -3 -0.672574 2.74003 192 192 192 255 0.267261 0.219525
-4.26694 4.64255 1.20057 3 1 2 192 192 192 255 0.267261 0.219525
-4.35317 4.64255 1.20057 -3 2 1 192 192 192 255 0.267261 0.219525
-4.35317 4.64255 1.20057 -3 2 1 192 192 192 255 0.233148 0.219525
-4.35317 4.55414 1.11435 -3 -1 0 192 192 192 255 0.233148 0.219525
-4.35317 4.55414 1.11435 -3 -1 0 192 192 192 255 0.267261 0.219525
-4.26694 4.55414 1.11435 3 -2 0 192 192 192 255 0.267261 0.219525
-4.26694 4.55414 1.11435 3 -2 0 192 192 192 255 0.233148 0.219525
-4.26694 4.64255 1.20057 3 1 2 192 192 192 255 0.233148 0.219525
-4.35317 0.356813 1.20057 -3 -1 2 192 192 192 255 0.267261 0.219525
-4.26694 0.356813 1.20057 3 -2 1 192 192 192 255 0.267261 0.219525
-4.35317 0.356813 1.20057 -3 -1 2 192 192 192 255 0.233148 0.219525
-4.35317 0.445222 0.976231 -2 1 3 192 192 192 255 0.244197 0.219525
-4.35317 0.356813 0.976231 -1 -2 3 192 192 192 255 0.244197 0.219525
0 1.25 0 0 2.12131 5.12134 192 192 192 255 0.300119 0.063433
-5 1.25 0 4.97189e-008 2.12131 3.12133 192 192 192 255 0.300119 0.063433
-1.32985 1.11553 0.134468 1 3.53554 0.707127 192 192 192 255 0.256733 0.061919
-3.67016 1.11553 0.134468 -2 2.82842 1.41424 192 192 192 255 0.256733 0.061919
-3.67016 1.21414 0.233086 -1 2.12134 -0.707094 192 192 192 255 0.256733 0.061919
-1.32985 1.21414 0.233086 2 2.12133 0.70711 192 192 192 255 0.256733 0.061919
-3.67016 1.11553 0.134468 -2 2.82842 1.41424 192 192 192 255 0.230618 0.061919
-3.67016 0.134471 1.11553 -1 1.41419 4.24265 192 192 192 255 0.230618 0.061919
-3.67016 0.233087 1.21415 -2 0.707107 2.12131 192 192 192 255 0.230618 0.061919
-3.67016 1.21414 0.233086 -1 2.12134 -0.707094 192 192 192 255 0.230618 0.061919
-3.67016 0.134471 1.11553 -1 1.41419 4.24265 192 192 192 255 0.256733 0.061919
-1.32985 0.134471 1.11553 2 0.707096 2.12132 192 192 192 255 0.256733 0.061919
-1.32985 0.233087 1.21415 1 -0.707112 2.12131 192 192 192 255 0.256733 0.061919
-3.67016 0.233087 1.21415 -2 0.707107 2.12131 192 192 192 255 0.256733 0.061919
-1.32985 0.134471 1.11553 2 0.707096 2.12132 192 192 192 255 0.230618 0.061919
-1.32985 1.11553 0.134468 1 3.53554 0.707127 192 192 192 255 0.230618 0.061919
-1.32985 1.21414 0.233086 2 2.12133 0.70711 192 192 192 255 0.230618 0.061919
-1.32985 0.233087 1.21415 1 -0.707112 2.12131 192 192 192 255 0.230618 0.061919
3 0 1 3 
3 0 3 2 
3 205 206 5 
3 205 5 4 
3 6 7 207 
3 6 207 208 
3 209 210 211 
3 209 211 212 
3 213 214 215 
3 213 215 216 
3 8 9 11 
3 8 11 10 
3 217 218 13 
3 217 13 12 
3 14 15 219 
3 14 219 220 
3 221 222 223 
3 221 223 224 
3 225 226 227 
3 225 227 228 
3 16 17 19 
3 16 19 18 
3 20 21 23 
3 20 23 22 
3 229 230 231 
3 229 231 232 
3 233 234 235 
3 233 235 236 
3 237 238 25 
3 237 25 24 
3 238 239 26 
3 238 26 25 
3 239 240 27 
3 239 27 26 
3 240 237 24 
3 240 24 27 
3 241 242 29 
3 241 29 28 
3 242 243 30 
3 242 30 29 
3 243 244 31 
3 243 31 30 
3 244 241 28 
3 244 28 31 
3 245 246 247 
3 245 247 248 
3 249 250 251 
3 249 251 252 
3 253 254 255 
3 253 255 256 
3 257 258 259 
3 257 259 260 
3 41 42 44 
3 41 44 45 
3 52 53 54 
3 52 54 55 
3 46 47 43 
3 46 43 40 
3 38 39 33 
3 38 33 32 
3 42 43 47 
3 42 47 44 
3 40 41 45 
3 40 45 46 
3 81 82 261 
3 81 261 262 
3 263 83 264 
3 263 264 265 
3 266 80 267 
3 266 267 268 
3 269 270 271 
3 269 271 272 
3 273 274 35 
3 273 35 34 
3 275 276 277 
3 275 277 36 
3 278 37 279 
3 278 279 280 
3 281 282 283 
3 281 283 284 
3 285 286 49 
3 285 49 48 
3 286 287 50 
3 286 50 49 
3 287 288 51 
3 287 51 50 
3 288 285 48 
3 288 48 51 
3 289 56 57 
3 289 57 290 
3 291 59 292 
3 291 292 293 
3 294 58 295 
3 294 295 296 
3 297 298 299 
3 297 299 300 
3 61 60 301 
3 61 301 302 
3 62 303 304 
3 62 304 305 
3 63 306 307 
3 63 307 308 
3 309 310 311 
3 309 311 312 
3 299 298 64 
3 299 64 65 
3 313 314 66 
3 313 66 315 
3 316 317 67 
3 316 67 318 
3 319 320 321 
3 319 321 322 
3 292 59 68 
3 292 68 69 
3 323 324 70 
3 323 70 325 
3 326 327 71 
3 326 71 328 
3 329 330 331 
3 329 331 332 
3 57 56 72 
3 57 72 73 
3 333 334 74 
3 333 74 335 
3 327 316 75 
3 327 75 336 
3 337 338 339 
3 337 339 340 
3 295 58 76 
3 295 76 77 
3 341 342 78 
3 341 78 343 
3 317 326 79 
3 317 79 344 
3 345 346 347 
3 345 347 348 
3 89 88 90 
3 89 90 91 
3 349 92 93 
3 349 93 350 
3 351 94 95 
3 351 95 352 
3 353 354 355 
3 353 355 356 
3 85 84 357 
3 85 357 358 
3 359 360 86 
3 359 86 361 
3 362 363 87 
3 362 87 364 
3 365 366 367 
3 365 367 368 
3 369 370 371 
3 369 371 372 
3 373 374 375 
3 373 375 376 
3 374 377 378 
3 374 378 375 
3 379 369 372 
3 379 372 380 
3 377 381 382 
3 377 382 378 
3 383 379 380 
3 383 380 384 
3 381 373 376 
3 381 376 382 
3 370 383 384 
3 370 384 371 
3 99 98 100 
3 99 100 101 
3 103 385 386 
3 103 386 196 
3 103 196 102 
3 202 201 203 
3 202 203 204 
3 137 138 143 
3 137 143 140 
3 141 142 139 
3 141 139 136 
3 387 388 389 
3 387 389 390 
3 391 392 393 
3 391 393 394 
3 106 107 113 
3 106 113 112 
3 395 109 114 
3 395 114 396 
3 397 108 115 
3 397 115 398 
3 399 400 401 
3 399 401 402 
3 110 111 117 
3 110 117 116 
3 105 118 403 
3 105 403 404 
3 105 404 149 
3 405 104 119 
3 405 119 406 
3 407 408 121 
3 407 121 120 
3 408 409 122 
3 408 122 121 
3 409 410 123 
3 409 123 122 
3 410 407 120 
3 410 120 123 
3 411 412 125 
3 411 125 124 
3 412 413 126 
3 412 126 125 
3 413 414 127 
3 413 127 126 
3 414 411 124 
3 414 124 127 
3 415 416 129 
3 415 129 128 
3 417 418 130 
3 417 130 419 
3 420 421 131 
3 420 131 422 
3 423 424 425 
3 423 425 426 
3 427 428 133 
3 427 133 132 
3 429 430 134 
3 429 134 431 
3 432 433 135 
3 432 135 434 
3 435 436 437 
3 435 437 438 
3 439 148 440 
3 439 440 441 
3 442 443 444 
3 442 444 445 
3 149 404 446 
3 149 446 447 
3 448 449 450 
3 448 450 451 
3 452 453 145 
3 452 145 146 
3 454 147 455 
3 454 455 456 
3 457 458 459 
3 457 459 144 
3 460 461 462 
3 460 462 463 
3 463 462 464 
3 463 464 465 
3 146 145 466 
3 146 466 467 
3 468 469 147 
3 468 147 454 
3 144 459 470 
3 144 470 471 
3 472 473 443 
3 472 443 442 
3 474 148 439 
3 474 439 475 
3 474 475 476 
3 183 184 189 
3 183 189 186 
3 187 188 185 
3 187 185 182 
3 477 478 479 
3 477 479 480 
3 481 482 483 
3 481 483 484 
3 152 153 159 
3 152 159 158 
3 485 155 160 
3 485 160 486 
3 487 154 161 
3 487 161 488 
3 489 490 491 
3 489 491 492 
3 156 157 163 
3 156 163 162 
3 151 164 493 
3 151 493 494 
3 151 494 195 
3 495 150 165 
3 495 165 496 
3 497 498 167 
3 497 167 166 
3 498 499 168 
3 498 168 167 
3 499 500 169 
3 499 169 168 
3 500 497 166 
3 500 166 169 
3 501 502 171 
3 501 171 170 
3 502 503 172 
3 502 172 171 
3 503 504 173 
3 503 173 172 
3 504 501 170 
3 504 170 173 
3 505 506 175 
3 505 175 174 
3 507 508 176 
3 507 176 509 
3 510 511 177 
3 510 177 512 
3 513 514 515 
3 513 515 516 
3 517 518 179 
3 517 179 178 
3 519 520 180 
3 519 180 521 
3 522 523 181 
3 522 181 524 
3 525 526 527 
3 525 527 528 
3 529 194 530 
3 529 530 531 
3 532 533 534 
3 532 534 535 
3 195 494 536 
3 195 536 537 
3 538 539 540 
3 538 540 541 
3 542 543 191 
3 542 191 192 
3 544 193 545 
3 544 545 546 
3 547 548 549 
3 547 549 190 
3 550 551 552 
3 550 552 553 
3 553 552 554 
3 553 554 555 
3 192 191 556 
3 192 556 557 
3 558 559 193 
3 558 193 544 
3 190 549 560 
3 190 560 561 
3 562 563 533 
3 562 533 532 
3 564 194 529 
3 564 529 565 
3 564 565 566 
3 567 568 197 
3 567 197 198 
3 568 96 199 
3 568 199 197 
3 199 96 97 
3 199 97 200 
3 97 567 198 
3 97 198 200 
3 569 570 571 
3 569 571 572 
3 573 574 575 
3 573 575 576 
3 577 578 579 
3 577 579 580 
3 581 582 583 
3 581 583 584 
