ply
format ascii 1.0
comment VCGLIB generated
comment TextureFile SpaceInteriors_Texture.png
element vertex 408
property float x
property float y
property float z
property float nx
property float ny
property float nz
property uchar red
property uchar green
property uchar blue
property uchar alpha
property float texture_u
property float texture_v
element face 224
property list uchar int vertex_indices
end_header
-3 -0 0 -1 -1 3 192 192 192 255 0.200168 0.061667
0 0 0 2 -2 3 192 192 192 255 0.200168 0.061667
-3 1 0 -2 2 3 192 192 192 255 0.300052 0.061667
0 1 0 1 1 3 192 192 192 255 0.300052 0.061667
-3 1 -0.37073 -1 1 -3 192 192 192 255 0.300052 0.061667
0 1 -0.37073 2 2 -3 192 192 192 255 0.300052 0.061667
-3 -0 -0.37073 -2 -2 -3 192 192 192 255 0.200168 0.061667
0 0 -0.37073 1 -1 -3 192 192 192 255 0.200168 0.061667
-2.9101 0.089901 0 1 2 3 192 192 192 255 0.265187 0.061667
-0.089901 0.089901 0 -2 1 3 192 192 192 255 0.265187 0.061667
-0.089901 0.910099 0 -0.999999 -2 3 192 192 192 255 0.265187 0.061667
-2.9101 0.910098 0 2 -1 3 192 192 192 255 0.265187 0.061667
-2.9101 0.910098 -0.37073 1 -2 -3 192 192 192 255 0.265187 0.061667
-0.089901 0.910099 -0.37073 -2 -1 -3 192 192 192 255 0.265187 0.061667
-0.089901 0.089901 -0.37073 -1 2 -3 192 192 192 255 0.265187 0.061667
-2.9101 0.089901 -0.37073 2 1 -3 192 192 192 255 0.265187 0.061667
-2.9101 0.089901 -0.182374 2 1 3 192 192 192 255 0.299122 0.061667
-0.089901 0.089901 -0.182374 -1 2 3 192 192 192 255 0.299122 0.061667
-0.089901 0.910099 -0.182374 -2 -1 3 192 192 192 255 0.233038 0.061667
-2.9101 0.910098 -0.182374 1 -2 3 192 192 192 255 0.265187 0.061667
-2.9101 0.910098 -0.232306 2 -1 -3 192 192 192 255 0.265187 0.061667
-0.089901 0.910099 -0.232307 -1 -2 -3 192 192 192 255 0.265187 0.061667
-0.089901 0.089901 -0.232307 -2 1 -3 192 192 192 255 0.233038 0.061667
-2.9101 0.089901 -0.232306 1 2 -3 192 192 192 255 0.299122 0.061667
-2.83941 0.192121 -0.182374 1 1 3 192 192 192 255 0.20176 0.061667
-0.160589 0.192121 -0.182374 -1 2 3 192 192 192 255 0.20176 0.061667
-0.160589 0.807879 -0.182374 -2 -2 3 192 192 192 255 0.20176 0.061667
-2.83941 0.807879 -0.182374 2 -1 3 192 192 192 255 0.20176 0.061667
-2.83941 0.807879 -0.232306 1 -2 -3 192 192 192 255 0.20176 0.061667
-0.160589 0.807879 -0.232307 -1 -1 -3 192 192 192 255 0.20176 0.061667
-0.160589 0.192121 -0.232307 -2 1 -3 192 192 192 255 0.20176 0.061667
-2.83941 0.192121 -0.232306 2 2 -3 192 192 192 255 0.20176 0.061667
-1.29482 0.833737 -0.158209 -1 -1 2 192 192 192 255 0.356003 0.061667
-1.24643 0.833737 -0.158209 2 -2 1 192 192 192 255 0.356003 0.061667
-1.29482 0.882127 -0.158209 -2 2 1 192 192 192 255 0.356003 0.061667
-1.24643 0.882127 -0.158209 1 1 2 192 192 192 255 0.356003 0.061667
-1.29482 0.882127 -0.182374 -1 1 0 192 192 192 255 0.390868 0.061667
-1.24643 0.882127 -0.182374 2 2 0 192 192 192 255 0.390868 0.061667
-1.29482 0.833737 -0.182374 -2 -2 0 192 192 192 255 0.290983 0.061667
-1.24643 0.833737 -0.182374 1 -1 0 192 192 192 255 0.290983 0.061667
-1.75357 0.833737 -0.158209 -1 -1 2 192 192 192 255 0.356003 0.061667
-1.70518 0.833737 -0.158209 2 -2 1 192 192 192 255 0.356003 0.061667
-1.75357 0.882127 -0.158209 -2 2 1 192 192 192 255 0.356003 0.061667
-1.70518 0.882127 -0.158209 1 1 2 192 192 192 255 0.356003 0.061667
-1.75357 0.882127 -0.182374 -1 1 0 192 192 192 255 0.390868 0.061667
-1.70518 0.882127 -0.182374 2 2 0 192 192 192 255 0.390868 0.061667
-1.75357 0.833737 -0.182374 -2 -2 0 192 192 192 255 0.290983 0.061667
-1.70518 0.833737 -0.182374 1 -1 0 192 192 192 255 0.290983 0.061667
-1.29482 0.117874 -0.158209 -1 -1 2 192 192 192 255 0.356003 0.061667
-1.24643 0.117874 -0.158209 2 -2 1 192 192 192 255 0.356003 0.061667
-1.29482 0.166263 -0.158209 -2 2 1 192 192 192 255 0.356003 0.061667
-1.24643 0.166263 -0.158209 1 1 2 192 192 192 255 0.356003 0.061667
-1.29482 0.166263 -0.182374 -1 1 0 192 192 192 255 0.390868 0.061667
-1.24643 0.166263 -0.182374 2 2 0 192 192 192 255 0.390868 0.061667
-1.29482 0.117874 -0.182374 -2 -2 0 192 192 192 255 0.290983 0.061667
-1.24643 0.117874 -0.182374 1 -1 0 192 192 192 255 0.290983 0.061667
-1.75357 0.117874 -0.158209 -1 -1 2 192 192 192 255 0.356003 0.061667
-1.70518 0.117874 -0.158209 2 -2 1 192 192 192 255 0.356003 0.061667
-1.75357 0.166263 -0.158209 -2 2 1 192 192 192 255 0.356003 0.061667
-1.70518 0.166263 -0.158209 1 1 2 192 192 192 255 0.356003 0.061667
-1.75357 0.166263 -0.182374 -1 1 0 192 192 192 255 0.390868 0.061667
-1.70518 0.166263 -0.182374 2 2 0 192 192 192 255 0.390868 0.061667
-1.75357 0.117874 -0.182374 -2 -2 0 192 192 192 255 0.290983 0.061667
-1.70518 0.117874 -0.182374 1 -1 0 192 192 192 255 0.290983 0.061667
-2.26111 0.833737 -0.158209 -1 -1 2 192 192 192 255 0.356003 0.061667
-2.21272 0.833737 -0.158209 2 -2 1 192 192 192 255 0.356003 0.061667
-2.26111 0.882127 -0.158209 -2 2 1 192 192 192 255 0.356003 0.061667
-2.21272 0.882127 -0.158209 1 1 2 192 192 192 255 0.356003 0.061667
-2.26111 0.882127 -0.182374 -1 1 0 192 192 192 255 0.390868 0.061667
-2.21272 0.882127 -0.182374 2 2 0 192 192 192 255 0.390868 0.061667
-2.26111 0.833737 -0.182374 -2 -2 0 192 192 192 255 0.290983 0.061667
-2.21272 0.833737 -0.182374 1 -1 0 192 192 192 255 0.290983 0.061667
-2.71985 0.833737 -0.158209 -1 -1 2 192 192 192 255 0.356003 0.061667
-2.67146 0.833737 -0.158209 2 -2 1 192 192 192 255 0.356003 0.061667
-2.71985 0.882127 -0.158209 -2 2 1 192 192 192 255 0.356003 0.061667
-2.67146 0.882127 -0.158209 1 1 2 192 192 192 255 0.356003 0.061667
-2.71985 0.882127 -0.182374 -1 1 0 192 192 192 255 0.390868 0.061667
-2.67146 0.882127 -0.182374 2 2 0 192 192 192 255 0.390868 0.061667
-2.71985 0.833737 -0.182374 -2 -2 0 192 192 192 255 0.290983 0.061667
-2.67146 0.833737 -0.182374 1 -1 0 192 192 192 255 0.290983 0.061667
-2.49048 0.833737 -0.158209 -1 -1 2 192 192 192 255 0.356003 0.061667
-2.44209 0.833737 -0.158209 2 -2 1 192 192 192 255 0.356003 0.061667
-2.49048 0.882127 -0.158209 -2 2 1 192 192 192 255 0.356003 0.061667
-2.44209 0.882127 -0.158209 1 1 2 192 192 192 255 0.356003 0.061667
-2.49048 0.882127 -0.182374 -1 1 0 192 192 192 255 0.390868 0.061667
-2.44209 0.882127 -0.182374 2 2 0 192 192 192 255 0.390868 0.061667
-2.49048 0.833737 -0.182374 -2 -2 0 192 192 192 255 0.290983 0.061667
-2.44209 0.833737 -0.182374 1 -1 0 192 192 192 255 0.290983 0.061667
-2.26111 0.117874 -0.158209 -1 -1 2 192 192 192 255 0.356003 0.061667
-2.21272 0.117874 -0.158209 2 -2 1 192 192 192 255 0.356003 0.061667
-2.26111 0.166263 -0.158209 -2 2 1 192 192 192 255 0.356003 0.061667
-2.21272 0.166263 -0.158209 1 1 2 192 192 192 255 0.356003 0.061667
-2.26111 0.166263 -0.182374 -1 1 0 192 192 192 255 0.390868 0.061667
-2.21272 0.166263 -0.182374 2 2 0 192 192 192 255 0.390868 0.061667
-2.26111 0.117874 -0.182374 -2 -2 0 192 192 192 255 0.290983 0.061667
-2.21272 0.117874 -0.182374 1 -1 0 192 192 192 255 0.290983 0.061667
-2.71985 0.117874 -0.158209 -1 -1 2 192 192 192 255 0.356003 0.061667
-2.67146 0.117874 -0.158209 2 -2 1 192 192 192 255 0.356003 0.061667
-2.71985 0.166263 -0.158209 -2 2 1 192 192 192 255 0.356003 0.061667
-2.67146 0.166263 -0.158209 1 1 2 192 192 192 255 0.356003 0.061667
-2.71985 0.166263 -0.182374 -1 1 0 192 192 192 255 0.390868 0.061667
-2.67146 0.166263 -0.182374 2 2 0 192 192 192 255 0.390868 0.061667
-2.71985 0.117874 -0.182374 -2 -2 0 192 192 192 255 0.290983 0.061667
-2.67146 0.117874 -0.182374 1 -1 0 192 192 192 255 0.290983 0.061667
-2.49048 0.117874 -0.158209 -1 -1 2 192 192 192 255 0.356003 0.061667
-2.44209 0.117874 -0.158209 2 -2 1 192 192 192 255 0.356003 0.061667
-2.49048 0.166263 -0.158209 -2 2 1 192 192 192 255 0.356003 0.061667
-2.44209 0.166263 -0.158209 1 1 2 192 192 192 255 0.356003 0.061667
-2.49048 0.166263 -0.182374 -1 1 0 192 192 192 255 0.390868 0.061667
-2.44209 0.166263 -0.182374 2 2 0 192 192 192 255 0.390868 0.061667
-2.49048 0.117874 -0.182374 -2 -2 0 192 192 192 255 0.290983 0.061667
-2.44209 0.117874 -0.182374 1 -1 0 192 192 192 255 0.290983 0.061667
-0.294823 0.833737 -0.158209 -1 -1 2 192 192 192 255 0.356003 0.061667
-0.246433 0.833737 -0.158209 2 -2 1 192 192 192 255 0.356003 0.061667
-0.294823 0.882127 -0.158209 -2 2 1 192 192 192 255 0.356003 0.061667
-0.246433 0.882127 -0.158209 1 1 2 192 192 192 255 0.356003 0.061667
-0.294823 0.882127 -0.182374 -1 1 0 192 192 192 255 0.390868 0.061667
-0.246433 0.882127 -0.182374 2 2 0 192 192 192 255 0.390868 0.061667
-0.294823 0.833737 -0.182374 -2 -2 0 192 192 192 255 0.290983 0.061667
-0.246433 0.833737 -0.182374 1 -1 0 192 192 192 255 0.290983 0.061667
-0.753567 0.833737 -0.158209 -1 -1 2 192 192 192 255 0.356003 0.061667
-0.705177 0.833737 -0.158209 2 -2 1 192 192 192 255 0.356003 0.061667
-0.753567 0.882127 -0.158209 -2 2 1 192 192 192 255 0.356003 0.061667
-0.705177 0.882127 -0.158209 1 1 2 192 192 192 255 0.356003 0.061667
-0.753567 0.882127 -0.182374 -1 1 0 192 192 192 255 0.390868 0.061667
-0.705177 0.882127 -0.182374 2 2 0 192 192 192 255 0.390868 0.061667
-0.753567 0.833737 -0.182374 -2 -2 0 192 192 192 255 0.290983 0.061667
-0.705177 0.833737 -0.182374 1 -1 0 192 192 192 255 0.290983 0.061667
-0.524195 0.833737 -0.158209 -1 -1 2 192 192 192 255 0.356003 0.061667
-0.475805 0.833737 -0.158209 2 -2 1 192 192 192 255 0.356003 0.061667
-0.524195 0.882127 -0.158209 -2 2 1 192 192 192 255 0.356003 0.061667
-0.475805 0.882127 -0.158209 1 1 2 192 192 192 255 0.356003 0.061667
-0.524195 0.882127 -0.182374 -1 1 0 192 192 192 255 0.390868 0.061667
-0.475805 0.882127 -0.182374 2 2 0 192 192 192 255 0.390868 0.061667
-0.524195 0.833737 -0.182374 -2 -2 0 192 192 192 255 0.290983 0.061667
-0.475805 0.833737 -0.182374 1 -1 0 192 192 192 255 0.290983 0.061667
-0.294823 0.117874 -0.158209 -1 -1 2 192 192 192 255 0.356003 0.061667
-0.246433 0.117874 -0.158209 2 -2 1 192 192 192 255 0.356003 0.061667
-0.294823 0.166263 -0.158209 -2 2 1 192 192 192 255 0.356003 0.061667
-0.246433 0.166263 -0.158209 1 1 2 192 192 192 255 0.356003 0.061667
-0.294823 0.166263 -0.182374 -1 1 0 192 192 192 255 0.390868 0.061667
-0.246433 0.166263 -0.182374 2 2 0 192 192 192 255 0.390868 0.061667
-0.294823 0.117874 -0.182374 -2 -2 0 192 192 192 255 0.290983 0.061667
-0.246433 0.117874 -0.182374 1 -1 0 192 192 192 255 0.290983 0.061667
-0.753567 0.117874 -0.158209 -1 -1 2 192 192 192 255 0.356003 0.061667
-0.705177 0.117874 -0.158209 2 -2 1 192 192 192 255 0.356003 0.061667
-0.753567 0.166263 -0.158209 -2 2 1 192 192 192 255 0.356003 0.061667
-0.705177 0.166263 -0.158209 1 1 2 192 192 192 255 0.356003 0.061667
-0.753567 0.166263 -0.182374 -1 1 0 192 192 192 255 0.390868 0.061667
-0.705177 0.166263 -0.182374 2 2 0 192 192 192 255 0.390868 0.061667
-0.753567 0.117874 -0.182374 -2 -2 0 192 192 192 255 0.290983 0.061667
-0.705177 0.117874 -0.182374 1 -1 0 192 192 192 255 0.290983 0.061667
-0.524195 0.117874 -0.158209 -1 -1 2 192 192 192 255 0.356003 0.061667
-0.475805 0.117874 -0.158209 2 -2 1 192 192 192 255 0.356003 0.061667
-0.524195 0.166263 -0.158209 -2 2 1 192 192 192 255 0.356003 0.061667
-0.475805 0.166263 -0.158209 1 1 2 192 192 192 255 0.356003 0.061667
-0.524195 0.166263 -0.182374 -1 1 0 192 192 192 255 0.390868 0.061667
-0.475805 0.166263 -0.182374 2 2 0 192 192 192 255 0.390868 0.061667
-0.524195 0.117874 -0.182374 -2 -2 0 192 192 192 255 0.290983 0.061667
-0.475805 0.117874 -0.182374 1 -1 0 192 192 192 255 0.290983 0.061667
0 0 0 2 -2 3 192 192 192 255 0.233148 0.061667
0 0 -0.37073 1 -1 -3 192 192 192 255 0.233148 0.061667
0 1 -0.37073 2 2 -3 192 192 192 255 0.233148 0.061667
0 1 0 1 1 3 192 192 192 255 0.233148 0.061667
-3 -0 -0.37073 -2 -2 -3 192 192 192 255 0.233148 0.061667
-3 -0 0 -1 -1 3 192 192 192 255 0.233148 0.061667
-3 1 0 -2 2 3 192 192 192 255 0.233148 0.061667
-3 1 -0.37073 -1 1 -3 192 192 192 255 0.233148 0.061667
-3 -0 0 -1 -1 3 192 192 192 255 0.265187 0.061667
0 0 0 2 -2 3 192 192 192 255 0.265187 0.061667
0 1 0 1 1 3 192 192 192 255 0.265187 0.061667
-3 1 0 -2 2 3 192 192 192 255 0.265187 0.061667
-3 1 -0.37073 -1 1 -3 192 192 192 255 0.265187 0.061667
0 1 -0.37073 2 2 -3 192 192 192 255 0.265187 0.061667
0 0 -0.37073 1 -1 -3 192 192 192 255 0.265187 0.061667
-3 -0 -0.37073 -2 -2 -3 192 192 192 255 0.265187 0.061667
-2.9101 0.089901 0 1 2 3 192 192 192 255 0.299122 0.061667
-0.089901 0.089901 0 -2 1 3 192 192 192 255 0.299122 0.061667
-0.089901 0.089901 0 -2 1 3 192 192 192 255 0.233038 0.061667
-0.089901 0.910099 0 -0.999999 -2 3 192 192 192 255 0.233038 0.061667
-0.089901 0.089901 -0.182374 -1 2 3 192 192 192 255 0.233038 0.061667
-0.089901 0.910099 -0.182374 -2 -1 3 192 192 192 255 0.265187 0.061667
-2.9101 0.910098 0 2 -1 3 192 192 192 255 0.233038 0.061667
-2.9101 0.089901 0 1 2 3 192 192 192 255 0.233038 0.061667
-2.9101 0.089901 -0.182374 2 1 3 192 192 192 255 0.233038 0.061667
-2.9101 0.910098 -0.182374 1 -2 3 192 192 192 255 0.233038 0.061667
-0.089901 0.910099 -0.37073 -2 -1 -3 192 192 192 255 0.233038 0.061667
-0.089901 0.089901 -0.37073 -1 2 -3 192 192 192 255 0.233038 0.061667
-0.089901 0.910099 -0.232307 -1 -2 -3 192 192 192 255 0.233038 0.061667
-0.089901 0.089901 -0.37073 -1 2 -3 192 192 192 255 0.299122 0.061667
-2.9101 0.089901 -0.37073 2 1 -3 192 192 192 255 0.299122 0.061667
-0.089901 0.089901 -0.232307 -2 1 -3 192 192 192 255 0.299122 0.061667
-2.9101 0.089901 -0.37073 2 1 -3 192 192 192 255 0.233038 0.061667
-2.9101 0.910098 -0.37073 1 -2 -3 192 192 192 255 0.233038 0.061667
-2.9101 0.910098 -0.232306 2 -1 -3 192 192 192 255 0.233038 0.061667
-2.9101 0.089901 -0.232306 1 2 -3 192 192 192 255 0.233038 0.061667
-2.9101 0.089901 -0.182374 2 1 3 192 192 192 255 0.20176 0.061667
-0.089901 0.089901 -0.182374 -1 2 3 192 192 192 255 0.20176 0.061667
-0.089901 0.910099 -0.182374 -2 -1 3 192 192 192 255 0.20176 0.061667
-2.9101 0.910098 -0.182374 1 -2 3 192 192 192 255 0.20176 0.061667
-2.9101 0.910098 -0.232306 2 -1 -3 192 192 192 255 0.20176 0.061667
-0.089901 0.910099 -0.232307 -1 -2 -3 192 192 192 255 0.20176 0.061667
-0.089901 0.089901 -0.232307 -2 1 -3 192 192 192 255 0.20176 0.061667
-2.9101 0.089901 -0.232306 1 2 -3 192 192 192 255 0.20176 0.061667
-2.83941 0.807879 -0.182374 2 -1 3 192 192 192 255 0.169611 0.061667
-2.83941 0.192121 -0.182374 1 1 3 192 192 192 255 0.169611 0.061667
-2.83941 0.192121 -0.232306 2 2 -3 192 192 192 255 0.169611 0.061667
-2.83941 0.807879 -0.232306 1 -2 -3 192 192 192 255 0.169611 0.061667
-0.160589 0.807879 -0.182374 -2 -2 3 192 192 192 255 0.169611 0.061667
-0.160589 0.807879 -0.232307 -1 -1 -3 192 192 192 255 0.169611 0.061667
-0.160589 0.192121 -0.232307 -2 1 -3 192 192 192 255 0.169611 0.061667
-0.160589 0.192121 -0.182374 -1 2 3 192 192 192 255 0.169611 0.061667
-0.160589 0.192121 -0.182374 -1 2 3 192 192 192 255 0.235695 0.061667
-0.160589 0.192121 -0.232307 -2 1 -3 192 192 192 255 0.235695 0.061667
-2.83941 0.192121 -0.232306 2 2 -3 192 192 192 255 0.235695 0.061667
-2.83941 0.192121 -0.182374 1 1 3 192 192 192 255 0.235695 0.061667
-1.29482 0.882127 -0.158209 -2 2 1 192 192 192 255 0.390868 0.061667
-1.24643 0.882127 -0.158209 1 1 2 192 192 192 255 0.390868 0.061667
-1.24643 0.833737 -0.158209 2 -2 1 192 192 192 255 0.290983 0.061667
-1.29482 0.833737 -0.158209 -1 -1 2 192 192 192 255 0.290983 0.061667
-1.24643 0.833737 -0.158209 2 -2 1 192 192 192 255 0.323964 0.061667
-1.24643 0.833737 -0.182374 1 -1 0 192 192 192 255 0.323964 0.061667
-1.24643 0.882127 -0.182374 2 2 0 192 192 192 255 0.323964 0.061667
-1.24643 0.882127 -0.158209 1 1 2 192 192 192 255 0.323964 0.061667
-1.29482 0.833737 -0.182374 -2 -2 0 192 192 192 255 0.323964 0.061667
-1.29482 0.833737 -0.158209 -1 -1 2 192 192 192 255 0.323964 0.061667
-1.29482 0.882127 -0.158209 -2 2 1 192 192 192 255 0.323964 0.061667
-1.29482 0.882127 -0.182374 -1 1 0 192 192 192 255 0.323964 0.061667
-1.75357 0.882127 -0.158209 -2 2 1 192 192 192 255 0.390868 0.061667
-1.70518 0.882127 -0.158209 1 1 2 192 192 192 255 0.390868 0.061667
-1.70518 0.833737 -0.158209 2 -2 1 192 192 192 255 0.290983 0.061667
-1.75357 0.833737 -0.158209 -1 -1 2 192 192 192 255 0.290983 0.061667
-1.70518 0.833737 -0.158209 2 -2 1 192 192 192 255 0.323964 0.061667
-1.70518 0.833737 -0.182374 1 -1 0 192 192 192 255 0.323964 0.061667
-1.70518 0.882127 -0.182374 2 2 0 192 192 192 255 0.323964 0.061667
-1.70518 0.882127 -0.158209 1 1 2 192 192 192 255 0.323964 0.061667
-1.75357 0.833737 -0.182374 -2 -2 0 192 192 192 255 0.323964 0.061667
-1.75357 0.833737 -0.158209 -1 -1 2 192 192 192 255 0.323964 0.061667
-1.75357 0.882127 -0.158209 -2 2 1 192 192 192 255 0.323964 0.061667
-1.75357 0.882127 -0.182374 -1 1 0 192 192 192 255 0.323964 0.061667
-1.29482 0.166263 -0.158209 -2 2 1 192 192 192 255 0.390868 0.061667
-1.24643 0.166263 -0.158209 1 1 2 192 192 192 255 0.390868 0.061667
-1.24643 0.117874 -0.158209 2 -2 1 192 192 192 255 0.290983 0.061667
-1.29482 0.117874 -0.158209 -1 -1 2 192 192 192 255 0.290983 0.061667
-1.24643 0.117874 -0.158209 2 -2 1 192 192 192 255 0.323964 0.061667
-1.24643 0.117874 -0.182374 1 -1 0 192 192 192 255 0.323964 0.061667
-1.24643 0.166263 -0.182374 2 2 0 192 192 192 255 0.323964 0.061667
-1.24643 0.166263 -0.158209 1 1 2 192 192 192 255 0.323964 0.061667
-1.29482 0.117874 -0.182374 -2 -2 0 192 192 192 255 0.323964 0.061667
-1.29482 0.117874 -0.158209 -1 -1 2 192 192 192 255 0.323964 0.061667
-1.29482 0.166263 -0.158209 -2 2 1 192 192 192 255 0.323964 0.061667
-1.29482 0.166263 -0.182374 -1 1 0 192 192 192 255 0.323964 0.061667
-1.75357 0.166263 -0.158209 -2 2 1 192 192 192 255 0.390868 0.061667
-1.70518 0.166263 -0.158209 1 1 2 192 192 192 255 0.390868 0.061667
-1.70518 0.117874 -0.158209 2 -2 1 192 192 192 255 0.290983 0.061667
-1.75357 0.117874 -0.158209 -1 -1 2 192 192 192 255 0.290983 0.061667
-1.70518 0.117874 -0.158209 2 -2 1 192 192 192 255 0.323964 0.061667
-1.70518 0.117874 -0.182374 1 -1 0 192 192 192 255 0.323964 0.061667
-1.70518 0.166263 -0.182374 2 2 0 192 192 192 255 0.323964 0.061667
-1.70518 0.166263 -0.158209 1 1 2 192 192 192 255 0.323964 0.061667
-1.75357 0.117874 -0.182374 -2 -2 0 192 192 192 255 0.323964 0.061667
-1.75357 0.117874 -0.158209 -1 -1 2 192 192 192 255 0.323964 0.061667
-1.75357 0.166263 -0.158209 -2 2 1 192 192 192 255 0.323964 0.061667
-1.75357 0.166263 -0.182374 -1 1 0 192 192 192 255 0.323964 0.061667
-2.26111 0.882127 -0.158209 -2 2 1 192 192 192 255 0.390868 0.061667
-2.21272 0.882127 -0.158209 1 1 2 192 192 192 255 0.390868 0.061667
-2.21272 0.833737 -0.158209 2 -2 1 192 192 192 255 0.290983 0.061667
-2.26111 0.833737 -0.158209 -1 -1 2 192 192 192 255 0.290983 0.061667
-2.21272 0.833737 -0.158209 2 -2 1 192 192 192 255 0.323964 0.061667
-2.21272 0.833737 -0.182374 1 -1 0 192 192 192 255 0.323964 0.061667
-2.21272 0.882127 -0.182374 2 2 0 192 192 192 255 0.323964 0.061667
-2.21272 0.882127 -0.158209 1 1 2 192 192 192 255 0.323964 0.061667
-2.26111 0.833737 -0.182374 -2 -2 0 192 192 192 255 0.323964 0.061667
-2.26111 0.833737 -0.158209 -1 -1 2 192 192 192 255 0.323964 0.061667
-2.26111 0.882127 -0.158209 -2 2 1 192 192 192 255 0.323964 0.061667
-2.26111 0.882127 -0.182374 -1 1 0 192 192 192 255 0.323964 0.061667
-2.71985 0.882127 -0.158209 -2 2 1 192 192 192 255 0.390868 0.061667
-2.67146 0.882127 -0.158209 1 1 2 192 192 192 255 0.390868 0.061667
-2.67146 0.833737 -0.158209 2 -2 1 192 192 192 255 0.290983 0.061667
-2.71985 0.833737 -0.158209 -1 -1 2 192 192 192 255 0.290983 0.061667
-2.67146 0.833737 -0.158209 2 -2 1 192 192 192 255 0.323964 0.061667
-2.67146 0.833737 -0.182374 1 -1 0 192 192 192 255 0.323964 0.061667
-2.67146 0.882127 -0.182374 2 2 0 192 192 192 255 0.323964 0.061667
-2.67146 0.882127 -0.158209 1 1 2 192 192 192 255 0.323964 0.061667
-2.71985 0.833737 -0.182374 -2 -2 0 192 192 192 255 0.323964 0.061667
-2.71985 0.833737 -0.158209 -1 -1 2 192 192 192 255 0.323964 0.061667
-2.71985 0.882127 -0.158209 -2 2 1 192 192 192 255 0.323964 0.061667
-2.71985 0.882127 -0.182374 -1 1 0 192 192 192 255 0.323964 0.061667
-2.49048 0.882127 -0.158209 -2 2 1 192 192 192 255 0.390868 0.061667
-2.44209 0.882127 -0.158209 1 1 2 192 192 192 255 0.390868 0.061667
-2.44209 0.833737 -0.158209 2 -2 1 192 192 192 255 0.290983 0.061667
-2.49048 0.833737 -0.158209 -1 -1 2 192 192 192 255 0.290983 0.061667
-2.44209 0.833737 -0.158209 2 -2 1 192 192 192 255 0.323964 0.061667
-2.44209 0.833737 -0.182374 1 -1 0 192 192 192 255 0.323964 0.061667
-2.44209 0.882127 -0.182374 2 2 0 192 192 192 255 0.323964 0.061667
-2.44209 0.882127 -0.158209 1 1 2 192 192 192 255 0.323964 0.061667
-2.49048 0.833737 -0.182374 -2 -2 0 192 192 192 255 0.323964 0.061667
-2.49048 0.833737 -0.158209 -1 -1 2 192 192 192 255 0.323964 0.061667
-2.49048 0.882127 -0.158209 -2 2 1 192 192 192 255 0.323964 0.061667
-2.49048 0.882127 -0.182374 -1 1 0 192 192 192 255 0.323964 0.061667
-2.26111 0.166263 -0.158209 -2 2 1 192 192 192 255 0.390868 0.061667
-2.21272 0.166263 -0.158209 1 1 2 192 192 192 255 0.390868 0.061667
-2.21272 0.117874 -0.158209 2 -2 1 192 192 192 255 0.290983 0.061667
-2.26111 0.117874 -0.158209 -1 -1 2 192 192 192 255 0.290983 0.061667
-2.21272 0.117874 -0.158209 2 -2 1 192 192 192 255 0.323964 0.061667
-2.21272 0.117874 -0.182374 1 -1 0 192 192 192 255 0.323964 0.061667
-2.21272 0.166263 -0.182374 2 2 0 192 192 192 255 0.323964 0.061667
-2.21272 0.166263 -0.158209 1 1 2 192 192 192 255 0.323964 0.061667
-2.26111 0.117874 -0.182374 -2 -2 0 192 192 192 255 0.323964 0.061667
-2.26111 0.117874 -0.158209 -1 -1 2 192 192 192 255 0.323964 0.061667
-2.26111 0.166263 -0.158209 -2 2 1 192 192 192 255 0.323964 0.061667
-2.26111 0.166263 -0.182374 -1 1 0 192 192 192 255 0.323964 0.061667
-2.71985 0.166263 -0.158209 -2 2 1 192 192 192 255 0.390868 0.061667
-2.67146 0.166263 -0.158209 1 1 2 192 192 192 255 0.390868 0.061667
-2.67146 0.117874 -0.158209 2 -2 1 192 192 192 255 0.290983 0.061667
-2.71985 0.117874 -0.158209 -1 -1 2 192 192 192 255 0.290983 0.061667
-2.67146 0.117874 -0.158209 2 -2 1 192 192 192 255 0.323964 0.061667
-2.67146 0.117874 -0.182374 1 -1 0 192 192 192 255 0.323964 0.061667
-2.67146 0.166263 -0.182374 2 2 0 192 192 192 255 0.323964 0.061667
-2.67146 0.166263 -0.158209 1 1 2 192 192 192 255 0.323964 0.061667
-2.71985 0.117874 -0.182374 -2 -2 0 192 192 192 255 0.323964 0.061667
-2.71985 0.117874 -0.158209 -1 -1 2 192 192 192 255 0.323964 0.061667
-2.71985 0.166263 -0.158209 -2 2 1 192 192 192 255 0.323964 0.061667
-2.71985 0.166263 -0.182374 -1 1 0 192 192 192 255 0.323964 0.061667
-2.49048 0.166263 -0.158209 -2 2 1 192 192 192 255 0.390868 0.061667
-2.44209 0.166263 -0.158209 1 1 2 192 192 192 255 0.390868 0.061667
-2.44209 0.117874 -0.158209 2 -2 1 192 192 192 255 0.290983 0.061667
-2.49048 0.117874 -0.158209 -1 -1 2 192 192 192 255 0.290983 0.061667
-2.44209 0.117874 -0.158209 2 -2 1 192 192 192 255 0.323964 0.061667
-2.44209 0.117874 -0.182374 1 -1 0 192 192 192 255 0.323964 0.061667
-2.44209 0.166263 -0.182374 2 2 0 192 192 192 255 0.323964 0.061667
-2.44209 0.166263 -0.158209 1 1 2 192 192 192 255 0.323964 0.061667
-2.49048 0.117874 -0.182374 -2 -2 0 192 192 192 255 0.323964 0.061667
-2.49048 0.117874 -0.158209 -1 -1 2 192 192 192 255 0.323964 0.061667
-2.49048 0.166263 -0.158209 -2 2 1 192 192 192 255 0.323964 0.061667
-2.49048 0.166263 -0.182374 -1 1 0 192 192 192 255 0.323964 0.061667
-0.294823 0.882127 -0.158209 -2 2 1 192 192 192 255 0.390868 0.061667
-0.246433 0.882127 -0.158209 1 1 2 192 192 192 255 0.390868 0.061667
-0.246433 0.833737 -0.158209 2 -2 1 192 192 192 255 0.290983 0.061667
-0.294823 0.833737 -0.158209 -1 -1 2 192 192 192 255 0.290983 0.061667
-0.246433 0.833737 -0.158209 2 -2 1 192 192 192 255 0.323964 0.061667
-0.246433 0.833737 -0.182374 1 -1 0 192 192 192 255 0.323964 0.061667
-0.246433 0.882127 -0.182374 2 2 0 192 192 192 255 0.323964 0.061667
-0.246433 0.882127 -0.158209 1 1 2 192 192 192 255 0.323964 0.061667
-0.294823 0.833737 -0.182374 -2 -2 0 192 192 192 255 0.323964 0.061667
-0.294823 0.833737 -0.158209 -1 -1 2 192 192 192 255 0.323964 0.061667
-0.294823 0.882127 -0.158209 -2 2 1 192 192 192 255 0.323964 0.061667
-0.294823 0.882127 -0.182374 -1 1 0 192 192 192 255 0.323964 0.061667
-0.753567 0.882127 -0.158209 -2 2 1 192 192 192 255 0.390868 0.061667
-0.705177 0.882127 -0.158209 1 1 2 192 192 192 255 0.390868 0.061667
-0.705177 0.833737 -0.158209 2 -2 1 192 192 192 255 0.290983 0.061667
-0.753567 0.833737 -0.158209 -1 -1 2 192 192 192 255 0.290983 0.061667
-0.705177 0.833737 -0.158209 2 -2 1 192 192 192 255 0.323964 0.061667
-0.705177 0.833737 -0.182374 1 -1 0 192 192 192 255 0.323964 0.061667
-0.705177 0.882127 -0.182374 2 2 0 192 192 192 255 0.323964 0.061667
-0.705177 0.882127 -0.158209 1 1 2 192 192 192 255 0.323964 0.061667
-0.753567 0.833737 -0.182374 -2 -2 0 192 192 192 255 0.323964 0.061667
-0.753567 0.833737 -0.158209 -1 -1 2 192 192 192 255 0.323964 0.061667
-0.753567 0.882127 -0.158209 -2 2 1 192 192 192 255 0.323964 0.061667
-0.753567 0.882127 -0.182374 -1 1 0 192 192 192 255 0.323964 0.061667
-0.524195 0.882127 -0.158209 -2 2 1 192 192 192 255 0.390868 0.061667
-0.475805 0.882127 -0.158209 1 1 2 192 192 192 255 0.390868 0.061667
-0.475805 0.833737 -0.158209 2 -2 1 192 192 192 255 0.290983 0.061667
-0.524195 0.833737 -0.158209 -1 -1 2 192 192 192 255 0.290983 0.061667
-0.475805 0.833737 -0.158209 2 -2 1 192 192 192 255 0.323964 0.061667
-0.475805 0.833737 -0.182374 1 -1 0 192 192 192 255 0.323964 0.061667
-0.475805 0.882127 -0.182374 2 2 0 192 192 192 255 0.323964 0.061667
-0.475805 0.882127 -0.158209 1 1 2 192 192 192 255 0.323964 0.061667
-0.524195 0.833737 -0.182374 -2 -2 0 192 192 192 255 0.323964 0.061667
-0.524195 0.833737 -0.158209 -1 -1 2 192 192 192 255 0.323964 0.061667
-0.524195 0.882127 -0.158209 -2 2 1 192 192 192 255 0.323964 0.061667
-0.524195 0.882127 -0.182374 -1 1 0 192 192 192 255 0.323964 0.061667
-0.294823 0.166263 -0.158209 -2 2 1 192 192 192 255 0.390868 0.061667
-0.246433 0.166263 -0.158209 1 1 2 192 192 192 255 0.390868 0.061667
-0.246433 0.117874 -0.158209 2 -2 1 192 192 192 255 0.290983 0.061667
-0.294823 0.117874 -0.158209 -1 -1 2 192 192 192 255 0.290983 0.061667
-0.246433 0.117874 -0.158209 2 -2 1 192 192 192 255 0.323964 0.061667
-0.246433 0.117874 -0.182374 1 -1 0 192 192 192 255 0.323964 0.061667
-0.246433 0.166263 -0.182374 2 2 0 192 192 192 255 0.323964 0.061667
-0.246433 0.166263 -0.158209 1 1 2 192 192 192 255 0.323964 0.061667
-0.294823 0.117874 -0.182374 -2 -2 0 192 192 192 255 0.323964 0.061667
-0.294823 0.117874 -0.158209 -1 -1 2 192 192 192 255 0.323964 0.061667
-0.294823 0.166263 -0.158209 -2 2 1 192 192 192 255 0.323964 0.061667
-0.294823 0.166263 -0.182374 -1 1 0 192 192 192 255 0.323964 0.061667
-0.753567 0.166263 -0.158209 -2 2 1 192 192 192 255 0.390868 0.061667
-0.705177 0.166263 -0.158209 1 1 2 192 192 192 255 0.390868 0.061667
-0.705177 0.117874 -0.158209 2 -2 1 192 192 192 255 0.290983 0.061667
-0.753567 0.117874 -0.158209 -1 -1 2 192 192 192 255 0.290983 0.061667
-0.705177 0.117874 -0.158209 2 -2 1 192 192 192 255 0.323964 0.061667
-0.705177 0.117874 -0.182374 1 -1 0 192 192 192 255 0.323964 0.061667
-0.705177 0.166263 -0.182374 2 2 0 192 192 192 255 0.323964 0.061667
-0.705177 0.166263 -0.158209 1 1 2 192 192 192 255 0.323964 0.061667
-0.753567 0.117874 -0.182374 -2 -2 0 192 192 192 255 0.323964 0.061667
-0.753567 0.117874 -0.158209 -1 -1 2 192 192 192 255 0.323964 0.061667
-0.753567 0.166263 -0.158209 -2 2 1 192 192 192 255 0.323964 0.061667
-0.753567 0.166263 -0.182374 -1 1 0 192 192 192 255 0.323964 0.061667
-0.524195 0.166263 -0.158209 -2 2 1 192 192 192 255 0.390868 0.061667
-0.475805 0.166263 -0.158209 1 1 2 192 192 192 255 0.390868 0.061667
-0.475805 0.117874 -0.158209 2 -2 1 192 192 192 255 0.290983 0.061667
-0.524195 0.117874 -0.158209 -1 -1 2 192 192 192 255 0.290983 0.061667
-0.475805 0.117874 -0.158209 2 -2 1 192 192 192 255 0.323964 0.061667
-0.475805 0.117874 -0.182374 1 -1 0 192 192 192 255 0.323964 0.061667
-0.475805 0.166263 -0.182374 2 2 0 192 192 192 255 0.323964 0.061667
-0.475805 0.166263 -0.158209 1 1 2 192 192 192 255 0.323964 0.061667
-0.524195 0.117874 -0.182374 -2 -2 0 192 192 192 255 0.323964 0.061667
-0.524195 0.117874 -0.158209 -1 -1 2 192 192 192 255 0.323964 0.061667
-0.524195 0.166263 -0.158209 -2 2 1 192 192 192 255 0.323964 0.061667
-0.524195 0.166263 -0.182374 -1 1 0 192 192 192 255 0.323964 0.061667
3 2 3 5 
3 2 5 4 
3 6 7 1 
3 6 1 0 
3 160 161 162 
3 160 162 163 
3 164 165 166 
3 164 166 167 
3 168 169 9 
3 168 9 8 
3 169 170 10 
3 169 10 9 
3 170 171 11 
3 170 11 10 
3 171 168 8 
3 171 8 11 
3 172 173 13 
3 172 13 12 
3 173 174 14 
3 173 14 13 
3 174 175 15 
3 174 15 14 
3 175 172 12 
3 175 12 15 
3 176 177 17 
3 176 17 16 
3 178 179 18 
3 178 18 180 
3 10 11 19 
3 10 19 181 
3 182 183 184 
3 182 184 185 
3 12 13 21 
3 12 21 20 
3 186 187 22 
3 186 22 188 
3 189 190 23 
3 189 23 191 
3 192 193 194 
3 192 194 195 
3 196 197 25 
3 196 25 24 
3 197 198 26 
3 197 26 25 
3 198 199 27 
3 198 27 26 
3 199 196 24 
3 199 24 27 
3 200 201 29 
3 200 29 28 
3 201 202 30 
3 201 30 29 
3 202 203 31 
3 202 31 30 
3 203 200 28 
3 203 28 31 
3 26 27 28 
3 26 28 29 
3 204 205 206 
3 204 206 207 
3 208 209 210 
3 208 210 211 
3 212 213 214 
3 212 214 215 
3 32 33 35 
3 32 35 34 
3 216 217 37 
3 216 37 36 
3 38 39 218 
3 38 218 219 
3 220 221 222 
3 220 222 223 
3 224 225 226 
3 224 226 227 
3 40 41 43 
3 40 43 42 
3 228 229 45 
3 228 45 44 
3 46 47 230 
3 46 230 231 
3 232 233 234 
3 232 234 235 
3 236 237 238 
3 236 238 239 
3 48 49 51 
3 48 51 50 
3 240 241 53 
3 240 53 52 
3 54 55 242 
3 54 242 243 
3 244 245 246 
3 244 246 247 
3 248 249 250 
3 248 250 251 
3 56 57 59 
3 56 59 58 
3 252 253 61 
3 252 61 60 
3 62 63 254 
3 62 254 255 
3 256 257 258 
3 256 258 259 
3 260 261 262 
3 260 262 263 
3 64 65 67 
3 64 67 66 
3 264 265 69 
3 264 69 68 
3 70 71 266 
3 70 266 267 
3 268 269 270 
3 268 270 271 
3 272 273 274 
3 272 274 275 
3 72 73 75 
3 72 75 74 
3 276 277 77 
3 276 77 76 
3 78 79 278 
3 78 278 279 
3 280 281 282 
3 280 282 283 
3 284 285 286 
3 284 286 287 
3 80 81 83 
3 80 83 82 
3 288 289 85 
3 288 85 84 
3 86 87 290 
3 86 290 291 
3 292 293 294 
3 292 294 295 
3 296 297 298 
3 296 298 299 
3 88 89 91 
3 88 91 90 
3 300 301 93 
3 300 93 92 
3 94 95 302 
3 94 302 303 
3 304 305 306 
3 304 306 307 
3 308 309 310 
3 308 310 311 
3 96 97 99 
3 96 99 98 
3 312 313 101 
3 312 101 100 
3 102 103 314 
3 102 314 315 
3 316 317 318 
3 316 318 319 
3 320 321 322 
3 320 322 323 
3 104 105 107 
3 104 107 106 
3 324 325 109 
3 324 109 108 
3 110 111 326 
3 110 326 327 
3 328 329 330 
3 328 330 331 
3 332 333 334 
3 332 334 335 
3 112 113 115 
3 112 115 114 
3 336 337 117 
3 336 117 116 
3 118 119 338 
3 118 338 339 
3 340 341 342 
3 340 342 343 
3 344 345 346 
3 344 346 347 
3 120 121 123 
3 120 123 122 
3 348 349 125 
3 348 125 124 
3 126 127 350 
3 126 350 351 
3 352 353 354 
3 352 354 355 
3 356 357 358 
3 356 358 359 
3 128 129 131 
3 128 131 130 
3 360 361 133 
3 360 133 132 
3 134 135 362 
3 134 362 363 
3 364 365 366 
3 364 366 367 
3 368 369 370 
3 368 370 371 
3 136 137 139 
3 136 139 138 
3 372 373 141 
3 372 141 140 
3 142 143 374 
3 142 374 375 
3 376 377 378 
3 376 378 379 
3 380 381 382 
3 380 382 383 
3 144 145 147 
3 144 147 146 
3 384 385 149 
3 384 149 148 
3 150 151 386 
3 150 386 387 
3 388 389 390 
3 388 390 391 
3 392 393 394 
3 392 394 395 
3 152 153 155 
3 152 155 154 
3 396 397 157 
3 396 157 156 
3 158 159 398 
3 158 398 399 
3 400 401 402 
3 400 402 403 
3 404 405 406 
3 404 406 407 
