ply
format ascii 1.0
comment VCGLIB generated
comment TextureFile SpaceInteriors_Texture.png
element vertex 120
property float x
property float y
property float z
property float nx
property float ny
property float nz
property uchar red
property uchar green
property uchar blue
property uchar alpha
property float texture_u
property float texture_v
element face 76
property list uchar int vertex_indices
end_header
-1.41684 -0.192508 -0.277649 -3 0.938874 -2.34426 192 192 192 255 0.173674 0.067537
1.41684 -0.192508 -0.277649 3 1.87775 -1.68852 192 192 192 255 0.173674 0.067537
-1.41684 -0.192508 0.277649 -3 1.87775 1.68852 192 192 192 255 0.173674 0.067537
1.41684 -0.192508 0.277649 3 1.87775 1.68852 192 192 192 255 0.173674 0.067537
-1.41684 -0.369694 -0.277649 -2 -2 -1 192 192 192 255 0.20126 0.063182
1.41684 -0.369694 -0.277649 1 -1 -1 192 192 192 255 0.173674 0.067537
1.41684 -0.369694 0.277649 2 -2 1 192 192 192 255 0.173674 0.067537
-1.41684 -0.369694 0.277649 -1 -1 2 192 192 192 255 0.20126 0.063182
-1.41684 -0.126875 -0.098654 -3 1.87775 -1.68852 192 192 192 255 0.173674 0.067537
-1.41684 -0.126875 0.098654 -3 0.938874 2.34426 192 192 192 255 0.173674 0.067537
1.41684 -0.126875 0.098654 3 0.938874 2.34426 192 192 192 255 0.173674 0.067537
1.41684 -0.126875 -0.098654 3 0.938874 -2.34426 192 192 192 255 0.173674 0.067537
-1.41684 0 -0.098654 -1 2 -2 192 192 192 255 0.239734 0.06173
-1.41684 0 0.098654 -2 1 1 192 192 192 255 0.239734 0.06173
1.41684 0 0.098654 1 2 1 192 192 192 255 0.173674 0.067537
1.41684 0 -0.098654 2 1 -1 192 192 192 255 0.173674 0.067537
1.35763 -0.369694 -0.277649 0 -3 -3 192 192 192 255 0.20126 0.063182
1.35763 -0.369694 0.277649 0 -3 3 192 192 192 255 0.20126 0.063182
1.35763 -0.192508 0.277649 0 2.81662 4.03278 192 192 192 255 0.239734 0.06173
1.35763 -0.126875 0.098654 0 2.81662 4.03278 192 192 192 255 0.239734 0.06173
1.35763 0 0.098654 0 3 3 192 192 192 255 0.20126 0.063182
1.35763 0 -0.098654 0 3 -3 192 192 192 255 0.239734 0.06173
1.35763 -0.126875 -0.098654 0 2.81662 -4.03278 192 192 192 255 0.20126 0.063182
1.35763 -0.192508 -0.277649 0 2.81662 -4.03278 192 192 192 255 0.239734 0.06173
-1.35763 -0.369694 -0.277649 0 -3 -4 192 192 192 255 0.20126 0.063182
-1.35763 -0.369694 0.277649 0 -3 3 192 192 192 255 0.20126 0.063182
-1.35763 -0.192508 0.277649 0 1.87775 4.68852 192 192 192 255 0.239734 0.06173
-1.35763 -0.126875 0.098654 0 3.7555 3.37705 192 192 192 255 0.239734 0.06173
-1.35763 0 0.098654 0 3 4 192 192 192 255 0.239734 0.06173
-1.35763 0 -0.098654 0 3 -3 192 192 192 255 0.239734 0.06173
-1.35763 -0.126875 -0.098654 0 2.81662 -4.03278 192 192 192 255 0.239734 0.06173
-1.35763 -0.192508 -0.277649 0 2.81662 -4.03278 192 192 192 255 0.239734 0.06173
-1.35763 -0.272564 0.277649 0 0 5 192 192 192 255 0.20126 0.063182
-1.41684 -0.272564 0.277649 -3 0 3 192 192 192 255 0.20126 0.063182
-1.41684 -0.272564 -0.277649 -3 0 -3 192 192 192 255 0.20126 0.063182
-1.35763 -0.272564 -0.277649 0 0 -5 192 192 192 255 0.20126 0.063182
1.35763 -0.272564 -0.277649 0 0 -6 192 192 192 255 0.20126 0.063182
1.41684 -0.272564 -0.277649 3 0 -4 192 192 192 255 0.173674 0.067537
1.41684 -0.272564 0.277649 3 0 4 192 192 192 255 0.173674 0.067537
1.35763 -0.272564 0.277649 0 0 6 192 192 192 255 0.20126 0.063182
-1.41684 -0.272564 0.277649 -3 0 3 192 192 192 255 0.173674 0.067537
-1.41684 -0.272564 -0.277649 -3 0 -3 192 192 192 255 0.173674 0.067537
-1.41684 -0.369694 -0.277649 -2 -2 -1 192 192 192 255 0.173674 0.067537
-1.41684 -0.369694 0.277649 -1 -1 2 192 192 192 255 0.173674 0.067537
-1.41684 -0.192508 0.277649 -3 1.87775 1.68852 192 192 192 255 0.239734 0.06173
-1.41684 -0.126875 0.098654 -3 0.938874 2.34426 192 192 192 255 0.239734 0.06173
-1.41684 -0.192508 -0.277649 -3 0.938874 -2.34426 192 192 192 255 0.239734 0.06173
-1.41684 -0.126875 -0.098654 -3 1.87775 -1.68852 192 192 192 255 0.239734 0.06173
-1.41684 0 0.098654 -2 1 1 192 192 192 255 0.173674 0.067537
-1.41684 0 -0.098654 -1 2 -2 192 192 192 255 0.173674 0.067537
-1.41684 -0.126875 0.098654 -3 0.938874 2.34426 192 192 192 255 0.20126 0.063182
-1.35763 -0.126875 0.098654 0 3.7555 3.37705 192 192 192 255 0.20126 0.063182
-1.35763 0 0.098654 0 3 4 192 192 192 255 0.20126 0.063182
-1.41684 0 0.098654 -2 1 1 192 192 192 255 0.20126 0.063182
-1.35763 -0.126875 -0.098654 0 2.81662 -4.03278 192 192 192 255 0.20126 0.063182
-1.41684 -0.126875 -0.098654 -3 1.87775 -1.68852 192 192 192 255 0.20126 0.063182
-1.41684 0 -0.098654 -1 2 -2 192 192 192 255 0.20126 0.063182
-1.35763 0 -0.098654 0 3 -3 192 192 192 255 0.20126 0.063182
1.41684 -0.369694 -0.277649 1 -1 -1 192 192 192 255 0.20126 0.063182
1.41684 -0.369694 0.277649 2 -2 1 192 192 192 255 0.20126 0.063182
1.41684 -0.272564 0.277649 3 0 4 192 192 192 255 0.20126 0.063182
1.41684 -0.192508 0.277649 3 1.87775 1.68852 192 192 192 255 0.239734 0.06173
1.41684 -0.126875 0.098654 3 0.938874 2.34426 192 192 192 255 0.239734 0.06173
1.35763 -0.126875 0.098654 0 2.81662 4.03278 192 192 192 255 0.20126 0.063182
1.41684 -0.126875 0.098654 3 0.938874 2.34426 192 192 192 255 0.20126 0.063182
1.41684 0 0.098654 1 2 1 192 192 192 255 0.20126 0.063182
1.35763 0 0.098654 0 3 3 192 192 192 255 0.239734 0.06173
1.41684 0 0.098654 1 2 1 192 192 192 255 0.239734 0.06173
1.41684 0 -0.098654 2 1 -1 192 192 192 255 0.239734 0.06173
1.41684 -0.126875 -0.098654 3 0.938874 -2.34426 192 192 192 255 0.20126 0.063182
1.35763 0 -0.098654 0 3 -3 192 192 192 255 0.20126 0.063182
1.41684 0 -0.098654 2 1 -1 192 192 192 255 0.20126 0.063182
1.41684 -0.192508 -0.277649 3 1.87775 -1.68852 192 192 192 255 0.239734 0.06173
1.35763 -0.126875 -0.098654 0 2.81662 -4.03278 192 192 192 255 0.239734 0.06173
1.41684 -0.126875 -0.098654 3 0.938874 -2.34426 192 192 192 255 0.239734 0.06173
1.41684 -0.272564 -0.277649 3 0 -4 192 192 192 255 0.20126 0.063182
-1.35763 -0.369694 -0.277649 0 -3 -4 192 192 192 255 0.890431 0.388195
1.35763 -0.369694 -0.277649 0 -3 -3 192 192 192 255 0.890431 0.388195
1.35763 -0.369694 0.277649 0 -3 3 192 192 192 255 0.890431 0.388195
-1.35763 -0.369694 0.277649 0 -3 3 192 192 192 255 0.890431 0.388195
1.35763 -0.272564 0.277649 0 0 6 192 192 192 255 0.890431 0.388195
-1.35763 -0.272564 0.277649 0 0 5 192 192 192 255 0.890431 0.388195
-1.35763 -0.126875 0.098654 0 3.7555 3.37705 192 192 192 255 0.301897 0.062572
-1.35763 -0.192508 0.277649 0 1.87775 4.68852 192 192 192 255 0.301897 0.062572
1.35763 -0.192508 0.277649 0 2.81662 4.03278 192 192 192 255 0.301897 0.062572
1.35763 -0.126875 0.098654 0 2.81662 4.03278 192 192 192 255 0.301897 0.062572
-1.35763 0 0.098654 0 3 4 192 192 192 255 0.263422 0.064024
-1.35763 -0.126875 0.098654 0 3.7555 3.37705 192 192 192 255 0.263422 0.064024
1.35763 -0.126875 0.098654 0 2.81662 4.03278 192 192 192 255 0.263422 0.064024
1.35763 0 0.098654 0 3 3 192 192 192 255 0.263422 0.064024
-1.35763 0 -0.098654 0 3 -3 192 192 192 255 0.301897 0.062572
-1.35763 0 0.098654 0 3 4 192 192 192 255 0.301897 0.062572
1.35763 0 0.098654 0 3 3 192 192 192 255 0.301897 0.062572
1.35763 0 -0.098654 0 3 -3 192 192 192 255 0.301897 0.062572
1.35763 -0.126875 -0.098654 0 2.81662 -4.03278 192 192 192 255 0.263422 0.064024
-1.35763 -0.126875 -0.098654 0 2.81662 -4.03278 192 192 192 255 0.263422 0.064024
-1.35763 0 -0.098654 0 3 -3 192 192 192 255 0.263422 0.064024
1.35763 0 -0.098654 0 3 -3 192 192 192 255 0.263422 0.064024
1.35763 -0.192508 -0.277649 0 2.81662 -4.03278 192 192 192 255 0.301897 0.062572
-1.35763 -0.192508 -0.277649 0 2.81662 -4.03278 192 192 192 255 0.301897 0.062572
-1.35763 -0.126875 -0.098654 0 2.81662 -4.03278 192 192 192 255 0.301897 0.062572
1.35763 -0.126875 -0.098654 0 2.81662 -4.03278 192 192 192 255 0.301897 0.062572
-1.35763 -0.272564 -0.277649 0 0 -5 192 192 192 255 0.890431 0.388195
1.35763 -0.272564 -0.277649 0 0 -6 192 192 192 255 0.890431 0.388195
-1.35763 -0.192508 0.277649 0 1.87775 4.68852 192 192 192 255 0.20126 0.063182
-1.41684 -0.192508 0.277649 -3 1.87775 1.68852 192 192 192 255 0.20126 0.063182
-1.41684 -0.192508 -0.277649 -3 0.938874 -2.34426 192 192 192 255 0.20126 0.063182
-1.35763 -0.192508 -0.277649 0 2.81662 -4.03278 192 192 192 255 0.20126 0.063182
1.35763 -0.272564 -0.277649 0 0 -6 192 192 192 255 0.263422 0.064024
-1.35763 -0.272564 -0.277649 0 0 -5 192 192 192 255 0.263422 0.064024
-1.35763 -0.192508 -0.277649 0 2.81662 -4.03278 192 192 192 255 0.263422 0.064024
1.35763 -0.192508 -0.277649 0 2.81662 -4.03278 192 192 192 255 0.263422 0.064024
1.35763 -0.192508 -0.277649 0 2.81662 -4.03278 192 192 192 255 0.20126 0.063182
1.41684 -0.192508 -0.277649 3 1.87775 -1.68852 192 192 192 255 0.20126 0.063182
1.35763 -0.192508 0.277649 0 2.81662 4.03278 192 192 192 255 0.20126 0.063182
1.41684 -0.192508 0.277649 3 1.87775 1.68852 192 192 192 255 0.20126 0.063182
-1.35763 -0.192508 0.277649 0 1.87775 4.68852 192 192 192 255 0.263422 0.064024
-1.35763 -0.272564 0.277649 0 0 5 192 192 192 255 0.263422 0.064024
1.35763 -0.272564 0.277649 0 0 6 192 192 192 255 0.263422 0.064024
1.35763 -0.192508 0.277649 0 2.81662 4.03278 192 192 192 255 0.263422 0.064024
3 4 24 25 
3 4 25 7 
3 12 13 28 
3 12 28 29 
3 34 35 24 
3 34 24 4 
3 37 38 6 
3 37 6 5 
3 32 33 7 
3 32 7 25 
3 40 41 42 
3 40 42 43 
3 0 2 9 
3 0 9 8 
3 44 26 27 
3 44 27 45 
3 3 1 11 
3 3 11 10 
3 31 46 47 
3 31 47 30 
3 8 9 48 
3 8 48 49 
3 50 51 52 
3 50 52 53 
3 10 11 15 
3 10 15 14 
3 54 55 56 
3 54 56 57 
3 16 58 59 
3 16 59 17 
3 60 39 17 
3 60 17 59 
3 19 18 61 
3 19 61 62 
3 20 63 64 
3 20 64 65 
3 21 66 67 
3 21 67 68 
3 69 22 70 
3 69 70 71 
3 72 23 73 
3 72 73 74 
3 16 36 75 
3 16 75 58 
3 76 77 78 
3 76 78 79 
3 80 81 79 
3 80 79 78 
3 82 83 84 
3 82 84 85 
3 86 87 88 
3 86 88 89 
3 90 91 92 
3 90 92 93 
3 94 95 96 
3 94 96 97 
3 98 99 100 
3 98 100 101 
3 76 102 103 
3 76 103 77 
3 33 32 104 
3 33 104 105 
3 41 40 2 
3 41 2 0 
3 35 34 106 
3 35 106 107 
3 108 109 110 
3 108 110 111 
3 75 36 112 
3 75 112 113 
3 38 37 1 
3 38 1 3 
3 114 39 60 
3 114 60 115 
3 116 117 118 
3 116 118 119 
