ply
format ascii 1.0
comment VCGLIB generated
comment TextureFile SpaceInteriors_Texture.png
element vertex 41
property float x
property float y
property float z
property float nx
property float ny
property float nz
property uchar red
property uchar green
property uchar blue
property uchar alpha
property float texture_u
property float texture_v
element face 40
property list uchar int vertex_indices
end_header
-5 0 -5 0 -3 0 192 192 192 255 0.327371 0.062481
0 0 -5 0 -3 0 192 192 192 255 0.327371 0.062481
-5 0 0 0 -3 0 192 192 192 255 0.327371 0.062481
0 0 0 0 -3 0 192 192 192 255 0.327371 0.062481
-2.5 0 0 0 -6 0 192 192 192 255 0.327371 0.062481
-2.5 0 -5 0 -6 0 192 192 192 255 0.327371 0.062481
-5 0 -2.5 0 -6 0 192 192 192 255 0.327371 0.062481
-2.5 0 -2.5 0 -12 0 192 192 192 255 0.327371 0.062481
0 0 -2.5 0 -6 0 192 192 192 255 0.327371 0.062481
-2.41667 0 -2.41667 0 -5 0 192 192 192 255 0.364026 0.063229
-0.083332 0 -2.41667 0 -4 0 192 192 192 255 0.364026 0.063229
-0.083332 0 -0.083333 0 -5 0 192 192 192 255 0.364026 0.063229
-2.41667 0 -0.083333 0 -4 0 192 192 192 255 0.364026 0.063229
-4.91667 0 -2.41667 0 -5 0 192 192 192 255 0.364026 0.063229
-2.58333 0 -2.41667 0 -4 0 192 192 192 255 0.364026 0.063229
-2.58333 0 -0.083333 0 -5 0 192 192 192 255 0.364026 0.063229
-4.91667 0 -0.083333 0 -4 0 192 192 192 255 0.364026 0.063229
-4.91667 0 -4.91667 0 -5 0 192 192 192 255 0.364026 0.063229
-2.58333 0 -4.91667 0 -4 0 192 192 192 255 0.364026 0.063229
-2.58333 0 -2.58333 0 -5 0 192 192 192 255 0.364026 0.063229
-4.91667 0 -2.58333 0 -4 0 192 192 192 255 0.364026 0.063229
-2.41667 0 -4.91667 0 -5 0 192 192 192 255 0.364026 0.063229
-0.083332 0 -4.91667 0 -4 0 192 192 192 255 0.364026 0.063229
-0.083332 0 -2.58333 0 -5 0 192 192 192 255 0.364026 0.063229
-2.41667 0 -2.58333 0 -4 0 192 192 192 255 0.364026 0.063229
-0.083332 0 -2.41667 0 -4 0 192 192 192 255 0.327371 0.062481
-2.41667 0 -2.41667 0 -5 0 192 192 192 255 0.327371 0.062481
-0.083332 0 -0.083333 0 -5 0 192 192 192 255 0.327371 0.062481
-2.41667 0 -0.083333 0 -4 0 192 192 192 255 0.327371 0.062481
-2.58333 0 -2.41667 0 -4 0 192 192 192 255 0.327371 0.062481
-4.91667 0 -2.41667 0 -5 0 192 192 192 255 0.327371 0.062481
-2.58333 0 -0.083333 0 -5 0 192 192 192 255 0.327371 0.062481
-4.91667 0 -0.083333 0 -4 0 192 192 192 255 0.327371 0.062481
-2.58333 0 -4.91667 0 -4 0 192 192 192 255 0.327371 0.062481
-4.91667 0 -4.91667 0 -5 0 192 192 192 255 0.327371 0.062481
-2.58333 0 -2.58333 0 -5 0 192 192 192 255 0.327371 0.062481
-4.91667 0 -2.58333 0 -4 0 192 192 192 255 0.327371 0.062481
-0.083332 0 -4.91667 0 -4 0 192 192 192 255 0.327371 0.062481
-2.41667 0 -4.91667 0 -5 0 192 192 192 255 0.327371 0.062481
-0.083332 0 -2.58333 0 -5 0 192 192 192 255 0.327371 0.062481
-2.41667 0 -2.58333 0 -4 0 192 192 192 255 0.327371 0.062481
3 9 10 11 
3 9 11 12 
3 13 14 15 
3 13 15 16 
3 17 18 19 
3 17 19 20 
3 21 22 23 
3 21 23 24 
3 7 8 25 
3 7 25 26 
3 8 3 27 
3 8 27 25 
3 3 4 28 
3 3 28 27 
3 4 7 26 
3 4 26 28 
3 6 7 29 
3 6 29 30 
3 7 4 31 
3 7 31 29 
3 4 2 32 
3 4 32 31 
3 2 6 30 
3 2 30 32 
3 0 5 33 
3 0 33 34 
3 5 7 35 
3 5 35 33 
3 7 6 36 
3 7 36 35 
3 6 0 34 
3 6 34 36 
3 5 1 37 
3 5 37 38 
3 1 8 39 
3 1 39 37 
3 8 7 40 
3 8 40 39 
3 7 5 38 
3 7 38 40 
