ply
format ascii 1.0
comment VCGLIB generated
comment TextureFile SpaceInteriors_Texture.png
element vertex 64
property float x
property float y
property float z
property float nx
property float ny
property float nz
property uchar red
property uchar green
property uchar blue
property uchar alpha
property float texture_u
property float texture_v
element face 72
property list uchar int vertex_indices
end_header
-0.253563 0 1.07021 1 1 2 192 192 192 255 0.239506 0.267384
-0.630051 0 1.07021 -2 2 1 192 192 192 255 0.239506 0.267384
-0.253563 -0.113625 1.07021 2 -3 1 192 192 192 255 0.239506 0.267384
-0.630051 -0.113625 1.07021 -1 -3 2 192 192 192 255 0.239506 0.267384
-0.253563 -0.113625 0.693726 1 -3 -2 192 192 192 255 0.239506 0.267384
-0.630051 -0.113625 0.693726 -2 -3 -1 192 192 192 255 0.239506 0.267384
-0.253563 0 0.693726 2 2 -1 192 192 192 255 0.239506 0.267384
-0.630051 0 0.693726 -1 1 -2 192 192 192 255 0.239506 0.267384
-0.325729 -0.113625 0.998043 1 -3 2 192 192 192 255 0.301937 0.265206
-0.557884 -0.113625 0.998043 -2 -3 1 192 192 192 255 0.301937 0.265206
-0.557884 -0.113625 0.765896 -1 -3 -2 192 192 192 255 0.301937 0.265206
-0.325729 -0.113625 0.765896 2 -3 -1 192 192 192 255 0.301937 0.265206
-0.325729 -0.361096 0.998043 2.90448 -1.2795 2.80898 192 192 192 255 0.953572 0.379131
-0.557884 -0.361096 0.998043 -2.80896 -1.27953 2.90449 192 192 192 255 0.953572 0.379131
-0.557884 -0.361096 0.765896 -2.90448 -1.2795 -2.80898 192 192 192 255 0.953572 0.379131
-0.325729 -0.361096 0.765896 2.80896 -1.27953 -2.90449 192 192 192 255 0.953572 0.379131
-0.378742 -0.473516 0.945034 1.80896 -1.31134 0.904492 192 192 192 255 0.953572 0.379131
-0.504871 -0.473516 0.945034 -0.904479 -1.29541 1.80898 192 192 192 255 0.953572 0.379131
-0.504871 -0.473516 0.818905 -1.80896 -1.31134 -0.904492 192 192 192 255 0.953572 0.379131
-0.378742 -0.473516 0.818905 0.904479 -1.29541 -1.80898 192 192 192 255 0.953572 0.379131
0.630047 0 -0.693729 1 1 2 192 192 192 255 0.239506 0.267384
0.253559 0 -0.693729 -2 2 1 192 192 192 255 0.239506 0.267384
0.630047 -0.113625 -0.693729 2 -3 1 192 192 192 255 0.239506 0.267384
0.253559 -0.113625 -0.693729 -1 -3 2 192 192 192 255 0.239506 0.267384
0.630047 -0.113625 -1.07021 1 -3 -2 192 192 192 255 0.239506 0.267384
0.253559 -0.113625 -1.07021 -2 -3 -1 192 192 192 255 0.239506 0.267384
0.630047 0 -1.07021 2 2 -1 192 192 192 255 0.239506 0.267384
0.253559 0 -1.07021 -1 1 -2 192 192 192 255 0.239506 0.267384
0.55788 -0.113625 -0.765896 1 -3 2 192 192 192 255 0.301937 0.265206
0.325726 -0.113625 -0.765896 -2 -3 1 192 192 192 255 0.301937 0.265206
0.325726 -0.113625 -0.998043 -1 -3 -2 192 192 192 255 0.301937 0.265206
0.55788 -0.113625 -0.998043 2 -3 -1 192 192 192 255 0.301937 0.265206
0.55788 -0.361096 -0.765896 2.90448 -1.27949 2.80898 192 192 192 255 0.951191 0.4044
0.325726 -0.361096 -0.765896 -2.80896 -1.27951 2.90449 192 192 192 255 0.951191 0.4044
0.325726 -0.361096 -0.998043 -2.90448 -1.27949 -2.80898 192 192 192 255 0.951191 0.4044
0.55788 -0.361096 -0.998043 2.80896 -1.27951 -2.90449 192 192 192 255 0.951191 0.4044
0.504868 -0.473516 -0.818905 1.80896 -1.31133 0.904492 192 192 192 255 0.951191 0.4044
0.378738 -0.473516 -0.818905 -0.904482 -1.2954 1.80898 192 192 192 255 0.951191 0.4044
0.378738 -0.473516 -0.945034 -1.80896 -1.31133 -0.904492 192 192 192 255 0.951191 0.4044
0.504868 -0.473516 -0.945034 0.904482 -1.2954 -1.80898 192 192 192 255 0.951191 0.4044
-0.253563 0 0.693726 2 2 -1 192 192 192 255 0.301937 0.265206
-0.630051 0 0.693726 -1 1 -2 192 192 192 255 0.301937 0.265206
-0.630051 0 1.07021 -2 2 1 192 192 192 255 0.301937 0.265206
-0.253563 0 1.07021 1 1 2 192 192 192 255 0.301937 0.265206
-0.253563 -0.113625 1.07021 2 -3 1 192 192 192 255 0.301937 0.265206
-0.630051 -0.113625 1.07021 -1 -3 2 192 192 192 255 0.301937 0.265206
-0.630051 -0.113625 0.693726 -2 -3 -1 192 192 192 255 0.301937 0.265206
-0.253563 -0.113625 0.693726 1 -3 -2 192 192 192 255 0.301937 0.265206
-0.325729 -0.113625 0.998043 1 -3 2 192 192 192 255 0.953572 0.379131
-0.557884 -0.113625 0.998043 -2 -3 1 192 192 192 255 0.953572 0.379131
-0.557884 -0.113625 0.765896 -1 -3 -2 192 192 192 255 0.953572 0.379131
-0.325729 -0.113625 0.765896 2 -3 -1 192 192 192 255 0.953572 0.379131
0.630047 0 -1.07021 2 2 -1 192 192 192 255 0.301937 0.265206
0.253559 0 -1.07021 -1 1 -2 192 192 192 255 0.301937 0.265206
0.253559 0 -0.693729 -2 2 1 192 192 192 255 0.301937 0.265206
0.630047 0 -0.693729 1 1 2 192 192 192 255 0.301937 0.265206
0.630047 -0.113625 -0.693729 2 -3 1 192 192 192 255 0.301937 0.265206
0.253559 -0.113625 -0.693729 -1 -3 2 192 192 192 255 0.301937 0.265206
0.253559 -0.113625 -1.07021 -2 -3 -1 192 192 192 255 0.301937 0.265206
0.630047 -0.113625 -1.07021 1 -3 -2 192 192 192 255 0.301937 0.265206
0.55788 -0.113625 -0.765896 1 -3 2 192 192 192 255 0.951191 0.4044
0.325726 -0.113625 -0.765896 -2 -3 1 192 192 192 255 0.951191 0.4044
0.325726 -0.113625 -0.998043 -1 -3 -2 192 192 192 255 0.951191 0.4044
0.55788 -0.113625 -0.998043 2 -3 -1 192 192 192 255 0.951191 0.4044
3 0 1 3 
3 0 3 2 
3 4 5 7 
3 4 7 6 
3 40 41 42 
3 40 42 43 
3 1 7 5 
3 1 5 3 
3 6 0 2 
3 6 2 4 
3 44 45 9 
3 44 9 8 
3 45 46 10 
3 45 10 9 
3 46 47 11 
3 46 11 10 
3 47 44 8 
3 47 8 11 
3 48 49 13 
3 48 13 12 
3 49 50 14 
3 49 14 13 
3 50 51 15 
3 50 15 14 
3 51 48 12 
3 51 12 15 
3 12 13 17 
3 12 17 16 
3 13 14 18 
3 13 18 17 
3 14 15 19 
3 14 19 18 
3 15 12 16 
3 15 16 19 
3 16 17 18 
3 19 16 18 
3 20 21 23 
3 20 23 22 
3 24 25 27 
3 24 27 26 
3 52 53 54 
3 52 54 55 
3 21 27 25 
3 21 25 23 
3 26 20 22 
3 26 22 24 
3 56 57 29 
3 56 29 28 
3 57 58 30 
3 57 30 29 
3 58 59 31 
3 58 31 30 
3 59 56 28 
3 59 28 31 
3 60 61 33 
3 60 33 32 
3 61 62 34 
3 61 34 33 
3 62 63 35 
3 62 35 34 
3 63 60 32 
3 63 32 35 
3 32 33 37 
3 32 37 36 
3 33 34 38 
3 33 38 37 
3 34 35 39 
3 34 39 38 
3 35 32 36 
3 35 36 39 
3 36 37 38 
3 39 36 38 
