ply
format ascii 1.0
comment VCGLIB generated
comment TextureFile SpaceInteriors_Texture.png
element vertex 250
property float x
property float y
property float z
property float nx
property float ny
property float nz
property uchar red
property uchar green
property uchar blue
property uchar alpha
property float texture_u
property float texture_v
element face 146
property list uchar int vertex_indices
end_header
-3.79311 2.24611 0.283115 -3 -1 2 192 192 192 255 0.267261 0.061667
-3.70689 2.24611 0.283115 3 -2 1 192 192 192 255 0.267261 0.061667
-3.79311 4.03249 0.283115 -3 2 1 192 192 192 255 0.267261 0.061667
-3.70689 4.03249 0.283115 3 1 2 192 192 192 255 0.267261 0.061667
-3.79311 3.94408 0.196896 -3 -1 -2 192 192 192 255 0.267261 0.061667
-3.70689 3.94408 0.196896 3 -2 -1 192 192 192 255 0.267261 0.061667
-3.79311 2.33452 0.196896 -3 2 -1 192 192 192 255 0.267261 0.061667
-3.70689 2.33452 0.196896 3 1 -2 192 192 192 255 0.267261 0.061667
-3.79311 4.03249 0.058773 -2 1 3 192 192 192 255 0.300052 0.061667
-3.70689 4.03249 0.058773 1 2 3 192 192 192 255 0.300052 0.061667
-3.70689 3.94408 0.058773 2 -1 3 192 192 192 255 0.240032 0.061667
-3.79311 3.94408 0.058773 -1 -2 3 192 192 192 255 0.198113 0.061667
-3.79311 2.33452 0.058773 -2 1 3 192 192 192 255 0.29711 0.061667
-3.70689 2.33452 0.058773 1 2 3 192 192 192 255 0.29711 0.061667
-3.70689 2.24611 0.058773 2 -1 3 192 192 192 255 0.244197 0.061667
-3.79311 2.24611 0.058773 -1 -2 3 192 192 192 255 0.200168 0.061667
-3.82096 4.06104 0.058773 -1 2 3 192 192 192 255 0.26373 0.062198
-3.67905 4.06104 0.058773 2 1 3 192 192 192 255 0.26373 0.062198
-3.67905 3.91553 0.058773 1 -2 3 192 192 192 255 0.26373 0.062198
-3.82096 3.91553 0.058773 -2 -1 3 192 192 192 255 0.26373 0.062198
-3.82096 2.36308 0.058773 -1 2 3 192 192 192 255 0.26373 0.062198
-3.67904 2.36308 0.058773 2 1 3 192 192 192 255 0.26373 0.062198
-3.67904 2.21756 0.058773 1 -2 3 192 192 192 255 0.26373 0.062198
-3.82096 2.21756 0.058773 -2 -1 3 192 192 192 255 0.26373 0.062198
-3.82096 4.06104 4e-006 -2 1 0 192 192 192 255 0.297952 0.062198
-3.67905 4.06104 4e-006 1 2 0 192 192 192 255 0.297952 0.062198
-3.67905 3.91553 4e-006 2 -1 0 192 192 192 255 0.235124 0.062198
-3.82096 3.91553 4e-006 -1 -2 0 192 192 192 255 0.209288 0.062198
-3.82096 2.36308 4e-006 -2 1 0 192 192 192 255 0.297952 0.062198
-3.67904 2.36308 4e-006 1 2 0 192 192 192 255 0.297952 0.062198
-3.67904 2.21756 4e-006 2 -1 0 192 192 192 255 0.235124 0.062198
-3.82096 2.21756 4e-006 -1 -2 0 192 192 192 255 0.209288 0.062198
-1.29311 2.24611 0.283115 -3 -1 2 192 192 192 255 0.267261 0.061667
-1.20689 2.24611 0.283115 3 -2 1 192 192 192 255 0.267261 0.061667
-1.29311 4.03249 0.283115 -3 2 1 192 192 192 255 0.267261 0.061667
-1.20689 4.03249 0.283115 3 1 2 192 192 192 255 0.267261 0.061667
-1.29311 3.94408 0.196896 -3 -1 -2 192 192 192 255 0.267261 0.061667
-1.20689 3.94408 0.196896 3 -2 -1 192 192 192 255 0.267261 0.061667
-1.29311 2.33452 0.196896 -3 2 -1 192 192 192 255 0.267261 0.061667
-1.20689 2.33452 0.196896 3 1 -2 192 192 192 255 0.267261 0.061667
-1.29311 4.03249 0.058773 -2 1 3 192 192 192 255 0.300052 0.061667
-1.20689 4.03249 0.058773 1 2 3 192 192 192 255 0.300052 0.061667
-1.20689 3.94408 0.058773 2 -1 3 192 192 192 255 0.240032 0.061667
-1.29311 3.94408 0.058773 -1 -2 3 192 192 192 255 0.198113 0.061667
-1.29311 2.33452 0.058773 -2 1 3 192 192 192 255 0.29711 0.061667
-1.20689 2.33452 0.058773 1 2 3 192 192 192 255 0.29711 0.061667
-1.20689 2.24611 0.058773 2 -1 3 192 192 192 255 0.244197 0.061667
-1.29311 2.24611 0.058773 -1 -2 3 192 192 192 255 0.200168 0.061667
-1.32096 4.06104 0.058773 -1 2 3 192 192 192 255 0.26373 0.062198
-1.17905 4.06104 0.058773 2 1 3 192 192 192 255 0.26373 0.062198
-1.17905 3.91553 0.058773 1 -2 3 192 192 192 255 0.26373 0.062198
-1.32096 3.91553 0.058773 -2 -1 3 192 192 192 255 0.26373 0.062198
-1.32096 2.36308 0.058773 -1 2 3 192 192 192 255 0.26373 0.062198
-1.17904 2.36308 0.058773 2 1 3 192 192 192 255 0.26373 0.062198
-1.17904 2.21756 0.058773 1 -2 3 192 192 192 255 0.26373 0.062198
-1.32096 2.21756 0.058773 -2 -1 3 192 192 192 255 0.26373 0.062198
-1.32096 4.06104 4e-006 -2 1 0 192 192 192 255 0.297952 0.062198
-1.17905 4.06104 4e-006 1 2 0 192 192 192 255 0.297952 0.062198
-1.17905 3.91553 4e-006 2 -1 0 192 192 192 255 0.235124 0.062198
-1.32096 3.91553 4e-006 -1 -2 0 192 192 192 255 0.209288 0.062198
-1.32096 2.36308 4e-006 -2 1 0 192 192 192 255 0.297952 0.062198
-1.17904 2.36308 4e-006 1 2 0 192 192 192 255 0.297952 0.062198
-1.17904 2.21756 4e-006 2 -1 0 192 192 192 255 0.235124 0.062198
-1.32096 2.21756 4e-006 -1 -2 0 192 192 192 255 0.209288 0.062198
-5 0 0 0 0 1 192 192 192 255 0.919392 0.640965
-1e-006 0 0 0 0 1 192 192 192 255 0.990896 0.640965
-5 5 0 0 0 1 192 192 192 255 0.750427 0.873158
-1e-006 5 0 0 0 2 192 192 192 255 0.8862 0.873158
-2.5 0 0 0 3 0 192 192 192 255 0.990895 0.640965
-2.5 5 0 0 0 3 192 192 192 255 0.750426 0.873158
-3.75 0 0 1 2 3 192 192 192 255 0.990896 0.640965
-3.75 5 0 0 0 3 192 192 192 255 0.8862 0.873158
-1.25 0 0 -2 1 2 192 192 192 255 0.919392 0.640965
-1.25 5 0 0 0 3 192 192 192 255 0.8862 0.873158
-5 4 0 0 0 4 192 192 192 255 0.750427 0.789687
-3.75 4 0 0 0 6 192 192 192 255 0.8862 0.789687
-2.5 4 0 0 0 6 192 192 192 255 0.750426 0.789687
-1.25 4 0 0 0 6 192 192 192 255 0.8862 0.789687
-1e-006 4 0 0 0 4 192 192 192 255 0.8862 0.789687
-3.75 2 0 2 -1 3 192 192 192 255 0.990896 0.671464
-2.5 2 0 0 -3 3 192 192 192 255 0.990895 0.640706
-1.25 2 0 -1 -2 3 192 192 192 255 0.990895 0.640706
-2.5 0 -0.245285 0 3 3 192 192 192 255 0.629364 0.673977
-2.5 2 -0.245285 0 -3 3 192 192 192 255 0.629364 0.880964
-3.75 2 -0.245285 1 -2 2 192 192 192 255 0.507671 0.880964
-3.75 0 -0.245285 2 1 1 192 192 192 255 0.507671 0.673977
-1.25 0 -0.245285 -1 2 2 192 192 192 255 0.751058 0.673977
-1.25 2 -0.245285 -2 -1 1 192 192 192 255 0.751058 0.880964
-3.70689 2.24611 0.283115 3 -2 1 192 192 192 255 0.233148 0.061667
-3.70689 2.33452 0.196896 3 1 -2 192 192 192 255 0.233148 0.061667
-3.70689 3.94408 0.196896 3 -2 -1 192 192 192 255 0.233148 0.061667
-3.70689 4.03249 0.283115 3 1 2 192 192 192 255 0.233148 0.061667
-3.79311 2.33452 0.196896 -3 2 -1 192 192 192 255 0.233148 0.061667
-3.79311 2.24611 0.283115 -3 -1 2 192 192 192 255 0.233148 0.061667
-3.79311 4.03249 0.283115 -3 2 1 192 192 192 255 0.233148 0.061667
-3.79311 3.94408 0.196896 -3 -1 -2 192 192 192 255 0.233148 0.061667
-3.79311 4.03249 0.283115 -3 2 1 192 192 192 255 0.300052 0.061667
-3.70689 4.03249 0.283115 3 1 2 192 192 192 255 0.300052 0.061667
-3.70689 4.03249 0.283115 3 1 2 192 192 192 255 0.240032 0.061667
-3.70689 3.94408 0.196896 3 -2 -1 192 192 192 255 0.240032 0.061667
-3.70689 4.03249 0.058773 1 2 3 192 192 192 255 0.240032 0.061667
-3.70689 3.94408 0.196896 3 -2 -1 192 192 192 255 0.198113 0.061667
-3.79311 3.94408 0.196896 -3 -1 -2 192 192 192 255 0.198113 0.061667
-3.70689 3.94408 0.058773 2 -1 3 192 192 192 255 0.198113 0.061667
-3.79311 3.94408 0.196896 -3 -1 -2 192 192 192 255 0.240032 0.061667
-3.79311 4.03249 0.283115 -3 2 1 192 192 192 255 0.240032 0.061667
-3.79311 4.03249 0.058773 -2 1 3 192 192 192 255 0.240032 0.061667
-3.79311 3.94408 0.058773 -1 -2 3 192 192 192 255 0.240032 0.061667
-3.79311 2.33452 0.196896 -3 2 -1 192 192 192 255 0.29711 0.061667
-3.70689 2.33452 0.196896 3 1 -2 192 192 192 255 0.29711 0.061667
-3.70689 2.33452 0.196896 3 1 -2 192 192 192 255 0.244197 0.061667
-3.70689 2.24611 0.283115 3 -2 1 192 192 192 255 0.244197 0.061667
-3.70689 2.33452 0.058773 1 2 3 192 192 192 255 0.244197 0.061667
-3.70689 2.24611 0.283115 3 -2 1 192 192 192 255 0.200168 0.061667
-3.79311 2.24611 0.283115 -3 -1 2 192 192 192 255 0.200168 0.061667
-3.70689 2.24611 0.058773 2 -1 3 192 192 192 255 0.200168 0.061667
-3.79311 2.24611 0.283115 -3 -1 2 192 192 192 255 0.244197 0.061667
-3.79311 2.33452 0.196896 -3 2 -1 192 192 192 255 0.244197 0.061667
-3.79311 2.33452 0.058773 -2 1 3 192 192 192 255 0.244197 0.061667
-3.79311 2.24611 0.058773 -1 -2 3 192 192 192 255 0.244197 0.061667
-3.79311 4.03249 0.058773 -2 1 3 192 192 192 255 0.26373 0.062198
-3.70689 4.03249 0.058773 1 2 3 192 192 192 255 0.26373 0.062198
-3.70689 3.94408 0.058773 2 -1 3 192 192 192 255 0.26373 0.062198
-3.79311 3.94408 0.058773 -1 -2 3 192 192 192 255 0.26373 0.062198
-3.79311 2.33452 0.058773 -2 1 3 192 192 192 255 0.26373 0.062198
-3.70689 2.33452 0.058773 1 2 3 192 192 192 255 0.26373 0.062198
-3.70689 2.24611 0.058773 2 -1 3 192 192 192 255 0.26373 0.062198
-3.79311 2.24611 0.058773 -1 -2 3 192 192 192 255 0.26373 0.062198
-3.82096 4.06104 0.058773 -1 2 3 192 192 192 255 0.297952 0.062198
-3.67905 4.06104 0.058773 2 1 3 192 192 192 255 0.297952 0.062198
-3.67905 4.06104 0.058773 2 1 3 192 192 192 255 0.235124 0.062198
-3.67905 3.91553 0.058773 1 -2 3 192 192 192 255 0.235124 0.062198
-3.67905 4.06104 4e-006 1 2 0 192 192 192 255 0.235124 0.062198
-3.67905 3.91553 0.058773 1 -2 3 192 192 192 255 0.209288 0.062198
-3.82096 3.91553 0.058773 -2 -1 3 192 192 192 255 0.209288 0.062198
-3.67905 3.91553 4e-006 2 -1 0 192 192 192 255 0.209288 0.062198
-3.82096 3.91553 0.058773 -2 -1 3 192 192 192 255 0.235124 0.062198
-3.82096 4.06104 0.058773 -1 2 3 192 192 192 255 0.235124 0.062198
-3.82096 4.06104 4e-006 -2 1 0 192 192 192 255 0.235124 0.062198
-3.82096 3.91553 4e-006 -1 -2 0 192 192 192 255 0.235124 0.062198
-3.82096 2.36308 0.058773 -1 2 3 192 192 192 255 0.297952 0.062198
-3.67904 2.36308 0.058773 2 1 3 192 192 192 255 0.297952 0.062198
-3.67904 2.36308 0.058773 2 1 3 192 192 192 255 0.235124 0.062198
-3.67904 2.21756 0.058773 1 -2 3 192 192 192 255 0.235124 0.062198
-3.67904 2.36308 4e-006 1 2 0 192 192 192 255 0.235124 0.062198
-3.67904 2.21756 0.058773 1 -2 3 192 192 192 255 0.209288 0.062198
-3.82096 2.21756 0.058773 -2 -1 3 192 192 192 255 0.209288 0.062198
-3.67904 2.21756 4e-006 2 -1 0 192 192 192 255 0.209288 0.062198
-3.82096 2.21756 0.058773 -2 -1 3 192 192 192 255 0.235124 0.062198
-3.82096 2.36308 0.058773 -1 2 3 192 192 192 255 0.235124 0.062198
-3.82096 2.36308 4e-006 -2 1 0 192 192 192 255 0.235124 0.062198
-3.82096 2.21756 4e-006 -1 -2 0 192 192 192 255 0.235124 0.062198
-1.20689 2.24611 0.283115 3 -2 1 192 192 192 255 0.233148 0.061667
-1.20689 2.33452 0.196896 3 1 -2 192 192 192 255 0.233148 0.061667
-1.20689 3.94408 0.196896 3 -2 -1 192 192 192 255 0.233148 0.061667
-1.20689 4.03249 0.283115 3 1 2 192 192 192 255 0.233148 0.061667
-1.29311 2.33452 0.196896 -3 2 -1 192 192 192 255 0.233148 0.061667
-1.29311 2.24611 0.283115 -3 -1 2 192 192 192 255 0.233148 0.061667
-1.29311 4.03249 0.283115 -3 2 1 192 192 192 255 0.233148 0.061667
-1.29311 3.94408 0.196896 -3 -1 -2 192 192 192 255 0.233148 0.061667
-1.29311 4.03249 0.283115 -3 2 1 192 192 192 255 0.300052 0.061667
-1.20689 4.03249 0.283115 3 1 2 192 192 192 255 0.300052 0.061667
-1.20689 4.03249 0.283115 3 1 2 192 192 192 255 0.240032 0.061667
-1.20689 3.94408 0.196896 3 -2 -1 192 192 192 255 0.240032 0.061667
-1.20689 4.03249 0.058773 1 2 3 192 192 192 255 0.240032 0.061667
-1.20689 3.94408 0.196896 3 -2 -1 192 192 192 255 0.198113 0.061667
-1.29311 3.94408 0.196896 -3 -1 -2 192 192 192 255 0.198113 0.061667
-1.20689 3.94408 0.058773 2 -1 3 192 192 192 255 0.198113 0.061667
-1.29311 3.94408 0.196896 -3 -1 -2 192 192 192 255 0.240032 0.061667
-1.29311 4.03249 0.283115 -3 2 1 192 192 192 255 0.240032 0.061667
-1.29311 4.03249 0.058773 -2 1 3 192 192 192 255 0.240032 0.061667
-1.29311 3.94408 0.058773 -1 -2 3 192 192 192 255 0.240032 0.061667
-1.29311 2.33452 0.196896 -3 2 -1 192 192 192 255 0.29711 0.061667
-1.20689 2.33452 0.196896 3 1 -2 192 192 192 255 0.29711 0.061667
-1.20689 2.33452 0.196896 3 1 -2 192 192 192 255 0.244197 0.061667
-1.20689 2.24611 0.283115 3 -2 1 192 192 192 255 0.244197 0.061667
-1.20689 2.33452 0.058773 1 2 3 192 192 192 255 0.244197 0.061667
-1.20689 2.24611 0.283115 3 -2 1 192 192 192 255 0.200168 0.061667
-1.29311 2.24611 0.283115 -3 -1 2 192 192 192 255 0.200168 0.061667
-1.20689 2.24611 0.058773 2 -1 3 192 192 192 255 0.200168 0.061667
-1.29311 2.24611 0.283115 -3 -1 2 192 192 192 255 0.244197 0.061667
-1.29311 2.33452 0.196896 -3 2 -1 192 192 192 255 0.244197 0.061667
-1.29311 2.33452 0.058773 -2 1 3 192 192 192 255 0.244197 0.061667
-1.29311 2.24611 0.058773 -1 -2 3 192 192 192 255 0.244197 0.061667
-1.29311 4.03249 0.058773 -2 1 3 192 192 192 255 0.26373 0.062198
-1.20689 4.03249 0.058773 1 2 3 192 192 192 255 0.26373 0.062198
-1.20689 3.94408 0.058773 2 -1 3 192 192 192 255 0.26373 0.062198
-1.29311 3.94408 0.058773 -1 -2 3 192 192 192 255 0.26373 0.062198
-1.29311 2.33452 0.058773 -2 1 3 192 192 192 255 0.26373 0.062198
-1.20689 2.33452 0.058773 1 2 3 192 192 192 255 0.26373 0.062198
-1.20689 2.24611 0.058773 2 -1 3 192 192 192 255 0.26373 0.062198
-1.29311 2.24611 0.058773 -1 -2 3 192 192 192 255 0.26373 0.062198
-1.32096 4.06104 0.058773 -1 2 3 192 192 192 255 0.297952 0.062198
-1.17905 4.06104 0.058773 2 1 3 192 192 192 255 0.297952 0.062198
-1.17905 4.06104 0.058773 2 1 3 192 192 192 255 0.235124 0.062198
-1.17905 3.91553 0.058773 1 -2 3 192 192 192 255 0.235124 0.062198
-1.17905 4.06104 4e-006 1 2 0 192 192 192 255 0.235124 0.062198
-1.17905 3.91553 0.058773 1 -2 3 192 192 192 255 0.209288 0.062198
-1.32096 3.91553 0.058773 -2 -1 3 192 192 192 255 0.209288 0.062198
-1.17905 3.91553 4e-006 2 -1 0 192 192 192 255 0.209288 0.062198
-1.32096 3.91553 0.058773 -2 -1 3 192 192 192 255 0.235124 0.062198
-1.32096 4.06104 0.058773 -1 2 3 192 192 192 255 0.235124 0.062198
-1.32096 4.06104 4e-006 -2 1 0 192 192 192 255 0.235124 0.062198
-1.32096 3.91553 4e-006 -1 -2 0 192 192 192 255 0.235124 0.062198
-1.32096 2.36308 0.058773 -1 2 3 192 192 192 255 0.297952 0.062198
-1.17904 2.36308 0.058773 2 1 3 192 192 192 255 0.297952 0.062198
-1.17904 2.36308 0.058773 2 1 3 192 192 192 255 0.235124 0.062198
-1.17904 2.21756 0.058773 1 -2 3 192 192 192 255 0.235124 0.062198
-1.17904 2.36308 4e-006 1 2 0 192 192 192 255 0.235124 0.062198
-1.17904 2.21756 0.058773 1 -2 3 192 192 192 255 0.209288 0.062198
-1.32096 2.21756 0.058773 -2 -1 3 192 192 192 255 0.209288 0.062198
-1.17904 2.21756 4e-006 2 -1 0 192 192 192 255 0.209288 0.062198
-1.32096 2.21756 0.058773 -2 -1 3 192 192 192 255 0.235124 0.062198
-1.32096 2.36308 0.058773 -1 2 3 192 192 192 255 0.235124 0.062198
-1.32096 2.36308 4e-006 -2 1 0 192 192 192 255 0.235124 0.062198
-1.32096 2.21756 4e-006 -1 -2 0 192 192 192 255 0.235124 0.062198
-3.75 4 0 0 0 6 192 192 192 255 0.750427 0.789687
-2.5 4 0 0 0 6 192 192 192 255 0.8862 0.789687
-2.5 5 0 0 0 3 192 192 192 255 0.8862 0.873158
-3.75 5 0 0 0 3 192 192 192 255 0.750427 0.873158
-1.25 5 0 0 0 3 192 192 192 255 0.750427 0.873158
-1.25 4 0 0 0 6 192 192 192 255 0.750427 0.789687
-3.75 4 0 0 0 6 192 192 192 255 0.990896 0.701964
-5 4 0 0 0 4 192 192 192 255 0.919392 0.701964
-3.75 2 0 2 -1 3 192 192 192 255 0.919392 0.640706
-2.5 4 0 0 0 6 192 192 192 255 0.990895 0.701947
-3.75 4 0 0 0 6 192 192 192 255 0.919392 0.701947
-2.5 2 0 0 -3 3 192 192 192 255 0.919392 0.640706
-1.25 4 0 0 0 6 192 192 192 255 0.990895 0.701947
-2.5 4 0 0 0 6 192 192 192 255 0.919392 0.701947
-1e-006 4 0 0 0 4 192 192 192 255 0.990896 0.701964
-1.25 4 0 0 0 6 192 192 192 255 0.919392 0.701964
-1.25 2 0 -1 -2 3 192 192 192 255 0.919392 0.671464
-2.5 2 0 0 -3 3 192 192 192 255 0.20458 0.060294
-3.75 2 0 2 -1 3 192 192 192 255 0.20458 0.060294
-3.75 2 -0.245285 1 -2 2 192 192 192 255 0.20458 0.060294
-2.5 2 -0.245285 0 -3 3 192 192 192 255 0.20458 0.060294
-3.75 2 0 2 -1 3 192 192 192 255 0.919392 0.671464
-3.75 0 0 1 2 3 192 192 192 255 0.919392 0.640965
-3.75 0 -0.245285 2 1 1 192 192 192 255 0.919392 0.640965
-3.75 2 -0.245285 1 -2 2 192 192 192 255 0.919392 0.671464
-2.5 0 -0.245285 0 3 3 192 192 192 255 0.990895 0.640965
-1.25 0 0 -2 1 2 192 192 192 255 0.990895 0.640965
-1.25 2 0 -1 -2 3 192 192 192 255 0.990895 0.671464
-1.25 2 -0.245285 -2 -1 1 192 192 192 255 0.990895 0.671464
-1.25 0 -0.245285 -1 2 2 192 192 192 255 0.990895 0.640965
-1.25 2 0 -1 -2 3 192 192 192 255 0.20458 0.060294
-1.25 2 -0.245285 -2 -1 1 192 192 192 255 0.20458 0.060294
-2.5 0 0 0 3 0 192 192 192 255 0.919392 0.640965
-2.5 0 -0.245285 0 3 3 192 192 192 255 0.919392 0.640965
3 0 1 3 
3 0 3 2 
3 4 5 7 
3 4 7 6 
3 88 89 90 
3 88 90 91 
3 92 93 94 
3 92 94 95 
3 96 97 9 
3 96 9 8 
3 98 99 10 
3 98 10 100 
3 101 102 11 
3 101 11 103 
3 104 105 106 
3 104 106 107 
3 108 109 13 
3 108 13 12 
3 110 111 14 
3 110 14 112 
3 113 114 15 
3 113 15 115 
3 116 117 118 
3 116 118 119 
3 120 121 17 
3 120 17 16 
3 121 122 18 
3 121 18 17 
3 122 123 19 
3 122 19 18 
3 123 120 16 
3 123 16 19 
3 124 125 21 
3 124 21 20 
3 125 126 22 
3 125 22 21 
3 126 127 23 
3 126 23 22 
3 127 124 20 
3 127 20 23 
3 128 129 25 
3 128 25 24 
3 130 131 26 
3 130 26 132 
3 133 134 27 
3 133 27 135 
3 136 137 138 
3 136 138 139 
3 140 141 29 
3 140 29 28 
3 142 143 30 
3 142 30 144 
3 145 146 31 
3 145 31 147 
3 148 149 150 
3 148 150 151 
3 32 33 35 
3 32 35 34 
3 36 37 39 
3 36 39 38 
3 152 153 154 
3 152 154 155 
3 156 157 158 
3 156 158 159 
3 160 161 41 
3 160 41 40 
3 162 163 42 
3 162 42 164 
3 165 166 43 
3 165 43 167 
3 168 169 170 
3 168 170 171 
3 172 173 45 
3 172 45 44 
3 174 175 46 
3 174 46 176 
3 177 178 47 
3 177 47 179 
3 180 181 182 
3 180 182 183 
3 184 185 49 
3 184 49 48 
3 185 186 50 
3 185 50 49 
3 186 187 51 
3 186 51 50 
3 187 184 48 
3 187 48 51 
3 188 189 53 
3 188 53 52 
3 189 190 54 
3 189 54 53 
3 190 191 55 
3 190 55 54 
3 191 188 52 
3 191 52 55 
3 192 193 57 
3 192 57 56 
3 194 195 58 
3 194 58 196 
3 197 198 59 
3 197 59 199 
3 200 201 202 
3 200 202 203 
3 204 205 61 
3 204 61 60 
3 206 207 62 
3 206 62 208 
3 209 210 63 
3 209 63 211 
3 212 213 214 
3 212 214 215 
3 74 75 71 
3 74 71 66 
3 76 77 73 
3 76 73 69 
3 216 217 218 
3 216 218 219 
3 67 220 221 
3 67 221 78 
3 70 79 222 
3 70 222 223 
3 70 223 64 
3 224 80 225 
3 224 225 226 
3 227 81 228 
3 227 228 229 
3 230 231 232 
3 230 232 72 
3 230 72 65 
3 82 83 84 
3 82 84 85 
3 86 87 83 
3 86 83 82 
3 233 234 235 
3 233 235 236 
3 237 238 239 
3 237 239 240 
3 238 68 241 
3 238 241 239 
3 242 243 244 
3 242 244 245 
3 246 233 236 
3 246 236 247 
3 248 242 245 
3 248 245 249 
