ply
format ascii 1.0
comment VCGLIB generated
comment TextureFile SpaceInteriors_Texture.png
element vertex 174
property float x
property float y
property float z
property float nx
property float ny
property float nz
property uchar red
property uchar green
property uchar blue
property uchar alpha
property float texture_u
property float texture_v
element face 172
property list uchar int vertex_indices
end_header
0 0 0 2 -1 3 192 192 192 255 0.327371 0.062481
-5 0 0 -1 -2 3 192 192 192 255 0.327371 0.062481
0 5 0 1 2 3 192 192 192 255 0.327371 0.062481
-5 5 0 -2 1 3 192 192 192 255 0.327371 0.062481
-2.5 5 0 0 3 6 192 192 192 255 0.327371 0.062481
0 2.5 0 3 0 7 192 192 192 255 0.327371 0.062481
-5 2.5 0 -3 0 6 192 192 192 255 0.327371 0.062481
-4.91667 2.58333 0 0 0 4 192 192 192 255 0.327371 0.062481
-4.91667 4.91667 0 0 0 5 192 192 192 255 0.364026 0.063229
-2.58333 4.91667 0 0 0 4 192 192 192 255 0.327371 0.062481
-0.083332 2.58333 0 0 0 5 192 192 192 255 0.327371 0.062481
-2.41667 4.91667 0 0 0 5 192 192 192 255 0.364026 0.063229
-0.083332 4.91667 0 0 0 4 192 192 192 255 0.327371 0.062481
-0.083332 0.083333 0 0 0 5 192 192 192 255 0.327371 0.062481
-0.083332 2.41667 0 0 0 3 192 192 192 255 0.327371 0.062481
-4.91667 0.083333 0 0 0 4 192 192 192 255 0.364026 0.063229
-4.91667 2.41667 0 0 0 5 192 192 192 255 0.364026 0.063229
-3.75 5 0 0 3 3 192 192 192 255 0.327371 0.062481
-3.75 4.91667 0 0 0 6 192 192 192 255 0.364026 0.063229
-3.75 2.58333 0 0 0 3 192 192 192 255 0.327371 0.062481
-3.75 2.5 0 0 0 3 192 192 192 255 0.327371 0.062481
-3.75 2.41667 0 0 0 3 192 192 192 255 0.364026 0.063229
-3.75 0.083333 0 0 0 3 192 192 192 255 0.364026 0.063229
-3.75 0 0 0 -1 2 192 192 192 255 0.327371 0.062481
-1.25 5 0 0 3 3 192 192 192 255 0.327371 0.062481
-1.25 4.91667 0 0 0 6 192 192 192 255 0.364026 0.063229
-1.25 2.58333 0 0 0 3 192 192 192 255 0.327371 0.062481
-1.25 2.5 0 0 0 2 192 192 192 255 0.327371 0.062481
-1.25 2.41667 0 0 0 4 192 192 192 255 0.327371 0.062481
-1.25 0.083333 0 0 0 3 192 192 192 255 0.364026 0.063229
-1.25 0 0 0 -2 1 192 192 192 255 0.327371 0.062481
0 3.75 0 3 0 3 192 192 192 255 0.327371 0.062481
-0.083332 3.75 0 0 0 6 192 192 192 255 0.327371 0.062481
-1.25 3.75 0 0 0 5 192 192 192 255 0.364026 0.063229
-2.41667 3.75 0 0 0 2 192 192 192 255 0.364026 0.063229
-2.5 3.75 0 0 0 3 192 192 192 255 0.327371 0.062481
-2.58333 3.75 0 0 0 4 192 192 192 255 0.327371 0.062481
-3.75 3.75 0 0 0 4 192 192 192 255 0.364026 0.063229
-4.91667 3.75 0 0 0 6 192 192 192 255 0.364026 0.063229
-5 3.75 0 -3 0 3 192 192 192 255 0.327371 0.062481
-1.42559 3.64141 0.059603 -1 -1 6 192 192 192 255 0.388438 0.469664
-3.56265 3.64141 0.059603 2 -2 3 192 192 192 255 0.388438 0.469664
-1.42559 3.85859 0.059603 0 4 2 192 192 192 255 0.388438 0.469664
-3.56265 3.85859 0.059603 0 2 4 192 192 192 255 0.388438 0.469664
-1.42559 3.85859 -0.363638 0 2 -4 192 192 192 255 0.388438 0.469664
-3.56265 3.85859 -0.363638 0 4 -2 192 192 192 255 0.388438 0.469664
-1.42559 3.64141 -0.363638 -2 -2 -3 192 192 192 255 0.388438 0.469664
-3.56265 3.64141 -0.363638 1 -1 -6 192 192 192 255 0.388438 0.469664
-3.80325 3.64141 -0.363638 -3 0 -2 192 192 192 255 0.388438 0.469664
-3.80325 3.64141 0.059603 -3 0 4 192 192 192 255 0.388438 0.469664
-3.80325 3.85859 -0.363638 -2 1 -2 192 192 192 255 0.388438 0.469664
-3.80325 3.85859 0.059603 -1 2 1 192 192 192 255 0.388438 0.469664
-1.18499 3.64141 -0.363638 3 0 -4 192 192 192 255 0.388438 0.469664
-1.18499 3.64141 0.059603 3 0 2 192 192 192 255 0.388438 0.469664
-1.18499 3.85859 0.059603 2 1 2 192 192 192 255 0.388438 0.469664
-1.18499 3.85859 -0.363638 1 2 -1 192 192 192 255 0.388438 0.469664
-3.56265 0 -0.363638 2 -1 -1 192 192 192 255 0.388438 0.469664
-3.56265 0 0.059603 1 -2 2 192 192 192 255 0.388438 0.469664
-3.80325 0 -0.363638 -1 -2 -2 192 192 192 255 0.388438 0.469664
-3.80325 0 0.059603 -2 -1 1 192 192 192 255 0.388438 0.469664
-1.42559 0 -0.363638 -1 -2 -2 192 192 192 255 0.388438 0.469664
-1.42559 0 0.059603 -2 -1 1 192 192 192 255 0.388438 0.469664
-1.18499 0 0.059603 1 -2 2 192 192 192 255 0.388438 0.469664
-1.18499 0 -0.363638 2 -1 -1 192 192 192 255 0.388438 0.469664
0 0 -0.294703 1 -2 -3 192 192 192 255 0.295891 0.06023
-1.25 0 -0.294703 0 -1 -1 192 192 192 255 0.295891 0.06023
0 2.5 -0.294703 3 0 -7 192 192 192 255 0.295891 0.060231
-5 0 -0.294703 -2 -1 -3 192 192 192 255 0.295891 0.06023
-5 2.5 -0.294703 -3 0 -6 192 192 192 255 0.295891 0.060231
0 5 -0.294703 2 1 -3 192 192 192 255 0.295891 0.06023
-1.25 5 -0.294703 0 3 -3 192 192 192 255 0.295891 0.06023
-2.5 5 -0.294703 0 3 -6 192 192 192 255 0.295891 0.06023
-3.75 5 -0.294703 0 3 -3 192 192 192 255 0.295891 0.06023
0 3.75 -0.294703 3 0 -3 192 192 192 255 0.295891 0.060231
-5 3.75 -0.294703 -3 0 -3 192 192 192 255 0.295891 0.060231
-5 5 -0.294703 -1 2 -3 192 192 192 255 0.295891 0.06023
-3.75 0 -0.294703 0 -2 -2 192 192 192 255 0.295891 0.06023
-4.91667 2.58333 -0.294703 0 0 -4 192 192 192 255 0.327371 0.062481
-4.91667 4.91667 -0.294703 0 0 -5 192 192 192 255 0.364026 0.063229
-2.58333 4.91667 -0.294703 0 0 -4 192 192 192 255 0.327371 0.062481
-0.083332 2.58333 -0.294703 0 0 -5 192 192 192 255 0.327371 0.062481
-2.41667 4.91667 -0.294703 0 0 -5 192 192 192 255 0.364026 0.063229
-0.083332 4.91667 -0.294703 0 0 -4 192 192 192 255 0.327371 0.062481
-0.083332 0.083333 -0.294703 0 0 -5 192 192 192 255 0.327371 0.062481
-0.083332 2.41667 -0.294703 0 0 -3 192 192 192 255 0.327371 0.062481
-4.91667 0.083333 -0.294703 0 0 -4 192 192 192 255 0.364026 0.063229
-4.91667 2.41667 -0.294703 0 0 -5 192 192 192 255 0.364026 0.063229
-3.75 4.91667 -0.294703 0 0 -6 192 192 192 255 0.364026 0.063229
-3.75 2.58333 -0.294703 0 0 -3 192 192 192 255 0.327371 0.062481
-3.75 2.5 -0.294703 0 0 -3 192 192 192 255 0.327371 0.062481
-3.75 2.41667 -0.294703 0 0 -3 192 192 192 255 0.364026 0.063229
-3.75 0.083333 -0.294703 0 0 -3 192 192 192 255 0.364026 0.063229
-1.25 4.91667 -0.294703 0 0 -6 192 192 192 255 0.364026 0.063229
-1.25 2.58333 -0.294703 0 0 -3 192 192 192 255 0.327371 0.062481
-1.25 2.5 -0.294703 0 0 -2 192 192 192 255 0.327371 0.062481
-1.25 2.41667 -0.294703 0 0 -4 192 192 192 255 0.327371 0.062481
-1.25 0.083333 -0.294703 0 0 -3 192 192 192 255 0.364026 0.063229
-0.083332 3.75 -0.294703 0 0 -6 192 192 192 255 0.327371 0.062481
-1.25 3.75 -0.294703 0 0 -5 192 192 192 255 0.364026 0.063229
-2.41667 3.75 -0.294703 0 0 -2 192 192 192 255 0.364026 0.063229
-2.5 3.75 -0.294703 0 0 -3 192 192 192 255 0.327371 0.062481
-2.58333 3.75 -0.294703 0 0 -4 192 192 192 255 0.327371 0.062481
-3.75 3.75 -0.294703 0 0 -4 192 192 192 255 0.364026 0.063229
-4.91667 3.75 -0.294703 0 0 -6 192 192 192 255 0.364026 0.063229
-4.91667 3.75 0 0 0 6 192 192 192 255 0.327371 0.062481
-4.91667 4.91667 0 0 0 5 192 192 192 255 0.327371 0.062481
-3.75 4.91667 0 0 0 6 192 192 192 255 0.327371 0.062481
-2.41667 3.75 0 0 0 2 192 192 192 255 0.327371 0.062481
-2.41667 4.91667 0 0 0 5 192 192 192 255 0.327371 0.062481
-1.25 4.91667 0 0 0 6 192 192 192 255 0.327371 0.062481
-3.75 0.083333 0 0 0 3 192 192 192 255 0.327371 0.062481
-4.91667 0.083333 0 0 0 4 192 192 192 255 0.327371 0.062481
-4.91667 2.41667 0 0 0 5 192 192 192 255 0.327371 0.062481
-3.75 2.41667 0 0 0 3 192 192 192 255 0.327371 0.062481
-2.58333 3.75 0 0 0 4 192 192 192 255 0.364026 0.063229
-2.58333 4.91667 0 0 0 4 192 192 192 255 0.364026 0.063229
-0.083332 3.75 0 0 0 6 192 192 192 255 0.364026 0.063229
-0.083332 4.91667 0 0 0 4 192 192 192 255 0.364026 0.063229
-0.083332 0.083333 0 0 0 5 192 192 192 255 0.364026 0.063229
-0.083332 2.41667 0 0 0 3 192 192 192 255 0.364026 0.063229
-1.25 2.41667 0 0 0 4 192 192 192 255 0.364026 0.063229
-1.25 0.083333 0 0 0 3 192 192 192 255 0.327371 0.062481
-0.083332 2.58333 0 0 0 5 192 192 192 255 0.364026 0.063229
-1.25 2.58333 0 0 0 3 192 192 192 255 0.364026 0.063229
-3.75 2.58333 0 0 0 3 192 192 192 255 0.364026 0.063229
-4.91667 2.58333 0 0 0 4 192 192 192 255 0.364026 0.063229
-1.25 0 0 0 -2 1 192 192 192 255 0.295891 0.06023
0 0 0 2 -1 3 192 192 192 255 0.295891 0.06023
0 2.5 0 3 0 7 192 192 192 255 0.295891 0.060231
-5 2.5 0 -3 0 6 192 192 192 255 0.295891 0.060231
-5 0 0 -1 -2 3 192 192 192 255 0.295891 0.06023
0 5 0 1 2 3 192 192 192 255 0.295891 0.06023
-1.25 5 0 0 3 3 192 192 192 255 0.295891 0.06023
-2.5 5 0 0 3 6 192 192 192 255 0.295891 0.06023
-3.75 5 0 0 3 3 192 192 192 255 0.295891 0.06023
0 3.75 0 3 0 3 192 192 192 255 0.295891 0.060231
-5 3.75 0 -3 0 3 192 192 192 255 0.295891 0.060231
-5 5 0 -2 1 3 192 192 192 255 0.295891 0.06023
-3.75 0 0 0 -1 2 192 192 192 255 0.295891 0.06023
-5 2.5 -0.294703 -3 0 -6 192 192 192 255 0.327371 0.062481
-5 3.75 -0.294703 -3 0 -3 192 192 192 255 0.327371 0.062481
-5 5 -0.294703 -1 2 -3 192 192 192 255 0.327371 0.062481
-4.91667 4.91667 -0.294703 0 0 -5 192 192 192 255 0.327371 0.062481
-4.91667 3.75 -0.294703 0 0 -6 192 192 192 255 0.327371 0.062481
-3.75 5 -0.294703 0 3 -3 192 192 192 255 0.327371 0.062481
-3.75 4.91667 -0.294703 0 0 -6 192 192 192 255 0.327371 0.062481
-2.5 5 -0.294703 0 3 -6 192 192 192 255 0.327371 0.062481
-2.41667 4.91667 -0.294703 0 0 -5 192 192 192 255 0.327371 0.062481
-2.41667 3.75 -0.294703 0 0 -2 192 192 192 255 0.327371 0.062481
-1.25 5 -0.294703 0 3 -3 192 192 192 255 0.327371 0.062481
-1.25 4.91667 -0.294703 0 0 -6 192 192 192 255 0.327371 0.062481
0 5 -0.294703 2 1 -3 192 192 192 255 0.327371 0.062481
0 3.75 -0.294703 3 0 -3 192 192 192 255 0.327371 0.062481
0 2.5 -0.294703 3 0 -7 192 192 192 255 0.327371 0.062481
0 0 -0.294703 1 -2 -3 192 192 192 255 0.327371 0.062481
-3.75 0 -0.294703 0 -2 -2 192 192 192 255 0.327371 0.062481
-5 0 -0.294703 -2 -1 -3 192 192 192 255 0.327371 0.062481
-4.91667 0.083333 -0.294703 0 0 -4 192 192 192 255 0.327371 0.062481
-3.75 0.083333 -0.294703 0 0 -3 192 192 192 255 0.327371 0.062481
-4.91667 2.41667 -0.294703 0 0 -5 192 192 192 255 0.327371 0.062481
-3.75 2.41667 -0.294703 0 0 -3 192 192 192 255 0.327371 0.062481
-2.58333 3.75 -0.294703 0 0 -4 192 192 192 255 0.364026 0.063229
-2.58333 4.91667 -0.294703 0 0 -4 192 192 192 255 0.364026 0.063229
-0.083332 3.75 -0.294703 0 0 -6 192 192 192 255 0.364026 0.063229
-0.083332 4.91667 -0.294703 0 0 -4 192 192 192 255 0.364026 0.063229
-0.083332 0.083333 -0.294703 0 0 -5 192 192 192 255 0.364026 0.063229
-1.25 2.41667 -0.294703 0 0 -4 192 192 192 255 0.364026 0.063229
-0.083332 2.41667 -0.294703 0 0 -3 192 192 192 255 0.364026 0.063229
-1.25 0 -0.294703 0 -1 -1 192 192 192 255 0.327371 0.062481
-1.25 0.083333 -0.294703 0 0 -3 192 192 192 255 0.327371 0.062481
-0.083332 2.58333 -0.294703 0 0 -5 192 192 192 255 0.364026 0.063229
-1.25 2.58333 -0.294703 0 0 -3 192 192 192 255 0.364026 0.063229
-3.75 2.58333 -0.294703 0 0 -3 192 192 192 255 0.364026 0.063229
-4.91667 2.58333 -0.294703 0 0 -4 192 192 192 255 0.364026 0.063229
3 37 18 8 
3 37 8 38 
3 33 25 11 
3 33 11 34 
3 22 21 16 
3 22 16 15 
3 20 19 7 
3 20 7 6 
3 39 104 105 
3 39 105 3 
3 3 105 106 
3 3 106 17 
3 4 9 36 
3 4 36 35 
3 35 107 108 
3 35 108 4 
3 4 108 109 
3 4 109 24 
3 2 12 32 
3 2 32 31 
3 5 14 13 
3 5 13 0 
3 23 110 111 
3 23 111 1 
3 1 111 112 
3 1 112 6 
3 6 112 113 
3 6 113 20 
3 17 106 9 
3 17 9 4 
3 114 115 18 
3 114 18 37 
3 24 109 12 
3 24 12 2 
3 116 117 25 
3 116 25 33 
3 5 10 26 
3 5 26 27 
3 28 14 5 
3 28 5 27 
3 118 119 120 
3 118 120 29 
3 0 13 121 
3 0 121 30 
3 31 32 10 
3 31 10 5 
3 122 116 33 
3 122 33 123 
3 124 37 38 
3 124 38 125 
3 6 7 104 
3 6 104 39 
3 40 42 43 
3 40 43 41 
3 42 44 45 
3 42 45 43 
3 44 46 47 
3 44 47 45 
3 46 40 41 
3 46 41 47 
3 49 51 50 
3 49 50 48 
3 52 55 54 
3 52 54 53 
3 57 59 58 
3 57 58 56 
3 47 48 50 
3 47 50 45 
3 45 50 51 
3 45 51 43 
3 43 51 49 
3 43 49 41 
3 60 63 62 
3 60 62 61 
3 40 53 54 
3 40 54 42 
3 42 54 55 
3 42 55 44 
3 44 55 52 
3 44 52 46 
3 41 57 56 
3 41 56 47 
3 47 56 58 
3 47 58 48 
3 48 58 59 
3 48 59 49 
3 49 59 57 
3 49 57 41 
3 46 60 61 
3 46 61 40 
3 40 61 62 
3 40 62 53 
3 53 62 63 
3 53 63 52 
3 52 63 60 
3 52 60 46 
3 126 65 64 
3 126 64 127 
3 127 64 66 
3 127 66 128 
3 129 68 67 
3 129 67 130 
3 131 69 70 
3 131 70 132 
3 133 71 72 
3 133 72 134 
3 128 66 73 
3 128 73 135 
3 136 74 68 
3 136 68 129 
3 134 72 75 
3 134 75 137 
3 130 67 76 
3 130 76 138 
3 132 70 71 
3 132 71 133 
3 135 73 69 
3 135 69 131 
3 137 75 74 
3 137 74 136 
3 102 103 78 
3 102 78 87 
3 98 99 81 
3 98 81 92 
3 91 85 86 
3 91 86 90 
3 89 139 77 
3 89 77 88 
3 140 141 142 
3 140 142 143 
3 141 144 145 
3 141 145 142 
3 146 100 101 
3 146 101 79 
3 100 146 147 
3 100 147 148 
3 146 149 150 
3 146 150 147 
3 151 152 97 
3 151 97 82 
3 153 154 83 
3 153 83 84 
3 155 156 157 
3 155 157 158 
3 156 139 159 
3 156 159 157 
3 139 89 160 
3 139 160 159 
3 144 146 79 
3 144 79 145 
3 161 102 87 
3 161 87 162 
3 149 151 82 
3 149 82 150 
3 163 98 92 
3 163 92 164 
3 153 94 93 
3 153 93 80 
3 95 94 153 
3 95 153 84 
3 165 96 166 
3 165 166 167 
3 154 168 169 
3 154 169 83 
3 152 153 80 
3 152 80 97 
3 170 171 98 
3 170 98 163 
3 172 173 103 
3 172 103 102 
3 139 140 143 
3 139 143 77 
