ply
format ascii 1.0
comment VCGLIB generated
comment TextureFile SpaceInteriors_Texture.png
element vertex 220
property float x
property float y
property float z
property float nx
property float ny
property float nz
property uchar red
property uchar green
property uchar blue
property uchar alpha
property float texture_u
property float texture_v
element face 138
property list uchar int vertex_indices
end_header
-3.57573 0.342811 -0 -1 0 2 192 192 192 255 0.198705 0.062866
-3.42427 0.342811 -0 2 0 1 192 192 192 255 0.198705 0.062866
-3.57573 4.65719 -0 -2 0 1 192 192 192 255 0.198705 0.062866
-3.42427 4.65719 -0 1 0 2 192 192 192 255 0.198705 0.062866
-3.57573 4.65719 -0.151466 -1 0 -2 192 192 192 255 0.198705 0.062866
-3.42427 4.65719 -0.151466 2 0 -1 192 192 192 255 0.198705 0.062866
-3.57573 0.342811 -0.151466 -2 0 -1 192 192 192 255 0.198705 0.062866
-3.42427 0.342811 -0.151466 1 0 -2 192 192 192 255 0.167773 0.062866
-1.57573 0.342811 -0 -1 0 2 192 192 192 255 0.167773 0.062866
-1.42427 0.342811 -0 2 0 1 192 192 192 255 0.198705 0.062866
-1.57573 4.65719 -0 -2 0 1 192 192 192 255 0.198705 0.062866
-1.42427 4.65719 -0 1 0 2 192 192 192 255 0.198705 0.062866
-1.57573 4.65719 -0.151466 -1 0 -2 192 192 192 255 0.198705 0.062866
-1.42427 4.65719 -0.151466 2 0 -1 192 192 192 255 0.198705 0.062866
-1.57573 0.342811 -0.151466 -2 0 -1 192 192 192 255 0.167773 0.062866
-1.42427 0.342811 -0.151466 1 0 -2 192 192 192 255 0.167773 0.062866
-2.57573 0.342811 -0 -1 0 2 192 192 192 255 0.198705 0.062866
-2.42427 0.342811 -0 2 0 1 192 192 192 255 0.198705 0.062866
-2.57573 4.65719 -0 -2 0 1 192 192 192 255 0.198705 0.062866
-2.42427 4.65719 -0 1 0 2 192 192 192 255 0.198705 0.062866
-2.57573 4.65719 -0.151466 -1 0 -2 192 192 192 255 0.198705 0.062866
-2.42427 4.65719 -0.151466 2 0 -1 192 192 192 255 0.198705 0.062866
-2.57573 0.342811 -0.151466 -2 0 -1 192 192 192 255 0.198705 0.062866
-2.42427 0.342811 -0.151466 1 0 -2 192 192 192 255 0.167773 0.062866
-2.57573 1.71892 -0.151466 -2 3 -1 192 192 192 255 0.198705 0.062866
-2.57573 1.71892 -0 -1 3 2 192 192 192 255 0.198705 0.062866
-2.42427 1.71892 -0 2 3 1 192 192 192 255 0.198705 0.062866
-2.42427 1.71892 -0.151466 1 3 -2 192 192 192 255 0.198705 0.062866
-3.57573 3.40082 -0 -1 3 2 192 192 192 255 0.198705 0.062866
-3.42427 3.40082 -0 2 3 1 192 192 192 255 0.198705 0.062866
-3.42427 3.40082 -0.151466 1 3 -2 192 192 192 255 0.198705 0.062866
-3.57573 3.40082 -0.151466 -2 3 -1 192 192 192 255 0.198705 0.062866
-1.57573 2.59758 -0.151466 -2 3 -1 192 192 192 255 0.198705 0.062866
-1.57573 2.59758 -0 -1 3 2 192 192 192 255 0.198705 0.062866
-1.42427 2.59758 -0 2 3 1 192 192 192 255 0.198705 0.062866
-1.42427 2.59758 -0.151466 1 3 -2 192 192 192 255 0.198705 0.062866
-2.57573 1.57472 -0 -2 -3 1 192 192 192 255 0.198705 0.062866
-2.42427 1.57472 -0 1 -3 2 192 192 192 255 0.198705 0.062866
-2.42427 1.57472 -0.151466 2 -3 -1 192 192 192 255 0.167773 0.062866
-2.57573 1.57472 -0.151466 -1 -3 -2 192 192 192 255 0.198705 0.062866
-3.57573 3.25662 -0 -2 -3 1 192 192 192 255 0.198705 0.062866
-3.42427 3.25662 -0 1 -3 2 192 192 192 255 0.198705 0.062866
-3.42427 3.25662 -0.151466 2 -3 -1 192 192 192 255 0.167773 0.062866
-3.57573 3.25662 -0.151466 -1 -3 -2 192 192 192 255 0.198705 0.062866
-1.57573 2.45339 -0.151466 -1 -3 -2 192 192 192 255 0.167773 0.062866
-1.57573 2.45339 -0 -2 -3 1 192 192 192 255 0.167773 0.062866
-1.42427 2.45339 -0 1 -3 2 192 192 192 255 0.198705 0.062866
-1.42427 2.45339 -0.151466 2 -3 -1 192 192 192 255 0.167773 0.062866
-2.62983 1.57472 -0.205563 -2 -3 -1 192 192 192 255 0.167773 0.062866
-2.62983 1.57472 0.054097 -1 -3 2 192 192 192 255 0.167773 0.062866
-2.62983 1.71892 0.054097 -2 3 1 192 192 192 255 0.167773 0.062866
-2.62983 1.71892 -0.205563 -1 3 -2 192 192 192 255 0.167773 0.062866
-2.37017 1.57472 0.054097 2 -3 1 192 192 192 255 0.198705 0.062866
-2.37017 1.71892 0.054097 1 3 2 192 192 192 255 0.198705 0.062866
-2.37017 1.57472 -0.205563 1 -3 -2 192 192 192 255 0.167773 0.062866
-2.37017 1.71892 -0.205563 2 3 -1 192 192 192 255 0.167773 0.062866
-3.62983 3.25662 0.054097 -1 -3 2 192 192 192 255 0.198705 0.062866
-3.37017 3.25662 0.054097 2 -3 1 192 192 192 255 0.198705 0.062866
-3.37017 3.40082 0.054097 1 3 2 192 192 192 255 0.198705 0.062866
-3.62983 3.40082 0.054097 -2 3 1 192 192 192 255 0.198705 0.062866
-3.37017 3.25662 -0.205563 1 -3 -2 192 192 192 255 0.167773 0.062866
-3.37017 3.40082 -0.205563 2 3 -1 192 192 192 255 0.167773 0.062866
-3.62983 3.40082 -0.205563 -1 3 -2 192 192 192 255 0.198705 0.062866
-3.62983 3.25662 -0.205563 -2 -3 -1 192 192 192 255 0.198705 0.062866
-1.62983 2.45339 -0.205563 -2 -3 -1 192 192 192 255 0.167773 0.062866
-1.62983 2.45339 0.054097 -1 -3 2 192 192 192 255 0.167773 0.062866
-1.62983 2.59758 0.054097 -2 3 1 192 192 192 255 0.167773 0.062866
-1.62983 2.59758 -0.205563 -1 3 -2 192 192 192 255 0.167773 0.062866
-1.37017 2.45339 0.054097 2 -3 1 192 192 192 255 0.198705 0.062866
-1.37017 2.59758 0.054097 1 3 2 192 192 192 255 0.198705 0.062866
-1.37017 2.45339 -0.205563 1 -3 -2 192 192 192 255 0.167773 0.062866
-1.37017 2.59758 -0.205563 2 3 -1 192 192 192 255 0.167773 0.062866
-5 0 -0 0 0 3 192 192 192 255 0.325789 0.062866
0 0 -0 0 0 3 192 192 192 255 0.325789 0.062866
-5 5 -0 0 0 3 192 192 192 255 0.325789 0.062866
0 5 -0 0 0 3 192 192 192 255 0.325789 0.062866
-4.65719 0.342811 -0 0.810397 1.62079 4.75765 192 192 192 255 0.325789 0.062866
-0.342811 0.342811 -0 -1.62079 0.810396 4.75765 192 192 192 255 0.325789 0.062866
-0.342811 4.65719 -0 -0.810396 -1.6208 4.75764 192 192 192 255 0.325789 0.062866
-4.65719 4.65719 -0 1.62079 -0.810398 4.75764 192 192 192 255 0.325789 0.062866
-4.44964 0.550359 -0.287082 1.62079 0.810396 3.75764 192 192 192 255 0.260449 0.062866
-0.550359 0.550359 -0.287082 -0.810396 1.62079 2.75765 192 192 192 255 0.260449 0.062866
-0.550359 4.44964 -0.287082 -1.62079 -0.810398 3.75764 192 192 192 255 0.260449 0.062866
-4.44964 4.44964 -0.287082 0.810397 -1.6208 2.75764 192 192 192 255 0.260449 0.062866
-3.42427 3.40082 -0 2 3 1 192 192 192 255 0.167773 0.062866
-3.42427 3.40082 -0.151466 1 3 -2 192 192 192 255 0.167773 0.062866
-3.42427 4.65719 -0.151466 2 0 -1 192 192 192 255 0.167773 0.062866
-3.42427 4.65719 -0 1 0 2 192 192 192 255 0.167773 0.062866
-3.57573 3.40082 -0.151466 -2 3 -1 192 192 192 255 0.167773 0.062866
-3.57573 3.40082 -0 -1 3 2 192 192 192 255 0.167773 0.062866
-3.57573 4.65719 -0 -2 0 1 192 192 192 255 0.167773 0.062866
-3.57573 4.65719 -0.151466 -1 0 -2 192 192 192 255 0.167773 0.062866
-1.42427 2.59758 -0 2 3 1 192 192 192 255 0.167773 0.062866
-1.42427 2.59758 -0.151466 1 3 -2 192 192 192 255 0.167773 0.062866
-1.42427 4.65719 -0.151466 2 0 -1 192 192 192 255 0.167773 0.062866
-1.42427 4.65719 -0 1 0 2 192 192 192 255 0.167773 0.062866
-1.57573 2.59758 -0.151466 -2 3 -1 192 192 192 255 0.167773 0.062866
-1.57573 2.59758 -0 -1 3 2 192 192 192 255 0.167773 0.062866
-1.57573 4.65719 -0 -2 0 1 192 192 192 255 0.167773 0.062866
-1.57573 4.65719 -0.151466 -1 0 -2 192 192 192 255 0.167773 0.062866
-2.42427 1.71892 -0 2 3 1 192 192 192 255 0.167773 0.062866
-2.42427 1.71892 -0.151466 1 3 -2 192 192 192 255 0.167773 0.062866
-2.42427 4.65719 -0.151466 2 0 -1 192 192 192 255 0.167773 0.062866
-2.42427 4.65719 -0 1 0 2 192 192 192 255 0.167773 0.062866
-2.57573 1.71892 -0.151466 -2 3 -1 192 192 192 255 0.167773 0.062866
-2.57573 1.71892 -0 -1 3 2 192 192 192 255 0.167773 0.062866
-2.57573 4.65719 -0 -2 0 1 192 192 192 255 0.167773 0.062866
-2.57573 4.65719 -0.151466 -1 0 -2 192 192 192 255 0.167773 0.062866
-2.62983 1.57472 0.054097 -1 -3 2 192 192 192 255 0.198705 0.062866
-2.62983 1.71892 0.054097 -2 3 1 192 192 192 255 0.198705 0.062866
-2.37017 1.57472 0.054097 2 -3 1 192 192 192 255 0.167773 0.062866
-2.37017 1.71892 0.054097 1 3 2 192 192 192 255 0.167773 0.062866
-2.62983 1.71892 -0.205563 -1 3 -2 192 192 192 255 0.198705 0.062866
-2.37017 1.71892 -0.205563 2 3 -1 192 192 192 255 0.198705 0.062866
-2.37017 1.57472 -0.205563 1 -3 -2 192 192 192 255 0.198705 0.062866
-2.62983 1.57472 -0.205563 -2 -3 -1 192 192 192 255 0.198705 0.062866
-3.37017 3.25662 0.054097 2 -3 1 192 192 192 255 0.167773 0.062866
-3.37017 3.40082 0.054097 1 3 2 192 192 192 255 0.167773 0.062866
-3.37017 3.40082 -0.205563 2 3 -1 192 192 192 255 0.198705 0.062866
-3.37017 3.25662 -0.205563 1 -3 -2 192 192 192 255 0.198705 0.062866
-3.62983 3.25662 -0.205563 -2 -3 -1 192 192 192 255 0.167773 0.062866
-3.62983 3.25662 0.054097 -1 -3 2 192 192 192 255 0.167773 0.062866
-3.62983 3.40082 0.054097 -2 3 1 192 192 192 255 0.167773 0.062866
-3.62983 3.40082 -0.205563 -1 3 -2 192 192 192 255 0.167773 0.062866
-1.62983 2.45339 0.054097 -1 -3 2 192 192 192 255 0.198705 0.062866
-1.62983 2.59758 0.054097 -2 3 1 192 192 192 255 0.198705 0.062866
-1.37017 2.45339 0.054097 2 -3 1 192 192 192 255 0.167773 0.062866
-1.37017 2.59758 0.054097 1 3 2 192 192 192 255 0.167773 0.062866
-1.62983 2.59758 -0.205563 -1 3 -2 192 192 192 255 0.198705 0.062866
-1.37017 2.59758 -0.205563 2 3 -1 192 192 192 255 0.198705 0.062866
-1.37017 2.45339 -0.205563 1 -3 -2 192 192 192 255 0.198705 0.062866
-1.62983 2.45339 -0.205563 -2 -3 -1 192 192 192 255 0.198705 0.062866
-2.42427 0.342811 -0 2 0 1 192 192 192 255 0.167773 0.062866
-2.42427 1.57472 -0 1 -3 2 192 192 192 255 0.167773 0.062866
-2.42427 1.57472 -0.151466 2 -3 -1 192 192 192 255 0.198705 0.062866
-2.42427 0.342811 -0.151466 1 0 -2 192 192 192 255 0.198705 0.062866
-2.57573 0.342811 -0.151466 -2 0 -1 192 192 192 255 0.167773 0.062866
-2.57573 0.342811 -0 -1 0 2 192 192 192 255 0.167773 0.062866
-2.57573 1.57472 -0 -2 -3 1 192 192 192 255 0.167773 0.062866
-2.57573 1.57472 -0.151466 -1 -3 -2 192 192 192 255 0.167773 0.062866
-3.42427 0.342811 -0 2 0 1 192 192 192 255 0.167773 0.062866
-3.42427 3.25662 -0 1 -3 2 192 192 192 255 0.167773 0.062866
-3.42427 3.25662 -0.151466 2 -3 -1 192 192 192 255 0.198705 0.062866
-3.42427 0.342811 -0.151466 1 0 -2 192 192 192 255 0.198705 0.062866
-3.57573 0.342811 -0.151466 -2 0 -1 192 192 192 255 0.167773 0.062866
-3.57573 0.342811 -0 -1 0 2 192 192 192 255 0.167773 0.062866
-3.57573 3.25662 -0 -2 -3 1 192 192 192 255 0.167773 0.062866
-3.57573 3.25662 -0.151466 -1 -3 -2 192 192 192 255 0.167773 0.062866
-1.57573 0.342811 -0 -1 0 2 192 192 192 255 0.198705 0.062866
-1.57573 2.45339 -0 -2 -3 1 192 192 192 255 0.198705 0.062866
-1.42427 0.342811 -0 2 0 1 192 192 192 255 0.167773 0.062866
-1.42427 2.45339 -0 1 -3 2 192 192 192 255 0.167773 0.062866
-1.57573 2.45339 -0.151466 -1 -3 -2 192 192 192 255 0.198705 0.062866
-1.42427 2.45339 -0.151466 2 -3 -1 192 192 192 255 0.198705 0.062866
-1.42427 0.342811 -0.151466 1 0 -2 192 192 192 255 0.198705 0.062866
-1.57573 0.342811 -0.151466 -2 0 -1 192 192 192 255 0.198705 0.062866
-2.57573 1.57472 -0.151466 -1 -3 -2 192 192 192 255 0.139168 0.061099
-2.57573 1.57472 -0 -2 -3 1 192 192 192 255 0.139168 0.061099
-2.62983 1.57472 0.054097 -1 -3 2 192 192 192 255 0.139168 0.061099
-2.62983 1.57472 -0.205563 -2 -3 -1 192 192 192 255 0.139168 0.061099
-2.57573 1.71892 -0 -1 3 2 192 192 192 255 0.23993 0.063683
-2.57573 1.71892 -0.151466 -2 3 -1 192 192 192 255 0.23993 0.063683
-2.62983 1.71892 -0.205563 -1 3 -2 192 192 192 255 0.23993 0.063683
-2.62983 1.71892 0.054097 -2 3 1 192 192 192 255 0.23993 0.063683
-2.42427 1.57472 -0 1 -3 2 192 192 192 255 0.139168 0.061099
-2.37017 1.57472 0.054097 2 -3 1 192 192 192 255 0.139168 0.061099
-2.42427 1.71892 -0 2 3 1 192 192 192 255 0.23993 0.063683
-2.37017 1.71892 0.054097 1 3 2 192 192 192 255 0.23993 0.063683
-2.42427 1.57472 -0.151466 2 -3 -1 192 192 192 255 0.139168 0.061099
-2.37017 1.57472 -0.205563 1 -3 -2 192 192 192 255 0.139168 0.061099
-2.42427 1.71892 -0.151466 1 3 -2 192 192 192 255 0.23993 0.063683
-2.37017 1.71892 -0.205563 2 3 -1 192 192 192 255 0.23993 0.063683
-3.57573 3.25662 -0 -2 -3 1 192 192 192 255 0.139168 0.061099
-3.42427 3.25662 -0 1 -3 2 192 192 192 255 0.139168 0.061099
-3.37017 3.25662 0.054097 2 -3 1 192 192 192 255 0.139168 0.061099
-3.62983 3.25662 0.054097 -1 -3 2 192 192 192 255 0.139168 0.061099
-3.42427 3.40082 -0 2 3 1 192 192 192 255 0.23993 0.063683
-3.57573 3.40082 -0 -1 3 2 192 192 192 255 0.23993 0.063683
-3.62983 3.40082 0.054097 -2 3 1 192 192 192 255 0.23993 0.063683
-3.37017 3.40082 0.054097 1 3 2 192 192 192 255 0.23993 0.063683
-3.42427 3.25662 -0.151466 2 -3 -1 192 192 192 255 0.139168 0.061099
-3.37017 3.25662 -0.205563 1 -3 -2 192 192 192 255 0.139168 0.061099
-3.42427 3.40082 -0.151466 1 3 -2 192 192 192 255 0.23993 0.063683
-3.37017 3.40082 -0.205563 2 3 -1 192 192 192 255 0.23993 0.063683
-3.57573 3.40082 -0.151466 -2 3 -1 192 192 192 255 0.23993 0.063683
-3.62983 3.40082 -0.205563 -1 3 -2 192 192 192 255 0.23993 0.063683
-3.57573 3.25662 -0.151466 -1 -3 -2 192 192 192 255 0.139168 0.061099
-3.62983 3.25662 -0.205563 -2 -3 -1 192 192 192 255 0.139168 0.061099
-1.57573 2.45339 -0.151466 -1 -3 -2 192 192 192 255 0.139168 0.061099
-1.57573 2.45339 -0 -2 -3 1 192 192 192 255 0.139168 0.061099
-1.62983 2.45339 0.054097 -1 -3 2 192 192 192 255 0.139168 0.061099
-1.62983 2.45339 -0.205563 -2 -3 -1 192 192 192 255 0.139168 0.061099
-1.57573 2.59758 -0 -1 3 2 192 192 192 255 0.23993 0.063683
-1.57573 2.59758 -0.151466 -2 3 -1 192 192 192 255 0.23993 0.063683
-1.62983 2.59758 -0.205563 -1 3 -2 192 192 192 255 0.23993 0.063683
-1.62983 2.59758 0.054097 -2 3 1 192 192 192 255 0.23993 0.063683
-1.42427 2.45339 -0 1 -3 2 192 192 192 255 0.139168 0.061099
-1.37017 2.45339 0.054097 2 -3 1 192 192 192 255 0.139168 0.061099
-1.42427 2.59758 -0 2 3 1 192 192 192 255 0.23993 0.063683
-1.37017 2.59758 0.054097 1 3 2 192 192 192 255 0.23993 0.063683
-1.42427 2.45339 -0.151466 2 -3 -1 192 192 192 255 0.139168 0.061099
-1.37017 2.45339 -0.205563 1 -3 -2 192 192 192 255 0.139168 0.061099
-1.42427 2.59758 -0.151466 1 3 -2 192 192 192 255 0.23993 0.063683
-1.37017 2.59758 -0.205563 2 3 -1 192 192 192 255 0.23993 0.063683
-4.65719 0.342811 -0 0.810397 1.62079 4.75765 192 192 192 255 0.291645 0.062866
-0.342811 0.342811 -0 -1.62079 0.810396 4.75765 192 192 192 255 0.291645 0.062866
-0.550359 0.550359 -0.287082 -0.810396 1.62079 2.75765 192 192 192 255 0.291645 0.062866
-4.44964 0.550359 -0.287082 1.62079 0.810396 3.75764 192 192 192 255 0.291645 0.062866
-0.342811 0.342811 -0 -1.62079 0.810396 4.75765 192 192 192 255 0.230408 0.062866
-0.342811 4.65719 -0 -0.810396 -1.6208 4.75764 192 192 192 255 0.230408 0.062866
-0.550359 4.44964 -0.287082 -1.62079 -0.810398 3.75764 192 192 192 255 0.230408 0.062866
-0.550359 0.550359 -0.287082 -0.810396 1.62079 2.75765 192 192 192 255 0.230408 0.062866
-0.342811 4.65719 -0 -0.810396 -1.6208 4.75764 192 192 192 255 0.200367 0.062866
-4.65719 4.65719 -0 1.62079 -0.810398 4.75764 192 192 192 255 0.200367 0.062866
-4.44964 4.44964 -0.287082 0.810397 -1.6208 2.75764 192 192 192 255 0.200367 0.062866
-0.550359 4.44964 -0.287082 -1.62079 -0.810398 3.75764 192 192 192 255 0.200367 0.062866
-4.65719 4.65719 -0 1.62079 -0.810398 4.75764 192 192 192 255 0.230408 0.062866
-4.65719 0.342811 -0 0.810397 1.62079 4.75765 192 192 192 255 0.230408 0.062866
-4.44964 0.550359 -0.287082 1.62079 0.810396 3.75764 192 192 192 255 0.230408 0.062866
-4.44964 4.44964 -0.287082 0.810397 -1.6208 2.75764 192 192 192 255 0.230408 0.062866
3 28 29 3 
3 28 3 2 
3 4 5 30 
3 4 30 31 
3 84 85 86 
3 84 86 87 
3 88 89 90 
3 88 90 91 
3 33 34 11 
3 33 11 10 
3 12 13 35 
3 12 35 32 
3 92 93 94 
3 92 94 95 
3 96 97 98 
3 96 98 99 
3 25 26 19 
3 25 19 18 
3 20 21 27 
3 20 27 24 
3 100 101 102 
3 100 102 103 
3 104 105 106 
3 104 106 107 
3 48 49 50 
3 48 50 51 
3 108 52 53 
3 108 53 109 
3 110 54 55 
3 110 55 111 
3 112 113 114 
3 112 114 115 
3 56 57 58 
3 56 58 59 
3 116 60 61 
3 116 61 117 
3 62 118 119 
3 62 119 63 
3 120 121 122 
3 120 122 123 
3 64 65 66 
3 64 66 67 
3 124 68 69 
3 124 69 125 
3 126 70 71 
3 126 71 127 
3 128 129 130 
3 128 130 131 
3 16 17 37 
3 16 37 36 
3 132 23 38 
3 132 38 133 
3 39 134 135 
3 39 135 22 
3 136 137 138 
3 136 138 139 
3 0 1 41 
3 0 41 40 
3 140 7 42 
3 140 42 141 
3 43 142 143 
3 43 143 6 
3 144 145 146 
3 144 146 147 
3 14 8 45 
3 14 45 44 
3 148 9 46 
3 148 46 149 
3 150 15 47 
3 150 47 151 
3 152 153 154 
3 152 154 155 
3 156 157 158 
3 156 158 159 
3 160 161 162 
3 160 162 163 
3 157 164 165 
3 157 165 158 
3 166 160 163 
3 166 163 167 
3 164 168 169 
3 164 169 165 
3 170 166 167 
3 170 167 171 
3 161 170 171 
3 161 171 162 
3 168 156 159 
3 168 159 169 
3 172 173 174 
3 172 174 175 
3 176 177 178 
3 176 178 179 
3 173 180 181 
3 173 181 174 
3 182 176 179 
3 182 179 183 
3 184 182 183 
3 184 183 185 
3 180 186 187 
3 180 187 181 
3 186 172 175 
3 186 175 187 
3 177 184 185 
3 177 185 178 
3 188 189 190 
3 188 190 191 
3 192 193 194 
3 192 194 195 
3 189 196 197 
3 189 197 190 
3 198 192 195 
3 198 195 199 
3 196 200 201 
3 196 201 197 
3 202 198 199 
3 202 199 203 
3 193 202 203 
3 193 203 194 
3 200 188 191 
3 200 191 201 
3 80 81 82 
3 80 82 83 
3 72 73 77 
3 72 77 76 
3 73 75 78 
3 73 78 77 
3 75 74 79 
3 75 79 78 
3 74 72 76 
3 74 76 79 
3 204 205 206 
3 204 206 207 
3 208 209 210 
3 208 210 211 
3 212 213 214 
3 212 214 215 
3 216 217 218 
3 216 218 219 
