ply
format ascii 1.0
comment VCGLIB generated
comment TextureFile SpaceInteriors_Texture.png
element vertex 381
property float x
property float y
property float z
property float nx
property float ny
property float nz
property uchar red
property uchar green
property uchar blue
property uchar alpha
property float texture_u
property float texture_v
element face 248
property list uchar int vertex_indices
end_header
-5 0 1.25 -1.79719e-008 2.12132 2.12132 192 192 192 255 0.300119 0.063433
0 0 1.25 0 0.707107 0.707107 192 192 192 255 0.300119 0.063433
-5 5 1.25 -1.66636e-007 -2.12132 2.12132 192 192 192 255 0.300119 0.063433
0 5 1.25 5.71176e-008 -2.12132 2.12132 192 192 192 255 0.300119 0.063433
-5 3.75 0 -8.33178e-008 -2.12132 3.12132 192 192 192 255 0.58782 0.672963
0 3.75 0 1.14235e-007 -2.12132 5.12132 192 192 192 255 0.749269 0.672963
-5 1.25 0 -3.59439e-008 2.12132 3.12132 192 192 192 255 0.58782 0.592067
0 1.25 0 0 1.41421 4.41421 192 192 192 255 0.300119 0.063433
-0.733047 0.356813 1.20057 -3 -1.0001 1.99989 192 192 192 255 0.200168 0.219525
-0.646828 0.356813 1.20057 3 -2 1 192 192 192 255 0.244197 0.219525
-0.733047 4.64255 1.20057 -3 2 1 192 192 192 255 0.300052 0.219525
-0.646828 4.64255 1.20057 3 1 2 192 192 192 255 0.300052 0.219525
-0.733047 4.55414 1.11435 -3 -1 0 192 192 192 255 0.198113 0.219525
-0.646828 4.55414 1.11435 3 -2 0 192 192 192 255 0.240032 0.219525
-0.733047 0.445222 1.11435 -4 1.31184 -0.725832 192 192 192 255 0.29711 0.219525
-0.646828 0.445222 1.11435 3 -0.375996 -1.45129 192 192 192 255 0.29711 0.219525
-0.733047 4.64255 0.976231 -2 1 3 192 192 192 255 0.300052 0.219525
-0.646828 4.64255 0.976231 1 2 3 192 192 192 255 0.300052 0.219525
-0.646828 4.55414 0.976231 2 -1 3 192 192 192 255 0.240032 0.219525
-0.733047 4.55414 0.976231 -1 -2 3 192 192 192 255 0.198113 0.219525
-0.733047 0.445222 0.976231 -2 0.999932 2.99993 192 192 192 255 0.29711 0.219525
-0.646828 0.445222 0.976231 2 2 3 192 192 192 255 0.29711 0.219525
-0.646828 0.356813 0.976231 1 -1 3 192 192 192 255 0.244197 0.219525
-0.733047 0.356813 0.976231 -1 -2.00003 2.99997 192 192 192 255 0.200168 0.219525
-0.760895 4.6711 0.976231 -1 2 3 192 192 192 255 0.202727 0.220055
-0.618988 4.6711 0.976231 2 1 3 192 192 192 255 0.202727 0.220055
-0.618988 4.52559 0.976231 1 -2 3 192 192 192 255 0.202727 0.220055
-0.760895 4.52559 0.976231 -2 -1 3 192 192 192 255 0.202727 0.220055
-0.760895 0.473775 0.976231 -1 2 3 192 192 192 255 0.200573 0.220055
-0.61898 0.473775 0.976231 2 1 3 192 192 192 255 0.200573 0.220055
-0.61898 0.32826 0.976231 1 -2 3 192 192 192 255 0.200573 0.220055
-0.760895 0.32826 0.976231 -2 -1 3 192 192 192 255 0.200573 0.220055
-0.760895 4.6711 0.917461 -2 1 0 192 192 192 255 0.236948 0.220055
-0.618988 4.6711 0.917461 1 2 0 192 192 192 255 0.236948 0.220055
-0.618988 4.52559 0.752975 2 -1 0 192 192 192 255 0.174121 0.220055
-0.760895 4.52559 0.752975 -1 -2 0 192 192 192 255 0.148284 0.220055
-0.760895 0.473775 0.752975 -2 1 0 192 192 192 255 0.234795 0.220055
-0.61898 0.473775 0.752975 1 2 0 192 192 192 255 0.234795 0.220055
-0.61898 0.32826 0.917461 2 -1 0 192 192 192 255 0.171967 0.220055
-0.760895 0.32826 0.917461 -1 -2 0 192 192 192 255 0.146131 0.220055
-0.733047 1.25 0.35133 -3 -1.37609 -2.4514 192 192 192 255 0.234965 0.219525
-0.733047 1.28541 0.437553 -3 0.672231 2.7402 192 192 192 255 0.234965 0.219525
-0.646835 1.28541 0.437553 3 1.34466 2.48072 192 192 192 255 0.234965 0.219525
-0.646828 1.25 0.35133 3 -0.687902 -2.7255 192 192 192 255 0.234965 0.219525
-0.733047 3.7146 0.437553 -3 -1.34515 2.48006 192 192 192 255 0.234965 0.219525
-0.733047 3.75 0.35133 -3 0.688316 -2.72541 192 192 192 255 0.234965 0.219525
-0.646835 3.75 0.35133 3 1.37663 -2.45074 192 192 192 255 0.234965 0.219525
-0.646835 3.7146 0.437553 3 -0.672587 2.74007 192 192 192 255 0.234965 0.219525
-0.646828 4.55414 1.20057 3 -1.34516 2.48006 192 192 192 255 0.233148 0.219525
-0.733047 4.55414 1.20057 -3 -0.672574 2.74003 192 192 192 255 0.233148 0.219525
-0.733047 4.55414 1.11435 -3 1.37663 -1.45082 192 192 192 255 0.233148 0.219525
-0.646828 4.55414 1.11435 3 0.688302 -0.725414 192 192 192 255 0.267261 0.219525
-0.733055 0.445222 1.20057 -2 1.34452 2.48049 192 192 192 255 0.233148 0.219525
-0.646835 0.445222 1.20057 3 0.672423 2.74042 192 192 192 255 0.233148 0.219525
-4.35317 0.356813 1.20057 -3 -1 2 192 192 192 255 0.200168 0.219525
-4.26694 0.356813 1.20057 3 -2 1 192 192 192 255 0.244197 0.219525
-4.35317 4.64255 1.20057 -3 2 1 192 192 192 255 0.300052 0.219525
-4.26694 4.64255 1.20057 3 1 2 192 192 192 255 0.300052 0.219525
-4.35317 4.55414 1.11435 -3 -1 0 192 192 192 255 0.198113 0.219525
-4.26694 4.55414 1.11435 3 -2 0 192 192 192 255 0.240032 0.219525
-4.35317 0.445222 1.11435 -4 1.31197 -0.725682 192 192 192 255 0.29711 0.219525
-4.26694 0.445222 1.11435 3 -0.376061 -1.45136 192 192 192 255 0.29711 0.219525
-4.35317 4.64255 0.976231 -2 1 3 192 192 192 255 0.300052 0.219525
-4.26694 4.64255 0.976231 1 2 3 192 192 192 255 0.300052 0.219525
-4.26694 4.55414 0.976231 2 -1 3 192 192 192 255 0.240032 0.219525
-4.35317 4.55414 0.976231 -1 -2 3 192 192 192 255 0.198113 0.219525
-4.35317 0.445222 0.976231 -2 1 3 192 192 192 255 0.29711 0.219525
-4.26694 0.445222 0.976231 2 2 3 192 192 192 255 0.29711 0.219525
-4.26694 0.356813 0.976231 1 -1 3 192 192 192 255 0.244197 0.219525
-4.35317 0.356813 0.976231 -1 -2 3 192 192 192 255 0.200168 0.219525
-4.38101 4.6711 0.976231 -1 2 3 192 192 192 255 0.202727 0.220055
-4.2391 4.6711 0.976231 2 1 3 192 192 192 255 0.202727 0.220055
-4.2391 4.52559 0.976231 1 -2 3 192 192 192 255 0.202727 0.220055
-4.38101 4.52559 0.976231 -2 -1 3 192 192 192 255 0.202727 0.220055
-4.38101 0.473775 0.976231 -1 2 3 192 192 192 255 0.200573 0.220055
-4.2391 0.473775 0.976231 2 1 3 192 192 192 255 0.200573 0.220055
-4.2391 0.32826 0.976231 1 -2 3 192 192 192 255 0.200573 0.220055
-4.38101 0.32826 0.976231 -2 -1 3 192 192 192 255 0.200573 0.220055
-4.38101 4.6711 0.917461 -2 1 0 192 192 192 255 0.236948 0.220055
-4.2391 4.6711 0.917461 1 2 0 192 192 192 255 0.236948 0.220055
-4.2391 4.52559 0.752975 2 -1 0 192 192 192 255 0.174121 0.220055
-4.38101 4.52559 0.752975 -1 -2 0 192 192 192 255 0.148284 0.220055
-4.38101 0.473775 0.752975 -2 1 0 192 192 192 255 0.234795 0.220055
-4.2391 0.473775 0.752975 1 2 0 192 192 192 255 0.234795 0.220055
-4.2391 0.32826 0.917461 2 -1 0 192 192 192 255 0.171967 0.220055
-4.38101 0.32826 0.917461 -1 -2 0 192 192 192 255 0.146131 0.220055
-4.35317 1.25 0.35133 -3 -1.37606 -2.45136 192 192 192 255 0.234965 0.219525
-4.35317 1.28541 0.437553 -3 0.672295 2.74028 192 192 192 255 0.234965 0.219525
-4.26694 1.28541 0.437553 3 1.34459 2.48057 192 192 192 255 0.234965 0.219525
-4.26694 1.25 0.35133 3 -0.688031 -2.72568 192 192 192 255 0.234965 0.219525
-4.35317 3.7146 0.437553 -3 -1.34515 2.48006 192 192 192 255 0.234965 0.219525
-4.35317 3.75 0.35133 -3 0.688317 -2.72541 192 192 192 255 0.234965 0.219525
-4.26694 3.75 0.35133 3 1.37663 -2.45082 192 192 192 255 0.234965 0.219525
-4.26694 3.7146 0.437553 3 -0.672574 2.74003 192 192 192 255 0.234965 0.219525
-4.26694 4.55414 1.20057 3 -1.34515 2.48006 192 192 192 255 0.233148 0.219525
-4.35317 4.55414 1.20057 -3 -0.672574 2.74003 192 192 192 255 0.233148 0.219525
-4.35317 4.55414 1.11435 -3 1.37663 -1.45082 192 192 192 255 0.233148 0.219525
-4.26694 4.55414 1.11435 3 0.688317 -0.725411 192 192 192 255 0.267261 0.219525
-4.35317 0.445222 1.20057 -2 1.34459 2.48057 192 192 192 255 0.233148 0.219525
-4.26694 0.445222 1.20057 3 0.672295 2.74028 192 192 192 255 0.233148 0.219525
-2.5 5 1.25 0 -2.12131 2.12133 192 192 192 255 0.300119 0.063433
-2.5 3.75 0 0 -2.12132 7.12133 192 192 192 255 0.668545 0.672963
-2.5 1.25 0 5.26528e-008 2.82843 7.82843 192 192 192 255 0.300119 0.063433
-2.5 0 1.25 1.05306e-007 3.53553 3.53553 192 192 192 255 0.300119 0.063433
0 2.5 0 0 0 6 192 192 192 255 0.749269 0.632514
-2.5 2.5 0 0 0 8 192 192 192 255 0.668545 0.632514
-5 2.5 0 0 0 4 192 192 192 255 0.58782 0.632514
-1.11304 2.56227 0 2 -1 3 192 192 192 255 0.713329 0.634529
-2.05369 2.56227 0 -1 -2 3 192 192 192 255 0.682956 0.634529
-1.11304 3.53662 0 1 2 3 192 192 192 255 0.713329 0.666057
-2.05369 3.53662 0 -2 1 3 192 192 192 255 0.682956 0.666057
-1.11304 2.56227 0.161804 1 -2 1 192 192 192 255 0.586633 0.595651
-2.05369 2.56227 0.161804 -2 -1 2 192 192 192 255 0.509311 0.595651
-1.11304 3.53662 0.161804 2 1 2 192 192 192 255 0.586633 0.672973
-2.05369 3.53662 0.161804 -1 2 1 192 192 192 255 0.509311 0.672973
-2.85838 1.1168 0.133202 1 3.53555 0.707123 192 192 192 255 0.300119 0.063433
-2.85838 0.133202 1.1168 2 1.41421 2.82842 192 192 192 255 0.300119 0.063433
-3.95006 1.1168 0.133202 -2 2.82844 1.41422 192 192 192 255 0.300119 0.063433
-3.95006 0.133202 1.1168 -1 0.707091 3.53552 192 192 192 255 0.300119 0.063433
-2.85838 1.24863 0.265038 2 1.41422 8.16584e-006 192 192 192 255 0.99176 0.7882
-2.85838 0.265035 1.24863 1 -1.57356e-005 2.82841 192 192 192 255 0.749841 0.7882
-3.95006 1.24863 0.265038 -1 2.82844 1.63317e-005 192 192 192 255 0.99176 0.951184
-3.95006 0.265035 1.24863 -2 -7.86781e-006 1.41421 192 192 192 255 0.749841 0.951184
-1.25319 1.72629 0 0 0 5 192 192 192 255 0.750127 0.673809
-1.25319 2.43331 0 0 0 4 192 192 192 255 0.750127 0.747689
-1.9006 2.43331 0 0 0 5 192 192 192 255 0.6721 0.747689
-1.9006 1.72629 0 0 0 4 192 192 192 255 0.6721 0.673809
-2.73469 4.80046 1.05046 0 2.08616e-005 4.24263 192 192 192 255 0.300119 0.063433
-1.49271 4.80046 1.05046 1 -0.707096 3.53553 192 192 192 255 0.300119 0.063433
-2.73469 3.94954 0.199539 0 -4.24264 5.36442e-006 192 192 192 255 0.300119 0.063433
-1.49271 3.94954 0.199539 2 -2.82842 1.41422 192 192 192 255 0.300119 0.063433
-3.97669 4.80046 1.05046 -2 -1.4142 2.82843 192 192 192 255 0.300119 0.063433
-3.97669 3.94954 0.199539 -1 -3.53553 0.707108 192 192 192 255 0.300119 0.063433
-2.73469 4.71207 1.13885 0 0.70712 3.53552 192 192 192 255 0.629295 0.993458
-1.49271 4.71207 1.13885 2 -0.707103 2.12132 192 192 192 255 0.749376 0.993458
-2.73469 3.86115 0.287933 0 -4.94975 0.707106 192 192 192 255 0.629295 0.74792
-1.49271 3.86115 0.287933 1 -2.12132 -0.707107 192 192 192 255 0.749376 0.74792
-3.97669 4.71207 1.13885 -1 8.70228e-006 2.82842 192 192 192 255 0.509213 0.993458
-3.97669 3.86115 0.287933 -2 -1.41421 -1.19209e-007 192 192 192 255 0.509213 0.74792
-0.646835 1.28541 0.437553 3 1.34466 2.48072 192 192 192 255 0.200852 0.219525
-0.646828 1.25 0.35133 3 -0.687902 -2.7255 192 192 192 255 0.200852 0.219525
-0.646835 3.75 0.35133 3 1.37663 -2.45074 192 192 192 255 0.200852 0.219525
-0.646835 3.7146 0.437553 3 -0.672587 2.74007 192 192 192 255 0.200852 0.219525
-0.733047 1.25 0.35133 -3 -1.37609 -2.4514 192 192 192 255 0.200852 0.219525
-0.733047 1.28541 0.437553 -3 0.672231 2.7402 192 192 192 255 0.200852 0.219525
-0.733047 3.7146 0.437553 -3 -1.34515 2.48006 192 192 192 255 0.200852 0.219525
-0.733047 3.75 0.35133 -3 0.688316 -2.72541 192 192 192 255 0.200852 0.219525
-0.646828 4.64255 1.20057 3 1 2 192 192 192 255 0.240032 0.219525
-0.646828 4.64255 0.976231 1 2 3 192 192 192 255 0.240032 0.219525
-0.646828 4.55414 1.11435 3 -2 0 192 192 192 255 0.198113 0.219525
-0.646828 4.55414 0.976231 2 -1 3 192 192 192 255 0.198113 0.219525
-0.733047 4.55414 1.11435 -3 -1 0 192 192 192 255 0.240032 0.219525
-0.733047 4.64255 1.20057 -3 2 1 192 192 192 255 0.240032 0.219525
-0.733047 4.64255 0.976231 -2 1 3 192 192 192 255 0.240032 0.219525
-0.733047 4.55414 0.976231 -1 -2 3 192 192 192 255 0.240032 0.219525
-0.646828 0.445222 0.976231 2 2 3 192 192 192 255 0.244197 0.219525
-0.646828 0.445222 1.11435 3 -0.375996 -1.45129 192 192 192 255 0.233148 0.219525
-0.646828 0.356813 1.20057 3 -2 1 192 192 192 255 0.200168 0.219525
-0.646828 0.356813 0.976231 1 -1 3 192 192 192 255 0.200168 0.219525
-0.733047 4.64255 0.976231 -2 1 3 192 192 192 255 0.202727 0.220055
-0.646828 4.64255 0.976231 1 2 3 192 192 192 255 0.202727 0.220055
-0.646828 4.55414 0.976231 2 -1 3 192 192 192 255 0.202727 0.220055
-0.733047 4.55414 0.976231 -1 -2 3 192 192 192 255 0.202727 0.220055
-0.733047 0.445222 0.976231 -2 0.999932 2.99993 192 192 192 255 0.200573 0.220055
-0.646828 0.445222 0.976231 2 2 3 192 192 192 255 0.200573 0.220055
-0.646828 0.356813 0.976231 1 -1 3 192 192 192 255 0.200573 0.220055
-0.733047 0.356813 0.976231 -1 -2.00003 2.99997 192 192 192 255 0.200573 0.220055
-0.760895 4.6711 0.976231 -1 2 3 192 192 192 255 0.236948 0.220055
-0.618988 4.6711 0.976231 2 1 3 192 192 192 255 0.236948 0.220055
-0.618988 4.6711 0.976231 2 1 3 192 192 192 255 0.174121 0.220055
-0.618988 4.52559 0.976231 1 -2 3 192 192 192 255 0.174121 0.220055
-0.618988 4.6711 0.917461 1 2 0 192 192 192 255 0.174121 0.220055
-0.618988 4.52559 0.976231 1 -2 3 192 192 192 255 0.148284 0.220055
-0.760895 4.52559 0.976231 -2 -1 3 192 192 192 255 0.148284 0.220055
-0.618988 4.52559 0.752975 2 -1 0 192 192 192 255 0.148284 0.220055
-0.760895 4.52559 0.976231 -2 -1 3 192 192 192 255 0.174121 0.220055
-0.760895 4.6711 0.976231 -1 2 3 192 192 192 255 0.174121 0.220055
-0.760895 4.6711 0.917461 -2 1 0 192 192 192 255 0.174121 0.220055
-0.760895 4.52559 0.752975 -1 -2 0 192 192 192 255 0.174121 0.220055
-0.760895 0.473775 0.976231 -1 2 3 192 192 192 255 0.234795 0.220055
-0.61898 0.473775 0.976231 2 1 3 192 192 192 255 0.234795 0.220055
-0.61898 0.473775 0.976231 2 1 3 192 192 192 255 0.171967 0.220055
-0.61898 0.32826 0.976231 1 -2 3 192 192 192 255 0.171967 0.220055
-0.61898 0.473775 0.752975 1 2 0 192 192 192 255 0.171967 0.220055
-0.61898 0.32826 0.976231 1 -2 3 192 192 192 255 0.146131 0.220055
-0.760895 0.32826 0.976231 -2 -1 3 192 192 192 255 0.146131 0.220055
-0.61898 0.32826 0.917461 2 -1 0 192 192 192 255 0.146131 0.220055
-0.760895 0.32826 0.976231 -2 -1 3 192 192 192 255 0.171967 0.220055
-0.760895 0.473775 0.976231 -1 2 3 192 192 192 255 0.171967 0.220055
-0.760895 0.473775 0.752975 -2 1 0 192 192 192 255 0.171967 0.220055
-0.760895 0.32826 0.917461 -1 -2 0 192 192 192 255 0.171967 0.220055
-0.733047 0.445222 1.11435 -4 1.31184 -0.725832 192 192 192 255 0.238673 0.219525
-0.733047 1.28541 0.437553 -3 0.672231 2.7402 192 192 192 255 0.233148 0.219525
-0.733047 1.25 0.35133 -3 -1.37609 -2.4514 192 192 192 255 0.233148 0.219525
-0.733055 0.445222 1.20057 -2 1.34452 2.48049 192 192 192 255 0.267261 0.219525
-0.646835 0.445222 1.20057 3 0.672423 2.74042 192 192 192 255 0.267261 0.219525
-0.646835 1.28541 0.437553 3 1.34466 2.48072 192 192 192 255 0.267261 0.219525
-0.733047 1.28541 0.437553 -3 0.672231 2.7402 192 192 192 255 0.267261 0.219525
-0.646828 1.25 0.35133 3 -0.687902 -2.7255 192 192 192 255 0.233148 0.219525
-0.646835 1.28541 0.437553 3 1.34466 2.48072 192 192 192 255 0.233148 0.219525
-0.733047 1.25 0.35133 -3 -1.37609 -2.4514 192 192 192 255 0.267261 0.219525
-0.646828 1.25 0.35133 3 -0.687902 -2.7255 192 192 192 255 0.267261 0.219525
-0.646828 0.445222 1.11435 3 -0.375996 -1.45129 192 192 192 255 0.267261 0.219525
-0.733047 0.445222 1.11435 -4 1.31184 -0.725832 192 192 192 255 0.267261 0.219525
-0.733047 3.75 0.35133 -3 0.688316 -2.72541 192 192 192 255 0.233148 0.219525
-0.733047 3.7146 0.437553 -3 -1.34515 2.48006 192 192 192 255 0.233148 0.219525
-0.733047 4.55414 1.11435 -3 1.37663 -1.45082 192 192 192 255 0.267261 0.219525
-0.646835 3.75 0.35133 3 1.37663 -2.45074 192 192 192 255 0.267261 0.219525
-0.733047 3.75 0.35133 -3 0.688316 -2.72541 192 192 192 255 0.267261 0.219525
-0.646835 3.7146 0.437553 3 -0.672587 2.74007 192 192 192 255 0.233148 0.219525
-0.646835 3.75 0.35133 3 1.37663 -2.45074 192 192 192 255 0.233148 0.219525
-0.646828 4.55414 1.11435 3 0.688302 -0.725414 192 192 192 255 0.233148 0.219525
-0.733047 3.7146 0.437553 -3 -1.34515 2.48006 192 192 192 255 0.267261 0.219525
-0.646835 3.7146 0.437553 3 -0.672587 2.74007 192 192 192 255 0.267261 0.219525
-0.646828 4.55414 1.20057 3 -1.34516 2.48006 192 192 192 255 0.267261 0.219525
-0.733047 4.55414 1.20057 -3 -0.672574 2.74003 192 192 192 255 0.267261 0.219525
-0.646828 4.64255 1.20057 3 1 2 192 192 192 255 0.267261 0.219525
-0.733047 4.64255 1.20057 -3 2 1 192 192 192 255 0.267261 0.219525
-0.733047 4.64255 1.20057 -3 2 1 192 192 192 255 0.233148 0.219525
-0.733047 4.55414 1.11435 -3 -1 0 192 192 192 255 0.233148 0.219525
-0.733047 4.55414 1.11435 -3 -1 0 192 192 192 255 0.267261 0.219525
-0.646828 4.55414 1.11435 3 -2 0 192 192 192 255 0.267261 0.219525
-0.646828 4.55414 1.11435 3 -2 0 192 192 192 255 0.233148 0.219525
-0.646828 4.64255 1.20057 3 1 2 192 192 192 255 0.233148 0.219525
-0.733047 0.356813 1.20057 -3 -1.0001 1.99989 192 192 192 255 0.267261 0.219525
-0.646828 0.356813 1.20057 3 -2 1 192 192 192 255 0.267261 0.219525
-0.733047 0.356813 1.20057 -3 -1.0001 1.99989 192 192 192 255 0.233148 0.219525
-0.733047 0.445222 0.976231 -2 0.999932 2.99993 192 192 192 255 0.244197 0.219525
-0.733047 0.356813 0.976231 -1 -2.00003 2.99997 192 192 192 255 0.244197 0.219525
-4.26694 1.28541 0.437553 3 1.34459 2.48057 192 192 192 255 0.200852 0.219525
-4.26694 1.25 0.35133 3 -0.688031 -2.72568 192 192 192 255 0.200852 0.219525
-4.26694 3.75 0.35133 3 1.37663 -2.45082 192 192 192 255 0.200852 0.219525
-4.26694 3.7146 0.437553 3 -0.672574 2.74003 192 192 192 255 0.200852 0.219525
-4.35317 1.25 0.35133 -3 -1.37606 -2.45136 192 192 192 255 0.200852 0.219525
-4.35317 1.28541 0.437553 -3 0.672295 2.74028 192 192 192 255 0.200852 0.219525
-4.35317 3.7146 0.437553 -3 -1.34515 2.48006 192 192 192 255 0.200852 0.219525
-4.35317 3.75 0.35133 -3 0.688317 -2.72541 192 192 192 255 0.200852 0.219525
-4.26694 4.64255 1.20057 3 1 2 192 192 192 255 0.240032 0.219525
-4.26694 4.64255 0.976231 1 2 3 192 192 192 255 0.240032 0.219525
-4.26694 4.55414 1.11435 3 -2 0 192 192 192 255 0.198113 0.219525
-4.26694 4.55414 0.976231 2 -1 3 192 192 192 255 0.198113 0.219525
-4.35317 4.55414 1.11435 -3 -1 0 192 192 192 255 0.240032 0.219525
-4.35317 4.64255 1.20057 -3 2 1 192 192 192 255 0.240032 0.219525
-4.35317 4.64255 0.976231 -2 1 3 192 192 192 255 0.240032 0.219525
-4.35317 4.55414 0.976231 -1 -2 3 192 192 192 255 0.240032 0.219525
-4.26694 0.445222 0.976231 2 2 3 192 192 192 255 0.244197 0.219525
-4.26694 0.445222 1.11435 3 -0.376061 -1.45136 192 192 192 255 0.233148 0.219525
-4.26694 0.356813 1.20057 3 -2 1 192 192 192 255 0.200168 0.219525
-4.26694 0.356813 0.976231 1 -1 3 192 192 192 255 0.200168 0.219525
-4.35317 4.64255 0.976231 -2 1 3 192 192 192 255 0.202727 0.220055
-4.26694 4.64255 0.976231 1 2 3 192 192 192 255 0.202727 0.220055
-4.26694 4.55414 0.976231 2 -1 3 192 192 192 255 0.202727 0.220055
-4.35317 4.55414 0.976231 -1 -2 3 192 192 192 255 0.202727 0.220055
-4.35317 0.445222 0.976231 -2 1 3 192 192 192 255 0.200573 0.220055
-4.26694 0.445222 0.976231 2 2 3 192 192 192 255 0.200573 0.220055
-4.26694 0.356813 0.976231 1 -1 3 192 192 192 255 0.200573 0.220055
-4.35317 0.356813 0.976231 -1 -2 3 192 192 192 255 0.200573 0.220055
-4.38101 4.6711 0.976231 -1 2 3 192 192 192 255 0.236948 0.220055
-4.2391 4.6711 0.976231 2 1 3 192 192 192 255 0.236948 0.220055
-4.2391 4.6711 0.976231 2 1 3 192 192 192 255 0.174121 0.220055
-4.2391 4.52559 0.976231 1 -2 3 192 192 192 255 0.174121 0.220055
-4.2391 4.6711 0.917461 1 2 0 192 192 192 255 0.174121 0.220055
-4.2391 4.52559 0.976231 1 -2 3 192 192 192 255 0.148284 0.220055
-4.38101 4.52559 0.976231 -2 -1 3 192 192 192 255 0.148284 0.220055
-4.2391 4.52559 0.752975 2 -1 0 192 192 192 255 0.148284 0.220055
-4.38101 4.52559 0.976231 -2 -1 3 192 192 192 255 0.174121 0.220055
-4.38101 4.6711 0.976231 -1 2 3 192 192 192 255 0.174121 0.220055
-4.38101 4.6711 0.917461 -2 1 0 192 192 192 255 0.174121 0.220055
-4.38101 4.52559 0.752975 -1 -2 0 192 192 192 255 0.174121 0.220055
-4.38101 0.473775 0.976231 -1 2 3 192 192 192 255 0.234795 0.220055
-4.2391 0.473775 0.976231 2 1 3 192 192 192 255 0.234795 0.220055
-4.2391 0.473775 0.976231 2 1 3 192 192 192 255 0.171967 0.220055
-4.2391 0.32826 0.976231 1 -2 3 192 192 192 255 0.171967 0.220055
-4.2391 0.473775 0.752975 1 2 0 192 192 192 255 0.171967 0.220055
-4.2391 0.32826 0.976231 1 -2 3 192 192 192 255 0.146131 0.220055
-4.38101 0.32826 0.976231 -2 -1 3 192 192 192 255 0.146131 0.220055
-4.2391 0.32826 0.917461 2 -1 0 192 192 192 255 0.146131 0.220055
-4.38101 0.32826 0.976231 -2 -1 3 192 192 192 255 0.171967 0.220055
-4.38101 0.473775 0.976231 -1 2 3 192 192 192 255 0.171967 0.220055
-4.38101 0.473775 0.752975 -2 1 0 192 192 192 255 0.171967 0.220055
-4.38101 0.32826 0.917461 -1 -2 0 192 192 192 255 0.171967 0.220055
-4.35317 0.445222 1.11435 -4 1.31197 -0.725682 192 192 192 255 0.238673 0.219525
-4.35317 1.28541 0.437553 -3 0.672295 2.74028 192 192 192 255 0.233148 0.219525
-4.35317 1.25 0.35133 -3 -1.37606 -2.45136 192 192 192 255 0.233148 0.219525
-4.35317 0.445222 1.20057 -2 1.34459 2.48057 192 192 192 255 0.267261 0.219525
-4.26694 0.445222 1.20057 3 0.672295 2.74028 192 192 192 255 0.267261 0.219525
-4.26694 1.28541 0.437553 3 1.34459 2.48057 192 192 192 255 0.267261 0.219525
-4.35317 1.28541 0.437553 -3 0.672295 2.74028 192 192 192 255 0.267261 0.219525
-4.26694 1.25 0.35133 3 -0.688031 -2.72568 192 192 192 255 0.233148 0.219525
-4.26694 1.28541 0.437553 3 1.34459 2.48057 192 192 192 255 0.233148 0.219525
-4.35317 1.25 0.35133 -3 -1.37606 -2.45136 192 192 192 255 0.267261 0.219525
-4.26694 1.25 0.35133 3 -0.688031 -2.72568 192 192 192 255 0.267261 0.219525
-4.26694 0.445222 1.11435 3 -0.376061 -1.45136 192 192 192 255 0.267261 0.219525
-4.35317 0.445222 1.11435 -4 1.31197 -0.725682 192 192 192 255 0.267261 0.219525
-4.35317 3.75 0.35133 -3 0.688317 -2.72541 192 192 192 255 0.233148 0.219525
-4.35317 3.7146 0.437553 -3 -1.34515 2.48006 192 192 192 255 0.233148 0.219525
-4.35317 4.55414 1.11435 -3 1.37663 -1.45082 192 192 192 255 0.267261 0.219525
-4.26694 3.75 0.35133 3 1.37663 -2.45082 192 192 192 255 0.267261 0.219525
-4.35317 3.75 0.35133 -3 0.688317 -2.72541 192 192 192 255 0.267261 0.219525
-4.26694 3.7146 0.437553 3 -0.672574 2.74003 192 192 192 255 0.233148 0.219525
-4.26694 3.75 0.35133 3 1.37663 -2.45082 192 192 192 255 0.233148 0.219525
-4.26694 4.55414 1.11435 3 0.688317 -0.725411 192 192 192 255 0.233148 0.219525
-4.35317 3.7146 0.437553 -3 -1.34515 2.48006 192 192 192 255 0.267261 0.219525
-4.26694 3.7146 0.437553 3 -0.672574 2.74003 192 192 192 255 0.267261 0.219525
-4.26694 4.55414 1.20057 3 -1.34515 2.48006 192 192 192 255 0.267261 0.219525
-4.35317 4.55414 1.20057 -3 -0.672574 2.74003 192 192 192 255 0.267261 0.219525
-4.26694 4.64255 1.20057 3 1 2 192 192 192 255 0.267261 0.219525
-4.35317 4.64255 1.20057 -3 2 1 192 192 192 255 0.267261 0.219525
-4.35317 4.64255 1.20057 -3 2 1 192 192 192 255 0.233148 0.219525
-4.35317 4.55414 1.11435 -3 -1 0 192 192 192 255 0.233148 0.219525
-4.35317 4.55414 1.11435 -3 -1 0 192 192 192 255 0.267261 0.219525
-4.26694 4.55414 1.11435 3 -2 0 192 192 192 255 0.267261 0.219525
-4.26694 4.55414 1.11435 3 -2 0 192 192 192 255 0.233148 0.219525
-4.26694 4.64255 1.20057 3 1 2 192 192 192 255 0.233148 0.219525
-4.35317 0.356813 1.20057 -3 -1 2 192 192 192 255 0.267261 0.219525
-4.26694 0.356813 1.20057 3 -2 1 192 192 192 255 0.267261 0.219525
-4.35317 0.356813 1.20057 -3 -1 2 192 192 192 255 0.233148 0.219525
-4.35317 0.445222 0.976231 -2 1 3 192 192 192 255 0.244197 0.219525
-4.35317 0.356813 0.976231 -1 -2 3 192 192 192 255 0.244197 0.219525
-2.5 1.25 0 5.26528e-008 2.82843 7.82843 192 192 192 255 0.668545 0.592067
-2.05369 2.56227 0 -1 -2 3 192 192 192 255 0.234249 0.065171
-1.11304 2.56227 0 2 -1 3 192 192 192 255 0.234249 0.065171
-1.11304 2.56227 0.161804 1 -2 1 192 192 192 255 0.234249 0.065171
-2.05369 2.56227 0.161804 -2 -1 2 192 192 192 255 0.234249 0.065171
-1.11304 2.56227 0 2 -1 3 192 192 192 255 0.267682 0.065171
-1.11304 3.53662 0 1 2 3 192 192 192 255 0.267682 0.065171
-1.11304 3.53662 0.161804 2 1 2 192 192 192 255 0.267682 0.065171
-1.11304 2.56227 0.161804 1 -2 1 192 192 192 255 0.267682 0.065171
-1.11304 3.53662 0 1 2 3 192 192 192 255 0.299194 0.065171
-2.05369 3.53662 0 -2 1 3 192 192 192 255 0.299194 0.065171
-2.05369 3.53662 0.161804 -1 2 1 192 192 192 255 0.299194 0.065171
-1.11304 3.53662 0.161804 2 1 2 192 192 192 255 0.299194 0.065171
-2.05369 3.53662 0 -2 1 3 192 192 192 255 0.267682 0.065171
-2.05369 2.56227 0 -1 -2 3 192 192 192 255 0.267682 0.065171
-2.05369 2.56227 0.161804 -2 -1 2 192 192 192 255 0.267682 0.065171
-2.05369 3.53662 0.161804 -1 2 1 192 192 192 255 0.267682 0.065171
-5 1.25 0 -3.59439e-008 2.12132 3.12132 192 192 192 255 0.300119 0.063433
-2.85838 0.133202 1.1168 2 1.41421 2.82842 192 192 192 255 0.227952 0.063433
-2.85838 1.1168 0.133202 1 3.53555 0.707123 192 192 192 255 0.227952 0.063433
-2.85838 1.24863 0.265038 2 1.41422 8.16584e-006 192 192 192 255 0.227952 0.063433
-2.85838 0.265035 1.24863 1 -1.57356e-005 2.82841 192 192 192 255 0.227952 0.063433
-2.85838 1.1168 0.133202 1 3.53555 0.707123 192 192 192 255 0.2652 0.063433
-3.95006 1.1168 0.133202 -2 2.82844 1.41422 192 192 192 255 0.2652 0.063433
-3.95006 1.24863 0.265038 -1 2.82844 1.63317e-005 192 192 192 255 0.2652 0.063433
-2.85838 1.24863 0.265038 2 1.41422 8.16584e-006 192 192 192 255 0.2652 0.063433
-3.95006 1.1168 0.133202 -2 2.82844 1.41422 192 192 192 255 0.227952 0.063433
-3.95006 0.133202 1.1168 -1 0.707091 3.53552 192 192 192 255 0.227952 0.063433
-3.95006 0.265035 1.24863 -2 -7.86781e-006 1.41421 192 192 192 255 0.227952 0.063433
-3.95006 1.24863 0.265038 -1 2.82844 1.63317e-005 192 192 192 255 0.227952 0.063433
-3.95006 0.133202 1.1168 -1 0.707091 3.53552 192 192 192 255 0.197604 0.063433
-2.85838 0.133202 1.1168 2 1.41421 2.82842 192 192 192 255 0.197604 0.063433
-2.85838 0.265035 1.24863 1 -1.57356e-005 2.82841 192 192 192 255 0.197604 0.063433
-3.95006 0.265035 1.24863 -2 -7.86781e-006 1.41421 192 192 192 255 0.197604 0.063433
0 1.25 0 0 1.41421 4.41421 192 192 192 255 0.749269 0.592067
-1.25319 2.43331 0 0 0 4 192 192 192 255 0.708804 0.630356
-1.25319 1.72629 0 0 0 5 192 192 192 255 0.708804 0.607479
-1.9006 2.43331 0 0 0 5 192 192 192 255 0.687899 0.630356
-1.9006 1.72629 0 0 0 4 192 192 192 255 0.687899 0.607479
-2.5 3.75 0 0 -2.12132 7.12133 192 192 192 255 0.300119 0.063433
0 3.75 0 1.14235e-007 -2.12132 5.12132 192 192 192 255 0.300119 0.063433
-5 3.75 0 -8.33178e-008 -2.12132 3.12132 192 192 192 255 0.300119 0.063433
-1.49271 4.80046 1.05046 1 -0.707096 3.53553 192 192 192 255 0.236809 0.062803
-2.73469 4.80046 1.05046 0 2.08616e-005 4.24263 192 192 192 255 0.236809 0.062803
-2.73469 4.71207 1.13885 0 0.70712 3.53552 192 192 192 255 0.236809 0.062803
-1.49271 4.71207 1.13885 2 -0.707103 2.12132 192 192 192 255 0.236809 0.062803
-2.73469 3.94954 0.199539 0 -4.24264 5.36442e-006 192 192 192 255 0.236809 0.062803
-1.49271 3.94954 0.199539 2 -2.82842 1.41422 192 192 192 255 0.236809 0.062803
-1.49271 3.86115 0.287933 1 -2.12132 -0.707107 192 192 192 255 0.236809 0.062803
-2.73469 3.86115 0.287933 0 -4.94975 0.707106 192 192 192 255 0.236809 0.062803
-1.49271 3.94954 0.199539 2 -2.82842 1.41422 192 192 192 255 0.205128 0.062803
-1.49271 4.80046 1.05046 1 -0.707096 3.53553 192 192 192 255 0.205128 0.062803
-1.49271 4.71207 1.13885 2 -0.707103 2.12132 192 192 192 255 0.205128 0.062803
-1.49271 3.86115 0.287933 1 -2.12132 -0.707107 192 192 192 255 0.205128 0.062803
-3.97669 4.80046 1.05046 -2 -1.4142 2.82843 192 192 192 255 0.236809 0.062803
-3.97669 4.71207 1.13885 -1 8.70228e-006 2.82842 192 192 192 255 0.236809 0.062803
-3.97669 4.80046 1.05046 -2 -1.4142 2.82843 192 192 192 255 0.205128 0.062803
-3.97669 3.94954 0.199539 -1 -3.53553 0.707108 192 192 192 255 0.205128 0.062803
-3.97669 3.86115 0.287933 -2 -1.41421 -1.19209e-007 192 192 192 255 0.205128 0.062803
-3.97669 4.71207 1.13885 -1 8.70228e-006 2.82842 192 192 192 255 0.205128 0.062803
-3.97669 3.94954 0.199539 -1 -3.53553 0.707108 192 192 192 255 0.236809 0.062803
-3.97669 3.86115 0.287933 -2 -1.41421 -1.19209e-007 192 192 192 255 0.236809 0.062803
3 134 133 135 
3 134 135 136 
3 123 124 125 
3 123 125 126 
3 7 102 103 
3 7 103 1 
3 41 42 47 
3 41 47 44 
3 45 46 43 
3 45 43 40 
3 139 140 141 
3 139 141 142 
3 143 144 145 
3 143 145 146 
3 10 11 17 
3 10 17 16 
3 147 13 18 
3 147 18 148 
3 149 12 19 
3 149 19 150 
3 151 152 153 
3 151 153 154 
3 14 15 21 
3 14 21 20 
3 9 22 155 
3 9 155 156 
3 9 156 53 
3 157 8 23 
3 157 23 158 
3 159 160 25 
3 159 25 24 
3 160 161 26 
3 160 26 25 
3 161 162 27 
3 161 27 26 
3 162 159 24 
3 162 24 27 
3 163 164 29 
3 163 29 28 
3 164 165 30 
3 164 30 29 
3 165 166 31 
3 165 31 30 
3 166 163 28 
3 166 28 31 
3 167 168 33 
3 167 33 32 
3 169 170 34 
3 169 34 171 
3 172 173 35 
3 172 35 174 
3 175 176 177 
3 175 177 178 
3 179 180 37 
3 179 37 36 
3 181 182 38 
3 181 38 183 
3 184 185 39 
3 184 39 186 
3 187 188 189 
3 187 189 190 
3 191 52 192 
3 191 192 193 
3 194 195 196 
3 194 196 197 
3 53 156 198 
3 53 198 199 
3 200 201 202 
3 200 202 203 
3 204 205 49 
3 204 49 50 
3 206 51 207 
3 206 207 208 
3 209 210 211 
3 209 211 48 
3 212 213 214 
3 212 214 215 
3 215 214 216 
3 215 216 217 
3 50 49 218 
3 50 218 219 
3 220 221 51 
3 220 51 206 
3 48 211 222 
3 48 222 223 
3 224 225 195 
3 224 195 194 
3 226 52 191 
3 226 191 227 
3 226 227 228 
3 87 88 93 
3 87 93 90 
3 91 92 89 
3 91 89 86 
3 229 230 231 
3 229 231 232 
3 233 234 235 
3 233 235 236 
3 56 57 63 
3 56 63 62 
3 237 59 64 
3 237 64 238 
3 239 58 65 
3 239 65 240 
3 241 242 243 
3 241 243 244 
3 60 61 67 
3 60 67 66 
3 55 68 245 
3 55 245 246 
3 55 246 99 
3 247 54 69 
3 247 69 248 
3 249 250 71 
3 249 71 70 
3 250 251 72 
3 250 72 71 
3 251 252 73 
3 251 73 72 
3 252 249 70 
3 252 70 73 
3 253 254 75 
3 253 75 74 
3 254 255 76 
3 254 76 75 
3 255 256 77 
3 255 77 76 
3 256 253 74 
3 256 74 77 
3 257 258 79 
3 257 79 78 
3 259 260 80 
3 259 80 261 
3 262 263 81 
3 262 81 264 
3 265 266 267 
3 265 267 268 
3 269 270 83 
3 269 83 82 
3 271 272 84 
3 271 84 273 
3 274 275 85 
3 274 85 276 
3 277 278 279 
3 277 279 280 
3 281 98 282 
3 281 282 283 
3 284 285 286 
3 284 286 287 
3 99 246 288 
3 99 288 289 
3 290 291 292 
3 290 292 293 
3 294 295 95 
3 294 95 96 
3 296 97 297 
3 296 297 298 
3 299 300 301 
3 299 301 94 
3 302 303 304 
3 302 304 305 
3 305 304 306 
3 305 306 307 
3 96 95 308 
3 96 308 309 
3 310 311 97 
3 310 97 296 
3 94 301 312 
3 94 312 313 
3 314 315 285 
3 314 285 284 
3 316 98 281 
3 316 281 317 
3 316 317 318 
3 135 133 137 
3 135 137 138 
3 319 105 106 
3 319 106 6 
3 120 119 121 
3 120 121 122 
3 112 111 113 
3 112 113 114 
3 106 105 101 
3 106 101 4 
3 105 104 107 
3 105 107 108 
3 104 5 109 
3 104 109 107 
3 5 101 110 
3 5 110 109 
3 101 105 108 
3 101 108 110 
3 320 321 322 
3 320 322 323 
3 324 325 326 
3 324 326 327 
3 328 329 330 
3 328 330 331 
3 332 333 334 
3 332 334 335 
3 103 102 115 
3 103 115 116 
3 102 336 117 
3 102 117 115 
3 336 0 118 
3 336 118 117 
3 0 103 116 
3 0 116 118 
3 337 338 339 
3 337 339 340 
3 341 342 343 
3 341 343 344 
3 345 346 347 
3 345 347 348 
3 349 350 351 
3 349 351 352 
3 353 104 354 
3 353 354 355 
3 104 105 356 
3 104 356 354 
3 105 319 357 
3 105 357 356 
3 319 353 355 
3 319 355 357 
3 3 100 127 
3 3 127 128 
3 358 359 130 
3 358 130 129 
3 359 3 128 
3 359 128 130 
3 100 2 131 
3 100 131 127 
3 2 360 132 
3 2 132 131 
3 360 358 129 
3 360 129 132 
3 361 362 363 
3 361 363 364 
3 365 366 367 
3 365 367 368 
3 369 370 371 
3 369 371 372 
3 362 373 374 
3 362 374 363 
3 375 376 377 
3 375 377 378 
3 379 365 368 
3 379 368 380 
