ply
format ascii 1.0
comment VCGLIB generated
comment TextureFile SpaceInteriors_Texture.png
element vertex 124
property float x
property float y
property float z
property float nx
property float ny
property float nz
property uchar red
property uchar green
property uchar blue
property uchar alpha
property float texture_u
property float texture_v
element face 76
property list uchar int vertex_indices
end_header
-0.012291 0.148714 -2.44185 1 0 1 192 192 192 255 0.325339 0.061667
-0.012291 1.0502 -2.44185 2 0 2 192 192 192 255 0.325339 0.061667
-0.128586 1.0502 -2.44185 -1 0 1 192 192 192 255 0.325339 0.061667
-0.128586 0.148714 -2.44185 -2 0 2 192 192 192 255 0.325339 0.061667
-0.012291 0.148714 -2.55816 2 0 -1 192 192 192 255 0.357377 0.061667
-0.012291 1.0502 -2.55816 1 0 -2 192 192 192 255 0.357377 0.061667
-0.128586 1.0502 -2.55816 -2 0 -1 192 192 192 255 0.357377 0.061667
-0.128586 0.148714 -2.55816 -1 0 -2 192 192 192 255 0.357377 0.061667
0 0 0 4 -1 1 192 192 192 255 0.292358 0.061667
0 0 -5 3 -2 -2 192 192 192 255 0.292358 0.061667
0 1.19891 0 3 2 2 192 192 192 255 0.392243 0.061667
0 1.19891 -5 3 1 -1 192 192 192 255 0.392243 0.061667
-0.140877 1.19891 0 -3 1 1 192 192 192 255 0.392243 0.061667
-0.140877 1.19891 -5 -3 2 -2 192 192 192 255 0.392243 0.061667
-0.140877 0 0 -3 -2 2 192 192 192 255 0.292358 0.061667
-0.140877 0 -5 -3 -1 -1 192 192 192 255 0.292358 0.061667
0 0.148714 -0.140892 3 2 -1 192 192 192 255 0.357377 0.061667
0 0.148714 -4.85912 3.00005 3 1 192 192 192 255 0.357377 0.061667
0 1.0502 -4.85912 3.0001 -2 2 192 192 192 255 0.357377 0.061667
0 1.0502 -0.140892 3 -1 -2 192 192 192 255 0.357377 0.061667
-0.140877 1.0502 -0.140892 -3 -2 -1 192 192 192 255 0.357377 0.061667
-0.140877 1.0502 -4.85912 -2.99995 -1 1 192 192 192 255 0.357377 0.061667
-0.140877 0.148714 -4.85912 -2.9999 1 2 192 192 192 255 0.357377 0.061667
-0.140877 0.148714 -0.140892 -3 2 -2 192 192 192 255 0.357377 0.061667
0 0.148714 -2.50001 2 1 0 192 192 192 255 0.357377 0.061667
-2.5516 0.148714 -0.01886 -1 0 1 192 192 192 255 0.325339 0.061667
-2.5516 1.0502 -0.01886 -2 0 2 192 192 192 255 0.325339 0.061667
-2.5516 1.0502 -0.12204 -1 0 -1 192 192 192 255 0.325339 0.061667
-2.5516 0.148714 -0.12204 -2 0 -2 192 192 192 255 0.325339 0.061667
-2.4484 0.148714 -0.01886 1 0 2 192 192 192 255 0.357377 0.061667
-2.4484 1.0502 -0.01886 2 0 1 192 192 192 255 0.357377 0.061667
-2.4484 1.0502 -0.12204 1 0 -2 192 192 192 255 0.357377 0.061667
-2.4484 0.148714 -0.12204 2 0 -1 192 192 192 255 0.357377 0.061667
-5.00001 0 -1.5e-005 -1 -1.00012 4 192 192 192 255 0.292358 0.061667
-0.140877 0 -1.5e-005 0 -2.00005 1 192 192 192 255 0.292358 0.061667
-5.00001 1.19891 -1.5e-005 -2 2.00002 3 192 192 192 255 0.392243 0.061667
-0.140877 1.19891 -1.5e-005 -1.46178e-006 1.00005 2 192 192 192 255 0.392243 0.061667
-5.00001 1.19891 -0.140884 -1 1.00005 -3 192 192 192 255 0.392243 0.061667
-0.140877 1.19891 -0.140884 -8.35504e-007 2.00003 -1 192 192 192 255 0.392243 0.061667
-5.00001 0 -0.140884 -2 -2.00003 -3 192 192 192 255 0.292358 0.061667
-0.140877 0 -0.140884 -1.67101e-006 -1.00005 -2 192 192 192 255 0.292358 0.061667
-4.85911 0.148714 -1.5e-005 0.999999 1.99997 3 192 192 192 255 0.357377 0.061667
-0.140884 0.148714 -8e-006 -7.70634e-007 2.99992 2 192 192 192 255 0.357377 0.061667
-0.140884 1.0502 -8e-006 -7.30891e-007 -1.99998 1 192 192 192 255 0.357377 0.061667
-4.85911 1.0502 -1.5e-005 2 -0.999954 3 192 192 192 255 0.357377 0.061667
-4.85911 1.0502 -0.140884 0.999999 -1.99997 -3 192 192 192 255 0.357377 0.061667
-0.140884 1.0502 -0.140892 -1.67101e-006 -0.999947 -2 192 192 192 255 0.357377 0.061667
-0.140884 0.148714 -0.140892 -8.35504e-007 0.999973 -1 192 192 192 255 0.357377 0.061667
-4.85911 0.148714 -0.140884 2 1.99995 -3 192 192 192 255 0.357377 0.061667
-2.5 0.148714 -8e-006 -1.54127e-006 0.999932 2 192 192 192 255 0.357377 0.061667
-0.012291 1.0502 -2.44185 2 0 2 192 192 192 255 0.357377 0.061667
-0.012291 0.148714 -2.44185 1 0 1 192 192 192 255 0.357377 0.061667
-0.128586 0.148714 -2.44185 -2 0 2 192 192 192 255 0.357377 0.061667
-0.128586 1.0502 -2.44185 -1 0 1 192 192 192 255 0.357377 0.061667
-0.012291 1.0502 -2.55816 1 0 -2 192 192 192 255 0.32255 0.061667
-0.012291 0.148714 -2.55816 2 0 -1 192 192 192 255 0.32255 0.061667
-0.128586 0.148714 -2.55816 -1 0 -2 192 192 192 255 0.32255 0.061667
-0.128586 1.0502 -2.55816 -2 0 -1 192 192 192 255 0.32255 0.061667
0 0 -5 3 -2 -2 192 192 192 255 0.326363 0.061667
-0.140877 0 -5 -3 -1 -1 192 192 192 255 0.326363 0.061667
-0.140877 1.19891 -5 -3 2 -2 192 192 192 255 0.326363 0.061667
0 1.19891 -5 3 1 -1 192 192 192 255 0.326363 0.061667
-0.140877 0 0 -3 -2 2 192 192 192 255 0.356247 0.05771
0 0 0 4 -1 1 192 192 192 255 0.356247 0.05771
0 1.19891 0 3 2 2 192 192 192 255 0.356247 0.05771
-0.140877 1.19891 0 -3 1 1 192 192 192 255 0.356247 0.05771
0 0 0 4 -1 1 192 192 192 255 0.357377 0.061667
0 0 -5 3 -2 -2 192 192 192 255 0.357377 0.061667
0 1.19891 -5 3 1 -1 192 192 192 255 0.357377 0.061667
0 1.19891 0 3 2 2 192 192 192 255 0.357377 0.061667
-0.140877 1.19891 0 -3 1 1 192 192 192 255 0.357377 0.061667
-0.140877 1.19891 -5 -3 2 -2 192 192 192 255 0.357377 0.061667
-0.140877 0 -5 -3 -1 -1 192 192 192 255 0.357377 0.061667
-0.140877 0 0 -3 -2 2 192 192 192 255 0.357377 0.061667
-0.140877 0 0 -3 -2 2 192 192 192 255 0.325348 0.061667
-0.140877 1.19891 0 -3 1 1 192 192 192 255 0.325348 0.061667
-0.140877 1.0502 -0.140892 -3 -2 -1 192 192 192 255 0.325348 0.061667
-0.140877 0.148714 -0.140892 -3 2 -2 192 192 192 255 0.325348 0.061667
0 1.0502 -4.85912 3.0001 -2 2 192 192 192 255 0.296835 0.061667
0 1.0502 -0.140892 3 -1 -2 192 192 192 255 0.296835 0.061667
-0.140877 1.0502 -0.140892 -3 -2 -1 192 192 192 255 0.296835 0.061667
-0.140877 1.0502 -4.85912 -2.99995 -1 1 192 192 192 255 0.296835 0.061667
0 1.0502 -0.140892 3 -1 -2 192 192 192 255 0.32255 0.061667
0 0.148714 -0.140892 3 2 -1 192 192 192 255 0.32255 0.061667
-0.140877 0.148714 -0.140892 -3 2 -2 192 192 192 255 0.32255 0.061667
-0.140877 1.0502 -0.140892 -3 -2 -1 192 192 192 255 0.32255 0.061667
0 1.0502 -4.85912 3.0001 -2 2 192 192 192 255 0.32255 0.061667
-0.140877 1.0502 -4.85912 -2.99995 -1 1 192 192 192 255 0.32255 0.061667
-0.140877 0.148714 -4.85912 -2.9999 1 2 192 192 192 255 0.32255 0.061667
0 0.148714 -4.85912 3.00005 3 1 192 192 192 255 0.32255 0.061667
0 0.148714 -4.85912 3.00005 3 1 192 192 192 255 0.388108 0.061667
-0.140877 0.148714 -4.85912 -2.9999 1 2 192 192 192 255 0.388108 0.061667
-0.140877 0.148714 -0.140892 -3 2 -2 192 192 192 255 0.388108 0.061667
0 0.148714 -0.140892 3 2 -1 192 192 192 255 0.388108 0.061667
0 0.148714 -2.50001 2 1 0 192 192 192 255 0.388108 0.061667
-2.5516 1.0502 -0.01886 -2 0 2 192 192 192 255 0.357377 0.061667
-2.5516 0.148714 -0.01886 -1 0 1 192 192 192 255 0.357377 0.061667
-2.5516 0.148714 -0.12204 -2 0 -2 192 192 192 255 0.357377 0.061667
-2.5516 1.0502 -0.12204 -1 0 -1 192 192 192 255 0.357377 0.061667
-2.4484 1.0502 -0.01886 2 0 1 192 192 192 255 0.32255 0.061667
-2.4484 0.148714 -0.01886 1 0 2 192 192 192 255 0.32255 0.061667
-2.4484 0.148714 -0.12204 2 0 -1 192 192 192 255 0.32255 0.061667
-2.4484 1.0502 -0.12204 1 0 -2 192 192 192 255 0.32255 0.061667
-5.00001 0 -0.140884 -2 -2.00003 -3 192 192 192 255 0.326363 0.061667
-5.00001 0 -1.5e-005 -1 -1.00012 4 192 192 192 255 0.326363 0.061667
-5.00001 1.19891 -1.5e-005 -2 2.00002 3 192 192 192 255 0.326363 0.061667
-5.00001 1.19891 -0.140884 -1 1.00005 -3 192 192 192 255 0.326363 0.061667
-5.00001 0 -1.5e-005 -1 -1.00012 4 192 192 192 255 0.357377 0.061667
-0.140877 0 -1.5e-005 0 -2.00005 1 192 192 192 255 0.357377 0.061667
-0.140877 1.19891 -1.5e-005 -1.46178e-006 1.00005 2 192 192 192 255 0.357377 0.061667
-5.00001 1.19891 -1.5e-005 -2 2.00002 3 192 192 192 255 0.357377 0.061667
-5.00001 1.19891 -0.140884 -1 1.00005 -3 192 192 192 255 0.357377 0.061667
-0.140877 1.19891 -0.140884 -8.35504e-007 2.00003 -1 192 192 192 255 0.357377 0.061667
-0.140877 0 -0.140884 -1.67101e-006 -1.00005 -2 192 192 192 255 0.357377 0.061667
-5.00001 0 -0.140884 -2 -2.00003 -3 192 192 192 255 0.357377 0.061667
-4.85911 1.0502 -1.5e-005 2 -0.999954 3 192 192 192 255 0.32255 0.061667
-4.85911 0.148714 -1.5e-005 0.999999 1.99997 3 192 192 192 255 0.32255 0.061667
-4.85911 0.148714 -0.140884 2 1.99995 -3 192 192 192 255 0.32255 0.061667
-4.85911 1.0502 -0.140884 0.999999 -1.99997 -3 192 192 192 255 0.32255 0.061667
-0.140884 0.148714 -8e-006 -7.70634e-007 2.99992 2 192 192 192 255 0.388108 0.061667
-0.140884 0.148714 -0.140892 -8.35504e-007 0.999973 -1 192 192 192 255 0.388108 0.061667
-4.85911 0.148714 -0.140884 2 1.99995 -3 192 192 192 255 0.388108 0.061667
-4.85911 0.148714 -1.5e-005 0.999999 1.99997 3 192 192 192 255 0.388108 0.061667
-2.5 0.148714 -8e-006 -1.54127e-006 0.999932 2 192 192 192 255 0.388108 0.061667
3 3 0 1 
3 3 1 2 
3 50 51 4 
3 50 4 5 
3 52 53 6 
3 52 6 7 
3 54 55 56 
3 54 56 57 
3 10 11 13 
3 10 13 12 
3 14 15 9 
3 14 9 8 
3 58 59 60 
3 58 60 61 
3 62 63 64 
3 62 64 65 
3 66 67 17 
3 66 17 24 
3 66 24 16 
3 67 68 18 
3 67 18 17 
3 68 69 19 
3 68 19 18 
3 69 66 16 
3 69 16 19 
3 70 71 21 
3 70 21 20 
3 71 72 22 
3 71 22 21 
3 72 73 23 
3 72 23 22 
3 74 75 76 
3 74 76 77 
3 78 79 80 
3 78 80 81 
3 82 83 84 
3 82 84 85 
3 86 87 88 
3 86 88 89 
3 90 91 92 
3 90 92 93 
3 90 93 94 
3 28 25 26 
3 28 26 27 
3 95 96 29 
3 95 29 30 
3 97 98 31 
3 97 31 32 
3 99 100 101 
3 99 101 102 
3 35 36 38 
3 35 38 37 
3 39 40 34 
3 39 34 33 
3 103 104 105 
3 103 105 106 
3 107 108 42 
3 107 42 49 
3 107 49 41 
3 109 110 44 
3 109 44 43 
3 110 107 41 
3 110 41 44 
3 111 112 46 
3 111 46 45 
3 113 114 48 
3 113 48 47 
3 114 111 45 
3 114 45 48 
3 43 44 45 
3 43 45 46 
3 115 116 117 
3 115 117 118 
3 119 120 121 
3 119 121 122 
3 119 122 123 
