ply
format ascii 1.0
comment VCGLIB generated
comment TextureFile SpaceInteriors_Texture.png
element vertex 164
property float x
property float y
property float z
property float nx
property float ny
property float nz
property uchar red
property uchar green
property uchar blue
property uchar alpha
property float texture_u
property float texture_v
element face 116
property list uchar int vertex_indices
end_header
5.5 -0.120786 5 2 -1 1 192 192 192 255 0.139815 0.266803
5.5 -0.120786 -0.5 1.99743 -1 -2 192 192 192 255 0.933887 0.369569
5.5 0.120786 5 1 2 2 192 192 192 255 0.139815 0.266803
5.5 0.120786 -0.5 0.998716 2 -0.999999 192 192 192 255 0.139815 0.266803
4.5 0.120786 5 -2 1 1 192 192 192 255 0.228524 0.266803
4.50154 0.120786 -0.498718 -0.00128695 2 -4 192 192 192 255 0.228524 0.266803
4.5 -0.120786 5 -1 -2 2 192 192 192 255 0.139815 0.266803
4.50154 -0.120786 -0.498718 -0.000643475 -4 -2 192 192 192 255 0.997951 0.369569
5.5 -0.120786 2.5 3 -4 0 192 192 192 255 0.139815 0.266803
5.5 0.120786 2.5 3 2 0 192 192 192 255 0.139815 0.266803
4.5 0.120786 2.5 -2 4 -0.000771063 192 192 192 255 0.228524 0.266803
4.5 -0.120786 2.5 -4 -2 -0.00154213 192 192 192 255 0.139815 0.266803
4.50154 -0.120786 0.501282 -1.00064 -4 0.999229 192 192 192 255 0.139815 0.266803
5.5 -0.120786 0.5 2 -3 0 192 192 192 255 0.139815 0.266803
5.5 0.120786 0.5 4 3 0 192 192 192 255 0.139815 0.266803
4.50154 0.120786 0.501282 -2.00128 5 1.99846 192 192 192 255 0.228524 0.266803
0 -0.120786 0.5 -1 -1 2 192 192 192 255 0.112643 0.264406
0 0.120786 0.5 -2 2 1 192 192 192 255 0.112643 0.264406
0 0.120786 -0.5 -1 1 -2 192 192 192 255 0.228524 0.266803
0 -0.120786 -0.5 -2 -2 -1 192 192 192 255 0.112643 0.264406
2.5 -0.120786 0.5 -0.00128099 -4 3 192 192 192 255 0.112643 0.264406
2.5 0.120786 0.5 -0.000640495 2 3 192 192 192 255 0.112643 0.264406
2.5 0.120786 -0.5 0.00064051 4 -2 192 192 192 255 0.228524 0.266803
2.5 -0.120786 -0.5 0.00128102 -2 -4 192 192 192 255 0.112643 0.264406
4.62246 0.120786 4.94339 2 -1 1 192 192 192 255 0.236436 0.263411
4.62246 0.120786 4.86271 1 -2 -2 192 192 192 255 0.236436 0.263411
4.62246 1.98132 4.94339 1 2 2 192 192 192 255 0.236436 0.263411
4.62246 1.98132 4.86271 2 1 -1 192 192 192 255 0.236436 0.263411
4.54178 1.98132 4.94339 -2 1 1 192 192 192 255 0.236436 0.263412
4.54178 1.98132 4.86271 -1 2 -2 192 192 192 255 0.236436 0.263412
4.54178 0.120786 4.94339 -1 -2 2 192 192 192 255 0.236436 0.263411
4.54178 0.120786 4.86271 -2 -1 -1 192 192 192 255 0.236436 0.263411
5.45888 0.120786 4.94339 2 -1 1 192 192 192 255 0.236436 0.263411
5.45888 0.120786 4.86271 1 -2 -2 192 192 192 255 0.236436 0.263411
5.45888 1.98132 4.94339 1 2 2 192 192 192 255 0.236436 0.263411
5.45888 1.98132 4.86271 2 1 -1 192 192 192 255 0.236436 0.263411
5.3782 1.98132 4.94339 -2 1 1 192 192 192 255 0.236436 0.263412
5.3782 1.98132 4.86271 -1 2 -2 192 192 192 255 0.236436 0.263412
5.3782 0.120786 4.94339 -1 -2 2 192 192 192 255 0.236436 0.263411
5.3782 0.120786 4.86271 -2 -1 -1 192 192 192 255 0.236436 0.263411
0.05661 0.120786 -0.377533 -1 -1 2 192 192 192 255 0.196478 0.265809
0.137291 0.120786 -0.377533 2 -2 1 192 192 192 255 0.196477 0.265809
0.05661 1.98132 -0.377533 -2 2 1 192 192 192 255 0.196478 0.265809
0.137291 1.98132 -0.377533 1 1 2 192 192 192 255 0.196477 0.265809
0.05661 1.98132 -0.458221 -1 1 -2 192 192 192 255 0.236436 0.263412
0.137291 1.98132 -0.458221 2 2 -1 192 192 192 255 0.236436 0.263412
0.05661 0.120786 -0.458221 -2 -2 -1 192 192 192 255 0.196478 0.265809
0.137291 0.120786 -0.458221 1 -1 -2 192 192 192 255 0.196477 0.265809
0.05661 0.120786 0.458878 -1 -1 2 192 192 192 255 0.196478 0.265809
0.137291 0.120786 0.458878 2 -2 1 192 192 192 255 0.196477 0.265809
0.05661 1.98132 0.458878 -2 2 1 192 192 192 255 0.196478 0.265809
0.137291 1.98132 0.458878 1 1 2 192 192 192 255 0.196477 0.265809
0.05661 1.98132 0.378197 -1 1 -2 192 192 192 255 0.236436 0.263412
0.137291 1.98132 0.378197 2 2 -1 192 192 192 255 0.236436 0.263412
0.05661 0.120786 0.378197 -2 -2 -1 192 192 192 255 0.196478 0.265809
0.137291 0.120786 0.378197 1 -1 -2 192 192 192 255 0.196477 0.265809
5.31448 0.120786 -0.31485 -1 -1 2 192 192 192 255 0.236436 0.263411
5.39516 0.120786 -0.31485 2 -2 1 192 192 192 255 0.236436 0.263411
5.31448 1.98132 -0.31485 -2 2 1 192 192 192 255 0.236436 0.263411
5.39516 1.98132 -0.31485 1 1 2 192 192 192 255 0.236436 0.263411
5.31448 1.98132 -0.395538 -1 1 -2 192 192 192 255 0.236436 0.263412
5.39516 1.98132 -0.395538 2 2 -1 192 192 192 255 0.236436 0.263412
5.31448 0.120786 -0.395538 -2 -2 -1 192 192 192 255 0.196478 0.265809
5.39516 0.120786 -0.395538 1 -1 -2 192 192 192 255 0.196477 0.265809
4.55579 0.120786 0.438301 -1 -1 2 192 192 192 255 0.196478 0.265809
4.63648 0.120786 0.438301 2 -2 1 192 192 192 255 0.196477 0.265809
4.55579 1.98132 0.438301 -2 2 1 192 192 192 255 0.196478 0.265809
4.63648 1.98132 0.438301 1 1 2 192 192 192 255 0.196477 0.265809
4.55579 1.98132 0.35762 -1 1 -2 192 192 192 255 0.236436 0.263412
4.63648 1.98132 0.35762 2 2 -1 192 192 192 255 0.236436 0.263412
4.55579 0.120786 0.35762 -2 -2 -1 192 192 192 255 0.196478 0.265809
4.63648 0.120786 0.35762 1 -1 -2 192 192 192 255 0.196477 0.265809
5.5 0.120786 5 1 2 2 192 192 192 255 0.228524 0.266803
5.5 0.120786 2.5 3 2 0 192 192 192 255 0.228524 0.266803
4.5 0.120786 5 -2 1 1 192 192 192 255 0.139815 0.266803
4.5 0.120786 2.5 -2 4 -0.000771063 192 192 192 255 0.139815 0.266803
4.5 -0.120786 5 -1 -2 2 192 192 192 255 0.997951 0.36957
4.5 -0.120786 2.5 -4 -2 -0.00154213 192 192 192 255 0.997951 0.169445
5.5 -0.120786 2.5 3 -4 0 192 192 192 255 0.933887 0.169445
5.5 -0.120786 5 2 -1 1 192 192 192 255 0.933887 0.369569
4.5 -0.120786 5 -1 -2 2 192 192 192 255 0.112643 0.264406
5.5 -0.120786 5 2 -1 1 192 192 192 255 0.112643 0.264406
5.5 0.120786 5 1 2 2 192 192 192 255 0.112643 0.264406
4.5 0.120786 5 -2 1 1 192 192 192 255 0.112643 0.264406
5.5 0.120786 0.5 4 3 0 192 192 192 255 0.228524 0.266803
4.50154 0.120786 0.501282 -2.00128 5 1.99846 192 192 192 255 0.139815 0.266803
4.50154 -0.120786 0.501282 -1.00064 -4 0.999229 192 192 192 255 0.997951 0.302934
5.5 -0.120786 0.5 2 -3 0 192 192 192 255 0.933887 0.302934
5.5 -0.120786 -0.5 1.99743 -1 -2 192 192 192 255 0.139815 0.266803
5.5 0.120786 -0.5 0.998716 2 -0.999999 192 192 192 255 0.228524 0.266803
0 0.120786 0.5 -2 2 1 192 192 192 255 0.228524 0.266803
2.5 0.120786 0.5 -0.000640495 2 3 192 192 192 255 0.228524 0.266803
0 0.120786 -0.5 -1 1 -2 192 192 192 255 0.112643 0.264406
2.5 0.120786 -0.5 0.00064051 4 -2 192 192 192 255 0.112643 0.264406
0 -0.120786 -0.5 -2 -2 -1 192 192 192 255 0.997951 0.36957
2.5 -0.120786 -0.5 0.00128102 -2 -4 192 192 192 255 0.997951 0.169445
2.5 -0.120786 0.5 -0.00128099 -4 3 192 192 192 255 0.933887 0.169445
0 -0.120786 0.5 -1 -1 2 192 192 192 255 0.933887 0.369569
0 -0.120786 -0.5 -2 -2 -1 192 192 192 255 0.139815 0.266803
0 -0.120786 0.5 -1 -1 2 192 192 192 255 0.139815 0.266803
0 0.120786 0.5 -2 2 1 192 192 192 255 0.139815 0.266803
0 0.120786 -0.5 -1 1 -2 192 192 192 255 0.139815 0.266803
4.50154 -0.120786 0.501282 -1.00064 -4 0.999229 192 192 192 255 0.112643 0.264406
4.50154 0.120786 0.501282 -2.00128 5 1.99846 192 192 192 255 0.112643 0.264406
4.50154 0.120786 -0.498718 -0.00128695 2 -4 192 192 192 255 0.112643 0.264406
4.50154 -0.120786 -0.498718 -0.000643475 -4 -2 192 192 192 255 0.112643 0.264406
4.50154 -0.120786 -0.498718 -0.000643475 -4 -2 192 192 192 255 0.997951 0.30499
4.50154 -0.120786 0.501282 -1.00064 -4 0.999229 192 192 192 255 0.933887 0.30499
4.50154 0.120786 -0.498718 -0.00128695 2 -4 192 192 192 255 0.11413 0.266005
5.5 0.120786 -0.5 0.998716 2 -0.999999 192 192 192 255 0.11413 0.266005
5.5 -0.120786 -0.5 1.99743 -1 -2 192 192 192 255 0.11413 0.266005
4.50154 -0.120786 -0.498718 -0.000643475 -4 -2 192 192 192 255 0.11413 0.266005
4.62246 0.120786 4.86271 1 -2 -2 192 192 192 255 0.196477 0.265809
4.54178 0.120786 4.86271 -2 -1 -1 192 192 192 255 0.196477 0.265809
4.54178 1.98132 4.86271 -1 2 -2 192 192 192 255 0.196477 0.265809
4.62246 1.98132 4.86271 2 1 -1 192 192 192 255 0.196477 0.265809
4.54178 0.120786 4.94339 -1 -2 2 192 192 192 255 0.196477 0.265809
4.62246 0.120786 4.94339 2 -1 1 192 192 192 255 0.196478 0.265809
4.62246 1.98132 4.94339 1 2 2 192 192 192 255 0.196478 0.265809
4.54178 1.98132 4.94339 -2 1 1 192 192 192 255 0.196477 0.265809
5.45888 0.120786 4.86271 1 -2 -2 192 192 192 255 0.196477 0.265809
5.3782 0.120786 4.86271 -2 -1 -1 192 192 192 255 0.196477 0.265809
5.3782 1.98132 4.86271 -1 2 -2 192 192 192 255 0.196477 0.265809
5.45888 1.98132 4.86271 2 1 -1 192 192 192 255 0.196477 0.265809
5.3782 0.120786 4.94339 -1 -2 2 192 192 192 255 0.196477 0.265809
5.45888 0.120786 4.94339 2 -1 1 192 192 192 255 0.196478 0.265809
5.45888 1.98132 4.94339 1 2 2 192 192 192 255 0.196478 0.265809
5.3782 1.98132 4.94339 -2 1 1 192 192 192 255 0.196477 0.265809
0.05661 1.98132 -0.377533 -2 2 1 192 192 192 255 0.236436 0.263411
0.137291 1.98132 -0.377533 1 1 2 192 192 192 255 0.236436 0.263411
0.05661 1.98132 -0.458221 -1 1 -2 192 192 192 255 0.196478 0.265809
0.137291 1.98132 -0.458221 2 2 -1 192 192 192 255 0.196477 0.265809
0.05661 0.120786 -0.458221 -2 -2 -1 192 192 192 255 0.236436 0.263411
0.137291 0.120786 -0.458221 1 -1 -2 192 192 192 255 0.236436 0.263411
0.137291 0.120786 -0.377533 2 -2 1 192 192 192 255 0.236436 0.263411
0.05661 0.120786 -0.377533 -1 -1 2 192 192 192 255 0.236436 0.263411
0.137291 1.98132 -0.458221 2 2 -1 192 192 192 255 0.236436 0.263411
0.05661 1.98132 -0.458221 -1 1 -2 192 192 192 255 0.236436 0.263411
0.05661 1.98132 0.458878 -2 2 1 192 192 192 255 0.236436 0.263411
0.137291 1.98132 0.458878 1 1 2 192 192 192 255 0.236436 0.263411
0.05661 1.98132 0.378197 -1 1 -2 192 192 192 255 0.196478 0.265809
0.137291 1.98132 0.378197 2 2 -1 192 192 192 255 0.196477 0.265809
0.05661 0.120786 0.378197 -2 -2 -1 192 192 192 255 0.236436 0.263411
0.137291 0.120786 0.378197 1 -1 -2 192 192 192 255 0.236436 0.263411
0.137291 0.120786 0.458878 2 -2 1 192 192 192 255 0.236436 0.263411
0.05661 0.120786 0.458878 -1 -1 2 192 192 192 255 0.236436 0.263411
0.137291 1.98132 0.378197 2 2 -1 192 192 192 255 0.236436 0.263411
0.05661 1.98132 0.378197 -1 1 -2 192 192 192 255 0.236436 0.263411
5.31448 1.98132 -0.395538 -1 1 -2 192 192 192 255 0.196478 0.265809
5.39516 1.98132 -0.395538 2 2 -1 192 192 192 255 0.196477 0.265809
5.31448 0.120786 -0.395538 -2 -2 -1 192 192 192 255 0.236436 0.263411
5.39516 0.120786 -0.395538 1 -1 -2 192 192 192 255 0.236436 0.263411
5.39516 1.98132 -0.395538 2 2 -1 192 192 192 255 0.236436 0.263411
5.31448 1.98132 -0.395538 -1 1 -2 192 192 192 255 0.236436 0.263411
4.55579 1.98132 0.438301 -2 2 1 192 192 192 255 0.236436 0.263411
4.63648 1.98132 0.438301 1 1 2 192 192 192 255 0.236436 0.263411
4.55579 1.98132 0.35762 -1 1 -2 192 192 192 255 0.196478 0.265809
4.63648 1.98132 0.35762 2 2 -1 192 192 192 255 0.196477 0.265809
4.55579 0.120786 0.35762 -2 -2 -1 192 192 192 255 0.236436 0.263411
4.63648 0.120786 0.35762 1 -1 -2 192 192 192 255 0.236436 0.263411
4.63648 0.120786 0.438301 2 -2 1 192 192 192 255 0.236436 0.263411
4.55579 0.120786 0.438301 -1 -1 2 192 192 192 255 0.236436 0.263411
4.63648 1.98132 0.35762 2 2 -1 192 192 192 255 0.236436 0.263411
4.55579 1.98132 0.35762 -1 1 -2 192 192 192 255 0.236436 0.263411
3 0 8 9 
3 0 9 2 
3 72 73 10 
3 72 10 4 
3 74 75 11 
3 74 11 6 
3 76 77 78 
3 76 78 79 
3 80 81 82 
3 80 82 83 
3 8 13 14 
3 8 14 9 
3 10 73 84 
3 10 84 15 
3 11 75 85 
3 11 85 12 
3 78 77 86 
3 78 86 87 
3 87 86 7 
3 87 7 1 
3 14 13 88 
3 14 88 3 
3 15 84 89 
3 15 89 5 
3 16 20 21 
3 16 21 17 
3 90 91 22 
3 90 22 18 
3 92 93 23 
3 92 23 19 
3 94 95 96 
3 94 96 97 
3 98 99 100 
3 98 100 101 
3 20 102 103 
3 20 103 21 
3 22 91 15 
3 22 15 5 
3 23 93 104 
3 23 104 105 
3 96 95 106 
3 96 106 107 
3 108 109 110 
3 108 110 111 
3 24 25 27 
3 24 27 26 
3 26 27 29 
3 26 29 28 
3 28 29 31 
3 28 31 30 
3 30 31 25 
3 30 25 24 
3 112 113 114 
3 112 114 115 
3 116 117 118 
3 116 118 119 
3 32 33 35 
3 32 35 34 
3 34 35 37 
3 34 37 36 
3 36 37 39 
3 36 39 38 
3 38 39 33 
3 38 33 32 
3 120 121 122 
3 120 122 123 
3 124 125 126 
3 124 126 127 
3 40 41 43 
3 40 43 42 
3 128 129 45 
3 128 45 44 
3 130 131 47 
3 130 47 46 
3 132 133 134 
3 132 134 135 
3 134 133 136 
3 134 136 129 
3 132 135 128 
3 132 128 137 
3 48 49 51 
3 48 51 50 
3 138 139 53 
3 138 53 52 
3 140 141 55 
3 140 55 54 
3 142 143 144 
3 142 144 145 
3 144 143 146 
3 144 146 139 
3 142 145 138 
3 142 138 147 
3 56 57 59 
3 56 59 58 
3 58 59 61 
3 58 61 60 
3 148 149 63 
3 148 63 62 
3 150 151 57 
3 150 57 56 
3 57 151 152 
3 57 152 59 
3 150 56 58 
3 150 58 153 
3 64 65 67 
3 64 67 66 
3 154 155 69 
3 154 69 68 
3 156 157 71 
3 156 71 70 
3 158 159 160 
3 158 160 161 
3 160 159 162 
3 160 162 155 
3 158 161 154 
3 158 154 163 
