ply
format ascii 1.0
comment VCGLIB generated
comment TextureFile SpaceInteriors_Texture.png
element vertex 168
property float x
property float y
property float z
property float nx
property float ny
property float nz
property uchar red
property uchar green
property uchar blue
property uchar alpha
property float texture_u
property float texture_v
element face 104
property list uchar int vertex_indices
end_header
-2 0 1.99151 2.1182 -1.00001 3.12443 192 192 192 255 0.200168 0.061667
-1e-006 -0 2e-006 4.11977 -2 2.12288 192 192 192 255 0.200168 0.061667
-2 1 1.99151 2.11975 2 4.12288 192 192 192 255 0.300052 0.061667
-1e-006 1 2e-006 3.11821 1.00001 2.12443 192 192 192 255 0.300052 0.061667
-2.37073 1 1.99151 -1.79256 2.52277 -0.39889 192 192 192 255 0.300052 0.061667
1e-006 1 -0.370729 0.607471 2.76138 -2.22708 192 192 192 255 0.300052 0.061667
-2.37073 0 1.99151 -2.21125 -2.76139 0.578855 192 192 192 255 0.200168 0.061667
1e-006 -0 -0.370729 -0.383195 -2.52278 -1.80185 192 192 192 255 0.200168 0.061667
-1.93643 0.089902 1.92794 2.82732 2 1.41623 192 192 192 255 0.265187 0.061667
-0.063571 0.089901 0.063572 0.704001 0.999991 3.53864 192 192 192 255 0.265187 0.061667
-0.063571 0.910098 0.063572 1.41267 -2 2.82999 192 192 192 255 0.265187 0.061667
-1.93643 0.910099 1.92794 3.53334 -0.999992 0.711142 192 192 192 255 0.265187 0.061667
-2.19425 0.910098 1.66996 -1.50414 -1.23862 -2.12825 192 192 192 255 0.265187 0.061667
-0.325717 0.910098 -0.198574 -2.79742 0.522769 -0.387647 192 192 192 255 0.265187 0.061667
-0.325717 0.089901 -0.198574 -2.09963 1.23861 -1.51998 192 192 192 255 0.265187 0.061667
-2.19425 0.089901 1.66996 -0.378335 -0.522776 -2.81309 192 192 192 255 0.265187 0.061667
-2.06106 0.089901 1.80315 3.53645 0.999978 0.708037 192 192 192 255 0.299122 0.061667
-0.19253 0.089901 -0.065386 1.41424 1.99999 2.8284 192 192 192 255 0.299122 0.061667
-0.19253 0.910098 -0.065386 0.707128 -0.999977 3.53553 192 192 192 255 0.233038 0.061667
-2.06106 0.910098 1.80315 2.82888 -1.99999 1.4147 192 192 192 255 0.265187 0.061667
-2.09637 0.910098 1.76784 -0.7071 -0.999993 -3.53553 192 192 192 255 0.265187 0.061667
-0.227837 0.910098 -0.100694 -2.82841 -2 -1.41423 192 192 192 255 0.265187 0.061667
-0.227837 0.089901 -0.100694 -3.53553 0.999993 -0.707114 192 192 192 255 0.233038 0.061667
-2.09637 0.089901 1.76784 -1.41421 2 -2.82842 192 192 192 255 0.299122 0.061667
-2.01108 0.192121 1.75316 2.82839 0.999989 1.41421 192 192 192 255 0.20176 0.061667
-0.242512 0.192121 -0.015402 1.41423 1.99998 2.82841 192 192 192 255 0.20176 0.061667
-0.242512 0.807879 -0.015402 0.707135 -1.99999 3.53551 192 192 192 255 0.20176 0.061667
-2.01108 0.807879 1.75316 3.53549 -0.999977 0.707079 192 192 192 255 0.20176 0.061667
-2.04639 0.807879 1.71786 -1.41423 -2 -2.82844 192 192 192 255 0.20176 0.061667
-0.277821 0.807879 -0.050711 -2.82842 -0.999993 -1.41422 192 192 192 255 0.20176 0.061667
-0.277821 0.192121 -0.050711 -3.53552 0.999997 -0.707121 192 192 192 255 0.20176 0.061667
-2.04639 0.192121 1.71786 -0.707143 1.99999 -3.53557 192 192 192 255 0.20176 0.061667
-0.320343 0.833737 0.096603 0.707108 -1 2.12128 192 192 192 255 0.356003 0.061667
-0.286128 0.833737 0.062387 2.12137 -2 -0.707076 192 192 192 255 0.356003 0.061667
-0.320343 0.882126 0.096603 -0.707137 2 2.12127 192 192 192 255 0.356003 0.061667
-0.286128 0.882126 0.062387 2.12136 1 0.707106 192 192 192 255 0.356003 0.061667
-0.33743 0.882126 0.079515 -0.707127 1 0.707086 192 192 192 255 0.390868 0.061667
-0.303214 0.882126 0.0453 1.41426 2 -1.41417 192 192 192 255 0.390868 0.061667
-0.33743 0.833737 0.079515 -1.41425 -2 1.41417 192 192 192 255 0.290983 0.061667
-0.303214 0.833737 0.0453 0.707128 -1 -0.707086 192 192 192 255 0.290983 0.061667
-1.90584 0.833737 1.6821 0.707149 -1 2.12132 192 192 192 255 0.356003 0.061667
-1.87162 0.833737 1.64788 2.12138 -2 -0.707073 192 192 192 255 0.356003 0.061667
-1.90584 0.882126 1.6821 -0.707056 2 2.12135 192 192 192 255 0.356003 0.061667
-1.87162 0.882126 1.64788 2.12136 1 0.707107 192 192 192 255 0.356003 0.061667
-1.92293 0.882126 1.66501 -0.707087 1 0.707126 192 192 192 255 0.390868 0.061667
-1.88871 0.882126 1.6308 1.41426 2 -1.41417 192 192 192 255 0.390868 0.061667
-1.92293 0.833737 1.66501 -1.41417 -2 1.41425 192 192 192 255 0.290983 0.061667
-1.88871 0.833737 1.6308 0.707129 -1 -0.707085 192 192 192 255 0.290983 0.061667
-0.320343 0.117873 0.096603 0.707108 -1 2.12128 192 192 192 255 0.356003 0.061667
-0.286128 0.117873 0.062387 2.12137 -2 -0.707076 192 192 192 255 0.356003 0.061667
-0.320343 0.166263 0.096603 -0.707137 2 2.12127 192 192 192 255 0.356003 0.061667
-0.286128 0.166263 0.062387 2.12136 1 0.707106 192 192 192 255 0.356003 0.061667
-0.33743 0.166263 0.079515 -0.707127 1 0.707086 192 192 192 255 0.390868 0.061667
-0.303214 0.166263 0.0453 1.41425 2 -1.41417 192 192 192 255 0.390868 0.061667
-0.33743 0.117873 0.079515 -1.41425 -2 1.41417 192 192 192 255 0.290983 0.061667
-0.303214 0.117873 0.0453 0.707127 -1 -0.707086 192 192 192 255 0.290983 0.061667
-1.90584 0.117873 1.6821 0.707149 -1 2.12132 192 192 192 255 0.356003 0.061667
-1.87162 0.117873 1.64788 2.12138 -2 -0.707073 192 192 192 255 0.356003 0.061667
-1.90584 0.166263 1.6821 -0.707056 2 2.12135 192 192 192 255 0.356003 0.061667
-1.87162 0.166263 1.64788 2.12136 1 0.707107 192 192 192 255 0.356003 0.061667
-1.92293 0.166263 1.66501 -0.707087 1 0.707126 192 192 192 255 0.390868 0.061667
-1.88871 0.166263 1.6308 1.41426 2 -1.41417 192 192 192 255 0.390868 0.061667
-1.92293 0.117873 1.66501 -1.41417 -2 1.41425 192 192 192 255 0.290983 0.061667
-1.88871 0.117873 1.6308 0.707129 -1 -0.707085 192 192 192 255 0.290983 0.061667
-1e-006 -0 2e-006 4.11977 -2 2.12288 192 192 192 255 0.233148 0.061667
1e-006 -0 -0.370729 -0.383195 -2.52278 -1.80185 192 192 192 255 0.233148 0.061667
1e-006 1 -0.370729 0.607471 2.76138 -2.22708 192 192 192 255 0.233148 0.061667
-1e-006 1 2e-006 3.11821 1.00001 2.12443 192 192 192 255 0.233148 0.061667
-2.37073 0 1.99151 -2.21125 -2.76139 0.578855 192 192 192 255 0.233148 0.061667
-2 0 1.99151 2.1182 -1.00001 3.12443 192 192 192 255 0.233148 0.061667
-2 1 1.99151 2.11975 2 4.12288 192 192 192 255 0.233148 0.061667
-2.37073 1 1.99151 -1.79256 2.52277 -0.39889 192 192 192 255 0.233148 0.061667
-2 0 1.99151 2.1182 -1.00001 3.12443 192 192 192 255 0.265187 0.061667
-1e-006 -0 2e-006 4.11977 -2 2.12288 192 192 192 255 0.265187 0.061667
-1e-006 1 2e-006 3.11821 1.00001 2.12443 192 192 192 255 0.265187 0.061667
-2 1 1.99151 2.11975 2 4.12288 192 192 192 255 0.265187 0.061667
-2.37073 1 1.99151 -1.79256 2.52277 -0.39889 192 192 192 255 0.265187 0.061667
1e-006 1 -0.370729 0.607471 2.76138 -2.22708 192 192 192 255 0.265187 0.061667
1e-006 -0 -0.370729 -0.383195 -2.52278 -1.80185 192 192 192 255 0.265187 0.061667
-2.37073 0 1.99151 -2.21125 -2.76139 0.578855 192 192 192 255 0.265187 0.061667
-1.93643 0.089902 1.92794 2.82732 2 1.41623 192 192 192 255 0.299122 0.061667
-0.063571 0.089901 0.063572 0.704001 0.999991 3.53864 192 192 192 255 0.299122 0.061667
-0.063571 0.089901 0.063572 0.704001 0.999991 3.53864 192 192 192 255 0.233038 0.061667
-0.063571 0.910098 0.063572 1.41267 -2 2.82999 192 192 192 255 0.233038 0.061667
-0.19253 0.089901 -0.065386 1.41424 1.99999 2.8284 192 192 192 255 0.233038 0.061667
-0.19253 0.910098 -0.065386 0.707128 -0.999977 3.53553 192 192 192 255 0.265187 0.061667
-1.93643 0.910099 1.92794 3.53334 -0.999992 0.711142 192 192 192 255 0.233038 0.061667
-1.93643 0.089902 1.92794 2.82732 2 1.41623 192 192 192 255 0.233038 0.061667
-2.06106 0.089901 1.80315 3.53645 0.999978 0.708037 192 192 192 255 0.233038 0.061667
-2.06106 0.910098 1.80315 2.82888 -1.99999 1.4147 192 192 192 255 0.233038 0.061667
-0.325717 0.910098 -0.198574 -2.79742 0.522769 -0.387647 192 192 192 255 0.233038 0.061667
-0.325717 0.089901 -0.198574 -2.09963 1.23861 -1.51998 192 192 192 255 0.233038 0.061667
-0.227837 0.910098 -0.100694 -2.82841 -2 -1.41423 192 192 192 255 0.233038 0.061667
-0.325717 0.089901 -0.198574 -2.09963 1.23861 -1.51998 192 192 192 255 0.299122 0.061667
-2.19425 0.089901 1.66996 -0.378335 -0.522776 -2.81309 192 192 192 255 0.299122 0.061667
-0.227837 0.089901 -0.100694 -3.53553 0.999993 -0.707114 192 192 192 255 0.299122 0.061667
-2.19425 0.089901 1.66996 -0.378335 -0.522776 -2.81309 192 192 192 255 0.233038 0.061667
-2.19425 0.910098 1.66996 -1.50414 -1.23862 -2.12825 192 192 192 255 0.233038 0.061667
-2.09637 0.910098 1.76784 -0.7071 -0.999993 -3.53553 192 192 192 255 0.233038 0.061667
-2.09637 0.089901 1.76784 -1.41421 2 -2.82842 192 192 192 255 0.233038 0.061667
-2.06106 0.089901 1.80315 3.53645 0.999978 0.708037 192 192 192 255 0.20176 0.061667
-0.19253 0.089901 -0.065386 1.41424 1.99999 2.8284 192 192 192 255 0.20176 0.061667
-0.19253 0.910098 -0.065386 0.707128 -0.999977 3.53553 192 192 192 255 0.20176 0.061667
-2.06106 0.910098 1.80315 2.82888 -1.99999 1.4147 192 192 192 255 0.20176 0.061667
-2.09637 0.910098 1.76784 -0.7071 -0.999993 -3.53553 192 192 192 255 0.20176 0.061667
-0.227837 0.910098 -0.100694 -2.82841 -2 -1.41423 192 192 192 255 0.20176 0.061667
-0.227837 0.089901 -0.100694 -3.53553 0.999993 -0.707114 192 192 192 255 0.20176 0.061667
-2.09637 0.089901 1.76784 -1.41421 2 -2.82842 192 192 192 255 0.20176 0.061667
-2.01108 0.807879 1.75316 3.53549 -0.999977 0.707079 192 192 192 255 0.169611 0.061667
-2.01108 0.192121 1.75316 2.82839 0.999989 1.41421 192 192 192 255 0.169611 0.061667
-2.04639 0.192121 1.71786 -0.707143 1.99999 -3.53557 192 192 192 255 0.169611 0.061667
-2.04639 0.807879 1.71786 -1.41423 -2 -2.82844 192 192 192 255 0.169611 0.061667
-0.242512 0.807879 -0.015402 0.707135 -1.99999 3.53551 192 192 192 255 0.169611 0.061667
-0.277821 0.807879 -0.050711 -2.82842 -0.999993 -1.41422 192 192 192 255 0.169611 0.061667
-0.277821 0.192121 -0.050711 -3.53552 0.999997 -0.707121 192 192 192 255 0.169611 0.061667
-0.242512 0.192121 -0.015402 1.41423 1.99998 2.82841 192 192 192 255 0.169611 0.061667
-0.242512 0.192121 -0.015402 1.41423 1.99998 2.82841 192 192 192 255 0.235695 0.061667
-0.277821 0.192121 -0.050711 -3.53552 0.999997 -0.707121 192 192 192 255 0.235695 0.061667
-2.04639 0.192121 1.71786 -0.707143 1.99999 -3.53557 192 192 192 255 0.235695 0.061667
-2.01108 0.192121 1.75316 2.82839 0.999989 1.41421 192 192 192 255 0.235695 0.061667
-0.320343 0.882126 0.096603 -0.707137 2 2.12127 192 192 192 255 0.390868 0.061667
-0.286128 0.882126 0.062387 2.12136 1 0.707106 192 192 192 255 0.390868 0.061667
-0.286128 0.833737 0.062387 2.12137 -2 -0.707076 192 192 192 255 0.290983 0.061667
-0.320343 0.833737 0.096603 0.707108 -1 2.12128 192 192 192 255 0.290983 0.061667
-0.286128 0.833737 0.062387 2.12137 -2 -0.707076 192 192 192 255 0.323964 0.061667
-0.303214 0.833737 0.0453 0.707128 -1 -0.707086 192 192 192 255 0.323964 0.061667
-0.303214 0.882126 0.0453 1.41426 2 -1.41417 192 192 192 255 0.323964 0.061667
-0.286128 0.882126 0.062387 2.12136 1 0.707106 192 192 192 255 0.323964 0.061667
-0.33743 0.833737 0.079515 -1.41425 -2 1.41417 192 192 192 255 0.323964 0.061667
-0.320343 0.833737 0.096603 0.707108 -1 2.12128 192 192 192 255 0.323964 0.061667
-0.320343 0.882126 0.096603 -0.707137 2 2.12127 192 192 192 255 0.323964 0.061667
-0.33743 0.882126 0.079515 -0.707127 1 0.707086 192 192 192 255 0.323964 0.061667
-1.90584 0.882126 1.6821 -0.707056 2 2.12135 192 192 192 255 0.390868 0.061667
-1.87162 0.882126 1.64788 2.12136 1 0.707107 192 192 192 255 0.390868 0.061667
-1.87162 0.833737 1.64788 2.12138 -2 -0.707073 192 192 192 255 0.290983 0.061667
-1.90584 0.833737 1.6821 0.707149 -1 2.12132 192 192 192 255 0.290983 0.061667
-1.87162 0.833737 1.64788 2.12138 -2 -0.707073 192 192 192 255 0.323964 0.061667
-1.88871 0.833737 1.6308 0.707129 -1 -0.707085 192 192 192 255 0.323964 0.061667
-1.88871 0.882126 1.6308 1.41426 2 -1.41417 192 192 192 255 0.323964 0.061667
-1.87162 0.882126 1.64788 2.12136 1 0.707107 192 192 192 255 0.323964 0.061667
-1.92293 0.833737 1.66501 -1.41417 -2 1.41425 192 192 192 255 0.323964 0.061667
-1.90584 0.833737 1.6821 0.707149 -1 2.12132 192 192 192 255 0.323964 0.061667
-1.90584 0.882126 1.6821 -0.707056 2 2.12135 192 192 192 255 0.323964 0.061667
-1.92293 0.882126 1.66501 -0.707087 1 0.707126 192 192 192 255 0.323964 0.061667
-0.320343 0.166263 0.096603 -0.707137 2 2.12127 192 192 192 255 0.390868 0.061667
-0.286128 0.166263 0.062387 2.12136 1 0.707106 192 192 192 255 0.390868 0.061667
-0.286128 0.117873 0.062387 2.12137 -2 -0.707076 192 192 192 255 0.290983 0.061667
-0.320343 0.117873 0.096603 0.707108 -1 2.12128 192 192 192 255 0.290983 0.061667
-0.286128 0.117873 0.062387 2.12137 -2 -0.707076 192 192 192 255 0.323964 0.061667
-0.303214 0.117873 0.0453 0.707127 -1 -0.707086 192 192 192 255 0.323964 0.061667
-0.303214 0.166263 0.0453 1.41425 2 -1.41417 192 192 192 255 0.323964 0.061667
-0.286128 0.166263 0.062387 2.12136 1 0.707106 192 192 192 255 0.323964 0.061667
-0.33743 0.117873 0.079515 -1.41425 -2 1.41417 192 192 192 255 0.323964 0.061667
-0.320343 0.117873 0.096603 0.707108 -1 2.12128 192 192 192 255 0.323964 0.061667
-0.320343 0.166263 0.096603 -0.707137 2 2.12127 192 192 192 255 0.323964 0.061667
-0.33743 0.166263 0.079515 -0.707127 1 0.707086 192 192 192 255 0.323964 0.061667
-1.90584 0.166263 1.6821 -0.707056 2 2.12135 192 192 192 255 0.390868 0.061667
-1.87162 0.166263 1.64788 2.12136 1 0.707107 192 192 192 255 0.390868 0.061667
-1.87162 0.117873 1.64788 2.12138 -2 -0.707073 192 192 192 255 0.290983 0.061667
-1.90584 0.117873 1.6821 0.707149 -1 2.12132 192 192 192 255 0.290983 0.061667
-1.87162 0.117873 1.64788 2.12138 -2 -0.707073 192 192 192 255 0.323964 0.061667
-1.88871 0.117873 1.6308 0.707129 -1 -0.707085 192 192 192 255 0.323964 0.061667
-1.88871 0.166263 1.6308 1.41426 2 -1.41417 192 192 192 255 0.323964 0.061667
-1.87162 0.166263 1.64788 2.12136 1 0.707107 192 192 192 255 0.323964 0.061667
-1.92293 0.117873 1.66501 -1.41417 -2 1.41425 192 192 192 255 0.323964 0.061667
-1.90584 0.117873 1.6821 0.707149 -1 2.12132 192 192 192 255 0.323964 0.061667
-1.90584 0.166263 1.6821 -0.707056 2 2.12135 192 192 192 255 0.323964 0.061667
-1.92293 0.166263 1.66501 -0.707087 1 0.707126 192 192 192 255 0.323964 0.061667
3 2 3 5 
3 2 5 4 
3 6 7 1 
3 6 1 0 
3 64 65 66 
3 64 66 67 
3 68 69 70 
3 68 70 71 
3 72 73 9 
3 72 9 8 
3 73 74 10 
3 73 10 9 
3 74 75 11 
3 74 11 10 
3 75 72 8 
3 75 8 11 
3 76 77 13 
3 76 13 12 
3 77 78 14 
3 77 14 13 
3 78 79 15 
3 78 15 14 
3 79 76 12 
3 79 12 15 
3 80 81 17 
3 80 17 16 
3 82 83 18 
3 82 18 84 
3 10 11 19 
3 10 19 85 
3 86 87 88 
3 86 88 89 
3 12 13 21 
3 12 21 20 
3 90 91 22 
3 90 22 92 
3 93 94 23 
3 93 23 95 
3 96 97 98 
3 96 98 99 
3 100 101 25 
3 100 25 24 
3 101 102 26 
3 101 26 25 
3 102 103 27 
3 102 27 26 
3 103 100 24 
3 103 24 27 
3 104 105 29 
3 104 29 28 
3 105 106 30 
3 105 30 29 
3 106 107 31 
3 106 31 30 
3 107 104 28 
3 107 28 31 
3 26 27 28 
3 26 28 29 
3 108 109 110 
3 108 110 111 
3 112 113 114 
3 112 114 115 
3 116 117 118 
3 116 118 119 
3 32 33 35 
3 32 35 34 
3 120 121 37 
3 120 37 36 
3 38 39 122 
3 38 122 123 
3 124 125 126 
3 124 126 127 
3 128 129 130 
3 128 130 131 
3 40 41 43 
3 40 43 42 
3 132 133 45 
3 132 45 44 
3 46 47 134 
3 46 134 135 
3 136 137 138 
3 136 138 139 
3 140 141 142 
3 140 142 143 
3 48 49 51 
3 48 51 50 
3 144 145 53 
3 144 53 52 
3 54 55 146 
3 54 146 147 
3 148 149 150 
3 148 150 151 
3 152 153 154 
3 152 154 155 
3 56 57 59 
3 56 59 58 
3 156 157 61 
3 156 61 60 
3 62 63 158 
3 62 158 159 
3 160 161 162 
3 160 162 163 
3 164 165 166 
3 164 166 167 
