ply
format ascii 1.0
comment VCGLIB generated
comment TextureFile SpaceInteriors_Texture.png
element vertex 128
property float x
property float y
property float z
property float nx
property float ny
property float nz
property uchar red
property uchar green
property uchar blue
property uchar alpha
property float texture_u
property float texture_v
element face 100
property list uchar int vertex_indices
end_header
0 -0.5 0.732834 -1 -1 2 192 192 192 255 0.357879 0.083793
4.26717 -0.5 0.732834 -2 -5 1 192 192 192 255 0.357879 0.083793
0 0.5 0.732834 -2 2 1 192 192 192 255 0.357879 0.083793
4.26717 0.5 0.732834 -1 4 2 192 192 192 255 0.357879 0.083793
0 0.5 -0.732834 -1 1 -2 192 192 192 255 0.389323 0.086503
4.26717 0.5 -0.732834 0 4 -2 192 192 192 255 0.389323 0.086503
0 -0.5 -0.732834 -2 -2 -1 192 192 192 255 0.357879 0.083793
4.26717 -0.5 -0.732834 0 -2 -4 192 192 192 255 0.357879 0.083793
5.73283 -0.5 0.732834 3 -3 0 192 192 192 255 0.328604 0.087045
5.73283 0.5 0.732834 3 3 0 192 192 192 255 0.389323 0.086503
5.73283 0.5 -0.732834 2 1 -2 192 192 192 255 0.389323 0.086503
5.73283 -0.5 -0.732834 1 -2 -1 192 192 192 255 0.357879 0.083793
5.73283 -0.5 5 2 -1 1 192 192 192 255 0.357879 0.083793
5.73283 0.5 5 1 2 2 192 192 192 255 0.357879 0.083793
4.26717 0.5 5 -2 1 1 192 192 192 255 0.389323 0.086503
4.26717 -0.5 5 -1 -2 2 192 192 192 255 0.357879 0.083793
4.02308 -0.582248 0.817039 -1 -1 2 192 192 192 255 0.300413 0.083793
4.14179 -0.582248 0.817039 2 -2 1 192 192 192 255 0.300413 0.083793
4.02308 0.582248 0.817039 -2 2 1 192 192 192 255 0.300413 0.083793
4.14179 0.582248 0.817039 1 1 2 192 192 192 255 0.300413 0.083793
4.02308 0.582248 -0.817039 -1 1 -2 192 192 192 255 0.300413 0.083793
4.14179 0.582248 -0.817039 2 2 -1 192 192 192 255 0.300413 0.083793
4.02308 -0.582248 -0.817039 -2 -2 -1 192 192 192 255 0.300413 0.083793
4.14179 -0.582248 -0.817039 1 -1 -2 192 192 192 255 0.300413 0.083793
0.067139 -0.582248 0.817039 -1 -1 2 192 192 192 255 0.300413 0.083793
0.185856 -0.582248 0.817039 2 -2 1 192 192 192 255 0.300413 0.083793
0.067139 0.582248 0.817039 -2 2 1 192 192 192 255 0.300413 0.083793
0.185856 0.582248 0.817039 1 1 2 192 192 192 255 0.300413 0.083793
0.067139 0.582248 -0.817039 -1 1 -2 192 192 192 255 0.300413 0.083793
0.185856 0.582248 -0.817039 2 2 -1 192 192 192 255 0.300413 0.083793
0.067139 -0.582248 -0.817039 -2 -2 -1 192 192 192 255 0.300413 0.083793
0.185856 -0.582248 -0.817039 1 -1 -2 192 192 192 255 0.300413 0.083793
2.42585 -0.582248 0.817039 -1 -1 2 192 192 192 255 0.300413 0.083793
2.54456 -0.582248 0.817039 2 -2 1 192 192 192 255 0.300413 0.083793
2.42585 0.582248 0.817039 -2 2 1 192 192 192 255 0.300413 0.083793
2.54456 0.582248 0.817039 1 1 2 192 192 192 255 0.300413 0.083793
2.42585 0.582248 -0.817039 -1 1 -2 192 192 192 255 0.300413 0.083793
2.54456 0.582248 -0.817039 2 2 -1 192 192 192 255 0.300413 0.083793
2.42585 -0.582248 -0.817039 -2 -2 -1 192 192 192 255 0.300413 0.083793
2.54456 -0.582248 -0.817039 1 -1 -2 192 192 192 255 0.300413 0.083793
5.81704 -0.582248 0.960815 2 -1 1 192 192 192 255 0.300413 0.083793
5.81704 -0.582248 0.842102 1 -2 -2 192 192 192 255 0.300413 0.083793
5.81704 0.582248 0.960815 1 2 2 192 192 192 255 0.300413 0.083793
5.81704 0.582248 0.842102 2 1 -1 192 192 192 255 0.300413 0.083793
4.18296 0.582248 0.960815 -2 1 1 192 192 192 255 0.300413 0.083793
4.18296 0.582248 0.842102 -1 2 -2 192 192 192 255 0.300413 0.083793
4.18296 -0.582248 0.960815 -1 -2 2 192 192 192 255 0.300413 0.083793
4.18296 -0.582248 0.842102 -2 -1 -1 192 192 192 255 0.300413 0.083793
5.81704 -0.582248 4.93286 2 -1 1 192 192 192 255 0.300413 0.083793
5.81704 -0.582248 4.81414 1 -2 -2 192 192 192 255 0.300413 0.083793
5.81704 0.582248 4.93286 1 2 2 192 192 192 255 0.300413 0.083793
5.81704 0.582248 4.81414 2 1 -1 192 192 192 255 0.300413 0.083793
4.18296 0.582248 4.93286 -2 1 1 192 192 192 255 0.300413 0.083793
4.18296 0.582248 4.81414 -1 2 -2 192 192 192 255 0.300413 0.083793
4.18296 -0.582248 4.93286 -1 -2 2 192 192 192 255 0.300413 0.083793
4.18296 -0.582248 4.81414 -2 -1 -1 192 192 192 255 0.300413 0.083793
5.81704 -0.582248 2.57415 2 -1 1 192 192 192 255 0.300413 0.083793
5.81704 -0.582248 2.45544 1 -2 -2 192 192 192 255 0.300413 0.083793
5.81704 0.582248 2.57415 1 2 2 192 192 192 255 0.300413 0.083793
5.81704 0.582248 2.45544 2 1 -1 192 192 192 255 0.300413 0.083793
4.18296 0.582248 2.57415 -2 1 1 192 192 192 255 0.300413 0.083793
4.18296 0.582248 2.45544 -1 2 -2 192 192 192 255 0.300413 0.083793
4.18296 -0.582248 2.57415 -1 -2 2 192 192 192 255 0.300413 0.083793
4.18296 -0.582248 2.45544 -2 -1 -1 192 192 192 255 0.300413 0.083793
0 0.5 0.732834 -2 2 1 192 192 192 255 0.389323 0.086503
4.26717 0.5 0.732834 -1 4 2 192 192 192 255 0.389323 0.086503
0 0.5 -0.732834 -1 1 -2 192 192 192 255 0.357879 0.083793
4.26717 0.5 -0.732834 0 4 -2 192 192 192 255 0.357879 0.083793
0 -0.5 -0.732834 -2 -2 -1 192 192 192 255 0.328604 0.087045
4.26717 -0.5 -0.732834 0 -2 -4 192 192 192 255 0.328604 0.087045
4.26717 -0.5 0.732834 -2 -5 1 192 192 192 255 0.328604 0.087045
0 -0.5 0.732834 -1 -1 2 192 192 192 255 0.328604 0.087045
5.73283 0.5 -0.732834 2 1 -2 192 192 192 255 0.357879 0.083793
5.73283 -0.5 -0.732834 1 -2 -1 192 192 192 255 0.328604 0.087045
5.73283 -0.5 0.732834 3 -3 0 192 192 192 255 0.357879 0.083793
5.73283 0.5 0.732834 3 3 0 192 192 192 255 0.357879 0.083793
5.73283 0.5 5 1 2 2 192 192 192 255 0.389323 0.086503
4.26717 0.5 5 -2 1 1 192 192 192 255 0.357879 0.083793
4.26717 -0.5 5 -1 -2 2 192 192 192 255 0.328604 0.087045
5.73283 -0.5 5 2 -1 1 192 192 192 255 0.328604 0.087045
4.14179 -0.582248 0.817039 2 -2 1 192 192 192 255 0.267343 0.084877
4.14179 -0.582248 -0.817039 1 -1 -2 192 192 192 255 0.267343 0.084877
4.14179 0.582248 -0.817039 2 2 -1 192 192 192 255 0.267343 0.084877
4.14179 0.582248 0.817039 1 1 2 192 192 192 255 0.267343 0.084877
4.02308 -0.582248 -0.817039 -2 -2 -1 192 192 192 255 0.267343 0.084877
4.02308 -0.582248 0.817039 -1 -1 2 192 192 192 255 0.267343 0.084877
4.02308 0.582248 0.817039 -2 2 1 192 192 192 255 0.267343 0.084877
4.02308 0.582248 -0.817039 -1 1 -2 192 192 192 255 0.267343 0.084877
0.185856 -0.582248 0.817039 2 -2 1 192 192 192 255 0.267343 0.084877
0.185856 -0.582248 -0.817039 1 -1 -2 192 192 192 255 0.267343 0.084877
0.185856 0.582248 -0.817039 2 2 -1 192 192 192 255 0.267343 0.084877
0.185856 0.582248 0.817039 1 1 2 192 192 192 255 0.267343 0.084877
0.067139 -0.582248 -0.817039 -2 -2 -1 192 192 192 255 0.267343 0.084877
0.067139 -0.582248 0.817039 -1 -1 2 192 192 192 255 0.267343 0.084877
0.067139 0.582248 0.817039 -2 2 1 192 192 192 255 0.267343 0.084877
0.067139 0.582248 -0.817039 -1 1 -2 192 192 192 255 0.267343 0.084877
2.54456 -0.582248 0.817039 2 -2 1 192 192 192 255 0.267343 0.084877
2.54456 -0.582248 -0.817039 1 -1 -2 192 192 192 255 0.267343 0.084877
2.54456 0.582248 -0.817039 2 2 -1 192 192 192 255 0.267343 0.084877
2.54456 0.582248 0.817039 1 1 2 192 192 192 255 0.267343 0.084877
2.42585 -0.582248 -0.817039 -2 -2 -1 192 192 192 255 0.267343 0.084877
2.42585 -0.582248 0.817039 -1 -1 2 192 192 192 255 0.267343 0.084877
2.42585 0.582248 0.817039 -2 2 1 192 192 192 255 0.267343 0.084877
2.42585 0.582248 -0.817039 -1 1 -2 192 192 192 255 0.267343 0.084877
5.81704 -0.582248 0.842102 1 -2 -2 192 192 192 255 0.267343 0.084877
4.18296 -0.582248 0.842102 -2 -1 -1 192 192 192 255 0.267343 0.084877
4.18296 0.582248 0.842102 -1 2 -2 192 192 192 255 0.267343 0.084877
5.81704 0.582248 0.842102 2 1 -1 192 192 192 255 0.267343 0.084877
4.18296 -0.582248 0.960815 -1 -2 2 192 192 192 255 0.267343 0.084877
5.81704 -0.582248 0.960815 2 -1 1 192 192 192 255 0.267343 0.084877
5.81704 0.582248 0.960815 1 2 2 192 192 192 255 0.267343 0.084877
4.18296 0.582248 0.960815 -2 1 1 192 192 192 255 0.267343 0.084877
5.81704 -0.582248 4.81414 1 -2 -2 192 192 192 255 0.267343 0.084877
4.18296 -0.582248 4.81414 -2 -1 -1 192 192 192 255 0.267343 0.084877
4.18296 0.582248 4.81414 -1 2 -2 192 192 192 255 0.267343 0.084877
5.81704 0.582248 4.81414 2 1 -1 192 192 192 255 0.267343 0.084877
4.18296 -0.582248 4.93286 -1 -2 2 192 192 192 255 0.267343 0.084877
5.81704 -0.582248 4.93286 2 -1 1 192 192 192 255 0.267343 0.084877
5.81704 0.582248 4.93286 1 2 2 192 192 192 255 0.267343 0.084877
4.18296 0.582248 4.93286 -2 1 1 192 192 192 255 0.267343 0.084877
5.81704 -0.582248 2.45544 1 -2 -2 192 192 192 255 0.267343 0.084877
4.18296 -0.582248 2.45544 -2 -1 -1 192 192 192 255 0.267343 0.084877
4.18296 0.582248 2.45544 -1 2 -2 192 192 192 255 0.267343 0.084877
5.81704 0.582248 2.45544 2 1 -1 192 192 192 255 0.267343 0.084877
4.18296 -0.582248 2.57415 -1 -2 2 192 192 192 255 0.267343 0.084877
5.81704 -0.582248 2.57415 2 -1 1 192 192 192 255 0.267343 0.084877
5.81704 0.582248 2.57415 1 2 2 192 192 192 255 0.267343 0.084877
4.18296 0.582248 2.57415 -2 1 1 192 192 192 255 0.267343 0.084877
3 0 1 3 
3 0 3 2 
3 64 65 5 
3 64 5 4 
3 66 67 7 
3 66 7 6 
3 68 69 70 
3 68 70 71 
3 6 0 2 
3 6 2 66 
3 5 65 9 
3 5 9 10 
3 7 67 72 
3 7 72 11 
3 70 69 73 
3 70 73 8 
3 12 74 75 
3 12 75 13 
3 76 9 65 
3 76 65 14 
3 77 3 1 
3 77 1 15 
3 78 70 8 
3 78 8 79 
3 15 12 13 
3 15 13 77 
3 72 75 74 
3 72 74 11 
3 16 17 19 
3 16 19 18 
3 18 19 21 
3 18 21 20 
3 20 21 23 
3 20 23 22 
3 22 23 17 
3 22 17 16 
3 80 81 82 
3 80 82 83 
3 84 85 86 
3 84 86 87 
3 24 25 27 
3 24 27 26 
3 26 27 29 
3 26 29 28 
3 28 29 31 
3 28 31 30 
3 30 31 25 
3 30 25 24 
3 88 89 90 
3 88 90 91 
3 92 93 94 
3 92 94 95 
3 32 33 35 
3 32 35 34 
3 34 35 37 
3 34 37 36 
3 36 37 39 
3 36 39 38 
3 38 39 33 
3 38 33 32 
3 96 97 98 
3 96 98 99 
3 100 101 102 
3 100 102 103 
3 40 41 43 
3 40 43 42 
3 42 43 45 
3 42 45 44 
3 44 45 47 
3 44 47 46 
3 46 47 41 
3 46 41 40 
3 104 105 106 
3 104 106 107 
3 108 109 110 
3 108 110 111 
3 48 49 51 
3 48 51 50 
3 50 51 53 
3 50 53 52 
3 52 53 55 
3 52 55 54 
3 54 55 49 
3 54 49 48 
3 112 113 114 
3 112 114 115 
3 116 117 118 
3 116 118 119 
3 56 57 59 
3 56 59 58 
3 58 59 61 
3 58 61 60 
3 60 61 63 
3 60 63 62 
3 62 63 57 
3 62 57 56 
3 120 121 122 
3 120 122 123 
3 124 125 126 
3 124 126 127 
