ply
format ascii 1.0
comment VCGLIB generated
comment TextureFile SpaceInteriors_Texture.png
element vertex 8
property float x
property float y
property float z
property float nx
property float ny
property float nz
property uchar red
property uchar green
property uchar blue
property uchar alpha
property float texture_u
property float texture_v
element face 4
property list uchar int vertex_indices
end_header
-4.66568 -3e-006 -0.33432 0 -1 0 192 192 192 255 0.264248 0.061667
-0.334309 -3e-006 -0.33432 0 -2 0 192 192 192 255 0.264248 0.061667
-4.66568 0.196164 -0.33432 0 2 0 192 192 192 255 0.364133 0.061667
-0.334309 0.196164 -0.33432 0 1 0 192 192 192 255 0.364133 0.061667
-4.66568 0.196164 -4.6657 0 1 0 192 192 192 255 0.364133 0.061667
-0.334309 0.196164 -4.6657 0 2 0 192 192 192 255 0.364133 0.061667
-4.66568 -3e-006 -4.6657 0 -2 0 192 192 192 255 0.264248 0.061667
-0.334309 -3e-006 -4.6657 0 -1 0 192 192 192 255 0.264248 0.061667
3 2 3 5 
3 2 5 4 
3 6 7 1 
3 6 1 0 
