ply
format ascii 1.0
comment VCGLIB generated
comment TextureFile SpaceInteriors_Texture.png
element vertex 96
property float x
property float y
property float z
property float nx
property float ny
property float nz
property uchar red
property uchar green
property uchar blue
property uchar alpha
property float texture_u
property float texture_v
element face 52
property list uchar int vertex_indices
end_header
0 -0.120786 0.5 -1 -1 2 192 192 192 255 0.106249 0.268401
5 -0.120786 0.5 2 -1 1 192 192 192 255 0.141413 0.268401
0 0.120786 0.5 -2 2 1 192 192 192 255 0.106249 0.268401
5 0.120786 0.5 1 2 2 192 192 192 255 0.141413 0.268401
0 0.120786 -0.5 -1 1 -2 192 192 192 255 0.232519 0.265205
5 0.120786 -0.5 2 1 -2 192 192 192 255 0.141413 0.268401
0 -0.120786 -0.5 -2 -2 -1 192 192 192 255 0.106249 0.268401
5 -0.120786 -0.5 1 -2 -1 192 192 192 255 0.141413 0.268401
2.5 -0.120786 0.5 0 -4 3 192 192 192 255 0.106249 0.268401
2.5 0.120786 0.5 0 2 3 192 192 192 255 0.106249 0.268401
2.5 0.120786 -0.5 0 4 -2 192 192 192 255 0.232519 0.265205
2.5 -0.120786 -0.5 0 -2 -4 192 192 192 255 0.106249 0.268401
0.05661 0.120786 -0.377537 -1 0 2 192 192 192 255 0.202072 0.266608
0.137291 0.120786 -0.377537 2 0 1 192 192 192 255 0.202072 0.266608
0.05661 1.98132 -0.377537 -2 0 1 192 192 192 255 0.202072 0.266608
0.137291 1.98132 -0.377537 1 0 2 192 192 192 255 0.202072 0.266608
0.05661 1.98132 -0.458218 -1 0 -2 192 192 192 255 0.202072 0.266608
0.137291 1.98132 -0.458218 2 0 -1 192 192 192 255 0.202072 0.266608
0.05661 0.120786 -0.458218 -2 0 -1 192 192 192 255 0.202072 0.266608
0.137291 0.120786 -0.458218 1 0 -2 192 192 192 255 0.202072 0.266608
0.05661 0.120786 0.458878 -1 0 2 192 192 192 255 0.202072 0.266608
0.137291 0.120786 0.458878 2 0 1 192 192 192 255 0.202072 0.266608
0.05661 1.98132 0.458878 -2 0 1 192 192 192 255 0.202072 0.266608
0.137291 1.98132 0.458878 1 0 2 192 192 192 255 0.202072 0.266608
0.05661 1.98132 0.378197 -1 0 -2 192 192 192 255 0.202072 0.266608
0.137291 1.98132 0.378197 2 0 -1 192 192 192 255 0.202072 0.266608
0.05661 0.120786 0.378197 -2 0 -1 192 192 192 255 0.202072 0.266608
0.137291 0.120786 0.378197 1 0 -2 192 192 192 255 0.202072 0.266608
4.88883 0.120786 -0.377537 -1 0 2 192 192 192 255 0.202072 0.266608
4.96951 0.120786 -0.377537 2 0 1 192 192 192 255 0.202072 0.266608
4.88883 1.98132 -0.377537 -2 0 1 192 192 192 255 0.202072 0.266608
4.96951 1.98132 -0.377537 1 0 2 192 192 192 255 0.202072 0.266608
4.88883 1.98132 -0.458218 -1 0 -2 192 192 192 255 0.202072 0.266608
4.96951 1.98132 -0.458218 2 0 -1 192 192 192 255 0.202072 0.266608
4.88883 0.120786 -0.458218 -2 0 -1 192 192 192 255 0.202072 0.266608
4.96951 0.120786 -0.458218 1 0 -2 192 192 192 255 0.202072 0.266608
4.88883 0.120786 0.458878 -1 0 2 192 192 192 255 0.202072 0.266608
4.96951 0.120786 0.458878 2 0 1 192 192 192 255 0.202072 0.266608
4.88883 1.98132 0.458878 -2 0 1 192 192 192 255 0.202072 0.266608
4.96951 1.98132 0.458878 1 0 2 192 192 192 255 0.202072 0.266608
4.88883 1.98132 0.378197 -1 0 -2 192 192 192 255 0.202072 0.266608
4.96951 1.98132 0.378197 2 0 -1 192 192 192 255 0.202072 0.266608
4.88883 0.120786 0.378197 -2 0 -1 192 192 192 255 0.202072 0.266608
4.96951 0.120786 0.378197 1 0 -2 192 192 192 255 0.202072 0.266608
0 0.120786 0.5 -2 2 1 192 192 192 255 0.232519 0.265205
2.5 0.120786 0.5 0 2 3 192 192 192 255 0.232519 0.265205
0 0.120786 -0.5 -1 1 -2 192 192 192 255 0.106249 0.268401
2.5 0.120786 -0.5 0 4 -2 192 192 192 255 0.106249 0.268401
0 -0.120786 -0.5 -2 -2 -1 192 192 192 255 0.997951 0.36957
2.5 -0.120786 -0.5 0 -2 -4 192 192 192 255 0.997951 0.169445
2.5 -0.120786 0.5 0 -4 3 192 192 192 255 0.933887 0.169445
0 -0.120786 0.5 -1 -1 2 192 192 192 255 0.933887 0.369569
0 -0.120786 -0.5 -2 -2 -1 192 192 192 255 0.141413 0.268401
0 -0.120786 0.5 -1 -1 2 192 192 192 255 0.141413 0.268401
0 0.120786 0.5 -2 2 1 192 192 192 255 0.141413 0.268401
0 0.120786 -0.5 -1 1 -2 192 192 192 255 0.141413 0.268401
5 -0.120786 0.5 2 -1 1 192 192 192 255 0.106249 0.268401
5 0.120786 0.5 1 2 2 192 192 192 255 0.106249 0.268401
5 0.120786 0.5 1 2 2 192 192 192 255 0.232519 0.265205
5 0.120786 -0.5 2 1 -2 192 192 192 255 0.232519 0.265205
5 0.120786 -0.5 2 1 -2 192 192 192 255 0.106249 0.268401
5 -0.120786 -0.5 1 -2 -1 192 192 192 255 0.106249 0.268401
5 -0.120786 -0.5 1 -2 -1 192 192 192 255 0.997951 0.369569
5 -0.120786 0.5 2 -1 1 192 192 192 255 0.933887 0.369569
0.137291 0.120786 -0.377537 2 0 1 192 192 192 255 0.236436 0.263411
0.137291 0.120786 -0.458218 1 0 -2 192 192 192 255 0.236436 0.263411
0.137291 1.98132 -0.458218 2 0 -1 192 192 192 255 0.236436 0.263411
0.137291 1.98132 -0.377537 1 0 2 192 192 192 255 0.236436 0.263411
0.05661 0.120786 -0.458218 -2 0 -1 192 192 192 255 0.236436 0.263411
0.05661 0.120786 -0.377537 -1 0 2 192 192 192 255 0.236436 0.263411
0.05661 1.98132 -0.377537 -2 0 1 192 192 192 255 0.236436 0.263411
0.05661 1.98132 -0.458218 -1 0 -2 192 192 192 255 0.236436 0.263411
0.137291 0.120786 0.458878 2 0 1 192 192 192 255 0.236436 0.263411
0.137291 0.120786 0.378197 1 0 -2 192 192 192 255 0.236436 0.263411
0.137291 1.98132 0.378197 2 0 -1 192 192 192 255 0.236436 0.263411
0.137291 1.98132 0.458878 1 0 2 192 192 192 255 0.236436 0.263411
0.05661 0.120786 0.378197 -2 0 -1 192 192 192 255 0.236436 0.263411
0.05661 0.120786 0.458878 -1 0 2 192 192 192 255 0.236436 0.263411
0.05661 1.98132 0.458878 -2 0 1 192 192 192 255 0.236436 0.263411
0.05661 1.98132 0.378197 -1 0 -2 192 192 192 255 0.236436 0.263411
4.96951 0.120786 -0.377537 2 0 1 192 192 192 255 0.236436 0.263411
4.96951 0.120786 -0.458218 1 0 -2 192 192 192 255 0.236436 0.263411
4.96951 1.98132 -0.458218 2 0 -1 192 192 192 255 0.236436 0.263411
4.96951 1.98132 -0.377537 1 0 2 192 192 192 255 0.236436 0.263411
4.88883 0.120786 -0.458218 -2 0 -1 192 192 192 255 0.236436 0.263411
4.88883 0.120786 -0.377537 -1 0 2 192 192 192 255 0.236436 0.263411
4.88883 1.98132 -0.377537 -2 0 1 192 192 192 255 0.236436 0.263411
4.88883 1.98132 -0.458218 -1 0 -2 192 192 192 255 0.236436 0.263411
4.96951 0.120786 0.458878 2 0 1 192 192 192 255 0.236436 0.263411
4.96951 0.120786 0.378197 1 0 -2 192 192 192 255 0.236436 0.263411
4.96951 1.98132 0.378197 2 0 -1 192 192 192 255 0.236436 0.263411
4.96951 1.98132 0.458878 1 0 2 192 192 192 255 0.236436 0.263411
4.88883 0.120786 0.378197 -2 0 -1 192 192 192 255 0.236436 0.263411
4.88883 0.120786 0.458878 -1 0 2 192 192 192 255 0.236436 0.263411
4.88883 1.98132 0.458878 -2 0 1 192 192 192 255 0.236436 0.263411
4.88883 1.98132 0.378197 -1 0 -2 192 192 192 255 0.236436 0.263411
3 0 8 9 
3 0 9 2 
3 44 45 10 
3 44 10 4 
3 46 47 11 
3 46 11 6 
3 48 49 50 
3 48 50 51 
3 1 7 5 
3 1 5 3 
3 52 53 54 
3 52 54 55 
3 8 56 57 
3 8 57 9 
3 10 45 58 
3 10 58 59 
3 11 47 60 
3 11 60 61 
3 50 49 62 
3 50 62 63 
3 12 13 15 
3 12 15 14 
3 16 17 19 
3 16 19 18 
3 64 65 66 
3 64 66 67 
3 68 69 70 
3 68 70 71 
3 20 21 23 
3 20 23 22 
3 24 25 27 
3 24 27 26 
3 72 73 74 
3 72 74 75 
3 76 77 78 
3 76 78 79 
3 28 29 31 
3 28 31 30 
3 32 33 35 
3 32 35 34 
3 80 81 82 
3 80 82 83 
3 84 85 86 
3 84 86 87 
3 36 37 39 
3 36 39 38 
3 40 41 43 
3 40 43 42 
3 88 89 90 
3 88 90 91 
3 92 93 94 
3 92 94 95 
