ply
format ascii 1.0
comment VCGLIB generated
comment TextureFile SpaceInteriors_Texture.png
element vertex 32
property float x
property float y
property float z
property float nx
property float ny
property float nz
property uchar red
property uchar green
property uchar blue
property uchar alpha
property float texture_u
property float texture_v
element face 16
property list uchar int vertex_indices
end_header
-5 0 0 0 0 1 192 192 192 255 0.919392 0.640965
0 0 0 0 0 1 192 192 192 255 0.990896 0.640965
-5 5 0 0 0 1 192 192 192 255 0.750427 0.873158
0 5 0 0 0 2 192 192 192 255 0.8862 0.873158
-2.5 0 0 0 0 3 192 192 192 255 0.990895 0.640965
-2.5 5 0 0 0 3 192 192 192 255 0.750426 0.873158
-3.75 0 0 0 0 3 192 192 192 255 0.990896 0.640965
-3.75 5 0 0 0 3 192 192 192 255 0.8862 0.873158
-1.25 0 0 0 0 4 192 192 192 255 0.990895 0.640965
-1.25 5 0 0 0 3 192 192 192 255 0.8862 0.873158
-5 4 0 0 0 4 192 192 192 255 0.750427 0.789687
-3.75 4 0 0 0 6 192 192 192 255 0.8862 0.789687
-2.5 4 0 0 0 6 192 192 192 255 0.750426 0.789687
-1.25 4 0 0 0 5 192 192 192 255 0.8862 0.789687
0 4 0 0 0 3 192 192 192 255 0.8862 0.789687
-3.75 4 0 0 0 6 192 192 192 255 0.750427 0.789687
-2.5 4 0 0 0 6 192 192 192 255 0.8862 0.789687
-2.5 5 0 0 0 3 192 192 192 255 0.8862 0.873158
-3.75 5 0 0 0 3 192 192 192 255 0.750427 0.873158
-1.25 5 0 0 0 3 192 192 192 255 0.750427 0.873158
-1.25 4 0 0 0 5 192 192 192 255 0.750427 0.789687
-3.75 4 0 0 0 6 192 192 192 255 0.990896 0.701964
-5 4 0 0 0 4 192 192 192 255 0.919392 0.701964
-2.5 4 0 0 0 6 192 192 192 255 0.990895 0.701964
-3.75 4 0 0 0 6 192 192 192 255 0.919392 0.701964
-3.75 0 0 0 0 3 192 192 192 255 0.919392 0.640965
-1.25 4 0 0 0 5 192 192 192 255 0.990895 0.701964
-2.5 4 0 0 0 6 192 192 192 255 0.919392 0.701964
-2.5 0 0 0 0 3 192 192 192 255 0.919392 0.640965
0 4 0 0 0 3 192 192 192 255 0.990896 0.701964
-1.25 4 0 0 0 5 192 192 192 255 0.919392 0.701964
-1.25 0 0 0 0 4 192 192 192 255 0.919392 0.640965
3 10 11 7 
3 10 7 2 
3 12 13 9 
3 12 9 5 
3 15 16 17 
3 15 17 18 
3 3 19 20 
3 3 20 14 
3 6 21 22 
3 6 22 0 
3 4 23 24 
3 4 24 25 
3 8 26 27 
3 8 27 28 
3 29 30 31 
3 29 31 1 
