ply
format ascii 1.0
comment VCGLIB generated
comment TextureFile SpaceInteriors_Texture.png
element vertex 85
property float x
property float y
property float z
property float nx
property float ny
property float nz
property uchar red
property uchar green
property uchar blue
property uchar alpha
property float texture_u
property float texture_v
element face 76
property list uchar int vertex_indices
end_header
-5 0 -5 0 -3 0 192 192 192 255 0.327442 0.066538
0 0 -5 0 -3 0 192 192 192 255 0.327442 0.066538
-5 0 0 0 -3 0 192 192 192 255 0.327442 0.066538
0 0 0 0 -3 0 192 192 192 255 0.327442 0.066538
-2.5 0 0 0 -3.01389 0 192 192 192 255 0.327442 0.066538
-2.5 0 -5 0 -6 0 192 192 192 255 0.327442 0.066538
-5 0 -2.5 0 -6 0 192 192 192 255 0.327442 0.066538
-2.5 0 -2.5 0 -9.01389 0 192 192 192 255 0.327442 0.066538
0 0 -2.5 0 -6 0 192 192 192 255 0.327442 0.066538
-2.41667 0 -2.41667 0 -5.01389 0 192 192 192 255 0.327442 0.066538
-0.083332 0 -2.41667 0 -4 0 192 192 192 255 0.327442 0.066538
-0.083332 0 -0.083333 0 -5 0 192 192 192 255 0.327442 0.066538
-2.41667 0 -0.083333 0 -4.01389 0 192 192 192 255 0.327442 0.066538
-4.91667 0 -2.41667 0 -5 0 192 192 192 255 0.327442 0.066538
-2.58333 0 -2.41667 0 -4.01389 0 192 192 192 255 0.327442 0.066538
-2.58333 0 -0.083333 0 -5.01389 0 192 192 192 255 0.327442 0.066538
-4.91667 0 -0.083333 0 -4 0 192 192 192 255 0.327442 0.066538
-4.91667 0 -4.91667 0 -5 0 192 192 192 255 0.364026 0.063229
-2.58333 0 -4.91667 0 -4 0 192 192 192 255 0.364026 0.063229
-2.58333 0 -2.58333 0 -5 0 192 192 192 255 0.364026 0.063229
-4.91667 0 -2.58333 0 -4 0 192 192 192 255 0.364026 0.063229
-2.41667 0 -4.91667 0 -5 0 192 192 192 255 0.364026 0.063229
-0.083332 0 -4.91667 0 -4 0 192 192 192 255 0.364026 0.063229
-0.083332 0 -2.58333 0 -5 0 192 192 192 255 0.364026 0.063229
-2.41667 0 -2.58333 0 -4 0 192 192 192 255 0.364026 0.063229
-2.41667 0 -1.87118 0 -7 0 192 192 192 255 0.364026 0.063229
-0.083332 0 -1.87118 0 -8 0 192 192 192 255 0.364026 0.063229
-0.083332 0 -0.628822 0 -7 0 192 192 192 255 0.364026 0.063229
-2.41667 0 -0.628822 0 -8 0 192 192 192 255 0.364026 0.063229
-4.91667 0 -1.87118 0 -7 0 192 192 192 255 0.364026 0.063229
-2.58333 0 -1.87118 0 -8 0 192 192 192 255 0.364026 0.063229
-2.58333 0 -0.628822 0 -7 0 192 192 192 255 0.364026 0.063229
-4.91667 0 -0.628822 0 -8 0 192 192 192 255 0.364026 0.063229
0 0 -1.87118 0 -3 0 192 192 192 255 0.327442 0.066538
0 0 -0.628822 0 -3 0 192 192 192 255 0.327442 0.066538
-5 0 -1.87118 0 -3 0 192 192 192 255 0.327442 0.066538
-5 0 -0.628822 0 -3 0 192 192 192 255 0.327442 0.066538
-2.33889 0 -1.80684 0 -5 0 192 192 192 255 0.894717 0.388695
-0.16111 0 -1.80684 0 -4 0 192 192 192 255 0.894717 0.388695
-0.16111 0 -0.693151 0 -5 0 192 192 192 255 0.894717 0.388695
-2.33889 0 -0.693151 0 -4 0 192 192 192 255 0.894717 0.388695
-4.83889 0 -1.80684 0 -5 0 192 192 192 255 0.894717 0.388695
-2.66111 0 -1.80684 0 -4 0 192 192 192 255 0.894717 0.388695
-2.66111 0 -0.693151 0 -5 0 192 192 192 255 0.894717 0.388695
-4.83889 0 -0.693151 0 -4 0 192 192 192 255 0.894717 0.388695
-2.58333 0 -4.91667 0 -4 0 192 192 192 255 0.327442 0.066538
-4.91667 0 -4.91667 0 -5 0 192 192 192 255 0.327442 0.066538
-2.58333 0 -2.58333 0 -5 0 192 192 192 255 0.327442 0.066538
-4.91667 0 -2.58333 0 -4 0 192 192 192 255 0.327442 0.066538
-0.083332 0 -4.91667 0 -4 0 192 192 192 255 0.327442 0.066538
-2.41667 0 -4.91667 0 -5 0 192 192 192 255 0.327442 0.066538
-0.083332 0 -2.58333 0 -5 0 192 192 192 255 0.327442 0.066538
-2.41667 0 -2.58333 0 -4 0 192 192 192 255 0.327442 0.066538
-2.41667 0 -2.41667 0 -5.01389 0 192 192 192 255 0.364026 0.063229
-0.083332 0 -2.41667 0 -4 0 192 192 192 255 0.364026 0.063229
-0.083332 0 -0.083333 0 -5 0 192 192 192 255 0.364026 0.063229
-2.41667 0 -0.083333 0 -4.01389 0 192 192 192 255 0.364026 0.063229
-4.91667 0 -2.41667 0 -5 0 192 192 192 255 0.364026 0.063229
-2.58333 0 -2.41667 0 -4.01389 0 192 192 192 255 0.364026 0.063229
-2.58333 0 -0.083333 0 -5.01389 0 192 192 192 255 0.364026 0.063229
-4.91667 0 -0.083333 0 -4 0 192 192 192 255 0.364026 0.063229
-0.083332 0 -1.87118 0 -8 0 192 192 192 255 0.327442 0.066538
-0.083332 0 -0.628822 0 -7 0 192 192 192 255 0.327442 0.066538
-4.91667 0 -1.87118 0 -7 0 192 192 192 255 0.327442 0.066538
-4.91667 0 -0.628822 0 -8 0 192 192 192 255 0.327442 0.066538
-2.41667 0 -1.87118 0 -7 0 192 192 192 255 0.327442 0.066538
-2.58333 0 -1.87118 0 -8 0 192 192 192 255 0.327442 0.066538
-2.58333 0 -0.628822 0 -7 0 192 192 192 255 0.327442 0.066538
-2.41667 0 -0.628822 0 -8 0 192 192 192 255 0.327442 0.066538
-2.41667 0 -1.87118 0 -7 0 192 192 192 255 0.307979 0.061839
-0.083332 0 -1.87118 0 -8 0 192 192 192 255 0.307979 0.061839
-0.16111 0 -1.80684 0 -4 0 192 192 192 255 0.307979 0.061839
-2.33889 0 -1.80684 0 -5 0 192 192 192 255 0.307979 0.061839
-0.083332 0 -0.628822 0 -7 0 192 192 192 255 0.307979 0.061839
-0.16111 0 -0.693151 0 -5 0 192 192 192 255 0.307979 0.061839
-2.41667 0 -0.628822 0 -8 0 192 192 192 255 0.307979 0.061839
-2.33889 0 -0.693151 0 -4 0 192 192 192 255 0.307979 0.061839
-4.91667 0 -1.87118 0 -7 0 192 192 192 255 0.307979 0.061839
-2.58333 0 -1.87118 0 -8 0 192 192 192 255 0.307979 0.061839
-2.66111 0 -1.80684 0 -4 0 192 192 192 255 0.307979 0.061839
-4.83889 0 -1.80684 0 -5 0 192 192 192 255 0.307979 0.061839
-2.58333 0 -0.628822 0 -7 0 192 192 192 255 0.307979 0.061839
-2.66111 0 -0.693151 0 -5 0 192 192 192 255 0.307979 0.061839
-4.91667 0 -0.628822 0 -8 0 192 192 192 255 0.307979 0.061839
-4.83889 0 -0.693151 0 -4 0 192 192 192 255 0.307979 0.061839
3 37 38 39 
3 37 39 40 
3 41 42 43 
3 41 43 44 
3 17 18 19 
3 17 19 20 
3 21 22 23 
3 21 23 24 
3 7 8 10 
3 7 10 9 
3 3 4 12 
3 3 12 11 
3 6 7 14 
3 6 14 13 
3 4 2 16 
3 4 16 15 
3 0 5 45 
3 0 45 46 
3 5 7 47 
3 5 47 45 
3 7 6 48 
3 7 48 47 
3 6 0 46 
3 6 46 48 
3 5 1 49 
3 5 49 50 
3 1 8 51 
3 1 51 49 
3 8 7 52 
3 8 52 51 
3 7 5 50 
3 7 50 52 
3 53 54 26 
3 53 26 25 
3 55 56 28 
3 55 28 27 
3 57 58 30 
3 57 30 29 
3 59 60 32 
3 59 32 31 
3 9 14 7 
3 4 15 12 
3 61 10 8 
3 61 8 33 
3 11 62 34 
3 11 34 3 
3 62 61 33 
3 62 33 34 
3 13 63 35 
3 13 35 6 
3 64 16 2 
3 64 2 36 
3 63 64 36 
3 63 36 35 
3 9 65 66 
3 9 66 14 
3 67 66 65 
3 67 65 68 
3 68 12 15 
3 68 15 67 
3 69 70 71 
3 69 71 72 
3 70 73 74 
3 70 74 71 
3 73 75 76 
3 73 76 74 
3 75 69 72 
3 75 72 76 
3 77 78 79 
3 77 79 80 
3 78 81 82 
3 78 82 79 
3 81 83 84 
3 81 84 82 
3 83 77 80 
3 83 80 84 
