ply
format ascii 1.0
comment VCGLIB generated
comment TextureFile SpaceInteriors_Texture.png
element vertex 136
property float x
property float y
property float z
property float nx
property float ny
property float nz
property uchar red
property uchar green
property uchar blue
property uchar alpha
property float texture_u
property float texture_v
element face 92
property list uchar int vertex_indices
end_header
-1.41684 -0.192509 -0.277649 -3 0.938871 -2.34427 192 192 192 255 0.173674 0.067537
1.41685 -0.192509 -0.277649 3 1.87774 -1.68854 192 192 192 255 0.173674 0.067537
-1.41684 -0.192509 0.277649 -3 1.87774 1.68854 192 192 192 255 0.173674 0.067537
1.41685 -0.192509 0.277649 3 1.87774 1.68854 192 192 192 255 0.173674 0.067537
-1.41684 -0.369693 -0.277649 -2 -2 -1 192 192 192 255 0.20126 0.063182
1.41685 -0.369693 -0.277649 1 -1 -1 192 192 192 255 0.173674 0.067537
1.41685 -0.369693 0.277649 2 -2 1 192 192 192 255 0.173674 0.067537
-1.41684 -0.369693 0.277649 -1 -1 2 192 192 192 255 0.20126 0.063182
-1.41684 -0.126875 -0.098656 -3 1.87774 -1.68854 192 192 192 255 0.173674 0.067537
-1.41684 -0.126875 0.098656 -3 0.938871 2.34427 192 192 192 255 0.173674 0.067537
1.41685 -0.126875 0.098656 3 0.938871 2.34427 192 192 192 255 0.173674 0.067537
1.41685 -0.126875 -0.098656 3 0.938871 -2.34427 192 192 192 255 0.173674 0.067537
-1.41684 0 -0.098656 -1 2 -2 192 192 192 255 0.239734 0.06173
-1.41684 0 0.098656 -2 1 1 192 192 192 255 0.239734 0.06173
1.41685 0 0.098656 1 2 1 192 192 192 255 0.173674 0.067537
1.41685 0 -0.098656 2 1 -1 192 192 192 255 0.173674 0.067537
1.35763 -0.369693 -0.277649 0 -3 -3 192 192 192 255 0.20126 0.063182
1.35763 -0.369693 0.277649 0 -3 3 192 192 192 255 0.20126 0.063182
1.35763 -0.192509 0.277649 0 2.81661 4.03281 192 192 192 255 0.239734 0.06173
1.35763 -0.126875 0.098656 0 2.81661 4.03281 192 192 192 255 0.239734 0.06173
1.35763 0 0.098656 0 3 3 192 192 192 255 0.20126 0.063182
1.35763 0 -0.098656 0 3 -3 192 192 192 255 0.239734 0.06173
1.35763 -0.126875 -0.098656 0 2.81661 -4.03281 192 192 192 255 0.20126 0.063182
1.35763 -0.192509 -0.277649 0 2.81661 -4.03281 192 192 192 255 0.239734 0.06173
-1.35762 -0.369693 -0.277649 0 -3 -4 192 192 192 255 0.20126 0.063182
-1.35762 -0.369693 0.277649 0 -3 3 192 192 192 255 0.20126 0.063182
-1.35762 -0.192509 0.277649 0 1.87774 4.68854 192 192 192 255 0.239734 0.06173
-1.35762 -0.126875 0.098656 0 3.75548 3.37708 192 192 192 255 0.239734 0.06173
-1.35762 0 0.098656 0 3 4 192 192 192 255 0.239734 0.06173
-1.35762 0 -0.098656 0 3 -3 192 192 192 255 0.239734 0.06173
-1.35762 -0.126875 -0.098656 0 2.81661 -4.03281 192 192 192 255 0.239734 0.06173
-1.35762 -0.192509 -0.277649 0 2.81661 -4.03281 192 192 192 255 0.239734 0.06173
-1.35762 -0.272564 0.277649 0 0 5 192 192 192 255 0.20126 0.063182
-1.41684 -0.272564 0.277649 -3 0 3 192 192 192 255 0.20126 0.063182
-1.41684 -0.272564 -0.277649 -3 0 -3 192 192 192 255 0.20126 0.063182
-1.35762 -0.272564 -0.277649 0 0 -5 192 192 192 255 0.20126 0.063182
1.35763 -0.272564 -0.277649 0 0 -6 192 192 192 255 0.20126 0.063182
1.41685 -0.272564 -0.277649 3 0 -4 192 192 192 255 0.173674 0.067537
1.41685 -0.272564 0.277649 3 0 4 192 192 192 255 0.173674 0.067537
1.35763 -0.272564 0.277649 0 0 6 192 192 192 255 0.20126 0.063182
-1.22343 0 0.037285 -1 0 2 192 192 192 255 0.10536 0.480394
-1.16144 0 0.037285 2 0 1 192 192 192 255 0.10536 0.480394
-1.22343 2.11831 0.037285 -2 0 1 192 192 192 255 0.10536 0.480394
-1.16144 2.11831 0.037285 1 0 2 192 192 192 255 0.10536 0.480394
-1.22343 2.11831 -0.024712 -1 0 -2 192 192 192 255 0.10536 0.480394
-1.16144 2.11831 -0.024712 2 0 -1 192 192 192 255 0.10536 0.480394
-1.22343 0 -0.024712 -2 0 -1 192 192 192 255 0.10536 0.480394
-1.16144 0 -0.024712 1 0 -2 192 192 192 255 0.10536 0.480394
1.17461 0 0.037285 -1 0 2 192 192 192 255 0.10536 0.480394
1.23661 0 0.037285 2 0 1 192 192 192 255 0.10536 0.480394
1.17461 2.11831 0.037285 -2 0 1 192 192 192 255 0.10536 0.480394
1.23661 2.11831 0.037285 1 0 2 192 192 192 255 0.10536 0.480394
1.17461 2.11831 -0.024712 -1 0 -2 192 192 192 255 0.10536 0.480394
1.23661 2.11831 -0.024712 2 0 -1 192 192 192 255 0.10536 0.480394
1.17461 0 -0.024712 -2 0 -1 192 192 192 255 0.10536 0.480394
1.23661 0 -0.024712 1 0 -2 192 192 192 255 0.10536 0.480394
-1.41684 -0.272564 0.277649 -3 0 3 192 192 192 255 0.173674 0.067537
-1.41684 -0.272564 -0.277649 -3 0 -3 192 192 192 255 0.173674 0.067537
-1.41684 -0.369693 -0.277649 -2 -2 -1 192 192 192 255 0.173674 0.067537
-1.41684 -0.369693 0.277649 -1 -1 2 192 192 192 255 0.173674 0.067537
-1.41684 -0.192509 0.277649 -3 1.87774 1.68854 192 192 192 255 0.239734 0.06173
-1.41684 -0.126875 0.098656 -3 0.938871 2.34427 192 192 192 255 0.239734 0.06173
-1.41684 -0.192509 -0.277649 -3 0.938871 -2.34427 192 192 192 255 0.239734 0.06173
-1.41684 -0.126875 -0.098656 -3 1.87774 -1.68854 192 192 192 255 0.239734 0.06173
-1.41684 0 0.098656 -2 1 1 192 192 192 255 0.173674 0.067537
-1.41684 0 -0.098656 -1 2 -2 192 192 192 255 0.173674 0.067537
-1.41684 -0.126875 0.098656 -3 0.938871 2.34427 192 192 192 255 0.20126 0.063182
-1.35762 -0.126875 0.098656 0 3.75548 3.37708 192 192 192 255 0.20126 0.063182
-1.35762 0 0.098656 0 3 4 192 192 192 255 0.20126 0.063182
-1.41684 0 0.098656 -2 1 1 192 192 192 255 0.20126 0.063182
-1.35762 -0.126875 -0.098656 0 2.81661 -4.03281 192 192 192 255 0.20126 0.063182
-1.41684 -0.126875 -0.098656 -3 1.87774 -1.68854 192 192 192 255 0.20126 0.063182
-1.41684 0 -0.098656 -1 2 -2 192 192 192 255 0.20126 0.063182
-1.35762 0 -0.098656 0 3 -3 192 192 192 255 0.20126 0.063182
1.41685 -0.369693 -0.277649 1 -1 -1 192 192 192 255 0.20126 0.063182
1.41685 -0.369693 0.277649 2 -2 1 192 192 192 255 0.20126 0.063182
1.41685 -0.272564 0.277649 3 0 4 192 192 192 255 0.20126 0.063182
1.41685 -0.192509 0.277649 3 1.87774 1.68854 192 192 192 255 0.239734 0.06173
1.41685 -0.126875 0.098656 3 0.938871 2.34427 192 192 192 255 0.239734 0.06173
1.35763 -0.126875 0.098656 0 2.81661 4.03281 192 192 192 255 0.20126 0.063182
1.41685 -0.126875 0.098656 3 0.938871 2.34427 192 192 192 255 0.20126 0.063182
1.41685 0 0.098656 1 2 1 192 192 192 255 0.20126 0.063182
1.35763 0 0.098656 0 3 3 192 192 192 255 0.239734 0.06173
1.41685 0 0.098656 1 2 1 192 192 192 255 0.239734 0.06173
1.41685 0 -0.098656 2 1 -1 192 192 192 255 0.239734 0.06173
1.41685 -0.126875 -0.098656 3 0.938871 -2.34427 192 192 192 255 0.20126 0.063182
1.35763 0 -0.098656 0 3 -3 192 192 192 255 0.20126 0.063182
1.41685 0 -0.098656 2 1 -1 192 192 192 255 0.20126 0.063182
1.41685 -0.192509 -0.277649 3 1.87774 -1.68854 192 192 192 255 0.239734 0.06173
1.35763 -0.126875 -0.098656 0 2.81661 -4.03281 192 192 192 255 0.239734 0.06173
1.41685 -0.126875 -0.098656 3 0.938871 -2.34427 192 192 192 255 0.239734 0.06173
1.41685 -0.272564 -0.277649 3 0 -4 192 192 192 255 0.20126 0.063182
-1.35762 -0.369693 -0.277649 0 -3 -4 192 192 192 255 0.890431 0.388195
1.35763 -0.369693 -0.277649 0 -3 -3 192 192 192 255 0.890431 0.388195
1.35763 -0.369693 0.277649 0 -3 3 192 192 192 255 0.890431 0.388195
-1.35762 -0.369693 0.277649 0 -3 3 192 192 192 255 0.890431 0.388195
1.35763 -0.272564 0.277649 0 0 6 192 192 192 255 0.890431 0.388195
-1.35762 -0.272564 0.277649 0 0 5 192 192 192 255 0.890431 0.388195
-1.35762 -0.126875 0.098656 0 3.75548 3.37708 192 192 192 255 0.301897 0.062572
-1.35762 -0.192509 0.277649 0 1.87774 4.68854 192 192 192 255 0.301897 0.062572
1.35763 -0.192509 0.277649 0 2.81661 4.03281 192 192 192 255 0.301897 0.062572
1.35763 -0.126875 0.098656 0 2.81661 4.03281 192 192 192 255 0.301897 0.062572
-1.35762 0 0.098656 0 3 4 192 192 192 255 0.263422 0.064024
-1.35762 -0.126875 0.098656 0 3.75548 3.37708 192 192 192 255 0.263422 0.064024
1.35763 -0.126875 0.098656 0 2.81661 4.03281 192 192 192 255 0.263422 0.064024
1.35763 0 0.098656 0 3 3 192 192 192 255 0.263422 0.064024
-1.35762 0 -0.098656 0 3 -3 192 192 192 255 0.301897 0.062572
-1.35762 0 0.098656 0 3 4 192 192 192 255 0.301897 0.062572
1.35763 0 0.098656 0 3 3 192 192 192 255 0.301897 0.062572
1.35763 0 -0.098656 0 3 -3 192 192 192 255 0.301897 0.062572
1.35763 -0.126875 -0.098656 0 2.81661 -4.03281 192 192 192 255 0.263422 0.064024
-1.35762 -0.126875 -0.098656 0 2.81661 -4.03281 192 192 192 255 0.263422 0.064024
-1.35762 0 -0.098656 0 3 -3 192 192 192 255 0.263422 0.064024
1.35763 0 -0.098656 0 3 -3 192 192 192 255 0.263422 0.064024
1.35763 -0.192509 -0.277649 0 2.81661 -4.03281 192 192 192 255 0.301897 0.062572
-1.35762 -0.192509 -0.277649 0 2.81661 -4.03281 192 192 192 255 0.301897 0.062572
-1.35762 -0.126875 -0.098656 0 2.81661 -4.03281 192 192 192 255 0.301897 0.062572
1.35763 -0.126875 -0.098656 0 2.81661 -4.03281 192 192 192 255 0.301897 0.062572
-1.35762 -0.272564 -0.277649 0 0 -5 192 192 192 255 0.890431 0.388195
1.35763 -0.272564 -0.277649 0 0 -6 192 192 192 255 0.890431 0.388195
-1.35762 -0.192509 0.277649 0 1.87774 4.68854 192 192 192 255 0.20126 0.063182
-1.41684 -0.192509 0.277649 -3 1.87774 1.68854 192 192 192 255 0.20126 0.063182
-1.41684 -0.192509 -0.277649 -3 0.938871 -2.34427 192 192 192 255 0.20126 0.063182
-1.35762 -0.192509 -0.277649 0 2.81661 -4.03281 192 192 192 255 0.20126 0.063182
1.35763 -0.272564 -0.277649 0 0 -6 192 192 192 255 0.263422 0.064024
-1.35762 -0.272564 -0.277649 0 0 -5 192 192 192 255 0.263422 0.064024
-1.35762 -0.192509 -0.277649 0 2.81661 -4.03281 192 192 192 255 0.263422 0.064024
1.35763 -0.192509 -0.277649 0 2.81661 -4.03281 192 192 192 255 0.263422 0.064024
1.35763 -0.192509 -0.277649 0 2.81661 -4.03281 192 192 192 255 0.20126 0.063182
1.41685 -0.192509 -0.277649 3 1.87774 -1.68854 192 192 192 255 0.20126 0.063182
1.35763 -0.192509 0.277649 0 2.81661 4.03281 192 192 192 255 0.20126 0.063182
1.41685 -0.192509 0.277649 3 1.87774 1.68854 192 192 192 255 0.20126 0.063182
-1.35762 -0.192509 0.277649 0 1.87774 4.68854 192 192 192 255 0.263422 0.064024
-1.35762 -0.272564 0.277649 0 0 5 192 192 192 255 0.263422 0.064024
1.35763 -0.272564 0.277649 0 0 6 192 192 192 255 0.263422 0.064024
1.35763 -0.192509 0.277649 0 2.81661 4.03281 192 192 192 255 0.263422 0.064024
3 4 24 25 
3 4 25 7 
3 12 13 28 
3 12 28 29 
3 34 35 24 
3 34 24 4 
3 37 38 6 
3 37 6 5 
3 32 33 7 
3 32 7 25 
3 56 57 58 
3 56 58 59 
3 0 2 9 
3 0 9 8 
3 60 26 27 
3 60 27 61 
3 3 1 11 
3 3 11 10 
3 31 62 63 
3 31 63 30 
3 8 9 64 
3 8 64 65 
3 66 67 68 
3 66 68 69 
3 10 11 15 
3 10 15 14 
3 70 71 72 
3 70 72 73 
3 16 74 75 
3 16 75 17 
3 76 39 17 
3 76 17 75 
3 19 18 77 
3 19 77 78 
3 20 79 80 
3 20 80 81 
3 21 82 83 
3 21 83 84 
3 85 22 86 
3 85 86 87 
3 88 23 89 
3 88 89 90 
3 16 36 91 
3 16 91 74 
3 92 93 94 
3 92 94 95 
3 96 97 95 
3 96 95 94 
3 98 99 100 
3 98 100 101 
3 102 103 104 
3 102 104 105 
3 106 107 108 
3 106 108 109 
3 110 111 112 
3 110 112 113 
3 114 115 116 
3 114 116 117 
3 92 118 119 
3 92 119 93 
3 33 32 120 
3 33 120 121 
3 57 56 2 
3 57 2 0 
3 35 34 122 
3 35 122 123 
3 124 125 126 
3 124 126 127 
3 91 36 128 
3 91 128 129 
3 38 37 1 
3 38 1 3 
3 130 39 76 
3 130 76 131 
3 132 133 134 
3 132 134 135 
3 40 41 43 
3 40 43 42 
3 44 45 47 
3 44 47 46 
3 41 47 45 
3 41 45 43 
3 46 40 42 
3 46 42 44 
3 48 49 51 
3 48 51 50 
3 52 53 55 
3 52 55 54 
3 49 55 53 
3 49 53 51 
3 54 48 50 
3 54 50 52 
