ply
format ascii 1.0
comment VCGLIB generated
comment TextureFile SpaceInteriors_Texture.png
element vertex 52
property float x
property float y
property float z
property float nx
property float ny
property float nz
property uchar red
property uchar green
property uchar blue
property uchar alpha
property float texture_u
property float texture_v
element face 44
property list uchar int vertex_indices
end_header
0.103694 0 0.103694 1 1 2 192 192 192 255 0.301937 0.265206
-0.103694 0 0.103694 -2 2 1 192 192 192 255 0.301937 0.265206
0.103694 -0.062591 0.103694 2.5543 -2.49695 2.1086 192 192 192 255 0.301937 0.265206
-0.103694 -0.062591 0.103694 -2.1086 -2.49695 2.5543 192 192 192 255 0.301937 0.265206
0.103694 -0.062591 -0.103694 2.1086 -2.49696 -2.55429 192 192 192 255 0.301937 0.265206
-0.103694 -0.062591 -0.103694 -2.5543 -2.49697 -2.10857 192 192 192 255 0.301937 0.265206
0.103694 0 -0.103694 2 2 -1 192 192 192 255 0.301937 0.265206
-0.103694 0 -0.103694 -1 1 -2 192 192 192 255 0.301937 0.265206
0.036724 -0.107191 0.036724 2.1086 -2.49695 2.5543 192 192 192 255 0.301937 0.265206
-0.036724 -0.107191 0.036724 -2.5543 -2.49695 2.1086 192 192 192 255 0.301937 0.265206
-0.036724 -0.107191 -0.036722 -2.1086 -2.49696 -2.55429 192 192 192 255 0.264188 0.267384
0.036724 -0.107191 -0.036722 2.5543 -2.49697 -2.10857 192 192 192 255 0.301937 0.265206
0.036724 -0.284153 0.036724 2.61296 2.37035 2.2259 192 192 192 255 0.301937 0.265206
-0.036724 -0.284153 0.036724 -2.22592 2.37035 2.61295 192 192 192 255 0.301937 0.265206
-0.036724 -0.284153 -0.036722 -2.61296 2.37035 -2.2259 192 192 192 255 0.264188 0.267384
0.036724 -0.284153 -0.036722 2.22592 2.37035 -2.61295 192 192 192 255 0.301937 0.265206
0.077427 -0.31573 0.077428 2.22592 2.37035 2.61295 192 192 192 255 0.301937 0.265206
-0.077427 -0.31573 0.077428 -2.61296 2.37035 2.2259 192 192 192 255 0.301937 0.265206
-0.077427 -0.31573 -0.077426 -2.22592 2.37035 -2.61295 192 192 192 255 0.301937 0.265206
0.077427 -0.31573 -0.077426 2.61296 2.37035 -2.2259 192 192 192 255 0.301937 0.265206
0.077427 -0.342693 0.077428 2 -2 1 192 192 192 255 0.239506 0.268836
-0.077427 -0.342693 0.077428 -1 -1 2 192 192 192 255 0.239506 0.268836
-0.077427 -0.342693 -0.077426 -2 -2 -1 192 192 192 255 0.239506 0.268836
0.077427 -0.342693 -0.077426 1 -1 -2 192 192 192 255 0.239506 0.268836
-0.103694 0 0.103694 -2 2 1 192 192 192 255 0.264188 0.267384
-0.103694 0 -0.103694 -1 1 -2 192 192 192 255 0.264188 0.267384
-0.103694 -0.062591 -0.103694 -2.5543 -2.49697 -2.10857 192 192 192 255 0.264188 0.267384
-0.103694 -0.062591 0.103694 -2.1086 -2.49695 2.5543 192 192 192 255 0.264188 0.267384
0.103694 0 -0.103694 2 2 -1 192 192 192 255 0.264188 0.267384
0.103694 0 0.103694 1 1 2 192 192 192 255 0.264188 0.267384
0.103694 -0.062591 0.103694 2.5543 -2.49695 2.1086 192 192 192 255 0.264188 0.267384
0.103694 -0.062591 -0.103694 2.1086 -2.49696 -2.55429 192 192 192 255 0.264188 0.267384
-0.036724 -0.107191 0.036724 -2.5543 -2.49695 2.1086 192 192 192 255 0.264188 0.267384
-0.036724 -0.107191 -0.036722 -2.1086 -2.49696 -2.55429 192 192 192 255 0.301937 0.265206
0.036724 -0.107191 0.036724 2.1086 -2.49695 2.5543 192 192 192 255 0.264188 0.267384
0.036724 -0.107191 -0.036722 2.5543 -2.49697 -2.10857 192 192 192 255 0.264188 0.267384
-0.036724 -0.284153 0.036724 -2.22592 2.37035 2.61295 192 192 192 255 0.264188 0.267384
-0.036724 -0.284153 -0.036722 -2.61296 2.37035 -2.2259 192 192 192 255 0.301937 0.265206
0.036724 -0.284153 0.036724 2.61296 2.37035 2.2259 192 192 192 255 0.264188 0.267384
0.036724 -0.284153 -0.036722 2.22592 2.37035 -2.61295 192 192 192 255 0.264188 0.267384
-0.077427 -0.342693 0.077428 -1 -1 2 192 192 192 255 0.301937 0.265206
0.077427 -0.342693 0.077428 2 -2 1 192 192 192 255 0.301937 0.265206
-0.077427 -0.31573 0.077428 -2.61296 2.37035 2.2259 192 192 192 255 0.264188 0.267384
-0.077427 -0.31573 -0.077426 -2.22592 2.37035 -2.61295 192 192 192 255 0.264188 0.267384
-0.077427 -0.342693 -0.077426 -2 -2 -1 192 192 192 255 0.264188 0.267384
-0.077427 -0.342693 0.077428 -1 -1 2 192 192 192 255 0.264188 0.267384
0.077427 -0.342693 -0.077426 1 -1 -2 192 192 192 255 0.301937 0.265206
-0.077427 -0.342693 -0.077426 -2 -2 -1 192 192 192 255 0.301937 0.265206
0.077427 -0.31573 -0.077426 2.61296 2.37035 -2.2259 192 192 192 255 0.264188 0.267384
0.077427 -0.31573 0.077428 2.22592 2.37035 2.61295 192 192 192 255 0.264188 0.267384
0.077427 -0.342693 0.077428 2 -2 1 192 192 192 255 0.264188 0.267384
0.077427 -0.342693 -0.077426 1 -1 -2 192 192 192 255 0.264188 0.267384
3 0 1 3 
3 0 3 2 
3 20 21 22 
3 20 22 23 
3 4 5 7 
3 4 7 6 
3 6 7 1 
3 6 1 0 
3 24 25 26 
3 24 26 27 
3 28 29 30 
3 28 30 31 
3 2 3 9 
3 2 9 8 
3 27 26 10 
3 27 10 32 
3 5 4 11 
3 5 11 33 
3 31 30 34 
3 31 34 35 
3 8 9 13 
3 8 13 12 
3 32 10 14 
3 32 14 36 
3 33 11 15 
3 33 15 37 
3 35 34 38 
3 35 38 39 
3 12 13 17 
3 12 17 16 
3 13 37 18 
3 13 18 17 
3 37 15 19 
3 37 19 18 
3 15 12 16 
3 15 16 19 
3 16 17 40 
3 16 40 41 
3 42 43 44 
3 42 44 45 
3 18 19 46 
3 18 46 47 
3 48 49 50 
3 48 50 51 
