ply
format ascii 1.0
comment VCGLIB generated
comment TextureFile SpaceInteriors_Texture.png
element vertex 28
property float x
property float y
property float z
property float nx
property float ny
property float nz
property uchar red
property uchar green
property uchar blue
property uchar alpha
property float texture_u
property float texture_v
element face 28
property list uchar int vertex_indices
end_header
-1.09027 -0.073023 -0.277649 -1 -3 -2 192 192 192 255 0.890431 0.388195
1.09027 -0.073023 -0.277649 2 -3 -1 192 192 192 255 0.890431 0.388195
-1.09027 -0.140613 -0.277649 -2 -2 -1 192 192 192 255 0.890431 0.388195
1.09027 -0.140613 -0.277649 1 -1 -2 192 192 192 255 0.890431 0.388195
-1.09027 -0.140613 0.277649 -1 -1 2 192 192 192 255 0.890431 0.388195
1.09027 -0.140613 0.277649 2 -2 1 192 192 192 255 0.890431 0.388195
-1.09027 -0.073023 0.277649 -2 -3 1 192 192 192 255 0.890431 0.388195
1.09027 -0.073023 0.277649 1 -3 2 192 192 192 255 0.890431 0.388195
-1.24803 -0.073023 0.42005 -1 -3 2 192 192 192 255 0.291756 0.061543
1.24803 -0.073023 0.42005 2 -3 1 192 192 192 255 0.291756 0.061543
1.24803 -0.073023 -0.42005 1 -3 -2 192 192 192 255 0.291756 0.061543
-1.24803 -0.073023 -0.42005 -2 -3 -1 192 192 192 255 0.291756 0.061543
-1.24803 0 0.42005 -2 2 1 192 192 192 255 0.291756 0.061543
1.24803 0 0.42005 1 1 2 192 192 192 255 0.291756 0.061543
1.24803 0 -0.42005 2 2 -1 192 192 192 255 0.291756 0.061543
-1.24803 0 -0.42005 -1 1 -2 192 192 192 255 0.291756 0.061543
-1.09027 -0.073023 0.277649 -2 -3 1 192 192 192 255 0.291756 0.061543
1.09027 -0.073023 0.277649 1 -3 2 192 192 192 255 0.291756 0.061543
1.09027 -0.073023 -0.277649 2 -3 -1 192 192 192 255 0.291756 0.061543
-1.09027 -0.073023 -0.277649 -1 -3 -2 192 192 192 255 0.291756 0.061543
-1.24803 -0.073023 0.42005 -1 -3 2 192 192 192 255 0.236584 0.062269
1.24803 -0.073023 0.42005 2 -3 1 192 192 192 255 0.236584 0.062269
1.24803 0 0.42005 1 1 2 192 192 192 255 0.236584 0.062269
-1.24803 0 0.42005 -2 2 1 192 192 192 255 0.236584 0.062269
1.24803 -0.073023 -0.42005 1 -3 -2 192 192 192 255 0.236584 0.062269
1.24803 0 -0.42005 2 2 -1 192 192 192 255 0.236584 0.062269
-1.24803 -0.073023 -0.42005 -2 -3 -1 192 192 192 255 0.236584 0.062269
-1.24803 0 -0.42005 -1 1 -2 192 192 192 255 0.236584 0.062269
3 0 1 3 
3 0 3 2 
3 2 3 5 
3 2 5 4 
3 4 5 7 
3 4 7 6 
3 12 13 14 
3 12 14 15 
3 1 7 5 
3 1 5 3 
3 6 0 2 
3 6 2 4 
3 16 17 9 
3 16 9 8 
3 17 18 10 
3 17 10 9 
3 18 19 11 
3 18 11 10 
3 19 16 8 
3 19 8 11 
3 20 21 22 
3 20 22 23 
3 21 24 25 
3 21 25 22 
3 24 26 27 
3 24 27 25 
3 26 20 23 
3 26 23 27 
