ply
format ascii 1.0
comment VCGLIB generated
comment TextureFile SpaceInteriors_Texture.png
element vertex 64
property float x
property float y
property float z
property float nx
property float ny
property float nz
property uchar red
property uchar green
property uchar blue
property uchar alpha
property float texture_u
property float texture_v
element face 48
property list uchar int vertex_indices
end_header
2.42585 -0.582248 0.817039 -1 -1 2 192 192 192 255 0.300413 0.083793
2.54456 -0.582248 0.817039 2 -2 1 192 192 192 255 0.300413 0.083793
2.42585 0.582248 0.817039 -2 2 1 192 192 192 255 0.300413 0.083793
2.54456 0.582248 0.817039 1 1 2 192 192 192 255 0.300413 0.083793
2.42585 0.582248 -0.817039 -1 1 -2 192 192 192 255 0.300413 0.083793
2.54456 0.582248 -0.817039 2 2 -1 192 192 192 255 0.300413 0.083793
2.42585 -0.582248 -0.817039 -2 -2 -1 192 192 192 255 0.300413 0.083793
2.54456 -0.582248 -0.817039 1 -1 -2 192 192 192 255 0.300413 0.083793
0.067139 -0.582248 0.817039 -1 -1 2 192 192 192 255 0.300413 0.083793
0.185856 -0.582248 0.817039 2 -2 1 192 192 192 255 0.300413 0.083793
0.067139 0.582248 0.817039 -2 2 1 192 192 192 255 0.300413 0.083793
0.185856 0.582248 0.817039 1 1 2 192 192 192 255 0.300413 0.083793
0.067139 0.582248 -0.817039 -1 1 -2 192 192 192 255 0.300413 0.083793
0.185856 0.582248 -0.817039 2 2 -1 192 192 192 255 0.300413 0.083793
0.067139 -0.582248 -0.817039 -2 -2 -1 192 192 192 255 0.300413 0.083793
0.185856 -0.582248 -0.817039 1 -1 -2 192 192 192 255 0.300413 0.083793
0 -0.5 0.732834 -1 -1 2 192 192 192 255 0.357879 0.083793
5 -0.5 0.732834 2 -2 1 192 192 192 255 0.357879 0.083793
0 0.5 0.732834 -2 2 1 192 192 192 255 0.357879 0.083793
5 0.5 0.732834 1 1 2 192 192 192 255 0.357879 0.083793
0 0.5 -0.732834 -1 1 -2 192 192 192 255 0.389323 0.086503
5 0.5 -0.732834 2 2 -1 192 192 192 255 0.389323 0.086503
0 -0.5 -0.732834 -2 -2 -1 192 192 192 255 0.357879 0.083793
5 -0.5 -0.732834 1 -1 -2 192 192 192 255 0.357879 0.083793
4.83441 -0.582248 0.817039 -1 -1 2 192 192 192 255 0.300413 0.083793
4.95313 -0.582248 0.817039 2 -2 1 192 192 192 255 0.300413 0.083793
4.83441 0.582248 0.817039 -2 2 1 192 192 192 255 0.300413 0.083793
4.95313 0.582248 0.817039 1 1 2 192 192 192 255 0.300413 0.083793
4.83441 0.582248 -0.817039 -1 1 -2 192 192 192 255 0.300413 0.083793
4.95313 0.582248 -0.817039 2 2 -1 192 192 192 255 0.300413 0.083793
4.83441 -0.582248 -0.817039 -2 -2 -1 192 192 192 255 0.300413 0.083793
4.95313 -0.582248 -0.817039 1 -1 -2 192 192 192 255 0.300413 0.083793
2.54456 -0.582248 0.817039 2 -2 1 192 192 192 255 0.267343 0.084877
2.54456 -0.582248 -0.817039 1 -1 -2 192 192 192 255 0.267343 0.084877
2.54456 0.582248 -0.817039 2 2 -1 192 192 192 255 0.267343 0.084877
2.54456 0.582248 0.817039 1 1 2 192 192 192 255 0.267343 0.084877
2.42585 -0.582248 -0.817039 -2 -2 -1 192 192 192 255 0.267343 0.084877
2.42585 -0.582248 0.817039 -1 -1 2 192 192 192 255 0.267343 0.084877
2.42585 0.582248 0.817039 -2 2 1 192 192 192 255 0.267343 0.084877
2.42585 0.582248 -0.817039 -1 1 -2 192 192 192 255 0.267343 0.084877
0.185856 -0.582248 0.817039 2 -2 1 192 192 192 255 0.267343 0.084877
0.185856 -0.582248 -0.817039 1 -1 -2 192 192 192 255 0.267343 0.084877
0.185856 0.582248 -0.817039 2 2 -1 192 192 192 255 0.267343 0.084877
0.185856 0.582248 0.817039 1 1 2 192 192 192 255 0.267343 0.084877
0.067139 -0.582248 -0.817039 -2 -2 -1 192 192 192 255 0.267343 0.084877
0.067139 -0.582248 0.817039 -1 -1 2 192 192 192 255 0.267343 0.084877
0.067139 0.582248 0.817039 -2 2 1 192 192 192 255 0.267343 0.084877
0.067139 0.582248 -0.817039 -1 1 -2 192 192 192 255 0.267343 0.084877
0 0.5 0.732834 -2 2 1 192 192 192 255 0.389323 0.086503
5 0.5 0.732834 1 1 2 192 192 192 255 0.389323 0.086503
0 0.5 -0.732834 -1 1 -2 192 192 192 255 0.357879 0.083793
5 0.5 -0.732834 2 2 -1 192 192 192 255 0.357879 0.083793
0 -0.5 -0.732834 -2 -2 -1 192 192 192 255 0.328604 0.087045
5 -0.5 -0.732834 1 -1 -2 192 192 192 255 0.328604 0.087045
5 -0.5 0.732834 2 -2 1 192 192 192 255 0.328604 0.087045
0 -0.5 0.732834 -1 -1 2 192 192 192 255 0.328604 0.087045
4.95313 -0.582248 0.817039 2 -2 1 192 192 192 255 0.267343 0.084877
4.95313 -0.582248 -0.817039 1 -1 -2 192 192 192 255 0.267343 0.084877
4.95313 0.582248 -0.817039 2 2 -1 192 192 192 255 0.267343 0.084877
4.95313 0.582248 0.817039 1 1 2 192 192 192 255 0.267343 0.084877
4.83441 -0.582248 -0.817039 -2 -2 -1 192 192 192 255 0.267343 0.084877
4.83441 -0.582248 0.817039 -1 -1 2 192 192 192 255 0.267343 0.084877
4.83441 0.582248 0.817039 -2 2 1 192 192 192 255 0.267343 0.084877
4.83441 0.582248 -0.817039 -1 1 -2 192 192 192 255 0.267343 0.084877
3 0 1 3 
3 0 3 2 
3 2 3 5 
3 2 5 4 
3 4 5 7 
3 4 7 6 
3 6 7 1 
3 6 1 0 
3 32 33 34 
3 32 34 35 
3 36 37 38 
3 36 38 39 
3 8 9 11 
3 8 11 10 
3 10 11 13 
3 10 13 12 
3 12 13 15 
3 12 15 14 
3 14 15 9 
3 14 9 8 
3 40 41 42 
3 40 42 43 
3 44 45 46 
3 44 46 47 
3 16 17 19 
3 16 19 18 
3 48 49 21 
3 48 21 20 
3 50 51 23 
3 50 23 22 
3 52 53 54 
3 52 54 55 
3 17 23 51 
3 17 51 19 
3 22 16 18 
3 22 18 50 
3 24 25 27 
3 24 27 26 
3 26 27 29 
3 26 29 28 
3 28 29 31 
3 28 31 30 
3 30 31 25 
3 30 25 24 
3 56 57 58 
3 56 58 59 
3 60 61 62 
3 60 62 63 
