ply
format ascii 1.0
comment VCGLIB generated
comment TextureFile SpaceInteriors_Texture.png
element vertex 136
property float x
property float y
property float z
property float nx
property float ny
property float nz
property uchar red
property uchar green
property uchar blue
property uchar alpha
property float texture_u
property float texture_v
element face 160
property list uchar int vertex_indices
end_header
-5 3.75 0 3.59806 -1.46425 4.27947 192 192 192 255 0.263069 0.063091
-3.75 5 0 1.46426 -3.59807 4.27945 192 192 192 255 0.263069 0.063091
-1.25 5 0 -1.46427 -3.59803 4.27947 192 192 192 255 0.263069 0.063091
0 3.75 0 -3.59806 -1.46428 4.27945 192 192 192 255 0.263069 0.063091
0 1.25 0 -3.59807 1.46424 4.27947 192 192 192 255 0.263069 0.063091
-1.25 0 0 -1.46426 3.59806 4.27946 192 192 192 255 0.263069 0.063091
-3.75 -0 0 1.46425 3.59803 4.27949 192 192 192 255 0.263069 0.063091
-5 1.25 0 3.59803 1.46428 4.27947 192 192 192 255 0.263069 0.063091
-1.81558 3.86884 -1.14455 -1.46427 -3.59806 7.27945 192 192 192 255 0.263069 0.063091
-1.13116 3.18442 -1.14455 -3.59804 -1.46427 7.27947 192 192 192 255 0.263069 0.063091
-3.18442 3.86884 -1.14455 1.46422 -3.59807 7.27948 192 192 192 255 0.263069 0.063091
-3.86884 3.18442 -1.14455 3.59804 -1.46423 7.27949 192 192 192 255 0.263069 0.063091
-3.86884 1.81558 -1.14455 3.59802 1.46431 7.27946 192 192 192 255 0.263069 0.063091
-3.18442 1.13116 -1.14455 1.46427 3.59806 7.27946 192 192 192 255 0.263069 0.063091
-1.81558 1.13116 -1.14455 -1.46423 3.59805 7.27949 192 192 192 255 0.263069 0.063091
-1.13116 1.81558 -1.14455 -3.59803 1.46423 7.2795 192 192 192 255 0.263069 0.063091
-3.54188 4.92047 -0.080475 1.88685 -2.37054 1.86923 192 192 192 255 0.263069 0.063091
-1.45811 4.92047 -0.080475 -0.943415 -3.30657 0.922139 192 192 192 255 0.263069 0.063091
-3.07047 3.97764 -1.03447 0.943415 -0.494814 3.76712 192 192 192 255 0.263069 0.063091
-1.92953 3.97764 -1.03447 -1.88685 -0.964675 3.29171 192 192 192 255 0.263069 0.063091
-4.92047 1.45812 -0.080475 2.37055 1.88685 1.86922 192 192 192 255 0.263069 0.063091
-4.92047 3.54188 -0.080475 3.30657 -0.943424 0.922139 192 192 192 255 0.263069 0.063091
-3.97764 1.92953 -1.03447 0.494806 0.943424 3.76712 192 192 192 255 0.263069 0.063091
-3.97764 3.07047 -1.03447 0.964666 -1.88685 3.29171 192 192 192 255 0.263069 0.063091
-3.54188 0.079534 -0.080475 0.943419 3.30657 0.922139 192 192 192 255 0.263069 0.063091
-1.45811 0.079534 -0.080475 -1.88685 2.37054 1.86923 192 192 192 255 0.263069 0.063091
-1.92953 1.02236 -1.03447 -0.943419 0.49481 3.76713 192 192 192 255 0.263069 0.063091
-3.07047 1.02236 -1.03447 1.88685 0.964668 3.29171 192 192 192 255 0.263069 0.063091
-0.079533 1.45812 -0.080475 -3.30657 0.943425 0.922139 192 192 192 255 0.263069 0.063091
-0.079533 3.54188 -0.080475 -2.37055 -1.88685 1.86922 192 192 192 255 0.263069 0.063091
-1.02236 3.07047 -1.03447 -0.494804 -0.943425 3.76712 192 192 192 255 0.263069 0.063091
-1.02236 1.92953 -1.03447 -0.964666 1.88685 3.29171 192 192 192 255 0.263069 0.063091
-1.20738 4.83451 -0.082886 -0.361214 -3.1108 1.80408 192 192 192 255 0.263069 0.063091
-0.165493 3.79262 -0.082886 -3.05497 -1.68017 0.951973 192 192 192 255 0.263069 0.063091
-1.67879 3.89168 -1.03687 0.366336 -1.00845 3.71306 192 192 192 255 0.263069 0.063091
-1.10832 3.32121 -1.03687 -2.08752 0.662061 3.18461 192 192 192 255 0.263069 0.063091
-4.83451 3.79262 -0.082886 3.1108 -0.36119 1.80407 192 192 192 255 0.263069 0.063091
-3.79262 4.83451 -0.082886 1.68014 -3.05499 0.951978 192 192 192 255 0.263069 0.063091
-3.89168 3.32121 -1.03688 1.00845 0.366379 3.71308 192 192 192 255 0.263069 0.063091
-3.32121 3.89168 -1.03688 -0.662102 -2.08752 3.18466 192 192 192 255 0.263069 0.063091
-3.79262 0.165491 -0.082886 0.361188 3.11077 1.80411 192 192 192 255 0.263069 0.063091
-4.83451 1.20738 -0.082878 3.05493 1.68021 0.951977 192 192 192 255 0.263069 0.063091
-3.32121 1.10832 -1.03687 -0.366345 1.00845 3.71306 192 192 192 255 0.263069 0.063091
-3.89168 1.67879 -1.03687 2.08751 -0.662043 3.18461 192 192 192 255 0.263069 0.063091
-0.165493 1.20738 -0.082886 -3.1108 0.361184 1.80408 192 192 192 255 0.263069 0.063091
-1.20738 0.165492 -0.082886 -1.68015 3.05498 0.951977 192 192 192 255 0.263069 0.063091
-1.10832 1.67879 -1.03688 -1.00846 -0.366391 3.71308 192 192 192 255 0.263069 0.063091
-1.67879 1.10832 -1.03688 0.662102 2.0875 3.18466 192 192 192 255 0.263069 0.063091
-1.92953 3.64094 -1.14455 -0.707106 -2.70711 3 192 192 192 255 0.263069 0.063091
-1.35906 3.07047 -1.14455 -2.41421 -1.41422 3 192 192 192 255 0.263069 0.063091
-3.07047 3.64094 -1.14455 1.41421 -2.41422 3 192 192 192 255 0.263069 0.063091
-3.64094 3.07047 -1.14455 2.70711 -0.707108 3 192 192 192 255 0.263069 0.063091
-3.64094 1.92953 -1.14455 2.41421 1.41422 3 192 192 192 255 0.263069 0.063091
-3.07047 1.35906 -1.14455 0.707105 2.70711 3 192 192 192 255 0.263069 0.063091
-1.92953 1.35906 -1.14455 -1.41421 2.41422 3 192 192 192 255 0.263069 0.063091
-1.35906 1.92953 -1.14455 -2.70711 0.707108 3 192 192 192 255 0.263069 0.063091
-1.92953 3.64094 -1.40469 -1.41421 -2.41422 0 192 192 192 255 0.203471 0.063091
-1.35906 3.07047 -1.40469 -2.70711 -0.707108 0 192 192 192 255 0.203471 0.063091
-3.07047 3.64094 -1.40469 0.707105 -2.70711 0 192 192 192 255 0.203471 0.063091
-3.64094 3.07047 -1.40469 2.41421 -1.41422 0 192 192 192 255 0.203471 0.063091
-3.64094 1.92953 -1.40469 2.70711 0.707108 0 192 192 192 255 0.203471 0.063091
-3.07047 1.35906 -1.40469 1.41421 2.41422 0 192 192 192 255 0.203471 0.063091
-1.92953 1.35906 -1.40469 -0.707106 2.70711 0 192 192 192 255 0.203471 0.063091
-1.35906 1.92953 -1.40469 -2.41421 1.41422 0 192 192 192 255 0.203471 0.063091
-1.08041 4.96147 -0.271103 -0.215908 -1.5907 -1.21869 192 192 192 255 0.203471 0.063091
-0.038525 3.91959 -0.271103 -1.6465 1.10308 -0.366589 192 192 192 255 0.203471 0.063091
-1.55182 4.01865 -1.22509 2.12633 -0.623253 1.01396 192 192 192 255 0.203471 0.063091
-0.98135 3.44818 -1.22509 0.455821 1.83062 1.54238 192 192 192 255 0.203471 0.063091
-3.54188 5.10549 -0.263336 0.943426 -1.1728 -1.18666 192 192 192 255 0.203471 0.063091
-1.45811 5.10549 -0.263336 -1.88685 -0.236774 -0.239572 192 192 192 255 0.203471 0.063091
-3.07047 4.16266 -1.21733 1.88685 1.16911 1.18292 192 192 192 255 0.203471 0.063091
-1.92953 4.16266 -1.21733 -0.943426 1.63897 1.65833 192 192 192 255 0.203471 0.063091
-4.96147 3.91959 -0.271103 1.59069 -0.215899 -1.2187 192 192 192 255 0.203471 0.063091
-3.91959 4.96148 -0.271103 -1.10308 -1.64651 -0.366584 192 192 192 255 0.203471 0.063091
-4.01865 3.44818 -1.2251 0.623243 2.12634 1.01396 192 192 192 255 0.203471 0.063091
-3.44818 4.01865 -1.2251 -1.83061 0.455815 1.54238 192 192 192 255 0.203471 0.063091
-5.10549 1.45812 -0.263336 1.1728 0.943427 -1.18666 192 192 192 255 0.203471 0.063091
-5.10549 3.54188 -0.263336 0.236777 -1.88685 -0.239573 192 192 192 255 0.203471 0.063091
-4.16266 1.92953 -1.21733 -1.16911 1.88685 1.18292 192 192 192 255 0.203471 0.063091
-4.16266 3.07047 -1.21733 -1.63897 -0.943426 1.65833 192 192 192 255 0.203471 0.063091
-3.91959 0.038525 -0.271103 0.215903 1.5907 -1.21869 192 192 192 255 0.203471 0.063091
-4.96147 1.08041 -0.271095 1.6465 -1.10308 -0.366589 192 192 192 255 0.203471 0.063091
-3.44818 0.981352 -1.22509 -2.12633 0.623253 1.01396 192 192 192 255 0.203471 0.063091
-4.01865 1.55182 -1.22509 -0.45582 -1.83062 1.54238 192 192 192 255 0.203471 0.063091
-3.54188 -0.105488 -0.263336 1.88685 0.236774 -0.239572 192 192 192 255 0.203471 0.063091
-1.45811 -0.105488 -0.263336 -0.943426 1.1728 -1.18666 192 192 192 255 0.203471 0.063091
-1.92953 0.837339 -1.21733 -1.88685 -1.16911 1.18292 192 192 192 255 0.203471 0.063091
-3.07047 0.837339 -1.21733 0.943426 -1.63897 1.65833 192 192 192 255 0.203471 0.063091
-0.038525 1.08041 -0.271103 -1.59069 0.215902 -1.2187 192 192 192 255 0.203471 0.063091
-1.08041 0.038523 -0.271103 1.10308 1.6465 -0.366586 192 192 192 255 0.203471 0.063091
-0.98135 1.55182 -1.2251 -0.623251 -2.12634 1.01396 192 192 192 255 0.203471 0.063091
-1.55182 0.981351 -1.2251 1.83061 -0.455822 1.54238 192 192 192 255 0.203471 0.063091
0.105488 1.45812 -0.263336 -0.236777 1.88685 -0.239574 192 192 192 255 0.203471 0.063091
0.105488 3.54188 -0.263336 -1.1728 -0.943426 -1.18666 192 192 192 255 0.203471 0.063091
-0.837341 3.07047 -1.21733 1.16911 -1.88685 1.18292 192 192 192 255 0.203471 0.063091
-0.837341 1.92953 -1.21733 1.63897 0.943427 1.65833 192 192 192 255 0.203471 0.063091
-1.35906 3.07047 -1.14455 -2.41421 -1.41422 3 192 192 192 255 0.203471 0.063091
-1.92953 3.64094 -1.14455 -0.707106 -2.70711 3 192 192 192 255 0.203471 0.063091
-3.07047 3.64094 -1.14455 1.41421 -2.41422 3 192 192 192 255 0.203471 0.063091
-3.64094 3.07047 -1.14455 2.70711 -0.707108 3 192 192 192 255 0.203471 0.063091
-3.64094 1.92953 -1.14455 2.41421 1.41422 3 192 192 192 255 0.203471 0.063091
-3.07047 1.35906 -1.14455 0.707105 2.70711 3 192 192 192 255 0.203471 0.063091
-1.92953 1.35906 -1.14455 -1.41421 2.41422 3 192 192 192 255 0.203471 0.063091
-1.35906 1.92953 -1.14455 -2.70711 0.707108 3 192 192 192 255 0.203471 0.063091
-0.165493 3.79262 -0.082886 -3.05497 -1.68017 0.951973 192 192 192 255 0.203471 0.063091
-1.20738 4.83451 -0.082886 -0.361214 -3.1108 1.80408 192 192 192 255 0.203471 0.063091
-1.67879 3.89168 -1.03687 0.366336 -1.00845 3.71306 192 192 192 255 0.203471 0.063091
-1.10832 3.32121 -1.03687 -2.08752 0.662061 3.18461 192 192 192 255 0.203471 0.063091
-1.45811 4.92047 -0.080475 -0.943415 -3.30657 0.922139 192 192 192 255 0.203471 0.063091
-3.54188 4.92047 -0.080475 1.88685 -2.37054 1.86923 192 192 192 255 0.203471 0.063091
-3.07047 3.97764 -1.03447 0.943415 -0.494814 3.76712 192 192 192 255 0.203471 0.063091
-1.92953 3.97764 -1.03447 -1.88685 -0.964675 3.29171 192 192 192 255 0.203471 0.063091
-3.79262 4.83451 -0.082886 1.68014 -3.05499 0.951978 192 192 192 255 0.203471 0.063091
-4.83451 3.79262 -0.082886 3.1108 -0.36119 1.80407 192 192 192 255 0.203471 0.063091
-3.89168 3.32121 -1.03688 1.00845 0.366379 3.71308 192 192 192 255 0.203471 0.063091
-3.32121 3.89168 -1.03688 -0.662102 -2.08752 3.18466 192 192 192 255 0.203471 0.063091
-4.92047 3.54188 -0.080475 3.30657 -0.943424 0.922139 192 192 192 255 0.203471 0.063091
-4.92047 1.45812 -0.080475 2.37055 1.88685 1.86922 192 192 192 255 0.203471 0.063091
-3.97764 1.92953 -1.03447 0.494806 0.943424 3.76712 192 192 192 255 0.203471 0.063091
-3.97764 3.07047 -1.03447 0.964666 -1.88685 3.29171 192 192 192 255 0.203471 0.063091
-4.83451 1.20738 -0.082878 3.05493 1.68021 0.951977 192 192 192 255 0.203471 0.063091
-3.79262 0.165491 -0.082886 0.361188 3.11077 1.80411 192 192 192 255 0.203471 0.063091
-3.32121 1.10832 -1.03687 -0.366345 1.00845 3.71306 192 192 192 255 0.203471 0.063091
-3.89168 1.67879 -1.03687 2.08751 -0.662043 3.18461 192 192 192 255 0.203471 0.063091
-3.54188 0.079534 -0.080475 0.943419 3.30657 0.922139 192 192 192 255 0.203471 0.063091
-1.45811 0.079534 -0.080475 -1.88685 2.37054 1.86923 192 192 192 255 0.203471 0.063091
-1.92953 1.02236 -1.03447 -0.943419 0.49481 3.76713 192 192 192 255 0.203471 0.063091
-3.07047 1.02236 -1.03447 1.88685 0.964668 3.29171 192 192 192 255 0.203471 0.063091
-1.20738 0.165492 -0.082886 -1.68015 3.05498 0.951977 192 192 192 255 0.203471 0.063091
-0.165493 1.20738 -0.082886 -3.1108 0.361184 1.80408 192 192 192 255 0.203471 0.063091
-1.10832 1.67879 -1.03688 -1.00846 -0.366391 3.71308 192 192 192 255 0.203471 0.063091
-1.67879 1.10832 -1.03688 0.662102 2.0875 3.18466 192 192 192 255 0.203471 0.063091
-0.079533 1.45812 -0.080475 -3.30657 0.943425 0.922139 192 192 192 255 0.203471 0.063091
-0.079533 3.54188 -0.080475 -2.37055 -1.88685 1.86922 192 192 192 255 0.203471 0.063091
-1.02236 3.07047 -1.03447 -0.494804 -0.943425 3.76712 192 192 192 255 0.203471 0.063091
-1.02236 1.92953 -1.03447 -0.964666 1.88685 3.29171 192 192 192 255 0.203471 0.063091
3 2 1 16 
3 2 16 17 
3 1 10 18 
3 1 18 16 
3 10 8 19 
3 10 19 18 
3 8 2 17 
3 8 17 19 
3 0 7 20 
3 0 20 21 
3 7 12 22 
3 7 22 20 
3 12 11 23 
3 12 23 22 
3 11 0 21 
3 11 21 23 
3 6 5 25 
3 6 25 24 
3 5 14 26 
3 5 26 25 
3 14 13 27 
3 14 27 26 
3 13 6 24 
3 13 24 27 
3 4 3 29 
3 4 29 28 
3 3 9 30 
3 3 30 29 
3 9 15 31 
3 9 31 30 
3 15 4 28 
3 15 28 31 
3 3 2 32 
3 3 32 33 
3 2 8 34 
3 2 34 32 
3 8 9 35 
3 8 35 34 
3 9 3 33 
3 9 33 35 
3 1 0 36 
3 1 36 37 
3 0 11 38 
3 0 38 36 
3 11 10 39 
3 11 39 38 
3 10 1 37 
3 10 37 39 
3 7 6 40 
3 7 40 41 
3 6 13 42 
3 6 42 40 
3 13 12 43 
3 13 43 42 
3 12 7 41 
3 12 41 43 
3 5 4 44 
3 5 44 45 
3 4 15 46 
3 4 46 44 
3 15 14 47 
3 15 47 46 
3 14 5 45 
3 14 45 47 
3 9 8 48 
3 9 48 49 
3 8 10 50 
3 8 50 48 
3 10 11 51 
3 10 51 50 
3 11 12 52 
3 11 52 51 
3 12 13 53 
3 12 53 52 
3 13 14 54 
3 13 54 53 
3 14 15 55 
3 14 55 54 
3 15 9 49 
3 15 49 55 
3 96 97 56 
3 96 56 57 
3 97 98 58 
3 97 58 56 
3 98 99 59 
3 98 59 58 
3 99 100 60 
3 99 60 59 
3 100 101 61 
3 100 61 60 
3 101 102 62 
3 101 62 61 
3 102 103 63 
3 102 63 62 
3 103 96 57 
3 103 57 63 
3 104 105 64 
3 104 64 65 
3 105 106 66 
3 105 66 64 
3 106 107 67 
3 106 67 66 
3 107 104 65 
3 107 65 67 
3 108 109 68 
3 108 68 69 
3 109 110 70 
3 109 70 68 
3 110 111 71 
3 110 71 70 
3 111 108 69 
3 111 69 71 
3 112 113 72 
3 112 72 73 
3 113 114 74 
3 113 74 72 
3 114 115 75 
3 114 75 74 
3 115 112 73 
3 115 73 75 
3 116 117 76 
3 116 76 77 
3 117 118 78 
3 117 78 76 
3 118 119 79 
3 118 79 78 
3 119 116 77 
3 119 77 79 
3 120 121 80 
3 120 80 81 
3 121 122 82 
3 121 82 80 
3 122 123 83 
3 122 83 82 
3 123 120 81 
3 123 81 83 
3 124 125 85 
3 124 85 84 
3 125 126 86 
3 125 86 85 
3 126 127 87 
3 126 87 86 
3 127 124 84 
3 127 84 87 
3 128 129 88 
3 128 88 89 
3 129 130 90 
3 129 90 88 
3 130 131 91 
3 130 91 90 
3 131 128 89 
3 131 89 91 
3 132 133 93 
3 132 93 92 
3 133 134 94 
3 133 94 93 
3 134 135 95 
3 134 95 94 
3 135 132 92 
3 135 92 95 
