ply
format ascii 1.0
comment VCGLIB generated
comment TextureFile SpaceInteriors_Texture.png
element vertex 20
property float x
property float y
property float z
property float nx
property float ny
property float nz
property uchar red
property uchar green
property uchar blue
property uchar alpha
property float texture_u
property float texture_v
element face 10
property list uchar int vertex_indices
end_header
-5 0 0.313253 -2 -1 2 192 192 192 255 0.650986 0.094178
0 0 0.313253 1 -2 1 192 192 192 255 0.834082 0.094178
-5 5 0.313253 -1 2 1 192 192 192 255 0.650986 0.277274
0 5 0.313253 2 1 2 192 192 192 255 0.834082 0.277274
-5 5 0 -2 1 0 192 192 192 255 0.357804 0.062222
0 5 0 1 2 0 192 192 192 255 0.357804 0.062222
-5 0 0 -1 -2 0 192 192 192 255 0.328009 0.062222
0 0 0 2 -1 0 192 192 192 255 0.29635 0.062222
-5 5 0.313253 -1 2 1 192 192 192 255 0.357804 0.062222
0 5 0.313253 2 1 2 192 192 192 255 0.357804 0.062222
-5 0 0.313253 -2 -1 2 192 192 192 255 0.328009 0.062222
-5 5 0.313253 -1 2 1 192 192 192 255 0.328009 0.062222
-5 5 0 -2 1 0 192 192 192 255 0.328009 0.062222
0 0 0.313253 1 -2 1 192 192 192 255 0.29635 0.062222
-5 0 0.313253 -2 -1 2 192 192 192 255 0.29635 0.062222
-5 0 0 -1 -2 0 192 192 192 255 0.29635 0.062222
0 5 0.313253 2 1 2 192 192 192 255 0.328008 0.062222
0 0 0.313253 1 -2 1 192 192 192 255 0.328008 0.062222
0 0 0 2 -1 0 192 192 192 255 0.328008 0.062222
0 5 0 1 2 0 192 192 192 255 0.328008 0.062222
3 3 2 0 
3 3 0 1 
3 8 9 5 
3 8 5 4 
3 10 11 12 
3 10 12 6 
3 13 14 15 
3 13 15 7 
3 16 17 18 
3 16 18 19 
