ply
format ascii 1.0
comment VCGLIB generated
comment TextureFile SpaceInteriors_Texture.png
element vertex 96
property float x
property float y
property float z
property float nx
property float ny
property float nz
property uchar red
property uchar green
property uchar blue
property uchar alpha
property float texture_u
property float texture_v
element face 62
property list uchar int vertex_indices
end_header
1e-006 -0 0.999998 1.12132 -1 2.12132 192 192 192 255 0.200168 0.061667
1 -0 -1e-006 3.53553 -1 1.53553 192 192 192 255 0.200168 0.061667
1e-006 5 0.999998 0.121316 0.999999 2.12132 192 192 192 255 0.300052 0.061667
1 5 -1e-006 2.12132 0.999999 1.12132 192 192 192 255 0.300052 0.061667
1e-006 5 -1e-006 -1 0.999999 -2 192 192 192 255 0.300052 0.061667
1e-006 -0 -1e-006 -2 -0.999999 -1 192 192 192 255 0.200168 0.061667
1e-006 2.5 -1e-006 -3 0 -3 192 192 192 255 0.265187 0.061667
1e-006 2.5 0.999998 2.65684 1.68763e-007 5.65687 192 192 192 255 0.233148 0.061667
1 2.5 -1e-006 4.24264 6.82147e-007 1.24264 192 192 192 255 0.265187 0.061667
0.178689 2.94672 0.821311 2.82842 2 1.41422 192 192 192 255 0.328913 0.062274
0.821313 2.94672 0.178686 0.707117 1 3.53555 192 192 192 255 0.328913 0.062274
0.821313 4.55328 0.178686 1.41422 -2 2.82844 192 192 192 255 0.328913 0.062274
0.178689 4.55328 0.821311 3.53553 -1 0.707109 192 192 192 255 0.328913 0.062274
0.061866 2.94672 0.704488 2.82843 1 -1.07288e-006 192 192 192 255 0.508521 0.747453
0.704489 2.94672 0.061864 6.67572e-006 2 1.41422 192 192 192 255 0.508521 0.674815
0.704489 4.55328 0.061864 1.33514e-005 -1 2.82844 192 192 192 255 0.672464 0.674815
0.061866 4.55328 0.704488 1.41421 -2 -5.36442e-007 192 192 192 255 0.672464 0.747453
0.090306 0.497433 0.909694 2.82842 2 1.41423 192 192 192 255 0.328913 0.062274
0.909697 0.497433 0.090303 0.707127 0.999998 3.53555 192 192 192 255 0.328913 0.062274
0.909697 1.59899 0.090303 1.41422 -2 2.82844 192 192 192 255 0.328913 0.062274
0.090306 1.59899 0.909694 3.53554 -0.999999 0.707122 192 192 192 255 0.328913 0.062274
0.090306 1.15837 0.909694 2.82842 2 1.41423 192 192 192 255 0.328913 0.062274
0.909697 1.15837 0.090303 1.41423 1 4.24266 192 192 192 255 0.328913 0.062274
0.090306 0.938055 0.909694 4.24264 -1 1.41423 192 192 192 255 0.328913 0.062274
0.909697 0.938055 0.090303 1.41422 -2 2.82844 192 192 192 255 0.328913 0.062274
0.020341 1.15837 0.839728 2.82844 1 9.53674e-006 192 192 192 255 0.29382 0.062274
0.83973 1.15837 0.020338 1.03712e-005 2 1.41422 192 192 192 255 0.29382 0.062274
0.83973 1.59899 0.020338 2.07424e-005 -1 2.82845 192 192 192 255 0.29382 0.062274
0.020341 1.59899 0.839728 1.41422 -2 4.76837e-006 192 192 192 255 0.29382 0.062274
0.020341 0.497433 0.839728 2.82844 1 9.53674e-006 192 192 192 255 0.29382 0.062274
0.83973 0.497433 0.020338 1.03712e-005 2 1.41422 192 192 192 255 0.29382 0.062274
0.83973 0.938055 0.020338 2.07424e-005 -1 2.82845 192 192 192 255 0.29382 0.062274
0.020341 0.938055 0.839728 1.41422 -2 4.76837e-006 192 192 192 255 0.29382 0.062274
1e-006 5 -1e-006 -1 0.999999 -2 192 192 192 255 0.265187 0.061667
1 5 -1e-006 2.12132 0.999999 1.12132 192 192 192 255 0.265187 0.061667
1e-006 2.5 -1e-006 -3 0 -3 192 192 192 255 0.233148 0.061667
1e-006 5 0.999998 0.121316 0.999999 2.12132 192 192 192 255 0.233148 0.061667
1e-006 5 -1e-006 -1 0.999999 -2 192 192 192 255 0.233148 0.061667
1e-006 -0 -1e-006 -2 -0.999999 -1 192 192 192 255 0.233148 0.061667
1e-006 -0 0.999998 1.12132 -1 2.12132 192 192 192 255 0.233148 0.061667
1 -0 -1e-006 3.53553 -1 1.53553 192 192 192 255 0.265187 0.061667
1e-006 -0 -1e-006 -2 -0.999999 -1 192 192 192 255 0.265187 0.061667
1e-006 2.5 0.999998 2.65684 1.68763e-007 5.65687 192 192 192 255 0.328913 0.062274
1 2.5 -1e-006 4.24264 6.82147e-007 1.24264 192 192 192 255 0.328913 0.062274
1 5 -1e-006 2.12132 0.999999 1.12132 192 192 192 255 0.328913 0.062274
1e-006 5 0.999998 0.121316 0.999999 2.12132 192 192 192 255 0.328913 0.062274
0.178689 2.94672 0.821311 2.82842 2 1.41422 192 192 192 255 0.355789 0.062274
0.821313 2.94672 0.178686 0.707117 1 3.53555 192 192 192 255 0.355789 0.062274
0.704489 2.94672 0.061864 6.67572e-006 2 1.41422 192 192 192 255 0.355789 0.062274
0.061866 2.94672 0.704488 2.82843 1 -1.07288e-006 192 192 192 255 0.355789 0.062274
0.821313 2.94672 0.178686 0.707117 1 3.53555 192 192 192 255 0.265607 0.062274
0.821313 4.55328 0.178686 1.41422 -2 2.82844 192 192 192 255 0.265607 0.062274
0.704489 4.55328 0.061864 1.33514e-005 -1 2.82844 192 192 192 255 0.265607 0.062274
0.704489 2.94672 0.061864 6.67572e-006 2 1.41422 192 192 192 255 0.265607 0.062274
0.821313 4.55328 0.178686 1.41422 -2 2.82844 192 192 192 255 0.233357 0.062274
0.178689 4.55328 0.821311 3.53553 -1 0.707109 192 192 192 255 0.233357 0.062274
0.061866 4.55328 0.704488 1.41421 -2 -5.36442e-007 192 192 192 255 0.233357 0.062274
0.704489 4.55328 0.061864 1.33514e-005 -1 2.82844 192 192 192 255 0.233357 0.062274
0.178689 4.55328 0.821311 3.53553 -1 0.707109 192 192 192 255 0.265607 0.062274
0.178689 2.94672 0.821311 2.82842 2 1.41422 192 192 192 255 0.265607 0.062274
0.061866 2.94672 0.704488 2.82843 1 -1.07288e-006 192 192 192 255 0.265607 0.062274
0.061866 4.55328 0.704488 1.41421 -2 -5.36442e-007 192 192 192 255 0.265607 0.062274
1e-006 -0 0.999998 1.12132 -1 2.12132 192 192 192 255 0.328913 0.062274
1 -0 -1e-006 3.53553 -1 1.53553 192 192 192 255 0.328913 0.062274
0.090306 1.15837 0.909694 2.82842 2 1.41423 192 192 192 255 0.35654 0.062274
0.909697 1.15837 0.090303 1.41423 1 4.24266 192 192 192 255 0.35654 0.062274
0.83973 1.15837 0.020338 1.03712e-005 2 1.41422 192 192 192 255 0.35654 0.062274
0.020341 1.15837 0.839728 2.82844 1 9.53674e-006 192 192 192 255 0.35654 0.062274
0.909697 1.15837 0.090303 1.41423 1 4.24266 192 192 192 255 0.261714 0.062274
0.909697 1.59899 0.090303 1.41422 -2 2.82844 192 192 192 255 0.261714 0.062274
0.83973 1.59899 0.020338 2.07424e-005 -1 2.82845 192 192 192 255 0.261714 0.062274
0.83973 1.15837 0.020338 1.03712e-005 2 1.41422 192 192 192 255 0.261714 0.062274
0.909697 1.59899 0.090303 1.41422 -2 2.82844 192 192 192 255 0.23334 0.062274
0.090306 1.59899 0.909694 3.53554 -0.999999 0.707122 192 192 192 255 0.23334 0.062274
0.020341 1.59899 0.839728 1.41422 -2 4.76837e-006 192 192 192 255 0.23334 0.062274
0.83973 1.59899 0.020338 2.07424e-005 -1 2.82845 192 192 192 255 0.23334 0.062274
0.090306 1.59899 0.909694 3.53554 -0.999999 0.707122 192 192 192 255 0.261714 0.062274
0.090306 1.15837 0.909694 2.82842 2 1.41423 192 192 192 255 0.261714 0.062274
0.020341 1.15837 0.839728 2.82844 1 9.53674e-006 192 192 192 255 0.261714 0.062274
0.020341 1.59899 0.839728 1.41422 -2 4.76837e-006 192 192 192 255 0.261714 0.062274
0.090306 0.497433 0.909694 2.82842 2 1.41423 192 192 192 255 0.35654 0.062274
0.909697 0.497433 0.090303 0.707127 0.999998 3.53555 192 192 192 255 0.35654 0.062274
0.83973 0.497433 0.020338 1.03712e-005 2 1.41422 192 192 192 255 0.35654 0.062274
0.020341 0.497433 0.839728 2.82844 1 9.53674e-006 192 192 192 255 0.35654 0.062274
0.909697 0.497433 0.090303 0.707127 0.999998 3.53555 192 192 192 255 0.261714 0.062274
0.909697 0.938055 0.090303 1.41422 -2 2.82844 192 192 192 255 0.261714 0.062274
0.83973 0.938055 0.020338 2.07424e-005 -1 2.82845 192 192 192 255 0.261714 0.062274
0.83973 0.497433 0.020338 1.03712e-005 2 1.41422 192 192 192 255 0.261714 0.062274
0.909697 0.938055 0.090303 1.41422 -2 2.82844 192 192 192 255 0.23334 0.062274
0.090306 0.938055 0.909694 4.24264 -1 1.41423 192 192 192 255 0.23334 0.062274
0.020341 0.938055 0.839728 1.41422 -2 4.76837e-006 192 192 192 255 0.23334 0.062274
0.83973 0.938055 0.020338 2.07424e-005 -1 2.82845 192 192 192 255 0.23334 0.062274
0.090306 0.938055 0.909694 4.24264 -1 1.41423 192 192 192 255 0.261714 0.062274
0.090306 0.497433 0.909694 2.82842 2 1.41423 192 192 192 255 0.261714 0.062274
0.020341 0.497433 0.839728 2.82844 1 9.53674e-006 192 192 192 255 0.261714 0.062274
0.020341 0.938055 0.839728 1.41422 -2 4.76837e-006 192 192 192 255 0.261714 0.062274
3 13 14 15 
3 13 15 16 
3 2 3 4 
3 33 34 8 
3 33 8 6 
3 5 1 0 
3 35 7 36 
3 35 36 37 
3 38 39 7 
3 38 7 35 
3 25 26 27 
3 25 27 28 
3 6 8 40 
3 6 40 41 
3 42 43 10 
3 42 10 9 
3 43 44 11 
3 43 11 10 
3 44 45 12 
3 44 12 11 
3 45 42 9 
3 45 9 12 
3 46 47 48 
3 46 48 49 
3 50 51 52 
3 50 52 53 
3 54 55 56 
3 54 56 57 
3 58 59 60 
3 58 60 61 
3 62 63 18 
3 62 18 17 
3 63 43 19 
3 63 19 22 
3 63 22 24 
3 63 24 18 
3 43 42 20 
3 43 20 19 
3 42 62 17 
3 42 17 23 
3 42 23 21 
3 42 21 20 
3 22 21 23 
3 22 23 24 
3 29 30 31 
3 29 31 32 
3 64 65 66 
3 64 66 67 
3 68 69 70 
3 68 70 71 
3 72 73 74 
3 72 74 75 
3 76 77 78 
3 76 78 79 
3 80 81 82 
3 80 82 83 
3 84 85 86 
3 84 86 87 
3 88 89 90 
3 88 90 91 
3 92 93 94 
3 92 94 95 
