ply
format ascii 1.0
comment VCGLIB generated
comment TextureFile SpaceInteriors_Texture.png
element vertex 456
property float x
property float y
property float z
property float nx
property float ny
property float nz
property uchar red
property uchar green
property uchar blue
property uchar alpha
property float texture_u
property float texture_v
element face 248
property list uchar int vertex_indices
end_header
-5 1.62911 4e-006 -0.999313 -0.999994 4.98026 192 192 192 255 0.200168 0.061667
4e-006 1.63483 4e-006 2.00115 -1.99998 2.99073 192 192 192 255 0.200168 0.061667
-5 3.29839 4e-006 -1.99977 2.00001 4.96979 192 192 192 255 0.300052 0.061667
0 3.29839 4e-006 1 1.00001 4 192 192 192 255 0.300052 0.061667
-4.99068 3.29839 -0.616726 -0.999886 1 -3.0151 192 192 192 255 0.300052 0.061667
4e-006 3.29839 -0.616726 2 2 -2.99999 192 192 192 255 0.300052 0.061667
-4.99068 1.63483 -0.616726 -1.99863 -1.99998 -3.03948 192 192 192 255 0.200168 0.061667
4e-006 1.63483 -0.616726 1.00057 -0.999988 -3.00463 192 192 192 255 0.200168 0.061667
-4.84113 1.78439 4e-006 1 2 3 192 192 192 255 0.265187 0.061667
-0.149555 1.78439 4e-006 -2 1 3 192 192 192 255 0.265187 0.061667
-0.149555 3.14883 4e-006 -1 -2 3 192 192 192 255 0.265187 0.061667
-4.84113 3.14883 4e-006 2 -1 3 192 192 192 255 0.265187 0.061667
-4.84113 3.14883 -0.616726 1 -2 -3 192 192 192 255 0.265187 0.061667
-0.149555 3.14883 -0.616726 -2 -1 -3 192 192 192 255 0.265187 0.061667
-0.149555 1.78439 -0.616726 -1 2 -3 192 192 192 255 0.265187 0.061667
-4.84113 1.78439 -0.616726 2 1 -3 192 192 192 255 0.265187 0.061667
-4.84113 1.78439 -0.303387 2 1 3 192 192 192 255 0.299122 0.061667
-0.149555 1.78439 -0.303387 -1 2 3 192 192 192 255 0.299122 0.061667
-0.149555 3.14883 -0.303387 -2 -1 3 192 192 192 255 0.233038 0.061667
-4.84113 3.14883 -0.303387 1 -2 3 192 192 192 255 0.265187 0.061667
-4.84113 3.14883 -0.386452 2 -1 -3 192 192 192 255 0.265187 0.061667
-0.149555 3.14883 -0.386456 -1 -2 -3 192 192 192 255 0.265187 0.061667
-0.149555 1.78439 -0.386456 -2 1 -3 192 192 192 255 0.233038 0.061667
-4.84113 1.78439 -0.386452 0.999999 2 -3 192 192 192 255 0.299122 0.061667
-4.72353 1.95443 -0.303387 1 1 3 192 192 192 255 0.20176 0.061667
-0.267147 1.95443 -0.303387 -1 2 3 192 192 192 255 0.20176 0.061667
-0.267147 2.97879 -0.303387 -2 -2 3 192 192 192 255 0.20176 0.061667
-4.72353 2.97879 -0.303387 2 -1 3 192 192 192 255 0.20176 0.061667
-4.72353 2.97879 -0.386452 0.999999 -2 -3 192 192 192 255 0.20176 0.061667
-0.267147 2.97879 -0.386456 -1 -1 -3 192 192 192 255 0.20176 0.061667
-0.267147 1.95443 -0.386456 -2 1 -3 192 192 192 255 0.20176 0.061667
-4.72353 1.95443 -0.386452 2 2 -3 192 192 192 255 0.20176 0.061667
-2.15402 3.0218 -0.263187 -1 -1 2 192 192 192 255 0.356003 0.061667
-2.07352 3.0218 -0.263187 2 -2 1 192 192 192 255 0.356003 0.061667
-2.15402 3.1023 -0.263187 -2 2 1 192 192 192 255 0.356003 0.061667
-2.07352 3.1023 -0.263187 1 1 2 192 192 192 255 0.356003 0.061667
-2.15402 3.1023 -0.303387 -1 1 0 192 192 192 255 0.390868 0.061667
-2.07352 3.1023 -0.303387 2 2 0 192 192 192 255 0.390868 0.061667
-2.15402 3.0218 -0.303387 -2 -2 0 192 192 192 255 0.290983 0.061667
-2.07352 3.0218 -0.303387 1 -1 0 192 192 192 255 0.290983 0.061667
-2.91716 3.0218 -0.263187 -1 -1 2 192 192 192 255 0.356003 0.061667
-2.83667 3.0218 -0.263187 2 -2 1 192 192 192 255 0.356003 0.061667
-2.91716 3.1023 -0.263187 -2 2 1 192 192 192 255 0.356003 0.061667
-2.83667 3.1023 -0.263187 1 1 2 192 192 192 255 0.356003 0.061667
-2.91716 3.1023 -0.303387 -1 1 0 192 192 192 255 0.390868 0.061667
-2.83667 3.1023 -0.303387 2 2 0 192 192 192 255 0.390868 0.061667
-2.91716 3.0218 -0.303387 -2 -2 0 192 192 192 255 0.290983 0.061667
-2.83667 3.0218 -0.303387 1 -1 0 192 192 192 255 0.290983 0.061667
-2.15402 1.83092 -0.263187 -1 -1 2 192 192 192 255 0.356003 0.061667
-2.07352 1.83092 -0.263187 2 -2 1 192 192 192 255 0.356003 0.061667
-2.15402 1.91142 -0.263187 -2 2 1 192 192 192 255 0.356003 0.061667
-2.07352 1.91142 -0.263187 1 1 2 192 192 192 255 0.356003 0.061667
-2.15402 1.91142 -0.303387 -1 1 0 192 192 192 255 0.390868 0.061667
-2.07352 1.91142 -0.303387 2 2 0 192 192 192 255 0.390868 0.061667
-2.15402 1.83092 -0.303387 -2 -2 0 192 192 192 255 0.290983 0.061667
-2.07352 1.83092 -0.303387 1 -1 0 192 192 192 255 0.290983 0.061667
-2.91716 1.83092 -0.263187 -1 -1 2 192 192 192 255 0.356003 0.061667
-2.83667 1.83092 -0.263187 2 -2 1 192 192 192 255 0.356003 0.061667
-2.91716 1.91142 -0.263187 -2 2 1 192 192 192 255 0.356003 0.061667
-2.83667 1.91142 -0.263187 1 1 2 192 192 192 255 0.356003 0.061667
-2.91716 1.91142 -0.303387 -1 1 0 192 192 192 255 0.390868 0.061667
-2.83667 1.91142 -0.303387 2 2 0 192 192 192 255 0.390868 0.061667
-2.91716 1.83092 -0.303387 -2 -2 0 192 192 192 255 0.290983 0.061667
-2.83667 1.83092 -0.303387 1 -1 0 192 192 192 255 0.290983 0.061667
-3.76149 3.0218 -0.263187 -1 -1 2 192 192 192 255 0.356003 0.061667
-3.68099 3.0218 -0.263187 2 -2 1 192 192 192 255 0.356003 0.061667
-3.76149 3.1023 -0.263187 -2 2 1 192 192 192 255 0.356003 0.061667
-3.68099 3.1023 -0.263187 1 1 2 192 192 192 255 0.356003 0.061667
-3.76149 3.1023 -0.303387 -1 1 0 192 192 192 255 0.390868 0.061667
-3.68099 3.1023 -0.303387 2 2 0 192 192 192 255 0.390868 0.061667
-3.76149 3.0218 -0.303387 -2 -2 0 192 192 192 255 0.290983 0.061667
-3.68099 3.0218 -0.303387 1 -1 0 192 192 192 255 0.290983 0.061667
-4.52464 3.0218 -0.263187 -1 -1 2 192 192 192 255 0.356003 0.061667
-4.44414 3.0218 -0.263187 2 -2 1 192 192 192 255 0.356003 0.061667
-4.52464 3.1023 -0.263187 -2 2 1 192 192 192 255 0.356003 0.061667
-4.44414 3.1023 -0.263187 1 1 2 192 192 192 255 0.356003 0.061667
-4.52464 3.1023 -0.303387 -1 1 0 192 192 192 255 0.390868 0.061667
-4.44414 3.1023 -0.303387 2 2 0 192 192 192 255 0.390868 0.061667
-4.52464 3.0218 -0.303387 -2 -2 0 192 192 192 255 0.290983 0.061667
-4.44414 3.0218 -0.303387 1 -1 0 192 192 192 255 0.290983 0.061667
-4.14307 3.0218 -0.263187 -1 -1 2 192 192 192 255 0.356003 0.061667
-4.06257 3.0218 -0.263187 2 -2 1 192 192 192 255 0.356003 0.061667
-4.14307 3.1023 -0.263187 -2 2 1 192 192 192 255 0.356003 0.061667
-4.06257 3.1023 -0.263187 1 1 2 192 192 192 255 0.356003 0.061667
-4.14307 3.1023 -0.303387 -1 1 0 192 192 192 255 0.390868 0.061667
-4.06257 3.1023 -0.303387 2 2 0 192 192 192 255 0.390868 0.061667
-4.14307 3.0218 -0.303387 -2 -2 0 192 192 192 255 0.290983 0.061667
-4.06257 3.0218 -0.303387 1 -1 0 192 192 192 255 0.290983 0.061667
-3.76149 1.83092 -0.263187 -1 -1 2 192 192 192 255 0.356003 0.061667
-3.68099 1.83092 -0.263187 2 -2 1 192 192 192 255 0.356003 0.061667
-3.76149 1.91142 -0.263187 -2 2 1 192 192 192 255 0.356003 0.061667
-3.68099 1.91142 -0.263187 1 1 2 192 192 192 255 0.356003 0.061667
-3.76149 1.91142 -0.303387 -1 1 0 192 192 192 255 0.390868 0.061667
-3.68099 1.91142 -0.303387 2 2 0 192 192 192 255 0.390868 0.061667
-3.76149 1.83092 -0.303387 -2 -2 0 192 192 192 255 0.290983 0.061667
-3.68099 1.83092 -0.303387 1 -1 0 192 192 192 255 0.290983 0.061667
-4.52464 1.83092 -0.263187 -1 -1 2 192 192 192 255 0.356003 0.061667
-4.44414 1.83092 -0.263187 2 -2 1 192 192 192 255 0.356003 0.061667
-4.52464 1.91142 -0.263187 -2 2 1 192 192 192 255 0.356003 0.061667
-4.44414 1.91142 -0.263187 1 1 2 192 192 192 255 0.356003 0.061667
-4.52464 1.91142 -0.303387 -1 1 0 192 192 192 255 0.390868 0.061667
-4.44414 1.91142 -0.303387 2 2 0 192 192 192 255 0.390868 0.061667
-4.52464 1.83092 -0.303387 -2 -2 0 192 192 192 255 0.290983 0.061667
-4.44414 1.83092 -0.303387 1 -1 0 192 192 192 255 0.290983 0.061667
-4.14307 1.83092 -0.263187 -1 -1 2 192 192 192 255 0.356003 0.061667
-4.06257 1.83092 -0.263187 2 -2 1 192 192 192 255 0.356003 0.061667
-4.14307 1.91142 -0.263187 -2 2 1 192 192 192 255 0.356003 0.061667
-4.06257 1.91142 -0.263187 1 1 2 192 192 192 255 0.356003 0.061667
-4.14307 1.91142 -0.303387 -1 1 0 192 192 192 255 0.390868 0.061667
-4.06257 1.91142 -0.303387 2 2 0 192 192 192 255 0.390868 0.061667
-4.14307 1.83092 -0.303387 -2 -2 0 192 192 192 255 0.290983 0.061667
-4.06257 1.83092 -0.303387 1 -1 0 192 192 192 255 0.290983 0.061667
-0.490456 3.0218 -0.263187 -1 -1 2 192 192 192 255 0.356003 0.061667
-0.409954 3.0218 -0.263187 2 -2 1 192 192 192 255 0.356003 0.061667
-0.490456 3.1023 -0.263187 -2 2 1 192 192 192 255 0.356003 0.061667
-0.409954 3.1023 -0.263187 1 1 2 192 192 192 255 0.356003 0.061667
-0.490456 3.1023 -0.303387 -1 1 0 192 192 192 255 0.390868 0.061667
-0.409954 3.1023 -0.303387 2 2 0 192 192 192 255 0.390868 0.061667
-0.490456 3.0218 -0.303387 -2 -2 0 192 192 192 255 0.290983 0.061667
-0.409954 3.0218 -0.303387 1 -1 0 192 192 192 255 0.290983 0.061667
-1.2536 3.0218 -0.263187 -1 -1 2 192 192 192 255 0.356003 0.061667
-1.1731 3.0218 -0.263187 2 -2 1 192 192 192 255 0.356003 0.061667
-1.2536 3.1023 -0.263187 -2 2 1 192 192 192 255 0.356003 0.061667
-1.1731 3.1023 -0.263187 1 1 2 192 192 192 255 0.356003 0.061667
-1.2536 3.1023 -0.303387 -1 1 0 192 192 192 255 0.390868 0.061667
-1.1731 3.1023 -0.303387 2 2 0 192 192 192 255 0.390868 0.061667
-1.2536 3.0218 -0.303387 -2 -2 0 192 192 192 255 0.290983 0.061667
-1.1731 3.0218 -0.303387 1 -1 0 192 192 192 255 0.290983 0.061667
-0.872028 3.0218 -0.263187 -1 -1 2 192 192 192 255 0.356003 0.061667
-0.791531 3.0218 -0.263187 2 -2 1 192 192 192 255 0.356003 0.061667
-0.872028 3.1023 -0.263187 -2 2 1 192 192 192 255 0.356003 0.061667
-0.791531 3.1023 -0.263187 1 1 2 192 192 192 255 0.356003 0.061667
-0.872028 3.1023 -0.303387 -1 1 0 192 192 192 255 0.390868 0.061667
-0.791531 3.1023 -0.303387 2 2 0 192 192 192 255 0.390868 0.061667
-0.872028 3.0218 -0.303387 -2 -2 0 192 192 192 255 0.290983 0.061667
-0.791531 3.0218 -0.303387 1 -1 0 192 192 192 255 0.290983 0.061667
-0.490456 1.83092 -0.263187 -1 -1 2 192 192 192 255 0.356003 0.061667
-0.409954 1.83092 -0.263187 2 -2 1 192 192 192 255 0.356003 0.061667
-0.490456 1.91142 -0.263187 -2 2 1 192 192 192 255 0.356003 0.061667
-0.409954 1.91142 -0.263187 1 1 2 192 192 192 255 0.356003 0.061667
-0.490456 1.91142 -0.303387 -1 1 0 192 192 192 255 0.390868 0.061667
-0.409954 1.91142 -0.303387 2 2 0 192 192 192 255 0.390868 0.061667
-0.490456 1.83092 -0.303387 -2 -2 0 192 192 192 255 0.290983 0.061667
-0.409954 1.83092 -0.303387 1 -1 0 192 192 192 255 0.290983 0.061667
-1.2536 1.83092 -0.263187 -1 -1 2 192 192 192 255 0.356003 0.061667
-1.1731 1.83092 -0.263187 2 -2 1 192 192 192 255 0.356003 0.061667
-1.2536 1.91142 -0.263187 -2 2 1 192 192 192 255 0.356003 0.061667
-1.1731 1.91142 -0.263187 1 1 2 192 192 192 255 0.356003 0.061667
-1.2536 1.91142 -0.303387 -1 1 0 192 192 192 255 0.390868 0.061667
-1.1731 1.91142 -0.303387 2 2 0 192 192 192 255 0.390868 0.061667
-1.2536 1.83092 -0.303387 -2 -2 0 192 192 192 255 0.290983 0.061667
-1.1731 1.83092 -0.303387 1 -1 0 192 192 192 255 0.290983 0.061667
-0.872028 1.83092 -0.263187 -1 -1 2 192 192 192 255 0.356003 0.061667
-0.791531 1.83092 -0.263187 2 -2 1 192 192 192 255 0.356003 0.061667
-0.872028 1.91142 -0.263187 -2 2 1 192 192 192 255 0.356003 0.061667
-0.791531 1.91142 -0.263187 1 1 2 192 192 192 255 0.356003 0.061667
-0.872028 1.91142 -0.303387 -1 1 0 192 192 192 255 0.390868 0.061667
-0.791531 1.91142 -0.303387 2 2 0 192 192 192 255 0.390868 0.061667
-0.872028 1.83092 -0.303387 -2 -2 0 192 192 192 255 0.290983 0.061667
-0.791531 1.83092 -0.303387 1 -1 0 192 192 192 255 0.290983 0.061667
-5 0 0 0 -2.45533e-006 1 192 192 192 255 0.919392 0.640965
0 0 0 0 -2.45533e-006 1 192 192 192 255 0.990896 0.640965
-5 5 0 0 0 1 192 192 192 255 0.750427 0.873158
0 5 0 0 0 2 192 192 192 255 0.8862 0.873158
-2.5 0 0 0 -7.366e-006 3 192 192 192 255 0.990895 0.640965
-2.5 5 0 0 0 3 192 192 192 255 0.750426 0.873158
-3.75 0 0 0 -7.366e-006 3 192 192 192 255 0.990896 0.640965
-3.75 5 0 0 0 3 192 192 192 255 0.8862 0.873158
-1.25 0 0 0 -9.82134e-006 4 192 192 192 255 0.990895 0.640965
-1.25 5 0 0 0 3 192 192 192 255 0.8862 0.873158
-5 4 0 0 5.70119e-006 3 192 192 192 255 0.750427 0.789687
-3.75 4 0 0 1.71036e-005 6 192 192 192 255 0.8862 0.789687
-2.5 4 0 0 1.71036e-005 6 192 192 192 255 0.750426 0.789687
-1.25 4 0 0 1.71036e-005 6 192 192 192 255 0.8862 0.789687
0 4 0 0 1.14024e-005 3 192 192 192 255 0.8862 0.789687
-3.75 3.29839 4e-006 0 1.71036e-005 3 192 192 192 255 0.990896 0.691264
-2.5 3.29839 4e-006 0 1.71036e-005 3 192 192 192 255 0.990895 0.691264
-1.25 3.29839 4e-006 0 1.71036e-005 3 192 192 192 255 0.990895 0.691264
-3.75 1.62911 4e-006 0 -7.366e-006 3 192 192 192 255 0.990896 0.665808
-2.5 1.62911 4e-006 0 -7.366e-006 3 192 192 192 255 0.990895 0.665808
-1.25 1.62911 4e-006 0 -4.91067e-006 2 192 192 192 255 0.990895 0.665808
0 1.62911 4e-006 0 -4.91067e-006 2 192 192 192 255 0.990896 0.665808
4e-006 1.63483 4e-006 2.00115 -1.99998 2.99073 192 192 192 255 0.233148 0.061667
4e-006 1.63483 -0.616726 1.00057 -0.999988 -3.00463 192 192 192 255 0.233148 0.061667
4e-006 3.29839 -0.616726 2 2 -2.99999 192 192 192 255 0.233148 0.061667
0 3.29839 4e-006 1 1.00001 4 192 192 192 255 0.233148 0.061667
-4.99068 1.63483 -0.616726 -1.99863 -1.99998 -3.03948 192 192 192 255 0.233148 0.061667
-5 1.62911 4e-006 -0.999313 -0.999994 4.98026 192 192 192 255 0.233148 0.061667
-5 3.29839 4e-006 -1.99977 2.00001 4.96979 192 192 192 255 0.233148 0.061667
-4.99068 3.29839 -0.616726 -0.999886 1 -3.0151 192 192 192 255 0.233148 0.061667
-5 1.62911 4e-006 -0.999313 -0.999994 4.98026 192 192 192 255 0.265187 0.061667
4e-006 1.63483 4e-006 2.00115 -1.99998 2.99073 192 192 192 255 0.265187 0.061667
0 3.29839 4e-006 1 1.00001 4 192 192 192 255 0.265187 0.061667
-5 3.29839 4e-006 -1.99977 2.00001 4.96979 192 192 192 255 0.265187 0.061667
-4.99068 3.29839 -0.616726 -0.999886 1 -3.0151 192 192 192 255 0.265187 0.061667
4e-006 3.29839 -0.616726 2 2 -2.99999 192 192 192 255 0.265187 0.061667
4e-006 1.63483 -0.616726 1.00057 -0.999988 -3.00463 192 192 192 255 0.265187 0.061667
-4.99068 1.63483 -0.616726 -1.99863 -1.99998 -3.03948 192 192 192 255 0.265187 0.061667
-4.84113 1.78439 4e-006 1 2 3 192 192 192 255 0.299122 0.061667
-0.149555 1.78439 4e-006 -2 1 3 192 192 192 255 0.299122 0.061667
-0.149555 1.78439 4e-006 -2 1 3 192 192 192 255 0.233038 0.061667
-0.149555 3.14883 4e-006 -1 -2 3 192 192 192 255 0.233038 0.061667
-0.149555 1.78439 -0.303387 -1 2 3 192 192 192 255 0.233038 0.061667
-0.149555 3.14883 -0.303387 -2 -1 3 192 192 192 255 0.265187 0.061667
-4.84113 3.14883 4e-006 2 -1 3 192 192 192 255 0.233038 0.061667
-4.84113 1.78439 4e-006 1 2 3 192 192 192 255 0.233038 0.061667
-4.84113 1.78439 -0.303387 2 1 3 192 192 192 255 0.233038 0.061667
-4.84113 3.14883 -0.303387 1 -2 3 192 192 192 255 0.233038 0.061667
-0.149555 3.14883 -0.616726 -2 -1 -3 192 192 192 255 0.233038 0.061667
-0.149555 1.78439 -0.616726 -1 2 -3 192 192 192 255 0.233038 0.061667
-0.149555 3.14883 -0.386456 -1 -2 -3 192 192 192 255 0.233038 0.061667
-0.149555 1.78439 -0.616726 -1 2 -3 192 192 192 255 0.299122 0.061667
-4.84113 1.78439 -0.616726 2 1 -3 192 192 192 255 0.299122 0.061667
-0.149555 1.78439 -0.386456 -2 1 -3 192 192 192 255 0.299122 0.061667
-4.84113 1.78439 -0.616726 2 1 -3 192 192 192 255 0.233038 0.061667
-4.84113 3.14883 -0.616726 1 -2 -3 192 192 192 255 0.233038 0.061667
-4.84113 3.14883 -0.386452 2 -1 -3 192 192 192 255 0.233038 0.061667
-4.84113 1.78439 -0.386452 0.999999 2 -3 192 192 192 255 0.233038 0.061667
-4.84113 1.78439 -0.303387 2 1 3 192 192 192 255 0.20176 0.061667
-0.149555 1.78439 -0.303387 -1 2 3 192 192 192 255 0.20176 0.061667
-0.149555 3.14883 -0.303387 -2 -1 3 192 192 192 255 0.20176 0.061667
-4.84113 3.14883 -0.303387 1 -2 3 192 192 192 255 0.20176 0.061667
-4.84113 3.14883 -0.386452 2 -1 -3 192 192 192 255 0.20176 0.061667
-0.149555 3.14883 -0.386456 -1 -2 -3 192 192 192 255 0.20176 0.061667
-0.149555 1.78439 -0.386456 -2 1 -3 192 192 192 255 0.20176 0.061667
-4.84113 1.78439 -0.386452 0.999999 2 -3 192 192 192 255 0.20176 0.061667
-4.72353 2.97879 -0.303387 2 -1 3 192 192 192 255 0.169611 0.061667
-4.72353 1.95443 -0.303387 1 1 3 192 192 192 255 0.169611 0.061667
-4.72353 1.95443 -0.386452 2 2 -3 192 192 192 255 0.169611 0.061667
-4.72353 2.97879 -0.386452 0.999999 -2 -3 192 192 192 255 0.169611 0.061667
-0.267147 2.97879 -0.303387 -2 -2 3 192 192 192 255 0.169611 0.061667
-0.267147 2.97879 -0.386456 -1 -1 -3 192 192 192 255 0.169611 0.061667
-0.267147 1.95443 -0.386456 -2 1 -3 192 192 192 255 0.169611 0.061667
-0.267147 1.95443 -0.303387 -1 2 3 192 192 192 255 0.169611 0.061667
-0.267147 1.95443 -0.303387 -1 2 3 192 192 192 255 0.235695 0.061667
-0.267147 1.95443 -0.386456 -2 1 -3 192 192 192 255 0.235695 0.061667
-4.72353 1.95443 -0.386452 2 2 -3 192 192 192 255 0.235695 0.061667
-4.72353 1.95443 -0.303387 1 1 3 192 192 192 255 0.235695 0.061667
-2.15402 3.1023 -0.263187 -2 2 1 192 192 192 255 0.390868 0.061667
-2.07352 3.1023 -0.263187 1 1 2 192 192 192 255 0.390868 0.061667
-2.07352 3.0218 -0.263187 2 -2 1 192 192 192 255 0.290983 0.061667
-2.15402 3.0218 -0.263187 -1 -1 2 192 192 192 255 0.290983 0.061667
-2.07352 3.0218 -0.263187 2 -2 1 192 192 192 255 0.323964 0.061667
-2.07352 3.0218 -0.303387 1 -1 0 192 192 192 255 0.323964 0.061667
-2.07352 3.1023 -0.303387 2 2 0 192 192 192 255 0.323964 0.061667
-2.07352 3.1023 -0.263187 1 1 2 192 192 192 255 0.323964 0.061667
-2.15402 3.0218 -0.303387 -2 -2 0 192 192 192 255 0.323964 0.061667
-2.15402 3.0218 -0.263187 -1 -1 2 192 192 192 255 0.323964 0.061667
-2.15402 3.1023 -0.263187 -2 2 1 192 192 192 255 0.323964 0.061667
-2.15402 3.1023 -0.303387 -1 1 0 192 192 192 255 0.323964 0.061667
-2.91716 3.1023 -0.263187 -2 2 1 192 192 192 255 0.390868 0.061667
-2.83667 3.1023 -0.263187 1 1 2 192 192 192 255 0.390868 0.061667
-2.83667 3.0218 -0.263187 2 -2 1 192 192 192 255 0.290983 0.061667
-2.91716 3.0218 -0.263187 -1 -1 2 192 192 192 255 0.290983 0.061667
-2.83667 3.0218 -0.263187 2 -2 1 192 192 192 255 0.323964 0.061667
-2.83667 3.0218 -0.303387 1 -1 0 192 192 192 255 0.323964 0.061667
-2.83667 3.1023 -0.303387 2 2 0 192 192 192 255 0.323964 0.061667
-2.83667 3.1023 -0.263187 1 1 2 192 192 192 255 0.323964 0.061667
-2.91716 3.0218 -0.303387 -2 -2 0 192 192 192 255 0.323964 0.061667
-2.91716 3.0218 -0.263187 -1 -1 2 192 192 192 255 0.323964 0.061667
-2.91716 3.1023 -0.263187 -2 2 1 192 192 192 255 0.323964 0.061667
-2.91716 3.1023 -0.303387 -1 1 0 192 192 192 255 0.323964 0.061667
-2.15402 1.91142 -0.263187 -2 2 1 192 192 192 255 0.390868 0.061667
-2.07352 1.91142 -0.263187 1 1 2 192 192 192 255 0.390868 0.061667
-2.07352 1.83092 -0.263187 2 -2 1 192 192 192 255 0.290983 0.061667
-2.15402 1.83092 -0.263187 -1 -1 2 192 192 192 255 0.290983 0.061667
-2.07352 1.83092 -0.263187 2 -2 1 192 192 192 255 0.323964 0.061667
-2.07352 1.83092 -0.303387 1 -1 0 192 192 192 255 0.323964 0.061667
-2.07352 1.91142 -0.303387 2 2 0 192 192 192 255 0.323964 0.061667
-2.07352 1.91142 -0.263187 1 1 2 192 192 192 255 0.323964 0.061667
-2.15402 1.83092 -0.303387 -2 -2 0 192 192 192 255 0.323964 0.061667
-2.15402 1.83092 -0.263187 -1 -1 2 192 192 192 255 0.323964 0.061667
-2.15402 1.91142 -0.263187 -2 2 1 192 192 192 255 0.323964 0.061667
-2.15402 1.91142 -0.303387 -1 1 0 192 192 192 255 0.323964 0.061667
-2.91716 1.91142 -0.263187 -2 2 1 192 192 192 255 0.390868 0.061667
-2.83667 1.91142 -0.263187 1 1 2 192 192 192 255 0.390868 0.061667
-2.83667 1.83092 -0.263187 2 -2 1 192 192 192 255 0.290983 0.061667
-2.91716 1.83092 -0.263187 -1 -1 2 192 192 192 255 0.290983 0.061667
-2.83667 1.83092 -0.263187 2 -2 1 192 192 192 255 0.323964 0.061667
-2.83667 1.83092 -0.303387 1 -1 0 192 192 192 255 0.323964 0.061667
-2.83667 1.91142 -0.303387 2 2 0 192 192 192 255 0.323964 0.061667
-2.83667 1.91142 -0.263187 1 1 2 192 192 192 255 0.323964 0.061667
-2.91716 1.83092 -0.303387 -2 -2 0 192 192 192 255 0.323964 0.061667
-2.91716 1.83092 -0.263187 -1 -1 2 192 192 192 255 0.323964 0.061667
-2.91716 1.91142 -0.263187 -2 2 1 192 192 192 255 0.323964 0.061667
-2.91716 1.91142 -0.303387 -1 1 0 192 192 192 255 0.323964 0.061667
-3.76149 3.1023 -0.263187 -2 2 1 192 192 192 255 0.390868 0.061667
-3.68099 3.1023 -0.263187 1 1 2 192 192 192 255 0.390868 0.061667
-3.68099 3.0218 -0.263187 2 -2 1 192 192 192 255 0.290983 0.061667
-3.76149 3.0218 -0.263187 -1 -1 2 192 192 192 255 0.290983 0.061667
-3.68099 3.0218 -0.263187 2 -2 1 192 192 192 255 0.323964 0.061667
-3.68099 3.0218 -0.303387 1 -1 0 192 192 192 255 0.323964 0.061667
-3.68099 3.1023 -0.303387 2 2 0 192 192 192 255 0.323964 0.061667
-3.68099 3.1023 -0.263187 1 1 2 192 192 192 255 0.323964 0.061667
-3.76149 3.0218 -0.303387 -2 -2 0 192 192 192 255 0.323964 0.061667
-3.76149 3.0218 -0.263187 -1 -1 2 192 192 192 255 0.323964 0.061667
-3.76149 3.1023 -0.263187 -2 2 1 192 192 192 255 0.323964 0.061667
-3.76149 3.1023 -0.303387 -1 1 0 192 192 192 255 0.323964 0.061667
-4.52464 3.1023 -0.263187 -2 2 1 192 192 192 255 0.390868 0.061667
-4.44414 3.1023 -0.263187 1 1 2 192 192 192 255 0.390868 0.061667
-4.44414 3.0218 -0.263187 2 -2 1 192 192 192 255 0.290983 0.061667
-4.52464 3.0218 -0.263187 -1 -1 2 192 192 192 255 0.290983 0.061667
-4.44414 3.0218 -0.263187 2 -2 1 192 192 192 255 0.323964 0.061667
-4.44414 3.0218 -0.303387 1 -1 0 192 192 192 255 0.323964 0.061667
-4.44414 3.1023 -0.303387 2 2 0 192 192 192 255 0.323964 0.061667
-4.44414 3.1023 -0.263187 1 1 2 192 192 192 255 0.323964 0.061667
-4.52464 3.0218 -0.303387 -2 -2 0 192 192 192 255 0.323964 0.061667
-4.52464 3.0218 -0.263187 -1 -1 2 192 192 192 255 0.323964 0.061667
-4.52464 3.1023 -0.263187 -2 2 1 192 192 192 255 0.323964 0.061667
-4.52464 3.1023 -0.303387 -1 1 0 192 192 192 255 0.323964 0.061667
-4.14307 3.1023 -0.263187 -2 2 1 192 192 192 255 0.390868 0.061667
-4.06257 3.1023 -0.263187 1 1 2 192 192 192 255 0.390868 0.061667
-4.06257 3.0218 -0.263187 2 -2 1 192 192 192 255 0.290983 0.061667
-4.14307 3.0218 -0.263187 -1 -1 2 192 192 192 255 0.290983 0.061667
-4.06257 3.0218 -0.263187 2 -2 1 192 192 192 255 0.323964 0.061667
-4.06257 3.0218 -0.303387 1 -1 0 192 192 192 255 0.323964 0.061667
-4.06257 3.1023 -0.303387 2 2 0 192 192 192 255 0.323964 0.061667
-4.06257 3.1023 -0.263187 1 1 2 192 192 192 255 0.323964 0.061667
-4.14307 3.0218 -0.303387 -2 -2 0 192 192 192 255 0.323964 0.061667
-4.14307 3.0218 -0.263187 -1 -1 2 192 192 192 255 0.323964 0.061667
-4.14307 3.1023 -0.263187 -2 2 1 192 192 192 255 0.323964 0.061667
-4.14307 3.1023 -0.303387 -1 1 0 192 192 192 255 0.323964 0.061667
-3.76149 1.91142 -0.263187 -2 2 1 192 192 192 255 0.390868 0.061667
-3.68099 1.91142 -0.263187 1 1 2 192 192 192 255 0.390868 0.061667
-3.68099 1.83092 -0.263187 2 -2 1 192 192 192 255 0.290983 0.061667
-3.76149 1.83092 -0.263187 -1 -1 2 192 192 192 255 0.290983 0.061667
-3.68099 1.83092 -0.263187 2 -2 1 192 192 192 255 0.323964 0.061667
-3.68099 1.83092 -0.303387 1 -1 0 192 192 192 255 0.323964 0.061667
-3.68099 1.91142 -0.303387 2 2 0 192 192 192 255 0.323964 0.061667
-3.68099 1.91142 -0.263187 1 1 2 192 192 192 255 0.323964 0.061667
-3.76149 1.83092 -0.303387 -2 -2 0 192 192 192 255 0.323964 0.061667
-3.76149 1.83092 -0.263187 -1 -1 2 192 192 192 255 0.323964 0.061667
-3.76149 1.91142 -0.263187 -2 2 1 192 192 192 255 0.323964 0.061667
-3.76149 1.91142 -0.303387 -1 1 0 192 192 192 255 0.323964 0.061667
-4.52464 1.91142 -0.263187 -2 2 1 192 192 192 255 0.390868 0.061667
-4.44414 1.91142 -0.263187 1 1 2 192 192 192 255 0.390868 0.061667
-4.44414 1.83092 -0.263187 2 -2 1 192 192 192 255 0.290983 0.061667
-4.52464 1.83092 -0.263187 -1 -1 2 192 192 192 255 0.290983 0.061667
-4.44414 1.83092 -0.263187 2 -2 1 192 192 192 255 0.323964 0.061667
-4.44414 1.83092 -0.303387 1 -1 0 192 192 192 255 0.323964 0.061667
-4.44414 1.91142 -0.303387 2 2 0 192 192 192 255 0.323964 0.061667
-4.44414 1.91142 -0.263187 1 1 2 192 192 192 255 0.323964 0.061667
-4.52464 1.83092 -0.303387 -2 -2 0 192 192 192 255 0.323964 0.061667
-4.52464 1.83092 -0.263187 -1 -1 2 192 192 192 255 0.323964 0.061667
-4.52464 1.91142 -0.263187 -2 2 1 192 192 192 255 0.323964 0.061667
-4.52464 1.91142 -0.303387 -1 1 0 192 192 192 255 0.323964 0.061667
-4.14307 1.91142 -0.263187 -2 2 1 192 192 192 255 0.390868 0.061667
-4.06257 1.91142 -0.263187 1 1 2 192 192 192 255 0.390868 0.061667
-4.06257 1.83092 -0.263187 2 -2 1 192 192 192 255 0.290983 0.061667
-4.14307 1.83092 -0.263187 -1 -1 2 192 192 192 255 0.290983 0.061667
-4.06257 1.83092 -0.263187 2 -2 1 192 192 192 255 0.323964 0.061667
-4.06257 1.83092 -0.303387 1 -1 0 192 192 192 255 0.323964 0.061667
-4.06257 1.91142 -0.303387 2 2 0 192 192 192 255 0.323964 0.061667
-4.06257 1.91142 -0.263187 1 1 2 192 192 192 255 0.323964 0.061667
-4.14307 1.83092 -0.303387 -2 -2 0 192 192 192 255 0.323964 0.061667
-4.14307 1.83092 -0.263187 -1 -1 2 192 192 192 255 0.323964 0.061667
-4.14307 1.91142 -0.263187 -2 2 1 192 192 192 255 0.323964 0.061667
-4.14307 1.91142 -0.303387 -1 1 0 192 192 192 255 0.323964 0.061667
-0.490456 3.1023 -0.263187 -2 2 1 192 192 192 255 0.390868 0.061667
-0.409954 3.1023 -0.263187 1 1 2 192 192 192 255 0.390868 0.061667
-0.409954 3.0218 -0.263187 2 -2 1 192 192 192 255 0.290983 0.061667
-0.490456 3.0218 -0.263187 -1 -1 2 192 192 192 255 0.290983 0.061667
-0.409954 3.0218 -0.263187 2 -2 1 192 192 192 255 0.323964 0.061667
-0.409954 3.0218 -0.303387 1 -1 0 192 192 192 255 0.323964 0.061667
-0.409954 3.1023 -0.303387 2 2 0 192 192 192 255 0.323964 0.061667
-0.409954 3.1023 -0.263187 1 1 2 192 192 192 255 0.323964 0.061667
-0.490456 3.0218 -0.303387 -2 -2 0 192 192 192 255 0.323964 0.061667
-0.490456 3.0218 -0.263187 -1 -1 2 192 192 192 255 0.323964 0.061667
-0.490456 3.1023 -0.263187 -2 2 1 192 192 192 255 0.323964 0.061667
-0.490456 3.1023 -0.303387 -1 1 0 192 192 192 255 0.323964 0.061667
-1.2536 3.1023 -0.263187 -2 2 1 192 192 192 255 0.390868 0.061667
-1.1731 3.1023 -0.263187 1 1 2 192 192 192 255 0.390868 0.061667
-1.1731 3.0218 -0.263187 2 -2 1 192 192 192 255 0.290983 0.061667
-1.2536 3.0218 -0.263187 -1 -1 2 192 192 192 255 0.290983 0.061667
-1.1731 3.0218 -0.263187 2 -2 1 192 192 192 255 0.323964 0.061667
-1.1731 3.0218 -0.303387 1 -1 0 192 192 192 255 0.323964 0.061667
-1.1731 3.1023 -0.303387 2 2 0 192 192 192 255 0.323964 0.061667
-1.1731 3.1023 -0.263187 1 1 2 192 192 192 255 0.323964 0.061667
-1.2536 3.0218 -0.303387 -2 -2 0 192 192 192 255 0.323964 0.061667
-1.2536 3.0218 -0.263187 -1 -1 2 192 192 192 255 0.323964 0.061667
-1.2536 3.1023 -0.263187 -2 2 1 192 192 192 255 0.323964 0.061667
-1.2536 3.1023 -0.303387 -1 1 0 192 192 192 255 0.323964 0.061667
-0.872028 3.1023 -0.263187 -2 2 1 192 192 192 255 0.390868 0.061667
-0.791531 3.1023 -0.263187 1 1 2 192 192 192 255 0.390868 0.061667
-0.791531 3.0218 -0.263187 2 -2 1 192 192 192 255 0.290983 0.061667
-0.872028 3.0218 -0.263187 -1 -1 2 192 192 192 255 0.290983 0.061667
-0.791531 3.0218 -0.263187 2 -2 1 192 192 192 255 0.323964 0.061667
-0.791531 3.0218 -0.303387 1 -1 0 192 192 192 255 0.323964 0.061667
-0.791531 3.1023 -0.303387 2 2 0 192 192 192 255 0.323964 0.061667
-0.791531 3.1023 -0.263187 1 1 2 192 192 192 255 0.323964 0.061667
-0.872028 3.0218 -0.303387 -2 -2 0 192 192 192 255 0.323964 0.061667
-0.872028 3.0218 -0.263187 -1 -1 2 192 192 192 255 0.323964 0.061667
-0.872028 3.1023 -0.263187 -2 2 1 192 192 192 255 0.323964 0.061667
-0.872028 3.1023 -0.303387 -1 1 0 192 192 192 255 0.323964 0.061667
-0.490456 1.91142 -0.263187 -2 2 1 192 192 192 255 0.390868 0.061667
-0.409954 1.91142 -0.263187 1 1 2 192 192 192 255 0.390868 0.061667
-0.409954 1.83092 -0.263187 2 -2 1 192 192 192 255 0.290983 0.061667
-0.490456 1.83092 -0.263187 -1 -1 2 192 192 192 255 0.290983 0.061667
-0.409954 1.83092 -0.263187 2 -2 1 192 192 192 255 0.323964 0.061667
-0.409954 1.83092 -0.303387 1 -1 0 192 192 192 255 0.323964 0.061667
-0.409954 1.91142 -0.303387 2 2 0 192 192 192 255 0.323964 0.061667
-0.409954 1.91142 -0.263187 1 1 2 192 192 192 255 0.323964 0.061667
-0.490456 1.83092 -0.303387 -2 -2 0 192 192 192 255 0.323964 0.061667
-0.490456 1.83092 -0.263187 -1 -1 2 192 192 192 255 0.323964 0.061667
-0.490456 1.91142 -0.263187 -2 2 1 192 192 192 255 0.323964 0.061667
-0.490456 1.91142 -0.303387 -1 1 0 192 192 192 255 0.323964 0.061667
-1.2536 1.91142 -0.263187 -2 2 1 192 192 192 255 0.390868 0.061667
-1.1731 1.91142 -0.263187 1 1 2 192 192 192 255 0.390868 0.061667
-1.1731 1.83092 -0.263187 2 -2 1 192 192 192 255 0.290983 0.061667
-1.2536 1.83092 -0.263187 -1 -1 2 192 192 192 255 0.290983 0.061667
-1.1731 1.83092 -0.263187 2 -2 1 192 192 192 255 0.323964 0.061667
-1.1731 1.83092 -0.303387 1 -1 0 192 192 192 255 0.323964 0.061667
-1.1731 1.91142 -0.303387 2 2 0 192 192 192 255 0.323964 0.061667
-1.1731 1.91142 -0.263187 1 1 2 192 192 192 255 0.323964 0.061667
-1.2536 1.83092 -0.303387 -2 -2 0 192 192 192 255 0.323964 0.061667
-1.2536 1.83092 -0.263187 -1 -1 2 192 192 192 255 0.323964 0.061667
-1.2536 1.91142 -0.263187 -2 2 1 192 192 192 255 0.323964 0.061667
-1.2536 1.91142 -0.303387 -1 1 0 192 192 192 255 0.323964 0.061667
-0.872028 1.91142 -0.263187 -2 2 1 192 192 192 255 0.390868 0.061667
-0.791531 1.91142 -0.263187 1 1 2 192 192 192 255 0.390868 0.061667
-0.791531 1.83092 -0.263187 2 -2 1 192 192 192 255 0.290983 0.061667
-0.872028 1.83092 -0.263187 -1 -1 2 192 192 192 255 0.290983 0.061667
-0.791531 1.83092 -0.263187 2 -2 1 192 192 192 255 0.323964 0.061667
-0.791531 1.83092 -0.303387 1 -1 0 192 192 192 255 0.323964 0.061667
-0.791531 1.91142 -0.303387 2 2 0 192 192 192 255 0.323964 0.061667
-0.791531 1.91142 -0.263187 1 1 2 192 192 192 255 0.323964 0.061667
-0.872028 1.83092 -0.303387 -2 -2 0 192 192 192 255 0.323964 0.061667
-0.872028 1.83092 -0.263187 -1 -1 2 192 192 192 255 0.323964 0.061667
-0.872028 1.91142 -0.263187 -2 2 1 192 192 192 255 0.323964 0.061667
-0.872028 1.91142 -0.303387 -1 1 0 192 192 192 255 0.323964 0.061667
-3.75 4 0 0 1.71036e-005 6 192 192 192 255 0.750427 0.789687
-2.5 4 0 0 1.71036e-005 6 192 192 192 255 0.8862 0.789687
-2.5 5 0 0 0 3 192 192 192 255 0.8862 0.873158
-3.75 5 0 0 0 3 192 192 192 255 0.750427 0.873158
-1.25 5 0 0 0 3 192 192 192 255 0.750427 0.873158
-1.25 4 0 0 1.71036e-005 6 192 192 192 255 0.750427 0.789687
-5 3.29839 4e-006 -1.99977 2.00001 4.96979 192 192 192 255 0.919392 0.691264
-3.75 4 0 0 1.71036e-005 6 192 192 192 255 0.990896 0.701964
-5 4 0 0 5.70119e-006 3 192 192 192 255 0.919392 0.701964
-3.75 3.29839 4e-006 0 1.71036e-005 3 192 192 192 255 0.919392 0.691264
-2.5 4 0 0 1.71036e-005 6 192 192 192 255 0.990895 0.701964
-3.75 4 0 0 1.71036e-005 6 192 192 192 255 0.919392 0.701964
-2.5 3.29839 4e-006 0 1.71036e-005 3 192 192 192 255 0.919392 0.691264
-1.25 4 0 0 1.71036e-005 6 192 192 192 255 0.990895 0.701964
-2.5 4 0 0 1.71036e-005 6 192 192 192 255 0.919392 0.701964
0 4 0 0 1.14024e-005 3 192 192 192 255 0.990896 0.701964
-1.25 4 0 0 1.71036e-005 6 192 192 192 255 0.919392 0.701964
-1.25 3.29839 4e-006 0 1.71036e-005 3 192 192 192 255 0.919392 0.691264
0 3.29839 4e-006 1 1.00001 4 192 192 192 255 0.990896 0.691264
-5 1.62911 4e-006 -0.999313 -0.999994 4.98026 192 192 192 255 0.919392 0.665808
-3.75 1.62911 4e-006 0 -7.366e-006 3 192 192 192 255 0.919392 0.665808
-3.75 0 0 0 -7.366e-006 3 192 192 192 255 0.919392 0.640965
-2.5 1.62911 4e-006 0 -7.366e-006 3 192 192 192 255 0.919392 0.665808
-2.5 0 0 0 -7.366e-006 3 192 192 192 255 0.919392 0.640965
-1.25 1.62911 4e-006 0 -4.91067e-006 2 192 192 192 255 0.919392 0.665808
-1.25 0 0 0 -9.82134e-006 4 192 192 192 255 0.919392 0.640965
3 2 3 5 
3 2 5 4 
3 6 7 1 
3 6 1 0 
3 182 183 184 
3 182 184 185 
3 186 187 188 
3 186 188 189 
3 190 191 9 
3 190 9 8 
3 191 192 10 
3 191 10 9 
3 192 193 11 
3 192 11 10 
3 193 190 8 
3 193 8 11 
3 194 195 13 
3 194 13 12 
3 195 196 14 
3 195 14 13 
3 196 197 15 
3 196 15 14 
3 197 194 12 
3 197 12 15 
3 198 199 17 
3 198 17 16 
3 200 201 18 
3 200 18 202 
3 10 11 19 
3 10 19 203 
3 204 205 206 
3 204 206 207 
3 12 13 21 
3 12 21 20 
3 208 209 22 
3 208 22 210 
3 211 212 23 
3 211 23 213 
3 214 215 216 
3 214 216 217 
3 218 219 25 
3 218 25 24 
3 219 220 26 
3 219 26 25 
3 220 221 27 
3 220 27 26 
3 221 218 24 
3 221 24 27 
3 222 223 29 
3 222 29 28 
3 223 224 30 
3 223 30 29 
3 224 225 31 
3 224 31 30 
3 225 222 28 
3 225 28 31 
3 26 27 28 
3 26 28 29 
3 226 227 228 
3 226 228 229 
3 230 231 232 
3 230 232 233 
3 234 235 236 
3 234 236 237 
3 32 33 35 
3 32 35 34 
3 238 239 37 
3 238 37 36 
3 38 39 240 
3 38 240 241 
3 242 243 244 
3 242 244 245 
3 246 247 248 
3 246 248 249 
3 40 41 43 
3 40 43 42 
3 250 251 45 
3 250 45 44 
3 46 47 252 
3 46 252 253 
3 254 255 256 
3 254 256 257 
3 258 259 260 
3 258 260 261 
3 48 49 51 
3 48 51 50 
3 262 263 53 
3 262 53 52 
3 54 55 264 
3 54 264 265 
3 266 267 268 
3 266 268 269 
3 270 271 272 
3 270 272 273 
3 56 57 59 
3 56 59 58 
3 274 275 61 
3 274 61 60 
3 62 63 276 
3 62 276 277 
3 278 279 280 
3 278 280 281 
3 282 283 284 
3 282 284 285 
3 64 65 67 
3 64 67 66 
3 286 287 69 
3 286 69 68 
3 70 71 288 
3 70 288 289 
3 290 291 292 
3 290 292 293 
3 294 295 296 
3 294 296 297 
3 72 73 75 
3 72 75 74 
3 298 299 77 
3 298 77 76 
3 78 79 300 
3 78 300 301 
3 302 303 304 
3 302 304 305 
3 306 307 308 
3 306 308 309 
3 80 81 83 
3 80 83 82 
3 310 311 85 
3 310 85 84 
3 86 87 312 
3 86 312 313 
3 314 315 316 
3 314 316 317 
3 318 319 320 
3 318 320 321 
3 88 89 91 
3 88 91 90 
3 322 323 93 
3 322 93 92 
3 94 95 324 
3 94 324 325 
3 326 327 328 
3 326 328 329 
3 330 331 332 
3 330 332 333 
3 96 97 99 
3 96 99 98 
3 334 335 101 
3 334 101 100 
3 102 103 336 
3 102 336 337 
3 338 339 340 
3 338 340 341 
3 342 343 344 
3 342 344 345 
3 104 105 107 
3 104 107 106 
3 346 347 109 
3 346 109 108 
3 110 111 348 
3 110 348 349 
3 350 351 352 
3 350 352 353 
3 354 355 356 
3 354 356 357 
3 112 113 115 
3 112 115 114 
3 358 359 117 
3 358 117 116 
3 118 119 360 
3 118 360 361 
3 362 363 364 
3 362 364 365 
3 366 367 368 
3 366 368 369 
3 120 121 123 
3 120 123 122 
3 370 371 125 
3 370 125 124 
3 126 127 372 
3 126 372 373 
3 374 375 376 
3 374 376 377 
3 378 379 380 
3 378 380 381 
3 128 129 131 
3 128 131 130 
3 382 383 133 
3 382 133 132 
3 134 135 384 
3 134 384 385 
3 386 387 388 
3 386 388 389 
3 390 391 392 
3 390 392 393 
3 136 137 139 
3 136 139 138 
3 394 395 141 
3 394 141 140 
3 142 143 396 
3 142 396 397 
3 398 399 400 
3 398 400 401 
3 402 403 404 
3 402 404 405 
3 144 145 147 
3 144 147 146 
3 406 407 149 
3 406 149 148 
3 150 151 408 
3 150 408 409 
3 410 411 412 
3 410 412 413 
3 414 415 416 
3 414 416 417 
3 152 153 155 
3 152 155 154 
3 418 419 157 
3 418 157 156 
3 158 159 420 
3 158 420 421 
3 422 423 424 
3 422 424 425 
3 426 427 428 
3 426 428 429 
3 170 171 167 
3 170 167 162 
3 172 173 169 
3 172 169 165 
3 430 431 432 
3 430 432 433 
3 163 434 435 
3 163 435 174 
3 436 175 437 
3 436 437 438 
3 439 176 440 
3 439 440 441 
3 442 177 443 
3 442 443 444 
3 445 446 447 
3 445 447 448 
3 166 178 449 
3 166 449 160 
3 164 179 450 
3 164 450 451 
3 168 180 452 
3 168 452 453 
3 181 454 455 
3 181 455 161 
