ply
format ascii 1.0
comment VCGLIB generated
comment TextureFile WorldMap.png
element vertex 76
property float x
property float y
property float z
property float nx
property float ny
property float nz
property uchar red
property uchar green
property uchar blue
property uchar alpha
property float texture_u
property float texture_v
element face 48
property list uchar int vertex_indices
end_header
-0.911054 0 1e-006 -1 -1 2 192 192 192 255 0.140862 0.16937
0 0 1e-006 2 -2 1 192 192 192 255 0.140862 0.16937
-0.911054 0.356098 1e-006 -1 3 1 192 192 192 255 0.205881 0.16937
0 0.356098 1e-006 1 3 2 192 192 192 255 0.205881 0.16937
-0.911054 0.356098 -0.626006 -4 3 -2 192 192 192 255 0.173843 0.16937
0 0.356098 -0.626006 3 3 -1 192 192 192 255 0.173843 0.16937
-0.911054 0 -0.626006 -5 -2 -1 192 192 192 255 0.140862 0.16937
0 0 -0.626006 3 -1 -2 192 192 192 255 0.140862 0.16937
-0.911054 0.294094 1e-006 -3 0 3 192 192 192 255 0.205881 0.16937
0 0.294094 1e-006 3 0 3 192 192 192 255 0.205881 0.16937
-0.911054 0.201322 1e-006 -4 0 3 192 192 192 255 0.171798 0.063712
0 0.201322 1e-006 3 0 3 192 192 192 255 0.203837 0.063712
-0.911054 0.294094 -0.568356 -3 1 -2 192 192 192 255 0.173843 0.16937
-0.911054 0.201322 -0.568356 -2 -2 -1 192 192 192 255 0.173843 0.16937
0 0.294094 -0.568356 5 0 0 192 192 192 255 0.173843 0.16937
0 0.201322 -0.568356 4 0 0 192 192 192 255 0.173843 0.16937
-0.633863 0.356098 -0.153919 0 5 0 192 192 192 255 0.513718 0.598681
-0.277193 0.356098 -0.153919 0 4 0 192 192 192 255 0.583204 0.598681
-0.277193 0.356098 -0.472085 0 5 0 192 192 192 255 0.583204 0.670205
-0.633863 0.356098 -0.472085 0 4 0 192 192 192 255 0.513718 0.670205
-0.911054 0.294094 -0.469483 -4 2 1 192 192 192 255 0.173843 0.16937
-0.911054 0.201322 -0.469483 -3 -1 2 192 192 192 255 0.171798 0.063712
-1.06502 0.294094 -0.568356 -2 2 -1 192 192 192 255 0.145394 0.063712
-1.06502 0.201322 -0.568356 -1 -1 -2 192 192 192 255 0.145394 0.063712
-1.06502 0.201322 -0.469483 -2 -2 1 192 192 192 255 0.145394 0.063712
-1.06502 0.294094 -0.469483 -1 1 2 192 192 192 255 0.145394 0.063712
0 0.294094 1e-006 3 0 3 192 192 192 255 0.173843 0.16937
0 0.356098 1e-006 1 3 2 192 192 192 255 0.173843 0.16937
-0.911054 0.294094 1e-006 -3 0 3 192 192 192 255 0.173843 0.16937
-0.911054 0.356098 1e-006 -1 3 1 192 192 192 255 0.173843 0.16937
-0.911054 0.294094 -0.469483 -4 2 1 192 192 192 255 0.171798 0.063712
-0.911054 0.294094 1e-006 -3 0 3 192 192 192 255 0.171798 0.063712
-0.911054 0.201322 1e-006 -4 0 3 192 192 192 255 0.203837 0.063712
0 0.294094 1e-006 3 0 3 192 192 192 255 0.203837 0.063712
-0.911054 0.294094 1e-006 -3 0 3 192 192 192 255 0.203837 0.063712
0 0 -0.626006 3 -1 -2 192 192 192 255 0.173843 0.16937
-0.911054 0.356098 -0.626006 -4 3 -2 192 192 192 255 0.205881 0.16937
0 0.356098 -0.626006 3 3 -1 192 192 192 255 0.205881 0.16937
0 0 -0.626006 3 -1 -2 192 192 192 255 0.205881 0.16937
-0.911054 0 -0.626006 -5 -2 -1 192 192 192 255 0.205881 0.16937
-0.911054 0 -0.626006 -5 -2 -1 192 192 192 255 0.173843 0.16937
-0.911054 0 1e-006 -1 -1 2 192 192 192 255 0.173843 0.16937
-0.911054 0.201322 1e-006 -4 0 3 192 192 192 255 0.173843 0.16937
-0.911054 0.201322 -0.469483 -3 -1 2 192 192 192 255 0.173843 0.16937
-0.911054 0 1e-006 -1 -1 2 192 192 192 255 0.205881 0.16937
0 0 1e-006 2 -2 1 192 192 192 255 0.205881 0.16937
0 0.201322 1e-006 3 0 3 192 192 192 255 0.205881 0.16937
-0.911054 0.201322 1e-006 -4 0 3 192 192 192 255 0.205881 0.16937
0 0 1e-006 2 -2 1 192 192 192 255 0.173843 0.16937
0 0.201322 1e-006 3 0 3 192 192 192 255 0.173843 0.16937
0 0.201322 1e-006 3 0 3 192 192 192 255 0.171798 0.063712
0 0.201322 -0.568356 4 0 0 192 192 192 255 0.171798 0.063712
0 0.294094 -0.568356 5 0 0 192 192 192 255 0.171798 0.063712
0 0.294094 1e-006 3 0 3 192 192 192 255 0.171798 0.063712
-0.911054 0.356098 1e-006 -1 3 1 192 192 192 255 0.241261 0.170532
0 0.356098 1e-006 1 3 2 192 192 192 255 0.241261 0.170532
-0.277193 0.356098 -0.153919 0 4 0 192 192 192 255 0.241261 0.170532
-0.633863 0.356098 -0.153919 0 5 0 192 192 192 255 0.241261 0.170532
0 0.356098 -0.626006 3 3 -1 192 192 192 255 0.241261 0.170532
-0.277193 0.356098 -0.472085 0 5 0 192 192 192 255 0.241261 0.170532
-0.911054 0.356098 -0.626006 -4 3 -2 192 192 192 255 0.241261 0.170532
-0.633863 0.356098 -0.472085 0 4 0 192 192 192 255 0.241261 0.170532
-0.911054 0.294094 -0.568356 -3 1 -2 192 192 192 255 0.171798 0.063712
-0.911054 0.201322 -0.568356 -2 -2 -1 192 192 192 255 0.171798 0.063712
-1.06502 0.201322 -0.568356 -1 -1 -2 192 192 192 255 0.171798 0.063712
-1.06502 0.294094 -0.568356 -2 2 -1 192 192 192 255 0.171798 0.063712
-0.911054 0.201322 -0.568356 -2 -2 -1 192 192 192 255 0.108117 0.063712
-0.911054 0.201322 -0.469483 -3 -1 2 192 192 192 255 0.108117 0.063712
-1.06502 0.201322 -0.469483 -2 -2 1 192 192 192 255 0.108117 0.063712
-1.06502 0.201322 -0.568356 -1 -1 -2 192 192 192 255 0.108117 0.063712
-1.06502 0.294094 -0.469483 -1 1 2 192 192 192 255 0.171798 0.063712
-1.06502 0.201322 -0.469483 -2 -2 1 192 192 192 255 0.171798 0.063712
-0.911054 0.294094 -0.469483 -4 2 1 192 192 192 255 0.199756 0.063712
-0.911054 0.294094 -0.568356 -3 1 -2 192 192 192 255 0.199756 0.063712
-1.06502 0.294094 -0.568356 -2 2 -1 192 192 192 255 0.199756 0.063712
-1.06502 0.294094 -0.469483 -1 1 2 192 192 192 255 0.199756 0.063712
3 8 9 3 
3 8 3 2 
3 16 17 18 
3 16 18 19 
3 6 7 1 
3 6 1 0 
3 26 14 5 
3 26 5 27 
3 4 12 20 
3 4 20 28 
3 4 28 29 
3 30 21 10 
3 30 10 31 
3 32 11 33 
3 32 33 34 
3 14 15 35 
3 14 35 5 
3 36 37 38 
3 36 38 39 
3 40 41 42 
3 40 42 43 
3 40 43 13 
3 44 45 46 
3 44 46 47 
3 48 35 15 
3 48 15 49 
3 40 13 12 
3 40 12 4 
3 50 51 52 
3 50 52 53 
3 54 55 56 
3 54 56 57 
3 55 58 59 
3 55 59 56 
3 58 60 61 
3 58 61 59 
3 60 54 57 
3 60 57 61 
3 22 23 24 
3 22 24 25 
3 62 63 64 
3 62 64 65 
3 66 67 68 
3 66 68 69 
3 21 30 70 
3 21 70 71 
3 72 73 74 
3 72 74 75 
