ply
format ascii 1.0
comment VCGLIB generated
comment TextureFile WorldMap.png
element vertex 100
property float x
property float y
property float z
property float nx
property float ny
property float nz
property uchar red
property uchar green
property uchar blue
property uchar alpha
property float texture_u
property float texture_v
element face 62
property list uchar int vertex_indices
end_header
-0.048965 0.027339 -0.433732 -1 -1 0 192 192 192 255 0.326269 0.471828
0.048964 0.027339 -0.433732 2 -2 0 192 192 192 255 0.326269 0.471828
-0.048965 0.125269 -0.433732 -2 2 0 192 192 192 255 0.426154 0.471828
0.048964 0.125269 -0.433732 1 1 0 192 192 192 255 0.426154 0.471828
-0.048965 0.125269 -0.644712 -1 1 -2 192 192 192 255 0.426154 0.471828
0.048964 0.125269 -0.644712 2 2 -1 192 192 192 255 0.426154 0.471828
-0.048965 0.027339 -0.644712 -2 -2 -1 192 192 192 255 0.391288 0.471828
0.048964 0.027339 -0.644712 1 -1 -2 192 192 192 255 0.391288 0.471828
-0.298956 0.061107 0.644711 -1 -3 2 192 192 192 255 0.421836 0.060665
0.298956 0.061107 0.644711 2 -3 1 192 192 192 255 0.421836 0.060665
-0.298956 0.08431 0.644711 -2 3 1 192 192 192 255 0.421836 0.060665
0.298956 0.08431 0.644711 1 3 2 192 192 192 255 0.421836 0.060665
-0.298956 0.08431 -0.520408 -1 3 -2 192 192 192 255 0.421836 0.060665
0.298956 0.08431 -0.520408 2 3 -1 192 192 192 255 0.421836 0.060665
-0.298956 0.061107 -0.520408 -2 -3 -1 192 192 192 255 0.421836 0.060665
0.298956 0.061107 -0.520408 1 -3 -2 192 192 192 255 0.421836 0.060665
-0.248992 0.08431 0.593782 -0.784482 4.8751 1.55728 192 192 192 255 0.456702 0.060665
0.248993 0.08431 0.593782 1.56895 4.8678 0.778638 192 192 192 255 0.456702 0.060665
0.248993 0.08431 -0.469478 0.784474 4.87507 -1.55731 192 192 192 255 0.456702 0.060665
-0.248992 0.08431 -0.469478 -1.56896 4.86776 -0.778653 192 192 192 255 0.456702 0.060665
-0.248992 0.061107 -0.469478 -0.784482 -4.87506 -1.55731 192 192 192 255 0.356817 0.060665
0.248993 0.061107 -0.469478 1.56895 -4.86778 -0.778653 192 192 192 255 0.356817 0.060665
0.248993 0.061107 0.593782 0.784474 -4.87511 1.55727 192 192 192 255 0.356817 0.060665
-0.248992 0.061107 0.593782 -1.56896 -4.86778 0.778637 192 192 192 255 0.356817 0.060665
-0.208529 0.135495 0.552534 -1.56896 4.86778 0.778638 192 192 192 255 0.41603 0.060555
0.208529 0.135495 0.552534 0.784474 4.87511 1.55728 192 192 192 255 0.41603 0.060555
0.208529 0.135495 -0.428232 1.56895 4.86778 -0.778653 192 192 192 255 0.389432 0.060623
-0.208529 0.135495 -0.428232 -0.784482 4.87506 -1.55731 192 192 192 255 0.41603 0.060555
-0.208529 0.009922 -0.428232 -1.56896 -3.86776 -0.778653 192 192 192 255 0.303131 0.060665
0.208529 0.009922 -0.428232 0.784474 -2.87507 -1.55731 192 192 192 255 0.303131 0.060665
0.208529 0.009922 0.552534 1.56895 -3.8678 0.778637 192 192 192 255 0.303131 0.060665
-0.208529 0.009922 0.552534 -0.784482 -2.8751 1.55727 192 192 192 255 0.303131 0.060665
0.015636 0.135495 0.052267 0 5 0 192 192 192 255 0.42446 0.480927
0.17011 0.135495 0.052267 0 4 0 192 192 192 255 0.42446 0.480927
0.17011 0.135495 -0.33458 0 5 0 192 192 192 255 0.42446 0.480927
0.015636 0.135495 -0.33458 0 4 0 192 192 192 255 0.42446 0.480927
-0.048965 0.125269 -0.644712 -1 1 -2 192 192 192 255 0.391288 0.471828
0.048964 0.125269 -0.644712 2 2 -1 192 192 192 255 0.391288 0.471828
-0.048965 0.027339 -0.644712 -2 -2 -1 192 192 192 255 0.326269 0.471828
0.048964 0.027339 -0.644712 1 -1 -2 192 192 192 255 0.326269 0.471828
0.048964 0.027339 -0.433732 2 -2 0 192 192 192 255 0.35925 0.471828
0.048964 0.027339 -0.644712 1 -1 -2 192 192 192 255 0.359249 0.471828
0.048964 0.125269 -0.644712 2 2 -1 192 192 192 255 0.359249 0.471828
0.048964 0.125269 -0.433732 1 1 0 192 192 192 255 0.35925 0.471828
-0.048965 0.027339 -0.644712 -2 -2 -1 192 192 192 255 0.35925 0.471828
-0.048965 0.027339 -0.433732 -1 -1 0 192 192 192 255 0.35925 0.471828
-0.048965 0.125269 -0.433732 -2 2 0 192 192 192 255 0.35925 0.471828
-0.048965 0.125269 -0.644712 -1 1 -2 192 192 192 255 0.35925 0.471828
0.298956 0.061107 0.644711 2 -3 1 192 192 192 255 0.389798 0.060665
0.298956 0.061107 -0.520408 1 -3 -2 192 192 192 255 0.389798 0.060665
0.298956 0.08431 -0.520408 2 3 -1 192 192 192 255 0.389798 0.060665
0.298956 0.08431 0.644711 1 3 2 192 192 192 255 0.389798 0.060665
-0.298956 0.061107 -0.520408 -2 -3 -1 192 192 192 255 0.389798 0.060665
-0.298956 0.061107 0.644711 -1 -3 2 192 192 192 255 0.389798 0.060665
-0.298956 0.08431 0.644711 -2 3 1 192 192 192 255 0.389798 0.060665
-0.298956 0.08431 -0.520408 -1 3 -2 192 192 192 255 0.389798 0.060665
-0.298956 0.08431 0.644711 -2 3 1 192 192 192 255 0.456702 0.060665
0.298956 0.08431 0.644711 1 3 2 192 192 192 255 0.456702 0.060665
0.298956 0.08431 -0.520408 2 3 -1 192 192 192 255 0.456702 0.060665
-0.298956 0.08431 -0.520408 -1 3 -2 192 192 192 255 0.456702 0.060665
-0.298956 0.061107 -0.520408 -2 -3 -1 192 192 192 255 0.356817 0.060665
0.298956 0.061107 -0.520408 1 -3 -2 192 192 192 255 0.356817 0.060665
0.298956 0.061107 0.644711 2 -3 1 192 192 192 255 0.356817 0.060665
-0.298956 0.061107 0.644711 -1 -3 2 192 192 192 255 0.356817 0.060665
-0.248992 0.08431 0.593782 -0.784482 4.8751 1.55728 192 192 192 255 0.41603 0.060555
0.248993 0.08431 0.593782 1.56895 4.8678 0.778638 192 192 192 255 0.41603 0.060555
0.248993 0.08431 0.593782 1.56895 4.8678 0.778638 192 192 192 255 0.389432 0.060623
0.248993 0.08431 -0.469478 0.784474 4.87507 -1.55731 192 192 192 255 0.389432 0.060623
0.208529 0.135495 0.552534 0.784474 4.87511 1.55728 192 192 192 255 0.389432 0.060623
0.248993 0.08431 -0.469478 0.784474 4.87507 -1.55731 192 192 192 255 0.41603 0.060555
-0.248992 0.08431 -0.469478 -1.56896 4.86776 -0.778653 192 192 192 255 0.41603 0.060555
0.208529 0.135495 -0.428232 1.56895 4.86778 -0.778653 192 192 192 255 0.41603 0.060555
-0.248992 0.08431 -0.469478 -1.56896 4.86776 -0.778653 192 192 192 255 0.389432 0.060623
-0.248992 0.08431 0.593782 -0.784482 4.8751 1.55728 192 192 192 255 0.389432 0.060623
-0.208529 0.135495 0.552534 -1.56896 4.86778 0.778638 192 192 192 255 0.389432 0.060623
-0.208529 0.135495 -0.428232 -0.784482 4.87506 -1.55731 192 192 192 255 0.389432 0.060623
-0.248992 0.061107 -0.469478 -0.784482 -4.87506 -1.55731 192 192 192 255 0.362344 0.060555
0.248993 0.061107 -0.469478 1.56895 -4.86778 -0.778653 192 192 192 255 0.362344 0.060555
0.208529 0.009922 -0.428232 0.784474 -2.87507 -1.55731 192 192 192 255 0.362344 0.060555
-0.208529 0.009922 -0.428232 -1.56896 -3.86776 -0.778653 192 192 192 255 0.362344 0.060555
0.248993 0.061107 -0.469478 1.56895 -4.86778 -0.778653 192 192 192 255 0.335746 0.060623
0.248993 0.061107 0.593782 0.784474 -4.87511 1.55727 192 192 192 255 0.335746 0.060623
0.208529 0.009922 0.552534 1.56895 -3.8678 0.778637 192 192 192 255 0.335746 0.060623
0.208529 0.009922 -0.428232 0.784474 -2.87507 -1.55731 192 192 192 255 0.335746 0.060623
0.248993 0.061107 0.593782 0.784474 -4.87511 1.55727 192 192 192 255 0.362344 0.060555
-0.248992 0.061107 0.593782 -1.56896 -4.86778 0.778637 192 192 192 255 0.362344 0.060555
-0.208529 0.009922 0.552534 -0.784482 -2.8751 1.55727 192 192 192 255 0.362344 0.060555
0.208529 0.009922 0.552534 1.56895 -3.8678 0.778637 192 192 192 255 0.362344 0.060555
-0.248992 0.061107 0.593782 -1.56896 -4.86778 0.778637 192 192 192 255 0.335746 0.060623
-0.248992 0.061107 -0.469478 -0.784482 -4.87506 -1.55731 192 192 192 255 0.335746 0.060623
-0.208529 0.009922 -0.428232 -1.56896 -3.86776 -0.778653 192 192 192 255 0.335746 0.060623
-0.208529 0.009922 0.552534 -0.784482 -2.8751 1.55727 192 192 192 255 0.335746 0.060623
-0.208529 0.135495 0.552534 -1.56896 4.86778 0.778638 192 192 192 255 0.456702 0.060665
0.208529 0.135495 0.552534 0.784474 4.87511 1.55728 192 192 192 255 0.456702 0.060665
0.17011 0.135495 0.052267 0 4 0 192 192 192 255 0.456702 0.060665
0.015636 0.135495 0.052267 0 5 0 192 192 192 255 0.456702 0.060665
0.208529 0.135495 -0.428232 1.56895 4.86778 -0.778653 192 192 192 255 0.456702 0.060665
0.17011 0.135495 -0.33458 0 5 0 192 192 192 255 0.456702 0.060665
-0.208529 0.135495 -0.428232 -0.784482 4.87506 -1.55731 192 192 192 255 0.456702 0.060665
0.015636 0.135495 -0.33458 0 4 0 192 192 192 255 0.456702 0.060665
3 2 3 5 
3 2 5 4 
3 36 37 7 
3 36 7 6 
3 38 39 1 
3 38 1 0 
3 40 41 42 
3 40 42 43 
3 44 45 46 
3 44 46 47 
3 8 9 11 
3 8 11 10 
3 32 33 34 
3 32 34 35 
3 12 13 15 
3 12 15 14 
3 28 29 30 
3 28 30 31 
3 48 49 50 
3 48 50 51 
3 52 53 54 
3 52 54 55 
3 56 57 17 
3 56 17 16 
3 57 58 18 
3 57 18 17 
3 58 59 19 
3 58 19 18 
3 59 56 16 
3 59 16 19 
3 60 61 21 
3 60 21 20 
3 61 62 22 
3 61 22 21 
3 62 63 23 
3 62 23 22 
3 63 60 20 
3 63 20 23 
3 64 65 25 
3 64 25 24 
3 66 67 26 
3 66 26 68 
3 69 70 27 
3 69 27 71 
3 72 73 74 
3 72 74 75 
3 76 77 78 
3 76 78 79 
3 80 81 82 
3 80 82 83 
3 84 85 86 
3 84 86 87 
3 88 89 90 
3 88 90 91 
3 92 93 94 
3 92 94 95 
3 93 96 97 
3 93 97 94 
3 96 98 99 
3 96 99 97 
3 98 92 95 
3 98 95 99 
