ply
format ascii 1.0
comment VCGLIB generated
comment TextureFile WorldMap.png
element vertex 80
property float x
property float y
property float z
property float nx
property float ny
property float nz
property uchar red
property uchar green
property uchar blue
property uchar alpha
property float texture_u
property float texture_v
element face 52
property list uchar int vertex_indices
end_header
-0.469685 -0.028386 0.337975 -1 -3 2 192 192 192 255 0.358354 0.060665
0.469687 -0.028386 0.337975 2 -3 1 192 192 192 255 0.358354 0.060665
-0.469685 0.028386 0.337975 -2 3 1 192 192 192 255 0.358354 0.060665
0.469687 0.028386 0.337975 1 3 2 192 192 192 255 0.358354 0.060665
-0.469685 0.028386 -0.337975 -1 3 -2 192 192 192 255 0.358354 0.060665
0.469687 0.028386 -0.337975 2 3 -1 192 192 192 255 0.358354 0.060665
-0.469685 -0.028386 -0.337975 -2 -3 -1 192 192 192 255 0.358354 0.060665
0.469687 -0.028386 -0.337975 1 -3 -2 192 192 192 255 0.358354 0.060665
-0.391189 0.028386 0.281491 -0.891688 4.13888 1.87859 192 192 192 255 0.393219 0.060665
0.39119 0.028386 0.281491 1.78338 4.24841 0.939294 192 192 192 255 0.393219 0.060665
0.39119 0.028386 -0.281491 0.891691 4.13885 -1.8786 192 192 192 255 0.393219 0.060665
-0.391189 0.028386 -0.281491 -1.78338 4.2484 -0.939298 192 192 192 255 0.393219 0.060665
-0.391189 -0.028386 -0.281491 -0.891688 -4.13885 -1.8786 192 192 192 255 0.293334 0.060665
0.39119 -0.028386 -0.281491 1.78338 -4.24839 -0.939298 192 192 192 255 0.293334 0.060665
0.39119 -0.028386 0.281491 0.891691 -4.13887 1.87859 192 192 192 255 0.293334 0.060665
-0.391189 -0.028386 0.281491 -1.78338 -4.24842 0.939294 192 192 192 255 0.293334 0.060665
-0.327617 0.153618 0.235745 -1.78338 4.24842 0.939294 192 192 192 255 0.352547 0.060555
0.327619 0.153618 0.235745 0.891691 4.13887 1.87859 192 192 192 255 0.352547 0.060555
0.327619 0.153618 -0.235747 1.78338 4.24839 -0.939298 192 192 192 255 0.325949 0.060623
-0.327617 0.153618 -0.235747 -0.891688 4.13885 -1.8786 192 192 192 255 0.352547 0.060555
-0.327617 -0.153618 -0.235747 -1.78338 -3.2484 -0.939298 192 192 192 255 0.239648 0.060665
0.327619 -0.153618 -0.235747 0.891691 -2.13885 -1.8786 192 192 192 255 0.239648 0.060665
0.327619 -0.153618 0.235745 1.78338 -3.24841 0.939294 192 192 192 255 0.239648 0.060665
-0.327617 -0.153618 0.235745 -0.891688 -2.13888 1.87859 192 192 192 255 0.239648 0.060665
-0.157555 0.153618 -0.076019 0 5 0 192 192 192 255 0.42446 0.480927
0.157557 0.153618 -0.076019 0 4 0 192 192 192 255 0.42446 0.480927
0.157557 0.153618 -0.171295 0 5 0 192 192 192 255 0.42446 0.480927
-0.157555 0.153618 -0.171295 0 4 0 192 192 192 255 0.42446 0.480927
0.469687 -0.028386 0.337975 2 -3 1 192 192 192 255 0.326315 0.060665
0.469687 -0.028386 -0.337975 1 -3 -2 192 192 192 255 0.326315 0.060665
0.469687 0.028386 -0.337975 2 3 -1 192 192 192 255 0.326315 0.060665
0.469687 0.028386 0.337975 1 3 2 192 192 192 255 0.326315 0.060665
-0.469685 -0.028386 -0.337975 -2 -3 -1 192 192 192 255 0.326315 0.060665
-0.469685 -0.028386 0.337975 -1 -3 2 192 192 192 255 0.326315 0.060665
-0.469685 0.028386 0.337975 -2 3 1 192 192 192 255 0.326315 0.060665
-0.469685 0.028386 -0.337975 -1 3 -2 192 192 192 255 0.326315 0.060665
-0.469685 0.028386 0.337975 -2 3 1 192 192 192 255 0.393219 0.060665
0.469687 0.028386 0.337975 1 3 2 192 192 192 255 0.393219 0.060665
0.469687 0.028386 -0.337975 2 3 -1 192 192 192 255 0.393219 0.060665
-0.469685 0.028386 -0.337975 -1 3 -2 192 192 192 255 0.393219 0.060665
-0.469685 -0.028386 -0.337975 -2 -3 -1 192 192 192 255 0.293334 0.060665
0.469687 -0.028386 -0.337975 1 -3 -2 192 192 192 255 0.293334 0.060665
0.469687 -0.028386 0.337975 2 -3 1 192 192 192 255 0.293334 0.060665
-0.469685 -0.028386 0.337975 -1 -3 2 192 192 192 255 0.293334 0.060665
-0.391189 0.028386 0.281491 -0.891688 4.13888 1.87859 192 192 192 255 0.352547 0.060555
0.39119 0.028386 0.281491 1.78338 4.24841 0.939294 192 192 192 255 0.352547 0.060555
0.39119 0.028386 0.281491 1.78338 4.24841 0.939294 192 192 192 255 0.325949 0.060623
0.39119 0.028386 -0.281491 0.891691 4.13885 -1.8786 192 192 192 255 0.325949 0.060623
0.327619 0.153618 0.235745 0.891691 4.13887 1.87859 192 192 192 255 0.325949 0.060623
0.39119 0.028386 -0.281491 0.891691 4.13885 -1.8786 192 192 192 255 0.352547 0.060555
-0.391189 0.028386 -0.281491 -1.78338 4.2484 -0.939298 192 192 192 255 0.352547 0.060555
0.327619 0.153618 -0.235747 1.78338 4.24839 -0.939298 192 192 192 255 0.352547 0.060555
-0.391189 0.028386 -0.281491 -1.78338 4.2484 -0.939298 192 192 192 255 0.325949 0.060623
-0.391189 0.028386 0.281491 -0.891688 4.13888 1.87859 192 192 192 255 0.325949 0.060623
-0.327617 0.153618 0.235745 -1.78338 4.24842 0.939294 192 192 192 255 0.325949 0.060623
-0.327617 0.153618 -0.235747 -0.891688 4.13885 -1.8786 192 192 192 255 0.325949 0.060623
-0.391189 -0.028386 -0.281491 -0.891688 -4.13885 -1.8786 192 192 192 255 0.298861 0.060555
0.39119 -0.028386 -0.281491 1.78338 -4.24839 -0.939298 192 192 192 255 0.298861 0.060555
0.327619 -0.153618 -0.235747 0.891691 -2.13885 -1.8786 192 192 192 255 0.298861 0.060555
-0.327617 -0.153618 -0.235747 -1.78338 -3.2484 -0.939298 192 192 192 255 0.298861 0.060555
0.39119 -0.028386 -0.281491 1.78338 -4.24839 -0.939298 192 192 192 255 0.272263 0.060623
0.39119 -0.028386 0.281491 0.891691 -4.13887 1.87859 192 192 192 255 0.272263 0.060623
0.327619 -0.153618 0.235745 1.78338 -3.24841 0.939294 192 192 192 255 0.272263 0.060623
0.327619 -0.153618 -0.235747 0.891691 -2.13885 -1.8786 192 192 192 255 0.272263 0.060623
0.39119 -0.028386 0.281491 0.891691 -4.13887 1.87859 192 192 192 255 0.298861 0.060555
-0.391189 -0.028386 0.281491 -1.78338 -4.24842 0.939294 192 192 192 255 0.298861 0.060555
-0.327617 -0.153618 0.235745 -0.891688 -2.13888 1.87859 192 192 192 255 0.298861 0.060555
0.327619 -0.153618 0.235745 1.78338 -3.24841 0.939294 192 192 192 255 0.298861 0.060555
-0.391189 -0.028386 0.281491 -1.78338 -4.24842 0.939294 192 192 192 255 0.272263 0.060623
-0.391189 -0.028386 -0.281491 -0.891688 -4.13885 -1.8786 192 192 192 255 0.272263 0.060623
-0.327617 -0.153618 -0.235747 -1.78338 -3.2484 -0.939298 192 192 192 255 0.272263 0.060623
-0.327617 -0.153618 0.235745 -0.891688 -2.13888 1.87859 192 192 192 255 0.272263 0.060623
-0.327617 0.153618 0.235745 -1.78338 4.24842 0.939294 192 192 192 255 0.393219 0.060665
0.327619 0.153618 0.235745 0.891691 4.13887 1.87859 192 192 192 255 0.393219 0.060665
0.157557 0.153618 -0.076019 0 4 0 192 192 192 255 0.393219 0.060665
-0.157555 0.153618 -0.076019 0 5 0 192 192 192 255 0.393219 0.060665
0.327619 0.153618 -0.235747 1.78338 4.24839 -0.939298 192 192 192 255 0.393219 0.060665
0.157557 0.153618 -0.171295 0 5 0 192 192 192 255 0.393219 0.060665
-0.327617 0.153618 -0.235747 -0.891688 4.13885 -1.8786 192 192 192 255 0.393219 0.060665
-0.157555 0.153618 -0.171295 0 4 0 192 192 192 255 0.393219 0.060665
3 0 1 3 
3 0 3 2 
3 24 25 26 
3 24 26 27 
3 4 5 7 
3 4 7 6 
3 20 21 22 
3 20 22 23 
3 28 29 30 
3 28 30 31 
3 32 33 34 
3 32 34 35 
3 36 37 9 
3 36 9 8 
3 37 38 10 
3 37 10 9 
3 38 39 11 
3 38 11 10 
3 39 36 8 
3 39 8 11 
3 40 41 13 
3 40 13 12 
3 41 42 14 
3 41 14 13 
3 42 43 15 
3 42 15 14 
3 43 40 12 
3 43 12 15 
3 44 45 17 
3 44 17 16 
3 46 47 18 
3 46 18 48 
3 49 50 19 
3 49 19 51 
3 52 53 54 
3 52 54 55 
3 56 57 58 
3 56 58 59 
3 60 61 62 
3 60 62 63 
3 64 65 66 
3 64 66 67 
3 68 69 70 
3 68 70 71 
3 72 73 74 
3 72 74 75 
3 73 76 77 
3 73 77 74 
3 76 78 79 
3 76 79 77 
3 78 72 75 
3 78 75 79 
