ply
format ascii 1.0
comment VCGLIB generated
comment TextureFile WorldMap.png
element vertex 238
property float x
property float y
property float z
property float nx
property float ny
property float nz
property uchar red
property uchar green
property uchar blue
property uchar alpha
property float texture_u
property float texture_v
element face 148
property list uchar int vertex_indices
end_header
-0.140934 0.818368 0.090521 -1 -1 3 192 192 192 255 0.202154 0.085509
0.030774 0.818368 0.090521 2 -2 3 192 192 192 255 0.202154 0.085509
-0.140934 0.990076 0.090521 -2 2 3 192 192 192 255 0.302039 0.085509
0.030774 0.990076 0.090521 1 1 3 192 192 192 255 0.302039 0.085509
-0.140934 0.990076 0.051905 -1 1 -2 192 192 192 255 0.302039 0.085509
0.030774 0.990076 0.051905 2 2 -1 192 192 192 255 0.302039 0.085509
-0.140934 0.818368 0.051905 -2 -2 -1 192 192 192 255 0.267174 0.085509
0.030774 0.818368 0.051905 1 -1 -2 192 192 192 255 0.267174 0.085509
-0.122367 0.836937 0.090521 0 0 6 192 192 192 255 0.267174 0.085509
0.012204 0.836937 0.090521 0 0 6 192 192 192 255 0.267174 0.085509
0.012204 0.971508 0.090521 0 0 6 192 192 192 255 0.267174 0.085509
-0.122367 0.971508 0.090521 0 0 6 192 192 192 255 0.267174 0.085509
-0.086519 0.872782 0.090521 0 0 5 192 192 192 255 0.329392 0.086861
-0.02364 0.872782 0.090521 0 0 4 192 192 192 255 0.329392 0.086861
-0.02364 0.935662 0.090521 0 0 5 192 192 192 255 0.329392 0.086861
-0.086519 0.935662 0.090521 0 0 4 192 192 192 255 0.329392 0.086861
-0.152738 0 0.103082 -1 -1 4 192 192 192 255 0.263752 0.061667
0.053422 0 0.103082 3 -2 1 192 192 192 255 0.263752 0.061667
-0.152738 0.744772 0.103082 -1.87236 1.46661 2.7447 192 192 192 255 0.204515 0.061667
0.053422 0.744772 0.103082 2.74473 1.46659 2.87235 192 192 192 255 0.204515 0.061667
-0.152738 0.744772 -0.103081 -4.74473 1.46659 -2.87235 192 192 192 255 0.172477 0.061667
0.053422 0.744772 -0.103081 3.87236 1.46661 -2.7447 192 192 192 255 0.172477 0.061667
-0.152738 0 -0.103081 -3 -2 -1 192 192 192 255 0.263752 0.061667
0.053422 0 -0.103081 1 -1 -2 192 192 192 255 0.263752 0.061667
-0.101563 0.836094 0.051904 -4.74473 1.46659 2.87235 192 192 192 255 0.239381 0.061667
0.002247 0.836094 0.051904 2.87236 1.46661 2.7447 192 192 192 255 0.239381 0.061667
0.002247 0.836094 -0.051903 2.74472 1.46657 -2.87235 192 192 192 255 0.203628 0.061667
-0.101563 0.836094 -0.051903 -3.87237 1.4666 -2.7447 192 192 192 255 0.239381 0.061667
-0.101563 0.893926 0.051904 -4 0 3 192 192 192 255 0.206878 0.061667
0.002247 0.893926 0.051904 1 -2 4 192 192 192 255 0.206878 0.061667
0.002247 0.893926 -0.051904 1.99999 -0.999989 -3 192 192 192 255 0.170042 0.061667
-0.101563 0.893926 -0.051903 -5.00002 2.02633e-006 -4 192 192 192 255 0.206878 0.061667
-0.152738 0.63848 0.103082 -3 0 4 192 192 192 255 0.204515 0.061667
0.053422 0.63848 0.103082 3 0 3 192 192 192 255 0.204515 0.061667
-0.152738 0.179681 -0.103081 -3 0 -3 192 192 192 255 0.199579 0.062702
-0.152738 0.179681 0.103082 -4 0 3 192 192 192 255 0.207306 0.170489
0.053422 0.179681 0.103082 3 0 4 192 192 192 255 0.239345 0.170489
0.053422 0.179681 -0.103081 4 0 -3 192 192 192 255 0.16754 0.062702
0.022497 0.63848 0.103082 0 0 6 192 192 192 255 0.204515 0.061667
0.022497 0.179681 0.103082 0 0 8 192 192 192 255 0.239345 0.170489
-0.121814 0.63848 0.103082 0 0 7 192 192 192 255 0.204515 0.061667
-0.121814 0.179681 0.103082 0 0 6 192 192 192 255 0.328771 0.061667
-0.000793 0.606015 0.103082 0 0 5 192 192 192 255 0.239345 0.222262
-0.000793 0.265699 0.103082 0 0 6 192 192 192 255 0.239345 0.222262
-0.098524 0.606015 0.103082 0 0 4 192 192 192 255 0.239345 0.222262
-0.098524 0.265699 0.103082 0 0 6 192 192 192 255 0.239345 0.222262
-0.059326 0.365412 0.103082 0 0 4 192 192 192 255 0.392782 0.063177
-0.059326 0.277529 0.103082 0 0 5 192 192 192 255 0.392782 0.063177
-0.084394 0.365412 0.103082 0 0 5 192 192 192 255 0.392782 0.063177
-0.084394 0.277529 0.103082 0 0 4 192 192 192 255 0.392782 0.063177
-0.098524 0.401825 0.103082 0 0 7 192 192 192 255 0.239345 0.222262
-0.000793 0.401825 0.103082 0 0 6 192 192 192 255 0.239345 0.222262
-0.098524 0.563148 0.103082 0 0 5 192 192 192 255 0.239345 0.222262
-0.000793 0.563148 0.103082 0 0 5 192 192 192 255 0.239345 0.222262
-0.152738 0.63848 1e-006 -5 0 0 192 192 192 255 0.172477 0.061667
-0.152738 0.179681 1e-006 -4 0 0 192 192 192 255 0.207306 0.170489
0.053422 0.63848 1e-006 5 0 0 192 192 192 255 0.172477 0.061667
0.053422 0.179681 1e-006 4 0 0 192 192 192 255 0.16754 0.062702
0.002789 0.945838 0.051904 0.501072 0.134594 6 192 192 192 255 0.232455 0.170775
0.187051 1.05253 0.051904 2.7342 -0.730826 1 192 192 192 255 0.232455 0.170775
-0.101563 0.945838 0.051904 -3 1.73205 2 192 192 192 255 0.232455 0.170775
0.161095 1.09748 0.051904 0.366029 1.36602 2 192 192 192 255 0.232455 0.170775
-0.101563 0.945838 -0.051903 -1.50001 0.866035 -3 192 192 192 255 0.26732 0.170775
0.161095 1.09748 -0.051903 0.732057 2.73204 -1 192 192 192 255 0.26732 0.170775
0.002789 0.945838 -0.051903 1.00214 0.269227 -5 192 192 192 255 0.232455 0.170775
0.187051 1.05253 -0.051903 1.3671 -0.365413 -2 192 192 192 255 0.232455 0.170775
0.201729 0.893926 0.051904 2 -1 2 192 192 192 255 0.200416 0.170775
0.201729 0.945838 0.051904 1 2 1 192 192 192 255 0.26732 0.170775
0.201729 0.945838 -0.051903 2 1.00001 -1 192 192 192 255 0.26732 0.170775
0.201729 0.893926 -0.051903 1.00001 -1.99998 -2 192 192 192 255 0.200416 0.170775
-0.101563 0.843719 0.027072 -3 -1 2 192 192 192 255 0.170042 0.061667
-0.101563 0.843719 -0.027071 -3 -2 -1 192 192 192 255 0.170042 0.061667
-0.101563 0.886301 0.027072 -3 2 1 192 192 192 255 0.170042 0.061667
-0.101563 0.886301 -0.027071 -3 1 -2 192 192 192 255 0.170042 0.061667
-0.201729 0.843719 0.027072 -1 -2 1 192 192 192 255 0.259146 0.085307
-0.201729 0.843719 -0.027071 -2 -1 -2 192 192 192 255 0.259146 0.085307
-0.201729 0.886301 0.027072 -2 1 2 192 192 192 255 0.259146 0.085307
-0.201729 0.886301 -0.027071 -1 2 -1 192 192 192 255 0.259146 0.085307
-0.140934 0.990076 0.051905 -1 1 -2 192 192 192 255 0.267174 0.085509
0.030774 0.990076 0.051905 2 2 -1 192 192 192 255 0.267174 0.085509
-0.140934 0.818368 0.051905 -2 -2 -1 192 192 192 255 0.202154 0.085509
0.030774 0.818368 0.051905 1 -1 -2 192 192 192 255 0.202154 0.085509
0.030774 0.818368 0.090521 2 -2 3 192 192 192 255 0.235135 0.085509
0.030774 0.818368 0.051905 1 -1 -2 192 192 192 255 0.235135 0.085509
0.030774 0.990076 0.051905 2 2 -1 192 192 192 255 0.235135 0.085509
0.030774 0.990076 0.090521 1 1 3 192 192 192 255 0.235135 0.085509
-0.140934 0.818368 0.051905 -2 -2 -1 192 192 192 255 0.235135 0.085509
-0.140934 0.818368 0.090521 -1 -1 3 192 192 192 255 0.235135 0.085509
-0.140934 0.990076 0.090521 -2 2 3 192 192 192 255 0.235135 0.085509
-0.140934 0.990076 0.051905 -1 1 -2 192 192 192 255 0.235135 0.085509
-0.140934 0.818368 0.090521 -1 -1 3 192 192 192 255 0.267174 0.085509
0.030774 0.818368 0.090521 2 -2 3 192 192 192 255 0.267174 0.085509
0.030774 0.990076 0.090521 1 1 3 192 192 192 255 0.267174 0.085509
-0.140934 0.990076 0.090521 -2 2 3 192 192 192 255 0.267174 0.085509
-0.122367 0.836937 0.090521 0 0 6 192 192 192 255 0.198284 0.168827
0.012204 0.836937 0.090521 0 0 6 192 192 192 255 0.198284 0.168827
-0.02364 0.872782 0.090521 0 0 4 192 192 192 255 0.198284 0.168827
-0.086519 0.872782 0.090521 0 0 5 192 192 192 255 0.198284 0.168827
0.012204 0.971508 0.090521 0 0 6 192 192 192 255 0.198284 0.168827
-0.02364 0.935662 0.090521 0 0 5 192 192 192 255 0.198284 0.168827
-0.122367 0.971508 0.090521 0 0 6 192 192 192 255 0.198284 0.168827
-0.086519 0.935662 0.090521 0 0 4 192 192 192 255 0.198284 0.168827
0.053422 0.63848 0.103082 3 0 3 192 192 192 255 0.172477 0.061667
0.053422 0.744772 0.103082 2.74473 1.46659 2.87235 192 192 192 255 0.172477 0.061667
-0.152738 0.63848 0.103082 -3 0 4 192 192 192 255 0.172477 0.061667
-0.152738 0.744772 0.103082 -1.87236 1.46661 2.7447 192 192 192 255 0.172477 0.061667
-0.152738 0.744772 0.103082 -1.87236 1.46661 2.7447 192 192 192 255 0.239381 0.061667
0.053422 0.744772 0.103082 2.74473 1.46659 2.87235 192 192 192 255 0.239381 0.061667
0.053422 0.744772 0.103082 2.74473 1.46659 2.87235 192 192 192 255 0.203628 0.061667
0.053422 0.744772 -0.103081 3.87236 1.46661 -2.7447 192 192 192 255 0.203628 0.061667
0.002247 0.836094 0.051904 2.87236 1.46661 2.7447 192 192 192 255 0.203628 0.061667
0.053422 0.744772 -0.103081 3.87236 1.46661 -2.7447 192 192 192 255 0.239381 0.061667
-0.152738 0.744772 -0.103081 -4.74473 1.46659 -2.87235 192 192 192 255 0.239381 0.061667
0.002247 0.836094 -0.051903 2.74472 1.46657 -2.87235 192 192 192 255 0.239381 0.061667
-0.152738 0.744772 -0.103081 -4.74473 1.46659 -2.87235 192 192 192 255 0.203628 0.061667
-0.152738 0.744772 0.103082 -1.87236 1.46661 2.7447 192 192 192 255 0.203628 0.061667
-0.101563 0.836094 0.051904 -4.74473 1.46659 2.87235 192 192 192 255 0.203628 0.061667
-0.101563 0.836094 -0.051903 -3.87237 1.4666 -2.7447 192 192 192 255 0.203628 0.061667
-0.101563 0.836094 0.051904 -4.74473 1.46659 2.87235 192 192 192 255 0.206878 0.061667
0.002247 0.836094 0.051904 2.87236 1.46661 2.7447 192 192 192 255 0.206878 0.061667
0.002247 0.836094 0.051904 2.87236 1.46661 2.7447 192 192 192 255 0.170042 0.061667
0.002247 0.836094 -0.051903 2.74472 1.46657 -2.87235 192 192 192 255 0.170042 0.061667
0.002247 0.893926 0.051904 1 -2 4 192 192 192 255 0.170042 0.061667
0.002247 0.836094 -0.051903 2.74472 1.46657 -2.87235 192 192 192 255 0.206878 0.061667
-0.101563 0.836094 -0.051903 -3.87237 1.4666 -2.7447 192 192 192 255 0.206878 0.061667
0.002247 0.893926 -0.051904 1.99999 -0.999989 -3 192 192 192 255 0.206878 0.061667
-0.152738 0.63848 1e-006 -5 0 0 192 192 192 255 0.207306 0.170489
-0.152738 0.63848 0.103082 -3 0 4 192 192 192 255 0.207306 0.170489
0.022497 0.63848 0.103082 0 0 6 192 192 192 255 0.239345 0.170489
0.053422 0.63848 0.103082 3 0 3 192 192 192 255 0.239345 0.170489
0.053422 0.63848 1e-006 5 0 0 192 192 192 255 0.16754 0.062702
0.053422 0.744772 -0.103081 3.87236 1.46661 -2.7447 192 192 192 255 0.16754 0.062702
-0.152738 0.744772 -0.103081 -4.74473 1.46659 -2.87235 192 192 192 255 0.199579 0.062702
0.053422 0.744772 -0.103081 3.87236 1.46661 -2.7447 192 192 192 255 0.199579 0.062702
0.053422 0.179681 -0.103081 4 0 -3 192 192 192 255 0.199579 0.062702
-0.152738 0 -0.103081 -3 -2 -1 192 192 192 255 0.296733 0.061667
-0.152738 0 0.103082 -1 -1 4 192 192 192 255 0.296733 0.061667
-0.152738 0.179681 0.103082 -4 0 3 192 192 192 255 0.296733 0.061667
-0.152738 0.179681 1e-006 -4 0 0 192 192 192 255 0.296733 0.061667
-0.152738 0.179681 -0.103081 -3 0 -3 192 192 192 255 0.296733 0.061667
-0.152738 0 0.103082 -1 -1 4 192 192 192 255 0.328771 0.061667
0.053422 0 0.103082 3 -2 1 192 192 192 255 0.328771 0.061667
0.053422 0.179681 0.103082 3 0 4 192 192 192 255 0.328771 0.061667
0.022497 0.179681 0.103082 0 0 8 192 192 192 255 0.328771 0.061667
-0.152738 0.179681 0.103082 -4 0 3 192 192 192 255 0.328771 0.061667
0.053422 0 0.103082 3 -2 1 192 192 192 255 0.296733 0.061667
0.053422 0 -0.103081 1 -1 -2 192 192 192 255 0.296733 0.061667
0.053422 0.179681 -0.103081 4 0 -3 192 192 192 255 0.296733 0.061667
0.053422 0.179681 1e-006 4 0 0 192 192 192 255 0.296733 0.061667
0.053422 0.179681 0.103082 3 0 4 192 192 192 255 0.296733 0.061667
-0.152738 0.179681 -0.103081 -3 0 -3 192 192 192 255 0.328771 0.061667
0.053422 0.179681 -0.103081 4 0 -3 192 192 192 255 0.328771 0.061667
0.053422 0 -0.103081 1 -1 -2 192 192 192 255 0.328771 0.061667
-0.152738 0 -0.103081 -3 -2 -1 192 192 192 255 0.328771 0.061667
-0.152738 0.179681 0.103082 -4 0 3 192 192 192 255 0.239345 0.170489
-0.121814 0.179681 0.103082 0 0 6 192 192 192 255 0.239345 0.170489
-0.121814 0.63848 0.103082 0 0 7 192 192 192 255 0.239345 0.170489
-0.152738 0.63848 0.103082 -3 0 4 192 192 192 255 0.239345 0.170489
0.022497 0.179681 0.103082 0 0 8 192 192 192 255 0.239345 0.222262
0.022497 0.63848 0.103082 0 0 6 192 192 192 255 0.239345 0.222262
-0.121814 0.63848 0.103082 0 0 7 192 192 192 255 0.239345 0.222262
-0.121814 0.179681 0.103082 0 0 6 192 192 192 255 0.239345 0.222262
-0.000793 0.606015 0.103082 0 0 5 192 192 192 255 0.176676 0.060452
-0.098524 0.606015 0.103082 0 0 4 192 192 192 255 0.176676 0.060452
-0.098524 0.563148 0.103082 0 0 5 192 192 192 255 0.176676 0.060452
-0.000793 0.563148 0.103082 0 0 5 192 192 192 255 0.176676 0.060452
-0.098524 0.265699 0.103082 0 0 6 192 192 192 255 0.239345 0.17143
-0.000793 0.265699 0.103082 0 0 6 192 192 192 255 0.239345 0.17143
-0.059326 0.277529 0.103082 0 0 5 192 192 192 255 0.239345 0.17143
-0.084394 0.277529 0.103082 0 0 4 192 192 192 255 0.239345 0.17143
-0.098524 0.401825 0.103082 0 0 7 192 192 192 255 0.239345 0.17143
-0.084394 0.365412 0.103082 0 0 5 192 192 192 255 0.239345 0.17143
-0.000793 0.401825 0.103082 0 0 6 192 192 192 255 0.239345 0.17143
-0.059326 0.365412 0.103082 0 0 4 192 192 192 255 0.239345 0.17143
-0.000793 0.563148 0.103082 0 0 5 192 192 192 255 0.23591 0.219437
-0.098524 0.563148 0.103082 0 0 5 192 192 192 255 0.23591 0.219437
-0.098524 0.401825 0.103082 0 0 7 192 192 192 255 0.23591 0.219437
-0.000793 0.401825 0.103082 0 0 6 192 192 192 255 0.23591 0.219437
-0.152738 0.179681 -0.103081 -3 0 -3 192 192 192 255 0.16754 0.062702
-0.152738 0.179681 1e-006 -4 0 0 192 192 192 255 0.16754 0.062702
-0.152738 0.63848 1e-006 -5 0 0 192 192 192 255 0.16754 0.062702
-0.152738 0.744772 -0.103081 -4.74473 1.46659 -2.87235 192 192 192 255 0.16754 0.062702
0.053422 0.179681 0.103082 3 0 4 192 192 192 255 0.207306 0.170489
0.053422 0.179681 1e-006 4 0 0 192 192 192 255 0.207306 0.170489
0.053422 0.63848 1e-006 5 0 0 192 192 192 255 0.207306 0.170489
0.053422 0.63848 0.103082 3 0 3 192 192 192 255 0.207306 0.170489
-0.101563 0.945838 0.051904 -3 1.73205 2 192 192 192 255 0.26732 0.170775
0.161095 1.09748 0.051904 0.366029 1.36602 2 192 192 192 255 0.26732 0.170775
-0.101563 0.945838 -0.051903 -1.50001 0.866035 -3 192 192 192 255 0.232455 0.170775
0.161095 1.09748 -0.051903 0.732057 2.73204 -1 192 192 192 255 0.232455 0.170775
0.002789 0.945838 -0.051903 1.00214 0.269227 -5 192 192 192 255 0.167435 0.170775
0.187051 1.05253 -0.051903 1.3671 -0.365413 -2 192 192 192 255 0.167435 0.170775
0.187051 1.05253 0.051904 2.7342 -0.730826 1 192 192 192 255 0.167435 0.170775
0.002789 0.945838 0.051904 0.501072 0.134594 6 192 192 192 255 0.167435 0.170775
0.187051 1.05253 0.051904 2.7342 -0.730826 1 192 192 192 255 0.200416 0.170775
0.187051 1.05253 -0.051903 1.3671 -0.365413 -2 192 192 192 255 0.200416 0.170775
0.161095 1.09748 -0.051903 0.732057 2.73204 -1 192 192 192 255 0.200416 0.170775
0.161095 1.09748 0.051904 0.366029 1.36602 2 192 192 192 255 0.200416 0.170775
-0.101563 0.893926 0.051904 -4 0 3 192 192 192 255 0.232455 0.170775
0.002247 0.893926 0.051904 1 -2 4 192 192 192 255 0.232455 0.170775
0.002789 0.945838 -0.051903 1.00214 0.269227 -5 192 192 192 255 0.26732 0.170775
0.002789 0.945838 0.051904 0.501072 0.134594 6 192 192 192 255 0.26732 0.170775
0.002247 0.893926 -0.051904 1.99999 -0.999989 -3 192 192 192 255 0.232455 0.170775
-0.101563 0.893926 -0.051903 -5.00002 2.02633e-006 -4 192 192 192 255 0.232455 0.170775
0.201729 0.945838 -0.051903 2 1.00001 -1 192 192 192 255 0.200416 0.170775
0.201729 0.945838 0.051904 1 2 1 192 192 192 255 0.200416 0.170775
-0.101563 0.893926 -0.051903 -5.00002 2.02633e-006 -4 192 192 192 255 0.200416 0.170775
-0.101563 0.893926 0.051904 -4 0 3 192 192 192 255 0.200416 0.170775
-0.101563 0.945838 0.051904 -3 1.73205 2 192 192 192 255 0.200416 0.170775
-0.101563 0.945838 -0.051903 -1.50001 0.866035 -3 192 192 192 255 0.200416 0.170775
0.201729 0.945838 -0.051903 2 1.00001 -1 192 192 192 255 0.232455 0.170775
0.201729 0.893926 -0.051903 1.00001 -1.99998 -2 192 192 192 255 0.232455 0.170775
0.002247 0.893926 0.051904 1 -2 4 192 192 192 255 0.167435 0.170775
0.002247 0.893926 -0.051904 1.99999 -0.999989 -3 192 192 192 255 0.167435 0.170775
0.201729 0.893926 -0.051903 1.00001 -1.99998 -2 192 192 192 255 0.167435 0.170775
0.201729 0.893926 0.051904 2 -1 2 192 192 192 255 0.167435 0.170775
0.201729 0.893926 0.051904 2 -1 2 192 192 192 255 0.232455 0.170775
0.201729 0.945838 0.051904 1 2 1 192 192 192 255 0.232455 0.170775
-0.101563 0.836094 -0.051903 -3.87237 1.4666 -2.7447 192 192 192 255 0.170042 0.061667
-0.101563 0.836094 0.051904 -4.74473 1.46659 2.87235 192 192 192 255 0.170042 0.061667
-0.101563 0.893926 0.051904 -4 0 3 192 192 192 255 0.170042 0.061667
-0.101563 0.893926 -0.051903 -5.00002 2.02633e-006 -4 192 192 192 255 0.170042 0.061667
-0.101563 0.843719 -0.027071 -3 -2 -1 192 192 192 255 0.237325 0.085307
-0.101563 0.843719 0.027072 -3 -1 2 192 192 192 255 0.237325 0.085307
-0.201729 0.843719 0.027072 -1 -2 1 192 192 192 255 0.237325 0.085307
-0.201729 0.843719 -0.027071 -2 -1 -2 192 192 192 255 0.237325 0.085307
-0.101563 0.843719 0.027072 -3 -1 2 192 192 192 255 0.291879 0.085307
-0.101563 0.886301 0.027072 -3 2 1 192 192 192 255 0.291879 0.085307
-0.201729 0.886301 0.027072 -2 1 2 192 192 192 255 0.291879 0.085307
-0.201729 0.843719 0.027072 -1 -2 1 192 192 192 255 0.291879 0.085307
-0.101563 0.886301 0.027072 -3 2 1 192 192 192 255 0.327339 0.085307
-0.101563 0.886301 -0.027071 -3 1 -2 192 192 192 255 0.327339 0.085307
-0.201729 0.886301 -0.027071 -1 2 -1 192 192 192 255 0.327339 0.085307
-0.201729 0.886301 0.027072 -2 1 2 192 192 192 255 0.327339 0.085307
-0.101563 0.886301 -0.027071 -3 1 -2 192 192 192 255 0.291879 0.085307
-0.101563 0.843719 -0.027071 -3 -2 -1 192 192 192 255 0.291879 0.085307
-0.201729 0.843719 -0.027071 -2 -1 -2 192 192 192 255 0.291879 0.085307
-0.201729 0.886301 -0.027071 -1 2 -1 192 192 192 255 0.291879 0.085307
3 12 13 14 
3 12 14 15 
3 2 3 5 
3 2 5 4 
3 78 79 7 
3 78 7 6 
3 80 81 1 
3 80 1 0 
3 82 83 84 
3 82 84 85 
3 86 87 88 
3 86 88 89 
3 90 91 9 
3 90 9 8 
3 91 92 10 
3 91 10 9 
3 92 93 11 
3 92 11 10 
3 93 90 8 
3 93 8 11 
3 94 95 96 
3 94 96 97 
3 95 98 99 
3 95 99 96 
3 98 100 101 
3 98 101 99 
3 100 94 97 
3 100 97 101 
3 32 40 38 
3 32 38 33 
3 32 33 19 
3 32 19 18 
3 22 23 17 
3 22 17 16 
3 102 56 21 
3 102 21 103 
3 20 54 104 
3 20 104 105 
3 106 107 25 
3 106 25 24 
3 108 109 26 
3 108 26 110 
3 111 112 27 
3 111 27 113 
3 114 115 116 
3 114 116 117 
3 118 119 29 
3 118 29 28 
3 120 121 30 
3 120 30 122 
3 123 124 31 
3 123 31 125 
3 75 74 76 
3 75 76 77 
3 126 55 35 
3 126 35 127 
3 128 39 36 
3 128 36 129 
3 130 57 37 
3 130 37 131 
3 132 133 134 
3 132 134 34 
3 135 136 137 
3 135 137 138 
3 135 138 139 
3 140 141 142 
3 140 142 143 
3 140 143 41 
3 140 41 144 
3 145 146 147 
3 145 147 148 
3 145 148 149 
3 150 151 152 
3 150 152 153 
3 47 46 48 
3 47 48 49 
3 154 155 156 
3 154 156 157 
3 158 159 42 
3 158 42 53 
3 158 53 51 
3 158 51 43 
3 159 160 44 
3 159 44 42 
3 160 161 45 
3 160 45 50 
3 160 50 52 
3 160 52 44 
3 161 158 43 
3 161 43 45 
3 162 163 164 
3 162 164 165 
3 166 167 168 
3 166 168 169 
3 170 166 169 
3 170 169 171 
3 172 170 171 
3 172 171 173 
3 167 172 173 
3 167 173 168 
3 174 175 176 
3 174 176 177 
3 178 179 180 
3 178 180 181 
3 182 183 184 
3 182 184 185 
3 58 59 61 
3 58 61 60 
3 186 187 63 
3 186 63 62 
3 188 189 65 
3 188 65 64 
3 190 191 192 
3 190 192 193 
3 194 195 196 
3 194 196 197 
3 198 199 58 
3 198 58 60 
3 200 201 67 
3 200 67 68 
3 64 202 203 
3 64 203 188 
3 66 69 204 
3 66 204 205 
3 206 207 208 
3 206 208 209 
3 64 210 211 
3 64 211 202 
3 212 213 214 
3 212 214 215 
3 58 199 216 
3 58 216 217 
3 218 219 70 
3 218 70 71 
3 219 220 72 
3 219 72 70 
3 220 221 73 
3 220 73 72 
3 221 218 71 
3 221 71 73 
3 222 223 224 
3 222 224 225 
3 226 227 228 
3 226 228 229 
3 230 231 232 
3 230 232 233 
3 234 235 236 
3 234 236 237 
