ply
format ascii 1.0
comment VCGLIB generated
comment TextureFile WorldMap.png
element vertex 80
property float x
property float y
property float z
property float nx
property float ny
property float nz
property uchar red
property uchar green
property uchar blue
property uchar alpha
property float texture_u
property float texture_v
element face 52
property list uchar int vertex_indices
end_header
-0.312917 -0.06456 0.426379 -1 -1 3 192 192 192 255 0.077549 0.482497
0.31292 -0.06456 0.426379 2 -1 1 192 192 192 255 0.169815 0.182766
-0.312917 0.06456 0.426379 -2 2 3 192 192 192 255 0.139242 0.481405
0.31292 0.06456 0.426379 1 3 2 192 192 192 255 0.169815 0.182766
-0.312917 0.06456 -0.426376 -1 1 -3 192 192 192 255 0.139242 0.481405
0.31292 0.06456 -0.426376 2 3 -1 192 192 192 255 0.169815 0.182766
-0.312917 -0.06456 -0.426376 -2 -2 -3 192 192 192 255 0.077549 0.482497
0.31292 -0.06456 -0.426376 1 -2 -2 192 192 192 255 0.169815 0.182766
-0.193627 0.06456 -0.426376 0 5 -3 192 192 192 255 0.139242 0.481405
-0.193627 -0.06456 -0.426376 0 -2 -3 192 192 192 255 0.077549 0.482497
-0.193627 -0.06456 0.426379 0 -4 3 192 192 192 255 0.077549 0.482497
-0.193627 0.06456 0.426379 0 4 3 192 192 192 255 0.139242 0.481405
-0.289629 -0.04304 0.426379 0 0 5 192 192 192 255 0.292656 0.440459
-0.193627 -0.04304 0.426379 0 0 5 192 192 192 255 0.292656 0.440459
-0.193627 0.04304 0.426379 0 0 7 192 192 192 255 0.292656 0.440459
-0.289629 0.04304 0.426379 0 0 4 192 192 192 255 0.292656 0.440459
-0.289629 0.04304 -0.426376 0 0 -5 192 192 192 255 0.292656 0.440459
-0.193627 0.04304 -0.426376 0 0 -6 192 192 192 255 0.292656 0.440459
-0.193627 -0.04304 -0.426376 0 0 -6 192 192 192 255 0.292656 0.440459
-0.289629 -0.04304 -0.426376 0 0 -4 192 192 192 255 0.292656 0.440459
0.31292 -0.04304 -0.426376 3 0 -3 192 192 192 255 0.258261 0.44155
0.31292 -0.04304 0.426379 3 0 4 192 192 192 255 0.258261 0.44155
0.31292 0.04304 -0.426376 3 0 -3 192 192 192 255 0.258261 0.44155
0.31292 0.04304 0.426379 3 0 2 192 192 192 255 0.258261 0.44155
-0.120605 0.06456 -0.012355 0 4 0 192 192 192 255 0.419319 0.477584
-0.120605 0.06456 -0.295338 0 5 0 192 192 192 255 0.419319 0.477584
0.234442 0.06456 -0.012355 0 5 0 192 192 192 255 0.419319 0.477584
0.234442 0.06456 -0.295338 0 4 0 192 192 192 255 0.419319 0.477584
-0.312917 0.06456 0.426379 -2 2 3 192 192 192 255 0.077549 0.482497
-0.312917 0.06456 -0.426376 -1 1 -3 192 192 192 255 0.077549 0.482497
0.31292 0.04304 -0.426376 3 0 -3 192 192 192 255 0.292656 0.440459
0.31292 -0.04304 -0.426376 3 0 -3 192 192 192 255 0.292656 0.440459
-0.193627 -0.06456 0.426379 0 -4 3 192 192 192 255 0.169815 0.182766
-0.193627 -0.06456 -0.426376 0 -2 -3 192 192 192 255 0.169815 0.182766
0.31292 -0.04304 0.426379 3 0 4 192 192 192 255 0.292656 0.440459
0.31292 0.04304 0.426379 3 0 2 192 192 192 255 0.292656 0.440459
-0.312917 -0.06456 0.426379 -1 -1 3 192 192 192 255 0.111944 0.481405
-0.193627 -0.06456 0.426379 0 -4 3 192 192 192 255 0.111944 0.481405
-0.193627 -0.04304 0.426379 0 0 5 192 192 192 255 0.111944 0.481405
-0.289629 -0.04304 0.426379 0 0 5 192 192 192 255 0.111944 0.481405
-0.193627 0.06456 0.426379 0 4 3 192 192 192 255 0.111944 0.481405
-0.312917 0.06456 0.426379 -2 2 3 192 192 192 255 0.111944 0.481405
-0.289629 0.04304 0.426379 0 0 4 192 192 192 255 0.111944 0.481405
-0.193627 0.04304 0.426379 0 0 7 192 192 192 255 0.111944 0.481405
-0.312917 0.06456 -0.426376 -1 1 -3 192 192 192 255 0.111944 0.481405
-0.193627 0.06456 -0.426376 0 5 -3 192 192 192 255 0.111944 0.481405
-0.193627 0.04304 -0.426376 0 0 -6 192 192 192 255 0.111944 0.481405
-0.289629 0.04304 -0.426376 0 0 -5 192 192 192 255 0.111944 0.481405
-0.193627 -0.06456 -0.426376 0 -2 -3 192 192 192 255 0.111944 0.481405
-0.312917 -0.06456 -0.426376 -2 -2 -3 192 192 192 255 0.111944 0.481405
-0.289629 -0.04304 -0.426376 0 0 -4 192 192 192 255 0.111944 0.481405
-0.193627 -0.04304 -0.426376 0 0 -6 192 192 192 255 0.111944 0.481405
0.31292 -0.04304 -0.426376 3 0 -3 192 192 192 255 0.169815 0.182766
0.31292 -0.04304 0.426379 3 0 4 192 192 192 255 0.169815 0.182766
0.31292 0.04304 0.426379 3 0 2 192 192 192 255 0.169815 0.182766
0.31292 0.04304 -0.426376 3 0 -3 192 192 192 255 0.169815 0.182766
-0.193627 0.06456 -0.426376 0 5 -3 192 192 192 255 0.204211 0.181674
0.31292 0.06456 -0.426376 2 3 -1 192 192 192 255 0.204211 0.181674
0.31292 0.04304 -0.426376 3 0 -3 192 192 192 255 0.204211 0.181674
-0.193627 0.04304 -0.426376 0 0 -6 192 192 192 255 0.204211 0.181674
0.31292 -0.06456 -0.426376 1 -2 -2 192 192 192 255 0.204211 0.181674
-0.193627 -0.06456 -0.426376 0 -2 -3 192 192 192 255 0.204211 0.181674
-0.193627 -0.04304 -0.426376 0 0 -6 192 192 192 255 0.204211 0.181674
0.31292 -0.04304 -0.426376 3 0 -3 192 192 192 255 0.204211 0.181674
-0.193627 -0.06456 0.426379 0 -4 3 192 192 192 255 0.204211 0.181674
0.31292 -0.06456 0.426379 2 -1 1 192 192 192 255 0.204211 0.181674
0.31292 -0.04304 0.426379 3 0 4 192 192 192 255 0.204211 0.181674
-0.193627 -0.04304 0.426379 0 0 5 192 192 192 255 0.204211 0.181674
0.31292 0.06456 0.426379 1 3 2 192 192 192 255 0.204211 0.181674
-0.193627 0.06456 0.426379 0 4 3 192 192 192 255 0.204211 0.181674
-0.193627 0.04304 0.426379 0 0 7 192 192 192 255 0.204211 0.181674
0.31292 0.04304 0.426379 3 0 2 192 192 192 255 0.204211 0.181674
-0.193627 0.06456 -0.426376 0 5 -3 192 192 192 255 0.231508 0.181674
-0.193627 0.06456 0.426379 0 4 3 192 192 192 255 0.231508 0.181674
-0.120605 0.06456 -0.012355 0 4 0 192 192 192 255 0.231508 0.181674
-0.120605 0.06456 -0.295338 0 5 0 192 192 192 255 0.231508 0.181674
0.31292 0.06456 0.426379 1 3 2 192 192 192 255 0.231508 0.181674
0.234442 0.06456 -0.012355 0 5 0 192 192 192 255 0.231508 0.181674
0.31292 0.06456 -0.426376 2 3 -1 192 192 192 255 0.231508 0.181674
0.234442 0.06456 -0.295338 0 4 0 192 192 192 255 0.231508 0.181674
3 12 13 14 
3 12 14 15 
3 2 11 8 
3 2 8 4 
3 16 17 18 
3 16 18 19 
3 6 9 10 
3 6 10 0 
3 21 20 22 
3 21 22 23 
3 6 0 28 
3 6 28 29 
3 17 30 31 
3 17 31 18 
3 32 33 7 
3 32 7 1 
3 14 13 34 
3 14 34 35 
3 25 24 26 
3 25 26 27 
3 36 37 38 
3 36 38 39 
3 40 41 42 
3 40 42 43 
3 41 36 39 
3 41 39 42 
3 44 45 46 
3 44 46 47 
3 48 49 50 
3 48 50 51 
3 49 44 47 
3 49 47 50 
3 1 7 52 
3 1 52 53 
3 5 3 54 
3 5 54 55 
3 56 57 58 
3 56 58 59 
3 60 61 62 
3 60 62 63 
3 64 65 66 
3 64 66 67 
3 68 69 70 
3 68 70 71 
3 72 73 74 
3 72 74 75 
3 73 76 77 
3 73 77 74 
3 76 78 79 
3 76 79 77 
3 78 72 75 
3 78 75 79 
