ply
format ascii 1.0
comment VCGLIB generated
comment TextureFile WorldMap.png
element vertex 264
property float x
property float y
property float z
property float nx
property float ny
property float nz
property uchar red
property uchar green
property uchar blue
property uchar alpha
property float texture_u
property float texture_v
element face 176
property list uchar int vertex_indices
end_header
-0.312544 0 -1e-006 -3 -3 3 192 192 192 255 0.265187 0.061667
-2e-006 0 -1e-006 3 -3 3 192 192 192 255 0.265187 0.061667
-0.312544 0.403208 -1e-006 -3 3 3 192 192 192 255 0.265187 0.061667
-2e-006 0.403208 -1e-006 3 3 3 192 192 192 255 0.265187 0.061667
-0.312544 0.403208 -0.549558 -3.81502 4.47394 -1.93128 192 192 192 255 0.300052 0.061667
-2e-006 0.403208 -0.549558 4.63005 3.73697 -1.83478 192 192 192 255 0.300052 0.061667
-0.312544 0 -0.549558 -4.63005 -3.73697 -1.83477 192 192 192 255 0.204083 0.061667
-2e-006 0 -0.549558 3.81502 -4.47395 -1.93127 192 192 192 255 0.204964 0.061667
-0.263855 0.145173 -1e-006 -1 -2 3 192 192 192 255 0.265187 0.061667
-0.048693 0.145173 -1e-006 2 -1 3 192 192 192 255 0.265187 0.061667
-0.048693 0.359887 -1e-006 1 2 3 192 192 192 255 0.265187 0.061667
-0.263855 0.359887 -1e-006 -2 1 3 192 192 192 255 0.265187 0.061667
-0.263855 0.145173 0.230846 -2 -1 3 192 192 192 255 0.202706 0.061667
-0.048693 0.145173 0.230846 1 -2 3 192 192 192 255 0.202706 0.061667
-0.048693 0.359887 0.230846 2 1 3 192 192 192 255 0.233506 0.061667
-0.263855 0.359887 0.230846 -1 2 3 192 192 192 255 0.297748 0.061667
-0.262993 0.403208 -0.140404 -1 3 2 192 192 192 255 0.300052 0.061667
-0.049553 0.403208 -0.140404 2 3 1 192 192 192 255 0.300052 0.061667
-0.049553 0.403208 -0.376794 1 3 -2.00456 192 192 192 255 0.300052 0.061667
-0.262993 0.403208 -0.376794 -2 3 -1.00456 192 192 192 255 0.300052 0.061667
-0.262993 0.47389 -0.140404 -2.71771 2.45509 1.95227 192 192 192 255 0.300052 0.061667
-0.049553 0.47389 -0.140404 2.43541 2.27206 2.47613 192 192 192 255 0.300052 0.061667
-0.049553 0.47389 -0.376794 2.71771 0.696345 -0.00886255 192 192 192 255 0.240568 0.061667
-0.262993 0.47389 -0.376794 -2.43542 1.39268 -0.00886241 192 192 192 255 0.264762 0.061667
-0.198417 0.540448 -0.26333 -1.43542 4.27205 0.476134 192 192 192 255 0.332038 0.061667
-0.11413 0.540448 -0.26333 0.717707 3.45509 0.952269 192 192 192 255 0.332038 0.061667
-0.11413 0.540448 -0.376794 3.43541 4.39269 -0.00429812 192 192 192 255 0.332038 0.061667
-0.198417 0.540448 -0.376794 -1.71771 3.69634 -0.00429805 192 192 192 255 0.332038 0.061667
-0.198417 0.47389 -0.376794 -2 -1 -2.00886 192 192 192 255 0.264762 0.061667
-0.11413 0.47389 -0.376794 1 -2 -1.00886 192 192 192 255 0.264762 0.061667
-0.11413 0.540448 -0.517199 2.3727 2.76692 2.09629 192 192 192 255 0.240568 0.061667
-0.11413 0.47389 -0.517199 2.68635 -2.53384 2.01076 192 192 192 255 0.240568 0.061667
-0.198417 0.47389 -0.517199 -2.37263 -2.76692 2.09635 192 192 192 255 0.300052 0.061667
-0.198417 0.540448 -0.517199 -2.68632 2.53384 2.01079 192 192 192 255 0.240568 0.061667
-0.091668 0.558186 -0.538397 2.68635 2.53384 2.01075 192 192 192 255 0.240568 0.061667
-0.091668 0.456152 -0.538397 2.3727 -2.76692 2.09629 192 192 192 255 0.240568 0.061667
-0.220881 0.456152 -0.538397 -2.68632 -2.53384 2.01079 192 192 192 255 0.300052 0.061667
-0.220881 0.558186 -0.538397 -2.37263 2.76692 2.09635 192 192 192 255 0.240568 0.061667
-0.091668 0.558186 -0.665441 1 2 -3 192 192 192 255 0.240568 0.061667
-0.091668 0.456152 -0.665441 2 -1 -3 192 192 192 255 0.240568 0.061667
-0.220881 0.456152 -0.665441 -1 -2 -3 192 192 192 255 0.300052 0.061667
-0.220881 0.558186 -0.665441 -2 1 -3 192 192 192 255 0.240568 0.061667
-0.255073 0.329065 -0.630397 -1.63005 0.73697 -3.83478 192 192 192 255 0.264448 0.061667
-0.057473 0.329065 -0.630397 0.815024 1.47394 -2.93128 192 192 192 255 0.264448 0.061667
-0.057473 0.074142 -0.630397 1.63005 -0.736975 -3.83477 192 192 192 255 0.264448 0.061667
-0.255073 0.074142 -0.630397 -0.815025 -1.47395 -2.93127 192 192 192 255 0.264448 0.061667
-0.247728 0.161264 0.230846 -1 -2 3 192 192 192 255 0.265187 0.061667
-0.064817 0.161264 0.230846 2 -1 3 192 192 192 255 0.265187 0.061667
-0.064817 0.343796 0.230846 1 2 3 192 192 192 255 0.265187 0.061667
-0.247728 0.343796 0.230846 -2 1 3 192 192 192 255 0.265187 0.061667
-0.275645 0.133405 0.506591 -2 -1 3 192 192 192 255 0.203676 0.061667
-0.0369 0.133405 0.506591 1 -2 3 192 192 192 255 0.203676 0.061667
-0.0369 0.371655 0.506591 2 1 3 192 192 192 255 0.235228 0.061667
-0.275645 0.371655 0.506591 -1 2 3 192 192 192 255 0.297172 0.061667
-0.24969 0.159307 0.506591 1 2 3 192 192 192 255 0.265187 0.061667
-0.062856 0.159307 0.506591 -2 1 3 192 192 192 255 0.265187 0.061667
-0.062856 0.345753 0.506591 -1 -2 3 192 192 192 255 0.265187 0.061667
-0.24969 0.345753 0.506591 2 -1 3 192 192 192 255 0.265187 0.061667
-0.24969 0.159307 0.484475 2 1 2 192 192 192 255 0.017757 0.51863
-0.062856 0.159307 0.484475 -1 2 1 192 192 192 255 0.017757 0.51863
-0.062856 0.345753 0.484475 -2 -1 2 192 192 192 255 0.017757 0.51863
-0.24969 0.345753 0.484475 1 -2 1 192 192 192 255 0.017757 0.51863
-0.270478 0 -0.488755 -1 -3 -2 192 192 192 255 0.200168 0.061667
-0.042067 0 -0.488755 2 -3 -1 192 192 192 255 0.200168 0.061667
-0.042067 0 -0.060803 1 -3 2 192 192 192 255 0.200168 0.061667
-0.270478 0 -0.060803 -2 -3 1 192 192 192 255 0.200168 0.061667
-0.270478 -0.129541 -0.488755 -2 -2 -1 192 192 192 255 0.169521 0.061667
-0.042067 -0.129541 -0.488755 1 -1 -2 192 192 192 255 0.169521 0.061667
-0.042067 -0.129541 -0.060803 2 -2 1 192 192 192 255 0.169521 0.061667
-0.270478 -0.129541 -0.060803 -1 -1 2 192 192 192 255 0.169521 0.061667
-2e-006 0.255003 -0.474696 4 0 0 192 192 192 255 0.166462 0.061667
-2e-006 0.255003 -0.074862 5 0 0 192 192 192 255 0.166462 0.061667
-2e-006 0.324522 -0.474696 5 0 0 192 192 192 255 0.166462 0.061667
-2e-006 0.324522 -0.074862 4 0 0 192 192 192 255 0.166462 0.061667
-0.312544 0.255003 -0.474696 -5 0 0 192 192 192 255 0.166462 0.061667
-0.312544 0.255003 -0.074862 -4 0 0 192 192 192 255 0.166462 0.061667
-0.312544 0.324522 -0.074862 -5 0 0 192 192 192 255 0.166462 0.061667
-0.312544 0.324522 -0.474696 -4 0 0 192 192 192 255 0.166462 0.061667
-0.0369 0.133405 0.38516 2 -1 -3 192 192 192 255 0.203676 0.061667
-0.0369 0.371655 0.38516 1 2 -3 192 192 192 255 0.235228 0.061667
-0.275645 0.371655 0.38516 -2 1 -3 192 192 192 255 0.297172 0.061667
-0.275645 0.133405 0.38516 -1 -2 -3 192 192 192 255 0.203676 0.061667
-0.064817 0.161264 0.38516 1 -2 -3 192 192 192 255 0.20215 0.061667
-0.064817 0.343796 0.38516 2 1 -3 192 192 192 255 0.20215 0.061667
-0.247728 0.343796 0.38516 -1 2 -3 192 192 192 255 0.202737 0.061667
-0.247728 0.161264 0.38516 -2 -1 -3 192 192 192 255 0.20215 0.061667
-0.114421 0.540219 -0.665441 0 0 -5 192 192 192 255 0.022042 0.52321
-0.114421 0.474119 -0.665441 0 0 -4 192 192 192 255 0.022042 0.52321
-0.198129 0.474119 -0.665441 0 0 -5 192 192 192 255 0.022042 0.52321
-0.198129 0.540219 -0.665441 0 0 -4 192 192 192 255 0.022042 0.52321
-0.263855 0.145173 -1e-006 -1 -2 3 192 192 192 255 0.202706 0.061667
-0.048693 0.145173 -1e-006 2 -1 3 192 192 192 255 0.202706 0.061667
-0.048693 0.145173 -1e-006 2 -1 3 192 192 192 255 0.233506 0.061667
-0.048693 0.359887 -1e-006 1 2 3 192 192 192 255 0.233506 0.061667
-0.048693 0.145173 0.230846 1 -2 3 192 192 192 255 0.233506 0.061667
-0.048693 0.359887 -1e-006 1 2 3 192 192 192 255 0.297748 0.061667
-0.263855 0.359887 -1e-006 -2 1 3 192 192 192 255 0.297748 0.061667
-0.048693 0.359887 0.230846 2 1 3 192 192 192 255 0.297748 0.061667
-0.263855 0.359887 -1e-006 -2 1 3 192 192 192 255 0.233506 0.061667
-0.263855 0.145173 -1e-006 -1 -2 3 192 192 192 255 0.233506 0.061667
-0.263855 0.145173 0.230846 -2 -1 3 192 192 192 255 0.233506 0.061667
-0.263855 0.359887 0.230846 -1 2 3 192 192 192 255 0.233506 0.061667
-0.312544 0.403208 -1e-006 -3 3 3 192 192 192 255 0.300052 0.061667
-2e-006 0.403208 -1e-006 3 3 3 192 192 192 255 0.300052 0.061667
-0.049553 0.403208 -0.140404 2 3 1 192 192 192 255 0.240568 0.061667
-0.049553 0.403208 -0.376794 1 3 -2.00456 192 192 192 255 0.240568 0.061667
-0.049553 0.47389 -0.140404 2.43541 2.27206 2.47613 192 192 192 255 0.240568 0.061667
-0.262993 0.403208 -0.376794 -2 3 -1.00456 192 192 192 255 0.264762 0.061667
-0.262993 0.403208 -0.376794 -2 3 -1.00456 192 192 192 255 0.240568 0.061667
-0.262993 0.403208 -0.140404 -1 3 2 192 192 192 255 0.240568 0.061667
-0.262993 0.47389 -0.140404 -2.71771 2.45509 1.95227 192 192 192 255 0.240568 0.061667
-0.262993 0.47389 -0.376794 -2.43542 1.39268 -0.00886241 192 192 192 255 0.240568 0.061667
-0.11413 0.540448 -0.26333 0.717707 3.45509 0.952269 192 192 192 255 0.300052 0.061667
-0.198417 0.540448 -0.26333 -1.43542 4.27205 0.476134 192 192 192 255 0.300052 0.061667
-0.049553 0.47389 -0.140404 2.43541 2.27206 2.47613 192 192 192 255 0.264714 0.061667
-0.049553 0.47389 -0.376794 2.71771 0.696345 -0.00886255 192 192 192 255 0.264714 0.061667
-0.11413 0.540448 -0.376794 3.43541 4.39269 -0.00429812 192 192 192 255 0.264714 0.061667
-0.11413 0.540448 -0.26333 0.717707 3.45509 0.952269 192 192 192 255 0.264714 0.061667
-0.198417 0.540448 -0.376794 -1.71771 3.69634 -0.00429805 192 192 192 255 0.264762 0.061667
-0.262993 0.47389 -0.376794 -2.43542 1.39268 -0.00886241 192 192 192 255 0.264714 0.061667
-0.262993 0.47389 -0.140404 -2.71771 2.45509 1.95227 192 192 192 255 0.264714 0.061667
-0.198417 0.540448 -0.26333 -1.43542 4.27205 0.476134 192 192 192 255 0.264714 0.061667
-0.198417 0.540448 -0.376794 -1.71771 3.69634 -0.00429805 192 192 192 255 0.264714 0.061667
-0.049553 0.403208 -0.376794 1 3 -2.00456 192 192 192 255 0.264762 0.061667
-0.049553 0.47389 -0.376794 2.71771 0.696345 -0.00886255 192 192 192 255 0.264762 0.061667
-0.11413 0.540448 -0.376794 3.43541 4.39269 -0.00429812 192 192 192 255 0.264762 0.061667
-0.11413 0.540448 -0.376794 3.43541 4.39269 -0.00429812 192 192 192 255 0.240568 0.061667
-0.11413 0.47389 -0.376794 1 -2 -1.00886 192 192 192 255 0.240568 0.061667
-0.11413 0.47389 -0.376794 1 -2 -1.00886 192 192 192 255 0.300052 0.061667
-0.198417 0.47389 -0.376794 -2 -1 -2.00886 192 192 192 255 0.300052 0.061667
-0.11413 0.47389 -0.517199 2.68635 -2.53384 2.01076 192 192 192 255 0.300052 0.061667
-0.198417 0.47389 -0.376794 -2 -1 -2.00886 192 192 192 255 0.240568 0.061667
-0.198417 0.540448 -0.376794 -1.71771 3.69634 -0.00429805 192 192 192 255 0.240568 0.061667
-0.198417 0.47389 -0.517199 -2.37263 -2.76692 2.09635 192 192 192 255 0.240568 0.061667
-0.11413 0.540448 -0.517199 2.3727 2.76692 2.09629 192 192 192 255 0.332038 0.061667
-0.198417 0.540448 -0.517199 -2.68632 2.53384 2.01079 192 192 192 255 0.332038 0.061667
-0.091668 0.456152 -0.538397 2.3727 -2.76692 2.09629 192 192 192 255 0.300052 0.061667
-0.220881 0.456152 -0.538397 -2.68632 -2.53384 2.01079 192 192 192 255 0.240568 0.061667
-0.198417 0.540448 -0.517199 -2.68632 2.53384 2.01079 192 192 192 255 0.300052 0.061667
-0.11413 0.540448 -0.517199 2.3727 2.76692 2.09629 192 192 192 255 0.300052 0.061667
-0.091668 0.558186 -0.538397 2.68635 2.53384 2.01075 192 192 192 255 0.300052 0.061667
-0.220881 0.558186 -0.538397 -2.37263 2.76692 2.09635 192 192 192 255 0.300052 0.061667
-0.091668 0.456152 -0.665441 2 -1 -3 192 192 192 255 0.300052 0.061667
-0.220881 0.456152 -0.665441 -1 -2 -3 192 192 192 255 0.240568 0.061667
-0.220881 0.558186 -0.538397 -2.37263 2.76692 2.09635 192 192 192 255 0.332038 0.061667
-0.091668 0.558186 -0.538397 2.68635 2.53384 2.01075 192 192 192 255 0.332038 0.061667
-0.091668 0.558186 -0.665441 1 2 -3 192 192 192 255 0.332038 0.061667
-0.220881 0.558186 -0.665441 -2 1 -3 192 192 192 255 0.332038 0.061667
-0.312544 0.403208 -0.549558 -3.81502 4.47394 -1.93128 192 192 192 255 0.264448 0.061667
-2e-006 0.403208 -0.549558 4.63005 3.73697 -1.83478 192 192 192 255 0.264448 0.061667
-2e-006 0.403208 -0.549558 4.63005 3.73697 -1.83478 192 192 192 255 0.204964 0.061667
-0.057473 0.074142 -0.630397 1.63005 -0.736975 -3.83477 192 192 192 255 0.204964 0.061667
-0.057473 0.329065 -0.630397 0.815024 1.47394 -2.93128 192 192 192 255 0.204964 0.061667
-2e-006 0 -0.549558 3.81502 -4.47395 -1.93127 192 192 192 255 0.204083 0.061667
-0.255073 0.074142 -0.630397 -0.815025 -1.47395 -2.93127 192 192 192 255 0.204083 0.061667
-0.057473 0.074142 -0.630397 1.63005 -0.736975 -3.83477 192 192 192 255 0.204083 0.061667
-0.312544 0 -0.549558 -4.63005 -3.73697 -1.83477 192 192 192 255 0.204964 0.061667
-0.312544 0.403208 -0.549558 -3.81502 4.47394 -1.93128 192 192 192 255 0.204964 0.061667
-0.255073 0.329065 -0.630397 -1.63005 0.73697 -3.83478 192 192 192 255 0.204964 0.061667
-0.255073 0.074142 -0.630397 -0.815025 -1.47395 -2.93127 192 192 192 255 0.204964 0.061667
-0.263855 0.145173 0.230846 -2 -1 3 192 192 192 255 0.265187 0.061667
-0.048693 0.145173 0.230846 1 -2 3 192 192 192 255 0.265187 0.061667
-0.048693 0.359887 0.230846 2 1 3 192 192 192 255 0.265187 0.061667
-0.263855 0.359887 0.230846 -1 2 3 192 192 192 255 0.265187 0.061667
-0.0369 0.133405 0.38516 2 -1 -3 192 192 192 255 0.235228 0.061667
-0.0369 0.133405 0.506591 1 -2 3 192 192 192 255 0.235228 0.061667
-0.0369 0.371655 0.38516 1 2 -3 192 192 192 255 0.297172 0.061667
-0.0369 0.371655 0.506591 2 1 3 192 192 192 255 0.297172 0.061667
-0.275645 0.371655 0.38516 -2 1 -3 192 192 192 255 0.235228 0.061667
-0.275645 0.133405 0.38516 -1 -2 -3 192 192 192 255 0.235228 0.061667
-0.275645 0.133405 0.506591 -2 -1 3 192 192 192 255 0.235228 0.061667
-0.275645 0.371655 0.506591 -1 2 3 192 192 192 255 0.235228 0.061667
-0.275645 0.133405 0.506591 -2 -1 3 192 192 192 255 0.265187 0.061667
-0.0369 0.133405 0.506591 1 -2 3 192 192 192 255 0.265187 0.061667
-0.0369 0.371655 0.506591 2 1 3 192 192 192 255 0.265187 0.061667
-0.275645 0.371655 0.506591 -1 2 3 192 192 192 255 0.265187 0.061667
-0.24969 0.159307 0.506591 1 2 3 192 192 192 255 0.292252 0.061667
-0.062856 0.159307 0.506591 -2 1 3 192 192 192 255 0.292252 0.061667
-0.062856 0.159307 0.484475 -1 2 1 192 192 192 255 0.292252 0.061667
-0.24969 0.159307 0.484475 2 1 2 192 192 192 255 0.292252 0.061667
-0.062856 0.159307 0.506591 -2 1 3 192 192 192 255 0.205702 0.061667
-0.062856 0.345753 0.506591 -1 -2 3 192 192 192 255 0.205702 0.061667
-0.062856 0.345753 0.484475 -2 -1 2 192 192 192 255 0.205702 0.061667
-0.062856 0.159307 0.484475 -1 2 1 192 192 192 255 0.205702 0.061667
-0.062856 0.345753 0.506591 -1 -2 3 192 192 192 255 0.174151 0.061667
-0.24969 0.345753 0.506591 2 -1 3 192 192 192 255 0.174151 0.061667
-0.24969 0.345753 0.484475 1 -2 1 192 192 192 255 0.174151 0.061667
-0.062856 0.345753 0.484475 -2 -1 2 192 192 192 255 0.174151 0.061667
-0.24969 0.345753 0.506591 2 -1 3 192 192 192 255 0.205702 0.061667
-0.24969 0.159307 0.506591 1 2 3 192 192 192 255 0.205702 0.061667
-0.24969 0.159307 0.484475 2 1 2 192 192 192 255 0.205702 0.061667
-0.24969 0.345753 0.484475 1 -2 1 192 192 192 255 0.205702 0.061667
-0.312544 0 -0.549558 -4.63005 -3.73697 -1.83477 192 192 192 255 0.200168 0.061667
-2e-006 0 -0.549558 3.81502 -4.47395 -1.93127 192 192 192 255 0.200168 0.061667
-2e-006 0 -1e-006 3 -3 3 192 192 192 255 0.200168 0.061667
-0.312544 0 -1e-006 -3 -3 3 192 192 192 255 0.200168 0.061667
-0.270478 0 -0.488755 -1 -3 -2 192 192 192 255 0.230814 0.061667
-0.042067 0 -0.488755 2 -3 -1 192 192 192 255 0.230814 0.061667
-0.042067 -0.129541 -0.488755 1 -1 -2 192 192 192 255 0.230814 0.061667
-0.270478 -0.129541 -0.488755 -2 -2 -1 192 192 192 255 0.230814 0.061667
-0.042067 0 -0.488755 2 -3 -1 192 192 192 255 0.202905 0.061667
-0.042067 0 -0.060803 1 -3 2 192 192 192 255 0.202905 0.061667
-0.042067 -0.129541 -0.060803 2 -2 1 192 192 192 255 0.202905 0.061667
-0.042067 -0.129541 -0.488755 1 -1 -2 192 192 192 255 0.202905 0.061667
-0.042067 0 -0.060803 1 -3 2 192 192 192 255 0.230814 0.061667
-0.270478 0 -0.060803 -2 -3 1 192 192 192 255 0.230814 0.061667
-0.270478 -0.129541 -0.060803 -1 -1 2 192 192 192 255 0.230814 0.061667
-0.042067 -0.129541 -0.060803 2 -2 1 192 192 192 255 0.230814 0.061667
-0.270478 0 -0.060803 -2 -3 1 192 192 192 255 0.202905 0.061667
-0.270478 0 -0.488755 -1 -3 -2 192 192 192 255 0.202905 0.061667
-0.270478 -0.129541 -0.488755 -2 -2 -1 192 192 192 255 0.202905 0.061667
-0.270478 -0.129541 -0.060803 -1 -1 2 192 192 192 255 0.202905 0.061667
-2e-006 0 -1e-006 3 -3 3 192 192 192 255 0.233148 0.061667
-2e-006 0 -0.549558 3.81502 -4.47395 -1.93127 192 192 192 255 0.233148 0.061667
-2e-006 0.255003 -0.474696 4 0 0 192 192 192 255 0.233148 0.061667
-2e-006 0.255003 -0.074862 5 0 0 192 192 192 255 0.233148 0.061667
-2e-006 0.403208 -0.549558 4.63005 3.73697 -1.83478 192 192 192 255 0.233148 0.061667
-2e-006 0.324522 -0.474696 5 0 0 192 192 192 255 0.233148 0.061667
-2e-006 0.403208 -1e-006 3 3 3 192 192 192 255 0.233148 0.061667
-2e-006 0.324522 -0.074862 4 0 0 192 192 192 255 0.233148 0.061667
-0.312544 0 -0.549558 -4.63005 -3.73697 -1.83477 192 192 192 255 0.233148 0.061667
-0.312544 0 -1e-006 -3 -3 3 192 192 192 255 0.233148 0.061667
-0.312544 0.255003 -0.074862 -4 0 0 192 192 192 255 0.233148 0.061667
-0.312544 0.255003 -0.474696 -5 0 0 192 192 192 255 0.233148 0.061667
-0.312544 0.403208 -1e-006 -3 3 3 192 192 192 255 0.233148 0.061667
-0.312544 0.324522 -0.074862 -5 0 0 192 192 192 255 0.233148 0.061667
-0.312544 0.403208 -0.549558 -3.81502 4.47394 -1.93128 192 192 192 255 0.233148 0.061667
-0.312544 0.324522 -0.474696 -4 0 0 192 192 192 255 0.233148 0.061667
-0.0369 0.371655 0.38516 1 2 -3 192 192 192 255 0.20215 0.061667
-0.0369 0.133405 0.38516 2 -1 -3 192 192 192 255 0.20215 0.061667
-0.064817 0.343796 0.38516 2 1 -3 192 192 192 255 0.202737 0.061667
-0.275645 0.371655 0.38516 -2 1 -3 192 192 192 255 0.202737 0.061667
-0.0369 0.371655 0.38516 1 2 -3 192 192 192 255 0.202737 0.061667
-0.247728 0.343796 0.38516 -1 2 -3 192 192 192 255 0.20215 0.061667
-0.275645 0.133405 0.38516 -1 -2 -3 192 192 192 255 0.20215 0.061667
-0.275645 0.371655 0.38516 -2 1 -3 192 192 192 255 0.20215 0.061667
-0.247728 0.161264 0.38516 -2 -1 -3 192 192 192 255 0.201851 0.061667
-0.064817 0.161264 0.38516 1 -2 -3 192 192 192 255 0.201851 0.061667
-0.0369 0.133405 0.38516 2 -1 -3 192 192 192 255 0.201851 0.061667
-0.275645 0.133405 0.38516 -1 -2 -3 192 192 192 255 0.201851 0.061667
-0.064817 0.161264 0.230846 2 -1 3 192 192 192 255 0.235228 0.061667
-0.064817 0.343796 0.230846 1 2 3 192 192 192 255 0.235228 0.061667
-0.064817 0.343796 0.38516 2 1 -3 192 192 192 255 0.235228 0.061667
-0.064817 0.161264 0.38516 1 -2 -3 192 192 192 255 0.235228 0.061667
-0.064817 0.343796 0.230846 1 2 3 192 192 192 255 0.297172 0.061667
-0.247728 0.343796 0.230846 -2 1 3 192 192 192 255 0.297172 0.061667
-0.247728 0.343796 0.38516 -1 2 -3 192 192 192 255 0.297172 0.061667
-0.064817 0.343796 0.38516 2 1 -3 192 192 192 255 0.297172 0.061667
-0.247728 0.343796 0.230846 -2 1 3 192 192 192 255 0.235228 0.061667
-0.247728 0.161264 0.230846 -1 -2 3 192 192 192 255 0.235228 0.061667
-0.247728 0.161264 0.38516 -2 -1 -3 192 192 192 255 0.235228 0.061667
-0.247728 0.343796 0.38516 -1 2 -3 192 192 192 255 0.235228 0.061667
-0.247728 0.161264 0.230846 -1 -2 3 192 192 192 255 0.203676 0.061667
-0.064817 0.161264 0.230846 2 -1 3 192 192 192 255 0.203676 0.061667
-0.064817 0.161264 0.38516 1 -2 -3 192 192 192 255 0.203676 0.061667
-0.247728 0.161264 0.38516 -2 -1 -3 192 192 192 255 0.203676 0.061667
-0.091668 0.558186 -0.665441 1 2 -3 192 192 192 255 0.264762 0.061667
-0.091668 0.456152 -0.665441 2 -1 -3 192 192 192 255 0.264762 0.061667
-0.114421 0.474119 -0.665441 0 0 -4 192 192 192 255 0.264762 0.061667
-0.114421 0.540219 -0.665441 0 0 -5 192 192 192 255 0.264762 0.061667
-0.220881 0.456152 -0.665441 -1 -2 -3 192 192 192 255 0.264762 0.061667
-0.198129 0.474119 -0.665441 0 0 -5 192 192 192 255 0.264762 0.061667
-0.220881 0.558186 -0.665441 -2 1 -3 192 192 192 255 0.264762 0.061667
-0.198129 0.540219 -0.665441 0 0 -4 192 192 192 255 0.264762 0.061667
3 58 59 60 
3 58 60 61 
3 24 25 26 
3 24 26 27 
3 42 43 44 
3 42 44 45 
3 66 67 68 
3 66 68 69 
3 71 70 72 
3 71 72 73 
3 74 75 76 
3 74 76 77 
3 0 1 9 
3 0 9 8 
3 1 3 10 
3 1 10 9 
3 3 2 11 
3 3 11 10 
3 2 0 8 
3 2 8 11 
3 90 91 13 
3 90 13 12 
3 92 93 14 
3 92 14 94 
3 95 96 15 
3 95 15 97 
3 98 99 100 
3 98 100 101 
3 102 103 17 
3 102 17 16 
3 103 5 18 
3 103 18 17 
3 5 4 19 
3 5 19 18 
3 4 102 16 
3 4 16 19 
3 16 17 21 
3 16 21 20 
3 104 105 22 
3 104 22 106 
3 28 107 23 
3 108 109 110 
3 108 110 111 
3 20 21 112 
3 20 112 113 
3 114 115 116 
3 114 116 117 
3 118 28 23 
3 119 120 121 
3 119 121 122 
3 86 87 88 
3 86 88 89 
3 123 107 28 
3 123 28 29 
3 124 29 125 
3 123 29 124 
3 126 127 31 
3 126 31 30 
3 128 129 32 
3 128 32 130 
3 131 132 33 
3 131 33 133 
3 27 26 134 
3 27 134 135 
3 30 31 35 
3 30 35 34 
3 130 32 36 
3 130 36 136 
3 133 33 37 
3 133 37 137 
3 138 139 140 
3 138 140 141 
3 34 35 39 
3 34 39 38 
3 136 36 40 
3 136 40 142 
3 137 37 41 
3 137 41 143 
3 144 145 146 
3 144 146 147 
3 148 149 43 
3 148 43 42 
3 150 7 151 
3 150 151 152 
3 153 6 154 
3 153 154 155 
3 156 157 158 
3 156 158 159 
3 160 161 47 
3 160 47 46 
3 161 162 48 
3 161 48 47 
3 162 163 49 
3 162 49 48 
3 163 160 46 
3 163 46 49 
3 81 78 51 
3 81 51 50 
3 164 79 52 
3 164 52 165 
3 166 80 53 
3 166 53 167 
3 168 169 170 
3 168 170 171 
3 172 173 55 
3 172 55 54 
3 173 174 56 
3 173 56 55 
3 174 175 57 
3 174 57 56 
3 175 172 54 
3 175 54 57 
3 176 177 178 
3 176 178 179 
3 180 181 182 
3 180 182 183 
3 184 185 186 
3 184 186 187 
3 188 189 190 
3 188 190 191 
3 192 193 63 
3 192 63 62 
3 193 194 64 
3 193 64 63 
3 194 195 65 
3 194 65 64 
3 195 192 62 
3 195 62 65 
3 196 197 198 
3 196 198 199 
3 200 201 202 
3 200 202 203 
3 204 205 206 
3 204 206 207 
3 208 209 210 
3 208 210 211 
3 212 213 214 
3 212 214 215 
3 213 216 217 
3 213 217 214 
3 216 218 219 
3 216 219 217 
3 218 212 215 
3 218 215 219 
3 220 221 222 
3 220 222 223 
3 221 224 225 
3 221 225 222 
3 224 226 227 
3 224 227 225 
3 226 220 223 
3 226 223 227 
3 82 83 228 
3 82 228 229 
3 230 84 231 
3 230 231 232 
3 233 85 234 
3 233 234 235 
3 236 237 238 
3 236 238 239 
3 240 241 242 
3 240 242 243 
3 244 245 246 
3 244 246 247 
3 248 249 250 
3 248 250 251 
3 252 253 254 
3 252 254 255 
3 256 257 258 
3 256 258 259 
3 257 260 261 
3 257 261 258 
3 260 262 263 
3 260 263 261 
3 262 256 259 
3 262 259 263 
