ply
format ascii 1.0
comment VCGLIB generated
comment TextureFile WorldMap.png
element vertex 232
property float x
property float y
property float z
property float nx
property float ny
property float nz
property uchar red
property uchar green
property uchar blue
property uchar alpha
property float texture_u
property float texture_v
element face 130
property list uchar int vertex_indices
end_header
-0.18952 0.398602 0.320273 -2 -1 2 192 192 192 255 0.265187 0.061667
0.189521 0.398602 0.320273 2 -2 1 192 192 192 255 0.265187 0.061667
-0.18952 0.435737 0.320273 -1 2 1 192 192 192 255 0.265187 0.061667
0.189521 0.435737 0.320273 1 1 2 192 192 192 255 0.265187 0.061667
-0.044865 0.453508 -0.230892 -1 1 0 192 192 192 255 0.300052 0.061667
0.044865 0.453508 -0.230892 1 2 0 192 192 192 255 0.300052 0.061667
-0.044865 0.380831 -0.230892 -2 -2 0 192 192 192 255 0.200168 0.061667
0.044865 0.380831 -0.230892 2 -1 0 192 192 192 255 0.200168 0.061667
-0.044865 0.380831 -0.051576 -1 -1 1 192 192 192 255 0.200168 0.061667
-0.044865 0.453508 -0.051576 -2 2 2 192 192 192 255 0.300052 0.061667
0.044865 0.453508 -0.051576 2 1 1 192 192 192 255 0.300052 0.061667
0.044865 0.380831 -0.051576 1 -2 2 192 192 192 255 0.200168 0.061667
-0.18952 0.398602 -0.079623 -1 -2 -1 192 192 192 255 0.233148 0.061667
-0.18952 0.435737 -0.079623 -2 1 -2 192 192 192 255 0.233148 0.061667
0.189521 0.435737 -0.079623 2 2 -1 192 192 192 255 0.300052 0.061667
0.189521 0.398602 -0.079623 1 -1 -2 192 192 192 255 0.233148 0.061667
-0.214022 0.038543 0.210611 -2.29114 0.93283 3.12332 192 192 192 255 0.233148 0.061667
0.214022 0.038543 0.210611 3.58228 0.318157 3.67658 192 192 192 255 0.233148 0.061667
-0.219725 2.46816 -0.155581 -2 2 1 192 192 192 255 0.300052 0.061667
0.219725 2.46816 -0.155581 1 1 4 192 192 192 255 0.300052 0.061667
-0.219725 2.46816 -0.254642 -1 1 -2 192 192 192 255 0.300052 0.061667
0.219725 2.46816 -0.254642 2 2 -2 192 192 192 255 0.300052 0.061667
-0.214022 0.288536 -0.320272 -3 -1.72357 -2.01455 192 192 192 255 0.200168 0.061667
0.214022 0.288536 -0.320272 2 -0.861785 -2.50727 192 192 192 255 0.200168 0.061667
-0.049531 2.40008 -0.155581 -3 -1 2.99999 192 192 192 255 0.265187 0.061667
0.049531 2.40008 -0.155581 2.99999 -2 3.99999 192 192 192 255 0.265187 0.061667
0.049531 2.40008 -0.254642 3 -1 -5.00001 192 192 192 255 0.265187 0.061667
-0.049531 2.40008 -0.254642 -2.99999 -2 -3.00001 192 192 192 255 0.265187 0.061667
-0.049531 1.28656 -0.155581 -4.87013 1.06343 2.93506 192 192 192 255 0.265187 0.061667
0.049531 1.28656 -0.155581 3.93506 1.06343 2.87013 192 192 192 255 0.265187 0.061667
0.049531 1.28656 -0.254642 4.87013 1.06343 -2.93507 192 192 192 255 0.265187 0.061667
-0.049531 1.28656 -0.254642 -3.93506 1.06343 -2.87013 192 192 192 255 0.265187 0.061667
0.219725 2.40008 -0.155581 2 -1 0.999994 192 192 192 255 0.233148 0.061667
0.219725 2.40008 -0.254642 0.999993 -2 -1.00001 192 192 192 255 0.233148 0.061667
-0.219725 2.40008 -0.254642 -2 -1 -2.00001 192 192 192 255 0.233148 0.061667
-0.219725 2.40008 -0.155581 -0.999993 -2 1.99999 192 192 192 255 0.233148 0.061667
-0.068229 1.23724 -0.27334 -2.87013 1.06343 -2.93507 192 192 192 255 0.297065 0.061667
-0.068229 1.23724 -0.136883 -2.93506 1.06343 2.87013 192 192 192 255 0.297065 0.061667
0.068229 1.23724 -0.136883 2.87013 1.06343 2.93506 192 192 192 255 0.297065 0.061667
0.068229 1.23724 -0.27334 2.93506 1.06343 -2.87013 192 192 192 255 0.265027 0.061667
-0.068229 0.518795 -0.27334 -2.68734 1.37044 -2.89344 192 192 192 255 0.233148 0.061667
-0.068229 0.518795 -0.136883 -2.37467 1.77473 2.94672 192 192 192 255 0.233148 0.061667
0.068229 0.518795 -0.136883 2.68734 1.37044 2.89344 192 192 192 255 0.265187 0.061667
0.068229 0.518795 -0.27334 2.37467 1.77473 -2.94672 192 192 192 255 0.233148 0.061667
-0.214022 0.380831 -0.320272 -2.37467 1.77473 -2.94672 192 192 192 255 0.263304 0.061667
-0.214022 0.380831 -0.089951 -3.26962 3.47241 3.869 192 192 192 255 0.263304 0.061667
0.214022 0.380831 -0.089951 2.66581 4.0969 2.73079 192 192 192 255 0.295342 0.061667
0.214022 0.380831 -0.320272 2.68734 1.37044 -2.89344 192 192 192 255 0.263304 0.061667
-0.177475 0.081348 0.184837 -0.497353 3.60882 3.08879 192 192 192 255 0.294481 0.061667
0.177475 0.081348 0.184837 0.20621 2.57816 2.82943 192 192 192 255 0.294481 0.061667
0.177475 0.356018 -0.05034 0.497352 0.165852 2.47701 192 192 192 255 0.265187 0.061667
-0.177475 0.356018 -0.05034 -0.206211 1.35411 2.0348 192 192 192 255 0.301373 0.061667
0.177475 0.290469 -0.303428 -0.0849313 0.870416 1.03813 192 192 192 255 0.294481 0.061667
-0.177475 0.290469 -0.303428 0.0849313 -1.01688 0.895152 192 192 192 255 0.294481 0.061667
0.214022 0 0.16991 1 -2.44966 -0.32695 192 192 192 255 0.200168 0.061667
-0.214022 0 0.16991 -1 -2.31397 0.867918 192 192 192 255 0.200168 0.061667
0.219725 2.09747 -0.171634 2 -1 2 192 192 192 255 0.233148 0.061667
0.219725 2.09747 -0.238589 1 -2 -1 192 192 192 255 0.233148 0.061667
0.219725 2.14942 -0.238589 2 1 -2 192 192 192 255 0.233148 0.061667
0.219725 2.14942 -0.171634 1 2 1 192 192 192 255 0.233148 0.061667
0.049531 2.09747 -0.171634 3 -2 1 192 192 192 255 0.202333 0.061667
0.049531 2.09747 -0.238589 3 -1 -2 192 192 192 255 0.202333 0.061667
0.049531 2.14942 -0.238589 3 2 -1 192 192 192 255 0.263964 0.061667
0.049531 2.14942 -0.171634 3 1 2 192 192 192 255 0.301627 0.061667
-0.219725 2.09747 -0.238589 -2 -1 -2 192 192 192 255 0.233148 0.061667
-0.219725 2.09747 -0.171634 -1 -2 1 192 192 192 255 0.233148 0.061667
-0.219725 2.14942 -0.171634 -2 1 2 192 192 192 255 0.233148 0.061667
-0.219725 2.14942 -0.238589 -1 2 -1 192 192 192 255 0.233148 0.061667
-0.049531 2.09747 -0.238589 -3 -2 -1 192 192 192 255 0.202333 0.061667
-0.049531 2.09747 -0.171634 -3 -1 2 192 192 192 255 0.202333 0.061667
-0.049531 2.14942 -0.171634 -3 2 1 192 192 192 255 0.263964 0.061667
-0.049531 2.14942 -0.238589 -3 1 -2 192 192 192 255 0.301627 0.061667
0.044865 0.453508 -0.051576 2 1 1 192 192 192 255 0.233148 0.061667
0.044865 0.380831 -0.051576 1 -2 2 192 192 192 255 0.233148 0.061667
0.044865 0.380831 -0.230892 2 -1 0 192 192 192 255 0.233148 0.061667
0.044865 0.453508 -0.230892 1 2 0 192 192 192 255 0.233148 0.061667
-0.044865 0.380831 -0.230892 -2 -2 0 192 192 192 255 0.233148 0.061667
-0.044865 0.380831 -0.051576 -1 -1 1 192 192 192 255 0.233148 0.061667
-0.044865 0.453508 -0.051576 -2 2 2 192 192 192 255 0.233148 0.061667
-0.044865 0.453508 -0.230892 -1 1 0 192 192 192 255 0.233148 0.061667
-0.18952 0.398602 0.320273 -2 -1 2 192 192 192 255 0.233148 0.061667
-0.18952 0.435737 0.320273 -1 2 1 192 192 192 255 0.233148 0.061667
-0.18952 0.435737 0.320273 -1 2 1 192 192 192 255 0.300052 0.061667
0.189521 0.435737 0.320273 1 1 2 192 192 192 255 0.300052 0.061667
-0.18952 0.435737 -0.079623 -2 1 -2 192 192 192 255 0.300052 0.061667
0.189521 0.398602 0.320273 2 -2 1 192 192 192 255 0.233148 0.061667
0.189521 0.435737 -0.079623 2 2 -1 192 192 192 255 0.233148 0.061667
0.189521 0.435737 0.320273 1 1 2 192 192 192 255 0.233148 0.061667
-0.18952 0.398602 -0.079623 -1 -2 -1 192 192 192 255 0.200168 0.061667
0.189521 0.398602 -0.079623 1 -1 -2 192 192 192 255 0.200168 0.061667
0.189521 0.398602 0.320273 2 -2 1 192 192 192 255 0.200168 0.061667
-0.18952 0.398602 0.320273 -2 -1 2 192 192 192 255 0.200168 0.061667
-0.044865 0.453508 -0.051576 -2 2 2 192 192 192 255 0.266184 0.059355
-0.044865 0.380831 -0.051576 -1 -1 1 192 192 192 255 0.266184 0.059355
0.044865 0.380831 -0.051576 1 -2 2 192 192 192 255 0.266184 0.059355
0.044865 0.453508 -0.051576 2 1 1 192 192 192 255 0.266184 0.059355
-0.18952 0.435737 -0.079623 -2 1 -2 192 192 192 255 0.264017 0.064773
0.189521 0.435737 -0.079623 2 2 -1 192 192 192 255 0.264017 0.064773
0.189521 0.398602 -0.079623 1 -1 -2 192 192 192 255 0.264017 0.064773
-0.18952 0.398602 -0.079623 -1 -2 -1 192 192 192 255 0.264017 0.064773
0.219725 2.46816 -0.254642 2 2 -2 192 192 192 255 0.233148 0.061667
0.219725 2.46816 -0.155581 1 1 4 192 192 192 255 0.233148 0.061667
-0.219725 2.46816 -0.155581 -2 2 1 192 192 192 255 0.233148 0.061667
-0.219725 2.46816 -0.254642 -1 1 -2 192 192 192 255 0.233148 0.061667
0.049531 1.28656 -0.155581 3.93506 1.06343 2.87013 192 192 192 255 0.297065 0.061667
-0.049531 1.28656 -0.155581 -4.87013 1.06343 2.93506 192 192 192 255 0.297065 0.061667
0.068229 1.23724 -0.136883 2.87013 1.06343 2.93506 192 192 192 255 0.265027 0.061667
0.049531 1.28656 -0.254642 4.87013 1.06343 -2.93507 192 192 192 255 0.265027 0.061667
0.049531 1.28656 -0.155581 3.93506 1.06343 2.87013 192 192 192 255 0.265027 0.061667
-0.049531 1.28656 -0.254642 -3.93506 1.06343 -2.87013 192 192 192 255 0.297065 0.061667
0.049531 1.28656 -0.254642 4.87013 1.06343 -2.93507 192 192 192 255 0.297065 0.061667
0.068229 1.23724 -0.27334 2.93506 1.06343 -2.87013 192 192 192 255 0.297065 0.061667
-0.068229 1.23724 -0.27334 -2.87013 1.06343 -2.93507 192 192 192 255 0.265027 0.061667
-0.068229 1.23724 -0.136883 -2.93506 1.06343 2.87013 192 192 192 255 0.265027 0.061667
-0.049531 1.28656 -0.155581 -4.87013 1.06343 2.93506 192 192 192 255 0.265027 0.061667
-0.049531 1.28656 -0.254642 -3.93506 1.06343 -2.87013 192 192 192 255 0.265027 0.061667
0.049531 2.40008 -0.155581 2.99999 -2 3.99999 192 192 192 255 0.202333 0.061667
0.049531 2.40008 -0.254642 3 -1 -5.00001 192 192 192 255 0.202333 0.061667
0.219725 2.40008 -0.254642 0.999993 -2 -1.00001 192 192 192 255 0.202333 0.061667
0.219725 2.40008 -0.155581 2 -1 0.999994 192 192 192 255 0.202333 0.061667
-0.049531 2.40008 -0.254642 -2.99999 -2 -3.00001 192 192 192 255 0.202333 0.061667
-0.049531 2.40008 -0.155581 -3 -1 2.99999 192 192 192 255 0.202333 0.061667
-0.219725 2.40008 -0.155581 -0.999993 -2 1.99999 192 192 192 255 0.202333 0.061667
-0.219725 2.40008 -0.254642 -2 -1 -2.00001 192 192 192 255 0.202333 0.061667
0.219725 2.46816 -0.155581 1 1 4 192 192 192 255 0.265187 0.061667
-0.219725 2.46816 -0.155581 -2 2 1 192 192 192 255 0.263964 0.061667
-0.219725 2.40008 -0.155581 -0.999993 -2 1.99999 192 192 192 255 0.263964 0.061667
0.049531 2.40008 -0.155581 2.99999 -2 3.99999 192 192 192 255 0.263964 0.061667
0.219725 2.40008 -0.155581 2 -1 0.999994 192 192 192 255 0.263964 0.061667
-0.049531 2.40008 -0.254642 -2.99999 -2 -3.00001 192 192 192 255 0.263964 0.061667
-0.219725 2.40008 -0.254642 -2 -1 -2.00001 192 192 192 255 0.263964 0.061667
-0.219725 2.46816 -0.254642 -1 1 -2 192 192 192 255 0.265187 0.061667
0.219725 2.46816 -0.254642 2 2 -2 192 192 192 255 0.263964 0.061667
0.219725 2.40008 -0.254642 0.999993 -2 -1.00001 192 192 192 255 0.263964 0.061667
0.219725 2.09747 -0.238589 1 -2 -1 192 192 192 255 0.202333 0.061667
0.219725 2.09747 -0.171634 2 -1 2 192 192 192 255 0.202333 0.061667
0.049531 2.09747 -0.238589 3 -1 -2 192 192 192 255 0.263964 0.061667
0.219725 2.14942 -0.238589 2 1 -2 192 192 192 255 0.263964 0.061667
0.219725 2.09747 -0.238589 1 -2 -1 192 192 192 255 0.263964 0.061667
0.049531 2.14942 -0.238589 3 2 -1 192 192 192 255 0.301627 0.061667
0.219725 2.14942 -0.171634 1 2 1 192 192 192 255 0.301627 0.061667
0.219725 2.14942 -0.238589 2 1 -2 192 192 192 255 0.301627 0.061667
0.049531 2.14942 -0.171634 3 1 2 192 192 192 255 0.263964 0.061667
0.049531 2.09747 -0.171634 3 -2 1 192 192 192 255 0.263964 0.061667
0.219725 2.09747 -0.171634 2 -1 2 192 192 192 255 0.263964 0.061667
0.219725 2.14942 -0.171634 1 2 1 192 192 192 255 0.263964 0.061667
-0.219725 2.09747 -0.171634 -1 -2 1 192 192 192 255 0.202333 0.061667
-0.219725 2.09747 -0.238589 -2 -1 -2 192 192 192 255 0.202333 0.061667
-0.049531 2.09747 -0.171634 -3 -1 2 192 192 192 255 0.263964 0.061667
-0.219725 2.14942 -0.171634 -2 1 2 192 192 192 255 0.263964 0.061667
-0.219725 2.09747 -0.171634 -1 -2 1 192 192 192 255 0.263964 0.061667
-0.049531 2.14942 -0.171634 -3 2 1 192 192 192 255 0.301627 0.061667
-0.219725 2.14942 -0.238589 -1 2 -1 192 192 192 255 0.301627 0.061667
-0.219725 2.14942 -0.171634 -2 1 2 192 192 192 255 0.301627 0.061667
-0.049531 2.14942 -0.238589 -3 1 -2 192 192 192 255 0.263964 0.061667
-0.049531 2.09747 -0.238589 -3 -2 -1 192 192 192 255 0.263964 0.061667
-0.219725 2.09747 -0.238589 -2 -1 -2 192 192 192 255 0.263964 0.061667
-0.219725 2.14942 -0.238589 -1 2 -1 192 192 192 255 0.263964 0.061667
-0.068229 1.23724 -0.136883 -2.93506 1.06343 2.87013 192 192 192 255 0.233148 0.061667
-0.068229 1.23724 -0.27334 -2.87013 1.06343 -2.93507 192 192 192 255 0.233148 0.061667
-0.068229 0.518795 -0.136883 -2.37467 1.77473 2.94672 192 192 192 255 0.265187 0.061667
0.068229 1.23724 -0.136883 2.87013 1.06343 2.93506 192 192 192 255 0.265187 0.061667
-0.068229 1.23724 -0.136883 -2.93506 1.06343 2.87013 192 192 192 255 0.265187 0.061667
0.068229 0.518795 -0.136883 2.68734 1.37044 2.89344 192 192 192 255 0.233148 0.061667
0.068229 1.23724 -0.27334 2.93506 1.06343 -2.87013 192 192 192 255 0.233148 0.061667
0.068229 1.23724 -0.136883 2.87013 1.06343 2.93506 192 192 192 255 0.233148 0.061667
-0.068229 1.23724 -0.27334 -2.87013 1.06343 -2.93507 192 192 192 255 0.265187 0.061667
0.068229 1.23724 -0.27334 2.93506 1.06343 -2.87013 192 192 192 255 0.265187 0.061667
0.068229 0.518795 -0.27334 2.37467 1.77473 -2.94672 192 192 192 255 0.265187 0.061667
-0.068229 0.518795 -0.27334 -2.68734 1.37044 -2.89344 192 192 192 255 0.265187 0.061667
-0.068229 0.518795 -0.136883 -2.37467 1.77473 2.94672 192 192 192 255 0.263304 0.061667
-0.068229 0.518795 -0.27334 -2.68734 1.37044 -2.89344 192 192 192 255 0.263304 0.061667
-0.214022 0.380831 -0.089951 -3.26962 3.47241 3.869 192 192 192 255 0.295342 0.061667
0.068229 0.518795 -0.136883 2.68734 1.37044 2.89344 192 192 192 255 0.295342 0.061667
-0.068229 0.518795 -0.136883 -2.37467 1.77473 2.94672 192 192 192 255 0.295342 0.061667
0.214022 0.380831 -0.089951 2.66581 4.0969 2.73079 192 192 192 255 0.263304 0.061667
0.068229 0.518795 -0.27334 2.37467 1.77473 -2.94672 192 192 192 255 0.263304 0.061667
0.068229 0.518795 -0.136883 2.68734 1.37044 2.89344 192 192 192 255 0.263304 0.061667
-0.068229 0.518795 -0.27334 -2.68734 1.37044 -2.89344 192 192 192 255 0.295342 0.061667
0.068229 0.518795 -0.27334 2.37467 1.77473 -2.94672 192 192 192 255 0.295342 0.061667
0.214022 0.380831 -0.320272 2.68734 1.37044 -2.89344 192 192 192 255 0.295342 0.061667
-0.214022 0.380831 -0.320272 -2.37467 1.77473 -2.94672 192 192 192 255 0.295342 0.061667
-0.214022 0.288536 -0.320272 -3 -1.72357 -2.01455 192 192 192 255 0.233148 0.061667
-0.214022 0 0.16991 -1 -2.31397 0.867918 192 192 192 255 0.233148 0.061667
-0.214022 0.380831 -0.089951 -3.26962 3.47241 3.869 192 192 192 255 0.233148 0.061667
-0.214022 0.380831 -0.320272 -2.37467 1.77473 -2.94672 192 192 192 255 0.233148 0.061667
0.214022 0 0.16991 1 -2.44966 -0.32695 192 192 192 255 0.233148 0.061667
0.214022 0.288536 -0.320272 2 -0.861785 -2.50727 192 192 192 255 0.233148 0.061667
0.214022 0.380831 -0.320272 2.68734 1.37044 -2.89344 192 192 192 255 0.233148 0.061667
0.214022 0.380831 -0.089951 2.66581 4.0969 2.73079 192 192 192 255 0.233148 0.061667
-0.214022 0.380831 -0.320272 -2.37467 1.77473 -2.94672 192 192 192 255 0.265187 0.061667
0.214022 0.380831 -0.320272 2.68734 1.37044 -2.89344 192 192 192 255 0.265187 0.061667
0.214022 0.288536 -0.320272 2 -0.861785 -2.50727 192 192 192 255 0.265187 0.061667
-0.214022 0.288536 -0.320272 -3 -1.72357 -2.01455 192 192 192 255 0.265187 0.061667
-0.214022 0.038543 0.210611 -2.29114 0.93283 3.12332 192 192 192 255 0.265187 0.061667
0.214022 0.038543 0.210611 3.58228 0.318157 3.67658 192 192 192 255 0.265187 0.061667
0.177475 0.081348 0.184837 0.20621 2.57816 2.82943 192 192 192 255 0.265187 0.061667
-0.177475 0.081348 0.184837 -0.497353 3.60882 3.08879 192 192 192 255 0.265187 0.061667
0.214022 0.380831 -0.089951 2.66581 4.0969 2.73079 192 192 192 255 0.265187 0.061667
0.214022 0.380831 -0.089951 2.66581 4.0969 2.73079 192 192 192 255 0.301373 0.061667
-0.214022 0.380831 -0.089951 -3.26962 3.47241 3.869 192 192 192 255 0.301373 0.061667
0.177475 0.356018 -0.05034 0.497352 0.165852 2.47701 192 192 192 255 0.301373 0.061667
-0.214022 0.380831 -0.089951 -3.26962 3.47241 3.869 192 192 192 255 0.265187 0.061667
-0.177475 0.356018 -0.05034 -0.206211 1.35411 2.0348 192 192 192 255 0.265187 0.061667
0.177475 0.081348 0.184837 0.20621 2.57816 2.82943 192 192 192 255 0.23417 0.061667
0.177475 0.356018 -0.05034 0.497352 0.165852 2.47701 192 192 192 255 0.23417 0.061667
0.177475 0.290469 -0.303428 -0.0849313 0.870416 1.03813 192 192 192 255 0.23417 0.061667
0.177475 0.356018 -0.05034 0.497352 0.165852 2.47701 192 192 192 255 0.200569 0.061667
-0.177475 0.356018 -0.05034 -0.206211 1.35411 2.0348 192 192 192 255 0.200569 0.061667
-0.177475 0.290469 -0.303428 0.0849313 -1.01688 0.895152 192 192 192 255 0.200569 0.061667
0.177475 0.290469 -0.303428 -0.0849313 0.870416 1.03813 192 192 192 255 0.200569 0.061667
-0.177475 0.356018 -0.05034 -0.206211 1.35411 2.0348 192 192 192 255 0.23417 0.061667
-0.177475 0.081348 0.184837 -0.497353 3.60882 3.08879 192 192 192 255 0.23417 0.061667
-0.177475 0.290469 -0.303428 0.0849313 -1.01688 0.895152 192 192 192 255 0.23417 0.061667
0.214022 0.038543 0.210611 3.58228 0.318157 3.67658 192 192 192 255 0.200168 0.061667
-0.214022 0.038543 0.210611 -2.29114 0.93283 3.12332 192 192 192 255 0.200168 0.061667
0.049531 1.28656 -0.155581 3.93506 1.06343 2.87013 192 192 192 255 0.233681 0.065856
0.049531 1.28656 -0.254642 4.87013 1.06343 -2.93507 192 192 192 255 0.233681 0.065856
0.049531 2.09747 -0.238589 3 -1 -2 192 192 192 255 0.233681 0.065856
0.049531 2.09747 -0.171634 3 -2 1 192 192 192 255 0.233681 0.065856
0.049531 2.40008 -0.254642 3 -1 -5.00001 192 192 192 255 0.233681 0.065856
0.049531 2.14942 -0.238589 3 2 -1 192 192 192 255 0.233681 0.065856
0.049531 2.40008 -0.155581 2.99999 -2 3.99999 192 192 192 255 0.233681 0.065856
0.049531 2.14942 -0.171634 3 1 2 192 192 192 255 0.233681 0.065856
-0.049531 1.28656 -0.254642 -3.93506 1.06343 -2.87013 192 192 192 255 0.233681 0.065856
-0.049531 1.28656 -0.155581 -4.87013 1.06343 2.93506 192 192 192 255 0.233681 0.065856
-0.049531 2.09747 -0.171634 -3 -1 2 192 192 192 255 0.233681 0.065856
-0.049531 2.09747 -0.238589 -3 -2 -1 192 192 192 255 0.233681 0.065856
-0.049531 2.40008 -0.155581 -3 -1 2.99999 192 192 192 255 0.233681 0.065856
-0.049531 2.14942 -0.171634 -3 2 1 192 192 192 255 0.233681 0.065856
-0.049531 2.40008 -0.254642 -2.99999 -2 -3.00001 192 192 192 255 0.233681 0.065856
-0.049531 2.14942 -0.238589 -3 1 -2 192 192 192 255 0.233681 0.065856
3 0 1 3 
3 0 3 2 
3 9 10 5 
3 9 5 4 
3 6 7 11 
3 6 11 8 
3 72 73 74 
3 72 74 75 
3 76 77 78 
3 76 78 79 
3 13 12 80 
3 13 80 81 
3 82 83 14 
3 82 14 84 
3 85 15 86 
3 85 86 87 
3 88 89 90 
3 88 90 91 
3 92 93 94 
3 92 94 95 
3 96 97 98 
3 96 98 99 
3 18 19 21 
3 18 21 20 
3 22 23 54 
3 22 54 55 
3 32 33 100 
3 32 100 101 
3 34 35 102 
3 34 102 103 
3 28 29 25 
3 28 25 24 
3 56 57 58 
3 56 58 59 
3 27 26 30 
3 27 30 31 
3 64 65 66 
3 64 66 67 
3 37 38 104 
3 37 104 105 
3 106 39 107 
3 106 107 108 
3 109 110 111 
3 109 111 36 
3 112 113 114 
3 112 114 115 
3 116 117 118 
3 116 118 119 
3 120 121 122 
3 120 122 123 
3 124 125 126 
3 124 126 24 
3 124 24 127 
3 124 127 128 
3 26 129 130 
3 26 130 131 
3 26 131 132 
3 26 132 133 
3 60 61 134 
3 60 134 135 
3 136 62 137 
3 136 137 138 
3 139 63 140 
3 139 140 141 
3 142 143 144 
3 142 144 145 
3 68 69 146 
3 68 146 147 
3 148 70 149 
3 148 149 150 
3 151 71 152 
3 151 152 153 
3 154 155 156 
3 154 156 157 
3 40 41 158 
3 40 158 159 
3 160 42 161 
3 160 161 162 
3 163 43 164 
3 163 164 165 
3 166 167 168 
3 166 168 169 
3 44 45 170 
3 44 170 171 
3 172 46 173 
3 172 173 174 
3 175 47 176 
3 175 176 177 
3 178 179 180 
3 178 180 181 
3 182 183 16 
3 182 16 184 
3 182 184 185 
3 48 49 52 
3 48 52 53 
3 17 186 187 
3 17 187 188 
3 17 188 189 
3 190 191 192 
3 190 192 193 
3 194 195 196 
3 194 196 197 
3 195 198 50 
3 195 50 196 
3 199 200 51 
3 199 51 201 
3 202 194 197 
3 202 197 203 
3 204 205 206 
3 207 208 209 
3 207 209 210 
3 211 212 213 
3 55 54 214 
3 55 214 215 
3 216 217 218 
3 216 218 219 
3 217 220 221 
3 217 221 218 
3 220 222 223 
3 220 223 221 
3 222 216 219 
3 222 219 223 
3 224 225 226 
3 224 226 227 
3 225 228 229 
3 225 229 226 
3 228 230 231 
3 228 231 229 
3 230 224 227 
3 230 227 231 
