ply
format ascii 1.0
comment VCGLIB generated
comment TextureFile WorldMap.png
element vertex 340
property float x
property float y
property float z
property float nx
property float ny
property float nz
property uchar red
property uchar green
property uchar blue
property uchar alpha
property float texture_u
property float texture_v
element face 204
property list uchar int vertex_indices
end_header
-0.060087 0.512507 0.225799 -2 -1 3 192 192 192 255 0.204752 0.061503
0.060087 0.512507 0.225799 2 -2 3 192 192 192 255 0.204752 0.061503
-0.060087 0.641211 0.225799 -1 2 3 192 192 192 255 0.204752 0.061503
0.060087 0.641211 0.225799 1 1 3 192 192 192 255 0.204752 0.061503
-0.046998 0.627192 -0.702239 -0.994165 0.993315 -2.2233 192 192 192 255 0.204752 0.061503
0.046995 0.627192 -0.702239 0.994163 1.98663 -1.33876 192 192 192 255 0.204752 0.061503
-0.046998 0.526525 -0.702239 -1.98833 -1.98663 -1.44659 192 192 192 255 0.204752 0.061503
0.046995 0.526525 -0.702239 1.98833 -0.993316 -2.33121 192 192 192 255 0.204752 0.061503
-0.060087 0.512507 -0.152131 -1 -2 3 192 192 192 255 0.17529 0.331629
-0.060087 0.641211 -0.152131 -2 1 3 192 192 192 255 0.17529 0.331629
0.060087 0.641211 -0.152131 1 2 3 192 192 192 255 0.17529 0.331629
0.060087 0.512507 -0.152131 2 -1 3 192 192 192 255 0.17529 0.331629
0.060087 0.641211 -0.581604 1.98833 0.993315 -3.33122 192 192 192 255 0.263528 0.061503
-0.060087 0.641211 -0.581604 -1.98833 1.98663 -3.4466 192 192 192 255 0.263528 0.061503
-0.060087 0.512507 -0.581604 -0.994165 -0.993316 -3.22329 192 192 192 255 0.229402 0.061503
0.060087 0.512507 -0.581604 0.994163 -1.98663 -3.33874 192 192 192 255 0.17165 0.061503
-0.084596 0.665719 -0.152131 -3 2 3 192 192 192 255 0.234067 0.331629
0.084595 0.665719 -0.152131 3 1 3 192 192 192 255 0.234067 0.331629
0.084595 0.665719 -0.581604 3 2 -3 192 192 192 255 0.234067 0.331629
-0.084596 0.665719 -0.581604 -3 1 -3 192 192 192 255 0.234067 0.331629
-0.084596 0.487998 -0.581604 -3 -3 -3 192 192 192 255 0.17529 0.331629
0.084595 0.487998 -0.581604 3 -3 -3 192 192 192 255 0.17529 0.331629
0.084595 0.487998 -0.152131 3 -3 3 192 192 192 255 0.17529 0.331629
-0.084596 0.487998 -0.152131 -3 -3 3 192 192 192 255 0.17529 0.331629
-0.029537 0.545227 0.225799 -1 -2 3 192 192 192 255 0.204752 0.061503
0.029535 0.545227 0.225799 2 -1 3 192 192 192 255 0.204752 0.061503
0.029535 0.608491 0.225799 1 2 3 192 192 192 255 0.204752 0.061503
-0.029537 0.608491 0.225799 -2 1 3 192 192 192 255 0.204752 0.061503
-0.029537 0.545227 0.345846 -2 -1 3 192 192 192 255 0.17165 0.061503
0.029535 0.545227 0.345846 1 -2 3 192 192 192 255 0.17165 0.061503
0.029535 0.608491 0.345846 2 1 3 192 192 192 255 0.229402 0.061503
-0.029537 0.608491 0.345846 -1 2 3 192 192 192 255 0.263528 0.061503
-0.011322 0.564735 0.345846 -1 -2 3 192 192 192 255 0.204752 0.061503
0.01132 0.564735 0.345846 2 -1 3 192 192 192 255 0.204752 0.061503
0.01132 0.588983 0.345846 1 2 3 192 192 192 255 0.204752 0.061503
-0.011322 0.588983 0.345846 -2 1 3 192 192 192 255 0.204752 0.061503
-0.016909 0.558751 0.702239 -2 -1 3 192 192 192 255 0.263062 0.085421
0.016909 0.558751 0.702239 1 -2 3 192 192 192 255 0.263062 0.085421
0.016909 0.594966 0.702239 2 1 3 192 192 192 255 0.297188 0.085421
-0.016909 0.594966 0.702239 -1 2 3 192 192 192 255 0.263062 0.085421
0.01132 0.588983 0.628185 2.97869 2.95139 -0.643606 192 192 192 255 0.236818 0.085421
-0.011322 0.588983 0.628185 -2.95741 2.97569 -0.629664 192 192 192 255 0.270944 0.085421
-0.011322 0.564735 0.628185 -2.97871 -2.95137 -0.643607 192 192 192 255 0.179066 0.085421
0.01132 0.564735 0.628185 2.95738 -2.97569 -0.62984 192 192 192 255 0.179066 0.085421
-0.016909 0.558751 0.654824 -2.95741 -2.97569 -0.629699 192 192 192 255 0.179066 0.085421
-0.016909 0.594966 0.654824 -2.97871 2.95139 -0.643536 192 192 192 255 0.270944 0.085421
0.016909 0.594966 0.654824 2.95738 2.97569 -0.629805 192 192 192 255 0.236818 0.085421
0.016909 0.558751 0.654824 2.97869 -2.95137 -0.643677 192 192 192 255 0.179066 0.085421
0.084595 0.614979 -0.383496 3 1 2 192 192 192 255 0.19994 0.331629
0.084595 0.538738 -0.383496 3 -2 1 192 192 192 255 0.19994 0.331629
0.084595 0.538738 -0.507284 3 -1 -2 192 192 192 255 0.19994 0.331629
0.084595 0.614979 -0.507284 3 2 -1 192 192 192 255 0.19994 0.331629
-0.084596 0.614979 -0.507284 -3 1 -2 192 192 192 255 0.19994 0.331629
-0.084596 0.538738 -0.507284 -3 -2 -1 192 192 192 255 0.19994 0.331629
-0.084596 0.538738 -0.383496 -3 -1 2 192 192 192 255 0.19994 0.331629
-0.084596 0.614979 -0.383496 -3 2 1 192 192 192 255 0.19994 0.331629
0.116144 0.614979 -0.383496 2 2 1 192 192 192 255 0.263062 0.085421
0.116144 0.538738 -0.383496 1 -1 2 192 192 192 255 0.263062 0.085421
0.116144 0.538738 -0.507284 2 -2 -1 192 192 192 255 0.263062 0.085421
0.116144 0.614979 -0.507284 1 1 -2 192 192 192 255 0.263062 0.085421
-0.116144 0.614979 -0.507284 -2 2 -1 192 192 192 255 0.263062 0.085421
-0.116144 0.538738 -0.507284 -1 -1 -2 192 192 192 255 0.263062 0.085421
-0.116144 0.538738 -0.383496 -2 -2 1 192 192 192 255 0.263062 0.085421
-0.116144 0.614979 -0.383496 -1 1 2 192 192 192 255 0.263062 0.085421
-0.057339 0.487998 -0.481891 -1 -3.00004 -2 192 192 192 255 0.142188 0.331629
0.057337 0.487998 -0.481891 2 -2.99994 -1 192 192 192 255 0.142188 0.331629
0.057337 0.487998 -0.284128 1 -2.99996 2 192 192 192 255 0.142188 0.331629
-0.057339 0.487998 -0.284128 -2 -3 1 192 192 192 255 0.142188 0.331629
-0.057339 0.435428 -0.48189 -2.79755 -2.27323 -2.10056 192 192 192 255 0.238412 0.085421
0.057339 0.435428 -0.48189 2.59504 -2.04157 -2.55028 192 192 192 255 0.238412 0.085421
0.057339 0.435428 -0.284128 2.79752 -2.27318 2.10055 192 192 192 255 0.263062 0.085421
-0.057339 0.435428 -0.284128 -2.5951 -2.0415 2.55028 192 192 192 255 0.238412 0.085421
-0.026023 0.394026 -0.419068 -2.5951 -2.04149 -2.55028 192 192 192 255 0.20531 0.085421
0.02602 0.394026 -0.419068 2.79752 -2.27325 -2.10056 192 192 192 255 0.20531 0.085421
0.02602 0.394026 -0.346951 2.59504 -2.04157 2.55028 192 192 192 255 0.22996 0.085421
-0.026023 0.394026 -0.346951 -2.79755 -2.27322 2.10055 192 192 192 255 0.20531 0.085421
-0.026023 0.146204 -0.419068 -2.91494 1.72901 -2.49776 192 192 192 255 0.238412 0.085421
0.02602 0.146204 -0.419068 2.82984 1.46998 -2.74888 192 192 192 255 0.238412 0.085421
0.02602 0.146204 -0.346951 2.91492 1.72908 2.49773 192 192 192 255 0.263062 0.085421
-0.026023 0.146204 -0.346951 -2.82988 1.46991 2.74887 192 192 192 255 0.238412 0.085421
-0.041204 0.111789 -0.449523 -2.82988 1.4699 -2.74888 192 192 192 255 0.267992 0.085421
0.041203 0.111789 -0.449523 2.91492 1.72905 -2.49776 192 192 192 255 0.267992 0.085421
0.041203 0.111789 -0.316495 2.82984 1.47 2.74887 192 192 192 255 0.292643 0.085421
-0.041204 0.111789 -0.316495 -2.91494 1.72903 2.49773 192 192 192 255 0.267992 0.085421
-0.041204 0.04641 -0.449523 -2.92474 -1.65392 -2.54228 192 192 192 255 0.238412 0.085421
0.041203 0.04641 -0.449523 2.84951 -1.3978 -2.77114 192 192 192 255 0.238412 0.085421
0.041203 0.04641 -0.316495 2.92475 -1.65393 2.54226 192 192 192 255 0.263062 0.085421
-0.041204 0.04641 -0.316495 -2.84948 -1.39787 2.77113 192 192 192 255 0.238412 0.085421
-0.029236 0.017331 -0.425515 -1.84948 -3.39785 -0.771141 192 192 192 255 0.20531 0.085421
0.029236 0.017331 -0.425515 0.924753 -2.6539 -1.54228 192 192 192 255 0.20531 0.085421
0.029236 0.017331 -0.340504 1.84951 -3.39781 0.771128 192 192 192 255 0.20531 0.085421
-0.029236 0.017331 -0.340504 -0.924742 -2.65395 1.54226 192 192 192 255 0.20531 0.085421
-0.010843 0.565247 0.702239 0 0 5 192 192 192 255 0.17405 0.085421
0.010841 0.565247 0.702239 0 0 4 192 192 192 255 0.17405 0.085421
0.010841 0.58847 0.702239 0 0 5 192 192 192 255 0.17405 0.085421
-0.010843 0.58847 0.702239 0 0 4 192 192 192 255 0.17405 0.085421
-0.060087 0.512507 0.170949 -3 -3 0 192 192 192 255 0.203158 0.061503
-0.060087 0.641211 0.170949 -3 3 0 192 192 192 255 0.203158 0.061503
0.060087 0.641211 0.170949 4 3 0 192 192 192 255 0.237284 0.061503
0.060087 0.512507 0.170949 2 -3 0 192 192 192 255 0.203158 0.061503
0.060087 0.641211 0.017264 3 3 0 192 192 192 255 0.237284 0.061503
-0.060087 0.641211 0.017264 -3 3 0 192 192 192 255 0.203158 0.061503
-0.060087 0.512507 0.017264 -3 -3 0 192 192 192 255 0.203158 0.061503
0.060087 0.512507 0.017264 3 -3 0 192 192 192 255 0.203158 0.061503
-0.060087 0.641211 0.170949 -3 3 0 192 192 192 255 0.237284 0.061503
-0.060087 0.641211 0.017264 -3 3 0 192 192 192 255 0.237284 0.061503
0.060087 0.641211 0.170949 4 3 0 192 192 192 255 0.203158 0.061503
0.060087 0.641211 0.017264 3 3 0 192 192 192 255 0.203158 0.061503
-0.060087 0.512507 0.017264 -3 -3 0 192 192 192 255 0.145406 0.061503
0.060087 0.512507 0.017264 3 -3 0 192 192 192 255 0.145406 0.061503
0.060087 0.512507 0.170949 2 -3 0 192 192 192 255 0.145406 0.061503
-0.060087 0.512507 0.170949 -3 -3 0 192 192 192 255 0.145406 0.061503
0.046995 0.627192 -0.702239 0.994163 1.98663 -1.33876 192 192 192 255 0.263528 0.061503
-0.046998 0.627192 -0.702239 -0.994165 0.993315 -2.2233 192 192 192 255 0.263528 0.061503
-0.046998 0.526525 -0.702239 -1.98833 -1.98663 -1.44659 192 192 192 255 0.229402 0.061503
-0.060087 0.641211 -0.581604 -1.98833 1.98663 -3.4466 192 192 192 255 0.229402 0.061503
-0.046998 0.627192 -0.702239 -0.994165 0.993315 -2.2233 192 192 192 255 0.229402 0.061503
-0.046998 0.526525 -0.702239 -1.98833 -1.98663 -1.44659 192 192 192 255 0.17165 0.061503
0.046995 0.526525 -0.702239 1.98833 -0.993316 -2.33121 192 192 192 255 0.17165 0.061503
-0.060087 0.512507 -0.581604 -0.994165 -0.993316 -3.22329 192 192 192 255 0.17165 0.061503
0.060087 0.641211 -0.581604 1.98833 0.993315 -3.33122 192 192 192 255 0.229402 0.061503
0.060087 0.512507 -0.581604 0.994163 -1.98663 -3.33874 192 192 192 255 0.229402 0.061503
0.046995 0.526525 -0.702239 1.98833 -0.993316 -2.33121 192 192 192 255 0.229402 0.061503
0.046995 0.627192 -0.702239 0.994163 1.98663 -1.33876 192 192 192 255 0.229402 0.061503
0.084595 0.665719 -0.152131 3 1 3 192 192 192 255 0.17529 0.331629
-0.084596 0.665719 -0.152131 -3 2 3 192 192 192 255 0.17529 0.331629
0.060087 0.641211 -0.581604 1.98833 0.993315 -3.33122 192 192 192 255 0.17529 0.331629
-0.060087 0.641211 -0.581604 -1.98833 1.98663 -3.4466 192 192 192 255 0.17529 0.331629
-0.084596 0.665719 -0.581604 -3 1 -3 192 192 192 255 0.17529 0.331629
0.084595 0.665719 -0.581604 3 2 -3 192 192 192 255 0.17529 0.331629
-0.060087 0.512507 -0.581604 -0.994165 -0.993316 -3.22329 192 192 192 255 0.17529 0.331629
0.060087 0.512507 -0.581604 0.994163 -1.98663 -3.33874 192 192 192 255 0.17529 0.331629
-0.029537 0.545227 0.225799 -1 -2 3 192 192 192 255 0.17165 0.061503
0.029535 0.545227 0.225799 2 -1 3 192 192 192 255 0.17165 0.061503
0.029535 0.545227 0.225799 2 -1 3 192 192 192 255 0.229402 0.061503
0.029535 0.608491 0.225799 1 2 3 192 192 192 255 0.229402 0.061503
0.029535 0.545227 0.345846 1 -2 3 192 192 192 255 0.229402 0.061503
0.029535 0.608491 0.225799 1 2 3 192 192 192 255 0.263528 0.061503
-0.029537 0.608491 0.225799 -2 1 3 192 192 192 255 0.263528 0.061503
0.029535 0.608491 0.345846 2 1 3 192 192 192 255 0.263528 0.061503
-0.029537 0.608491 0.225799 -2 1 3 192 192 192 255 0.229402 0.061503
-0.029537 0.545227 0.225799 -1 -2 3 192 192 192 255 0.229402 0.061503
-0.029537 0.545227 0.345846 -2 -1 3 192 192 192 255 0.229402 0.061503
-0.029537 0.608491 0.345846 -1 2 3 192 192 192 255 0.229402 0.061503
-0.029537 0.545227 0.345846 -2 -1 3 192 192 192 255 0.204752 0.061503
0.029535 0.545227 0.345846 1 -2 3 192 192 192 255 0.204752 0.061503
0.029535 0.608491 0.345846 2 1 3 192 192 192 255 0.204752 0.061503
-0.029537 0.608491 0.345846 -1 2 3 192 192 192 255 0.204752 0.061503
0.01132 0.564735 0.628185 2.95738 -2.97569 -0.62984 192 192 192 255 0.236818 0.085421
0.016909 0.558751 0.654824 2.97869 -2.95137 -0.643677 192 192 192 255 0.236818 0.085421
0.01132 0.588983 0.628185 2.97869 2.95139 -0.643606 192 192 192 255 0.270944 0.085421
0.016909 0.594966 0.654824 2.95738 2.97569 -0.629805 192 192 192 255 0.270944 0.085421
-0.011322 0.588983 0.628185 -2.95741 2.97569 -0.629664 192 192 192 255 0.236818 0.085421
-0.011322 0.564735 0.628185 -2.97871 -2.95137 -0.643607 192 192 192 255 0.236818 0.085421
-0.016909 0.558751 0.654824 -2.95741 -2.97569 -0.629699 192 192 192 255 0.236818 0.085421
-0.016909 0.594966 0.654824 -2.97871 2.95139 -0.643536 192 192 192 255 0.236818 0.085421
0.01132 0.588983 0.345846 1 2 3 192 192 192 255 0.297188 0.085421
-0.011322 0.588983 0.345846 -2 1 3 192 192 192 255 0.297188 0.085421
-0.011322 0.588983 0.628185 -2.95741 2.97569 -0.629664 192 192 192 255 0.297188 0.085421
0.01132 0.588983 0.628185 2.97869 2.95139 -0.643606 192 192 192 255 0.297188 0.085421
-0.011322 0.588983 0.345846 -2 1 3 192 192 192 255 0.263062 0.085421
-0.011322 0.564735 0.345846 -1 -2 3 192 192 192 255 0.263062 0.085421
-0.011322 0.564735 0.628185 -2.97871 -2.95137 -0.643607 192 192 192 255 0.263062 0.085421
-0.011322 0.588983 0.628185 -2.95741 2.97569 -0.629664 192 192 192 255 0.263062 0.085421
-0.011322 0.564735 0.345846 -1 -2 3 192 192 192 255 0.20531 0.085421
0.01132 0.564735 0.345846 2 -1 3 192 192 192 255 0.20531 0.085421
0.01132 0.564735 0.628185 2.95738 -2.97569 -0.62984 192 192 192 255 0.20531 0.085421
-0.011322 0.564735 0.628185 -2.97871 -2.95137 -0.643607 192 192 192 255 0.20531 0.085421
0.01132 0.564735 0.345846 2 -1 3 192 192 192 255 0.263062 0.085421
0.01132 0.588983 0.345846 1 2 3 192 192 192 255 0.263062 0.085421
0.01132 0.588983 0.628185 2.97869 2.95139 -0.643606 192 192 192 255 0.263062 0.085421
0.01132 0.564735 0.628185 2.95738 -2.97569 -0.62984 192 192 192 255 0.263062 0.085421
-0.016909 0.594966 0.654824 -2.97871 2.95139 -0.643536 192 192 192 255 0.263062 0.085421
-0.016909 0.558751 0.654824 -2.95741 -2.97569 -0.629699 192 192 192 255 0.263062 0.085421
0.016909 0.594966 0.654824 2.95738 2.97569 -0.629805 192 192 192 255 0.297188 0.085421
-0.016909 0.594966 0.654824 -2.97871 2.95139 -0.643536 192 192 192 255 0.297188 0.085421
-0.016909 0.594966 0.702239 -1 2 3 192 192 192 255 0.297188 0.085421
0.016909 0.558751 0.654824 2.97869 -2.95137 -0.643677 192 192 192 255 0.263062 0.085421
0.016909 0.594966 0.654824 2.95738 2.97569 -0.629805 192 192 192 255 0.263062 0.085421
0.016909 0.594966 0.702239 2 1 3 192 192 192 255 0.263062 0.085421
-0.016909 0.558751 0.654824 -2.95741 -2.97569 -0.629699 192 192 192 255 0.20531 0.085421
0.016909 0.558751 0.654824 2.97869 -2.95137 -0.643677 192 192 192 255 0.20531 0.085421
0.016909 0.558751 0.702239 1 -2 3 192 192 192 255 0.20531 0.085421
-0.016909 0.558751 0.702239 -2 -1 3 192 192 192 255 0.20531 0.085421
0.084595 0.665719 -0.152131 3 1 3 192 192 192 255 0.19994 0.331629
0.084595 0.487998 -0.152131 3 -3 3 192 192 192 255 0.19994 0.331629
0.084595 0.487998 -0.581604 3 -3 -3 192 192 192 255 0.19994 0.331629
0.084595 0.665719 -0.581604 3 2 -3 192 192 192 255 0.19994 0.331629
-0.084596 0.665719 -0.581604 -3 1 -3 192 192 192 255 0.19994 0.331629
-0.084596 0.487998 -0.581604 -3 -3 -3 192 192 192 255 0.19994 0.331629
-0.084596 0.487998 -0.152131 -3 -3 3 192 192 192 255 0.19994 0.331629
-0.084596 0.665719 -0.152131 -3 2 3 192 192 192 255 0.19994 0.331629
0.084595 0.614979 -0.383496 3 1 2 192 192 192 255 0.238412 0.085421
0.084595 0.538738 -0.383496 3 -2 1 192 192 192 255 0.238412 0.085421
0.116144 0.538738 -0.383496 1 -1 2 192 192 192 255 0.238412 0.085421
0.116144 0.614979 -0.383496 2 2 1 192 192 192 255 0.238412 0.085421
0.084595 0.538738 -0.383496 3 -2 1 192 192 192 255 0.20531 0.085421
0.084595 0.538738 -0.507284 3 -1 -2 192 192 192 255 0.20531 0.085421
0.116144 0.538738 -0.507284 2 -2 -1 192 192 192 255 0.20531 0.085421
0.116144 0.538738 -0.383496 1 -1 2 192 192 192 255 0.20531 0.085421
0.084595 0.538738 -0.507284 3 -1 -2 192 192 192 255 0.238412 0.085421
0.084595 0.614979 -0.507284 3 2 -1 192 192 192 255 0.238412 0.085421
0.116144 0.614979 -0.507284 1 1 -2 192 192 192 255 0.238412 0.085421
0.116144 0.538738 -0.507284 2 -2 -1 192 192 192 255 0.238412 0.085421
0.084595 0.614979 -0.507284 3 2 -1 192 192 192 255 0.297188 0.085421
0.084595 0.614979 -0.383496 3 1 2 192 192 192 255 0.297188 0.085421
0.116144 0.614979 -0.383496 2 2 1 192 192 192 255 0.297188 0.085421
0.116144 0.614979 -0.507284 1 1 -2 192 192 192 255 0.297188 0.085421
-0.084596 0.614979 -0.507284 -3 1 -2 192 192 192 255 0.238412 0.085421
-0.084596 0.538738 -0.507284 -3 -2 -1 192 192 192 255 0.238412 0.085421
-0.116144 0.538738 -0.507284 -1 -1 -2 192 192 192 255 0.238412 0.085421
-0.116144 0.614979 -0.507284 -2 2 -1 192 192 192 255 0.238412 0.085421
-0.084596 0.538738 -0.507284 -3 -2 -1 192 192 192 255 0.20531 0.085421
-0.084596 0.538738 -0.383496 -3 -1 2 192 192 192 255 0.20531 0.085421
-0.116144 0.538738 -0.383496 -2 -2 1 192 192 192 255 0.20531 0.085421
-0.116144 0.538738 -0.507284 -1 -1 -2 192 192 192 255 0.20531 0.085421
-0.084596 0.538738 -0.383496 -3 -1 2 192 192 192 255 0.238412 0.085421
-0.084596 0.614979 -0.383496 -3 2 1 192 192 192 255 0.238412 0.085421
-0.116144 0.614979 -0.383496 -1 1 2 192 192 192 255 0.238412 0.085421
-0.116144 0.538738 -0.383496 -2 -2 1 192 192 192 255 0.238412 0.085421
-0.084596 0.614979 -0.383496 -3 2 1 192 192 192 255 0.297188 0.085421
-0.084596 0.614979 -0.507284 -3 1 -2 192 192 192 255 0.297188 0.085421
-0.116144 0.614979 -0.507284 -2 2 -1 192 192 192 255 0.297188 0.085421
-0.116144 0.614979 -0.383496 -1 1 2 192 192 192 255 0.297188 0.085421
-0.084596 0.487998 -0.581604 -3 -3 -3 192 192 192 255 0.142188 0.331629
0.084595 0.487998 -0.581604 3 -3 -3 192 192 192 255 0.142188 0.331629
0.084595 0.487998 -0.152131 3 -3 3 192 192 192 255 0.142188 0.331629
-0.084596 0.487998 -0.152131 -3 -3 3 192 192 192 255 0.142188 0.331629
-0.057339 0.487998 -0.481891 -1 -3.00004 -2 192 192 192 255 0.238412 0.085421
0.057337 0.487998 -0.481891 2 -2.99994 -1 192 192 192 255 0.238412 0.085421
0.057337 0.487998 -0.481891 2 -2.99994 -1 192 192 192 255 0.263062 0.085421
0.057337 0.487998 -0.284128 1 -2.99996 2 192 192 192 255 0.263062 0.085421
0.057339 0.435428 -0.48189 2.59504 -2.04157 -2.55028 192 192 192 255 0.263062 0.085421
0.057337 0.487998 -0.284128 1 -2.99996 2 192 192 192 255 0.238412 0.085421
-0.057339 0.487998 -0.284128 -2 -3 1 192 192 192 255 0.238412 0.085421
0.057339 0.435428 -0.284128 2.79752 -2.27318 2.10055 192 192 192 255 0.238412 0.085421
-0.057339 0.487998 -0.284128 -2 -3 1 192 192 192 255 0.263062 0.085421
-0.057339 0.487998 -0.481891 -1 -3.00004 -2 192 192 192 255 0.263062 0.085421
-0.057339 0.435428 -0.48189 -2.79755 -2.27323 -2.10056 192 192 192 255 0.263062 0.085421
-0.057339 0.435428 -0.284128 -2.5951 -2.0415 2.55028 192 192 192 255 0.263062 0.085421
-0.057339 0.435428 -0.48189 -2.79755 -2.27323 -2.10056 192 192 192 255 0.20531 0.085421
0.057339 0.435428 -0.48189 2.59504 -2.04157 -2.55028 192 192 192 255 0.20531 0.085421
0.057339 0.435428 -0.48189 2.59504 -2.04157 -2.55028 192 192 192 255 0.22996 0.085421
0.057339 0.435428 -0.284128 2.79752 -2.27318 2.10055 192 192 192 255 0.22996 0.085421
0.02602 0.394026 -0.419068 2.79752 -2.27325 -2.10056 192 192 192 255 0.22996 0.085421
0.057339 0.435428 -0.284128 2.79752 -2.27318 2.10055 192 192 192 255 0.20531 0.085421
-0.057339 0.435428 -0.284128 -2.5951 -2.0415 2.55028 192 192 192 255 0.20531 0.085421
0.02602 0.394026 -0.346951 2.59504 -2.04157 2.55028 192 192 192 255 0.20531 0.085421
-0.057339 0.435428 -0.284128 -2.5951 -2.0415 2.55028 192 192 192 255 0.22996 0.085421
-0.057339 0.435428 -0.48189 -2.79755 -2.27323 -2.10056 192 192 192 255 0.22996 0.085421
-0.026023 0.394026 -0.419068 -2.5951 -2.04149 -2.55028 192 192 192 255 0.22996 0.085421
-0.026023 0.394026 -0.346951 -2.79755 -2.27322 2.10055 192 192 192 255 0.22996 0.085421
-0.026023 0.394026 -0.419068 -2.5951 -2.04149 -2.55028 192 192 192 255 0.238412 0.085421
0.02602 0.394026 -0.419068 2.79752 -2.27325 -2.10056 192 192 192 255 0.238412 0.085421
0.02602 0.394026 -0.419068 2.79752 -2.27325 -2.10056 192 192 192 255 0.263062 0.085421
0.02602 0.394026 -0.346951 2.59504 -2.04157 2.55028 192 192 192 255 0.263062 0.085421
0.02602 0.146204 -0.419068 2.82984 1.46998 -2.74888 192 192 192 255 0.263062 0.085421
0.02602 0.394026 -0.346951 2.59504 -2.04157 2.55028 192 192 192 255 0.238412 0.085421
-0.026023 0.394026 -0.346951 -2.79755 -2.27322 2.10055 192 192 192 255 0.238412 0.085421
0.02602 0.146204 -0.346951 2.91492 1.72908 2.49773 192 192 192 255 0.238412 0.085421
-0.026023 0.394026 -0.346951 -2.79755 -2.27322 2.10055 192 192 192 255 0.263062 0.085421
-0.026023 0.394026 -0.419068 -2.5951 -2.04149 -2.55028 192 192 192 255 0.263062 0.085421
-0.026023 0.146204 -0.419068 -2.91494 1.72901 -2.49776 192 192 192 255 0.263062 0.085421
-0.026023 0.146204 -0.346951 -2.82988 1.46991 2.74887 192 192 192 255 0.263062 0.085421
-0.026023 0.146204 -0.419068 -2.91494 1.72901 -2.49776 192 192 192 255 0.267992 0.085421
0.02602 0.146204 -0.419068 2.82984 1.46998 -2.74888 192 192 192 255 0.267992 0.085421
0.02602 0.146204 -0.419068 2.82984 1.46998 -2.74888 192 192 192 255 0.292643 0.085421
0.02602 0.146204 -0.346951 2.91492 1.72908 2.49773 192 192 192 255 0.292643 0.085421
0.041203 0.111789 -0.449523 2.91492 1.72905 -2.49776 192 192 192 255 0.292643 0.085421
0.02602 0.146204 -0.346951 2.91492 1.72908 2.49773 192 192 192 255 0.267992 0.085421
-0.026023 0.146204 -0.346951 -2.82988 1.46991 2.74887 192 192 192 255 0.267992 0.085421
0.041203 0.111789 -0.316495 2.82984 1.47 2.74887 192 192 192 255 0.267992 0.085421
-0.026023 0.146204 -0.346951 -2.82988 1.46991 2.74887 192 192 192 255 0.292643 0.085421
-0.026023 0.146204 -0.419068 -2.91494 1.72901 -2.49776 192 192 192 255 0.292643 0.085421
-0.041204 0.111789 -0.449523 -2.82988 1.4699 -2.74888 192 192 192 255 0.292643 0.085421
-0.041204 0.111789 -0.316495 -2.91494 1.72903 2.49773 192 192 192 255 0.292643 0.085421
-0.041204 0.111789 -0.449523 -2.82988 1.4699 -2.74888 192 192 192 255 0.238412 0.085421
0.041203 0.111789 -0.449523 2.91492 1.72905 -2.49776 192 192 192 255 0.238412 0.085421
0.041203 0.111789 -0.449523 2.91492 1.72905 -2.49776 192 192 192 255 0.263062 0.085421
0.041203 0.111789 -0.316495 2.82984 1.47 2.74887 192 192 192 255 0.263062 0.085421
0.041203 0.04641 -0.449523 2.84951 -1.3978 -2.77114 192 192 192 255 0.263062 0.085421
0.041203 0.111789 -0.316495 2.82984 1.47 2.74887 192 192 192 255 0.238412 0.085421
-0.041204 0.111789 -0.316495 -2.91494 1.72903 2.49773 192 192 192 255 0.238412 0.085421
0.041203 0.04641 -0.316495 2.92475 -1.65393 2.54226 192 192 192 255 0.238412 0.085421
-0.041204 0.111789 -0.316495 -2.91494 1.72903 2.49773 192 192 192 255 0.263062 0.085421
-0.041204 0.111789 -0.449523 -2.82988 1.4699 -2.74888 192 192 192 255 0.263062 0.085421
-0.041204 0.04641 -0.449523 -2.92474 -1.65392 -2.54228 192 192 192 255 0.263062 0.085421
-0.041204 0.04641 -0.316495 -2.84948 -1.39787 2.77113 192 192 192 255 0.263062 0.085421
-0.041204 0.04641 -0.449523 -2.92474 -1.65392 -2.54228 192 192 192 255 0.20531 0.085421
0.041203 0.04641 -0.449523 2.84951 -1.3978 -2.77114 192 192 192 255 0.20531 0.085421
0.041203 0.04641 -0.449523 2.84951 -1.3978 -2.77114 192 192 192 255 0.22996 0.085421
0.041203 0.04641 -0.316495 2.92475 -1.65393 2.54226 192 192 192 255 0.22996 0.085421
0.029236 0.017331 -0.340504 1.84951 -3.39781 0.771128 192 192 192 255 0.22996 0.085421
0.029236 0.017331 -0.425515 0.924753 -2.6539 -1.54228 192 192 192 255 0.22996 0.085421
0.041203 0.04641 -0.316495 2.92475 -1.65393 2.54226 192 192 192 255 0.20531 0.085421
-0.041204 0.04641 -0.316495 -2.84948 -1.39787 2.77113 192 192 192 255 0.20531 0.085421
-0.041204 0.04641 -0.316495 -2.84948 -1.39787 2.77113 192 192 192 255 0.22996 0.085421
-0.041204 0.04641 -0.449523 -2.92474 -1.65392 -2.54228 192 192 192 255 0.22996 0.085421
-0.029236 0.017331 -0.425515 -1.84948 -3.39785 -0.771141 192 192 192 255 0.22996 0.085421
-0.029236 0.017331 -0.340504 -0.924742 -2.65395 1.54226 192 192 192 255 0.22996 0.085421
-0.016909 0.558751 0.702239 -2 -1 3 192 192 192 255 0.238412 0.085421
0.016909 0.558751 0.702239 1 -2 3 192 192 192 255 0.238412 0.085421
0.010841 0.565247 0.702239 0 0 4 192 192 192 255 0.238412 0.085421
-0.010843 0.565247 0.702239 0 0 5 192 192 192 255 0.238412 0.085421
0.016909 0.594966 0.702239 2 1 3 192 192 192 255 0.238412 0.085421
0.010841 0.58847 0.702239 0 0 5 192 192 192 255 0.238412 0.085421
-0.016909 0.594966 0.702239 -1 2 3 192 192 192 255 0.238412 0.085421
-0.010843 0.58847 0.702239 0 0 4 192 192 192 255 0.238412 0.085421
-0.060087 0.641211 0.170949 -3 3 0 192 192 192 255 0.229402 0.061503
-0.060087 0.512507 0.170949 -3 -3 0 192 192 192 255 0.229402 0.061503
-0.060087 0.512507 0.225799 -2 -1 3 192 192 192 255 0.229402 0.061503
-0.060087 0.641211 0.225799 -1 2 3 192 192 192 255 0.229402 0.061503
-0.060087 0.641211 0.225799 -1 2 3 192 192 192 255 0.263528 0.061503
0.060087 0.641211 0.225799 1 1 3 192 192 192 255 0.263528 0.061503
0.060087 0.641211 0.170949 4 3 0 192 192 192 255 0.263528 0.061503
-0.060087 0.641211 0.170949 -3 3 0 192 192 192 255 0.263528 0.061503
0.060087 0.512507 0.225799 2 -2 3 192 192 192 255 0.229402 0.061503
0.060087 0.512507 0.170949 2 -3 0 192 192 192 255 0.229402 0.061503
0.060087 0.641211 0.170949 4 3 0 192 192 192 255 0.229402 0.061503
0.060087 0.641211 0.225799 1 1 3 192 192 192 255 0.229402 0.061503
-0.060087 0.512507 0.170949 -3 -3 0 192 192 192 255 0.17165 0.061503
0.060087 0.512507 0.170949 2 -3 0 192 192 192 255 0.17165 0.061503
0.060087 0.512507 0.225799 2 -2 3 192 192 192 255 0.17165 0.061503
-0.060087 0.512507 0.225799 -2 -1 3 192 192 192 255 0.17165 0.061503
-0.060087 0.641211 0.017264 -3 3 0 192 192 192 255 0.263528 0.061503
0.060087 0.641211 0.017264 3 3 0 192 192 192 255 0.263528 0.061503
0.060087 0.641211 -0.152131 1 2 3 192 192 192 255 0.263528 0.061503
-0.060087 0.641211 -0.152131 -2 1 3 192 192 192 255 0.263528 0.061503
-0.060087 0.641211 -0.152131 -2 1 3 192 192 192 255 0.229402 0.061503
-0.060087 0.512507 -0.152131 -1 -2 3 192 192 192 255 0.229402 0.061503
-0.060087 0.512507 0.017264 -3 -3 0 192 192 192 255 0.229402 0.061503
-0.060087 0.641211 0.017264 -3 3 0 192 192 192 255 0.229402 0.061503
-0.060087 0.512507 -0.152131 -1 -2 3 192 192 192 255 0.17165 0.061503
0.060087 0.512507 -0.152131 2 -1 3 192 192 192 255 0.17165 0.061503
0.060087 0.512507 0.017264 3 -3 0 192 192 192 255 0.17165 0.061503
-0.060087 0.512507 0.017264 -3 -3 0 192 192 192 255 0.17165 0.061503
0.060087 0.641211 0.017264 3 3 0 192 192 192 255 0.229402 0.061503
0.060087 0.512507 0.017264 3 -3 0 192 192 192 255 0.229402 0.061503
0.060087 0.512507 -0.152131 2 -1 3 192 192 192 255 0.229402 0.061503
0.060087 0.641211 -0.152131 1 2 3 192 192 192 255 0.229402 0.061503
3 92 93 94 
3 92 94 95 
3 16 17 18 
3 16 18 19 
3 4 5 7 
3 4 7 6 
3 88 89 90 
3 88 90 91 
3 56 57 58 
3 56 58 59 
3 60 61 62 
3 60 62 63 
3 101 102 96 
3 101 96 97 
3 104 98 100 
3 104 100 105 
3 106 99 103 
3 106 103 107 
3 108 109 110 
3 108 110 111 
3 13 12 112 
3 13 112 113 
3 114 14 115 
3 114 115 116 
3 117 118 15 
3 117 15 119 
3 120 121 122 
3 120 122 123 
3 9 10 124 
3 9 124 125 
3 126 127 128 
3 126 128 129 
3 130 131 21 
3 130 21 20 
3 11 8 23 
3 11 23 22 
3 10 11 22 
3 10 22 124 
3 131 126 129 
3 131 129 21 
3 127 130 20 
3 127 20 128 
3 8 9 125 
3 8 125 23 
3 0 1 25 
3 0 25 24 
3 1 3 26 
3 1 26 25 
3 3 2 27 
3 3 27 26 
3 2 0 24 
3 2 24 27 
3 132 133 29 
3 132 29 28 
3 134 135 30 
3 134 30 136 
3 137 138 31 
3 137 31 139 
3 140 141 142 
3 140 142 143 
3 144 145 33 
3 144 33 32 
3 145 146 34 
3 145 34 33 
3 146 147 35 
3 146 35 34 
3 147 144 32 
3 147 32 35 
3 42 43 47 
3 42 47 44 
3 148 40 46 
3 148 46 149 
3 150 41 45 
3 150 45 151 
3 152 153 154 
3 152 154 155 
3 156 157 158 
3 156 158 159 
3 160 161 162 
3 160 162 163 
3 164 165 166 
3 164 166 167 
3 168 169 170 
3 168 170 171 
3 172 173 36 
3 172 36 39 
3 174 175 176 
3 174 176 38 
3 177 178 179 
3 177 179 37 
3 180 181 182 
3 180 182 183 
3 184 185 49 
3 184 49 48 
3 185 186 50 
3 185 50 49 
3 186 187 51 
3 186 51 50 
3 187 184 48 
3 187 48 51 
3 188 189 53 
3 188 53 52 
3 189 190 54 
3 189 54 53 
3 190 191 55 
3 190 55 54 
3 191 188 52 
3 191 52 55 
3 192 193 194 
3 192 194 195 
3 196 197 198 
3 196 198 199 
3 200 201 202 
3 200 202 203 
3 204 205 206 
3 204 206 207 
3 208 209 210 
3 208 210 211 
3 212 213 214 
3 212 214 215 
3 216 217 218 
3 216 218 219 
3 220 221 222 
3 220 222 223 
3 224 225 65 
3 224 65 64 
3 225 226 66 
3 225 66 65 
3 226 227 67 
3 226 67 66 
3 227 224 64 
3 227 64 67 
3 228 229 69 
3 228 69 68 
3 230 231 70 
3 230 70 232 
3 233 234 71 
3 233 71 235 
3 236 237 238 
3 236 238 239 
3 240 241 73 
3 240 73 72 
3 242 243 74 
3 242 74 244 
3 245 246 75 
3 245 75 247 
3 248 249 250 
3 248 250 251 
3 252 253 77 
3 252 77 76 
3 254 255 78 
3 254 78 256 
3 257 258 79 
3 257 79 259 
3 260 261 262 
3 260 262 263 
3 264 265 81 
3 264 81 80 
3 266 267 82 
3 266 82 268 
3 269 270 83 
3 269 83 271 
3 272 273 274 
3 272 274 275 
3 276 277 85 
3 276 85 84 
3 278 279 86 
3 278 86 280 
3 281 282 87 
3 281 87 283 
3 284 285 286 
3 284 286 287 
3 288 289 89 
3 288 89 88 
3 290 291 292 
3 290 292 293 
3 294 295 91 
3 294 91 90 
3 296 297 298 
3 296 298 299 
3 300 301 302 
3 300 302 303 
3 301 304 305 
3 301 305 302 
3 304 306 307 
3 304 307 305 
3 306 300 303 
3 306 303 307 
3 308 309 310 
3 308 310 311 
3 312 313 314 
3 312 314 315 
3 316 317 318 
3 316 318 319 
3 320 321 322 
3 320 322 323 
3 324 325 326 
3 324 326 327 
3 328 329 330 
3 328 330 331 
3 332 333 334 
3 332 334 335 
3 336 337 338 
3 336 338 339 
