ply
format ascii 1.0
comment VCGLIB generated
comment TextureFile WorldMap.png
element vertex 128
property float x
property float y
property float z
property float nx
property float ny
property float nz
property uchar red
property uchar green
property uchar blue
property uchar alpha
property float texture_u
property float texture_v
element face 72
property list uchar int vertex_indices
end_header
-0.562136 0.019106 -0.350224 -2 -1 -1 192 192 192 255 0.390957 0.479127
-0.562136 0.019106 0.350224 -1 -2 2 192 192 192 255 0.390956 0.479127
-0.562136 0.057252 -0.350224 -1 2 -2 192 192 192 255 0.390957 0.479127
-0.562136 0.057252 0.350224 -2 1 1 192 192 192 255 0.390956 0.479127
-0.017977 0.057252 -0.350224 2 1 -1 192 192 192 255 0.419222 0.478383
-0.017977 0.057252 0.350224 1 2 2 192 192 192 255 0.419222 0.478383
-0.017977 0.019106 -0.350224 1 -2 -2 192 192 192 255 0.390957 0.479127
-0.017977 0.019106 0.350224 2 -1 1 192 192 192 255 0.390956 0.479127
0.017977 0.019106 -0.350224 -2 -1 -1 192 192 192 255 0.390957 0.479127
0.017977 0.019106 0.350224 -1 -2 2 192 192 192 255 0.390956 0.479127
0.017977 0.1037 -0.350224 -1 2 -2 192 192 192 255 0.390957 0.479127
0.017977 0.1037 0.350224 -2 1 1 192 192 192 255 0.390956 0.479127
0.562136 0.1037 -0.350224 2 1 -1 192 192 192 255 0.419222 0.478383
0.562136 0.1037 0.350224 1 2 2 192 192 192 255 0.419222 0.478383
0.562136 0.019106 -0.350224 1 -2 -2 192 192 192 255 0.390957 0.479127
0.562136 0.019106 0.350224 2 -1 1 192 192 192 255 0.390956 0.479127
-0.07583 0 -0.309177 -2 -1 -1 192 192 192 255 0.262519 0.082976
-0.07583 0 -0.259708 -1 -2 2 192 192 192 255 0.262518 0.082976
-0.07583 0.143614 -0.309177 -1 2 -2 192 192 192 255 0.262519 0.082976
-0.07583 0.143614 -0.259708 -2 1 1 192 192 192 255 0.262518 0.082976
0.070608 0.143614 -0.309177 2 1 -1 192 192 192 255 0.293536 0.086207
0.070608 0.143614 -0.259708 1 2 2 192 192 192 255 0.293536 0.086207
0.070608 0 -0.309177 1 -2 -2 192 192 192 255 0.262519 0.082976
0.070608 0 -0.259708 2 -1 1 192 192 192 255 0.262518 0.082976
-0.07583 0 0.267406 -2 -1 -1 192 192 192 255 0.262519 0.082976
-0.07583 0 0.316875 -1 -2 2 192 192 192 255 0.262518 0.082976
-0.07583 0.143614 0.267406 -1 2 -2 192 192 192 255 0.262519 0.082976
-0.07583 0.143614 0.316875 -2 1 1 192 192 192 255 0.262518 0.082976
0.070608 0.143614 0.267406 2 1 -1 192 192 192 255 0.293536 0.086207
0.070608 0.143614 0.316875 1 2 2 192 192 192 255 0.293536 0.086207
0.070608 0 0.267406 1 -2 -2 192 192 192 255 0.262519 0.082976
0.070608 0 0.316875 2 -1 1 192 192 192 255 0.262518 0.082976
-0.07583 0 0.113255 -2 -1 -1 192 192 192 255 0.262519 0.082976
-0.07583 0 0.162724 -1 -2 2 192 192 192 255 0.262518 0.082976
-0.07583 0.143614 0.113255 -1 2 -2 192 192 192 255 0.262519 0.082976
-0.07583 0.143614 0.162724 -2 1 1 192 192 192 255 0.262518 0.082976
0.070608 0.143614 0.113255 2 1 -1 192 192 192 255 0.293536 0.086207
0.070608 0.143614 0.162724 1 2 2 192 192 192 255 0.293536 0.086207
0.070608 0 0.113255 1 -2 -2 192 192 192 255 0.262519 0.082976
0.070608 0 0.162724 2 -1 1 192 192 192 255 0.262518 0.082976
-0.07583 0 -0.126587 -2 -1 -1 192 192 192 255 0.262519 0.082976
-0.07583 0 -0.077118 -1 -2 2 192 192 192 255 0.262518 0.082976
-0.07583 0.143614 -0.126587 -1 2 -2 192 192 192 255 0.262519 0.082976
-0.07583 0.143614 -0.077118 -2 1 1 192 192 192 255 0.262518 0.082976
0.070608 0.143614 -0.126587 2 1 -1 192 192 192 255 0.293536 0.086207
0.070608 0.143614 -0.077118 1 2 2 192 192 192 255 0.293536 0.086207
0.070608 0 -0.126587 1 -2 -2 192 192 192 255 0.262519 0.082976
0.070608 0 -0.077118 2 -1 1 192 192 192 255 0.262518 0.082976
-0.562136 0.057252 -0.350224 -1 2 -2 192 192 192 255 0.419222 0.478383
-0.562136 0.057252 0.350224 -2 1 1 192 192 192 255 0.419222 0.478383
-0.017977 0.057252 -0.350224 2 1 -1 192 192 192 255 0.390957 0.479127
-0.017977 0.057252 0.350224 1 2 2 192 192 192 255 0.390956 0.479127
-0.017977 0.019106 -0.350224 1 -2 -2 192 192 192 255 0.299467 0.480614
-0.017977 0.019106 0.350224 2 -1 1 192 192 192 255 0.299467 0.480614
-0.562136 0.019106 0.350224 -1 -2 2 192 192 192 255 0.299467 0.480614
-0.562136 0.019106 -0.350224 -2 -1 -1 192 192 192 255 0.299467 0.480614
-0.562136 0.019106 0.350224 -1 -2 2 192 192 192 255 0.358228 0.479871
-0.017977 0.019106 0.350224 2 -1 1 192 192 192 255 0.358228 0.479871
-0.017977 0.057252 0.350224 1 2 2 192 192 192 255 0.358228 0.479871
-0.562136 0.057252 0.350224 -2 1 1 192 192 192 255 0.358228 0.479871
-0.017977 0.019106 -0.350224 1 -2 -2 192 192 192 255 0.358228 0.479871
-0.562136 0.019106 -0.350224 -2 -1 -1 192 192 192 255 0.358228 0.479871
-0.562136 0.057252 -0.350224 -1 2 -2 192 192 192 255 0.358228 0.479871
-0.017977 0.057252 -0.350224 2 1 -1 192 192 192 255 0.358228 0.479871
0.017977 0.1037 -0.350224 -1 2 -2 192 192 192 255 0.419222 0.478383
0.017977 0.1037 0.350224 -2 1 1 192 192 192 255 0.419222 0.478383
0.562136 0.1037 -0.350224 2 1 -1 192 192 192 255 0.390957 0.479127
0.562136 0.1037 0.350224 1 2 2 192 192 192 255 0.390956 0.479127
0.562136 0.019106 -0.350224 1 -2 -2 192 192 192 255 0.299467 0.480614
0.562136 0.019106 0.350224 2 -1 1 192 192 192 255 0.299467 0.480614
0.017977 0.019106 0.350224 -1 -2 2 192 192 192 255 0.299467 0.480614
0.017977 0.019106 -0.350224 -2 -1 -1 192 192 192 255 0.299467 0.480614
0.017977 0.019106 0.350224 -1 -2 2 192 192 192 255 0.358228 0.479871
0.562136 0.019106 0.350224 2 -1 1 192 192 192 255 0.358228 0.479871
0.562136 0.1037 0.350224 1 2 2 192 192 192 255 0.358228 0.479871
0.017977 0.1037 0.350224 -2 1 1 192 192 192 255 0.358228 0.479871
0.562136 0.019106 -0.350224 1 -2 -2 192 192 192 255 0.358228 0.479871
0.017977 0.019106 -0.350224 -2 -1 -1 192 192 192 255 0.358228 0.479871
0.017977 0.1037 -0.350224 -1 2 -2 192 192 192 255 0.358228 0.479871
0.562136 0.1037 -0.350224 2 1 -1 192 192 192 255 0.358228 0.479871
-0.07583 0.143614 -0.309177 -1 2 -2 192 192 192 255 0.293536 0.086207
-0.07583 0.143614 -0.259708 -2 1 1 192 192 192 255 0.293536 0.086207
0.070608 0.143614 -0.309177 2 1 -1 192 192 192 255 0.262519 0.082976
0.070608 0.143614 -0.259708 1 2 2 192 192 192 255 0.262518 0.082976
0.070608 0 -0.309177 1 -2 -2 192 192 192 255 0.233439 0.084269
0.070608 0 -0.259708 2 -1 1 192 192 192 255 0.233439 0.084269
-0.07583 0 -0.259708 -1 -2 2 192 192 192 255 0.233439 0.084269
-0.07583 0 -0.309177 -2 -1 -1 192 192 192 255 0.233439 0.084269
0.070608 0.143614 -0.259708 1 2 2 192 192 192 255 0.233439 0.084269
-0.07583 0.143614 -0.259708 -2 1 1 192 192 192 255 0.233439 0.084269
-0.07583 0.143614 -0.309177 -1 2 -2 192 192 192 255 0.233439 0.084269
0.070608 0.143614 -0.309177 2 1 -1 192 192 192 255 0.233439 0.084269
-0.07583 0.143614 0.267406 -1 2 -2 192 192 192 255 0.293536 0.086207
-0.07583 0.143614 0.316875 -2 1 1 192 192 192 255 0.293536 0.086207
0.070608 0.143614 0.267406 2 1 -1 192 192 192 255 0.262519 0.082976
0.070608 0.143614 0.316875 1 2 2 192 192 192 255 0.262518 0.082976
0.070608 0 0.267406 1 -2 -2 192 192 192 255 0.233439 0.084269
0.070608 0 0.316875 2 -1 1 192 192 192 255 0.233439 0.084269
-0.07583 0 0.316875 -1 -2 2 192 192 192 255 0.233439 0.084269
-0.07583 0 0.267406 -2 -1 -1 192 192 192 255 0.233439 0.084269
0.070608 0.143614 0.316875 1 2 2 192 192 192 255 0.233439 0.084269
-0.07583 0.143614 0.316875 -2 1 1 192 192 192 255 0.233439 0.084269
-0.07583 0.143614 0.267406 -1 2 -2 192 192 192 255 0.233439 0.084269
0.070608 0.143614 0.267406 2 1 -1 192 192 192 255 0.233439 0.084269
-0.07583 0.143614 0.113255 -1 2 -2 192 192 192 255 0.293536 0.086207
-0.07583 0.143614 0.162724 -2 1 1 192 192 192 255 0.293536 0.086207
0.070608 0.143614 0.113255 2 1 -1 192 192 192 255 0.262519 0.082976
0.070608 0.143614 0.162724 1 2 2 192 192 192 255 0.262518 0.082976
0.070608 0 0.113255 1 -2 -2 192 192 192 255 0.233439 0.084269
0.070608 0 0.162724 2 -1 1 192 192 192 255 0.233439 0.084269
-0.07583 0 0.162724 -1 -2 2 192 192 192 255 0.233439 0.084269
-0.07583 0 0.113255 -2 -1 -1 192 192 192 255 0.233439 0.084269
0.070608 0.143614 0.162724 1 2 2 192 192 192 255 0.233439 0.084269
-0.07583 0.143614 0.162724 -2 1 1 192 192 192 255 0.233439 0.084269
-0.07583 0.143614 0.113255 -1 2 -2 192 192 192 255 0.233439 0.084269
0.070608 0.143614 0.113255 2 1 -1 192 192 192 255 0.233439 0.084269
-0.07583 0.143614 -0.126587 -1 2 -2 192 192 192 255 0.293536 0.086207
-0.07583 0.143614 -0.077118 -2 1 1 192 192 192 255 0.293536 0.086207
0.070608 0.143614 -0.126587 2 1 -1 192 192 192 255 0.262519 0.082976
0.070608 0.143614 -0.077118 1 2 2 192 192 192 255 0.262518 0.082976
0.070608 0 -0.126587 1 -2 -2 192 192 192 255 0.233439 0.084269
0.070608 0 -0.077118 2 -1 1 192 192 192 255 0.233439 0.084269
-0.07583 0 -0.077118 -1 -2 2 192 192 192 255 0.233439 0.084269
-0.07583 0 -0.126587 -2 -1 -1 192 192 192 255 0.233439 0.084269
0.070608 0.143614 -0.077118 1 2 2 192 192 192 255 0.233439 0.084269
-0.07583 0.143614 -0.077118 -2 1 1 192 192 192 255 0.233439 0.084269
-0.07583 0.143614 -0.126587 -1 2 -2 192 192 192 255 0.233439 0.084269
0.070608 0.143614 -0.126587 2 1 -1 192 192 192 255 0.233439 0.084269
3 0 1 3 
3 0 3 2 
3 48 49 5 
3 48 5 4 
3 50 51 7 
3 50 7 6 
3 52 53 54 
3 52 54 55 
3 56 57 58 
3 56 58 59 
3 60 61 62 
3 60 62 63 
3 8 9 11 
3 8 11 10 
3 64 65 13 
3 64 13 12 
3 66 67 15 
3 66 15 14 
3 68 69 70 
3 68 70 71 
3 72 73 74 
3 72 74 75 
3 76 77 78 
3 76 78 79 
3 16 17 19 
3 16 19 18 
3 80 81 21 
3 80 21 20 
3 82 83 23 
3 82 23 22 
3 84 85 86 
3 84 86 87 
3 86 85 88 
3 86 88 89 
3 84 87 90 
3 84 90 91 
3 24 25 27 
3 24 27 26 
3 92 93 29 
3 92 29 28 
3 94 95 31 
3 94 31 30 
3 96 97 98 
3 96 98 99 
3 98 97 100 
3 98 100 101 
3 96 99 102 
3 96 102 103 
3 32 33 35 
3 32 35 34 
3 104 105 37 
3 104 37 36 
3 106 107 39 
3 106 39 38 
3 108 109 110 
3 108 110 111 
3 110 109 112 
3 110 112 113 
3 108 111 114 
3 108 114 115 
3 40 41 43 
3 40 43 42 
3 116 117 45 
3 116 45 44 
3 118 119 47 
3 118 47 46 
3 120 121 122 
3 120 122 123 
3 122 121 124 
3 122 124 125 
3 120 123 126 
3 120 126 127 
