ply
format ascii 1.0
comment VCGLIB generated
comment TextureFile WorldMap.png
element vertex 333
property float x
property float y
property float z
property float nx
property float ny
property float nz
property uchar red
property uchar green
property uchar blue
property uchar alpha
property float texture_u
property float texture_v
element face 250
property list uchar int vertex_indices
end_header
0.072143 0.077783 0.355145 -3.00004 3 -1.73205 192 192 192 255 0.393449 0.354802
0.072143 0.077783 0.64818 -3 2 1.73205 192 192 192 255 0.393449 0.354802
0.072143 -0.175992 0.794698 -2 -0.499995 0.863897 192 192 192 255 0.393449 0.354802
0.072143 -0.175991 0.208629 -3 -3 0.00425761 192 192 192 255 0.267837 0.354778
0.112214 0.077783 0.355145 2.99998 1.5 -0.86602 192 192 192 255 0.393449 0.354802
0.112214 0.077783 0.64818 2 2.5 0.866024 192 192 192 255 0.393449 0.354802
0.112214 -0.175992 0.794698 2 -0.999991 1.72779 192 192 192 255 0.393449 0.354802
0.112215 -0.175991 0.208628 3 -2.99999 0.00215761 192 192 192 255 0.267837 0.354778
0.072143 -0.048398 0.424713 -2.99998 -2.03463 1.7116 192 192 192 255 0.267837 0.354778
0.072143 -0.048397 0.578612 -3.00004 -3.03463 -1.71158 192 192 192 255 0.267837 0.354778
0.072143 -0.175696 0.655563 -1.00002 -2.51731 -0.860051 192 192 192 255 0.267837 0.354778
0.072143 -0.175696 0.347764 -1.99999 -1.51731 0.857916 192 192 192 255 0.267837 0.354778
0.112214 -0.048398 0.424713 3.00001 -2.51731 0.855818 192 192 192 255 0.267837 0.354778
0.112214 -0.048397 0.578612 3.99998 -1.51731 -0.85579 192 192 192 255 0.267837 0.354778
0.112214 -0.175696 0.655561 0.999957 -2.03462 -1.71372 192 192 192 255 0.267837 0.354778
0.112214 -0.175696 0.347763 1.00002 -3.03462 1.71584 192 192 192 255 0.267837 0.354778
0.072143 -0.09688 0.254304 -1.00002 2.5 -0.866044 192 192 192 255 0.204923 0.354795
0.112214 -0.09688 0.254302 1.99996 2.00002 -1.73207 192 192 192 255 0.393449 0.354802
0.072143 -0.175992 0.150446 -1 -2 -1.99997 192 192 192 255 0.204923 0.354795
0.072143 -0.096881 0.150446 -2 1 -1.00001 192 192 192 255 0.204923 0.354795
0.112214 -0.096881 0.150446 1 2.00001 -2.00003 192 192 192 255 0.204923 0.354795
0.112214 -0.175992 0.150446 2 -0.999984 -0.999995 192 192 192 255 0.204923 0.354795
0.08604 -0.037915 0.389712 -2.99997 2.5 -0.866024 192 192 192 255 0.202491 0.476755
0.08604 -0.037915 0.613614 -3 2 1.73205 192 192 192 255 0.202491 0.476755
0.08604 -0.231818 0.725564 -3 -0.5 2.59808 192 192 192 255 0.202491 0.476755
0.08604 -0.425721 0.613614 -3 -2.5 0.866025 192 192 192 255 0.202491 0.476755
0.08604 -0.425721 0.389713 -3 -2.00001 -1.73205 192 192 192 255 0.202491 0.476755
0.08604 -0.231818 0.277762 -2.99993 0.5 -2.59807 192 192 192 255 0.202491 0.476755
0.098317 -0.037915 0.389713 3.00007 2 -1.73205 192 192 192 255 0.202491 0.476755
0.098317 -0.037915 0.613614 3 2.5 0.866025 192 192 192 255 0.202491 0.476755
0.098317 -0.231818 0.725564 3 0.5 2.59808 192 192 192 255 0.202491 0.476755
0.098317 -0.425721 0.613614 3 -2 1.73205 192 192 192 255 0.202491 0.476755
0.098317 -0.425721 0.389713 3 -2.5 -0.866023 192 192 192 255 0.202491 0.476755
0.098317 -0.231818 0.277762 3.00003 -0.500005 -2.59807 192 192 192 255 0.202491 0.476755
0.098317 -0.116654 0.435173 6 0 0 192 192 192 255 0.241014 0.478099
0.098317 -0.116654 0.568152 6 0 0 192 192 192 255 0.241014 0.478099
0.098317 -0.231817 0.634642 6 0 0 192 192 192 255 0.241014 0.478099
0.098317 -0.346982 0.568152 6 0 0 192 192 192 255 0.241014 0.478099
0.098317 -0.346982 0.435175 6 0 0 192 192 192 255 0.241014 0.478099
0.098317 -0.231815 0.368684 6 0 0 192 192 192 255 0.241014 0.478099
0.076793 -0.294267 0.439974 4 -3 -2.37235e-006 192 192 192 255 0.267837 0.354778
0.076793 -0.294266 0.012853 3 -4 -4.74469e-006 192 192 192 255 0.267837 0.354778
0.076793 -0.114943 0.439973 3.90009 3.16096 -1.86387 192 192 192 255 0.267837 0.354778
0.076793 -0.114942 0.012853 4.8407 2.04925 0.861505 192 192 192 255 0.267837 0.354778
-0.102531 -0.114943 0.439973 -6.8002 2.234 -0.93194 192 192 192 255 0.393449 0.354802
-0.102531 -0.114942 0.012853 -2.84072 3.55698 1.72301 192 192 192 255 0.393449 0.354802
-0.102531 -0.294267 0.439974 -4 -3 -4.74469e-006 192 192 192 255 0.267837 0.354778
-0.102531 -0.294266 0.012853 -4 -2 -2.37235e-006 192 192 192 255 0.267837 0.354778
-0.102531 -0.294267 0.584122 -3.95097 -2.95097 0.618579 192 192 192 255 0.204923 0.354795
0.076793 -0.294267 0.584121 2.90193 -2.90194 1.23719 192 192 192 255 0.204923 0.354795
0.076793 -0.114941 0.584121 4.70211 3.13598 2.16914 192 192 192 255 0.330163 0.354802
-0.102531 -0.114941 0.584122 -5.80202 2.1119 2.79174 192 192 192 255 0.393449 0.354802
-0.102531 -0.294266 -0.151233 -1 -2 -1 192 192 192 255 0.204923 0.354795
0.076793 -0.294266 -0.151233 1 -1 -2 192 192 192 255 0.204923 0.354795
-0.102531 -0.114942 -0.151233 -3.68144 1.59067 -2.86151 192 192 192 255 0.204923 0.354795
0.076793 -0.114942 -0.151233 3.6814 2.09846 -2.72303 192 192 192 255 0.204923 0.354795
0.038128 -0.054913 -0.022527 3.6814 1.44608 2.48085 192 192 192 255 0.330163 0.354802
-0.063869 -0.054913 -0.022527 -2.68144 0.285832 2.3772 192 192 192 255 0.330163 0.354802
0.038128 -0.054913 -0.115855 1.84069 2.34121 -2.38821 192 192 192 255 0.332909 0.354778
-0.063869 -0.054913 -0.115855 -2.84072 2.20292 -2.48638 192 192 192 255 0.330163 0.354802
0.038128 0.102902 0.113345 2.99975 -2.31013 1.4845 192 192 192 255 0.204923 0.354795
-0.063869 0.102902 0.113345 -2.99988 -2.65506 0.742265 192 192 192 255 0.204923 0.354795
0.038128 0.184066 0.086382 2.99988 1.64341 -0.778897 192 192 192 255 0.267837 0.354778
-0.063869 0.184066 0.086382 -2.99975 3.28683 -1.55777 192 192 192 255 0.32758 0.354802
0.043836 0.102902 0.466538 4.00141 -1.99262 -3.01766 192 192 192 255 0.267837 0.354778
-0.069576 0.102902 0.466538 -5.00052 -0.989095 -3.03376 192 192 192 255 0.267837 0.354778
0.043836 0.184066 0.466538 4.8646 2.34414 -1.84812 192 192 192 255 0.267837 0.354778
-0.069576 0.184066 0.466538 -3.72956 3.42514 -0.925298 192 192 192 255 0.267837 0.354778
0.043933 -0.04706 0.466387 2.80094 1.23658 -3.93247 192 192 192 255 0.330163 0.354802
-0.069673 -0.04706 0.466387 -2.90163 1.16414 -4.86493 192 192 192 255 0.330163 0.354802
-0.069673 -0.04706 0.557709 -2.80017 1.23432 2.9314 192 192 192 255 0.393449 0.354802
0.043933 -0.04706 0.557708 2.90011 1.1616 2.86281 192 192 192 255 0.330163 0.354802
0.014365 0.234943 0.490155 1.72968 3.42514 -0.908669 192 192 192 255 0.393449 0.354802
-0.040105 0.234943 0.490155 -0.86484 2.34414 -1.81489 192 192 192 255 0.393449 0.354802
-0.040105 0.234943 0.53394 -1.72968 3.42773 0.9042 192 192 192 255 0.393449 0.354802
0.014365 0.234943 0.53394 0.86484 2.34933 1.81085 192 192 192 255 0.393449 0.354802
-0.072154 -0.263889 0.677523 -1.90194 -1.90193 3.23716 192 192 192 255 0.204923 0.354795
0.046414 -0.263889 0.677523 0.950965 -0.950968 1.6186 192 192 192 255 0.204923 0.354795
0.046414 -0.14532 0.677523 0.950965 0.950967 1.61861 192 192 192 255 0.204923 0.354795
-0.072154 -0.14532 0.677523 -0.950967 1.90193 2.92789 192 192 192 255 0.204923 0.354795
0.043933 0.102616 0.557708 3.00002 0.000305731 2.99734 192 192 192 255 0.204923 0.354795
-0.069673 0.102616 0.557709 -2.99998 0.000611417 2.99787 192 192 192 255 0.267837 0.354778
0.043933 0.184118 0.55771 2.72969 1.4277 2.90314 192 192 192 255 0.204923 0.354795
-0.069673 0.184118 0.55771 -2.86483 1.34931 2.80872 192 192 192 255 0.267837 0.354778
-0.102531 -0.146293 0.465175 -5 0 0 192 192 192 255 0.267837 0.354778
-0.102531 -0.262916 0.465175 -4 0 0 192 192 192 255 0.267837 0.354778
-0.102531 -0.262916 0.558921 -5 0 0 192 192 192 255 0.267837 0.354778
-0.102531 -0.146293 0.558921 -4 0 0 192 192 192 255 0.267837 0.354778
-0.001611 0.036115 0.466439 1.00153 -1.99711 -3.00006 192 192 192 255 0.204923 0.354795
-0.024129 0.036115 0.466439 -2.00076 -0.997109 -3.00003 192 192 192 255 0.204923 0.354795
-0.02411 0.092089 0.466486 -1.00153 2.00707 -2.99999 192 192 192 255 0.204923 0.354795
-0.00163 0.092089 0.466486 2.00076 1.01126 -2.99998 192 192 192 255 0.204923 0.354795
-0.001611 0.036116 0.433702 2 -0.997713 -2.00003 192 192 192 255 0.229315 0.171423
-0.024129 0.036116 0.433702 -1 -1.99886 -1.00006 192 192 192 255 0.229315 0.171423
-0.02411 0.092089 0.433747 -2 1.00229 -2 192 192 192 255 0.229315 0.171423
-0.00163 0.092089 0.433747 1 2.00114 -1 192 192 192 255 0.229315 0.171423
0.039245 0.102902 0.171662 1.99975 -3.00258 -0.0311281 192 192 192 255 0.136229 0.063162
0.039245 0.184066 0.171662 3.99951 3.99483 -0.0622561 192 192 192 255 0.174751 0.062931
-0.064985 0.184066 0.171662 -2.99963 1.99742 -0.046678 192 192 192 255 0.237483 0.063257
-0.064985 0.102902 0.171662 -2.99963 -3.00516 -0.0466514 192 192 192 255 0.136229 0.063162
-0.068562 0.184066 0.401397 -2.99964 3 -0.046697 192 192 192 255 0.237483 0.063257
0.042823 0.184066 0.401397 1.99976 3 -0.0311216 192 192 192 255 0.174751 0.062931
0.042823 0.102902 0.401397 3.99952 -3 -0.0622432 192 192 192 255 0.136229 0.063162
-0.068562 0.102902 0.401397 -2.99964 -3 -0.0467008 192 192 192 255 0.136229 0.063162
0.038128 0.07449 0.088882 3 -1.95739 2.27346 192 192 192 255 0.204923 0.354795
0.038128 0.141042 0.049972 3 1.93797 -2.29003 192 192 192 255 0.267837 0.354778
-0.063869 0.141042 0.049972 -3.00001 1.93796 -2.29004 192 192 192 255 0.32758 0.354802
-0.063869 0.07449 0.088882 -3 -1.95742 2.27344 192 192 192 255 0.204923 0.354795
0.038128 -0.024259 0.003863 3 -1.95732 2.27352 192 192 192 255 0.174751 0.062931
0.038128 -0.008495 -0.076574 2.99999 1.93796 -2.29005 192 192 192 255 0.174751 0.062931
-0.063869 -0.008495 -0.076573 -3.00001 1.93796 -2.29005 192 192 192 255 0.20468 0.063257
-0.063869 -0.024259 0.003863 -3 -1.95735 2.2735 192 192 192 255 0.174751 0.062931
0.098317 -0.186759 0.475648 3.00469 0 0 192 192 192 255 0.241014 0.478099
0.098317 -0.186759 0.527678 3.00469 0 0 192 192 192 255 0.241014 0.478099
0.098317 -0.231818 0.501663 0.0140664 0 0 192 192 192 255 0.241014 0.478099
0.098317 -0.231818 0.553692 3.00469 0 0 192 192 192 255 0.241014 0.478099
0.098317 -0.276877 0.527678 3.00469 0 0 192 192 192 255 0.241014 0.478099
0.098317 -0.276877 0.475648 3.00469 0 0 192 192 192 255 0.241014 0.478099
0.098317 -0.231817 0.449633 3.00469 0 0 192 192 192 255 0.241014 0.478099
0.08604 -0.113491 0.433347 -3.03233 0 0 192 192 192 255 0.261394 0.478099
0.08604 -0.113491 0.56998 -3.03233 0 0 192 192 192 255 0.261394 0.478099
0.08604 -0.231818 0.501663 -0.0970051 0 0 192 192 192 255 0.261394 0.478099
0.08604 -0.231818 0.638297 -3.03234 0 0 192 192 192 255 0.261394 0.478099
0.08604 -0.350146 0.56998 -3.03234 0 0 192 192 192 255 0.261394 0.478099
0.08604 -0.350146 0.433347 -3.03234 0 0 192 192 192 255 0.261394 0.478099
0.08604 -0.231818 0.365029 -3.03234 0 0 192 192 192 255 0.261394 0.478099
0.076793 -0.164761 0.439974 4 0 0 192 192 192 255 0.267837 0.354778
0.046414 -0.194936 0.677523 3.80385 2.16738e-006 4.23721 192 192 192 255 0.204923 0.354795
0.076793 -0.17804 0.584122 5.90193 1.08369e-006 0.618606 192 192 192 255 0.204923 0.354795
0.072143 0.077783 0.64818 -3 2 1.73205 192 192 192 255 0.267837 0.354778
0.072143 0.077783 0.355145 -3.00004 3 -1.73205 192 192 192 255 0.267837 0.354778
0.072143 -0.175992 0.794698 -2 -0.499995 0.863897 192 192 192 255 0.267837 0.354778
0.112214 0.077783 0.355145 2.99998 1.5 -0.86602 192 192 192 255 0.267837 0.354778
0.112214 0.077783 0.64818 2 2.5 0.866024 192 192 192 255 0.267837 0.354778
0.112214 -0.175992 0.794698 2 -0.999991 1.72779 192 192 192 255 0.267837 0.354778
0.112214 -0.175992 0.794698 2 -0.999991 1.72779 192 192 192 255 0.204923 0.354795
0.072143 -0.175992 0.794698 -2 -0.499995 0.863897 192 192 192 255 0.204923 0.354795
0.072143 -0.175696 0.655563 -1.00002 -2.51731 -0.860051 192 192 192 255 0.204923 0.354795
0.112214 -0.175696 0.655561 0.999957 -2.03462 -1.71372 192 192 192 255 0.204923 0.354795
0.072143 -0.175991 0.208629 -3 -3 0.00425761 192 192 192 255 0.204923 0.354795
0.112215 -0.175991 0.208628 3 -2.99999 0.00215761 192 192 192 255 0.204923 0.354795
0.112214 -0.175696 0.347763 1.00002 -3.03462 1.71584 192 192 192 255 0.204923 0.354795
0.072143 -0.175696 0.347764 -1.99999 -1.51731 0.857916 192 192 192 255 0.204923 0.354795
0.072143 -0.048397 0.578612 -3.00004 -3.03463 -1.71158 192 192 192 255 0.204923 0.354795
0.072143 -0.048398 0.424713 -2.99998 -2.03463 1.7116 192 192 192 255 0.204923 0.354795
0.112214 -0.048398 0.424713 3.00001 -2.51731 0.855818 192 192 192 255 0.204923 0.354795
0.112214 -0.048397 0.578612 3.99998 -1.51731 -0.85579 192 192 192 255 0.204923 0.354795
0.072143 0.077783 0.355145 -3.00004 3 -1.73205 192 192 192 255 0.204923 0.354795
0.072143 -0.09688 0.254304 -1.00002 2.5 -0.866044 192 192 192 255 0.393449 0.354802
0.112214 0.077783 0.355145 2.99998 1.5 -0.86602 192 192 192 255 0.204923 0.354795
0.112214 -0.09688 0.254302 1.99996 2.00002 -1.73207 192 192 192 255 0.204923 0.354795
0.112214 -0.096881 0.150446 1 2.00001 -2.00003 192 192 192 255 0.393449 0.354802
0.072143 -0.096881 0.150446 -2 1 -1.00001 192 192 192 255 0.393449 0.354802
0.112214 -0.175992 0.150446 2 -0.999984 -0.999995 192 192 192 255 0.267837 0.354778
0.112214 -0.096881 0.150446 1 2.00001 -2.00003 192 192 192 255 0.267837 0.354778
0.112214 -0.09688 0.254302 1.99996 2.00002 -1.73207 192 192 192 255 0.267837 0.354778
0.098317 -0.037915 0.389713 3.00007 2 -1.73205 192 192 192 255 0.241014 0.478099
0.098317 -0.037915 0.613614 3 2.5 0.866025 192 192 192 255 0.241014 0.478099
0.098317 -0.231818 0.725564 3 0.5 2.59808 192 192 192 255 0.241014 0.478099
0.098317 -0.425721 0.613614 3 -2 1.73205 192 192 192 255 0.241014 0.478099
0.098317 -0.425721 0.389713 3 -2.5 -0.866023 192 192 192 255 0.241014 0.478099
0.098317 -0.231818 0.277762 3.00003 -0.500005 -2.59807 192 192 192 255 0.241014 0.478099
0.076793 -0.114943 0.439973 3.90009 3.16096 -1.86387 192 192 192 255 0.393449 0.354802
0.076793 -0.114942 0.012853 4.8407 2.04925 0.861505 192 192 192 255 0.393449 0.354802
-0.102531 -0.114943 0.439973 -6.8002 2.234 -0.93194 192 192 192 255 0.267837 0.354778
-0.102531 -0.114942 0.012853 -2.84072 3.55698 1.72301 192 192 192 255 0.267837 0.354778
-0.102531 -0.294267 0.439974 -4 -3 -4.74469e-006 192 192 192 255 0.204923 0.354795
-0.102531 -0.294266 0.012853 -4 -2 -2.37235e-006 192 192 192 255 0.204923 0.354795
0.076793 -0.294266 0.012853 3 -4 -4.74469e-006 192 192 192 255 0.204923 0.354795
0.076793 -0.294267 0.439974 4 -3 -2.37235e-006 192 192 192 255 0.204923 0.354795
0.076793 -0.164761 0.439974 4 0 0 192 192 192 255 0.204923 0.354795
-0.102531 -0.114942 -0.151233 -3.68144 1.59067 -2.86151 192 192 192 255 0.267837 0.354778
-0.102531 -0.294266 -0.151233 -1 -2 -1 192 192 192 255 0.267837 0.354778
0.076793 -0.294266 -0.151233 1 -1 -2 192 192 192 255 0.267837 0.354778
0.076793 -0.114942 -0.151233 3.6814 2.09846 -2.72303 192 192 192 255 0.267837 0.354778
-0.102531 -0.114942 0.012853 -2.84072 3.55698 1.72301 192 192 192 255 0.330163 0.354802
0.076793 -0.114942 0.012853 4.8407 2.04925 0.861505 192 192 192 255 0.330163 0.354802
0.038128 -0.054913 -0.022527 3.6814 1.44608 2.48085 192 192 192 255 0.332909 0.354778
0.076793 -0.114942 0.012853 4.8407 2.04925 0.861505 192 192 192 255 0.332909 0.354778
0.076793 -0.114942 -0.151233 3.6814 2.09846 -2.72303 192 192 192 255 0.332909 0.354778
0.076793 -0.114942 -0.151233 3.6814 2.09846 -2.72303 192 192 192 255 0.330163 0.354802
-0.102531 -0.114942 -0.151233 -3.68144 1.59067 -2.86151 192 192 192 255 0.330163 0.354802
0.038128 -0.054913 -0.115855 1.84069 2.34121 -2.38821 192 192 192 255 0.330163 0.354802
-0.102531 -0.114942 -0.151233 -3.68144 1.59067 -2.86151 192 192 192 255 0.332909 0.354778
-0.102531 -0.114942 0.012853 -2.84072 3.55698 1.72301 192 192 192 255 0.332909 0.354778
-0.063869 -0.054913 -0.022527 -2.68144 0.285832 2.3772 192 192 192 255 0.332909 0.354778
-0.063869 -0.054913 -0.115855 -2.84072 2.20292 -2.48638 192 192 192 255 0.332909 0.354778
0.038128 0.07449 0.088882 3 -1.95739 2.27346 192 192 192 255 0.267837 0.354778
0.038128 0.102902 0.113345 2.99975 -2.31013 1.4845 192 192 192 255 0.267837 0.354778
0.038128 0.141042 0.049972 3 1.93797 -2.29003 192 192 192 255 0.32758 0.354802
0.038128 0.184066 0.086382 2.99988 1.64341 -0.778897 192 192 192 255 0.32758 0.354802
-0.063869 0.141042 0.049972 -3.00001 1.93796 -2.29004 192 192 192 255 0.267837 0.354778
-0.063869 0.07449 0.088882 -3 -1.95742 2.27344 192 192 192 255 0.267837 0.354778
-0.063869 0.102902 0.113345 -2.99988 -2.65506 0.742265 192 192 192 255 0.267837 0.354778
-0.063869 0.184066 0.086382 -2.99975 3.28683 -1.55777 192 192 192 255 0.267837 0.354778
0.042823 0.102902 0.401397 3.99952 -3 -0.0622432 192 192 192 255 0.174751 0.062931
0.039245 0.102902 0.171662 1.99975 -3.00258 -0.0311281 192 192 192 255 0.174751 0.062931
0.039245 0.184066 0.171662 3.99951 3.99483 -0.0622561 192 192 192 255 0.237483 0.063257
0.042823 0.184066 0.401397 1.99976 3 -0.0311216 192 192 192 255 0.237483 0.063257
-0.064985 0.184066 0.171662 -2.99963 1.99742 -0.046678 192 192 192 255 0.174751 0.062931
-0.064985 0.102902 0.171662 -2.99963 -3.00516 -0.0466514 192 192 192 255 0.174751 0.062931
-0.068562 0.102902 0.401397 -2.99964 -3 -0.0467008 192 192 192 255 0.174751 0.062931
-0.068562 0.184066 0.401397 -2.99964 3 -0.046697 192 192 192 255 0.174751 0.062931
0.076793 -0.114943 0.439973 3.90009 3.16096 -1.86387 192 192 192 255 0.330163 0.354802
-0.102531 -0.114943 0.439973 -6.8002 2.234 -0.93194 192 192 192 255 0.330163 0.354802
-0.069673 -0.04706 0.466387 -2.90163 1.16414 -4.86493 192 192 192 255 0.393449 0.354802
-0.102531 -0.114941 0.584122 -5.80202 2.1119 2.79174 192 192 192 255 0.330163 0.354802
-0.069673 -0.04706 0.557709 -2.80017 1.23432 2.9314 192 192 192 255 0.330163 0.354802
0.076793 -0.114941 0.584121 4.70211 3.13598 2.16914 192 192 192 255 0.393449 0.354802
0.043933 -0.04706 0.466387 2.80094 1.23658 -3.93247 192 192 192 255 0.393449 0.354802
0.043933 -0.04706 0.557708 2.90011 1.1616 2.86281 192 192 192 255 0.393449 0.354802
-0.069673 0.102616 0.557709 -2.99998 0.000611417 2.99787 192 192 192 255 0.204923 0.354795
-0.069673 0.184118 0.55771 -2.86483 1.34931 2.80872 192 192 192 255 0.204923 0.354795
0.043933 0.102616 0.557708 3.00002 0.000305731 2.99734 192 192 192 255 0.267837 0.354778
0.043933 0.184118 0.55771 2.72969 1.4277 2.90314 192 192 192 255 0.267837 0.354778
0.076793 -0.114941 0.584121 4.70211 3.13598 2.16914 192 192 192 255 0.204923 0.354795
-0.072154 -0.14532 0.677523 -0.950967 1.90193 2.92789 192 192 192 255 0.393449 0.354802
0.046414 -0.14532 0.677523 0.950965 0.950967 1.61861 192 192 192 255 0.393449 0.354802
-0.102531 -0.114941 0.584122 -5.80202 2.1119 2.79174 192 192 192 255 0.267837 0.354778
-0.102531 -0.294267 0.584122 -3.95097 -2.95097 0.618579 192 192 192 255 0.267837 0.354778
-0.072154 -0.263889 0.677523 -1.90194 -1.90193 3.23716 192 192 192 255 0.267837 0.354778
-0.072154 -0.14532 0.677523 -0.950967 1.90193 2.92789 192 192 192 255 0.267837 0.354778
0.043933 -0.04706 0.557708 2.90011 1.1616 2.86281 192 192 192 255 0.267837 0.354778
0.043933 -0.04706 0.466387 2.80094 1.23658 -3.93247 192 192 192 255 0.267837 0.354778
-0.069673 -0.04706 0.466387 -2.90163 1.16414 -4.86493 192 192 192 255 0.267837 0.354778
-0.069673 -0.04706 0.557709 -2.80017 1.23432 2.9314 192 192 192 255 0.267837 0.354778
-0.069673 -0.04706 0.557709 -2.80017 1.23432 2.9314 192 192 192 255 0.204923 0.354795
0.043933 -0.04706 0.557708 2.90011 1.1616 2.86281 192 192 192 255 0.204923 0.354795
0.043836 0.184066 0.466538 4.8646 2.34414 -1.84812 192 192 192 255 0.330163 0.354802
-0.069576 0.184066 0.466538 -3.72956 3.42514 -0.925298 192 192 192 255 0.330163 0.354802
-0.040105 0.234943 0.490155 -0.86484 2.34414 -1.81489 192 192 192 255 0.330163 0.354802
0.014365 0.234943 0.490155 1.72968 3.42514 -0.908669 192 192 192 255 0.330163 0.354802
0.043933 0.184118 0.55771 2.72969 1.4277 2.90314 192 192 192 255 0.332909 0.354778
0.043836 0.184066 0.466538 4.8646 2.34414 -1.84812 192 192 192 255 0.332909 0.354778
0.014365 0.234943 0.490155 1.72968 3.42514 -0.908669 192 192 192 255 0.332909 0.354778
0.014365 0.234943 0.53394 0.86484 2.34933 1.81085 192 192 192 255 0.332909 0.354778
0.014365 0.234943 0.53394 0.86484 2.34933 1.81085 192 192 192 255 0.330163 0.354802
-0.040105 0.234943 0.53394 -1.72968 3.42773 0.9042 192 192 192 255 0.330163 0.354802
-0.069673 0.184118 0.55771 -2.86483 1.34931 2.80872 192 192 192 255 0.330163 0.354802
0.043933 0.184118 0.55771 2.72969 1.4277 2.90314 192 192 192 255 0.330163 0.354802
-0.069576 0.184066 0.466538 -3.72956 3.42514 -0.925298 192 192 192 255 0.332909 0.354778
-0.069673 0.184118 0.55771 -2.86483 1.34931 2.80872 192 192 192 255 0.332909 0.354778
-0.040105 0.234943 0.53394 -1.72968 3.42773 0.9042 192 192 192 255 0.332909 0.354778
-0.040105 0.234943 0.490155 -0.86484 2.34414 -1.81489 192 192 192 255 0.332909 0.354778
0.043933 -0.04706 0.466387 2.80094 1.23658 -3.93247 192 192 192 255 0.204923 0.354795
-0.069673 -0.04706 0.466387 -2.90163 1.16414 -4.86493 192 192 192 255 0.204923 0.354795
-0.069576 0.102902 0.466538 -5.00052 -0.989095 -3.03376 192 192 192 255 0.204923 0.354795
0.043836 0.102902 0.466538 4.00141 -1.99262 -3.01766 192 192 192 255 0.204923 0.354795
-0.001611 0.036115 0.466439 1.00153 -1.99711 -3.00006 192 192 192 255 0.229315 0.171423
-0.024129 0.036115 0.466439 -2.00076 -0.997109 -3.00003 192 192 192 255 0.229315 0.171423
-0.024129 0.036115 0.466439 -2.00076 -0.997109 -3.00003 192 192 192 255 0.267837 0.171191
-0.02411 0.092089 0.466486 -1.00153 2.00707 -2.99999 192 192 192 255 0.267837 0.171191
-0.02411 0.092089 0.433747 -2 1.00229 -2 192 192 192 255 0.267837 0.171191
-0.024129 0.036116 0.433702 -1 -1.99886 -1.00006 192 192 192 255 0.267837 0.171191
-0.02411 0.092089 0.466486 -1.00153 2.00707 -2.99999 192 192 192 255 0.229315 0.171423
-0.00163 0.092089 0.466486 2.00076 1.01126 -2.99998 192 192 192 255 0.229315 0.171423
-0.00163 0.092089 0.466486 2.00076 1.01126 -2.99998 192 192 192 255 0.267837 0.171191
-0.001611 0.036115 0.466439 1.00153 -1.99711 -3.00006 192 192 192 255 0.267837 0.171191
-0.001611 0.036116 0.433702 2 -0.997713 -2.00003 192 192 192 255 0.267837 0.171191
-0.00163 0.092089 0.433747 1 2.00114 -1 192 192 192 255 0.267837 0.171191
0.039245 0.184066 0.171662 3.99951 3.99483 -0.0622561 192 192 192 255 0.267837 0.354778
0.039245 0.102902 0.171662 1.99975 -3.00258 -0.0311281 192 192 192 255 0.267837 0.354778
0.039245 0.184066 0.171662 3.99951 3.99483 -0.0622561 192 192 192 255 0.393449 0.354802
0.038128 0.184066 0.086382 2.99988 1.64341 -0.778897 192 192 192 255 0.393449 0.354802
-0.063869 0.184066 0.086382 -2.99975 3.28683 -1.55777 192 192 192 255 0.393449 0.354802
-0.064985 0.184066 0.171662 -2.99963 1.99742 -0.046678 192 192 192 255 0.393449 0.354802
-0.064985 0.102902 0.171662 -2.99963 -3.00516 -0.0466514 192 192 192 255 0.267837 0.354778
-0.064985 0.184066 0.171662 -2.99963 1.99742 -0.046678 192 192 192 255 0.267837 0.354778
0.039245 0.102902 0.171662 1.99975 -3.00258 -0.0311281 192 192 192 255 0.204923 0.354795
-0.064985 0.102902 0.171662 -2.99963 -3.00516 -0.0466514 192 192 192 255 0.204923 0.354795
0.042823 0.184066 0.401397 1.99976 3 -0.0311216 192 192 192 255 0.393449 0.354802
-0.068562 0.184066 0.401397 -2.99964 3 -0.046697 192 192 192 255 0.393449 0.354802
-0.069576 0.184066 0.466538 -3.72956 3.42514 -0.925298 192 192 192 255 0.393449 0.354802
0.043836 0.184066 0.466538 4.8646 2.34414 -1.84812 192 192 192 255 0.393449 0.354802
0.042823 0.102902 0.401397 3.99952 -3 -0.0622432 192 192 192 255 0.267837 0.354778
0.042823 0.184066 0.401397 1.99976 3 -0.0311216 192 192 192 255 0.267837 0.354778
-0.068562 0.102902 0.401397 -2.99964 -3 -0.0467008 192 192 192 255 0.204923 0.354795
0.042823 0.102902 0.401397 3.99952 -3 -0.0622432 192 192 192 255 0.204923 0.354795
-0.068562 0.184066 0.401397 -2.99964 3 -0.046697 192 192 192 255 0.267837 0.354778
-0.068562 0.102902 0.401397 -2.99964 -3 -0.0467008 192 192 192 255 0.267837 0.354778
0.038128 0.141042 0.049972 3 1.93797 -2.29003 192 192 192 255 0.174751 0.062931
0.038128 0.07449 0.088882 3 -1.95739 2.27346 192 192 192 255 0.174751 0.062931
0.038128 -0.008495 -0.076574 2.99999 1.93796 -2.29005 192 192 192 255 0.20468 0.063257
-0.063869 0.141042 0.049972 -3.00001 1.93796 -2.29004 192 192 192 255 0.20468 0.063257
0.038128 0.141042 0.049972 3 1.93797 -2.29003 192 192 192 255 0.20468 0.063257
-0.063869 -0.008495 -0.076573 -3.00001 1.93796 -2.29005 192 192 192 255 0.174751 0.062931
-0.063869 0.07449 0.088882 -3 -1.95742 2.27344 192 192 192 255 0.174751 0.062931
-0.063869 0.141042 0.049972 -3.00001 1.93796 -2.29004 192 192 192 255 0.174751 0.062931
-0.063869 -0.024259 0.003863 -3 -1.95735 2.2735 192 192 192 255 0.136229 0.063162
0.038128 -0.024259 0.003863 3 -1.95732 2.27352 192 192 192 255 0.136229 0.063162
0.038128 0.07449 0.088882 3 -1.95739 2.27346 192 192 192 255 0.136229 0.063162
-0.063869 0.07449 0.088882 -3 -1.95742 2.27344 192 192 192 255 0.136229 0.063162
0.038128 -0.054913 -0.022527 3.6814 1.44608 2.48085 192 192 192 255 0.267837 0.354778
0.038128 -0.054913 -0.115855 1.84069 2.34121 -2.38821 192 192 192 255 0.267837 0.354778
0.038128 -0.008495 -0.076574 2.99999 1.93796 -2.29005 192 192 192 255 0.267837 0.354778
0.038128 -0.024259 0.003863 3 -1.95732 2.27352 192 192 192 255 0.267837 0.354778
0.038128 -0.054913 -0.115855 1.84069 2.34121 -2.38821 192 192 192 255 0.32758 0.354802
-0.063869 -0.054913 -0.115855 -2.84072 2.20292 -2.48638 192 192 192 255 0.32758 0.354802
-0.063869 -0.008495 -0.076573 -3.00001 1.93796 -2.29005 192 192 192 255 0.32758 0.354802
0.038128 -0.008495 -0.076574 2.99999 1.93796 -2.29005 192 192 192 255 0.32758 0.354802
-0.063869 -0.054913 -0.115855 -2.84072 2.20292 -2.48638 192 192 192 255 0.267837 0.354778
-0.063869 -0.054913 -0.022527 -2.68144 0.285832 2.3772 192 192 192 255 0.267837 0.354778
-0.063869 -0.024259 0.003863 -3 -1.95735 2.2735 192 192 192 255 0.267837 0.354778
-0.063869 -0.008495 -0.076573 -3.00001 1.93796 -2.29005 192 192 192 255 0.267837 0.354778
-0.063869 -0.054913 -0.022527 -2.68144 0.285832 2.3772 192 192 192 255 0.204923 0.354795
0.038128 -0.054913 -0.022527 3.6814 1.44608 2.48085 192 192 192 255 0.204923 0.354795
0.038128 -0.024259 0.003863 3 -1.95732 2.27352 192 192 192 255 0.204923 0.354795
-0.063869 -0.024259 0.003863 -3 -1.95735 2.2735 192 192 192 255 0.204923 0.354795
0.098317 -0.116654 0.435173 6 0 0 192 192 192 255 0.265428 0.478099
0.098317 -0.116654 0.568152 6 0 0 192 192 192 255 0.265428 0.478099
0.098317 -0.186759 0.527678 3.00469 0 0 192 192 192 255 0.265428 0.478099
0.098317 -0.186759 0.475648 3.00469 0 0 192 192 192 255 0.265428 0.478099
0.098317 -0.231817 0.634642 6 0 0 192 192 192 255 0.265428 0.478099
0.098317 -0.231818 0.553692 3.00469 0 0 192 192 192 255 0.265428 0.478099
0.098317 -0.346982 0.568152 6 0 0 192 192 192 255 0.265428 0.478099
0.098317 -0.276877 0.527678 3.00469 0 0 192 192 192 255 0.265428 0.478099
0.098317 -0.346982 0.435175 6 0 0 192 192 192 255 0.265428 0.478099
0.098317 -0.276877 0.475648 3.00469 0 0 192 192 192 255 0.265428 0.478099
0.098317 -0.231815 0.368684 6 0 0 192 192 192 255 0.265428 0.478099
0.098317 -0.231817 0.449633 3.00469 0 0 192 192 192 255 0.265428 0.478099
0.08604 -0.037915 0.613614 -3 2 1.73205 192 192 192 255 0.241014 0.478099
0.08604 -0.037915 0.389712 -2.99997 2.5 -0.866024 192 192 192 255 0.241014 0.478099
0.08604 -0.113491 0.433347 -3.03233 0 0 192 192 192 255 0.241014 0.478099
0.08604 -0.113491 0.56998 -3.03233 0 0 192 192 192 255 0.241014 0.478099
0.08604 -0.231818 0.725564 -3 -0.5 2.59808 192 192 192 255 0.241014 0.478099
0.08604 -0.231818 0.638297 -3.03234 0 0 192 192 192 255 0.241014 0.478099
0.08604 -0.425721 0.613614 -3 -2.5 0.866025 192 192 192 255 0.241014 0.478099
0.08604 -0.350146 0.56998 -3.03234 0 0 192 192 192 255 0.241014 0.478099
0.08604 -0.425721 0.389713 -3 -2.00001 -1.73205 192 192 192 255 0.241014 0.478099
0.08604 -0.350146 0.433347 -3.03234 0 0 192 192 192 255 0.241014 0.478099
0.08604 -0.231818 0.277762 -2.99993 0.5 -2.59807 192 192 192 255 0.241014 0.478099
0.08604 -0.231818 0.365029 -3.03234 0 0 192 192 192 255 0.241014 0.478099
0.076793 -0.114943 0.439973 3.90009 3.16096 -1.86387 192 192 192 255 0.204923 0.354795
3 0 1 5 
3 0 5 4 
3 1 2 6 
3 1 6 5 
3 18 19 20 
3 18 20 21 
3 129 130 8 
3 129 8 9 
3 131 129 9 
3 131 9 10 
3 130 3 11 
3 130 11 8 
3 13 12 132 
3 13 132 133 
3 13 133 134 
3 13 134 14 
3 12 15 7 
3 12 7 132 
3 135 136 137 
3 135 137 138 
3 139 140 141 
3 139 141 142 
3 143 144 145 
3 143 145 146 
3 144 142 141 
3 144 141 145 
3 143 146 138 
3 143 138 137 
3 139 147 16 
3 0 4 17 
3 0 17 148 
3 149 140 150 
3 139 16 19 
3 139 19 18 
3 148 17 151 
3 148 151 152 
3 153 154 155 
3 153 155 7 
3 18 21 140 
3 18 140 139 
3 22 23 29 
3 22 29 28 
3 23 24 30 
3 23 30 29 
3 24 25 31 
3 24 31 30 
3 25 26 32 
3 25 32 31 
3 26 27 33 
3 26 33 32 
3 27 22 28 
3 27 28 33 
3 120 119 121 
3 122 120 121 
3 123 122 121 
3 124 123 121 
3 125 124 121 
3 119 125 121 
3 112 113 114 
3 113 115 114 
3 115 116 114 
3 116 117 114 
3 117 118 114 
3 118 112 114 
3 156 157 35 
3 156 35 34 
3 157 158 36 
3 157 36 35 
3 158 159 37 
3 158 37 36 
3 159 160 38 
3 159 38 37 
3 160 161 39 
3 160 39 38 
3 161 156 34 
3 161 34 39 
3 43 42 126 
3 43 126 40 
3 43 40 41 
3 162 163 45 
3 162 45 44 
3 164 165 47 
3 164 47 46 
3 166 167 168 
3 166 168 169 
3 53 52 54 
3 53 54 55 
3 127 78 79 
3 127 79 76 
3 127 76 77 
3 169 49 48 
3 169 48 166 
3 169 170 128 
3 169 128 49 
3 72 73 74 
3 72 74 75 
3 84 85 86 
3 84 86 87 
3 168 167 52 
3 168 52 53 
3 47 165 171 
3 47 171 172 
3 41 173 174 
3 41 174 43 
3 175 176 56 
3 175 56 57 
3 177 178 179 
3 177 179 58 
3 180 181 59 
3 180 59 182 
3 183 184 185 
3 183 185 186 
3 107 104 60 
3 107 60 61 
3 187 105 62 
3 187 62 188 
3 189 106 63 
3 189 63 190 
3 191 192 193 
3 191 193 194 
3 99 96 102 
3 99 102 103 
3 97 101 195 
3 97 195 196 
3 197 98 100 
3 197 100 198 
3 199 200 201 
3 199 201 202 
3 203 204 69 
3 203 69 68 
3 44 51 70 
3 44 70 205 
3 206 50 71 
3 206 71 207 
3 208 162 209 
3 208 209 210 
3 65 81 83 
3 65 83 67 
3 211 80 82 
3 211 82 212 
3 213 64 66 
3 213 66 214 
3 76 48 49 
3 76 49 77 
3 127 128 215 
3 127 215 78 
3 208 51 216 
3 208 216 217 
3 218 219 220 
3 218 220 221 
3 222 223 64 
3 222 64 213 
3 92 93 94 
3 92 94 95 
3 224 225 81 
3 224 81 65 
3 226 227 80 
3 226 80 211 
3 228 229 230 
3 228 230 231 
3 232 233 234 
3 232 234 235 
3 236 237 238 
3 236 238 239 
3 240 241 242 
3 240 242 243 
3 164 46 85 
3 164 85 84 
3 46 219 86 
3 46 86 85 
3 219 218 87 
3 219 87 86 
3 218 164 84 
3 218 84 87 
3 244 245 89 
3 244 89 88 
3 245 246 90 
3 245 90 89 
3 246 247 91 
3 246 91 90 
3 247 244 88 
3 247 88 91 
3 248 249 93 
3 248 93 92 
3 250 251 252 
3 250 252 253 
3 254 255 95 
3 254 95 94 
3 256 257 258 
3 256 258 259 
3 260 261 188 
3 260 188 62 
3 262 263 264 
3 262 264 265 
3 194 193 266 
3 194 266 267 
3 61 60 268 
3 61 268 269 
3 270 271 272 
3 270 272 273 
3 274 275 66 
3 274 66 64 
3 276 277 247 
3 276 247 246 
3 278 279 65 
3 278 65 67 
3 108 109 280 
3 108 280 281 
3 282 110 283 
3 282 283 284 
3 285 111 286 
3 285 286 287 
3 288 289 290 
3 288 290 291 
3 292 293 294 
3 292 294 295 
3 296 297 298 
3 296 298 299 
3 300 301 302 
3 300 302 303 
3 304 305 306 
3 304 306 307 
3 308 309 310 
3 308 310 311 
3 309 312 313 
3 309 313 310 
3 312 314 315 
3 312 315 313 
3 314 316 317 
3 314 317 315 
3 316 318 319 
3 316 319 317 
3 318 308 311 
3 318 311 319 
3 320 321 322 
3 320 322 323 
3 324 320 323 
3 324 323 325 
3 326 324 325 
3 326 325 327 
3 328 326 327 
3 328 327 329 
3 330 328 329 
3 330 329 331 
3 321 330 331 
3 321 331 322 
3 49 128 127 
3 49 127 77 
3 128 170 332 
3 128 332 215 
