ply
format ascii 1.0
comment VCGLIB generated
comment TextureFile WorldMap.png
element vertex 112
property float x
property float y
property float z
property float nx
property float ny
property float nz
property uchar red
property uchar green
property uchar blue
property uchar alpha
property float texture_u
property float texture_v
element face 68
property list uchar int vertex_indices
end_header
-0.040665 0.2012 -0.268201 -2 3 -1 192 192 192 255 0.268088 0.472585
-0.040665 0.2012 -0.186876 -1 3 2 192 192 192 255 0.268088 0.472585
-0.040665 0.726872 -0.268201 -3 0.788832 -2.61461 192 192 192 255 0.268088 0.472585
-0.040665 0.677214 -0.186876 -3 -1.59433 2.20752 192 192 192 255 0.268088 0.472585
0.040665 0.726872 -0.268201 3 1.57766 -2.22922 192 192 192 255 0.268088 0.472585
0.040665 0.677214 -0.186876 3 -0.797165 2.60376 192 192 192 255 0.268088 0.472585
0.040665 0.2012 -0.268201 1 3 -2 192 192 192 255 0.268088 0.472585
0.040665 0.2012 -0.186876 2 3 1 192 192 192 255 0.268088 0.472585
-0.040665 1.02357 0.112603 -2.99623 2.25515 -1.98663 192 192 192 255 0.268088 0.472585
-0.040665 0.947626 0.170157 -2.99812 -2.51092 1.64513 192 192 192 255 0.268088 0.472585
0.040665 0.947626 0.170157 2.99623 -2.50677 1.65488 192 192 192 255 0.238081 0.475647
0.040665 1.02357 0.112603 2.99812 2.25495 -1.98278 192 192 192 255 0.268088 0.472585
-0.054214 1.16939 0.278743 -2.68895 3.1112 -0.527922 192 192 192 255 0.382301 0.474313
-0.054214 1.06813 0.355474 -2.84165 -1.15222 2.79236 192 192 192 255 0.382301 0.474313
0.054214 1.06813 0.355474 2.68895 -1.34978 2.85242 192 192 192 255 0.319226 0.477988
0.054214 1.16939 0.278743 2.84165 2.99994 -0.354011 192 192 192 255 0.382301 0.474313
-0.032532 1.16986 0.321442 -0.845417 3.53035 1.99745 192 192 192 255 0.17865 0.475874
-0.032532 1.10911 0.367481 -1.69083 0.967918 2.60807 192 192 192 255 0.17865 0.475874
0.032532 1.10911 0.367481 0.845417 0.968118 3.93905 192 192 192 255 0.17865 0.475874
0.032532 1.16986 0.321442 1.69083 2.24903 1.63727 192 192 192 255 0.17865 0.475874
-0.078461 0.2012 -0.305997 -1 3 -2 192 192 192 255 0.390186 0.443498
-0.078461 0.2012 -0.149077 -2 3 1 192 192 192 255 0.390186 0.443498
0.078461 0.2012 -0.305997 2 3 -1 192 192 192 255 0.390186 0.443498
0.078461 0.2012 -0.149077 1 3 2 192 192 192 255 0.390186 0.443498
-0.078461 0.128617 -0.305997 -2 0 -1 192 192 192 255 0.328948 0.448397
-0.078461 0.128617 -0.149077 -1 0 2 192 192 192 255 0.328948 0.448397
0.078461 0.128617 -0.305997 1 0 -2 192 192 192 255 0.328948 0.448397
0.078461 0.128617 -0.149077 2 0 1 192 192 192 255 0.328948 0.448397
-0.257637 0 -0.367481 -2 0 -1 192 192 192 255 0.325046 0.446057
-0.257637 0 0.138445 -1 0 2 192 192 192 255 0.325046 0.446057
-0.257637 0.128617 -0.367481 -1 3 -2 192 192 192 255 0.325046 0.446057
-0.257637 0.128617 0.138445 -2 3 1 192 192 192 255 0.325046 0.446057
0.257637 0.128617 -0.367481 2 3 -1 192 192 192 255 0.325046 0.446057
0.257637 0.128617 0.138445 1 3 2 192 192 192 255 0.325046 0.446057
0.257637 0 -0.367481 1 0 -2 192 192 192 255 0.325046 0.446057
0.257637 0 0.138445 2 0 1 192 192 192 255 0.325046 0.446057
-0.132164 0.128617 -0.077854 0 5 0 192 192 192 255 0.485298 0.444664
-0.132164 0.128617 0.072594 0 4 0 192 192 192 255 0.485298 0.444664
0.132164 0.128617 0.072594 0 5 0 192 192 192 255 0.485298 0.444664
0.132164 0.128617 -0.077854 0 4 0 192 192 192 255 0.485298 0.444664
-0.040665 0.2012 -0.186876 -1 3 2 192 192 192 255 0.301157 0.471973
0.040665 0.2012 -0.186876 2 3 1 192 192 192 255 0.301157 0.471973
0.040665 0.677214 -0.186876 3 -0.797165 2.60376 192 192 192 255 0.301157 0.471973
-0.040665 0.677214 -0.186876 -3 -1.59433 2.20752 192 192 192 255 0.301157 0.471973
0.040665 0.2012 -0.268201 1 3 -2 192 192 192 255 0.301157 0.471973
-0.040665 0.2012 -0.268201 -2 3 -1 192 192 192 255 0.301157 0.471973
-0.040665 0.726872 -0.268201 -3 0.788832 -2.61461 192 192 192 255 0.301157 0.471973
0.040665 0.726872 -0.268201 3 1.57766 -2.22922 192 192 192 255 0.301157 0.471973
-0.040665 0.677214 -0.186876 -3 -1.59433 2.20752 192 192 192 255 0.238081 0.475647
0.040665 0.677214 -0.186876 3 -0.797165 2.60376 192 192 192 255 0.238081 0.475647
-0.040665 0.947626 0.170157 -2.99812 -2.51092 1.64513 192 192 192 255 0.238081 0.475647
0.040665 0.947626 0.170157 2.99623 -2.50677 1.65488 192 192 192 255 0.268088 0.472585
0.040665 0.726872 -0.268201 3 1.57766 -2.22922 192 192 192 255 0.326877 0.474422
-0.040665 0.726872 -0.268201 -3 0.788832 -2.61461 192 192 192 255 0.326877 0.474422
-0.040665 1.02357 0.112603 -2.99623 2.25515 -1.98663 192 192 192 255 0.326877 0.474422
0.040665 1.02357 0.112603 2.99812 2.25495 -1.98278 192 192 192 255 0.326877 0.474422
-0.040665 1.02357 0.112603 -2.99623 2.25515 -1.98663 192 192 192 255 0.382301 0.474313
-0.040665 0.947626 0.170157 -2.99812 -2.51092 1.64513 192 192 192 255 0.382301 0.474313
-0.040665 0.947626 0.170157 -2.99812 -2.51092 1.64513 192 192 192 255 0.319226 0.477988
0.040665 0.947626 0.170157 2.99623 -2.50677 1.65488 192 192 192 255 0.319226 0.477988
-0.054214 1.06813 0.355474 -2.84165 -1.15222 2.79236 192 192 192 255 0.319226 0.477988
0.040665 0.947626 0.170157 2.99623 -2.50677 1.65488 192 192 192 255 0.382301 0.474313
0.040665 1.02357 0.112603 2.99812 2.25495 -1.98278 192 192 192 255 0.382301 0.474313
0.054214 1.06813 0.355474 2.68895 -1.34978 2.85242 192 192 192 255 0.382301 0.474313
0.040665 1.02357 0.112603 2.99812 2.25495 -1.98278 192 192 192 255 0.42823 0.476763
-0.040665 1.02357 0.112603 -2.99623 2.25515 -1.98663 192 192 192 255 0.42823 0.476763
-0.054214 1.16939 0.278743 -2.68895 3.1112 -0.527922 192 192 192 255 0.42823 0.476763
0.054214 1.16939 0.278743 2.84165 2.99994 -0.354011 192 192 192 255 0.42823 0.476763
-0.054214 1.16939 0.278743 -2.68895 3.1112 -0.527922 192 192 192 255 0.17865 0.475874
-0.054214 1.06813 0.355474 -2.84165 -1.15222 2.79236 192 192 192 255 0.17865 0.475874
-0.054214 1.06813 0.355474 -2.84165 -1.15222 2.79236 192 192 192 255 0.115574 0.479548
0.054214 1.06813 0.355474 2.68895 -1.34978 2.85242 192 192 192 255 0.115574 0.479548
0.032532 1.10911 0.367481 0.845417 0.968118 3.93905 192 192 192 255 0.115574 0.479548
-0.032532 1.10911 0.367481 -1.69083 0.967918 2.60807 192 192 192 255 0.115574 0.479548
0.054214 1.06813 0.355474 2.68895 -1.34978 2.85242 192 192 192 255 0.17865 0.475874
0.054214 1.16939 0.278743 2.84165 2.99994 -0.354011 192 192 192 255 0.17865 0.475874
0.054214 1.16939 0.278743 2.84165 2.99994 -0.354011 192 192 192 255 0.20437 0.478323
-0.054214 1.16939 0.278743 -2.68895 3.1112 -0.527922 192 192 192 255 0.20437 0.478323
-0.032532 1.16986 0.321442 -0.845417 3.53035 1.99745 192 192 192 255 0.20437 0.478323
0.032532 1.16986 0.321442 1.69083 2.24903 1.63727 192 192 192 255 0.20437 0.478323
-0.040665 0.2012 -0.186876 -1 3 2 192 192 192 255 0.390186 0.443498
-0.040665 0.2012 -0.268201 -2 3 -1 192 192 192 255 0.390186 0.443498
0.040665 0.2012 -0.268201 1 3 -2 192 192 192 255 0.390186 0.443498
0.040665 0.2012 -0.186876 2 3 1 192 192 192 255 0.390186 0.443498
-0.078461 0.2012 -0.149077 -2 3 1 192 192 192 255 0.328948 0.448397
-0.078461 0.2012 -0.305997 -1 3 -2 192 192 192 255 0.328948 0.448397
0.078461 0.2012 -0.305997 2 3 -1 192 192 192 255 0.328948 0.448397
0.078461 0.2012 -0.149077 1 3 2 192 192 192 255 0.328948 0.448397
-0.078461 0.2012 -0.305997 -1 3 -2 192 192 192 255 0.362016 0.447785
0.078461 0.2012 -0.305997 2 3 -1 192 192 192 255 0.362016 0.447785
0.078461 0.128617 -0.305997 1 0 -2 192 192 192 255 0.362016 0.447785
-0.078461 0.128617 -0.305997 -2 0 -1 192 192 192 255 0.362016 0.447785
0.078461 0.2012 -0.149077 1 3 2 192 192 192 255 0.362016 0.447785
-0.078461 0.2012 -0.149077 -2 3 1 192 192 192 255 0.362016 0.447785
-0.078461 0.128617 -0.149077 -1 0 2 192 192 192 255 0.362016 0.447785
0.078461 0.128617 -0.149077 2 0 1 192 192 192 255 0.362016 0.447785
-0.257637 0 0.138445 -1 0 2 192 192 192 255 0.358115 0.445444
0.257637 0 0.138445 2 0 1 192 192 192 255 0.358115 0.445444
0.257637 0.128617 0.138445 1 3 2 192 192 192 255 0.358115 0.445444
-0.257637 0.128617 0.138445 -2 3 1 192 192 192 255 0.358115 0.445444
0.257637 0 -0.367481 1 0 -2 192 192 192 255 0.358115 0.445444
-0.257637 0 -0.367481 -2 0 -1 192 192 192 255 0.358115 0.445444
-0.257637 0.128617 -0.367481 -1 3 -2 192 192 192 255 0.358115 0.445444
0.257637 0.128617 -0.367481 2 3 -1 192 192 192 255 0.358115 0.445444
-0.257637 0.128617 -0.367481 -1 3 -2 192 192 192 255 0.386285 0.441157
-0.257637 0.128617 0.138445 -2 3 1 192 192 192 255 0.386285 0.441157
-0.132164 0.128617 0.072594 0 4 0 192 192 192 255 0.386285 0.441157
-0.132164 0.128617 -0.077854 0 5 0 192 192 192 255 0.386285 0.441157
0.257637 0.128617 0.138445 1 3 2 192 192 192 255 0.386285 0.441157
0.132164 0.128617 0.072594 0 5 0 192 192 192 255 0.386285 0.441157
0.257637 0.128617 -0.367481 2 3 -1 192 192 192 255 0.386285 0.441157
0.132164 0.128617 -0.077854 0 4 0 192 192 192 255 0.386285 0.441157
3 0 1 3 
3 0 3 2 
3 16 17 18 
3 16 18 19 
3 4 5 7 
3 4 7 6 
3 40 41 42 
3 40 42 43 
3 44 45 46 
3 44 46 47 
3 2 3 9 
3 2 9 8 
3 48 49 10 
3 48 10 50 
3 5 4 11 
3 5 11 51 
3 52 53 54 
3 52 54 55 
3 56 57 13 
3 56 13 12 
3 58 59 14 
3 58 14 60 
3 61 62 15 
3 61 15 63 
3 64 65 66 
3 64 66 67 
3 68 69 17 
3 68 17 16 
3 70 71 72 
3 70 72 73 
3 74 75 19 
3 74 19 18 
3 76 77 78 
3 76 78 79 
3 80 81 20 
3 80 20 21 
3 82 83 23 
3 82 23 22 
3 81 82 22 
3 81 22 20 
3 83 80 21 
3 83 21 23 
3 84 85 24 
3 84 24 25 
3 86 87 27 
3 86 27 26 
3 88 89 90 
3 88 90 91 
3 92 93 94 
3 92 94 95 
3 28 29 31 
3 28 31 30 
3 36 37 38 
3 36 38 39 
3 32 33 35 
3 32 35 34 
3 96 97 98 
3 96 98 99 
3 100 101 102 
3 100 102 103 
3 104 105 106 
3 104 106 107 
3 105 108 109 
3 105 109 106 
3 108 110 111 
3 108 111 109 
3 110 104 107 
3 110 107 111 
