ply
format ascii 1.0
comment VCGLIB generated
comment TextureFile WorldMap.png
element vertex 80
property float x
property float y
property float z
property float nx
property float ny
property float nz
property uchar red
property uchar green
property uchar blue
property uchar alpha
property float texture_u
property float texture_v
element face 60
property list uchar int vertex_indices
end_header
-0.213439 0 0.141651 -1 -1 2 192 192 192 255 0.356218 0.478454
0.06986 0 0.141651 3 -2 1 192 192 192 255 0.356218 0.478454
-0.213439 0.38061 0.141651 -2 3 1 192 192 192 255 0.356218 0.478454
0.06986 0.38061 0.141651 3 3 2 192 192 192 255 0.356218 0.478454
-0.213439 0.38061 -0.141651 -1 3 -2 192 192 192 255 0.356218 0.478454
0.06986 0.38061 -0.141651 3 3 -1 192 192 192 255 0.356218 0.478454
-0.213439 0 -0.141651 -2 -2 -1 192 192 192 255 0.356218 0.478454
0.06986 0 -0.141651 3 -1 -2 192 192 192 255 0.356218 0.478454
-0.161107 0.38061 0.089318 1 3 -2 192 192 192 255 0.387882 0.479746
0.017528 0.38061 0.089318 -2 3 -1 192 192 192 255 0.387882 0.479746
0.017528 0.38061 -0.089318 -1 3 2 192 192 192 255 0.387882 0.479746
-0.161107 0.38061 -0.089318 2 3 1 192 192 192 255 0.387882 0.479746
-0.161107 0.338773 0.089318 2 2 -1 192 192 192 255 0.261872 0.397032
0.017528 0.338773 0.089318 -1 1 -2 192 192 192 255 0.261872 0.397032
0.017528 0.338773 -0.089318 -2 2 1 192 192 192 255 0.261872 0.397032
-0.161107 0.338773 -0.089318 1 1 2 192 192 192 255 0.261872 0.397032
0.06986 0.084946 -0.043583 3 -1 -3 192 192 192 255 0.326493 0.477807
0.06986 0.084946 0.043583 3 -2 3 192 192 192 255 0.326493 0.477807
0.06986 0.295663 -0.043583 3 2 -3 192 192 192 255 0.326493 0.477807
0.06986 0.295663 0.043583 3 1 3 192 192 192 255 0.326493 0.477807
0.213439 0.084946 -0.043583 1 -2 -3 192 192 192 255 0.326493 0.477807
0.213439 0.084946 0.043583 2 -1 3 192 192 192 255 0.326493 0.477807
0.213439 0.295663 -0.043583 2 1 -3 192 192 192 255 0.326493 0.477807
0.213439 0.295663 0.043583 1 2 3 192 192 192 255 0.326493 0.477807
0.100297 0.250995 -0.043583 0 0 -4 192 192 192 255 0.258641 0.479746
0.100297 0.129615 -0.043583 0 0 -5 192 192 192 255 0.258641 0.479746
0.183003 0.250995 -0.043583 0 0 -5 192 192 192 255 0.258641 0.479746
0.183003 0.129615 -0.043583 0 0 -4 192 192 192 255 0.258641 0.479746
0.100297 0.129615 0.043583 0 0 4 192 192 192 255 0.258641 0.479746
0.100297 0.250995 0.043583 0 0 5 192 192 192 255 0.258641 0.479746
0.183003 0.129615 0.043583 0 0 5 192 192 192 255 0.258641 0.479746
0.183003 0.250995 0.043583 0 0 4 192 192 192 255 0.258641 0.479746
-0.213439 0 -0.141651 -2 -2 -1 192 192 192 255 0.320677 0.4791
0.06986 0 -0.141651 3 -1 -2 192 192 192 255 0.320677 0.4791
0.06986 0 0.141651 3 -2 1 192 192 192 255 0.320677 0.4791
-0.213439 0 0.141651 -1 -1 2 192 192 192 255 0.320677 0.4791
-0.213439 0 -0.141651 -2 -2 -1 192 192 192 255 0.326493 0.477807
-0.213439 0 0.141651 -1 -1 2 192 192 192 255 0.326493 0.477807
-0.213439 0.38061 0.141651 -2 3 1 192 192 192 255 0.326493 0.477807
-0.213439 0.38061 -0.141651 -1 3 -2 192 192 192 255 0.326493 0.477807
-0.213439 0.38061 0.141651 -2 3 1 192 192 192 255 0.387882 0.479746
0.06986 0.38061 0.141651 3 3 2 192 192 192 255 0.387882 0.479746
0.06986 0.38061 -0.141651 3 3 -1 192 192 192 255 0.387882 0.479746
-0.213439 0.38061 -0.141651 -1 3 -2 192 192 192 255 0.387882 0.479746
-0.161107 0.38061 0.089318 1 3 -2 192 192 192 255 0.356218 0.478454
0.017528 0.38061 0.089318 -2 3 -1 192 192 192 255 0.356218 0.478454
0.017528 0.338773 0.089318 -1 1 -2 192 192 192 255 0.356218 0.478454
-0.161107 0.338773 0.089318 2 2 -1 192 192 192 255 0.356218 0.478454
0.017528 0.38061 -0.089318 -1 3 2 192 192 192 255 0.356218 0.478454
0.017528 0.338773 -0.089318 -2 2 1 192 192 192 255 0.356218 0.478454
-0.161107 0.38061 -0.089318 2 3 1 192 192 192 255 0.356218 0.478454
-0.161107 0.338773 -0.089318 1 1 2 192 192 192 255 0.356218 0.478454
0.06986 0 0.141651 3 -2 1 192 192 192 255 0.326493 0.477807
0.06986 0 -0.141651 3 -1 -2 192 192 192 255 0.326493 0.477807
0.06986 0.38061 -0.141651 3 3 -1 192 192 192 255 0.326493 0.477807
0.06986 0.38061 0.141651 3 3 2 192 192 192 255 0.326493 0.477807
0.06986 0.084946 0.043583 3 -2 3 192 192 192 255 0.320677 0.4791
0.06986 0.084946 -0.043583 3 -1 -3 192 192 192 255 0.320677 0.4791
0.213439 0.084946 -0.043583 1 -2 -3 192 192 192 255 0.320677 0.4791
0.213439 0.084946 0.043583 2 -1 3 192 192 192 255 0.320677 0.4791
0.06986 0.295663 -0.043583 3 2 -3 192 192 192 255 0.396283 0.475223
0.06986 0.295663 0.043583 3 1 3 192 192 192 255 0.396283 0.475223
0.213439 0.295663 0.043583 1 2 3 192 192 192 255 0.396283 0.475223
0.213439 0.295663 -0.043583 2 1 -3 192 192 192 255 0.396283 0.475223
0.06986 0.084946 -0.043583 3 -1 -3 192 192 192 255 0.356218 0.478454
0.06986 0.295663 -0.043583 3 2 -3 192 192 192 255 0.356218 0.478454
0.100297 0.250995 -0.043583 0 0 -4 192 192 192 255 0.356218 0.478454
0.100297 0.129615 -0.043583 0 0 -5 192 192 192 255 0.356218 0.478454
0.213439 0.295663 -0.043583 2 1 -3 192 192 192 255 0.356218 0.478454
0.183003 0.250995 -0.043583 0 0 -5 192 192 192 255 0.356218 0.478454
0.213439 0.084946 -0.043583 1 -2 -3 192 192 192 255 0.356218 0.478454
0.183003 0.129615 -0.043583 0 0 -4 192 192 192 255 0.356218 0.478454
0.06986 0.295663 0.043583 3 1 3 192 192 192 255 0.356218 0.478454
0.06986 0.084946 0.043583 3 -2 3 192 192 192 255 0.356218 0.478454
0.100297 0.129615 0.043583 0 0 4 192 192 192 255 0.356218 0.478454
0.100297 0.250995 0.043583 0 0 5 192 192 192 255 0.356218 0.478454
0.213439 0.084946 0.043583 2 -1 3 192 192 192 255 0.356218 0.478454
0.183003 0.129615 0.043583 0 0 5 192 192 192 255 0.356218 0.478454
0.213439 0.295663 0.043583 1 2 3 192 192 192 255 0.356218 0.478454
0.183003 0.250995 0.043583 0 0 4 192 192 192 255 0.356218 0.478454
3 0 1 3 
3 0 3 2 
3 12 13 14 
3 12 14 15 
3 4 5 7 
3 4 7 6 
3 32 33 34 
3 32 34 35 
3 21 20 22 
3 21 22 23 
3 36 37 38 
3 36 38 39 
3 40 41 9 
3 40 9 8 
3 41 42 10 
3 41 10 9 
3 42 43 11 
3 42 11 10 
3 43 40 8 
3 43 8 11 
3 44 45 46 
3 44 46 47 
3 45 48 49 
3 45 49 46 
3 48 50 51 
3 48 51 49 
3 50 44 47 
3 50 47 51 
3 52 53 16 
3 52 16 17 
3 53 54 18 
3 53 18 16 
3 54 55 19 
3 54 19 18 
3 55 52 17 
3 55 17 19 
3 56 57 58 
3 56 58 59 
3 25 24 26 
3 25 26 27 
3 60 61 62 
3 60 62 63 
3 29 28 30 
3 29 30 31 
3 64 65 66 
3 64 66 67 
3 65 68 69 
3 65 69 66 
3 68 70 71 
3 68 71 69 
3 70 64 67 
3 70 67 71 
3 72 73 74 
3 72 74 75 
3 73 76 77 
3 73 77 74 
3 76 78 79 
3 76 79 77 
3 78 72 75 
3 78 75 79 
