ply
format ascii 1.0
comment VCGLIB generated
comment TextureFile WorldMap.png
element vertex 80
property float x
property float y
property float z
property float nx
property float ny
property float nz
property uchar red
property uchar green
property uchar blue
property uchar alpha
property float texture_u
property float texture_v
element face 52
property list uchar int vertex_indices
end_header
-0.406568 -0.022446 0.548069 -1 -3 2 192 192 192 255 0.265772 0.443252
0.406569 -0.022446 0.548069 2 -3 1 192 192 192 255 0.265772 0.443252
-0.406568 0.022446 0.548069 -2 3 1 192 192 192 255 0.265772 0.443252
0.406569 0.022446 0.548069 1 3 2 192 192 192 255 0.265772 0.443252
-0.406568 0.022446 -0.308707 -1 3 -2 192 192 192 255 0.265772 0.443252
0.406569 0.022446 -0.308707 2 3 -1 192 192 192 255 0.265772 0.443252
-0.406568 -0.022446 -0.308707 -2 -3 -1 192 192 192 255 0.265772 0.443252
0.406569 -0.022446 -0.308707 1 -3 -2 192 192 192 255 0.265772 0.443252
-0.324938 0.022446 0.397968 -0.882386 4.26566 1.83515 192 192 192 255 0.300637 0.443252
0.32494 0.022446 0.397968 1.76477 4.33862 0.917573 192 192 192 255 0.300637 0.443252
0.32494 0.022446 -0.130069 0.882386 4.26563 -1.83516 192 192 192 255 0.300637 0.443252
-0.324938 0.022446 -0.130069 -1.76477 4.3386 -0.91758 192 192 192 255 0.300637 0.443252
-0.324938 -0.022446 -0.130069 -0.882388 -4.26562 -1.83516 192 192 192 255 0.200753 0.443252
0.32494 -0.022446 -0.130069 1.76478 -4.33859 -0.917581 192 192 192 255 0.200753 0.443252
0.32494 -0.022446 0.397968 0.882388 -4.26565 1.83515 192 192 192 255 0.200753 0.443252
-0.324938 -0.022446 0.397968 -1.76478 -4.33861 0.917574 192 192 192 255 0.200753 0.443252
-0.272132 0.121474 0.355061 -1.76477 4.33862 0.917573 192 192 192 255 0.22427 0.443037
0.272134 0.121474 0.355061 0.882386 4.26566 1.83515 192 192 192 255 0.22427 0.443037
0.272134 0.121474 -0.087164 1.76477 4.3386 -0.91758 192 192 192 255 0.197672 0.443024
-0.272132 0.121474 -0.087164 -0.882386 4.26563 -1.83516 192 192 192 255 0.22427 0.443037
-0.272132 -0.121475 -0.087164 -1.76478 -3.33859 -0.917581 192 192 192 255 0.111371 0.443017
0.272134 -0.121475 -0.087164 0.882388 -2.26562 -1.83516 192 192 192 255 0.111371 0.443017
0.272134 -0.121475 0.355061 1.76478 -3.33861 0.917574 192 192 192 255 0.111371 0.443017
-0.272132 -0.121475 0.355061 -0.882388 -2.26565 1.83515 192 192 192 255 0.111371 0.443017
-0.224083 0.121474 0.082337 0 5 0 192 192 192 255 0.423193 0.480927
0.05694 0.121474 0.082337 0 4 0 192 192 192 255 0.423193 0.480927
0.05694 0.121474 -0.045428 0 5 0 192 192 192 255 0.423193 0.480927
-0.224083 0.121474 -0.045428 0 4 0 192 192 192 255 0.423193 0.480927
0.406569 -0.022446 0.548069 2 -3 1 192 192 192 255 0.233733 0.443252
0.406569 -0.022446 -0.308707 1 -3 -2 192 192 192 255 0.233733 0.443252
0.406569 0.022446 -0.308707 2 3 -1 192 192 192 255 0.233733 0.443252
0.406569 0.022446 0.548069 1 3 2 192 192 192 255 0.233733 0.443252
-0.406568 -0.022446 -0.308707 -2 -3 -1 192 192 192 255 0.233733 0.443252
-0.406568 -0.022446 0.548069 -1 -3 2 192 192 192 255 0.233733 0.443252
-0.406568 0.022446 0.548069 -2 3 1 192 192 192 255 0.233733 0.443252
-0.406568 0.022446 -0.308707 -1 3 -2 192 192 192 255 0.233733 0.443252
-0.406568 0.022446 0.548069 -2 3 1 192 192 192 255 0.300637 0.443252
0.406569 0.022446 0.548069 1 3 2 192 192 192 255 0.300637 0.443252
0.406569 0.022446 -0.308707 2 3 -1 192 192 192 255 0.300637 0.443252
-0.406568 0.022446 -0.308707 -1 3 -2 192 192 192 255 0.300637 0.443252
-0.406568 -0.022446 -0.308707 -2 -3 -1 192 192 192 255 0.200753 0.443252
0.406569 -0.022446 -0.308707 1 -3 -2 192 192 192 255 0.200753 0.443252
0.406569 -0.022446 0.548069 2 -3 1 192 192 192 255 0.200753 0.443252
-0.406568 -0.022446 0.548069 -1 -3 2 192 192 192 255 0.200753 0.443252
-0.324938 0.022446 0.397968 -0.882386 4.26566 1.83515 192 192 192 255 0.22427 0.443037
0.32494 0.022446 0.397968 1.76477 4.33862 0.917573 192 192 192 255 0.22427 0.443037
0.32494 0.022446 0.397968 1.76477 4.33862 0.917573 192 192 192 255 0.197672 0.443024
0.32494 0.022446 -0.130069 0.882386 4.26563 -1.83516 192 192 192 255 0.197672 0.443024
0.272134 0.121474 0.355061 0.882386 4.26566 1.83515 192 192 192 255 0.197672 0.443024
0.32494 0.022446 -0.130069 0.882386 4.26563 -1.83516 192 192 192 255 0.22427 0.443037
-0.324938 0.022446 -0.130069 -1.76477 4.3386 -0.91758 192 192 192 255 0.22427 0.443037
0.272134 0.121474 -0.087164 1.76477 4.3386 -0.91758 192 192 192 255 0.22427 0.443037
-0.324938 0.022446 -0.130069 -1.76477 4.3386 -0.91758 192 192 192 255 0.197672 0.443024
-0.324938 0.022446 0.397968 -0.882386 4.26566 1.83515 192 192 192 255 0.197672 0.443024
-0.272132 0.121474 0.355061 -1.76477 4.33862 0.917573 192 192 192 255 0.197672 0.443024
-0.272132 0.121474 -0.087164 -0.882386 4.26563 -1.83516 192 192 192 255 0.197672 0.443024
-0.324938 -0.022446 -0.130069 -0.882388 -4.26562 -1.83516 192 192 192 255 0.170584 0.443037
0.32494 -0.022446 -0.130069 1.76478 -4.33859 -0.917581 192 192 192 255 0.170584 0.443037
0.272134 -0.121475 -0.087164 0.882388 -2.26562 -1.83516 192 192 192 255 0.170584 0.443037
-0.272132 -0.121475 -0.087164 -1.76478 -3.33859 -0.917581 192 192 192 255 0.170584 0.443037
0.32494 -0.022446 -0.130069 1.76478 -4.33859 -0.917581 192 192 192 255 0.143986 0.443024
0.32494 -0.022446 0.397968 0.882388 -4.26565 1.83515 192 192 192 255 0.143986 0.443024
0.272134 -0.121475 0.355061 1.76478 -3.33861 0.917574 192 192 192 255 0.143986 0.443024
0.272134 -0.121475 -0.087164 0.882388 -2.26562 -1.83516 192 192 192 255 0.143986 0.443024
0.32494 -0.022446 0.397968 0.882388 -4.26565 1.83515 192 192 192 255 0.170584 0.443037
-0.324938 -0.022446 0.397968 -1.76478 -4.33861 0.917574 192 192 192 255 0.170584 0.443037
-0.272132 -0.121475 0.355061 -0.882388 -2.26565 1.83515 192 192 192 255 0.170584 0.443037
0.272134 -0.121475 0.355061 1.76478 -3.33861 0.917574 192 192 192 255 0.170584 0.443037
-0.324938 -0.022446 0.397968 -1.76478 -4.33861 0.917574 192 192 192 255 0.143986 0.443024
-0.324938 -0.022446 -0.130069 -0.882388 -4.26562 -1.83516 192 192 192 255 0.143986 0.443024
-0.272132 -0.121475 -0.087164 -1.76478 -3.33859 -0.917581 192 192 192 255 0.143986 0.443024
-0.272132 -0.121475 0.355061 -0.882388 -2.26565 1.83515 192 192 192 255 0.143986 0.443024
-0.272132 0.121474 0.355061 -1.76477 4.33862 0.917573 192 192 192 255 0.264942 0.443017
0.272134 0.121474 0.355061 0.882386 4.26566 1.83515 192 192 192 255 0.264942 0.443017
0.05694 0.121474 0.082337 0 4 0 192 192 192 255 0.264942 0.443017
-0.224083 0.121474 0.082337 0 5 0 192 192 192 255 0.264942 0.443017
0.272134 0.121474 -0.087164 1.76477 4.3386 -0.91758 192 192 192 255 0.264942 0.443017
0.05694 0.121474 -0.045428 0 5 0 192 192 192 255 0.264942 0.443017
-0.272132 0.121474 -0.087164 -0.882386 4.26563 -1.83516 192 192 192 255 0.264942 0.443017
-0.224083 0.121474 -0.045428 0 4 0 192 192 192 255 0.264942 0.443017
3 0 1 3 
3 0 3 2 
3 24 25 26 
3 24 26 27 
3 4 5 7 
3 4 7 6 
3 20 21 22 
3 20 22 23 
3 28 29 30 
3 28 30 31 
3 32 33 34 
3 32 34 35 
3 36 37 9 
3 36 9 8 
3 37 38 10 
3 37 10 9 
3 38 39 11 
3 38 11 10 
3 39 36 8 
3 39 8 11 
3 40 41 13 
3 40 13 12 
3 41 42 14 
3 41 14 13 
3 42 43 15 
3 42 15 14 
3 43 40 12 
3 43 12 15 
3 44 45 17 
3 44 17 16 
3 46 47 18 
3 46 18 48 
3 49 50 19 
3 49 19 51 
3 52 53 54 
3 52 54 55 
3 56 57 58 
3 56 58 59 
3 60 61 62 
3 60 62 63 
3 64 65 66 
3 64 66 67 
3 68 69 70 
3 68 70 71 
3 72 73 74 
3 72 74 75 
3 73 76 77 
3 73 77 74 
3 76 78 79 
3 76 79 77 
3 78 72 75 
3 78 75 79 
