ply
format ascii 1.0
comment VCGLIB generated
comment TextureFile WorldMap.png
element vertex 104
property float x
property float y
property float z
property float nx
property float ny
property float nz
property uchar red
property uchar green
property uchar blue
property uchar alpha
property float texture_u
property float texture_v
element face 60
property list uchar int vertex_indices
end_header
0.051044 0.441899 -0.019865 2 -3.21807 -0.975933 192 192 192 255 0.235557 0.084874
-0.051059 0.441899 -0.019865 -2 -3.43614 -1.95187 192 192 192 255 0.235557 0.084874
0.051044 0.441899 0.080544 1 -3.43612 1.95187 192 192 192 255 0.235557 0.084874
-0.051059 0.441899 0.080544 -1 -3.21806 0.975935 192 192 192 255 0.235557 0.084874
0.051044 -0.218239 0.06068 1 1 3 192 192 192 255 0.29991 0.085915
-0.051059 -0.218239 0.06068 -1 2 3 192 192 192 255 0.29991 0.085915
0.051044 -0.218239 0 2 2 -3 192 192 192 255 0.293311 0.086806
-0.051059 -0.218239 0 -2 1 -1 192 192 192 255 0.293311 0.086806
0.215508 0.441899 -0.065082 1 -3 -1 192 192 192 255 0.235557 0.084874
-0.215505 0.441899 -0.065082 -2 -3.00002 -2 192 192 192 255 0.235557 0.084874
-0.215505 0.441899 0.125762 -1 -3.00001 1 192 192 192 255 0.235557 0.084874
0.215508 0.441899 0.125762 2 -3 2 192 192 192 255 0.235557 0.084874
0.215508 0.646203 -0.065082 2 1 -2 192 192 192 255 0.25879 0.084874
-0.215507 0.646203 -0.065082 -1 1.99999 -1 192 192 192 255 0.25879 0.084874
-0.215507 0.646203 0.125762 -2 0.99998 2 192 192 192 255 0.25879 0.084874
0.215508 0.646203 0.125762 1 2 1 192 192 192 255 0.25879 0.084874
0.080197 -0.218239 0.06068 1 2 2 192 192 192 255 0.224333 0.081454
-0.080197 -0.218239 0.06068 -2 1 4 192 192 192 255 0.224333 0.081454
-0.080197 -0.218239 0 -1 2 -3 192 192 192 255 0.224333 0.081454
0.080197 -0.218239 0 2 1 -2 192 192 192 255 0.293311 0.086806
0.080197 -0.326267 0.06068 2 -1 2 192 192 192 255 0.264126 0.082057
-0.080197 -0.326267 0.06068 -1 -2 1 192 192 192 255 0.264126 0.082057
-0.080197 -0.326267 0 -2 -1 -1 192 192 192 255 0.293311 0.086806
0.080197 -0.326267 0 1 -2 -2 192 192 192 255 0.293311 0.086806
0.051044 -0.119428 0 2 0 -3 192 192 192 255 0.293311 0.086806
0.051044 -0.119428 0.06068 4 0 3 192 192 192 255 0.29991 0.085915
-0.051059 -0.119428 0.06068 -3 0 3 192 192 192 255 0.29991 0.085915
-0.051059 -0.119428 0 -3 0 -3 192 192 192 255 0.293311 0.086806
0.051044 0.352997 0 3 -0.436141 -2.95187 192 192 192 255 0.175731 0.063419
0.051044 0.352997 0.06068 3 -0.21806 2.97594 192 192 192 255 0.175731 0.063419
-0.051059 0.352997 0.06068 -4 -0.43612 2.95187 192 192 192 255 0.211515 0.063649
-0.051059 0.352997 0 -2 -0.218071 -2.97593 192 192 192 255 0.175731 0.063419
-0.051059 -0.119428 0.06068 -3 0 3 192 192 192 255 0.264126 0.082057
-0.051059 -0.119428 0 -3 0 -3 192 192 192 255 0.264126 0.082057
-0.051059 -0.218239 0 -2 1 -1 192 192 192 255 0.264126 0.082057
-0.051059 -0.218239 0.06068 -1 2 3 192 192 192 255 0.264126 0.082057
0.051044 -0.218239 0 2 2 -3 192 192 192 255 0.264126 0.082057
0.051044 -0.119428 0 2 0 -3 192 192 192 255 0.264126 0.082057
0.051044 -0.119428 0.06068 4 0 3 192 192 192 255 0.264126 0.082057
0.051044 -0.218239 0.06068 1 1 3 192 192 192 255 0.264126 0.082057
-0.215505 0.441899 -0.065082 -2 -3.00002 -2 192 192 192 255 0.25879 0.084874
-0.215505 0.441899 0.125762 -1 -3.00001 1 192 192 192 255 0.25879 0.084874
0.215508 0.441899 0.125762 2 -3 2 192 192 192 255 0.25879 0.084874
0.215508 0.441899 -0.065082 1 -3 -1 192 192 192 255 0.25879 0.084874
0.215508 0.646203 0.125762 1 2 1 192 192 192 255 0.329739 0.084874
0.215508 0.646203 -0.065082 2 1 -2 192 192 192 255 0.329739 0.084874
-0.215507 0.646203 -0.065082 -1 1.99999 -1 192 192 192 255 0.329739 0.084874
-0.215507 0.646203 0.125762 -2 0.99998 2 192 192 192 255 0.329739 0.084874
-0.051059 -0.218239 0.06068 -1 2 3 192 192 192 255 0.224333 0.081454
-0.051059 -0.218239 0 -2 1 -1 192 192 192 255 0.224333 0.081454
-0.080197 -0.218239 0 -1 2 -3 192 192 192 255 0.293311 0.086806
0.051044 -0.218239 0 2 2 -3 192 192 192 255 0.224333 0.081454
0.051044 -0.218239 0.06068 1 1 3 192 192 192 255 0.224333 0.081454
0.080197 -0.218239 0 2 1 -2 192 192 192 255 0.224333 0.081454
-0.080197 -0.218239 0.06068 -2 1 4 192 192 192 255 0.264126 0.082057
-0.080197 -0.218239 0 -1 2 -3 192 192 192 255 0.264126 0.082057
-0.080197 -0.326267 0 -2 -1 -1 192 192 192 255 0.264126 0.082057
0.080197 -0.218239 0 2 1 -2 192 192 192 255 0.264126 0.082057
0.080197 -0.218239 0.06068 1 2 2 192 192 192 255 0.264126 0.082057
0.080197 -0.326267 0 1 -2 -2 192 192 192 255 0.264126 0.082057
-0.080197 -0.218239 0.06068 -2 1 4 192 192 192 255 0.29991 0.085915
-0.080197 -0.326267 0.06068 -1 -2 1 192 192 192 255 0.29991 0.085915
0.080197 -0.326267 0.06068 2 -1 2 192 192 192 255 0.29991 0.085915
0.080197 -0.218239 0.06068 1 2 2 192 192 192 255 0.29991 0.085915
-0.080197 -0.326267 0.06068 -1 -2 1 192 192 192 255 0.224333 0.081454
-0.080197 -0.326267 0 -2 -1 -1 192 192 192 255 0.224333 0.081454
0.080197 -0.326267 0 1 -2 -2 192 192 192 255 0.224333 0.081454
0.080197 -0.326267 0.06068 2 -1 2 192 192 192 255 0.224333 0.081454
-0.215505 0.441899 -0.065082 -2 -3.00002 -2 192 192 192 255 0.295643 0.084874
-0.215507 0.646203 -0.065082 -1 1.99999 -1 192 192 192 255 0.295643 0.084874
0.215508 0.646203 -0.065082 2 1 -2 192 192 192 255 0.295643 0.084874
0.215508 0.441899 -0.065082 1 -3 -1 192 192 192 255 0.295643 0.084874
-0.215507 0.646203 0.125762 -2 0.99998 2 192 192 192 255 0.293086 0.084874
-0.215505 0.441899 0.125762 -1 -3.00001 1 192 192 192 255 0.293086 0.084874
0.215508 0.441899 0.125762 2 -3 2 192 192 192 255 0.293086 0.084874
0.215508 0.646203 0.125762 1 2 1 192 192 192 255 0.293086 0.084874
0.051044 -0.119428 0.06068 4 0 3 192 192 192 255 0.175731 0.063419
0.051044 -0.119428 0 2 0 -3 192 192 192 255 0.175731 0.063419
0.051044 0.352997 0.06068 3 -0.21806 2.97594 192 192 192 255 0.211515 0.063649
-0.051059 -0.119428 0.06068 -3 0 3 192 192 192 255 0.211515 0.063649
0.051044 -0.119428 0.06068 4 0 3 192 192 192 255 0.211515 0.063649
-0.051059 0.352997 0.06068 -4 -0.43612 2.95187 192 192 192 255 0.175731 0.063419
-0.051059 -0.119428 0 -3 0 -3 192 192 192 255 0.175731 0.063419
-0.051059 -0.119428 0.06068 -3 0 3 192 192 192 255 0.175731 0.063419
0.051044 -0.119428 0 2 0 -3 192 192 192 255 0.204916 0.063702
-0.051059 -0.119428 0 -3 0 -3 192 192 192 255 0.204916 0.063702
-0.051059 0.352997 0 -2 -0.218071 -2.97593 192 192 192 255 0.204916 0.063702
0.051044 0.352997 0 3 -0.436141 -2.95187 192 192 192 255 0.204916 0.063702
0.051044 0.352997 0.06068 3 -0.21806 2.97594 192 192 192 255 0.264126 0.082057
0.051044 0.352997 0 3 -0.436141 -2.95187 192 192 192 255 0.264126 0.082057
0.051044 0.441899 -0.019865 2 -3.21807 -0.975933 192 192 192 255 0.264126 0.082057
0.051044 0.441899 0.080544 1 -3.43612 1.95187 192 192 192 255 0.264126 0.082057
0.051044 0.441899 0.080544 1 -3.43612 1.95187 192 192 192 255 0.29991 0.085915
-0.051059 0.441899 0.080544 -1 -3.21806 0.975935 192 192 192 255 0.29991 0.085915
-0.051059 0.352997 0.06068 -4 -0.43612 2.95187 192 192 192 255 0.29991 0.085915
0.051044 0.352997 0.06068 3 -0.21806 2.97594 192 192 192 255 0.29991 0.085915
-0.051059 0.441899 -0.019865 -2 -3.43614 -1.95187 192 192 192 255 0.264126 0.082057
-0.051059 0.352997 0 -2 -0.218071 -2.97593 192 192 192 255 0.264126 0.082057
-0.051059 0.352997 0.06068 -4 -0.43612 2.95187 192 192 192 255 0.264126 0.082057
-0.051059 0.441899 0.080544 -1 -3.21806 0.975935 192 192 192 255 0.264126 0.082057
0.051044 0.352997 0 3 -0.436141 -2.95187 192 192 192 255 0.293311 0.086806
-0.051059 0.352997 0 -2 -0.218071 -2.97593 192 192 192 255 0.293311 0.086806
-0.051059 0.441899 -0.019865 -2 -3.43614 -1.95187 192 192 192 255 0.293311 0.086806
0.051044 0.441899 -0.019865 2 -3.21807 -0.975933 192 192 192 255 0.293311 0.086806
3 25 26 5 
3 25 5 4 
3 6 7 27 
3 6 27 24 
3 32 33 34 
3 32 34 35 
3 36 37 38 
3 36 38 39 
3 1 3 10 
3 1 10 9 
3 2 0 8 
3 2 8 11 
3 40 41 14 
3 40 14 13 
3 42 43 12 
3 42 12 15 
3 44 45 46 
3 44 46 47 
3 48 49 18 
3 48 18 17 
3 50 7 6 
3 50 6 19 
3 50 19 23 
3 50 23 22 
3 51 52 16 
3 51 16 53 
3 54 55 56 
3 54 56 21 
3 57 58 20 
3 57 20 59 
3 60 61 62 
3 60 62 63 
3 60 63 4 
3 60 4 5 
3 64 65 66 
3 64 66 67 
3 68 69 70 
3 68 70 71 
3 72 73 74 
3 72 74 75 
3 76 77 28 
3 76 28 29 
3 78 30 79 
3 78 79 80 
3 81 31 82 
3 81 82 83 
3 84 85 86 
3 84 86 87 
3 88 89 90 
3 88 90 91 
3 92 93 94 
3 92 94 95 
3 96 97 98 
3 96 98 99 
3 100 101 102 
3 100 102 103 
3 0 1 9 
3 0 9 8 
3 3 2 11 
3 3 11 10 
