ply
format ascii 1.0
comment VCGLIB generated
comment TextureFile WorldMap.png
element vertex 72
property float x
property float y
property float z
property float nx
property float ny
property float nz
property uchar red
property uchar green
property uchar blue
property uchar alpha
property float texture_u
property float texture_v
element face 44
property list uchar int vertex_indices
end_header
-0.312917 -0.06456 0.426379 -1 -1 3 192 192 192 255 0.077549 0.482497
0.31292 -0.06456 0.426379 2 -1 1 192 192 192 255 0.169815 0.004306
-0.312917 0.06456 0.426379 -2 2 3 192 192 192 255 0.139242 0.481405
0.31292 0.06456 0.426379 1 2 2 192 192 192 255 0.231508 0.00417
-0.312917 0.06456 -0.426376 -1 1 -3 192 192 192 255 0.139242 0.481405
0.31292 0.06456 -0.426376 2 1 -1 192 192 192 255 0.231508 0.00417
-0.312917 -0.06456 -0.426376 -2 -2 -3 192 192 192 255 0.077549 0.482497
0.31292 -0.06456 -0.426376 1 -2 -2 192 192 192 255 0.169815 0.004306
-0.193628 0.06456 -0.426376 0 4 -3 192 192 192 255 0.139242 0.481405
-0.193628 -0.06456 -0.426376 0 -2 -3 192 192 192 255 0.077549 0.482497
-0.193628 -0.06456 0.426379 0 -4 3 192 192 192 255 0.077549 0.482497
-0.193628 0.06456 0.426379 0 2 3 192 192 192 255 0.139242 0.481405
-0.289628 -0.04304 0.426379 0 0 5 192 192 192 255 0.292656 0.440459
-0.193628 -0.04304 0.426379 0 0 5 192 192 192 255 0.292656 0.440459
-0.193628 0.04304 0.426379 0 0 7 192 192 192 255 0.292656 0.440459
-0.289628 0.04304 0.426379 0 0 4 192 192 192 255 0.292656 0.440459
-0.289628 0.04304 -0.426376 0 0 -5 192 192 192 255 0.292656 0.440459
-0.193628 0.04304 -0.426376 0 0 -6 192 192 192 255 0.292656 0.440459
-0.193628 -0.04304 -0.426376 0 0 -6 192 192 192 255 0.292656 0.440459
-0.289628 -0.04304 -0.426376 0 0 -4 192 192 192 255 0.292656 0.440459
0.31292 -0.04304 -0.426376 3 0 -3 192 192 192 255 0.258261 0.44155
0.31292 -0.04304 0.426379 3 0 4 192 192 192 255 0.258261 0.44155
0.31292 0.04304 -0.426376 3 0 -3 192 192 192 255 0.258261 0.44155
0.31292 0.04304 0.426379 3 0 2 192 192 192 255 0.258261 0.44155
-0.312917 0.06456 0.426379 -2 2 3 192 192 192 255 0.077549 0.482497
-0.312917 0.06456 -0.426376 -1 1 -3 192 192 192 255 0.077549 0.482497
0.31292 0.04304 -0.426376 3 0 -3 192 192 192 255 0.292656 0.440459
0.31292 -0.04304 -0.426376 3 0 -3 192 192 192 255 0.292656 0.440459
-0.193628 -0.06456 0.426379 0 -4 3 192 192 192 255 0.169815 0.004306
-0.193628 -0.06456 -0.426376 0 -2 -3 192 192 192 255 0.169815 0.004306
0.31292 -0.04304 0.426379 3 0 4 192 192 192 255 0.292656 0.440459
0.31292 0.04304 0.426379 3 0 2 192 192 192 255 0.292656 0.440459
-0.193628 0.06456 -0.426376 0 4 -3 192 192 192 255 0.231508 0.00417
-0.193628 0.06456 0.426379 0 2 3 192 192 192 255 0.231508 0.00417
-0.312917 -0.06456 0.426379 -1 -1 3 192 192 192 255 0.111944 0.481405
-0.193628 -0.06456 0.426379 0 -4 3 192 192 192 255 0.111944 0.481405
-0.193628 -0.04304 0.426379 0 0 5 192 192 192 255 0.111944 0.481405
-0.289628 -0.04304 0.426379 0 0 5 192 192 192 255 0.111944 0.481405
-0.193628 0.06456 0.426379 0 2 3 192 192 192 255 0.111944 0.481405
-0.312917 0.06456 0.426379 -2 2 3 192 192 192 255 0.111944 0.481405
-0.289628 0.04304 0.426379 0 0 4 192 192 192 255 0.111944 0.481405
-0.193628 0.04304 0.426379 0 0 7 192 192 192 255 0.111944 0.481405
-0.312917 0.06456 -0.426376 -1 1 -3 192 192 192 255 0.111944 0.481405
-0.193628 0.06456 -0.426376 0 4 -3 192 192 192 255 0.111944 0.481405
-0.193628 0.04304 -0.426376 0 0 -6 192 192 192 255 0.111944 0.481405
-0.289628 0.04304 -0.426376 0 0 -5 192 192 192 255 0.111944 0.481405
-0.193628 -0.06456 -0.426376 0 -2 -3 192 192 192 255 0.111944 0.481405
-0.312917 -0.06456 -0.426376 -2 -2 -3 192 192 192 255 0.111944 0.481405
-0.289628 -0.04304 -0.426376 0 0 -4 192 192 192 255 0.111944 0.481405
-0.193628 -0.04304 -0.426376 0 0 -6 192 192 192 255 0.111944 0.481405
0.31292 -0.04304 -0.426376 3 0 -3 192 192 192 255 0.169815 0.004306
0.31292 -0.04304 0.426379 3 0 4 192 192 192 255 0.169815 0.004306
0.31292 0.06456 -0.426376 2 1 -1 192 192 192 255 0.169815 0.004306
0.31292 0.06456 0.426379 1 2 2 192 192 192 255 0.169815 0.004306
0.31292 0.04304 0.426379 3 0 2 192 192 192 255 0.169815 0.004306
0.31292 0.04304 -0.426376 3 0 -3 192 192 192 255 0.169815 0.004306
-0.193628 0.06456 -0.426376 0 4 -3 192 192 192 255 0.204211 0.00417
0.31292 0.06456 -0.426376 2 1 -1 192 192 192 255 0.204211 0.00417
0.31292 0.04304 -0.426376 3 0 -3 192 192 192 255 0.204211 0.00417
-0.193628 0.04304 -0.426376 0 0 -6 192 192 192 255 0.204211 0.00417
0.31292 -0.06456 -0.426376 1 -2 -2 192 192 192 255 0.204211 0.00417
-0.193628 -0.06456 -0.426376 0 -2 -3 192 192 192 255 0.204211 0.00417
-0.193628 -0.04304 -0.426376 0 0 -6 192 192 192 255 0.204211 0.00417
0.31292 -0.04304 -0.426376 3 0 -3 192 192 192 255 0.204211 0.00417
-0.193628 -0.06456 0.426379 0 -4 3 192 192 192 255 0.204211 0.00417
0.31292 -0.06456 0.426379 2 -1 1 192 192 192 255 0.204211 0.00417
0.31292 -0.04304 0.426379 3 0 4 192 192 192 255 0.204211 0.00417
-0.193628 -0.04304 0.426379 0 0 5 192 192 192 255 0.204211 0.00417
0.31292 0.06456 0.426379 1 2 2 192 192 192 255 0.204211 0.00417
-0.193628 0.06456 0.426379 0 2 3 192 192 192 255 0.204211 0.00417
-0.193628 0.04304 0.426379 0 0 7 192 192 192 255 0.204211 0.00417
0.31292 0.04304 0.426379 3 0 2 192 192 192 255 0.204211 0.00417
3 12 13 14 
3 12 14 15 
3 2 11 8 
3 2 8 4 
3 16 17 18 
3 16 18 19 
3 6 9 10 
3 6 10 0 
3 21 20 22 
3 21 22 23 
3 6 0 24 
3 6 24 25 
3 17 26 27 
3 17 27 18 
3 28 29 7 
3 28 7 1 
3 14 13 30 
3 14 30 31 
3 32 33 3 
3 32 3 5 
3 34 35 36 
3 34 36 37 
3 38 39 40 
3 38 40 41 
3 39 34 37 
3 39 37 40 
3 42 43 44 
3 42 44 45 
3 46 47 48 
3 46 48 49 
3 47 42 45 
3 47 45 48 
3 1 7 50 
3 1 50 51 
3 52 53 54 
3 52 54 55 
3 56 57 58 
3 56 58 59 
3 60 61 62 
3 60 62 63 
3 64 65 66 
3 64 66 67 
3 68 69 70 
3 68 70 71 
