ply
format ascii 1.0
comment VCGLIB generated
comment TextureFile WorldMap.png
element vertex 154
property float x
property float y
property float z
property float nx
property float ny
property float nz
property uchar red
property uchar green
property uchar blue
property uchar alpha
property float texture_u
property float texture_v
element face 100
property list uchar int vertex_indices
end_header
-0.051044 -0.441897 0 -2 1 -2.99998 192 192 192 255 0.224333 0.081454
0.051058 -0.441897 0 2 2 -4.00265 192 192 192 255 0.224333 0.081454
-0.051044 -0.441898 0.06068 -1 2 4.00003 192 192 192 255 0.224333 0.081454
0.051058 -0.441898 0.06068 1 1 3.00002 192 192 192 255 0.224333 0.081454
-0.051044 0.21824 0.06068 -1.57603 -0.817432 5 192 192 192 255 0.29991 0.085915
0.051058 0.21824 0.06068 2.15226 -1.63472 3 192 192 192 255 0.29991 0.085915
-0.051044 0.21824 0 -3.15205 -1.63486 -3 192 192 192 255 0.293311 0.086806
0.051058 0.21824 0 2.57613 -0.817358 -5 192 192 192 255 0.293311 0.086806
-0.100525 -0.441897 0 -1 2 -1.99997 192 192 192 255 0.224333 0.081454
0.100522 -0.441897 0 2 1 -2.00267 192 192 192 255 0.224333 0.081454
0.100522 -0.441898 0.06068 1 2 2.00003 192 192 192 255 0.224333 0.081454
-0.100525 -0.441898 0.06068 -2 1 4.00002 192 192 192 255 0.224333 0.081454
-0.100525 -0.660931 0 -2 -1 -3 192 192 192 255 0.264126 0.082057
0.100522 -0.660931 0 1 -2 -3 192 192 192 255 0.264126 0.082057
0.100522 -0.660931 0.06068 2 -1 3 192 192 192 255 0.264126 0.082057
-0.100525 -0.660931 0.06068 -1 -2 3 192 192 192 255 0.264126 0.082057
-0.106143 0.257067 0.06068 -2.15205 -1.63486 2 192 192 192 255 0.29991 0.085915
0.106142 0.257067 0.06068 2.57613 -0.817358 3 192 192 192 255 0.29991 0.085915
0.106142 0.257067 0 2.15226 -1.63472 -2 192 192 192 255 0.224333 0.081454
-0.106143 0.257067 0 -2.57603 -0.817432 -4 192 192 192 255 0.293311 0.086806
-0.106143 0.406938 0.06068 -2 1 2 192 192 192 255 0.264126 0.082057
0.106142 0.406938 0.06068 1 2 2 192 192 192 255 0.264126 0.082057
0.106142 0.406938 0 2 1 -2 192 192 192 255 0.264126 0.082057
-0.106143 0.406938 0 -1 2 -1 192 192 192 255 0.293311 0.086806
-0.043243 0.406938 0.06068 1 2 1 192 192 192 255 0.224333 0.081454
0.043251 0.406938 0.06068 -1 1 1 192 192 192 255 0.224333 0.081454
0.043251 0.406938 0 -1 2 -1 192 192 192 255 0.224333 0.081454
-0.043243 0.406938 0 2 1 -2 192 192 192 255 0.293311 0.086806
-0.043243 0.288879 0.06068 3 1 4 192 192 192 255 0.29991 0.085915
0.043251 0.288879 0.06068 -2 2 4 192 192 192 255 0.29991 0.085915
-0.043243 0.288879 0 1 2 -3 192 192 192 255 0.293311 0.086806
0.043251 0.288879 0 -2 1 -4 192 192 192 255 0.293311 0.086806
-0.043243 0.406938 0.03034 2 0 0 192 192 192 255 0.264126 0.082057
0.043251 0.406938 0.03034 -3 0 0 192 192 192 255 0.264126 0.082057
-0.05153 -0.496149 0 1 -1 -5 192 192 192 255 0.293311 0.086806
0.051538 -0.496149 0 -1 -2 -2.00268 192 192 192 255 0.293311 0.086806
0.051538 -0.609482 0 -2 2 -3 192 192 192 255 0.293311 0.086806
-0.05153 -0.609482 0 2 1 -3 192 192 192 255 0.293311 0.086806
-0.05153 -0.496149 0.06068 2 -2 2 192 192 192 255 0.29991 0.085915
0.051538 -0.496149 0.06068 -2 -1 6 192 192 192 255 0.29991 0.085915
-0.05153 -0.609482 0.06068 1 2 3 192 192 192 255 0.29991 0.085915
0.051538 -0.609482 0.06068 -1 1 3 192 192 192 255 0.29991 0.085915
-0.051044 0.11943 0 -2 0 -3 192 192 192 255 0.293311 0.086806
-0.051044 0.11943 0.06068 -4 0 3 192 192 192 255 0.29991 0.085915
0.051058 0.11943 0.06068 3 0 3 192 192 192 255 0.29991 0.085915
0.051058 0.11943 0 3 0 -3 192 192 192 255 0.293311 0.086806
-0.051044 -0.352996 0 -3 0 -3 192 192 192 255 0.175731 0.063419
-0.051044 -0.352996 0.06068 -3 0 3 192 192 192 255 0.175731 0.063419
0.051058 -0.352996 0.06068 4 0 3 192 192 192 255 0.211515 0.063649
0.051058 -0.352996 0 2 0 -3 192 192 192 255 0.175731 0.063419
0.051058 0.11943 0.06068 3 0 3 192 192 192 255 0.264126 0.082057
0.051058 0.11943 0 3 0 -3 192 192 192 255 0.264126 0.082057
0.051058 0.21824 0 2.57613 -0.817358 -5 192 192 192 255 0.264126 0.082057
0.051058 0.21824 0.06068 2.15226 -1.63472 3 192 192 192 255 0.264126 0.082057
-0.051044 0.21824 0 -3.15205 -1.63486 -3 192 192 192 255 0.264126 0.082057
-0.051044 0.11943 0 -2 0 -3 192 192 192 255 0.264126 0.082057
-0.051044 0.11943 0.06068 -4 0 3 192 192 192 255 0.264126 0.082057
-0.051044 0.21824 0.06068 -1.57603 -0.817432 5 192 192 192 255 0.264126 0.082057
0.100522 -0.441897 0 2 1 -2.00267 192 192 192 255 0.264126 0.082057
0.100522 -0.441898 0.06068 1 2 2.00003 192 192 192 255 0.264126 0.082057
-0.100525 -0.441898 0.06068 -2 1 4.00002 192 192 192 255 0.264126 0.082057
-0.100525 -0.441897 0 -1 2 -1.99997 192 192 192 255 0.264126 0.082057
-0.100525 -0.660931 0.06068 -1 -2 3 192 192 192 255 0.224333 0.081454
-0.100525 -0.660931 0 -2 -1 -3 192 192 192 255 0.224333 0.081454
0.100522 -0.660931 0 1 -2 -3 192 192 192 255 0.224333 0.081454
0.100522 -0.660931 0.06068 2 -1 3 192 192 192 255 0.224333 0.081454
0.051058 0.21824 0.06068 2.15226 -1.63472 3 192 192 192 255 0.224333 0.081454
0.051058 0.21824 0 2.57613 -0.817358 -5 192 192 192 255 0.224333 0.081454
0.106142 0.257067 0.06068 2.57613 -0.817358 3 192 192 192 255 0.224333 0.081454
0.106142 0.257067 0 2.15226 -1.63472 -2 192 192 192 255 0.293311 0.086806
-0.051044 0.21824 0 -3.15205 -1.63486 -3 192 192 192 255 0.224333 0.081454
-0.051044 0.21824 0.06068 -1.57603 -0.817432 5 192 192 192 255 0.224333 0.081454
-0.106143 0.257067 0.06068 -2.15205 -1.63486 2 192 192 192 255 0.224333 0.081454
-0.106143 0.257067 0 -2.57603 -0.817432 -4 192 192 192 255 0.224333 0.081454
0.106142 0.257067 0.06068 2.57613 -0.817358 3 192 192 192 255 0.264126 0.082057
0.106142 0.257067 0 2.15226 -1.63472 -2 192 192 192 255 0.264126 0.082057
-0.106143 0.257067 0 -2.57603 -0.817432 -4 192 192 192 255 0.264126 0.082057
-0.106143 0.257067 0.06068 -2.15205 -1.63486 2 192 192 192 255 0.264126 0.082057
-0.106143 0.406938 0 -1 2 -1 192 192 192 255 0.264126 0.082057
0.106142 0.406938 0.06068 1 2 2 192 192 192 255 0.224333 0.081454
0.106142 0.406938 0 2 1 -2 192 192 192 255 0.224333 0.081454
-0.106143 0.406938 0 -1 2 -1 192 192 192 255 0.224333 0.081454
-0.106143 0.406938 0.06068 -2 1 2 192 192 192 255 0.224333 0.081454
-0.043243 0.406938 0 2 1 -2 192 192 192 255 0.224333 0.081454
-0.043243 0.406938 0.06068 1 2 1 192 192 192 255 0.29991 0.085915
-0.106143 0.406938 0.06068 -2 1 2 192 192 192 255 0.29991 0.085915
0.106142 0.406938 0.06068 1 2 2 192 192 192 255 0.29991 0.085915
0.043251 0.406938 0.06068 -1 1 1 192 192 192 255 0.29991 0.085915
0.106142 0.406938 0 2 1 -2 192 192 192 255 0.293311 0.086806
0.043251 0.406938 0 -1 2 -1 192 192 192 255 0.293311 0.086806
0.043251 0.406938 0.06068 -1 1 1 192 192 192 255 0.264126 0.082057
0.043251 0.406938 0 -1 2 -1 192 192 192 255 0.264126 0.082057
-0.043243 0.406938 0 2 1 -2 192 192 192 255 0.264126 0.082057
-0.043243 0.406938 0.06068 1 2 1 192 192 192 255 0.264126 0.082057
0.043251 0.288879 0 -2 1 -4 192 192 192 255 0.264126 0.082057
0.043251 0.288879 0.06068 -2 2 4 192 192 192 255 0.264126 0.082057
0.043251 0.288879 0.06068 -2 2 4 192 192 192 255 0.224333 0.081454
0.043251 0.288879 0 -2 1 -4 192 192 192 255 0.224333 0.081454
-0.043243 0.288879 0 1 2 -3 192 192 192 255 0.224333 0.081454
-0.043243 0.288879 0.06068 3 1 4 192 192 192 255 0.224333 0.081454
-0.043243 0.288879 0.06068 3 1 4 192 192 192 255 0.264126 0.082057
-0.043243 0.288879 0 1 2 -3 192 192 192 255 0.264126 0.082057
0.051058 -0.441897 0 2 2 -4.00265 192 192 192 255 0.293311 0.086806
0.100522 -0.441897 0 2 1 -2.00267 192 192 192 255 0.293311 0.086806
-0.100525 -0.441897 0 -1 2 -1.99997 192 192 192 255 0.293311 0.086806
-0.051044 -0.441897 0 -2 1 -2.99998 192 192 192 255 0.293311 0.086806
0.100522 -0.660931 0 1 -2 -3 192 192 192 255 0.293311 0.086806
-0.100525 -0.660931 0 -2 -1 -3 192 192 192 255 0.293311 0.086806
0.100522 -0.441898 0.06068 1 2 2.00003 192 192 192 255 0.29991 0.085915
0.051058 -0.441898 0.06068 1 1 3.00002 192 192 192 255 0.29991 0.085915
-0.051044 -0.441898 0.06068 -1 2 4.00003 192 192 192 255 0.29991 0.085915
-0.100525 -0.441898 0.06068 -2 1 4.00002 192 192 192 255 0.29991 0.085915
-0.100525 -0.660931 0.06068 -1 -2 3 192 192 192 255 0.29991 0.085915
0.100522 -0.660931 0.06068 2 -1 3 192 192 192 255 0.29991 0.085915
0.051538 -0.609482 0 -2 2 -3 192 192 192 255 0.224333 0.081454
-0.05153 -0.609482 0 2 1 -3 192 192 192 255 0.224333 0.081454
-0.05153 -0.609482 0.06068 1 2 3 192 192 192 255 0.224333 0.081454
0.051538 -0.609482 0.06068 -1 1 3 192 192 192 255 0.224333 0.081454
-0.05153 -0.609482 0 2 1 -3 192 192 192 255 0.264126 0.082057
-0.05153 -0.496149 0 1 -1 -5 192 192 192 255 0.264126 0.082057
-0.05153 -0.496149 0.06068 2 -2 2 192 192 192 255 0.264126 0.082057
-0.05153 -0.609482 0.06068 1 2 3 192 192 192 255 0.264126 0.082057
0.051538 -0.496149 0 -1 -2 -2.00268 192 192 192 255 0.224333 0.081454
0.051538 -0.496149 0.06068 -2 -1 6 192 192 192 255 0.224333 0.081454
-0.05153 -0.496149 0.06068 2 -2 2 192 192 192 255 0.224333 0.081454
-0.05153 -0.496149 0 1 -1 -5 192 192 192 255 0.224333 0.081454
0.051538 -0.609482 0 -2 2 -3 192 192 192 255 0.264126 0.082057
0.051538 -0.609482 0.06068 -1 1 3 192 192 192 255 0.264126 0.082057
0.051538 -0.496149 0.06068 -2 -1 6 192 192 192 255 0.264126 0.082057
0.051538 -0.496149 0 -1 -2 -2.00268 192 192 192 255 0.264126 0.082057
-0.051044 0.11943 0.06068 -4 0 3 192 192 192 255 0.175731 0.063419
-0.051044 0.11943 0 -2 0 -3 192 192 192 255 0.175731 0.063419
-0.051044 -0.352996 0.06068 -3 0 3 192 192 192 255 0.211515 0.063649
0.051058 0.11943 0.06068 3 0 3 192 192 192 255 0.211515 0.063649
-0.051044 0.11943 0.06068 -4 0 3 192 192 192 255 0.211515 0.063649
0.051058 -0.352996 0.06068 4 0 3 192 192 192 255 0.175731 0.063419
0.051058 0.11943 0 3 0 -3 192 192 192 255 0.175731 0.063419
0.051058 0.11943 0.06068 3 0 3 192 192 192 255 0.175731 0.063419
-0.051044 0.11943 0 -2 0 -3 192 192 192 255 0.204916 0.063702
0.051058 0.11943 0 3 0 -3 192 192 192 255 0.204916 0.063702
0.051058 -0.352996 0 2 0 -3 192 192 192 255 0.204916 0.063702
-0.051044 -0.352996 0 -3 0 -3 192 192 192 255 0.204916 0.063702
-0.051044 -0.352996 0.06068 -3 0 3 192 192 192 255 0.264126 0.082057
-0.051044 -0.352996 0 -3 0 -3 192 192 192 255 0.264126 0.082057
-0.051044 -0.441897 0 -2 1 -2.99998 192 192 192 255 0.264126 0.082057
-0.051044 -0.441898 0.06068 -1 2 4.00003 192 192 192 255 0.264126 0.082057
0.051058 -0.352996 0.06068 4 0 3 192 192 192 255 0.29991 0.085915
-0.051044 -0.352996 0.06068 -3 0 3 192 192 192 255 0.29991 0.085915
0.051058 -0.441897 0 2 2 -4.00265 192 192 192 255 0.264126 0.082057
0.051058 -0.352996 0 2 0 -3 192 192 192 255 0.264126 0.082057
0.051058 -0.352996 0.06068 4 0 3 192 192 192 255 0.264126 0.082057
0.051058 -0.441898 0.06068 1 1 3.00002 192 192 192 255 0.264126 0.082057
-0.051044 -0.352996 0 -3 0 -3 192 192 192 255 0.293311 0.086806
0.051058 -0.352996 0 2 0 -3 192 192 192 255 0.293311 0.086806
3 43 44 5 
3 43 5 4 
3 6 7 45 
3 6 45 42 
3 50 51 52 
3 50 52 53 
3 54 55 56 
3 54 56 57 
3 1 3 10 
3 1 10 9 
3 2 0 8 
3 2 8 11 
3 58 59 14 
3 58 14 13 
3 60 61 12 
3 60 12 15 
3 62 63 64 
3 62 64 65 
3 4 5 17 
3 4 17 29 
3 4 29 28 
3 4 28 16 
3 66 67 18 
3 66 18 68 
3 7 6 19 
3 7 19 30 
3 7 30 31 
3 7 31 69 
3 70 71 72 
3 70 72 73 
3 74 75 22 
3 74 22 21 
3 27 30 19 
3 27 19 23 
3 76 77 20 
3 76 20 78 
3 79 80 26 
3 79 26 25 
3 81 82 24 
3 81 24 83 
3 28 84 85 
3 28 85 16 
3 86 87 29 
3 86 29 17 
3 88 69 31 
3 88 31 89 
3 90 91 33 
3 92 93 32 
3 33 91 94 
3 33 94 95 
3 33 95 90 
3 96 97 98 
3 96 98 99 
3 100 101 92 
3 100 92 32 
3 100 32 93 
3 102 103 35 
3 34 104 105 
3 34 105 102 
3 34 102 35 
3 103 106 36 
3 103 36 35 
3 107 104 34 
3 107 34 37 
3 37 36 106 
3 37 106 107 
3 39 108 109 
3 39 109 110 
3 39 110 111 
3 39 111 38 
3 111 112 40 
3 111 40 38 
3 113 108 39 
3 113 39 41 
3 41 40 112 
3 41 112 113 
3 114 115 116 
3 114 116 117 
3 118 119 120 
3 118 120 121 
3 122 123 124 
3 122 124 125 
3 126 127 128 
3 126 128 129 
3 130 131 46 
3 130 46 47 
3 132 48 133 
3 132 133 134 
3 135 49 136 
3 135 136 137 
3 138 139 140 
3 138 140 141 
3 142 143 144 
3 142 144 145 
3 110 109 146 
3 110 146 147 
3 148 149 150 
3 148 150 151 
3 152 153 102 
3 152 102 105 
