ply
format ascii 1.0
comment VCGLIB generated
comment TextureFile WorldMap.png
element vertex 408
property float x
property float y
property float z
property float nx
property float ny
property float nz
property uchar red
property uchar green
property uchar blue
property uchar alpha
property float texture_u
property float texture_v
element face 276
property list uchar int vertex_indices
end_header
-0.089826 1.36028 0.031777 -2.98802 -0.153848 3.00126 192 192 192 255 0.233325 0.063668
0.026984 1.36028 0.031774 1.57793 2.9438 2.00126 192 192 192 255 0.233325 0.063668
-0.121785 1.56551 0.031774 -2.97616 -0.307715 3 192 192 192 255 0.233325 0.063668
-0.058223 1.56551 0.031774 2.98814 0.153846 3 192 192 192 255 0.233325 0.063668
-0.121785 1.56551 -0.031775 -2.98809 -0.153863 -3 192 192 192 255 0.233325 0.063668
-0.058223 1.56551 -0.031775 2.9762 0.307648 -3 192 192 192 255 0.233325 0.063668
-0.089826 1.36028 -0.031775 -2.97618 -0.307726 -3.00126 192 192 192 255 0.233325 0.063668
0.026984 1.36028 -0.031775 2.57784 2.94382 -1.00126 192 192 192 255 0.233325 0.063668
-0.121785 1.66416 0.031774 -2.60736 0.794426 3 192 192 192 255 0.233325 0.063668
-0.058223 1.63767 0.031774 2.1198 -1.65712 3 192 192 192 255 0.233325 0.063668
-0.058223 1.63767 -0.031775 2.5599 -0.828561 -3 192 192 192 255 0.327363 0.063668
-0.121785 1.66416 -0.031775 -2.21472 1.58885 -3 192 192 192 255 0.233325 0.063668
-0.03411 1.73119 0.031774 -0.998062 2.5651 3 192 192 192 255 0.233325 0.063668
-0.019355 1.66394 0.031774 0.399658 -2.82213 3 192 192 192 255 0.233325 0.063668
-0.019355 1.66394 -0.031775 1.03968 -2.65391 -3 192 192 192 255 0.20456 0.063668
-0.03411 1.73119 -0.031775 -0.174041 2.74692 -3 192 192 192 255 0.233325 0.063668
0.079186 1.70605 0.031774 1.32071 2.41352 3 192 192 192 255 0.233325 0.063668
0.027871 1.66014 0.031774 -1.72173 -2.1392 3 192 192 192 255 0.233325 0.063668
0.027871 1.66014 -0.031775 -0.981048 -2.56478 -3 192 192 192 255 0.20456 0.063668
0.079186 1.70605 -0.031775 1.99143 1.8983 -3 192 192 192 255 0.233325 0.063668
0.121785 1.62405 0.031774 2.69172 0.523036 3 192 192 192 255 0.233325 0.063668
0.052987 1.62405 0.031774 -2.81999 -0.514184 3 192 192 192 255 0.233325 0.063668
0.052987 1.62405 -0.031775 -2.64121 -1.1139 -3 192 192 192 255 0.20456 0.063668
0.121785 1.62405 -0.031775 2.72128 -0.337004 -3 192 192 192 255 0.233325 0.063668
0.089334 1.54948 0.031774 2.84643 -0.831962 2.98865 192 192 192 255 0.233325 0.063668
0.05086 1.54948 0.031774 -2.85319 -0.792123 2.99432 192 192 192 255 0.233325 0.063668
0.05086 1.54948 -0.031775 -2.90474 -0.511473 -2.98865 192 192 192 255 0.264302 0.063668
0.089334 1.54948 -0.031775 2.89954 -0.150523 -2.99432 192 192 192 255 0.233325 0.063668
0.099656 1.49207 0.024991 2.64837 -1.63744 0.994324 192 192 192 255 0.173583 0.063668
0.076034 1.48373 0.024991 -0.572669 -1.51146 1.98865 192 192 192 255 0.173583 0.063668
0.076034 1.48373 -0.024992 -1.18782 -2.70657 -0.994323 192 192 192 255 0.173583 0.063668
0.099656 1.49207 -0.024992 1.34543 -0.976899 -1.98865 192 192 192 255 0.173583 0.063668
-0.089826 0.234481 -0.031775 -2 -3 -1 192 192 192 255 0.264302 0.063668
-0.026269 0.234481 -0.031775 1 -3 -2 192 192 192 255 0.264302 0.063668
-0.026269 0.234481 0.031774 2 -3 1 192 192 192 255 0.233325 0.063668
-0.089826 0.234481 0.031774 -1 -3 2 192 192 192 255 0.264302 0.063668
-0.027951 1.37106 0.031774 2.55406 3.25148 1.00126 192 192 192 255 0.233325 0.063668
-0.027951 1.37106 -0.031775 1.56598 3.09764 -2.00126 192 192 192 255 0.233325 0.063668
0.026984 1.28945 -0.031775 2.88851 -0.658435 -3 192 192 192 255 0.233325 0.063668
0.026984 1.28945 0.031774 2.94432 -0.329232 3 192 192 192 255 0.20456 0.063668
-0.089826 1.28945 0.031776 -2.99993 -1.79634e-005 3 192 192 192 255 0.233325 0.063668
-0.089826 1.28945 -0.031775 -3 0 -3 192 192 192 255 0.233325 0.063668
-0.089826 1.13671 0.031776 -2.58348 1.83241 2.79179 192 192 192 255 0.233325 0.063668
-0.026269 1.13671 0.031774 2.68038 1.17394 2.58358 192 192 192 255 0.20456 0.063668
-0.026269 1.13671 -0.031775 2.52783 1.50318 -2.79177 192 192 192 255 0.233325 0.063668
-0.089826 1.13671 -0.031775 -2.79179 1.83244 -2.58355 192 192 192 255 0.233325 0.063668
0.015304 1.36257 -0.018265 1.48321 2.5191 -2 192 192 192 255 0.327363 0.063668
0.015304 1.36257 0.018263 2.3885 2.09439 1 192 192 192 255 0.327363 0.063668
-0.016271 1.36877 -0.018265 -1.19073 3.87771 -1 192 192 192 255 0.327363 0.063668
-0.016271 1.36877 0.018263 -0.306405 3.41076 2 192 192 192 255 0.327363 0.063668
0.078095 1.49641 -0.018265 2.75046 -0.507721 -1 192 192 192 255 0.264302 0.063668
0.078095 1.49641 0.018263 2.78493 0.258711 2 192 192 192 255 0.264302 0.063668
0.0671 1.52665 -0.018265 0.995319 1.15037 -2 192 192 192 255 0.264302 0.063668
0.0671 1.52665 0.018263 -0.828773 1.2756 1 192 192 192 255 0.264302 0.063668
-0.107081 1.11434 0.049031 -2.79169 1.83239 2.58358 192 192 192 255 0.357234 0.063668
-0.009015 1.11434 0.049027 2.58367 1.83236 2.79179 192 192 192 255 0.357234 0.063668
-0.009015 1.11434 -0.049031 2.79176 1.83242 -2.58355 192 192 192 255 0.388212 0.063668
-0.107081 1.11434 -0.049029 -2.58359 1.83245 -2.79177 192 192 192 255 0.388212 0.063668
-0.089826 0.903243 -0.031775 -2.75572 -1.43678 -2.87785 192 192 192 255 0.234431 0.063668
-0.089826 0.903243 0.031775 -2.87781 -1.43671 2.75575 192 192 192 255 0.234431 0.063668
-0.026269 0.903243 0.031774 2.75578 -1.4367 2.87787 192 192 192 255 0.234431 0.063668
-0.026269 0.903243 -0.031775 2.87786 -1.43677 -2.7557 192 192 192 255 0.265409 0.063668
-0.009015 0.934871 0.049027 2.87793 -1.43669 2.75575 192 192 192 255 0.234431 0.063668
-0.107081 0.934871 0.049029 -2.75564 -1.43675 2.87787 192 192 192 255 0.234431 0.063668
-0.107081 0.934871 -0.04903 -2.87788 -1.43679 -2.7557 192 192 192 255 0.234431 0.063668
-0.009015 0.934871 -0.049031 2.7557 -1.43673 -2.87785 192 192 192 255 0.265409 0.063668
-0.077151 0.638954 -0.019101 -2.82492 0.113417 -2.81116 192 192 192 255 0.20456 0.063668
-0.077151 0.638954 0.019099 -2.81111 0.113433 2.8249 192 192 192 255 0.20456 0.063668
-0.038945 0.638954 0.019099 2.82492 0.113436 2.81112 192 192 192 255 0.173583 0.063668
-0.038945 0.638954 -0.019101 2.81111 0.113491 -2.82494 192 192 192 255 0.20456 0.063668
-0.089826 0.606242 -0.031775 -2.8649 1.08387 -2.93246 192 192 192 255 0.266515 0.063668
-0.089826 0.606242 0.031775 -2.93242 1.08392 2.86489 192 192 192 255 0.266515 0.063668
-0.026269 0.606242 0.031774 2.86492 1.08396 2.93245 192 192 192 255 0.235538 0.063668
-0.026269 0.606242 -0.031775 2.93244 1.08387 -2.86492 192 192 192 255 0.266515 0.063668
-0.026269 0.67603 0.031774 2.94626 -0.970499 2.89246 192 192 192 255 0.173583 0.063668
-0.089826 0.67603 0.031775 -2.89243 -0.970465 2.94623 192 192 192 255 0.20456 0.063668
-0.089826 0.67603 -0.031775 -2.94623 -0.970408 -2.89248 192 192 192 255 0.20456 0.063668
-0.026269 0.67603 -0.031775 2.89245 -0.970476 -2.94624 192 192 192 255 0.20456 0.063668
-0.089826 0.295389 -0.031775 -2.84753 1.14886 -2.92377 192 192 192 255 0.264302 0.063668
-0.089826 0.295389 0.031774 -2.92376 1.14889 2.84753 192 192 192 255 0.264302 0.063668
-0.026269 0.295389 0.031774 2.84751 1.14894 2.92376 192 192 192 255 0.233325 0.063668
-0.026269 0.295389 -0.031775 2.92375 1.14886 -2.84755 192 192 192 255 0.264302 0.063668
-0.026269 0.358715 0.031774 2.93262 -1.08279 2.86519 192 192 192 255 0.112735 0.063668
-0.089826 0.358715 0.031775 -2.86516 -1.08276 2.93259 192 192 192 255 0.143712 0.063668
-0.089826 0.358715 -0.031775 -2.9326 -1.0827 -2.86522 192 192 192 255 0.143712 0.063668
-0.026269 0.358715 -0.031775 2.86518 -1.08277 -2.93261 192 192 192 255 0.143712 0.063668
-0.077151 0.325963 -0.019101 -2.78896 0.066117 -2.78016 192 192 192 255 0.143712 0.063668
-0.077151 0.325963 0.019099 -2.78011 0.0661191 2.78895 192 192 192 255 0.143712 0.063668
-0.038945 0.325963 0.019099 2.78894 0.0661075 2.78012 192 192 192 255 0.112735 0.063668
-0.038945 0.325963 -0.019101 2.7801 0.0661945 -2.78899 192 192 192 255 0.143712 0.063668
-0.075305 0.234481 -0.017259 -0.999918 -2.99997 -2 192 192 192 255 0.20456 0.063668
-0.04079 0.234481 -0.017257 1.66685 -1.89466 -1 192 192 192 255 0.20456 0.063668
-0.04079 0.234481 0.017256 0.833406 -2.44734 2 192 192 192 255 0.20456 0.063668
-0.075305 0.234481 0.017256 -2 -3 1 192 192 192 255 0.20456 0.063668
-0.075305 0.15831 -0.01726 -2.96353 0.267097 -3.00037 192 192 192 255 0.233325 0.063668
-0.011868 0.15831 -0.017257 1.57785 -2.94381 -2.00035 192 192 192 255 0.233325 0.063668
-0.09266 0.095709 -0.017257 -2.92727 0.534275 -3 192 192 192 255 0.233325 0.063668
-0.058143 0.095709 -0.017257 2.96057 -0.278378 -3 192 192 192 255 0.233325 0.063668
-0.09266 0.095709 0.017256 -2.96365 0.267156 3 192 192 192 255 0.233325 0.063668
-0.058143 0.095709 0.017256 2.92099 -0.55661 3 192 192 192 255 0.233325 0.063668
-0.075305 0.15831 0.017256 -2.92731 0.534311 3.00037 192 192 192 255 0.233325 0.063668
-0.011868 0.15831 0.017256 2.57781 -2.94383 1.00032 192 192 192 255 0.233325 0.063668
-0.09266 0.036403 -0.017257 -2.60738 -0.794414 -3 192 192 192 255 0.233325 0.063668
-0.058143 0.050788 -0.017257 2.11983 1.6571 -3 192 192 192 255 0.233325 0.063668
-0.058143 0.050788 0.017256 2.55992 0.82855 3 192 192 192 255 0.264302 0.063668
-0.09266 0.036403 0.017256 -2.21475 -1.58883 3 192 192 192 255 0.233325 0.063668
-0.045047 0 -0.017257 -0.998097 -2.56508 -3 192 192 192 255 0.233325 0.063668
-0.037034 0.036523 -0.017257 0.399641 2.82212 -3 192 192 192 255 0.233325 0.063668
-0.037034 0.036523 0.017256 1.03969 2.65388 3 192 192 192 255 0.327363 0.063668
-0.045047 0 0.017256 -0.174064 -2.74691 3 192 192 192 255 0.233325 0.063668
0.016482 0.013655 -0.017257 1.3207 -2.41353 -3 192 192 192 255 0.233325 0.063668
-0.011386 0.038585 -0.017257 -1.72174 2.13921 -3 192 192 192 255 0.233325 0.063668
-0.011386 0.038585 0.017256 -0.981078 2.56478 3 192 192 192 255 0.327363 0.063668
0.016482 0.013655 0.017256 1.99143 -1.89831 3 192 192 192 255 0.233325 0.063668
0.039617 0.058185 -0.017257 2.61795 -0.384426 -3 192 192 192 255 0.233325 0.063668
0.002254 0.058185 -0.017257 -2.81906 0.487638 -3 192 192 192 255 0.233325 0.063668
0.002254 0.058185 0.017256 -2.64073 1.10064 3 192 192 192 255 0.327363 0.063668
0.039617 0.058185 0.017256 2.57374 0.614237 3 192 192 192 255 0.233325 0.063668
0.021993 0.085825 -0.017257 2.6989 1.10918 -2.98865 192 192 192 255 0.233325 0.063668
0.001098 0.085825 -0.017257 -2.85271 0.778855 -2.99433 192 192 192 255 0.233325 0.063668
0.001098 0.085825 0.017256 -2.9038 0.484953 2.98865 192 192 192 255 0.264302 0.063668
0.021993 0.085825 0.017256 2.82578 0.289186 2.99432 192 192 192 255 0.233325 0.063668
0.027598 0.117 -0.013574 2.64843 1.63744 -0.994326 192 192 192 255 0.296386 0.063668
0.01477 0.121529 -0.013574 -0.572638 1.51143 -1.98865 192 192 192 255 0.296386 0.063668
0.01477 0.121529 0.013572 -1.18775 2.70658 0.994323 192 192 192 255 0.296386 0.063668
0.027598 0.117 0.013572 1.34546 0.976925 1.98865 192 192 192 255 0.296386 0.063668
-0.041701 0.152454 -0.017257 2.4989 -3.50046 -1.00032 192 192 192 255 0.233325 0.063668
-0.041701 0.152454 0.017256 1.53838 -3.22212 2.00035 192 192 192 255 0.233325 0.063668
-0.011868 0.190867 0.017256 2.66681 1.10532 3 192 192 192 255 0.233325 0.063668
-0.011868 0.190867 -0.017257 2.83353 0.552704 -3 192 192 192 255 0.327363 0.063668
-0.075305 0.190867 -0.017259 -2.99988 4.4266e-005 -3 192 192 192 255 0.233325 0.063668
-0.075305 0.190867 0.017256 -3 0 3 192 192 192 255 0.233325 0.063668
-0.018212 0.157065 0.009917 1.35717 -2.31731 1.99997 192 192 192 255 0.20456 0.063668
-0.018212 0.157065 -0.009919 2.13662 -1.69078 -0.999948 192 192 192 255 0.20456 0.063668
-0.035359 0.153699 0.009917 -0.971616 -4.20837 0.999948 192 192 192 255 0.20456 0.063668
-0.035359 0.153699 -0.009919 -0.196859 -3.57609 -1.99997 192 192 192 255 0.20456 0.063668
0.015889 0.114643 0.009917 2.49859 0.911286 1 192 192 192 255 0.264302 0.063668
0.015889 0.114643 -0.009919 2.65898 -0.0569988 -2 192 192 192 255 0.264302 0.063668
0.009917 0.098221 0.009917 1.10483 -1.3158 2 192 192 192 255 0.264302 0.063668
0.009917 0.098221 -0.009919 -0.609702 -1.60631 -1 192 192 192 255 0.264302 0.063668
-0.027951 1.37106 0.031774 2.55406 3.25148 1.00126 192 192 192 255 0.327363 0.063668
-0.027951 1.37106 -0.031775 1.56598 3.09764 -2.00126 192 192 192 255 0.327363 0.063668
-0.058223 1.56551 -0.031775 2.9762 0.307648 -3 192 192 192 255 0.327363 0.063668
-0.058223 1.56551 0.031774 2.98814 0.153846 3 192 192 192 255 0.327363 0.063668
-0.089826 1.36028 -0.031775 -2.97618 -0.307726 -3.00126 192 192 192 255 0.264302 0.063668
-0.089826 1.36028 0.031777 -2.98802 -0.153848 3.00126 192 192 192 255 0.264302 0.063668
-0.121785 1.56551 0.031774 -2.97616 -0.307715 3 192 192 192 255 0.264302 0.063668
-0.121785 1.56551 -0.031775 -2.98809 -0.153863 -3 192 192 192 255 0.264302 0.063668
-0.058223 1.63767 0.031774 2.1198 -1.65712 3 192 192 192 255 0.327363 0.063668
-0.058223 1.63767 -0.031775 2.5599 -0.828561 -3 192 192 192 255 0.233325 0.063668
-0.121785 1.66416 0.031774 -2.60736 0.794426 3 192 192 192 255 0.264302 0.063668
-0.121785 1.66416 -0.031775 -2.21472 1.58885 -3 192 192 192 255 0.264302 0.063668
-0.058223 1.63767 0.031774 2.1198 -1.65712 3 192 192 192 255 0.20456 0.063668
-0.058223 1.63767 -0.031775 2.5599 -0.828561 -3 192 192 192 255 0.20456 0.063668
-0.019355 1.66394 0.031774 0.399658 -2.82213 3 192 192 192 255 0.20456 0.063668
-0.019355 1.66394 -0.031775 1.03968 -2.65391 -3 192 192 192 255 0.233325 0.063668
-0.121785 1.66416 -0.031775 -2.21472 1.58885 -3 192 192 192 255 0.327363 0.063668
-0.121785 1.66416 0.031774 -2.60736 0.794426 3 192 192 192 255 0.327363 0.063668
-0.03411 1.73119 0.031774 -0.998062 2.5651 3 192 192 192 255 0.327363 0.063668
-0.03411 1.73119 -0.031775 -0.174041 2.74692 -3 192 192 192 255 0.327363 0.063668
0.027871 1.66014 0.031774 -1.72173 -2.1392 3 192 192 192 255 0.20456 0.063668
0.027871 1.66014 -0.031775 -0.981048 -2.56478 -3 192 192 192 255 0.233325 0.063668
0.079186 1.70605 0.031774 1.32071 2.41352 3 192 192 192 255 0.327363 0.063668
0.079186 1.70605 -0.031775 1.99143 1.8983 -3 192 192 192 255 0.327363 0.063668
0.052987 1.62405 0.031774 -2.81999 -0.514184 3 192 192 192 255 0.20456 0.063668
0.052987 1.62405 -0.031775 -2.64121 -1.1139 -3 192 192 192 255 0.233325 0.063668
0.121785 1.62405 0.031774 2.69172 0.523036 3 192 192 192 255 0.327363 0.063668
0.121785 1.62405 -0.031775 2.72128 -0.337004 -3 192 192 192 255 0.327363 0.063668
0.052987 1.62405 0.031774 -2.81999 -0.514184 3 192 192 192 255 0.264302 0.063668
0.052987 1.62405 -0.031775 -2.64121 -1.1139 -3 192 192 192 255 0.264302 0.063668
0.05086 1.54948 0.031774 -2.85319 -0.792123 2.99432 192 192 192 255 0.264302 0.063668
0.05086 1.54948 -0.031775 -2.90474 -0.511473 -2.98865 192 192 192 255 0.233325 0.063668
0.121785 1.62405 -0.031775 2.72128 -0.337004 -3 192 192 192 255 0.20456 0.063668
0.121785 1.62405 0.031774 2.69172 0.523036 3 192 192 192 255 0.20456 0.063668
0.089334 1.54948 0.031774 2.84643 -0.831962 2.98865 192 192 192 255 0.20456 0.063668
0.089334 1.54948 -0.031775 2.89954 -0.150523 -2.99432 192 192 192 255 0.20456 0.063668
0.076034 1.48373 0.024991 -0.572669 -1.51146 1.98865 192 192 192 255 0.233325 0.063668
0.099656 1.49207 0.024991 2.64837 -1.63744 0.994324 192 192 192 255 0.233325 0.063668
0.076034 1.48373 -0.024992 -1.18782 -2.70657 -0.994323 192 192 192 255 0.264302 0.063668
0.076034 1.48373 0.024991 -0.572669 -1.51146 1.98865 192 192 192 255 0.264302 0.063668
0.099656 1.49207 -0.024992 1.34543 -0.976899 -1.98865 192 192 192 255 0.233325 0.063668
0.076034 1.48373 -0.024992 -1.18782 -2.70657 -0.994323 192 192 192 255 0.233325 0.063668
0.089334 1.54948 -0.031775 2.89954 -0.150523 -2.99432 192 192 192 255 0.264302 0.063668
0.089334 1.54948 0.031774 2.84643 -0.831962 2.98865 192 192 192 255 0.264302 0.063668
0.099656 1.49207 0.024991 2.64837 -1.63744 0.994324 192 192 192 255 0.264302 0.063668
0.099656 1.49207 -0.024992 1.34543 -0.976899 -1.98865 192 192 192 255 0.264302 0.063668
0.026984 1.28945 -0.031775 2.88851 -0.658435 -3 192 192 192 255 0.20456 0.063668
-0.026269 1.13671 -0.031775 2.52783 1.50318 -2.79177 192 192 192 255 0.20456 0.063668
0.026984 1.28945 0.031774 2.94432 -0.329232 3 192 192 192 255 0.233325 0.063668
-0.026269 1.13671 0.031774 2.68038 1.17394 2.58358 192 192 192 255 0.233325 0.063668
-0.089826 1.28945 0.031776 -2.99993 -1.79634e-005 3 192 192 192 255 0.264302 0.063668
-0.089826 1.28945 -0.031775 -3 0 -3 192 192 192 255 0.264302 0.063668
-0.089826 1.13671 -0.031775 -2.79179 1.83244 -2.58355 192 192 192 255 0.264302 0.063668
-0.089826 1.13671 0.031776 -2.58348 1.83241 2.79179 192 192 192 255 0.264302 0.063668
0.026984 1.36028 -0.031775 2.57784 2.94382 -1.00126 192 192 192 255 0.264302 0.063668
0.026984 1.36028 0.031774 1.57793 2.9438 2.00126 192 192 192 255 0.264302 0.063668
0.026984 1.28945 0.031774 2.94432 -0.329232 3 192 192 192 255 0.264302 0.063668
0.026984 1.28945 -0.031775 2.88851 -0.658435 -3 192 192 192 255 0.264302 0.063668
-0.026269 1.13671 0.031774 2.68038 1.17394 2.58358 192 192 192 255 0.357234 0.063668
-0.089826 1.13671 0.031776 -2.58348 1.83241 2.79179 192 192 192 255 0.357234 0.063668
-0.026269 1.13671 -0.031775 2.52783 1.50318 -2.79177 192 192 192 255 0.388212 0.063668
-0.026269 1.13671 0.031774 2.68038 1.17394 2.58358 192 192 192 255 0.388212 0.063668
-0.009015 1.11434 0.049027 2.58367 1.83236 2.79179 192 192 192 255 0.388212 0.063668
-0.089826 1.13671 -0.031775 -2.79179 1.83244 -2.58355 192 192 192 255 0.388212 0.063668
-0.089826 1.13671 0.031776 -2.58348 1.83241 2.79179 192 192 192 255 0.388212 0.063668
-0.107081 1.11434 0.049031 -2.79169 1.83239 2.58358 192 192 192 255 0.388212 0.063668
0.026984 1.36028 0.031774 1.57793 2.9438 2.00126 192 192 192 255 0.327363 0.063668
0.026984 1.36028 -0.031775 2.57784 2.94382 -1.00126 192 192 192 255 0.327363 0.063668
0.015304 1.36257 0.018263 2.3885 2.09439 1 192 192 192 255 0.264302 0.063668
0.015304 1.36257 -0.018265 1.48321 2.5191 -2 192 192 192 255 0.264302 0.063668
0.015304 1.36257 -0.018265 1.48321 2.5191 -2 192 192 192 255 0.233325 0.063668
-0.016271 1.36877 -0.018265 -1.19073 3.87771 -1 192 192 192 255 0.233325 0.063668
0.0671 1.52665 -0.018265 0.995319 1.15037 -2 192 192 192 255 0.233325 0.063668
0.078095 1.49641 -0.018265 2.75046 -0.507721 -1 192 192 192 255 0.233325 0.063668
0.0671 1.52665 0.018263 -0.828773 1.2756 1 192 192 192 255 0.327363 0.063668
0.0671 1.52665 -0.018265 0.995319 1.15037 -2 192 192 192 255 0.327363 0.063668
-0.016271 1.36877 0.018263 -0.306405 3.41076 2 192 192 192 255 0.233325 0.063668
0.015304 1.36257 0.018263 2.3885 2.09439 1 192 192 192 255 0.233325 0.063668
0.078095 1.49641 0.018263 2.78493 0.258711 2 192 192 192 255 0.233325 0.063668
0.0671 1.52665 0.018263 -0.828773 1.2756 1 192 192 192 255 0.233325 0.063668
-0.009015 0.934871 0.049027 2.87793 -1.43669 2.75575 192 192 192 255 0.265409 0.063668
-0.026269 0.903243 0.031774 2.75578 -1.4367 2.87787 192 192 192 255 0.265409 0.063668
-0.009015 0.934871 -0.049031 2.7557 -1.43673 -2.87785 192 192 192 255 0.234431 0.063668
-0.026269 0.903243 -0.031775 2.87786 -1.43677 -2.7557 192 192 192 255 0.234431 0.063668
-0.107081 0.934871 0.049029 -2.75564 -1.43675 2.87787 192 192 192 255 0.265409 0.063668
-0.107081 0.934871 -0.04903 -2.87788 -1.43679 -2.7557 192 192 192 255 0.265409 0.063668
-0.089826 0.903243 -0.031775 -2.75572 -1.43678 -2.87785 192 192 192 255 0.265409 0.063668
-0.089826 0.903243 0.031775 -2.87781 -1.43671 2.75575 192 192 192 255 0.265409 0.063668
-0.089826 0.67603 0.031775 -2.89243 -0.970465 2.94623 192 192 192 255 0.173583 0.063668
-0.077151 0.638954 0.019099 -2.81111 0.113433 2.8249 192 192 192 255 0.173583 0.063668
-0.026269 0.67603 0.031774 2.94626 -0.970499 2.89246 192 192 192 255 0.20456 0.063668
-0.038945 0.638954 0.019099 2.82492 0.113436 2.81112 192 192 192 255 0.20456 0.063668
-0.089826 0.67603 -0.031775 -2.94623 -0.970408 -2.89248 192 192 192 255 0.173583 0.063668
-0.026269 0.67603 -0.031775 2.89245 -0.970476 -2.94624 192 192 192 255 0.173583 0.063668
-0.038945 0.638954 -0.019101 2.81111 0.113491 -2.82494 192 192 192 255 0.173583 0.063668
-0.077151 0.638954 -0.019101 -2.82492 0.113417 -2.81116 192 192 192 255 0.173583 0.063668
-0.009015 1.11434 0.049027 2.58367 1.83236 2.79179 192 192 192 255 0.294173 0.063668
-0.107081 1.11434 0.049031 -2.79169 1.83239 2.58358 192 192 192 255 0.294173 0.063668
-0.107081 0.934871 0.049029 -2.75564 -1.43675 2.87787 192 192 192 255 0.294173 0.063668
-0.009015 0.934871 0.049027 2.87793 -1.43669 2.75575 192 192 192 255 0.294173 0.063668
-0.107081 1.11434 0.049031 -2.79169 1.83239 2.58358 192 192 192 255 0.325151 0.063668
-0.107081 1.11434 -0.049029 -2.58359 1.83245 -2.79177 192 192 192 255 0.325151 0.063668
-0.107081 0.934871 -0.04903 -2.87788 -1.43679 -2.7557 192 192 192 255 0.325151 0.063668
-0.107081 0.934871 0.049029 -2.75564 -1.43675 2.87787 192 192 192 255 0.325151 0.063668
-0.107081 1.11434 -0.049029 -2.58359 1.83245 -2.79177 192 192 192 255 0.294173 0.063668
-0.009015 1.11434 -0.049031 2.79176 1.83242 -2.58355 192 192 192 255 0.294173 0.063668
-0.009015 0.934871 -0.049031 2.7557 -1.43673 -2.87785 192 192 192 255 0.294173 0.063668
-0.107081 0.934871 -0.04903 -2.87788 -1.43679 -2.7557 192 192 192 255 0.294173 0.063668
-0.009015 1.11434 -0.049031 2.79176 1.83242 -2.58355 192 192 192 255 0.325151 0.063668
-0.009015 1.11434 0.049027 2.58367 1.83236 2.79179 192 192 192 255 0.325151 0.063668
-0.009015 0.934871 0.049027 2.87793 -1.43669 2.75575 192 192 192 255 0.325151 0.063668
-0.009015 0.934871 -0.049031 2.7557 -1.43673 -2.87785 192 192 192 255 0.325151 0.063668
-0.077151 0.638954 0.019099 -2.81111 0.113433 2.8249 192 192 192 255 0.266515 0.063668
-0.077151 0.638954 -0.019101 -2.82492 0.113417 -2.81116 192 192 192 255 0.266515 0.063668
-0.038945 0.638954 0.019099 2.82492 0.113436 2.81112 192 192 192 255 0.235538 0.063668
-0.077151 0.638954 0.019099 -2.81111 0.113433 2.8249 192 192 192 255 0.235538 0.063668
-0.089826 0.606242 0.031775 -2.93242 1.08392 2.86489 192 192 192 255 0.235538 0.063668
-0.038945 0.638954 -0.019101 2.81111 0.113491 -2.82494 192 192 192 255 0.266515 0.063668
-0.038945 0.638954 0.019099 2.82492 0.113436 2.81112 192 192 192 255 0.266515 0.063668
-0.026269 0.606242 0.031774 2.86492 1.08396 2.93245 192 192 192 255 0.266515 0.063668
-0.077151 0.638954 -0.019101 -2.82492 0.113417 -2.81116 192 192 192 255 0.235538 0.063668
-0.038945 0.638954 -0.019101 2.81111 0.113491 -2.82494 192 192 192 255 0.235538 0.063668
-0.026269 0.606242 -0.031775 2.93244 1.08387 -2.86492 192 192 192 255 0.235538 0.063668
-0.089826 0.606242 -0.031775 -2.8649 1.08387 -2.93246 192 192 192 255 0.235538 0.063668
-0.089826 0.358715 0.031775 -2.86516 -1.08276 2.93259 192 192 192 255 0.112735 0.063668
-0.077151 0.325963 0.019099 -2.78011 0.0661191 2.78895 192 192 192 255 0.112735 0.063668
-0.026269 0.358715 0.031774 2.93262 -1.08279 2.86519 192 192 192 255 0.143712 0.063668
-0.038945 0.325963 0.019099 2.78894 0.0661075 2.78012 192 192 192 255 0.143712 0.063668
-0.089826 0.358715 -0.031775 -2.9326 -1.0827 -2.86522 192 192 192 255 0.112735 0.063668
-0.026269 0.358715 -0.031775 2.86518 -1.08277 -2.93261 192 192 192 255 0.112735 0.063668
-0.038945 0.325963 -0.019101 2.7801 0.0661945 -2.78899 192 192 192 255 0.112735 0.063668
-0.077151 0.325963 -0.019101 -2.78896 0.066117 -2.78016 192 192 192 255 0.112735 0.063668
-0.026269 0.903243 0.031774 2.75578 -1.4367 2.87787 192 192 192 255 0.233325 0.063668
-0.089826 0.903243 0.031775 -2.87781 -1.43671 2.75575 192 192 192 255 0.233325 0.063668
-0.089826 0.67603 0.031775 -2.89243 -0.970465 2.94623 192 192 192 255 0.233325 0.063668
-0.026269 0.67603 0.031774 2.94626 -0.970499 2.89246 192 192 192 255 0.233325 0.063668
-0.089826 0.903243 0.031775 -2.87781 -1.43671 2.75575 192 192 192 255 0.264302 0.063668
-0.089826 0.903243 -0.031775 -2.75572 -1.43678 -2.87785 192 192 192 255 0.264302 0.063668
-0.089826 0.67603 -0.031775 -2.94623 -0.970408 -2.89248 192 192 192 255 0.264302 0.063668
-0.089826 0.67603 0.031775 -2.89243 -0.970465 2.94623 192 192 192 255 0.264302 0.063668
-0.089826 0.903243 -0.031775 -2.75572 -1.43678 -2.87785 192 192 192 255 0.233325 0.063668
-0.026269 0.903243 -0.031775 2.87786 -1.43677 -2.7557 192 192 192 255 0.233325 0.063668
-0.026269 0.67603 -0.031775 2.89245 -0.970476 -2.94624 192 192 192 255 0.233325 0.063668
-0.089826 0.67603 -0.031775 -2.94623 -0.970408 -2.89248 192 192 192 255 0.233325 0.063668
-0.026269 0.903243 -0.031775 2.87786 -1.43677 -2.7557 192 192 192 255 0.264302 0.063668
-0.026269 0.903243 0.031774 2.75578 -1.4367 2.87787 192 192 192 255 0.264302 0.063668
-0.026269 0.67603 0.031774 2.94626 -0.970499 2.89246 192 192 192 255 0.264302 0.063668
-0.026269 0.67603 -0.031775 2.89245 -0.970476 -2.94624 192 192 192 255 0.264302 0.063668
-0.089826 0.295389 0.031774 -2.92376 1.14889 2.84753 192 192 192 255 0.233325 0.063668
-0.089826 0.234481 0.031774 -1 -3 2 192 192 192 255 0.233325 0.063668
-0.026269 0.295389 0.031774 2.84751 1.14894 2.92376 192 192 192 255 0.264302 0.063668
-0.026269 0.234481 0.031774 2 -3 1 192 192 192 255 0.264302 0.063668
-0.089826 0.295389 -0.031775 -2.84753 1.14886 -2.92377 192 192 192 255 0.233325 0.063668
-0.026269 0.295389 -0.031775 2.92375 1.14886 -2.84755 192 192 192 255 0.233325 0.063668
-0.026269 0.234481 -0.031775 1 -3 -2 192 192 192 255 0.233325 0.063668
-0.089826 0.234481 -0.031775 -2 -3 -1 192 192 192 255 0.233325 0.063668
-0.026269 0.606242 0.031774 2.86492 1.08396 2.93245 192 192 192 255 0.172477 0.063668
-0.089826 0.606242 0.031775 -2.93242 1.08392 2.86489 192 192 192 255 0.172477 0.063668
-0.089826 0.358715 0.031775 -2.86516 -1.08276 2.93259 192 192 192 255 0.172477 0.063668
-0.026269 0.358715 0.031774 2.93262 -1.08279 2.86519 192 192 192 255 0.172477 0.063668
-0.089826 0.606242 0.031775 -2.93242 1.08392 2.86489 192 192 192 255 0.203454 0.063668
-0.089826 0.606242 -0.031775 -2.8649 1.08387 -2.93246 192 192 192 255 0.203454 0.063668
-0.089826 0.358715 -0.031775 -2.9326 -1.0827 -2.86522 192 192 192 255 0.203454 0.063668
-0.089826 0.358715 0.031775 -2.86516 -1.08276 2.93259 192 192 192 255 0.203454 0.063668
-0.089826 0.606242 -0.031775 -2.8649 1.08387 -2.93246 192 192 192 255 0.172477 0.063668
-0.026269 0.606242 -0.031775 2.93244 1.08387 -2.86492 192 192 192 255 0.172477 0.063668
-0.026269 0.358715 -0.031775 2.86518 -1.08277 -2.93261 192 192 192 255 0.172477 0.063668
-0.089826 0.358715 -0.031775 -2.9326 -1.0827 -2.86522 192 192 192 255 0.172477 0.063668
-0.026269 0.606242 -0.031775 2.93244 1.08387 -2.86492 192 192 192 255 0.203454 0.063668
-0.026269 0.606242 0.031774 2.86492 1.08396 2.93245 192 192 192 255 0.203454 0.063668
-0.026269 0.358715 0.031774 2.93262 -1.08279 2.86519 192 192 192 255 0.203454 0.063668
-0.026269 0.358715 -0.031775 2.86518 -1.08277 -2.93261 192 192 192 255 0.203454 0.063668
-0.077151 0.325963 0.019099 -2.78011 0.0661191 2.78895 192 192 192 255 0.327363 0.063668
-0.077151 0.325963 -0.019101 -2.78896 0.066117 -2.78016 192 192 192 255 0.327363 0.063668
-0.089826 0.295389 -0.031775 -2.84753 1.14886 -2.92377 192 192 192 255 0.327363 0.063668
-0.089826 0.295389 0.031774 -2.92376 1.14889 2.84753 192 192 192 255 0.327363 0.063668
-0.038945 0.325963 0.019099 2.78894 0.0661075 2.78012 192 192 192 255 0.296386 0.063668
-0.077151 0.325963 0.019099 -2.78011 0.0661191 2.78895 192 192 192 255 0.296386 0.063668
-0.089826 0.295389 0.031774 -2.92376 1.14889 2.84753 192 192 192 255 0.296386 0.063668
-0.026269 0.295389 0.031774 2.84751 1.14894 2.92376 192 192 192 255 0.296386 0.063668
-0.038945 0.325963 -0.019101 2.7801 0.0661945 -2.78899 192 192 192 255 0.327363 0.063668
-0.038945 0.325963 0.019099 2.78894 0.0661075 2.78012 192 192 192 255 0.327363 0.063668
-0.026269 0.295389 0.031774 2.84751 1.14894 2.92376 192 192 192 255 0.327363 0.063668
-0.026269 0.295389 -0.031775 2.92375 1.14886 -2.84755 192 192 192 255 0.327363 0.063668
-0.077151 0.325963 -0.019101 -2.78896 0.066117 -2.78016 192 192 192 255 0.296386 0.063668
-0.038945 0.325963 -0.019101 2.7801 0.0661945 -2.78899 192 192 192 255 0.296386 0.063668
-0.026269 0.295389 -0.031775 2.92375 1.14886 -2.84755 192 192 192 255 0.296386 0.063668
-0.089826 0.295389 -0.031775 -2.84753 1.14886 -2.92377 192 192 192 255 0.296386 0.063668
-0.089826 0.234481 -0.031775 -2 -3 -1 192 192 192 255 0.20456 0.063668
-0.026269 0.234481 -0.031775 1 -3 -2 192 192 192 255 0.20456 0.063668
-0.026269 0.234481 0.031774 2 -3 1 192 192 192 255 0.20456 0.063668
-0.089826 0.234481 0.031774 -1 -3 2 192 192 192 255 0.20456 0.063668
-0.041701 0.152454 -0.017257 2.4989 -3.50046 -1.00032 192 192 192 255 0.264302 0.063668
-0.041701 0.152454 0.017256 1.53838 -3.22212 2.00035 192 192 192 255 0.264302 0.063668
-0.058143 0.095709 0.017256 2.92099 -0.55661 3 192 192 192 255 0.264302 0.063668
-0.058143 0.095709 -0.017257 2.96057 -0.278378 -3 192 192 192 255 0.264302 0.063668
-0.075305 0.15831 0.017256 -2.92731 0.534311 3.00037 192 192 192 255 0.264302 0.063668
-0.075305 0.15831 -0.01726 -2.96353 0.267097 -3.00037 192 192 192 255 0.264302 0.063668
-0.09266 0.095709 -0.017257 -2.92727 0.534275 -3 192 192 192 255 0.264302 0.063668
-0.09266 0.095709 0.017256 -2.96365 0.267156 3 192 192 192 255 0.264302 0.063668
-0.058143 0.050788 -0.017257 2.11983 1.6571 -3 192 192 192 255 0.264302 0.063668
-0.058143 0.050788 0.017256 2.55992 0.82855 3 192 192 192 255 0.233325 0.063668
-0.09266 0.036403 -0.017257 -2.60738 -0.794414 -3 192 192 192 255 0.264302 0.063668
-0.09266 0.036403 0.017256 -2.21475 -1.58883 3 192 192 192 255 0.264302 0.063668
-0.058143 0.050788 -0.017257 2.11983 1.6571 -3 192 192 192 255 0.327363 0.063668
-0.058143 0.050788 0.017256 2.55992 0.82855 3 192 192 192 255 0.327363 0.063668
-0.037034 0.036523 -0.017257 0.399641 2.82212 -3 192 192 192 255 0.327363 0.063668
-0.037034 0.036523 0.017256 1.03969 2.65388 3 192 192 192 255 0.233325 0.063668
-0.09266 0.036403 0.017256 -2.21475 -1.58883 3 192 192 192 255 0.20456 0.063668
-0.09266 0.036403 -0.017257 -2.60738 -0.794414 -3 192 192 192 255 0.20456 0.063668
-0.045047 0 -0.017257 -0.998097 -2.56508 -3 192 192 192 255 0.20456 0.063668
-0.045047 0 0.017256 -0.174064 -2.74691 3 192 192 192 255 0.20456 0.063668
-0.011386 0.038585 -0.017257 -1.72174 2.13921 -3 192 192 192 255 0.327363 0.063668
-0.011386 0.038585 0.017256 -0.981078 2.56478 3 192 192 192 255 0.233325 0.063668
0.016482 0.013655 -0.017257 1.3207 -2.41353 -3 192 192 192 255 0.20456 0.063668
0.016482 0.013655 0.017256 1.99143 -1.89831 3 192 192 192 255 0.20456 0.063668
0.002254 0.058185 -0.017257 -2.81906 0.487638 -3 192 192 192 255 0.327363 0.063668
0.002254 0.058185 0.017256 -2.64073 1.10064 3 192 192 192 255 0.233325 0.063668
0.039617 0.058185 -0.017257 2.61795 -0.384426 -3 192 192 192 255 0.20456 0.063668
0.039617 0.058185 0.017256 2.57374 0.614237 3 192 192 192 255 0.20456 0.063668
0.002254 0.058185 -0.017257 -2.81906 0.487638 -3 192 192 192 255 0.264302 0.063668
0.002254 0.058185 0.017256 -2.64073 1.10064 3 192 192 192 255 0.264302 0.063668
0.001098 0.085825 -0.017257 -2.85271 0.778855 -2.99433 192 192 192 255 0.264302 0.063668
0.001098 0.085825 0.017256 -2.9038 0.484953 2.98865 192 192 192 255 0.233325 0.063668
0.039617 0.058185 0.017256 2.57374 0.614237 3 192 192 192 255 0.264302 0.063668
0.039617 0.058185 -0.017257 2.61795 -0.384426 -3 192 192 192 255 0.264302 0.063668
0.021993 0.085825 -0.017257 2.6989 1.10918 -2.98865 192 192 192 255 0.264302 0.063668
0.021993 0.085825 0.017256 2.82578 0.289186 2.99432 192 192 192 255 0.264302 0.063668
0.01477 0.121529 -0.013574 -0.572638 1.51143 -1.98865 192 192 192 255 0.233325 0.063668
0.027598 0.117 -0.013574 2.64843 1.63744 -0.994326 192 192 192 255 0.233325 0.063668
0.01477 0.121529 0.013572 -1.18775 2.70658 0.994323 192 192 192 255 0.264302 0.063668
0.01477 0.121529 -0.013574 -0.572638 1.51143 -1.98865 192 192 192 255 0.264302 0.063668
0.027598 0.117 0.013572 1.34546 0.976925 1.98865 192 192 192 255 0.233325 0.063668
0.01477 0.121529 0.013572 -1.18775 2.70658 0.994323 192 192 192 255 0.233325 0.063668
0.027598 0.117 -0.013574 2.64843 1.63744 -0.994326 192 192 192 255 0.264302 0.063668
0.027598 0.117 0.013572 1.34546 0.976925 1.98865 192 192 192 255 0.264302 0.063668
-0.04079 0.234481 0.017256 0.833406 -2.44734 2 192 192 192 255 0.233325 0.063668
-0.075305 0.234481 0.017256 -2 -3 1 192 192 192 255 0.233325 0.063668
-0.011868 0.190867 0.017256 2.66681 1.10532 3 192 192 192 255 0.327363 0.063668
-0.04079 0.234481 -0.017257 1.66685 -1.89466 -1 192 192 192 255 0.327363 0.063668
-0.04079 0.234481 0.017256 0.833406 -2.44734 2 192 192 192 255 0.327363 0.063668
-0.011868 0.190867 -0.017257 2.83353 0.552704 -3 192 192 192 255 0.233325 0.063668
-0.075305 0.234481 -0.017259 -0.999918 -2.99997 -2 192 192 192 255 0.233325 0.063668
-0.04079 0.234481 -0.017257 1.66685 -1.89466 -1 192 192 192 255 0.233325 0.063668
-0.075305 0.190867 -0.017259 -2.99988 4.4266e-005 -3 192 192 192 255 0.264302 0.063668
-0.075305 0.190867 0.017256 -3 0 3 192 192 192 255 0.264302 0.063668
-0.075305 0.234481 0.017256 -2 -3 1 192 192 192 255 0.264302 0.063668
-0.075305 0.234481 -0.017259 -0.999918 -2.99997 -2 192 192 192 255 0.264302 0.063668
-0.011868 0.15831 0.017256 2.57781 -2.94383 1.00032 192 192 192 255 0.264302 0.063668
-0.011868 0.15831 -0.017257 1.57785 -2.94381 -2.00035 192 192 192 255 0.264302 0.063668
-0.011868 0.190867 -0.017257 2.83353 0.552704 -3 192 192 192 255 0.264302 0.063668
-0.011868 0.190867 0.017256 2.66681 1.10532 3 192 192 192 255 0.264302 0.063668
-0.011868 0.15831 -0.017257 1.57785 -2.94381 -2.00035 192 192 192 255 0.20456 0.063668
-0.011868 0.15831 0.017256 2.57781 -2.94383 1.00032 192 192 192 255 0.20456 0.063668
-0.041701 0.152454 0.017256 1.53838 -3.22212 2.00035 192 192 192 255 0.20456 0.063668
-0.041701 0.152454 -0.017257 2.4989 -3.50046 -1.00032 192 192 192 255 0.20456 0.063668
-0.018212 0.157065 -0.009919 2.13662 -1.69078 -0.999948 192 192 192 255 0.327363 0.063668
-0.018212 0.157065 0.009917 1.35717 -2.31731 1.99997 192 192 192 255 0.327363 0.063668
0.015889 0.114643 0.009917 2.49859 0.911286 1 192 192 192 255 0.327363 0.063668
0.015889 0.114643 -0.009919 2.65898 -0.0569988 -2 192 192 192 255 0.327363 0.063668
-0.018212 0.157065 0.009917 1.35717 -2.31731 1.99997 192 192 192 255 0.233325 0.063668
-0.035359 0.153699 0.009917 -0.971616 -4.20837 0.999948 192 192 192 255 0.233325 0.063668
0.009917 0.098221 0.009917 1.10483 -1.3158 2 192 192 192 255 0.233325 0.063668
0.015889 0.114643 0.009917 2.49859 0.911286 1 192 192 192 255 0.233325 0.063668
0.009917 0.098221 -0.009919 -0.609702 -1.60631 -1 192 192 192 255 0.20456 0.063668
0.009917 0.098221 0.009917 1.10483 -1.3158 2 192 192 192 255 0.20456 0.063668
-0.035359 0.153699 -0.009919 -0.196859 -3.57609 -1.99997 192 192 192 255 0.264302 0.063668
-0.018212 0.157065 -0.009919 2.13662 -1.69078 -0.999948 192 192 192 255 0.264302 0.063668
3 0 36 3 
3 0 3 2 
3 28 29 30 
3 28 30 31 
3 4 5 37 
3 4 37 6 
3 140 141 142 
3 140 142 143 
3 144 145 146 
3 144 146 147 
3 2 3 9 
3 2 9 8 
3 143 142 10 
3 143 10 148 
3 5 4 11 
3 5 11 149 
3 147 146 150 
3 147 150 151 
3 8 9 13 
3 8 13 12 
3 152 153 14 
3 152 14 154 
3 149 11 15 
3 149 15 155 
3 156 157 158 
3 156 158 159 
3 12 13 17 
3 12 17 16 
3 154 14 18 
3 154 18 160 
3 155 15 19 
3 155 19 161 
3 159 158 162 
3 159 162 163 
3 16 17 21 
3 16 21 20 
3 160 18 22 
3 160 22 164 
3 161 19 23 
3 161 23 165 
3 163 162 166 
3 163 166 167 
3 20 21 25 
3 20 25 24 
3 168 169 26 
3 168 26 170 
3 165 23 27 
3 165 27 171 
3 172 173 174 
3 172 174 175 
3 24 25 176 
3 24 176 177 
3 170 26 178 
3 170 178 179 
3 171 27 180 
3 171 180 181 
3 182 183 184 
3 182 184 185 
3 41 38 44 
3 41 44 45 
3 186 39 43 
3 186 43 187 
3 188 40 42 
3 188 42 189 
3 190 191 192 
3 190 192 193 
3 0 1 36 
3 51 50 52 
3 51 52 53 
3 6 37 7 
3 194 195 196 
3 194 196 197 
3 1 0 40 
3 1 40 188 
3 145 144 191 
3 145 191 190 
3 6 7 38 
3 6 38 41 
3 198 199 54 
3 198 54 55 
3 200 201 202 
3 200 202 56 
3 203 200 56 
3 203 56 57 
3 204 203 57 
3 204 57 205 
3 206 207 46 
3 206 46 47 
3 207 141 48 
3 207 48 46 
3 141 140 49 
3 141 49 48 
3 140 206 47 
3 140 47 49 
3 208 209 50 
3 208 50 51 
3 210 211 212 
3 210 212 213 
3 48 49 214 
3 48 214 215 
3 216 217 218 
3 216 218 219 
3 62 63 59 
3 62 59 60 
3 65 220 221 
3 65 221 61 
3 64 222 223 
3 64 223 58 
3 224 225 226 
3 224 226 227 
3 75 76 66 
3 75 66 67 
3 74 228 229 
3 74 229 68 
3 77 230 231 
3 77 231 69 
3 232 233 234 
3 232 234 235 
3 236 237 238 
3 236 238 239 
3 240 241 242 
3 240 242 243 
3 244 245 246 
3 244 246 247 
3 248 249 250 
3 248 250 251 
3 252 253 70 
3 252 70 71 
3 254 255 256 
3 254 256 72 
3 257 258 259 
3 257 259 73 
3 260 261 262 
3 260 262 263 
3 83 84 86 
3 83 86 87 
3 82 264 265 
3 82 265 88 
3 85 266 267 
3 85 267 89 
3 268 269 270 
3 268 270 271 
3 272 273 274 
3 272 274 275 
3 276 277 278 
3 276 278 279 
3 280 281 282 
3 280 282 283 
3 284 285 286 
3 284 286 287 
3 79 78 32 
3 79 32 35 
3 80 288 289 
3 80 289 34 
3 81 290 291 
3 81 291 33 
3 292 293 294 
3 292 294 295 
3 296 297 298 
3 296 298 299 
3 300 301 302 
3 300 302 303 
3 304 305 306 
3 304 306 307 
3 308 309 310 
3 308 310 311 
3 312 313 314 
3 312 314 315 
3 316 317 318 
3 316 318 319 
3 320 321 322 
3 320 322 323 
3 324 325 326 
3 324 326 327 
3 328 329 91 
3 328 91 90 
3 92 91 329 
3 92 329 330 
3 93 92 330 
3 93 330 331 
3 331 328 90 
3 331 90 93 
3 94 126 97 
3 94 97 96 
3 122 123 124 
3 122 124 125 
3 98 99 127 
3 98 127 100 
3 332 333 334 
3 332 334 335 
3 336 337 338 
3 336 338 339 
3 96 97 103 
3 96 103 102 
3 335 334 104 
3 335 104 340 
3 99 98 105 
3 99 105 341 
3 339 338 342 
3 339 342 343 
3 102 103 107 
3 102 107 106 
3 344 345 108 
3 344 108 346 
3 341 105 109 
3 341 109 347 
3 348 349 350 
3 348 350 351 
3 106 107 111 
3 106 111 110 
3 346 108 112 
3 346 112 352 
3 347 109 113 
3 347 113 353 
3 351 350 354 
3 351 354 355 
3 110 111 115 
3 110 115 114 
3 352 112 116 
3 352 116 356 
3 353 113 117 
3 353 117 357 
3 355 354 358 
3 355 358 359 
3 114 115 119 
3 114 119 118 
3 360 361 120 
3 360 120 362 
3 357 117 121 
3 357 121 363 
3 364 365 366 
3 364 366 367 
3 118 119 368 
3 118 368 369 
3 362 120 370 
3 362 370 371 
3 363 121 372 
3 363 372 373 
3 367 366 374 
3 367 374 375 
3 131 128 376 
3 131 376 377 
3 378 129 379 
3 378 379 380 
3 381 130 382 
3 381 382 383 
3 384 385 386 
3 384 386 387 
3 94 95 126 
3 137 136 138 
3 137 138 139 
3 100 127 101 
3 388 389 390 
3 388 390 391 
3 95 94 130 
3 95 130 381 
3 337 336 385 
3 337 385 384 
3 100 101 128 
3 100 128 131 
3 392 393 132 
3 392 132 133 
3 393 394 134 
3 393 134 132 
3 394 395 135 
3 394 135 134 
3 395 392 133 
3 395 133 135 
3 396 397 398 
3 396 398 399 
3 400 401 402 
3 400 402 403 
3 134 135 404 
3 134 404 405 
3 406 407 137 
3 406 137 139 
