ply
format ascii 1.0
comment VCGLIB generated
comment TextureFile WorldMap.png
element vertex 24
property float x
property float y
property float z
property float nx
property float ny
property float nz
property uchar red
property uchar green
property uchar blue
property uchar alpha
property float texture_u
property float texture_v
element face 12
property list uchar int vertex_indices
end_header
-0.350223 0 0.272078 -1 -1 2 192 192 192 255 0.390957 0.479127
0.350223 0 0.272078 2 -2 1 192 192 192 255 0.390956 0.479127
-0.350223 0.038146 0.272078 -2 2 1 192 192 192 255 0.390957 0.479127
0.350223 0.038146 0.272078 1 1 2 192 192 192 255 0.390956 0.479127
-0.350223 0.038146 -0.272078 -1 1 -2 192 192 192 255 0.419222 0.478383
0.350223 0.038146 -0.272078 2 2 -1 192 192 192 255 0.419222 0.478383
-0.350223 0 -0.272078 -2 -2 -1 192 192 192 255 0.390957 0.479127
0.350223 0 -0.272078 1 -1 -2 192 192 192 255 0.390956 0.479127
-0.350223 0.038146 0.272078 -2 2 1 192 192 192 255 0.419222 0.478383
0.350223 0.038146 0.272078 1 1 2 192 192 192 255 0.419222 0.478383
-0.350223 0.038146 -0.272078 -1 1 -2 192 192 192 255 0.390957 0.479127
0.350223 0.038146 -0.272078 2 2 -1 192 192 192 255 0.390956 0.479127
-0.350223 0 -0.272078 -2 -2 -1 192 192 192 255 0.299467 0.480614
0.350223 0 -0.272078 1 -1 -2 192 192 192 255 0.299467 0.480614
0.350223 0 0.272078 2 -2 1 192 192 192 255 0.299467 0.480614
-0.350223 0 0.272078 -1 -1 2 192 192 192 255 0.299467 0.480614
0.350223 0 0.272078 2 -2 1 192 192 192 255 0.358228 0.479871
0.350223 0 -0.272078 1 -1 -2 192 192 192 255 0.358228 0.479871
0.350223 0.038146 -0.272078 2 2 -1 192 192 192 255 0.358228 0.479871
0.350223 0.038146 0.272078 1 1 2 192 192 192 255 0.358228 0.479871
-0.350223 0 -0.272078 -2 -2 -1 192 192 192 255 0.358228 0.479871
-0.350223 0 0.272078 -1 -1 2 192 192 192 255 0.358228 0.479871
-0.350223 0.038146 0.272078 -2 2 1 192 192 192 255 0.358228 0.479871
-0.350223 0.038146 -0.272078 -1 1 -2 192 192 192 255 0.358228 0.479871
3 0 1 3 
3 0 3 2 
3 8 9 5 
3 8 5 4 
3 10 11 7 
3 10 7 6 
3 12 13 14 
3 12 14 15 
3 16 17 18 
3 16 18 19 
3 20 21 22 
3 20 22 23 
