ply
format ascii 1.0
comment VCGLIB generated
comment TextureFile WorldMap.png
element vertex 80
property float x
property float y
property float z
property float nx
property float ny
property float nz
property uchar red
property uchar green
property uchar blue
property uchar alpha
property float texture_u
property float texture_v
element face 52
property list uchar int vertex_indices
end_header
-0.538218 -0.032527 0.881366 -1 -3 2 192 192 192 255 0.358354 0.060665
0.538219 -0.032527 0.881366 2 -3 1 192 192 192 255 0.358354 0.060665
-0.538218 0.032527 0.881366 -2 3 1 192 192 192 255 0.358354 0.060665
0.538219 0.032527 0.881366 1 3 2 192 192 192 255 0.358354 0.060665
-0.538218 0.032527 -0.685323 -1 3 -2 192 192 192 255 0.358354 0.060665
0.538219 0.032527 -0.685323 2 3 -1 192 192 192 255 0.358354 0.060665
-0.538218 -0.032527 -0.685323 -2 -3 -1 192 192 192 255 0.358354 0.060665
0.538219 -0.032527 -0.685323 1 -3 -2 192 192 192 255 0.358354 0.060665
-0.388977 0.032527 0.655075 -0.915152 4.32863 1.77297 192 192 192 255 0.393219 0.060665
0.388979 0.032527 0.655075 1.8303 4.26898 0.886483 192 192 192 255 0.393219 0.060665
0.388979 0.032527 -0.266855 0.915152 4.3286 -1.77298 192 192 192 255 0.393219 0.060665
-0.388977 0.032527 -0.266855 -1.8303 4.26897 -0.88649 192 192 192 255 0.393219 0.060665
-0.388977 -0.032527 -0.266855 -0.915151 -4.32861 -1.77298 192 192 192 255 0.293334 0.060665
0.388979 -0.032527 -0.266855 1.8303 -4.26897 -0.886489 192 192 192 255 0.293334 0.060665
0.388979 -0.032527 0.655075 0.915151 -4.32864 1.77296 192 192 192 255 0.293334 0.060665
-0.388977 -0.032527 0.655075 -1.8303 -4.26899 0.886481 192 192 192 255 0.293334 0.060665
-0.325765 0.176033 0.580162 -1.8303 4.26898 0.886483 192 192 192 255 0.285945 0.023728
0.325767 0.176033 0.580162 0.915152 4.32863 1.77297 192 192 192 255 0.285945 0.023728
0.325767 0.176033 -0.191945 1.8303 4.26897 -0.88649 192 192 192 255 0.259347 0.023796
-0.325765 0.176033 -0.191945 -0.915152 4.3286 -1.77298 192 192 192 255 0.285945 0.023728
-0.325765 -0.176032 -0.191945 -1.8303 -3.26897 -0.886489 192 192 192 255 0.173045 0.023837
0.325767 -0.176032 -0.191945 0.915151 -2.32861 -1.77298 192 192 192 255 0.173045 0.023837
0.325767 -0.176032 0.580162 1.8303 -3.26899 0.886481 192 192 192 255 0.173045 0.023837
-0.325765 -0.176032 0.580162 -0.915151 -2.32864 1.77296 192 192 192 255 0.173045 0.023837
-0.06663 0.176033 0.022737 0 5 0 192 192 192 255 0.423193 0.480927
0.252665 0.176033 0.022737 0 4 0 192 192 192 255 0.423193 0.480927
0.252665 0.176033 -0.106581 0 5 0 192 192 192 255 0.423193 0.480927
-0.06663 0.176033 -0.106581 0 4 0 192 192 192 255 0.423193 0.480927
0.538219 -0.032527 0.881366 2 -3 1 192 192 192 255 0.326315 0.060665
0.538219 -0.032527 -0.685323 1 -3 -2 192 192 192 255 0.326315 0.060665
0.538219 0.032527 -0.685323 2 3 -1 192 192 192 255 0.326315 0.060665
0.538219 0.032527 0.881366 1 3 2 192 192 192 255 0.326315 0.060665
-0.538218 -0.032527 -0.685323 -2 -3 -1 192 192 192 255 0.326315 0.060665
-0.538218 -0.032527 0.881366 -1 -3 2 192 192 192 255 0.326315 0.060665
-0.538218 0.032527 0.881366 -2 3 1 192 192 192 255 0.326315 0.060665
-0.538218 0.032527 -0.685323 -1 3 -2 192 192 192 255 0.326315 0.060665
-0.538218 0.032527 0.881366 -2 3 1 192 192 192 255 0.393219 0.060665
0.538219 0.032527 0.881366 1 3 2 192 192 192 255 0.393219 0.060665
0.538219 0.032527 -0.685323 2 3 -1 192 192 192 255 0.393219 0.060665
-0.538218 0.032527 -0.685323 -1 3 -2 192 192 192 255 0.393219 0.060665
-0.538218 -0.032527 -0.685323 -2 -3 -1 192 192 192 255 0.293334 0.060665
0.538219 -0.032527 -0.685323 1 -3 -2 192 192 192 255 0.293334 0.060665
0.538219 -0.032527 0.881366 2 -3 1 192 192 192 255 0.293334 0.060665
-0.538218 -0.032527 0.881366 -1 -3 2 192 192 192 255 0.293334 0.060665
-0.388977 0.032527 0.655075 -0.915152 4.32863 1.77297 192 192 192 255 0.285945 0.023728
0.388979 0.032527 0.655075 1.8303 4.26898 0.886483 192 192 192 255 0.285945 0.023728
0.388979 0.032527 0.655075 1.8303 4.26898 0.886483 192 192 192 255 0.259347 0.023796
0.388979 0.032527 -0.266855 0.915152 4.3286 -1.77298 192 192 192 255 0.259347 0.023796
0.325767 0.176033 0.580162 0.915152 4.32863 1.77297 192 192 192 255 0.259347 0.023796
0.388979 0.032527 -0.266855 0.915152 4.3286 -1.77298 192 192 192 255 0.285945 0.023728
-0.388977 0.032527 -0.266855 -1.8303 4.26897 -0.88649 192 192 192 255 0.285945 0.023728
0.325767 0.176033 -0.191945 1.8303 4.26897 -0.88649 192 192 192 255 0.285945 0.023728
-0.388977 0.032527 -0.266855 -1.8303 4.26897 -0.88649 192 192 192 255 0.259347 0.023796
-0.388977 0.032527 0.655075 -0.915152 4.32863 1.77297 192 192 192 255 0.259347 0.023796
-0.325765 0.176033 0.580162 -1.8303 4.26898 0.886483 192 192 192 255 0.259347 0.023796
-0.325765 0.176033 -0.191945 -0.915152 4.3286 -1.77298 192 192 192 255 0.259347 0.023796
-0.388977 -0.032527 -0.266855 -0.915151 -4.32861 -1.77298 192 192 192 255 0.232258 0.023728
0.388979 -0.032527 -0.266855 1.8303 -4.26897 -0.886489 192 192 192 255 0.232258 0.023728
0.325767 -0.176032 -0.191945 0.915151 -2.32861 -1.77298 192 192 192 255 0.232258 0.023728
-0.325765 -0.176032 -0.191945 -1.8303 -3.26897 -0.886489 192 192 192 255 0.232258 0.023728
0.388979 -0.032527 -0.266855 1.8303 -4.26897 -0.886489 192 192 192 255 0.20566 0.023796
0.388979 -0.032527 0.655075 0.915151 -4.32864 1.77296 192 192 192 255 0.20566 0.023796
0.325767 -0.176032 0.580162 1.8303 -3.26899 0.886481 192 192 192 255 0.20566 0.023796
0.325767 -0.176032 -0.191945 0.915151 -2.32861 -1.77298 192 192 192 255 0.20566 0.023796
0.388979 -0.032527 0.655075 0.915151 -4.32864 1.77296 192 192 192 255 0.232258 0.023728
-0.388977 -0.032527 0.655075 -1.8303 -4.26899 0.886481 192 192 192 255 0.232258 0.023728
-0.325765 -0.176032 0.580162 -0.915151 -2.32864 1.77296 192 192 192 255 0.232258 0.023728
0.325767 -0.176032 0.580162 1.8303 -3.26899 0.886481 192 192 192 255 0.232258 0.023728
-0.388977 -0.032527 0.655075 -1.8303 -4.26899 0.886481 192 192 192 255 0.20566 0.023796
-0.388977 -0.032527 -0.266855 -0.915151 -4.32861 -1.77298 192 192 192 255 0.20566 0.023796
-0.325765 -0.176032 -0.191945 -1.8303 -3.26897 -0.886489 192 192 192 255 0.20566 0.023796
-0.325765 -0.176032 0.580162 -0.915151 -2.32864 1.77296 192 192 192 255 0.20566 0.023796
-0.325765 0.176033 0.580162 -1.8303 4.26898 0.886483 192 192 192 255 0.326617 0.023837
0.325767 0.176033 0.580162 0.915152 4.32863 1.77297 192 192 192 255 0.326617 0.023837
0.252665 0.176033 0.022737 0 4 0 192 192 192 255 0.326617 0.023837
-0.06663 0.176033 0.022737 0 5 0 192 192 192 255 0.326617 0.023837
0.325767 0.176033 -0.191945 1.8303 4.26897 -0.88649 192 192 192 255 0.326617 0.023837
0.252665 0.176033 -0.106581 0 5 0 192 192 192 255 0.326617 0.023837
-0.325765 0.176033 -0.191945 -0.915152 4.3286 -1.77298 192 192 192 255 0.326617 0.023837
-0.06663 0.176033 -0.106581 0 4 0 192 192 192 255 0.326617 0.023837
3 0 1 3 
3 0 3 2 
3 24 25 26 
3 24 26 27 
3 4 5 7 
3 4 7 6 
3 20 21 22 
3 20 22 23 
3 28 29 30 
3 28 30 31 
3 32 33 34 
3 32 34 35 
3 36 37 9 
3 36 9 8 
3 37 38 10 
3 37 10 9 
3 38 39 11 
3 38 11 10 
3 39 36 8 
3 39 8 11 
3 40 41 13 
3 40 13 12 
3 41 42 14 
3 41 14 13 
3 42 43 15 
3 42 15 14 
3 43 40 12 
3 43 12 15 
3 44 45 17 
3 44 17 16 
3 46 47 18 
3 46 18 48 
3 49 50 19 
3 49 19 51 
3 52 53 54 
3 52 54 55 
3 56 57 58 
3 56 58 59 
3 60 61 62 
3 60 62 63 
3 64 65 66 
3 64 66 67 
3 68 69 70 
3 68 70 71 
3 72 73 74 
3 72 74 75 
3 73 76 77 
3 73 77 74 
3 76 78 79 
3 76 79 77 
3 78 72 75 
3 78 75 79 
