ply
format ascii 1.0
comment VCGLIB generated
comment TextureFile WorldMap.png
element vertex 72
property float x
property float y
property float z
property float nx
property float ny
property float nz
property uchar red
property uchar green
property uchar blue
property uchar alpha
property float texture_u
property float texture_v
element face 48
property list uchar int vertex_indices
end_header
-0.027109 -0.068552 -0.311659 0 3 -1.01713 192 192 192 255 0.349947 0.477839
-0.027109 -0.068552 0.311659 0 3 2.01713 192 192 192 255 0.349947 0.477839
-0.027109 0.094878 -0.311659 -1 2 -2 192 192 192 255 0.418095 0.479837
-0.027109 0.094878 0.311659 -2 1 1 192 192 192 255 0.418095 0.479837
0.499659 0.094878 -0.311659 2 1 -1 192 192 192 255 0.418095 0.479837
0.499659 0.094878 0.311659 1 2 2 192 192 192 255 0.418095 0.479837
0.499659 -0.068552 -0.311659 1 3 -2.01713 192 192 192 255 0.349947 0.477839
0.499659 -0.068552 0.311659 2 3 1.01713 192 192 192 255 0.349947 0.477839
-0.027109 -0.036041 0.311659 -1 2 3.01713 192 192 192 255 0.349947 0.477839
-0.027109 -0.036041 -0.311659 -2 1 -3.01713 192 192 192 255 0.349947 0.477839
-0.499659 -0.068552 -0.311659 -2 3 -2 192 192 192 255 0.376724 0.477096
-0.499659 -0.068552 0.311659 -1 3 1 192 192 192 255 0.376724 0.477096
-0.499659 -0.036041 0.311659 -2 1 2 192 192 192 255 0.376724 0.477096
-0.499659 -0.036041 -0.311659 -1 2 -1 192 192 192 255 0.376724 0.477096
0.540544 -0.068552 -0.348933 2 3 -1 192 192 192 255 0.26442 0.420688
0.540544 -0.068552 0.348933 1 3 2 192 192 192 255 0.26442 0.420688
-0.029327 -0.068552 0.348933 0 3 3 192 192 192 255 0.26442 0.420688
-0.029327 -0.068552 -0.348933 0 3 -3 192 192 192 255 0.26442 0.420688
-0.540544 -0.068552 0.348933 -2 3 1 192 192 192 255 0.26442 0.420688
-0.540544 -0.068552 -0.348933 -1 3 -2 192 192 192 255 0.26442 0.420688
0.540544 -0.094878 -0.348933 1 -2 -2 192 192 192 255 0.13797 0.419845
0.540544 -0.094878 0.348933 2 -1 1 192 192 192 255 0.13797 0.419845
-0.029327 -0.094878 0.348933 0 -3 3 192 192 192 255 0.13797 0.419845
-0.029327 -0.094878 -0.348933 0 -3 -3 192 192 192 255 0.13797 0.419845
-0.540544 -0.094878 0.348933 -1 -2 2 192 192 192 255 0.13797 0.419845
-0.540544 -0.094878 -0.348933 -2 -1 -1 192 192 192 255 0.13797 0.419845
-0.027109 -0.036041 -0.311659 -2 1 -3.01713 192 192 192 255 0.376724 0.477096
-0.027109 -0.036041 0.311659 -1 2 3.01713 192 192 192 255 0.376724 0.477096
-0.027109 0.094878 0.311659 -2 1 1 192 192 192 255 0.376724 0.477096
-0.027109 0.094878 -0.311659 -1 2 -2 192 192 192 255 0.376724 0.477096
-0.027109 0.094878 -0.311659 -1 2 -2 192 192 192 255 0.349947 0.477839
0.499659 0.094878 -0.311659 2 1 -1 192 192 192 255 0.349947 0.477839
0.499659 0.094878 -0.311659 2 1 -1 192 192 192 255 0.376724 0.477096
0.499659 0.094878 0.311659 1 2 2 192 192 192 255 0.376724 0.477096
0.499659 -0.068552 0.311659 2 3 1.01713 192 192 192 255 0.376724 0.477096
0.499659 -0.068552 -0.311659 1 3 -2.01713 192 192 192 255 0.376724 0.477096
0.499659 0.094878 0.311659 1 2 2 192 192 192 255 0.349947 0.477839
-0.027109 0.094878 0.311659 -2 1 1 192 192 192 255 0.349947 0.477839
-0.499659 -0.036041 0.311659 -2 1 2 192 192 192 255 0.349947 0.477839
-0.499659 -0.068552 0.311659 -1 3 1 192 192 192 255 0.349947 0.477839
-0.027109 -0.036041 0.311659 -1 2 3.01713 192 192 192 255 0.418095 0.479837
-0.027109 -0.036041 -0.311659 -2 1 -3.01713 192 192 192 255 0.418095 0.479837
-0.499659 -0.036041 -0.311659 -1 2 -1 192 192 192 255 0.418095 0.479837
-0.499659 -0.036041 0.311659 -2 1 2 192 192 192 255 0.418095 0.479837
-0.499659 -0.068552 -0.311659 -2 3 -2 192 192 192 255 0.349947 0.477839
-0.499659 -0.036041 -0.311659 -1 2 -1 192 192 192 255 0.349947 0.477839
0.499659 -0.068552 -0.311659 1 3 -2.01713 192 192 192 255 0.26442 0.420688
0.499659 -0.068552 0.311659 2 3 1.01713 192 192 192 255 0.26442 0.420688
-0.027109 -0.068552 0.311659 0 3 2.01713 192 192 192 255 0.26442 0.420688
-0.027109 -0.068552 -0.311659 0 3 -1.01713 192 192 192 255 0.26442 0.420688
-0.499659 -0.068552 0.311659 -1 3 1 192 192 192 255 0.26442 0.420688
-0.499659 -0.068552 -0.311659 -2 3 -2 192 192 192 255 0.26442 0.420688
0.540544 -0.068552 -0.348933 2 3 -1 192 192 192 255 0.206402 0.419977
0.540544 -0.068552 0.348933 1 3 2 192 192 192 255 0.206402 0.419977
0.540544 -0.094878 0.348933 2 -1 1 192 192 192 255 0.206402 0.419977
0.540544 -0.094878 -0.348933 1 -2 -2 192 192 192 255 0.206402 0.419977
0.540544 -0.068552 0.348933 1 3 2 192 192 192 255 0.175161 0.420043
-0.029327 -0.068552 0.348933 0 3 3 192 192 192 255 0.175161 0.420043
-0.029327 -0.094878 0.348933 0 -3 3 192 192 192 255 0.175161 0.420043
0.540544 -0.094878 0.348933 2 -1 1 192 192 192 255 0.175161 0.420043
-0.029327 -0.068552 -0.348933 0 3 -3 192 192 192 255 0.175161 0.420043
0.540544 -0.068552 -0.348933 2 3 -1 192 192 192 255 0.175161 0.420043
0.540544 -0.094878 -0.348933 1 -2 -2 192 192 192 255 0.175161 0.420043
-0.029327 -0.094878 -0.348933 0 -3 -3 192 192 192 255 0.175161 0.420043
-0.540544 -0.068552 0.348933 -2 3 1 192 192 192 255 0.175161 0.420043
-0.540544 -0.094878 0.348933 -1 -2 2 192 192 192 255 0.175161 0.420043
-0.540544 -0.068552 0.348933 -2 3 1 192 192 192 255 0.206402 0.419977
-0.540544 -0.068552 -0.348933 -1 3 -2 192 192 192 255 0.206402 0.419977
-0.540544 -0.094878 -0.348933 -2 -1 -1 192 192 192 255 0.206402 0.419977
-0.540544 -0.094878 0.348933 -1 -2 2 192 192 192 255 0.206402 0.419977
-0.540544 -0.068552 -0.348933 -1 3 -2 192 192 192 255 0.175161 0.420043
-0.540544 -0.094878 -0.348933 -2 -1 -1 192 192 192 255 0.175161 0.420043
3 10 11 12 
3 10 12 13 
3 2 3 5 
3 2 5 4 
3 20 21 22 
3 20 22 23 
3 1 7 8 
3 6 0 9 
3 26 27 28 
3 26 28 29 
3 6 9 30 
3 6 30 31 
3 32 33 34 
3 32 34 35 
3 8 7 36 
3 8 36 37 
3 23 22 24 
3 23 24 25 
3 1 8 38 
3 1 38 39 
3 40 41 42 
3 40 42 43 
3 9 0 44 
3 9 44 45 
3 46 47 15 
3 46 15 14 
3 47 48 16 
3 47 16 15 
3 49 46 14 
3 49 14 17 
3 48 50 18 
3 48 18 16 
3 50 51 19 
3 50 19 18 
3 51 49 17 
3 51 17 19 
3 52 53 54 
3 52 54 55 
3 56 57 58 
3 56 58 59 
3 60 61 62 
3 60 62 63 
3 57 64 65 
3 57 65 58 
3 66 67 68 
3 66 68 69 
3 70 60 63 
3 70 63 71 
