ply
format ascii 1.0
comment VCGLIB generated
comment TextureFile WorldMap.png
element vertex 80
property float x
property float y
property float z
property float nx
property float ny
property float nz
property uchar red
property uchar green
property uchar blue
property uchar alpha
property float texture_u
property float texture_v
element face 52
property list uchar int vertex_indices
end_header
-0.355002 -0.021455 0.58134 -1 -3 2 192 192 192 255 0.358354 0.060665
0.355004 -0.021455 0.58134 2 -3 1 192 192 192 255 0.358354 0.060665
-0.355002 0.021455 0.58134 -2 3 1 192 192 192 255 0.358354 0.060665
0.355004 0.021455 0.58134 1 3 2 192 192 192 255 0.358354 0.060665
-0.355002 0.021455 -0.58134 -1 3 -2 192 192 192 255 0.358354 0.060665
0.355004 0.021455 -0.58134 2 3 -1 192 192 192 255 0.358354 0.060665
-0.355002 -0.021455 -0.58134 -2 -3 -1 192 192 192 255 0.358354 0.060665
0.355004 -0.021455 -0.58134 1 -3 -2 192 192 192 255 0.358354 0.060665
-0.185669 0.021455 0.304048 -0.952766 4.22922 1.77297 192 192 192 255 0.393219 0.060665
0.185671 0.021455 0.304048 1.90553 4.07017 0.886484 192 192 192 255 0.393219 0.060665
0.185671 0.021455 -0.304047 0.952766 4.22919 -1.77298 192 192 192 255 0.393219 0.060665
-0.185669 0.021455 -0.304047 -1.90553 4.07015 -0.886491 192 192 192 255 0.393219 0.060665
-0.185669 -0.021455 -0.304047 -0.952766 -4.22919 -1.77298 192 192 192 255 0.293334 0.060665
0.185671 -0.021455 -0.304047 1.90553 -4.07015 -0.886491 192 192 192 255 0.293334 0.060665
0.185671 -0.021455 0.304048 0.952766 -4.22922 1.77297 192 192 192 255 0.293334 0.060665
-0.185669 -0.021455 0.304048 -1.90553 -4.07017 0.886484 192 192 192 255 0.293334 0.060665
-0.155497 0.116109 0.254637 -1.90553 4.07017 0.886484 192 192 192 255 0.352547 0.046808
0.155499 0.116109 0.254637 0.952766 4.22922 1.77297 192 192 192 255 0.352547 0.046808
0.155499 0.116109 -0.254638 1.90553 4.07015 -0.886491 192 192 192 255 0.325949 0.046876
-0.155497 0.116109 -0.254638 -0.952766 4.22919 -1.77298 192 192 192 255 0.352547 0.046808
-0.155497 -0.116109 -0.254638 -1.90553 -3.07015 -0.886491 192 192 192 255 0.239648 0.046918
0.155499 -0.116109 -0.254638 0.952766 -2.22919 -1.77298 192 192 192 255 0.239648 0.046918
0.155499 -0.116109 0.254637 1.90553 -3.07017 0.886484 192 192 192 255 0.239648 0.046918
-0.155497 -0.116109 0.254637 -0.952766 -2.22922 1.77297 192 192 192 255 0.239648 0.046918
-0.09795 0.116109 0.148076 0 5 0 192 192 192 255 0.423193 0.480927
0.097952 0.116109 0.148076 0 4 0 192 192 192 255 0.423193 0.480927
0.097952 0.116109 -0.185645 0 5 0 192 192 192 255 0.423193 0.480927
-0.09795 0.116109 -0.185645 0 4 0 192 192 192 255 0.423193 0.480927
0.355004 -0.021455 0.58134 2 -3 1 192 192 192 255 0.326315 0.060665
0.355004 -0.021455 -0.58134 1 -3 -2 192 192 192 255 0.326315 0.060665
0.355004 0.021455 -0.58134 2 3 -1 192 192 192 255 0.326315 0.060665
0.355004 0.021455 0.58134 1 3 2 192 192 192 255 0.326315 0.060665
-0.355002 -0.021455 -0.58134 -2 -3 -1 192 192 192 255 0.326315 0.060665
-0.355002 -0.021455 0.58134 -1 -3 2 192 192 192 255 0.326315 0.060665
-0.355002 0.021455 0.58134 -2 3 1 192 192 192 255 0.326315 0.060665
-0.355002 0.021455 -0.58134 -1 3 -2 192 192 192 255 0.326315 0.060665
-0.355002 0.021455 0.58134 -2 3 1 192 192 192 255 0.393219 0.060665
0.355004 0.021455 0.58134 1 3 2 192 192 192 255 0.393219 0.060665
0.355004 0.021455 -0.58134 2 3 -1 192 192 192 255 0.393219 0.060665
-0.355002 0.021455 -0.58134 -1 3 -2 192 192 192 255 0.393219 0.060665
-0.355002 -0.021455 -0.58134 -2 -3 -1 192 192 192 255 0.293334 0.060665
0.355004 -0.021455 -0.58134 1 -3 -2 192 192 192 255 0.293334 0.060665
0.355004 -0.021455 0.58134 2 -3 1 192 192 192 255 0.293334 0.060665
-0.355002 -0.021455 0.58134 -1 -3 2 192 192 192 255 0.293334 0.060665
-0.185669 0.021455 0.304048 -0.952766 4.22922 1.77297 192 192 192 255 0.352547 0.046808
0.185671 0.021455 0.304048 1.90553 4.07017 0.886484 192 192 192 255 0.352547 0.046808
0.185671 0.021455 0.304048 1.90553 4.07017 0.886484 192 192 192 255 0.325949 0.046876
0.185671 0.021455 -0.304047 0.952766 4.22919 -1.77298 192 192 192 255 0.325949 0.046876
0.155499 0.116109 0.254637 0.952766 4.22922 1.77297 192 192 192 255 0.325949 0.046876
0.185671 0.021455 -0.304047 0.952766 4.22919 -1.77298 192 192 192 255 0.352547 0.046808
-0.185669 0.021455 -0.304047 -1.90553 4.07015 -0.886491 192 192 192 255 0.352547 0.046808
0.155499 0.116109 -0.254638 1.90553 4.07015 -0.886491 192 192 192 255 0.352547 0.046808
-0.185669 0.021455 -0.304047 -1.90553 4.07015 -0.886491 192 192 192 255 0.325949 0.046876
-0.185669 0.021455 0.304048 -0.952766 4.22922 1.77297 192 192 192 255 0.325949 0.046876
-0.155497 0.116109 0.254637 -1.90553 4.07017 0.886484 192 192 192 255 0.325949 0.046876
-0.155497 0.116109 -0.254638 -0.952766 4.22919 -1.77298 192 192 192 255 0.325949 0.046876
-0.185669 -0.021455 -0.304047 -0.952766 -4.22919 -1.77298 192 192 192 255 0.298861 0.046808
0.185671 -0.021455 -0.304047 1.90553 -4.07015 -0.886491 192 192 192 255 0.298861 0.046808
0.155499 -0.116109 -0.254638 0.952766 -2.22919 -1.77298 192 192 192 255 0.298861 0.046808
-0.155497 -0.116109 -0.254638 -1.90553 -3.07015 -0.886491 192 192 192 255 0.298861 0.046808
0.185671 -0.021455 -0.304047 1.90553 -4.07015 -0.886491 192 192 192 255 0.272263 0.046876
0.185671 -0.021455 0.304048 0.952766 -4.22922 1.77297 192 192 192 255 0.272263 0.046876
0.155499 -0.116109 0.254637 1.90553 -3.07017 0.886484 192 192 192 255 0.272263 0.046876
0.155499 -0.116109 -0.254638 0.952766 -2.22919 -1.77298 192 192 192 255 0.272263 0.046876
0.185671 -0.021455 0.304048 0.952766 -4.22922 1.77297 192 192 192 255 0.298861 0.046808
-0.185669 -0.021455 0.304048 -1.90553 -4.07017 0.886484 192 192 192 255 0.298861 0.046808
-0.155497 -0.116109 0.254637 -0.952766 -2.22922 1.77297 192 192 192 255 0.298861 0.046808
0.155499 -0.116109 0.254637 1.90553 -3.07017 0.886484 192 192 192 255 0.298861 0.046808
-0.185669 -0.021455 0.304048 -1.90553 -4.07017 0.886484 192 192 192 255 0.272263 0.046876
-0.185669 -0.021455 -0.304047 -0.952766 -4.22919 -1.77298 192 192 192 255 0.272263 0.046876
-0.155497 -0.116109 -0.254638 -1.90553 -3.07015 -0.886491 192 192 192 255 0.272263 0.046876
-0.155497 -0.116109 0.254637 -0.952766 -2.22922 1.77297 192 192 192 255 0.272263 0.046876
-0.155497 0.116109 0.254637 -1.90553 4.07017 0.886484 192 192 192 255 0.393219 0.046918
0.155499 0.116109 0.254637 0.952766 4.22922 1.77297 192 192 192 255 0.393219 0.046918
0.097952 0.116109 0.148076 0 4 0 192 192 192 255 0.393219 0.046918
-0.09795 0.116109 0.148076 0 5 0 192 192 192 255 0.393219 0.046918
0.155499 0.116109 -0.254638 1.90553 4.07015 -0.886491 192 192 192 255 0.393219 0.046918
0.097952 0.116109 -0.185645 0 5 0 192 192 192 255 0.393219 0.046918
-0.155497 0.116109 -0.254638 -0.952766 4.22919 -1.77298 192 192 192 255 0.393219 0.046918
-0.09795 0.116109 -0.185645 0 4 0 192 192 192 255 0.393219 0.046918
3 0 1 3 
3 0 3 2 
3 24 25 26 
3 24 26 27 
3 4 5 7 
3 4 7 6 
3 20 21 22 
3 20 22 23 
3 28 29 30 
3 28 30 31 
3 32 33 34 
3 32 34 35 
3 36 37 9 
3 36 9 8 
3 37 38 10 
3 37 10 9 
3 38 39 11 
3 38 11 10 
3 39 36 8 
3 39 8 11 
3 40 41 13 
3 40 13 12 
3 41 42 14 
3 41 14 13 
3 42 43 15 
3 42 15 14 
3 43 40 12 
3 43 12 15 
3 44 45 17 
3 44 17 16 
3 46 47 18 
3 46 18 48 
3 49 50 19 
3 49 19 51 
3 52 53 54 
3 52 54 55 
3 56 57 58 
3 56 58 59 
3 60 61 62 
3 60 62 63 
3 64 65 66 
3 64 66 67 
3 68 69 70 
3 68 70 71 
3 72 73 74 
3 72 74 75 
3 73 76 77 
3 73 77 74 
3 76 78 79 
3 76 79 77 
3 78 72 75 
3 78 75 79 
