ply
format ascii 1.0
comment VCGLIB generated
comment TextureFile WorldMap.png
element vertex 130
property float x
property float y
property float z
property float nx
property float ny
property float nz
property uchar red
property uchar green
property uchar blue
property uchar alpha
property float texture_u
property float texture_v
element face 72
property list uchar int vertex_indices
end_header
0.018349 0.638206 0.012829 0 -2 1 192 192 192 255 0.265143 0.169261
0.375074 0.638206 0.012829 2 -1 2 192 192 192 255 0.265143 0.169261
0.018349 0.867877 0.012829 0 2 2.00741 192 192 192 255 0.193361 0.33067
0.375074 0.867877 0.012829 1 2 1 192 192 192 255 0.199679 0.171656
0.018349 0.867877 -0.010225 0 1 -1.00741 192 192 192 255 0.193361 0.33067
0.375074 0.867877 -0.010225 2 1 -1 192 192 192 255 0.265143 0.169261
0.018349 0.638206 -0.010225 0 -1 -1 192 192 192 255 0.265143 0.169261
0.375074 0.638206 -0.010225 1 -2 -2 192 192 192 255 0.265143 0.169261
0.177112 0.867877 0.012829 0 2 2.00741 192 192 192 255 0.193361 0.33067
0.177112 0.867877 -0.010225 0 4 -2.00741 192 192 192 255 0.193361 0.33067
0.177112 0.774524 0.012829 0 0 6.00976 192 192 192 255 0.264722 0.327519
0.018349 0.774524 0.012829 0 0 2 192 192 192 255 0.264722 0.327519
0.018349 0.774524 -0.010225 0 0 -3 192 192 192 255 0.265143 0.169261
0.177112 0.774524 -0.010225 0 0 -4.00976 192 192 192 255 0.418668 0.46858
0.375074 0.774524 -0.010225 3 0 -2.00976 192 192 192 255 0.418667 0.46858
0.375074 0.774524 0.012829 3 0 1.00976 192 192 192 255 0.353203 0.470975
0.177112 0.821201 0.012829 0 0 3.00741 192 192 192 255 0.264722 0.327519
0.177112 0.821201 -0.010225 0 0 -5.00741 192 192 192 255 0.264722 0.327519
0.375074 0.821201 -0.010225 3 0 -3 192 192 192 255 0.418667 0.46858
0.375074 0.821201 0.012829 3 0 4 192 192 192 255 0.353203 0.470975
0.018349 0.677193 0.012829 0 0 3 192 192 192 255 0.265143 0.169261
0.018349 0.677193 -0.010225 0 0 -3 192 192 192 255 0.265143 0.169261
0.375074 0.677193 -0.010225 3 0 -3 192 192 192 255 0.265143 0.169261
0.375074 0.677193 0.012829 3 0 3 192 192 192 255 0.265143 0.169261
0.018349 0.725222 0.012829 0 0 4 192 192 192 255 0.418668 0.46858
0.018349 0.725222 -0.010225 0 0 -4 192 192 192 255 0.418668 0.46858
0.375074 0.725222 -0.010225 3 0 -2.00976 192 192 192 255 0.418667 0.46858
0.375074 0.725222 0.012829 3 0 2.00976 192 192 192 255 0.418667 0.46858
-0.089142 0 0.088983 -1 -1 2 192 192 192 255 0.351864 0.266354
0.088824 0 0.088983 2 -2 1 192 192 192 255 0.351864 0.266354
-0.089142 0.081739 0.088983 -2 3 1 192 192 192 255 0.351864 0.266354
0.088824 0.081739 0.088983 1 3 2 192 192 192 255 0.351864 0.266354
-0.089142 0.081739 -0.088985 -1 3 -2 192 192 192 255 0.351864 0.266354
0.088824 0.081739 -0.088985 2 3 -1 192 192 192 255 0.351864 0.266354
-0.089142 0 -0.088985 -2 -2 -1 192 192 192 255 0.351864 0.266354
0.088824 0 -0.088985 1 -1 -2 192 192 192 255 0.351864 0.266354
-0.018669 0.081739 0.018509 -0.999946 3 2 192 192 192 255 0.418127 0.264757
0.018349 0.081739 0.018508 2.00003 3 1 192 192 192 255 0.418127 0.264757
0.018349 0.081739 -0.018511 1 3 -2 192 192 192 255 0.418127 0.264757
-0.018669 0.081739 -0.018511 -2 3 -1 192 192 192 255 0.418127 0.264757
-0.018669 0.900118 0.018509 -1.99997 2 1 192 192 192 255 0.418127 0.264757
0.018349 0.900118 0.018508 1.00005 1 2 192 192 192 255 0.418127 0.264757
0.018349 0.900118 -0.018511 2 2 -1 192 192 192 255 0.418127 0.264757
-0.018669 0.900118 -0.018511 -1 1 -2 192 192 192 255 0.418127 0.264757
0.018349 0.638206 0.012829 0 -2 1 192 192 192 255 0.199679 0.171656
0.018349 0.638206 -0.010225 0 -1 -1 192 192 192 255 0.199679 0.171656
0.375074 0.638206 -0.010225 1 -2 -2 192 192 192 255 0.199679 0.171656
0.375074 0.638206 0.012829 2 -1 2 192 192 192 255 0.199679 0.171656
0.375074 0.677193 -0.010225 3 0 -3 192 192 192 255 0.199679 0.171656
0.375074 0.677193 0.012829 3 0 3 192 192 192 255 0.199679 0.171656
0.018349 0.867877 0.012829 0 2 2.00741 192 192 192 255 0.264722 0.327519
0.018349 0.867877 -0.010225 0 1 -1.00741 192 192 192 255 0.264722 0.327519
0.177112 0.867877 -0.010225 0 4 -2.00741 192 192 192 255 0.264722 0.327519
0.177112 0.821201 -0.010225 0 0 -5.00741 192 192 192 255 0.418668 0.46858
0.375074 0.774524 -0.010225 3 0 -2.00976 192 192 192 255 0.353203 0.470975
0.375074 0.821201 -0.010225 3 0 -3 192 192 192 255 0.353203 0.470975
0.375074 0.821201 0.012829 3 0 4 192 192 192 255 0.418667 0.46858
0.177112 0.821201 0.012829 0 0 3.00741 192 192 192 255 0.418668 0.46858
0.177112 0.774524 0.012829 0 0 6.00976 192 192 192 255 0.418668 0.46858
0.375074 0.774524 0.012829 3 0 1.00976 192 192 192 255 0.418667 0.46858
0.375074 0.821201 -0.010225 3 0 -3 192 192 192 255 0.265143 0.169261
0.177112 0.821201 -0.010225 0 0 -5.00741 192 192 192 255 0.265143 0.169261
0.177112 0.867877 -0.010225 0 4 -2.00741 192 192 192 255 0.265143 0.169261
0.375074 0.821201 0.012829 3 0 4 192 192 192 255 0.199679 0.171656
0.375074 0.821201 -0.010225 3 0 -3 192 192 192 255 0.199679 0.171656
0.375074 0.867877 -0.010225 2 1 -1 192 192 192 255 0.199679 0.171656
0.177112 0.867877 0.012829 0 2 2.00741 192 192 192 255 0.265143 0.169261
0.177112 0.821201 0.012829 0 0 3.00741 192 192 192 255 0.265143 0.169261
0.375074 0.821201 0.012829 3 0 4 192 192 192 255 0.265143 0.169261
0.375074 0.867877 0.012829 1 2 1 192 192 192 255 0.265143 0.169261
0.018349 0.677193 0.012829 0 0 3 192 192 192 255 0.418668 0.46858
0.375074 0.677193 0.012829 3 0 3 192 192 192 255 0.418667 0.46858
0.375074 0.677193 -0.010225 3 0 -3 192 192 192 255 0.418667 0.46858
0.018349 0.677193 -0.010225 0 0 -3 192 192 192 255 0.418668 0.46858
0.375074 0.677193 0.012829 3 0 3 192 192 192 255 0.353203 0.470975
0.375074 0.677193 -0.010225 3 0 -3 192 192 192 255 0.353203 0.470975
0.375074 0.725222 -0.010225 3 0 -2.00976 192 192 192 255 0.353203 0.470975
0.375074 0.725222 0.012829 3 0 2.00976 192 192 192 255 0.353203 0.470975
0.177112 0.774524 0.012829 0 0 6.00976 192 192 192 255 0.265143 0.169261
0.375074 0.725222 0.012829 3 0 2.00976 192 192 192 255 0.265143 0.169261
0.375074 0.774524 0.012829 3 0 1.00976 192 192 192 255 0.265143 0.169261
0.375074 0.725222 -0.010225 3 0 -2.00976 192 192 192 255 0.265143 0.169261
0.177112 0.774524 -0.010225 0 0 -4.00976 192 192 192 255 0.265143 0.169261
0.375074 0.774524 -0.010225 3 0 -2.00976 192 192 192 255 0.265143 0.169261
0.375074 0.725222 0.012829 3 0 2.00976 192 192 192 255 0.199679 0.171656
0.375074 0.725222 -0.010225 3 0 -2.00976 192 192 192 255 0.199679 0.171656
0.375074 0.774524 -0.010225 3 0 -2.00976 192 192 192 255 0.199679 0.171656
0.375074 0.774524 0.012829 3 0 1.00976 192 192 192 255 0.199679 0.171656
-0.089142 0 -0.088985 -2 -2 -1 192 192 192 255 0.23291 0.269547
0.088824 0 -0.088985 1 -1 -2 192 192 192 255 0.23291 0.269547
0.088824 0 0.088983 2 -2 1 192 192 192 255 0.23291 0.269547
-0.089142 0 0.088983 -1 -1 2 192 192 192 255 0.23291 0.269547
0.088824 0 0.088983 2 -2 1 192 192 192 255 0.266441 0.26795
0.088824 0 -0.088985 1 -1 -2 192 192 192 255 0.266441 0.26795
0.088824 0.081739 -0.088985 2 3 -1 192 192 192 255 0.266441 0.26795
0.088824 0.081739 0.088983 1 3 2 192 192 192 255 0.266441 0.26795
-0.089142 0 -0.088985 -2 -2 -1 192 192 192 255 0.266441 0.26795
-0.089142 0 0.088983 -1 -1 2 192 192 192 255 0.266441 0.26795
-0.089142 0.081739 0.088983 -2 3 1 192 192 192 255 0.266441 0.26795
-0.089142 0.081739 -0.088985 -1 3 -2 192 192 192 255 0.266441 0.26795
-0.089142 0.081739 0.088983 -2 3 1 192 192 192 255 0.418127 0.264757
0.088824 0.081739 0.088983 1 3 2 192 192 192 255 0.418127 0.264757
0.088824 0.081739 -0.088985 2 3 -1 192 192 192 255 0.418127 0.264757
-0.089142 0.081739 -0.088985 -1 3 -2 192 192 192 255 0.418127 0.264757
-0.018669 0.081739 0.018509 -0.999946 3 2 192 192 192 255 0.351864 0.266354
0.018349 0.081739 0.018508 2.00003 3 1 192 192 192 255 0.351864 0.266354
0.018349 0.900118 0.018508 1.00005 1 2 192 192 192 255 0.351864 0.266354
-0.018669 0.900118 0.018509 -1.99997 2 1 192 192 192 255 0.351864 0.266354
0.018349 0.081739 0.018508 2.00003 3 1 192 192 192 255 0.266441 0.26795
0.018349 0.081739 -0.018511 1 3 -2 192 192 192 255 0.266441 0.26795
0.018349 0.900118 -0.018511 2 2 -1 192 192 192 255 0.266441 0.26795
0.018349 0.900118 0.018508 1.00005 1 2 192 192 192 255 0.266441 0.26795
0.018349 0.081739 -0.018511 1 3 -2 192 192 192 255 0.351864 0.266354
-0.018669 0.081739 -0.018511 -2 3 -1 192 192 192 255 0.351864 0.266354
-0.018669 0.900118 -0.018511 -1 1 -2 192 192 192 255 0.351864 0.266354
0.018349 0.900118 -0.018511 2 2 -1 192 192 192 255 0.351864 0.266354
-0.018669 0.081739 -0.018511 -2 3 -1 192 192 192 255 0.266441 0.26795
-0.018669 0.081739 0.018509 -0.999946 3 2 192 192 192 255 0.266441 0.26795
-0.018669 0.900118 0.018509 -1.99997 2 1 192 192 192 255 0.266441 0.26795
-0.018669 0.900118 -0.018511 -1 1 -2 192 192 192 255 0.266441 0.26795
0.018349 0.774524 0.012829 0 0 2 192 192 192 255 0.265143 0.169261
0.018349 0.725222 0.012829 0 0 4 192 192 192 255 0.265143 0.169261
0.177112 0.867877 0.012829 0 2 2.00741 192 192 192 255 0.264722 0.327519
0.018349 0.725222 -0.010225 0 0 -4 192 192 192 255 0.265143 0.169261
0.177112 0.774524 -0.010225 0 0 -4.00976 192 192 192 255 0.264722 0.327519
0.018349 0.774524 -0.010225 0 0 -3 192 192 192 255 0.264722 0.327519
0.177112 0.867877 -0.010225 0 4 -2.00741 192 192 192 255 0.197353 0.171799
0.177112 0.867877 0.012829 0 2 2.00741 192 192 192 255 0.197353 0.171799
0.375074 0.867877 0.012829 1 2 1 192 192 192 255 0.197353 0.171799
0.375074 0.867877 -0.010225 2 1 -1 192 192 192 255 0.197353 0.171799
3 20 0 1 
3 20 1 23 
3 9 4 2 
3 9 2 8 
3 7 6 21 
3 7 21 22 
3 44 45 46 
3 44 46 47 
3 47 46 48 
3 47 48 49 
3 50 11 10 
3 50 10 16 
3 17 51 52 
3 14 13 53 
3 14 53 18 
3 15 54 55 
3 15 55 19 
3 56 57 58 
3 56 58 59 
3 60 61 62 
3 60 62 5 
3 63 64 65 
3 63 65 3 
3 66 67 68 
3 66 68 69 
3 24 70 71 
3 24 71 27 
3 72 73 25 
3 72 25 26 
3 74 75 76 
3 74 76 77 
3 78 79 80 
3 81 82 83 
3 84 85 86 
3 84 86 87 
3 28 29 31 
3 28 31 30 
3 40 41 42 
3 40 42 43 
3 32 33 35 
3 32 35 34 
3 88 89 90 
3 88 90 91 
3 92 93 94 
3 92 94 95 
3 96 97 98 
3 96 98 99 
3 100 101 37 
3 100 37 36 
3 101 102 38 
3 101 38 37 
3 102 103 39 
3 102 39 38 
3 103 100 36 
3 103 36 39 
3 104 105 106 
3 104 106 107 
3 108 109 110 
3 108 110 111 
3 112 113 114 
3 112 114 115 
3 116 117 118 
3 116 118 119 
3 78 120 121 
3 78 121 79 
3 50 16 122 
3 123 12 82 
3 123 82 81 
3 17 124 125 
3 17 125 51 
3 126 127 128 
3 126 128 129 
