ply
format ascii 1.0
comment VCGLIB generated
comment TextureFile WorldMap.png
element vertex 104
property float x
property float y
property float z
property float nx
property float ny
property float nz
property uchar red
property uchar green
property uchar blue
property uchar alpha
property float texture_u
property float texture_v
element face 60
property list uchar int vertex_indices
end_header
-0.089888 10.2954 0.089888 -1 -3 2 192 192 192 255 0.20391 0.062068
0.089888 10.2954 0.089888 2 -3 1 192 192 192 255 0.235948 0.062068
-0.219338 11.8145 0.219337 -1.3718 4.18309 0.685901 192 192 192 255 0.301832 0.220855
0.219338 11.8145 0.219337 0.685898 3.18309 1.3718 192 192 192 255 0.301832 0.220855
-0.219338 11.8145 -0.219339 -0.685898 3.18309 -1.3718 192 192 192 255 0.301832 0.220855
0.219338 11.8145 -0.219339 1.3718 4.18309 -0.685901 192 192 192 255 0.301832 0.220855
-0.089888 10.2954 -0.089888 -2 -3 -1 192 192 192 255 0.20391 0.062068
0.089888 10.2954 -0.089888 1 -3 -2 192 192 192 255 0.20391 0.062068
-0.34255 11.3102 -0.34255 -2.94705 -0.963292 -2.89409 192 192 192 255 0.235948 0.220855
-0.34255 11.3102 0.342548 -2.89409 -0.963289 2.94705 192 192 192 255 0.235948 0.220855
0.34255 11.3102 0.342548 2.94705 -0.963287 2.89409 192 192 192 255 0.235948 0.220855
0.34255 11.3102 -0.34255 2.89409 -0.963292 -2.94705 192 192 192 255 0.235948 0.220855
-0.089888 10.565 -0.089888 -2.89409 -0.963292 -2.94705 192 192 192 255 0.171191 0.220855
-0.089888 10.565 0.089888 -2.94705 -0.963287 2.89409 192 192 192 255 0.171191 0.220855
0.089888 10.565 0.089888 2.89409 -0.963289 2.94705 192 192 192 255 0.203229 0.220855
0.089888 10.565 -0.089888 2.94705 -0.963292 -2.89409 192 192 192 255 0.171191 0.220855
0.34255 11.6983 0.342548 2.3718 2.18309 2.6859 192 192 192 255 0.235948 0.220855
-0.34255 11.6983 0.342548 -2.6859 2.18309 2.3718 192 192 192 255 0.235948 0.220855
-0.34255 11.6983 -0.34255 -2.3718 2.18309 -2.6859 192 192 192 255 0.235948 0.220855
0.34255 11.6983 -0.34255 2.6859 2.18309 -2.3718 192 192 192 255 0.235948 0.220855
-0.089888 10.4183 -0.089888 -3 0 -3 192 192 192 255 0.20391 0.220855
-0.089888 10.4183 0.089888 -3 0 3 192 192 192 255 0.20391 0.220855
0.089888 10.4183 0.089888 3 0 3 192 192 192 255 0.235948 0.220855
0.089888 10.4183 -0.089888 3 0 -3 192 192 192 255 0.20391 0.220855
-0.04201 10.2954 -0.042009 -1 -3 -2 192 192 192 255 0.170929 0.062068
0.04201 10.2954 -0.042009 2 -3 -1 192 192 192 255 0.170929 0.062068
0.04201 10.2954 0.042013 1 -3 2 192 192 192 255 0.170929 0.062068
-0.04201 10.2954 0.042013 -2 -3 1 192 192 192 255 0.170929 0.062068
-0.04201 0 -0.042009 -2 -2 -1 192 192 192 255 0.170929 0.062068
0.04201 0 -0.042009 1 -1 -2 192 192 192 255 0.170929 0.062068
0.04201 0 0.042013 2 -2 1 192 192 192 255 0.170929 0.062068
-0.04201 0 0.042013 -1 -1 2 192 192 192 255 0.170929 0.062068
0.34255 11.3102 0.342548 2.94705 -0.963287 2.89409 192 192 192 255 0.20391 0.220855
0.34255 11.3102 -0.34255 2.89409 -0.963292 -2.94705 192 192 192 255 0.20391 0.220855
0.34255 11.6983 -0.34255 2.6859 2.18309 -2.3718 192 192 192 255 0.20391 0.220855
0.34255 11.6983 0.342548 2.3718 2.18309 2.6859 192 192 192 255 0.20391 0.220855
-0.34255 11.3102 -0.34255 -2.94705 -0.963292 -2.89409 192 192 192 255 0.20391 0.220855
-0.34255 11.3102 0.342548 -2.89409 -0.963289 2.94705 192 192 192 255 0.20391 0.220855
-0.34255 11.6983 0.342548 -2.6859 2.18309 2.3718 192 192 192 255 0.20391 0.220855
-0.34255 11.6983 -0.34255 -2.3718 2.18309 -2.6859 192 192 192 255 0.20391 0.220855
-0.34255 11.3102 0.342548 -2.89409 -0.963289 2.94705 192 192 192 255 0.171191 0.220855
-0.34255 11.3102 -0.34255 -2.94705 -0.963292 -2.89409 192 192 192 255 0.171191 0.220855
-0.089888 10.565 0.089888 -2.94705 -0.963287 2.89409 192 192 192 255 0.203229 0.220855
0.34255 11.3102 0.342548 2.94705 -0.963287 2.89409 192 192 192 255 0.203229 0.220855
-0.34255 11.3102 0.342548 -2.89409 -0.963289 2.94705 192 192 192 255 0.203229 0.220855
0.089888 10.565 0.089888 2.89409 -0.963289 2.94705 192 192 192 255 0.171191 0.220855
0.34255 11.3102 -0.34255 2.89409 -0.963292 -2.94705 192 192 192 255 0.171191 0.220855
0.34255 11.3102 0.342548 2.94705 -0.963287 2.89409 192 192 192 255 0.171191 0.220855
-0.34255 11.3102 -0.34255 -2.94705 -0.963292 -2.89409 192 192 192 255 0.203229 0.220855
0.34255 11.3102 -0.34255 2.89409 -0.963292 -2.94705 192 192 192 255 0.203229 0.220855
0.089888 10.565 -0.089888 2.94705 -0.963292 -2.89409 192 192 192 255 0.203229 0.220855
-0.089888 10.565 -0.089888 -2.89409 -0.963292 -2.94705 192 192 192 255 0.203229 0.220855
-0.089888 10.565 0.089888 -2.94705 -0.963287 2.89409 192 192 192 255 0.20391 0.220855
-0.089888 10.565 -0.089888 -2.89409 -0.963292 -2.94705 192 192 192 255 0.20391 0.220855
-0.089888 10.4183 0.089888 -3 0 3 192 192 192 255 0.235948 0.220855
0.089888 10.565 0.089888 2.89409 -0.963289 2.94705 192 192 192 255 0.235948 0.220855
-0.089888 10.565 0.089888 -2.94705 -0.963287 2.89409 192 192 192 255 0.235948 0.220855
0.089888 10.4183 0.089888 3 0 3 192 192 192 255 0.20391 0.220855
0.089888 10.565 -0.089888 2.94705 -0.963292 -2.89409 192 192 192 255 0.20391 0.220855
0.089888 10.565 0.089888 2.89409 -0.963289 2.94705 192 192 192 255 0.20391 0.220855
-0.089888 10.565 -0.089888 -2.89409 -0.963292 -2.94705 192 192 192 255 0.235948 0.220855
0.089888 10.565 -0.089888 2.94705 -0.963292 -2.89409 192 192 192 255 0.235948 0.220855
0.089888 10.4183 -0.089888 3 0 -3 192 192 192 255 0.235948 0.220855
-0.089888 10.4183 -0.089888 -3 0 -3 192 192 192 255 0.235948 0.220855
-0.34255 11.6983 0.342548 -2.6859 2.18309 2.3718 192 192 192 255 0.266967 0.220855
0.34255 11.6983 0.342548 2.3718 2.18309 2.6859 192 192 192 255 0.266967 0.220855
0.219338 11.8145 0.219337 0.685898 3.18309 1.3718 192 192 192 255 0.266967 0.220855
-0.219338 11.8145 0.219337 -1.3718 4.18309 0.685901 192 192 192 255 0.266967 0.220855
-0.34255 11.6983 -0.34255 -2.3718 2.18309 -2.6859 192 192 192 255 0.234928 0.220855
-0.34255 11.6983 0.342548 -2.6859 2.18309 2.3718 192 192 192 255 0.234928 0.220855
-0.219338 11.8145 0.219337 -1.3718 4.18309 0.685901 192 192 192 255 0.234928 0.220855
-0.219338 11.8145 -0.219339 -0.685898 3.18309 -1.3718 192 192 192 255 0.234928 0.220855
-0.219338 11.8145 -0.219339 -0.685898 3.18309 -1.3718 192 192 192 255 0.266967 0.220855
0.219338 11.8145 -0.219339 1.3718 4.18309 -0.685901 192 192 192 255 0.266967 0.220855
0.34255 11.6983 -0.34255 2.6859 2.18309 -2.3718 192 192 192 255 0.266967 0.220855
-0.34255 11.6983 -0.34255 -2.3718 2.18309 -2.6859 192 192 192 255 0.266967 0.220855
0.34255 11.6983 0.342548 2.3718 2.18309 2.6859 192 192 192 255 0.234928 0.220855
0.34255 11.6983 -0.34255 2.6859 2.18309 -2.3718 192 192 192 255 0.234928 0.220855
0.219338 11.8145 -0.219339 1.3718 4.18309 -0.685901 192 192 192 255 0.234928 0.220855
0.219338 11.8145 0.219337 0.685898 3.18309 1.3718 192 192 192 255 0.234928 0.220855
-0.089888 10.4183 0.089888 -3 0 3 192 192 192 255 0.20391 0.062068
-0.089888 10.4183 -0.089888 -3 0 -3 192 192 192 255 0.20391 0.062068
-0.089888 10.2954 0.089888 -1 -3 2 192 192 192 255 0.235948 0.062068
0.089888 10.4183 0.089888 3 0 3 192 192 192 255 0.235948 0.062068
-0.089888 10.4183 0.089888 -3 0 3 192 192 192 255 0.235948 0.062068
0.089888 10.2954 0.089888 2 -3 1 192 192 192 255 0.20391 0.062068
0.089888 10.4183 -0.089888 3 0 -3 192 192 192 255 0.20391 0.062068
0.089888 10.4183 0.089888 3 0 3 192 192 192 255 0.20391 0.062068
-0.089888 10.4183 -0.089888 -3 0 -3 192 192 192 255 0.235948 0.062068
0.089888 10.4183 -0.089888 3 0 -3 192 192 192 255 0.235948 0.062068
0.089888 10.2954 -0.089888 1 -3 -2 192 192 192 255 0.235948 0.062068
-0.089888 10.2954 -0.089888 -2 -3 -1 192 192 192 255 0.235948 0.062068
-0.089888 10.2954 -0.089888 -2 -3 -1 192 192 192 255 0.170929 0.062068
0.089888 10.2954 -0.089888 1 -3 -2 192 192 192 255 0.170929 0.062068
0.089888 10.2954 0.089888 2 -3 1 192 192 192 255 0.170929 0.062068
-0.089888 10.2954 0.089888 -1 -3 2 192 192 192 255 0.170929 0.062068
-0.04201 10.2954 -0.042009 -1 -3 -2 192 192 192 255 0.20252 0.062068
0.04201 10.2954 -0.042009 2 -3 -1 192 192 192 255 0.20252 0.062068
0.04201 0 -0.042009 1 -1 -2 192 192 192 255 0.20252 0.062068
-0.04201 0 -0.042009 -2 -2 -1 192 192 192 255 0.20252 0.062068
0.04201 10.2954 0.042013 1 -3 2 192 192 192 255 0.20252 0.062068
-0.04201 10.2954 0.042013 -2 -3 1 192 192 192 255 0.20252 0.062068
-0.04201 0 0.042013 -1 -1 2 192 192 192 255 0.20252 0.062068
0.04201 0 0.042013 2 -2 1 192 192 192 255 0.20252 0.062068
3 9 10 16 
3 9 16 17 
3 2 3 5 
3 2 5 4 
3 18 19 11 
3 18 11 8 
3 28 29 30 
3 28 30 31 
3 32 33 34 
3 32 34 35 
3 36 37 38 
3 36 38 39 
3 12 13 40 
3 12 40 41 
3 42 14 43 
3 42 43 44 
3 45 15 46 
3 45 46 47 
3 48 49 50 
3 48 50 51 
3 20 21 52 
3 20 52 53 
3 54 22 55 
3 54 55 56 
3 57 23 58 
3 57 58 59 
3 60 61 62 
3 60 62 63 
3 64 65 66 
3 64 66 67 
3 68 69 70 
3 68 70 71 
3 72 73 74 
3 72 74 75 
3 76 77 78 
3 76 78 79 
3 6 0 80 
3 6 80 81 
3 82 1 83 
3 82 83 84 
3 85 7 86 
3 85 86 87 
3 88 89 90 
3 88 90 91 
3 92 93 25 
3 92 25 24 
3 93 94 26 
3 93 26 25 
3 94 95 27 
3 94 27 26 
3 95 92 24 
3 95 24 27 
3 96 97 98 
3 96 98 99 
3 25 26 30 
3 25 30 29 
3 100 101 102 
3 100 102 103 
3 27 24 28 
3 27 28 31 
