ply
format ascii 1.0
comment VCGLIB generated
comment TextureFile SpaceInteriors_Texture.png
element vertex 60
property float x
property float y
property float z
property float nx
property float ny
property float nz
property uchar red
property uchar green
property uchar blue
property uchar alpha
property float texture_u
property float texture_v
element face 52
property list uchar int vertex_indices
end_header
-0.079603 0.479997 0.079605 -2.91552 0.862724 2.95776 192 192 192 255 0.389378 0.081635
0.079604 0.479997 0.079605 2.95776 0.862722 2.91552 192 192 192 255 0.389378 0.081635
-0.079603 0.66631 0.079605 -2 -3 1 192 192 192 255 0.389378 0.081635
0.079604 0.66631 0.079605 1 -3 2 192 192 192 255 0.389378 0.081635
-0.079603 0.66631 -0.079605 -1 -3 -2 192 192 192 255 0.389378 0.081635
0.079604 0.66631 -0.079605 2 -3 -1 192 192 192 255 0.389378 0.081635
-0.079603 0.479997 -0.079605 -2.95776 0.862724 -2.91552 192 192 192 255 0.389378 0.081635
0.079604 0.479997 -0.079605 2.91552 0.862719 -2.95776 192 192 192 255 0.389378 0.081635
-0.10044 0.66631 0.100441 -1 -3 2 192 192 192 255 0.389378 0.081635
0.10044 0.66631 0.100441 2 -3 1 192 192 192 255 0.389378 0.081635
0.10044 0.66631 -0.100441 1 -3 -2 192 192 192 255 0.389378 0.081635
-0.10044 0.66631 -0.100441 -2 -3 -1 192 192 192 255 0.389378 0.081635
-0.10044 0.693189 0.100441 -2 3 1 192 192 192 255 0.389378 0.081635
0.10044 0.693189 0.100441 1 3 2 192 192 192 255 0.389378 0.081635
0.10044 0.693189 -0.100441 2 3 -1 192 192 192 255 0.353218 0.081635
-0.10044 0.693189 -0.100441 -1 3 -2 192 192 192 255 0.389378 0.081635
-0.06894 0.693189 0.068939 0 5 0 192 192 192 255 0.297592 0.085437
0.06894 0.693189 0.068939 0 4 0 192 192 192 255 0.297592 0.085437
0.06894 0.693189 -0.068939 0 5 0 192 192 192 255 0.297592 0.085437
-0.06894 0.693189 -0.068939 0 4 0 192 192 192 255 0.297592 0.085437
-0.195272 0.094765 -0.195274 -2.81314 -0.45967 -2.75296 192 192 192 255 0.389378 0.081635
0.195272 0.094765 -0.195274 2.753 -0.459634 -2.81312 192 192 192 255 0.389378 0.081635
0.195272 0.094765 0.195274 2.81314 -0.459674 2.75296 192 192 192 255 0.353218 0.081635
-0.195272 0.094765 0.195274 -2.753 -0.459632 2.81312 192 192 192 255 0.389378 0.081635
-0.148738 0 -0.148735 -1.79524 -3.32236 -0.8976 192 192 192 255 0.389378 0.081635
0.148738 0 -0.148735 0.897619 -2.32239 -1.7952 192 192 192 255 0.389378 0.081635
0.148738 0 0.148735 1.79524 -3.32236 0.8976 192 192 192 255 0.389378 0.081635
-0.148738 0 0.148735 -0.897619 -2.32239 1.7952 192 192 192 255 0.389378 0.081635
0.079604 0.479997 0.079605 2.95776 0.862722 2.91552 192 192 192 255 0.353218 0.081635
0.079604 0.479997 -0.079605 2.91552 0.862719 -2.95776 192 192 192 255 0.353218 0.081635
0.079604 0.66631 -0.079605 2 -3 -1 192 192 192 255 0.353218 0.081635
0.079604 0.66631 0.079605 1 -3 2 192 192 192 255 0.353218 0.081635
-0.079603 0.479997 -0.079605 -2.95776 0.862724 -2.91552 192 192 192 255 0.353218 0.081635
-0.079603 0.479997 0.079605 -2.91552 0.862724 2.95776 192 192 192 255 0.353218 0.081635
-0.079603 0.66631 0.079605 -2 -3 1 192 192 192 255 0.353218 0.081635
-0.079603 0.66631 -0.079605 -1 -3 -2 192 192 192 255 0.353218 0.081635
0.10044 0.66631 0.100441 2 -3 1 192 192 192 255 0.353218 0.081635
0.10044 0.66631 -0.100441 1 -3 -2 192 192 192 255 0.353218 0.081635
0.10044 0.693189 0.100441 1 3 2 192 192 192 255 0.353218 0.081635
0.10044 0.693189 -0.100441 2 3 -1 192 192 192 255 0.389378 0.081635
-0.10044 0.66631 -0.100441 -2 -3 -1 192 192 192 255 0.353218 0.081635
-0.10044 0.66631 0.100441 -1 -3 2 192 192 192 255 0.353218 0.081635
-0.10044 0.693189 0.100441 -2 3 1 192 192 192 255 0.353218 0.081635
-0.10044 0.693189 -0.100441 -1 3 -2 192 192 192 255 0.353218 0.081635
-0.10044 0.693189 0.100441 -2 3 1 192 192 192 255 0.417738 0.081635
0.10044 0.693189 0.100441 1 3 2 192 192 192 255 0.417738 0.081635
0.06894 0.693189 0.068939 0 4 0 192 192 192 255 0.417738 0.081635
-0.06894 0.693189 0.068939 0 5 0 192 192 192 255 0.417738 0.081635
0.10044 0.693189 -0.100441 2 3 -1 192 192 192 255 0.417738 0.081635
0.06894 0.693189 -0.068939 0 5 0 192 192 192 255 0.417738 0.081635
-0.10044 0.693189 -0.100441 -1 3 -2 192 192 192 255 0.417738 0.081635
-0.06894 0.693189 -0.068939 0 4 0 192 192 192 255 0.417738 0.081635
0.195272 0.094765 -0.195274 2.753 -0.459634 -2.81312 192 192 192 255 0.353218 0.081635
0.195272 0.094765 0.195274 2.81314 -0.459674 2.75296 192 192 192 255 0.389378 0.081635
-0.195272 0.094765 -0.195274 -2.81314 -0.45967 -2.75296 192 192 192 255 0.353218 0.081635
-0.195272 0.094765 0.195274 -2.753 -0.459632 2.81312 192 192 192 255 0.353218 0.081635
0.148738 0 0.148735 1.79524 -3.32236 0.8976 192 192 192 255 0.353218 0.081635
0.148738 0 -0.148735 0.897619 -2.32239 -1.7952 192 192 192 255 0.353218 0.081635
-0.148738 0 -0.148735 -1.79524 -3.32236 -0.8976 192 192 192 255 0.353218 0.081635
-0.148738 0 0.148735 -0.897619 -2.32239 1.7952 192 192 192 255 0.353218 0.081635
3 0 1 3 
3 0 3 2 
3 16 17 18 
3 16 18 19 
3 4 5 7 
3 4 7 6 
3 24 25 26 
3 24 26 27 
3 28 29 30 
3 28 30 31 
3 32 33 34 
3 32 34 35 
3 2 3 9 
3 2 9 8 
3 3 5 10 
3 3 10 9 
3 5 4 11 
3 5 11 10 
3 4 2 8 
3 4 8 11 
3 8 9 13 
3 8 13 12 
3 36 37 14 
3 36 14 38 
3 10 11 15 
3 10 15 39 
3 40 41 42 
3 40 42 43 
3 44 45 46 
3 44 46 47 
3 45 48 49 
3 45 49 46 
3 48 50 51 
3 48 51 49 
3 50 44 47 
3 50 47 51 
3 6 7 21 
3 6 21 20 
3 29 28 22 
3 29 22 52 
3 1 0 23 
3 1 23 53 
3 33 32 54 
3 33 54 55 
3 20 21 25 
3 20 25 24 
3 52 22 56 
3 52 56 57 
3 53 23 27 
3 53 27 26 
3 55 54 58 
3 55 58 59 
