ply
format ascii 1.0
comment VCGLIB generated
comment TextureFile SpaceInteriors_Texture.png
element vertex 318
property float x
property float y
property float z
property float nx
property float ny
property float nz
property uchar red
property uchar green
property uchar blue
property uchar alpha
property float texture_u
property float texture_v
element face 250
property list uchar int vertex_indices
end_header
-0.681454 0.592968 -0.296897 -0.247065 0.968999 -2 192 192 192 255 0.20037 0.22113
0.344631 0.592968 -0.296897 0.494147 1.93799 -2 192 192 192 255 0.232409 0.22113
-0.500881 0.7997 -0.296897 -1.75177 2.96505 -3 192 192 192 255 0.267274 0.22113
0.164061 0.7997 -0.296897 0.875883 1.48252 -4 192 192 192 255 0.267274 0.22113
-0.500881 0.7997 -0.192653 -0.875884 1.48252 4 192 192 192 255 0.267274 0.22113
0.164061 0.7997 -0.192653 1.75177 2.96505 3 192 192 192 255 0.267274 0.22113
-0.681454 0.592968 -0.192653 -0.494129 1.938 2 192 192 192 255 0.20037 0.22113
0.344631 0.592968 -0.192653 0.247074 0.968997 2 192 192 192 255 0.20037 0.22113
-0.462221 0.592969 -0.296897 0.573947 1.91588 -1 192 192 192 255 0.232409 0.22113
0.125401 0.592969 -0.296897 -0.286978 0.957937 -1 192 192 192 255 0.232409 0.22113
0.106323 0.75162 -0.296897 -1.70526 -3.04503 -2 192 192 192 255 0.232409 0.22113
-0.443144 0.75162 -0.296897 1.70526 -2.04503 -3 192 192 192 255 0.232409 0.22113
-0.443144 0.75162 -0.192653 0.85263 -2.52252 2 192 192 192 255 0.232409 0.22113
0.106323 0.75162 -0.192653 -0.85263 -1.52252 3 192 192 192 255 0.232409 0.22113
0.125401 0.592969 -0.192653 -0.573955 1.91587 1 192 192 192 255 0.232409 0.22113
-0.462221 0.592969 -0.192653 0.286974 0.957939 1 192 192 192 255 0.232409 0.22113
-0.603872 0.612749 -0.192653 -1.99883 1.93404 2 192 192 192 255 0.20037 0.22113
-0.603872 0.612749 -0.296897 -1.37001 2.42052 -2 192 192 192 255 0.20037 0.22113
-0.528248 0.612749 -0.296897 1.1396 0.435423 -4 192 192 192 255 0.232409 0.22113
-0.528248 0.612749 -0.192653 2.27921 0.870847 4 192 192 192 255 0.232409 0.22113
0.191427 0.612749 -0.296897 -1.42658 1.39336 -4 192 192 192 255 0.232409 0.22113
0.267052 0.612749 -0.296897 1.99884 1.93404 -2 192 192 192 255 0.20037 0.22113
0.267052 0.612749 -0.192653 1.37003 2.42052 2 192 192 192 255 0.20037 0.22113
0.191427 0.612749 -0.192653 -1.99224 -0.0870933 4 192 192 192 255 0.232409 0.22113
-0.806185 0.084501 -0.734324 -3 0 -3 192 192 192 255 0.173939 0.061667
0.502163 0.084501 -0.734324 2 0 -3 192 192 192 255 0.1419 0.061667
-0.806185 0.592969 -0.734324 -3 3 -3 192 192 192 255 0.208804 0.061667
0.502163 0.592969 -0.734324 1 1.00666 -3 192 192 192 255 0.1419 0.061667
-0.806185 0.592969 -0.244773 -3 3 0 192 192 192 255 0.208804 0.061667
0.502163 0.592969 -0.244773 1 2.00666 0 192 192 192 255 0.1419 0.061667
-0.806185 0.084501 -0.244773 -3 0 0 192 192 192 255 0.1419 0.061667
0.502163 0.084501 -0.244773 2 0 0 192 192 192 255 0.1419 0.061667
0.502163 0.084501 -0.611938 1 0 -1 192 192 192 255 0.1419 0.061667
0.502163 0.592969 -0.611938 2 5.00666 -2 192 192 192 255 0.1419 0.061667
0.502163 0.084501 -0.367166 1 0 2 192 192 192 255 0.1419 0.061667
0.502163 0.592969 -0.367166 2 4.00666 1 192 192 192 255 0.1419 0.061667
0.655226 0.084501 -0.367166 2 0 1 192 192 192 255 0.1419 0.061667
0.655226 0.592969 -0.367166 1 3 2 192 192 192 255 0.1419 0.061667
0.655226 0.084501 -0.611938 1 0 -2 192 192 192 255 0.1419 0.061667
0.655226 0.592969 -0.611938 2 3 -1 192 192 192 255 0.1419 0.061667
0.580786 0.592969 -0.392283 0 4 0 192 192 192 255 0.326593 0.479853
0.628321 0.592969 -0.392283 0 5 0 192 192 192 255 0.326593 0.479853
0.580786 0.592969 -0.49631 0 5 0 192 192 192 255 0.326593 0.479853
0.628321 0.592969 -0.49631 0 4 0 192 192 192 255 0.326593 0.479853
-0.751741 0.592969 -0.682208 0 5 0 192 192 192 255 0.139189 0.061667
0.447721 0.592969 -0.682208 0 4.00666 0 192 192 192 255 0.139189 0.061667
0.447721 0.592969 -0.296897 0 5.00666 0 192 192 192 255 0.139189 0.061667
-0.751741 0.592969 -0.296897 0 4 0 192 192 192 255 0.139189 0.061667
-0.184538 0.261398 -0.734324 0 0 -5 192 192 192 255 0.76229 0.712507
0.402672 0.261398 -0.734324 0 0 -4 192 192 192 255 0.873534 0.712507
0.402672 0.521587 -0.734324 0 0 -5 192 192 192 255 0.873534 0.777539
-0.184538 0.521587 -0.734324 0 0 -4 192 192 192 255 0.76229 0.777539
-0.878473 0 -0.769478 -1 -1 -2 192 192 192 255 0.391942 0.061667
0.878473 0 -0.769478 2 -2 -1 192 192 192 255 0.391942 0.061667
-0.878473 0.084501 -0.769478 -2 2 -1 192 192 192 255 0.391942 0.061667
0.878473 0.084501 -0.769478 1 1 -2 192 192 192 255 0.391942 0.061667
-0.878473 0.084501 0.769478 -1 1 2 192 192 192 255 0.426808 0.061667
0.878473 0.084501 0.769478 2 2 1 192 192 192 255 0.426808 0.061667
-0.878473 0 0.769478 -2 -2 1 192 192 192 255 0.391942 0.061667
0.878473 0 0.769478 1 -1 2 192 192 192 255 0.391942 0.061667
-0.806185 0.084501 0.244779 -3 0 3 192 192 192 255 0.173939 0.061667
0.655226 0.084501 0.244779 2 0 3 192 192 192 255 0.1419 0.061667
-0.806185 0.592969 0.244779 -3 3 3 192 192 192 255 0.208804 0.061667
0.655226 0.592969 0.244779 1 1.00666 3 192 192 192 255 0.1419 0.061667
-0.806185 0.592969 -0.24478 -3 3 -2 192 192 192 255 0.173939 0.061667
0.655226 0.592969 -0.24478 1 2.00666 -1 192 192 192 255 0.173939 0.061667
-0.806185 0.084501 -0.24478 -3 0 -1 192 192 192 255 0.173939 0.061667
0.655226 0.084501 -0.24478 2 0 -2 192 192 192 255 0.173939 0.061667
0.655226 0.084501 0.122388 1 0 1 192 192 192 255 0.1419 0.061667
0.655226 0.592969 0.122388 2 5.00666 2 192 192 192 255 0.1419 0.061667
0.655226 0.084501 -0.122386 1 0 -2 192 192 192 255 0.1419 0.061667
0.655226 0.592969 -0.122386 2 4.00666 -1 192 192 192 255 0.1419 0.061667
0.808289 0.084501 -0.122386 2 0 -1 192 192 192 255 0.1419 0.061667
0.808289 0.592969 -0.122386 1 3 -2 192 192 192 255 0.1419 0.061667
0.808289 0.084501 0.122388 1 0 2 192 192 192 255 0.1419 0.061667
0.808289 0.592969 0.122388 2 3 1 192 192 192 255 0.1419 0.061667
0.733849 0.592969 -0.09727 0 4 0 192 192 192 255 0.326593 0.479853
0.781384 0.592969 -0.09727 0 5 0 192 192 192 255 0.326593 0.479853
0.733849 0.592969 0.006761 0 5 0 192 192 192 255 0.326593 0.479853
0.781384 0.592969 0.006761 0 4 0 192 192 192 255 0.326593 0.479853
-0.751741 0.592969 0.192655 0 5 0 192 192 192 255 0.139189 0.061667
0.600784 0.592969 0.192655 0 4.00666 0 192 192 192 255 0.139189 0.061667
0.600784 0.592969 -0.192653 0 5.00666 0 192 192 192 255 0.139189 0.061667
-0.751741 0.592969 -0.192653 0 4 0 192 192 192 255 0.139189 0.061667
-0.184538 0.261398 0.244779 0 0 5 192 192 192 255 0.76229 0.712507
0.555735 0.261398 0.244779 0 0 4 192 192 192 255 0.873534 0.712507
0.555735 0.521587 0.244779 0 0 5 192 192 192 255 0.873534 0.777539
-0.184538 0.521587 0.244779 0 0 4 192 192 192 255 0.76229 0.777539
-0.681454 0.592968 0.296899 -0.247065 0.968999 2 192 192 192 255 0.20037 0.22113
0.344631 0.592968 0.296899 0.494147 1.93799 2 192 192 192 255 0.232409 0.22113
-0.500881 0.7997 0.296899 -1.75177 2.96505 3 192 192 192 255 0.267274 0.22113
0.164061 0.7997 0.296899 0.875883 1.48252 4 192 192 192 255 0.267274 0.22113
-0.500881 0.7997 0.192655 -0.875884 1.48252 -4 192 192 192 255 0.267274 0.22113
0.164061 0.7997 0.192655 1.75177 2.96505 -3 192 192 192 255 0.267274 0.22113
-0.681454 0.592968 0.192655 -0.494129 1.938 -2 192 192 192 255 0.20037 0.22113
0.344631 0.592968 0.192655 0.247074 0.968997 -2 192 192 192 255 0.20037 0.22113
-0.462221 0.592969 0.296899 0.573947 1.91588 1 192 192 192 255 0.232409 0.22113
0.125401 0.592969 0.296899 -0.286978 0.957937 1 192 192 192 255 0.232409 0.22113
0.106323 0.75162 0.296899 -1.70526 -3.04503 2 192 192 192 255 0.232409 0.22113
-0.443144 0.75162 0.296899 1.70526 -2.04503 3 192 192 192 255 0.232409 0.22113
-0.443144 0.75162 0.192655 0.85263 -2.52252 -2 192 192 192 255 0.232409 0.22113
0.106323 0.75162 0.192655 -0.85263 -1.52252 -3 192 192 192 255 0.232409 0.22113
0.125401 0.592969 0.192655 -0.573955 1.91587 -1 192 192 192 255 0.232409 0.22113
-0.462221 0.592969 0.192655 0.286974 0.957939 -1 192 192 192 255 0.232409 0.22113
-0.603872 0.612749 0.192655 -1.99883 1.93404 -2 192 192 192 255 0.20037 0.22113
-0.603872 0.612749 0.296899 -1.37001 2.42052 2 192 192 192 255 0.20037 0.22113
-0.528248 0.612749 0.296899 1.1396 0.435423 4 192 192 192 255 0.232409 0.22113
-0.528248 0.612749 0.192655 2.27921 0.870847 -4 192 192 192 255 0.232409 0.22113
0.191427 0.612749 0.296899 -1.42658 1.39336 4 192 192 192 255 0.232409 0.22113
0.267052 0.612749 0.296899 1.99884 1.93404 2 192 192 192 255 0.20037 0.22113
0.267052 0.612749 0.192655 1.37003 2.42052 -2 192 192 192 255 0.20037 0.22113
0.191427 0.612749 0.192655 -1.99224 -0.0870933 -4 192 192 192 255 0.232409 0.22113
-0.806185 0.084501 0.734325 -3 0 3 192 192 192 255 0.173939 0.061667
0.502163 0.084501 0.734325 2 0 3 192 192 192 255 0.1419 0.061667
-0.806185 0.592969 0.734325 -3 3 3 192 192 192 255 0.208804 0.061667
0.502163 0.592969 0.734325 1 1.00666 3 192 192 192 255 0.1419 0.061667
-0.806185 0.592969 0.244779 -3 3 0 192 192 192 255 0.208804 0.061667
0.502163 0.592969 0.244779 1 2.00666 0 192 192 192 255 0.1419 0.061667
-0.806185 0.084501 0.244779 -3 0 0 192 192 192 255 0.1419 0.061667
0.502163 0.084501 0.244779 2 0 0 192 192 192 255 0.1419 0.061667
0.502163 0.084501 0.61194 1 0 1 192 192 192 255 0.1419 0.061667
0.502163 0.592969 0.61194 2 5.00666 2 192 192 192 255 0.1419 0.061667
0.502163 0.084501 0.367166 1 0 -2 192 192 192 255 0.1419 0.061667
0.502163 0.592969 0.367166 2 4.00666 -1 192 192 192 255 0.1419 0.061667
0.655226 0.084501 0.367166 2 0 -1 192 192 192 255 0.1419 0.061667
0.655226 0.592969 0.367166 1 3 -2 192 192 192 255 0.1419 0.061667
0.655226 0.084501 0.61194 1 0 2 192 192 192 255 0.1419 0.061667
0.655226 0.592969 0.61194 2 3 1 192 192 192 255 0.1419 0.061667
0.580786 0.592969 0.392282 0 4 0 192 192 192 255 0.326593 0.479853
0.628321 0.592969 0.392282 0 5 0 192 192 192 255 0.326593 0.479853
0.580786 0.592969 0.496313 0 5 0 192 192 192 255 0.326593 0.479853
0.628321 0.592969 0.496313 0 4 0 192 192 192 255 0.326593 0.479853
-0.751741 0.592969 0.68221 0 5 0 192 192 192 255 0.139189 0.061667
0.447721 0.592969 0.68221 0 4.00666 0 192 192 192 255 0.139189 0.061667
0.447721 0.592969 0.296899 0 5.00666 0 192 192 192 255 0.139189 0.061667
-0.751741 0.592969 0.296899 0 4 0 192 192 192 255 0.139189 0.061667
-0.184538 0.261398 0.734325 0 0 5 192 192 192 255 0.76229 0.712507
0.402672 0.261398 0.734325 0 0 4 192 192 192 255 0.873534 0.712507
0.402672 0.521587 0.734325 0 0 5 192 192 192 255 0.873534 0.777539
-0.184538 0.521587 0.734325 0 0 4 192 192 192 255 0.76229 0.777539
-0.806185 0.163838 0.32116 -5 0 0 192 192 192 255 0.828055 0.887403
-0.806185 0.163838 0.657945 -4 0 0 192 192 192 255 0.883706 0.887403
-0.806185 0.513633 0.657945 -5 0 0 192 192 192 255 0.883706 0.939953
-0.806185 0.513633 0.32116 -4 0 0 192 192 192 255 0.828055 0.939953
-0.806185 0.163838 -0.168391 -5 0 0 192 192 192 255 0.828055 0.887403
-0.806185 0.163838 0.168393 -4 0 0 192 192 192 255 0.883706 0.887403
-0.806185 0.513633 0.168393 -5 0 0 192 192 192 255 0.883706 0.939953
-0.806185 0.513633 -0.168391 -4 0 0 192 192 192 255 0.828055 0.939953
-0.806185 0.513633 -0.321158 -4 0 0 192 192 192 255 0.883706 0.939953
-0.806185 0.163838 -0.321158 -5 0 0 192 192 192 255 0.883706 0.887403
-0.806185 0.513633 -0.657943 -5 0 0 192 192 192 255 0.828055 0.939953
-0.806185 0.163838 -0.657943 -4 0 0 192 192 192 255 0.828055 0.887403
0.164061 0.7997 -0.296897 0.875883 1.48252 -4 192 192 192 255 0.20037 0.22113
0.164061 0.7997 -0.192653 1.75177 2.96505 3 192 192 192 255 0.20037 0.22113
-0.500881 0.7997 -0.192653 -0.875884 1.48252 4 192 192 192 255 0.20037 0.22113
-0.500881 0.7997 -0.296897 -1.75177 2.96505 -3 192 192 192 255 0.20037 0.22113
0.164061 0.7997 -0.296897 0.875883 1.48252 -4 192 192 192 255 0.232409 0.22113
0.267052 0.612749 -0.296897 1.99884 1.93404 -2 192 192 192 255 0.232409 0.22113
-0.500881 0.7997 -0.296897 -1.75177 2.96505 -3 192 192 192 255 0.232409 0.22113
-0.603872 0.612749 -0.296897 -1.37001 2.42052 -2 192 192 192 255 0.232409 0.22113
-0.500881 0.7997 -0.192653 -0.875884 1.48252 4 192 192 192 255 0.232409 0.22113
0.164061 0.7997 -0.192653 1.75177 2.96505 3 192 192 192 255 0.232409 0.22113
0.267052 0.612749 -0.192653 1.37003 2.42052 2 192 192 192 255 0.232409 0.22113
-0.603872 0.612749 -0.192653 -1.99883 1.93404 2 192 192 192 255 0.232409 0.22113
-0.681454 0.592968 -0.296897 -0.247065 0.968999 -2 192 192 192 255 0.232409 0.22113
-0.681454 0.592968 -0.192653 -0.494129 1.938 2 192 192 192 255 0.232409 0.22113
0.344631 0.592968 -0.296897 0.494147 1.93799 -2 192 192 192 255 0.20037 0.22113
0.344631 0.592968 -0.192653 0.247074 0.968997 2 192 192 192 255 0.232409 0.22113
0.502163 0.084501 -0.367166 1 0 2 192 192 192 255 0.172412 0.061667
0.655226 0.084501 -0.367166 2 0 1 192 192 192 255 0.172412 0.061667
0.655226 0.592969 -0.367166 1 3 2 192 192 192 255 0.172412 0.061667
0.502163 0.592969 -0.367166 2 4.00666 1 192 192 192 255 0.172412 0.061667
0.502163 0.592969 -0.611938 2 5.00666 -2 192 192 192 255 0.172412 0.061667
0.655226 0.592969 -0.611938 2 3 -1 192 192 192 255 0.172412 0.061667
0.655226 0.084501 -0.611938 1 0 -2 192 192 192 255 0.172412 0.061667
0.502163 0.084501 -0.611938 1 0 -1 192 192 192 255 0.172412 0.061667
0.655226 0.592969 -0.367166 1 3 2 192 192 192 255 0.205271 0.061667
0.628321 0.592969 -0.392283 0 5 0 192 192 192 255 0.205271 0.061667
0.580786 0.592969 -0.392283 0 4 0 192 192 192 255 0.205271 0.061667
0.502163 0.592969 -0.367166 2 4.00666 1 192 192 192 255 0.205271 0.061667
0.580786 0.592969 -0.49631 0 5 0 192 192 192 255 0.205271 0.061667
0.502163 0.592969 -0.611938 2 5.00666 -2 192 192 192 255 0.205271 0.061667
0.628321 0.592969 -0.49631 0 4 0 192 192 192 255 0.205271 0.061667
0.655226 0.592969 -0.611938 2 3 -1 192 192 192 255 0.205271 0.061667
-0.751741 0.592969 -0.682208 0 5 0 192 192 192 255 0.208804 0.061667
0.447721 0.592969 -0.682208 0 4.00666 0 192 192 192 255 0.208804 0.061667
0.502163 0.592969 -0.734324 1 1.00666 -3 192 192 192 255 0.208804 0.061667
0.502163 0.592969 -0.611938 2 5.00666 -2 192 192 192 255 0.208804 0.061667
0.447721 0.592969 -0.296897 0 5.00666 0 192 192 192 255 0.208804 0.061667
0.502163 0.592969 -0.367166 2 4.00666 1 192 192 192 255 0.208804 0.061667
0.502163 0.592969 -0.244773 1 2.00666 0 192 192 192 255 0.208804 0.061667
-0.751741 0.592969 -0.296897 0 4 0 192 192 192 255 0.208804 0.061667
-0.184538 0.261398 -0.734324 0 0 -5 192 192 192 255 0.173939 0.061667
0.402672 0.261398 -0.734324 0 0 -4 192 192 192 255 0.173939 0.061667
0.502163 0.084501 -0.734324 2 0 -3 192 192 192 255 0.173939 0.061667
0.402672 0.521587 -0.734324 0 0 -5 192 192 192 255 0.173939 0.061667
0.502163 0.592969 -0.734324 1 1.00666 -3 192 192 192 255 0.173939 0.061667
-0.184538 0.521587 -0.734324 0 0 -4 192 192 192 255 0.173939 0.061667
-0.806185 0.592969 -0.734324 -3 3 -3 192 192 192 255 0.173939 0.061667
-0.878473 0.084501 -0.769478 -2 2 -1 192 192 192 255 0.426808 0.061667
0.878473 0.084501 -0.769478 1 1 -2 192 192 192 255 0.426808 0.061667
-0.878473 0.084501 0.769478 -1 1 2 192 192 192 255 0.391942 0.061667
0.878473 0.084501 0.769478 2 2 1 192 192 192 255 0.391942 0.061667
-0.878473 0 0.769478 -2 -2 1 192 192 192 255 0.326923 0.061667
-0.878473 0 -0.769478 -1 -1 -2 192 192 192 255 0.326923 0.061667
0.878473 0 -0.769478 2 -2 -1 192 192 192 255 0.326923 0.061667
0.878473 0 0.769478 1 -1 2 192 192 192 255 0.326923 0.061667
0.878473 0 -0.769478 2 -2 -1 192 192 192 255 0.359904 0.061667
0.878473 0.084501 -0.769478 1 1 -2 192 192 192 255 0.359904 0.061667
0.878473 0.084501 0.769478 2 2 1 192 192 192 255 0.359903 0.061667
0.878473 0 0.769478 1 -1 2 192 192 192 255 0.359903 0.061667
-0.878473 0 0.769478 -2 -2 1 192 192 192 255 0.359904 0.061667
-0.878473 0.084501 0.769478 -1 1 2 192 192 192 255 0.359904 0.061667
-0.878473 0.084501 -0.769478 -2 2 -1 192 192 192 255 0.359904 0.061667
-0.878473 0 -0.769478 -1 -1 -2 192 192 192 255 0.359904 0.061667
0.655226 0.084501 -0.24478 2 0 -2 192 192 192 255 0.1419 0.061667
0.655226 0.592969 -0.24478 1 2.00666 -1 192 192 192 255 0.1419 0.061667
0.655226 0.084501 -0.122386 1 0 -2 192 192 192 255 0.172412 0.061667
0.655226 0.592969 -0.122386 2 4.00666 -1 192 192 192 255 0.172412 0.061667
0.808289 0.592969 -0.122386 1 3 -2 192 192 192 255 0.172412 0.061667
0.808289 0.084501 -0.122386 2 0 -1 192 192 192 255 0.172412 0.061667
0.655226 0.592969 0.122388 2 5.00666 2 192 192 192 255 0.172412 0.061667
0.655226 0.084501 0.122388 1 0 1 192 192 192 255 0.172412 0.061667
0.808289 0.084501 0.122388 1 0 2 192 192 192 255 0.172412 0.061667
0.808289 0.592969 0.122388 2 3 1 192 192 192 255 0.172412 0.061667
0.808289 0.592969 -0.122386 1 3 -2 192 192 192 255 0.205271 0.061667
0.655226 0.592969 -0.122386 2 4.00666 -1 192 192 192 255 0.205271 0.061667
0.733849 0.592969 -0.09727 0 4 0 192 192 192 255 0.205271 0.061667
0.781384 0.592969 -0.09727 0 5 0 192 192 192 255 0.205271 0.061667
0.655226 0.592969 0.122388 2 5.00666 2 192 192 192 255 0.205271 0.061667
0.733849 0.592969 0.006761 0 5 0 192 192 192 255 0.205271 0.061667
0.808289 0.592969 0.122388 2 3 1 192 192 192 255 0.205271 0.061667
0.781384 0.592969 0.006761 0 4 0 192 192 192 255 0.205271 0.061667
0.655226 0.592969 0.244779 1 1.00666 3 192 192 192 255 0.208804 0.061667
0.600784 0.592969 0.192655 0 4.00666 0 192 192 192 255 0.208804 0.061667
-0.751741 0.592969 0.192655 0 5 0 192 192 192 255 0.208804 0.061667
0.655226 0.592969 0.122388 2 5.00666 2 192 192 192 255 0.208804 0.061667
0.655226 0.592969 -0.122386 2 4.00666 -1 192 192 192 255 0.208804 0.061667
0.600784 0.592969 -0.192653 0 5.00666 0 192 192 192 255 0.208804 0.061667
0.655226 0.592969 -0.24478 1 2.00666 -1 192 192 192 255 0.208804 0.061667
-0.806185 0.592969 -0.24478 -3 3 -2 192 192 192 255 0.208804 0.061667
-0.751741 0.592969 -0.192653 0 4 0 192 192 192 255 0.208804 0.061667
0.655226 0.084501 0.244779 2 0 3 192 192 192 255 0.173939 0.061667
0.555735 0.261398 0.244779 0 0 4 192 192 192 255 0.173939 0.061667
-0.184538 0.261398 0.244779 0 0 5 192 192 192 255 0.173939 0.061667
0.655226 0.592969 0.244779 1 1.00666 3 192 192 192 255 0.173939 0.061667
0.555735 0.521587 0.244779 0 0 5 192 192 192 255 0.173939 0.061667
-0.806185 0.592969 0.244779 -3 3 3 192 192 192 255 0.173939 0.061667
-0.184538 0.521587 0.244779 0 0 4 192 192 192 255 0.173939 0.061667
0.164061 0.7997 0.192655 1.75177 2.96505 -3 192 192 192 255 0.20037 0.22113
0.164061 0.7997 0.296899 0.875883 1.48252 4 192 192 192 255 0.20037 0.22113
-0.500881 0.7997 0.296899 -1.75177 2.96505 3 192 192 192 255 0.20037 0.22113
-0.500881 0.7997 0.192655 -0.875884 1.48252 -4 192 192 192 255 0.20037 0.22113
0.267052 0.612749 0.296899 1.99884 1.93404 2 192 192 192 255 0.232409 0.22113
0.164061 0.7997 0.296899 0.875883 1.48252 4 192 192 192 255 0.232409 0.22113
-0.500881 0.7997 0.296899 -1.75177 2.96505 3 192 192 192 255 0.232409 0.22113
-0.603872 0.612749 0.296899 -1.37001 2.42052 2 192 192 192 255 0.232409 0.22113
-0.500881 0.7997 0.192655 -0.875884 1.48252 -4 192 192 192 255 0.232409 0.22113
0.164061 0.7997 0.192655 1.75177 2.96505 -3 192 192 192 255 0.232409 0.22113
0.267052 0.612749 0.192655 1.37003 2.42052 -2 192 192 192 255 0.232409 0.22113
-0.603872 0.612749 0.192655 -1.99883 1.93404 -2 192 192 192 255 0.232409 0.22113
-0.681454 0.592968 0.296899 -0.247065 0.968999 2 192 192 192 255 0.232409 0.22113
-0.681454 0.592968 0.192655 -0.494129 1.938 -2 192 192 192 255 0.232409 0.22113
0.344631 0.592968 0.296899 0.494147 1.93799 2 192 192 192 255 0.20037 0.22113
0.344631 0.592968 0.192655 0.247074 0.968997 -2 192 192 192 255 0.232409 0.22113
0.502163 0.084501 0.367166 1 0 -2 192 192 192 255 0.172412 0.061667
0.502163 0.592969 0.367166 2 4.00666 -1 192 192 192 255 0.172412 0.061667
0.655226 0.592969 0.367166 1 3 -2 192 192 192 255 0.172412 0.061667
0.655226 0.084501 0.367166 2 0 -1 192 192 192 255 0.172412 0.061667
0.502163 0.592969 0.61194 2 5.00666 2 192 192 192 255 0.172412 0.061667
0.502163 0.084501 0.61194 1 0 1 192 192 192 255 0.172412 0.061667
0.655226 0.084501 0.61194 1 0 2 192 192 192 255 0.172412 0.061667
0.655226 0.592969 0.61194 2 3 1 192 192 192 255 0.172412 0.061667
0.655226 0.592969 0.367166 1 3 -2 192 192 192 255 0.205271 0.061667
0.502163 0.592969 0.367166 2 4.00666 -1 192 192 192 255 0.205271 0.061667
0.580786 0.592969 0.392282 0 4 0 192 192 192 255 0.205271 0.061667
0.628321 0.592969 0.392282 0 5 0 192 192 192 255 0.205271 0.061667
0.502163 0.592969 0.61194 2 5.00666 2 192 192 192 255 0.205271 0.061667
0.580786 0.592969 0.496313 0 5 0 192 192 192 255 0.205271 0.061667
0.655226 0.592969 0.61194 2 3 1 192 192 192 255 0.205271 0.061667
0.628321 0.592969 0.496313 0 4 0 192 192 192 255 0.205271 0.061667
0.502163 0.592969 0.734325 1 1.00666 3 192 192 192 255 0.208804 0.061667
0.447721 0.592969 0.68221 0 4.00666 0 192 192 192 255 0.208804 0.061667
-0.751741 0.592969 0.68221 0 5 0 192 192 192 255 0.208804 0.061667
0.502163 0.592969 0.61194 2 5.00666 2 192 192 192 255 0.208804 0.061667
0.502163 0.592969 0.367166 2 4.00666 -1 192 192 192 255 0.208804 0.061667
0.447721 0.592969 0.296899 0 5.00666 0 192 192 192 255 0.208804 0.061667
0.502163 0.592969 0.244779 1 2.00666 0 192 192 192 255 0.208804 0.061667
-0.751741 0.592969 0.296899 0 4 0 192 192 192 255 0.208804 0.061667
0.502163 0.084501 0.734325 2 0 3 192 192 192 255 0.173939 0.061667
0.402672 0.261398 0.734325 0 0 4 192 192 192 255 0.173939 0.061667
-0.184538 0.261398 0.734325 0 0 5 192 192 192 255 0.173939 0.061667
0.502163 0.592969 0.734325 1 1.00666 3 192 192 192 255 0.173939 0.061667
0.402672 0.521587 0.734325 0 0 5 192 192 192 255 0.173939 0.061667
-0.806185 0.592969 0.734325 -3 3 3 192 192 192 255 0.173939 0.061667
-0.184538 0.521587 0.734325 0 0 4 192 192 192 255 0.173939 0.061667
-0.806185 0.084501 0.734325 -3 0 3 192 192 192 255 0.1419 0.061667
-0.806185 0.163838 0.657945 -4 0 0 192 192 192 255 0.1419 0.061667
-0.806185 0.163838 0.32116 -5 0 0 192 192 192 255 0.1419 0.061667
-0.806185 0.592969 0.734325 -3 3 3 192 192 192 255 0.1419 0.061667
-0.806185 0.513633 0.657945 -5 0 0 192 192 192 255 0.1419 0.061667
-0.806185 0.592969 0.244779 -3 3 0 192 192 192 255 0.1419 0.061667
-0.806185 0.513633 0.32116 -4 0 0 192 192 192 255 0.1419 0.061667
-0.806185 0.084501 -0.24478 -3 0 -1 192 192 192 255 0.1419 0.061667
-0.806185 0.084501 0.244779 -3 0 3 192 192 192 255 0.1419 0.061667
-0.806185 0.163838 0.168393 -4 0 0 192 192 192 255 0.1419 0.061667
-0.806185 0.163838 -0.168391 -5 0 0 192 192 192 255 0.1419 0.061667
-0.806185 0.592969 0.244779 -3 3 3 192 192 192 255 0.1419 0.061667
-0.806185 0.513633 0.168393 -5 0 0 192 192 192 255 0.1419 0.061667
-0.806185 0.592969 -0.24478 -3 3 -2 192 192 192 255 0.1419 0.061667
-0.806185 0.513633 -0.168391 -4 0 0 192 192 192 255 0.1419 0.061667
-0.806185 0.592969 -0.244773 -3 3 0 192 192 192 255 0.1419 0.061667
-0.806185 0.513633 -0.321158 -4 0 0 192 192 192 255 0.1419 0.061667
-0.806185 0.163838 -0.321158 -5 0 0 192 192 192 255 0.1419 0.061667
-0.806185 0.592969 -0.734324 -3 3 -3 192 192 192 255 0.1419 0.061667
-0.806185 0.513633 -0.657943 -5 0 0 192 192 192 255 0.1419 0.061667
-0.806185 0.084501 -0.734324 -3 0 -3 192 192 192 255 0.1419 0.061667
-0.806185 0.163838 -0.657943 -4 0 0 192 192 192 255 0.1419 0.061667
3 2 4 5 
3 2 5 3 
3 21 152 153 
3 21 153 22 
3 16 154 155 
3 16 155 17 
3 20 10 156 
3 20 156 157 
3 156 10 11 
3 156 11 158 
3 158 11 18 
3 158 18 159 
3 160 12 13 
3 160 13 161 
3 161 13 23 
3 161 23 162 
3 19 12 160 
3 19 160 163 
3 10 13 12 
3 10 12 11 
3 11 12 19 
3 11 19 18 
3 10 20 23 
3 10 23 13 
3 6 16 17 
3 6 17 0 
3 18 8 164 
3 18 164 159 
3 19 15 8 
3 19 8 18 
3 165 15 19 
3 165 19 163 
3 1 9 20 
3 1 20 157 
3 166 21 22 
3 166 22 7 
3 23 14 167 
3 23 167 162 
3 20 9 14 
3 20 14 23 
3 48 51 50 
3 48 50 49 
3 44 47 46 
3 44 46 45 
3 36 38 39 
3 36 39 37 
3 149 148 150 
3 149 150 151 
3 25 27 33 
3 25 33 32 
3 35 29 31 
3 35 31 34 
3 168 169 170 
3 168 170 171 
3 41 43 42 
3 41 42 40 
3 172 173 174 
3 172 174 175 
3 176 177 178 
3 176 178 179 
3 179 178 180 
3 179 180 181 
3 181 180 182 
3 181 182 183 
3 183 182 177 
3 183 177 176 
3 26 184 185 
3 26 185 186 
3 186 185 187 
3 187 185 188 
3 187 188 189 
3 189 188 190 
3 190 188 191 
3 190 191 28 
3 28 191 184 
3 28 184 26 
3 24 192 193 
3 24 193 194 
3 194 193 195 
3 194 195 196 
3 196 195 197 
3 196 197 198 
3 198 197 192 
3 198 192 24 
3 52 54 55 
3 52 55 53 
3 199 56 57 
3 199 57 200 
3 201 58 59 
3 201 59 202 
3 203 204 205 
3 203 205 206 
3 207 208 209 
3 207 209 210 
3 211 212 213 
3 211 213 214 
3 84 85 86 
3 84 86 87 
3 80 81 82 
3 80 82 83 
3 64 65 67 
3 64 67 66 
3 72 73 75 
3 72 75 74 
3 144 145 146 
3 144 146 147 
3 61 68 69 
3 61 69 63 
3 71 70 215 
3 71 215 216 
3 217 218 219 
3 217 219 220 
3 77 76 78 
3 77 78 79 
3 221 222 223 
3 221 223 224 
3 225 226 227 
3 225 227 228 
3 226 229 230 
3 226 230 227 
3 229 231 232 
3 229 232 230 
3 231 225 228 
3 231 228 232 
3 62 233 234 
3 62 234 235 
3 233 236 234 
3 236 237 238 
3 236 238 234 
3 237 239 238 
3 239 240 241 
3 239 241 238 
3 240 62 235 
3 240 235 241 
3 60 242 243 
3 60 243 244 
3 242 245 246 
3 242 246 243 
3 245 247 248 
3 245 248 246 
3 247 60 244 
3 247 244 248 
3 90 91 93 
3 90 93 92 
3 109 110 249 
3 109 249 250 
3 104 105 251 
3 104 251 252 
3 108 253 254 
3 108 254 98 
3 254 255 99 
3 254 99 98 
3 255 256 106 
3 255 106 99 
3 257 258 101 
3 257 101 100 
3 258 259 111 
3 258 111 101 
3 107 260 257 
3 107 257 100 
3 98 99 100 
3 98 100 101 
3 99 106 107 
3 99 107 100 
3 98 101 111 
3 98 111 108 
3 94 88 105 
3 94 105 104 
3 106 256 261 
3 106 261 96 
3 107 106 96 
3 107 96 103 
3 262 260 107 
3 262 107 103 
3 89 253 108 
3 89 108 97 
3 263 95 110 
3 263 110 109 
3 111 259 264 
3 111 264 102 
3 108 111 102 
3 108 102 97 
3 136 137 138 
3 136 138 139 
3 132 133 134 
3 132 134 135 
3 124 125 127 
3 124 127 126 
3 140 141 142 
3 140 142 143 
3 113 120 121 
3 113 121 115 
3 123 122 119 
3 123 119 117 
3 265 266 267 
3 265 267 268 
3 129 128 130 
3 129 130 131 
3 269 270 271 
3 269 271 272 
3 273 274 275 
3 273 275 276 
3 274 277 278 
3 274 278 275 
3 277 279 280 
3 277 280 278 
3 279 273 276 
3 279 276 280 
3 114 281 282 
3 114 282 283 
3 281 284 282 
3 284 285 286 
3 284 286 282 
3 285 287 286 
3 287 116 288 
3 287 288 286 
3 116 114 283 
3 116 283 288 
3 112 289 290 
3 112 290 291 
3 289 292 293 
3 289 293 290 
3 292 294 295 
3 292 295 293 
3 294 112 291 
3 294 291 295 
3 118 296 297 
3 118 297 298 
3 296 299 300 
3 296 300 297 
3 299 301 302 
3 299 302 300 
3 301 118 298 
3 301 298 302 
3 303 304 305 
3 303 305 306 
3 304 307 308 
3 304 308 305 
3 307 309 310 
3 307 310 308 
3 309 303 306 
3 309 306 310 
3 30 311 312 
3 30 312 313 
3 311 314 315 
3 311 315 312 
3 314 316 317 
3 314 317 315 
3 316 30 313 
3 316 313 317 
