ply
format ascii 1.0
comment VCGLIB generated
comment TextureFile WorldMap.png
element vertex 544
property float x
property float y
property float z
property float nx
property float ny
property float nz
property uchar red
property uchar green
property uchar blue
property uchar alpha
property float texture_u
property float texture_v
element face 368
property list uchar int vertex_indices
end_header
0.407391 0.144925 -0.036219 -1 0 2 192 192 192 255 0.646272 0.880826
1.08164 0.144925 -0.036219 2 0 1 192 192 192 255 0.749439 0.880826
0.407391 0.819177 -0.036219 -2 2 1 192 192 192 255 0.646272 0.991774
1.08164 0.819177 -0.036219 1 1 2 192 192 192 255 0.749439 0.991774
0.407391 0.819177 -0.710471 -1 1 0 192 192 192 255 0.300052 0.061667
1.08164 0.819177 -0.710471 2 2 0 192 192 192 255 0.300052 0.061667
0.407391 0.144925 -0.710471 -2 0 0 192 192 192 255 0.233148 0.061667
1.08164 0.144925 -0.710471 1 0 0 192 192 192 255 0.233148 0.061667
0.183568 0.398998 0.840296 -1 -1 3 192 192 192 255 0.107964 0.061667
0.714336 0.398998 0.840296 2 -2 3 192 192 192 255 0.107964 0.061667
0.183568 0.929768 0.840296 -2 2 3 192 192 192 255 0.207849 0.061667
0.714336 0.929768 0.840296 1 1 3 192 192 192 255 0.207849 0.061667
0.183568 0.929768 0.721855 -1 1 -3 192 192 192 255 0.207849 0.061667
0.714336 0.929768 0.721855 2 2 -3 192 192 192 255 0.207849 0.061667
0.183568 0.398998 0.721855 -2 -2 -3 192 192 192 255 0.107964 0.061667
0.714336 0.398998 0.721855 1 -1 -3 192 192 192 255 0.107964 0.061667
0.285991 0.501422 0.840296 1 1 3 192 192 192 255 0.172984 0.061667
0.611914 0.501422 0.840296 -1 2 3 192 192 192 255 0.172984 0.061667
0.611914 0.827345 0.840296 -2 -2 3 192 192 192 255 0.172984 0.061667
0.285991 0.827345 0.840296 2 -1 3 192 192 192 255 0.172984 0.061667
0.285991 0.827345 0.721855 1 -2 -3 192 192 192 255 0.172984 0.061667
0.611914 0.827345 0.721855 -1 -1 -3 192 192 192 255 0.172984 0.061667
0.611914 0.501422 0.721855 -2 1 -3 192 192 192 255 0.172984 0.061667
0.285991 0.501422 0.721855 2 2 -3 192 192 192 255 0.172984 0.061667
-0.714334 0.398998 0.840296 -1 -1 3 192 192 192 255 0.107964 0.061667
-0.183567 0.398998 0.840296 2 -2 3 192 192 192 255 0.107964 0.061667
-0.714334 0.929768 0.840296 -2 2 3 192 192 192 255 0.207849 0.061667
-0.183567 0.929768 0.840296 1 1 3 192 192 192 255 0.207849 0.061667
-0.714334 0.929768 0.721855 -1 1 -3 192 192 192 255 0.207849 0.061667
-0.183567 0.929768 0.721855 2 2 -3 192 192 192 255 0.207849 0.061667
-0.714334 0.398998 0.721855 -2 -2 -3 192 192 192 255 0.107964 0.061667
-0.183567 0.398998 0.721855 1 -1 -3 192 192 192 255 0.107964 0.061667
-0.611912 0.501422 0.840296 1 1 3 192 192 192 255 0.172984 0.061667
-0.28599 0.501422 0.840296 -1 2 3 192 192 192 255 0.172984 0.061667
-0.28599 0.827345 0.840296 -2 -2 3 192 192 192 255 0.172984 0.061667
-0.611912 0.827345 0.840296 2 -1 3 192 192 192 255 0.172984 0.061667
-0.611912 0.827345 0.721855 1 -2 -3 192 192 192 255 0.172984 0.061667
-0.28599 0.827345 0.721855 -1 -1 -3 192 192 192 255 0.172984 0.061667
-0.28599 0.501422 0.721855 -2 1 -3 192 192 192 255 0.172984 0.061667
-0.611912 0.501422 0.721855 2 2 -3 192 192 192 255 0.172984 0.061667
1.25265 1.75001 -0.840296 0 3 -1 192 192 192 255 0.265187 0.061667
1.25265 0 -0.840296 0 -1 -2 192 192 192 255 0.265187 0.061667
1.25265 0 0.840296 0 -2 3.06874 192 192 192 255 0.200168 0.061667
1.25265 1.75001 0.840296 0 3 3.06874 192 192 192 255 0.265187 0.061667
-1.25265 0 0.840296 0 -1 3.06874 192 192 192 255 0.200168 0.061667
-1.25265 1.75001 0.840296 0 3 3.06874 192 192 192 255 0.265187 0.061667
-1.25265 1.75001 -0.840296 0 3 -2 192 192 192 255 0.265187 0.061667
-1.25265 0 -0.840296 0 -2 -1 192 192 192 255 0.265187 0.061667
-0.914336 0.175509 0.840296 0.0169595 1.95402 0.552351 192 192 192 255 0.265187 0.061667
0.914336 0.175509 0.840296 -0.0169595 0.984406 1.79698 192 192 192 255 0.265187 0.061667
0.914336 1.5745 0.840296 -0.0169593 -1.95402 0.552337 192 192 192 255 0.265187 0.061667
-0.914336 1.5745 0.840296 0.0169593 -0.984405 1.79697 192 192 192 255 0.265187 0.061667
-1.03633 1.43461 0.840296 1.89036 -0.0147887 0.34134 192 192 192 255 0.265187 0.061667
-1.03633 0.31541 0.840296 0.95366 0.0147887 1.69147 192 192 192 255 0.265187 0.061667
1.03633 0.31541 0.840296 -1.89036 0.0147887 0.34134 192 192 192 255 0.265187 0.061667
1.03633 1.43461 0.840296 -0.95366 -0.0147887 1.69147 192 192 192 255 0.265187 0.061667
1.08164 1.60509 0.719071 -1.89036 -2.9844 -0.972034 192 192 192 255 0.242082 0.085816
-1.08164 1.60509 0.719071 0.95366 -2.95402 -0.866535 192 192 192 255 0.242082 0.085816
-1.08164 0.144925 0.719071 1.89036 3.98441 -0.972027 192 192 192 255 0.262938 0.085816
1.08164 0.144925 0.719071 -0.95366 4.95402 -0.866521 192 192 192 255 0.359532 0.085816
1.08164 1.60509 -0.710471 0 -1 2 192 192 192 255 0.299161 0.085816
-1.08164 1.60509 -0.710471 0 -2 1 192 192 192 255 0.299161 0.085816
-1.08164 0.144925 -0.710471 0 3 2 192 192 192 255 0.299161 0.085816
1.08164 0.144925 -0.710471 0 3 1 192 192 192 255 0.299161 0.085816
-1.08164 0.421167 -0.435839 0.338788 1.61876 2.24741 192 192 192 255 0.267122 0.085816
-1.08164 0.421167 0.435836 0.344186 2.20285 -1.67889 192 192 192 255 0.267122 0.085816
-1.08164 1.32885 0.435836 0.344186 -1.61875 -2.24741 192 192 192 255 0.267122 0.085816
-1.08164 1.32885 -0.435839 0.338788 -2.20286 1.67889 192 192 192 255 0.267122 0.085816
-1.08164 1.50249 -3e-006 0.484331 -2.78695 -0.370117 192 192 192 255 0.267122 0.085816
-1.08164 0.247523 -3e-006 0.484332 2.78695 0.370124 192 192 192 255 0.267122 0.085816
-1.08164 0.875007 -0.602595 0.498925 -0.344889 2.81593 192 192 192 255 0.267122 0.085816
-1.08164 0.875007 0.602588 0.519299 0.344882 -2.81594 192 192 192 255 0.267122 0.085816
-1.08164 1.60509 -0.710471 0.642973 0 0 192 192 192 255 0.267122 0.085816
-1.08164 0.144925 -0.710471 0.642973 0 0 192 192 192 255 0.267122 0.085816
-1.08164 0.144925 0.719071 0.660939 0 0 192 192 192 255 0.267122 0.085816
-1.08164 1.60509 0.719071 0.660939 0 0 192 192 192 255 0.267122 0.085816
-1.25265 0.421167 -0.435839 -0.507582 2.20286 1.67889 192 192 192 255 0.299008 0.061667
-1.25265 0.421167 0.435836 -0.507584 1.61875 -2.24741 192 192 192 255 0.299008 0.061667
-1.25265 1.32885 0.435836 -0.507584 -2.20285 -1.67889 192 192 192 255 0.202414 0.061667
-1.25265 1.32885 -0.435839 -0.507582 -1.61876 2.24741 192 192 192 255 0.171679 0.061667
-1.25265 1.50249 -3e-006 -0.923569 -2.78695 0.370124 192 192 192 255 0.171679 0.061667
-1.25265 0.247523 -3e-006 -0.923569 2.78695 -0.370117 192 192 192 255 0.299008 0.061667
-1.25265 0.875007 -0.602595 -0.923562 0.344889 2.81593 192 192 192 255 0.202414 0.061667
-1.25265 0.875007 0.602588 -0.923573 -0.344882 -2.81594 192 192 192 255 0.202414 0.061667
-1.25265 1.75001 -0.840296 -1.33955 0 0 192 192 192 255 0.233148 0.061667
-1.25265 0 -0.840296 -1.33955 0 0 192 192 192 255 0.233148 0.061667
-1.25265 0 0.840296 -1.33956 0 0 192 192 192 255 0.233148 0.061667
-1.25265 1.75001 0.840296 -1.33956 0 0 192 192 192 255 0.233148 0.061667
1.08164 0.421167 -0.435839 -0.338788 1.61876 2.24741 192 192 192 255 0.267122 0.085816
1.08164 0.421167 0.435836 -0.344186 2.20285 -1.67889 192 192 192 255 0.267122 0.085816
1.08164 1.32885 0.435836 -0.344186 -1.61875 -2.24741 192 192 192 255 0.267122 0.085816
1.08164 1.32885 -0.435839 -0.338788 -2.20286 1.67889 192 192 192 255 0.267122 0.085816
1.08164 1.50249 -3e-006 -0.484331 -2.78695 -0.370117 192 192 192 255 0.267122 0.085816
1.08164 0.247523 -3e-006 -0.484332 2.78695 0.370124 192 192 192 255 0.267122 0.085816
1.08164 0.875007 -0.602595 -0.498925 -0.344889 2.81593 192 192 192 255 0.267122 0.085816
1.08164 0.875007 0.602588 -0.519299 0.344882 -2.81594 192 192 192 255 0.267122 0.085816
1.08164 1.60509 -0.710471 -0.642973 0 0 192 192 192 255 0.267122 0.085816
1.08164 0.144925 -0.710471 -0.642973 0 0 192 192 192 255 0.267122 0.085816
1.08164 0.144925 0.719071 -0.660939 0 0 192 192 192 255 0.267122 0.085816
1.08164 1.60509 0.719071 -0.660939 0 0 192 192 192 255 0.267122 0.085816
1.25265 0.421167 -0.435839 0.507582 2.20286 1.67889 192 192 192 255 0.295715 0.061667
1.25265 0.421167 0.435836 0.507584 1.61875 -2.24741 192 192 192 255 0.295715 0.061667
1.25265 1.32885 0.435836 0.507584 -2.20285 -1.67889 192 192 192 255 0.202414 0.061667
1.25265 1.32885 -0.435839 0.507582 -1.61876 2.24741 192 192 192 255 0.171679 0.061667
1.25265 1.50249 -3e-006 0.923569 -2.78695 0.370124 192 192 192 255 0.171679 0.061667
1.25265 0.247523 -3e-006 0.923569 2.78695 -0.370117 192 192 192 255 0.295715 0.061667
1.25265 0.875007 -0.602595 0.923562 0.344889 2.81593 192 192 192 255 0.202414 0.061667
1.25265 0.875007 0.602588 0.923573 -0.344882 -2.81594 192 192 192 255 0.202414 0.061667
1.25265 1.75001 -0.840296 1.33955 0 0 192 192 192 255 0.233148 0.061667
1.25265 0 -0.840296 1.33955 0 0 192 192 192 255 0.233148 0.061667
1.25265 0 0.840296 1.33956 0 0 192 192 192 255 0.233148 0.061667
1.25265 1.75001 0.840296 1.33956 0 0 192 192 192 255 0.233148 0.061667
-0.915904 0.144925 0.560043 -1 3 2 192 192 192 255 0.325504 0.085816
0.253657 0.144925 0.560043 2 3 1 192 192 192 255 0.325504 0.085816
0.253657 0.144925 -0.551442 1 3 -2 192 192 192 255 0.325504 0.085816
-0.915904 0.144925 -0.551442 -2 3 -1 192 192 192 255 0.325504 0.085816
-0.915904 0.329951 0.560043 -2 2 1 192 192 192 255 0.749849 0.789352
0.253657 0.329951 0.560043 1 1 2 192 192 192 255 0.886725 0.789352
0.253657 0.329951 -0.551442 2 2 -1 192 192 192 255 0.886725 0.873329
-0.915904 0.329951 -0.551442 -1 1 -2 192 192 192 255 0.749849 0.873329
-0.155298 0.329951 -0.141184 -1 -1 2 192 192 192 255 0.202325 0.060029
0.229248 0.329951 -0.141184 2 -2 1 192 192 192 255 0.202325 0.060029
-0.155298 0.429287 -0.141184 -2 3 1 192 192 192 255 0.202325 0.060029
0.229248 0.429287 -0.141184 1 3 2 192 192 192 255 0.202325 0.060029
-0.155298 0.429287 -0.525725 -1 3 -2 192 192 192 255 0.202325 0.060029
0.229248 0.429287 -0.525725 2 3 -1 192 192 192 255 0.202325 0.060029
-0.155298 0.329951 -0.525725 -2 -2 -1 192 192 192 255 0.202325 0.060029
0.229248 0.329951 -0.525725 1 -1 -2 192 192 192 255 0.202325 0.060029
-0.089819 0.429287 -0.206655 -1 3 2 192 192 192 255 0.237191 0.060029
0.163774 0.429287 -0.206655 2 3 1 192 192 192 255 0.237191 0.060029
0.163774 0.429287 -0.460256 1 3 -2 192 192 192 255 0.237191 0.060029
-0.089819 0.429287 -0.460256 -2 3 -1 192 192 192 255 0.237191 0.060029
-0.089819 0.909421 -0.206655 -2 3 1 192 192 192 255 0.265912 0.35967
0.163774 0.909421 -0.206655 1 3 2 192 192 192 255 0.265912 0.35967
0.163774 0.909421 -0.460256 2 3 -1 192 192 192 255 0.232548 0.35967
-0.089819 0.909421 -0.460256 -1 3 -2 192 192 192 255 0.265912 0.35967
-0.03185 0.909421 -0.264623 -1 3 2 192 192 192 255 0.263615 0.360429
0.105805 0.909421 -0.264623 2 3 1 192 192 192 255 0.263615 0.360429
0.105805 0.909421 -0.402285 1 3 -2 192 192 192 255 0.263615 0.360429
-0.03185 0.909421 -0.402285 -2 3 -1 192 192 192 255 0.263615 0.360429
-0.03185 1.0156 -0.264623 -2 -3 1 192 192 192 255 0.264989 0.060788
0.105805 1.0156 -0.264623 1 -3 2 192 192 192 255 0.264989 0.060788
0.105805 1.0156 -0.402285 2 -3 -1 192 192 192 255 0.236895 0.060788
-0.03185 1.0156 -0.402285 -1 -3 -2 192 192 192 255 0.264989 0.060788
-0.167149 1.0156 -0.129321 -3 -3 2 192 192 192 255 0.263615 0.360429
0.241096 1.0156 -0.129321 2 -3 1 192 192 192 255 0.263615 0.360429
0.241096 1.0156 -0.53758 1 -3 -2 192 192 192 255 0.263615 0.360429
-0.167149 1.0156 -0.53758 -3 -3 -1 192 192 192 255 0.263615 0.360429
-0.167149 1.31902 -0.129321 -3 2 1 192 192 192 255 0.366569 0.360429
0.241096 1.31902 -0.129321 1 1 2 192 192 192 255 0.366569 0.360429
0.241096 1.31902 -0.53758 2 2 -1 192 192 192 255 0.366569 0.360429
-0.167149 1.31902 -0.53758 -3 1 -2 192 192 192 255 0.366569 0.360429
-0.167149 1.11348 -0.261026 -3 -1 2 192 192 192 255 0.299757 0.360429
-0.167149 1.11348 -0.405874 -3 -2 -1 192 192 192 255 0.299757 0.360429
-0.167149 1.22114 -0.261026 -3 2 1 192 192 192 255 0.299757 0.360429
-0.167149 1.22114 -0.405874 -3 1 -2 192 192 192 255 0.299757 0.360429
-0.269485 1.11348 -0.261026 3 -2 1 192 192 192 255 0.200754 0.060788
-0.269485 1.11348 -0.405874 3 -1 -2 192 192 192 255 0.200754 0.060788
-0.269485 1.22114 -0.261026 3 1 2 192 192 192 255 0.264989 0.060788
-0.269485 1.22114 -0.405874 3 2 -1 192 192 192 255 0.303707 0.060788
-0.269485 1.07441 -0.208454 3 -1 3 192 192 192 255 0.299757 0.360429
-0.269485 1.07441 -0.458449 3 -2 -1 192 192 192 255 0.299757 0.360429
-0.269485 1.26021 -0.208454 3 2 3 192 192 192 255 0.299757 0.360429
-0.269485 1.26021 -0.458449 3 1 -2 192 192 192 255 0.299757 0.360429
-0.630905 1.07441 -0.208454 -1 -2 3 192 192 192 255 0.299757 0.360429
-0.630905 1.07441 -0.458449 -2 -1 -2 192 192 192 255 0.299757 0.360429
-0.630905 1.26021 -0.208454 -2 1 3 192 192 192 255 0.299757 0.360429
-0.630905 1.26021 -0.458449 -1 2 -1 192 192 192 255 0.299757 0.360429
-0.473764 1.12075 -0.208454 2 -1 3 192 192 192 255 0.32785 0.360429
-0.473764 1.21387 -0.208454 1 2 3 192 192 192 255 0.32785 0.360429
-0.564155 1.21387 -0.208454 -2 1 3 192 192 192 255 0.32785 0.360429
-0.564155 1.12075 -0.208454 -1 -2 3 192 192 192 255 0.32785 0.360429
-0.473764 1.12075 -0.131899 1 -2 -3 192 192 192 255 0.236895 0.060788
-0.473764 1.21387 -0.131899 2 1 -3 192 192 192 255 0.236895 0.060788
-0.564155 1.21387 -0.131899 -1 2 -3 192 192 192 255 0.270949 0.060788
-0.564155 1.12075 -0.131899 -2 -1 -3 192 192 192 255 0.236895 0.060788
-0.437555 1.08344 -0.131899 2 -1 -3 192 192 192 255 0.32785 0.360429
-0.437555 1.25118 -0.131899 1 2 -3 192 192 192 255 0.32785 0.360429
-0.600378 1.25118 -0.131899 -2 1 -3 192 192 192 255 0.32785 0.360429
-0.600378 1.08344 -0.131899 -1 -2 -3 192 192 192 255 0.32785 0.360429
-0.437555 1.08344 0.110059 1 -2 3 192 192 192 255 0.299757 0.360429
-0.437555 1.25118 0.110059 2 1 3 192 192 192 255 0.299757 0.360429
-0.600378 1.25118 0.110059 -1 2 3 192 192 192 255 0.366569 0.360429
-0.600378 1.08344 0.110059 -2 -1 3 192 192 192 255 0.299757 0.360429
-0.476068 1.12312 0.110059 2 -1 3 192 192 192 255 0.32785 0.360429
-0.476068 1.2115 0.110059 1 2 3 192 192 192 255 0.32785 0.360429
-0.561856 1.2115 0.110059 -2 1 3 192 192 192 255 0.32785 0.360429
-0.561856 1.12312 0.110059 -1 -2 3 192 192 192 255 0.32785 0.360429
-0.476068 1.12312 0.144759 1 -2 3 192 192 192 255 0.236895 0.060788
-0.476068 1.2115 0.144759 2 1 3 192 192 192 255 0.236895 0.060788
-0.561856 1.2115 0.144759 -1 2 3 192 192 192 255 0.303707 0.060788
-0.561856 1.12312 0.144759 -2 -1 3 192 192 192 255 0.236895 0.060788
-0.492773 1.14033 0.144759 1.98037 -0.989597 3.42341 192 192 192 255 0.264989 0.060788
-0.492773 1.19429 0.144759 0.990184 1.97919 3.42751 192 192 192 255 0.264989 0.060788
-0.545155 1.19429 0.144759 -1.98037 0.989597 3.42339 192 192 192 255 0.264989 0.060788
-0.545155 1.14033 0.144759 -0.990185 -1.97919 3.4275 192 192 192 255 0.264989 0.060788
-0.509312 1.15736 0.261927 0.990184 -1.97919 2.42751 192 192 192 255 0.264989 0.060788
-0.509312 1.17726 0.261927 1.98037 0.989597 1.42341 192 192 192 255 0.264989 0.060788
-0.528617 1.17726 0.261927 -0.990185 1.97919 2.4275 192 192 192 255 0.264989 0.060788
-0.528617 1.15736 0.261927 -1.98037 -0.989597 1.42339 192 192 192 255 0.264989 0.060788
-1.03937 1.75001 0.659395 0 5 0 192 192 192 255 0.23323 0.061667
1.03937 1.75001 0.659395 0 4 0 192 192 192 255 0.23323 0.061667
1.03937 1.75001 -0.659395 0 5 0 192 192 192 255 0.23323 0.061667
-1.03937 1.75001 -0.659395 0 4 0 192 192 192 255 0.23323 0.061667
0.407391 0.819177 -0.036219 -2 2 1 192 192 192 255 0.300052 0.061667
1.08164 0.819177 -0.036219 1 1 2 192 192 192 255 0.300052 0.061667
1.08164 0.144925 -0.036219 2 0 1 192 192 192 255 0.233148 0.061667
1.08164 0.819177 -0.710471 2 2 0 192 192 192 255 0.233148 0.061667
1.08164 0.819177 -0.036219 1 1 2 192 192 192 255 0.233148 0.061667
0.407391 0.144925 -0.036219 -1 0 2 192 192 192 255 0.233148 0.061667
0.407391 0.819177 -0.036219 -2 2 1 192 192 192 255 0.233148 0.061667
0.407391 0.819177 -0.710471 -1 1 0 192 192 192 255 0.233148 0.061667
0.714336 0.398998 0.840296 2 -2 3 192 192 192 255 0.140945 0.061667
0.714336 0.398998 0.721855 1 -1 -3 192 192 192 255 0.140945 0.061667
0.714336 0.929768 0.721855 2 2 -3 192 192 192 255 0.140945 0.061667
0.714336 0.929768 0.840296 1 1 3 192 192 192 255 0.140945 0.061667
0.183568 0.398998 0.721855 -2 -2 -3 192 192 192 255 0.140945 0.061667
0.183568 0.398998 0.840296 -1 -1 3 192 192 192 255 0.140945 0.061667
0.183568 0.929768 0.840296 -2 2 3 192 192 192 255 0.140945 0.061667
0.183568 0.929768 0.721855 -1 1 -3 192 192 192 255 0.140945 0.061667
0.183568 0.398998 0.840296 -1 -1 3 192 192 192 255 0.172984 0.061667
0.714336 0.398998 0.840296 2 -2 3 192 192 192 255 0.172984 0.061667
0.714336 0.929768 0.840296 1 1 3 192 192 192 255 0.172984 0.061667
0.183568 0.929768 0.840296 -2 2 3 192 192 192 255 0.172984 0.061667
0.183568 0.929768 0.721855 -1 1 -3 192 192 192 255 0.172984 0.061667
0.714336 0.929768 0.721855 2 2 -3 192 192 192 255 0.172984 0.061667
0.714336 0.398998 0.721855 1 -1 -3 192 192 192 255 0.172984 0.061667
0.183568 0.398998 0.721855 -2 -2 -3 192 192 192 255 0.172984 0.061667
0.611914 0.827345 0.840296 -2 -2 3 192 192 192 255 0.104929 0.061667
0.285991 0.827345 0.840296 2 -1 3 192 192 192 255 0.104929 0.061667
0.285991 0.827345 0.721855 1 -2 -3 192 192 192 255 0.104929 0.061667
0.611914 0.827345 0.721855 -1 -1 -3 192 192 192 255 0.104929 0.061667
0.285991 0.827345 0.840296 2 -1 3 192 192 192 255 0.137858 0.061667
0.285991 0.501422 0.840296 1 1 3 192 192 192 255 0.137858 0.061667
0.285991 0.501422 0.721855 2 2 -3 192 192 192 255 0.137858 0.061667
0.285991 0.827345 0.721855 1 -2 -3 192 192 192 255 0.137858 0.061667
0.611914 0.827345 0.840296 -2 -2 3 192 192 192 255 0.137858 0.061667
0.611914 0.827345 0.721855 -1 -1 -3 192 192 192 255 0.137858 0.061667
0.611914 0.501422 0.721855 -2 1 -3 192 192 192 255 0.137858 0.061667
0.611914 0.501422 0.840296 -1 2 3 192 192 192 255 0.137858 0.061667
0.611914 0.501422 0.840296 -1 2 3 192 192 192 255 0.196034 0.061667
0.611914 0.501422 0.721855 -2 1 -3 192 192 192 255 0.196034 0.061667
0.285991 0.501422 0.721855 2 2 -3 192 192 192 255 0.196034 0.061667
0.285991 0.501422 0.840296 1 1 3 192 192 192 255 0.196034 0.061667
-0.183567 0.398998 0.840296 2 -2 3 192 192 192 255 0.140945 0.061667
-0.183567 0.398998 0.721855 1 -1 -3 192 192 192 255 0.140945 0.061667
-0.183567 0.929768 0.721855 2 2 -3 192 192 192 255 0.140945 0.061667
-0.183567 0.929768 0.840296 1 1 3 192 192 192 255 0.140945 0.061667
-0.714334 0.398998 0.721855 -2 -2 -3 192 192 192 255 0.140945 0.061667
-0.714334 0.398998 0.840296 -1 -1 3 192 192 192 255 0.140945 0.061667
-0.714334 0.929768 0.840296 -2 2 3 192 192 192 255 0.140945 0.061667
-0.714334 0.929768 0.721855 -1 1 -3 192 192 192 255 0.140945 0.061667
-0.714334 0.398998 0.840296 -1 -1 3 192 192 192 255 0.172984 0.061667
-0.183567 0.398998 0.840296 2 -2 3 192 192 192 255 0.172984 0.061667
-0.183567 0.929768 0.840296 1 1 3 192 192 192 255 0.172984 0.061667
-0.714334 0.929768 0.840296 -2 2 3 192 192 192 255 0.172984 0.061667
-0.714334 0.929768 0.721855 -1 1 -3 192 192 192 255 0.172984 0.061667
-0.183567 0.929768 0.721855 2 2 -3 192 192 192 255 0.172984 0.061667
-0.183567 0.398998 0.721855 1 -1 -3 192 192 192 255 0.172984 0.061667
-0.714334 0.398998 0.721855 -2 -2 -3 192 192 192 255 0.172984 0.061667
-0.28599 0.827345 0.840296 -2 -2 3 192 192 192 255 0.104929 0.061667
-0.611912 0.827345 0.840296 2 -1 3 192 192 192 255 0.104929 0.061667
-0.611912 0.827345 0.721855 1 -2 -3 192 192 192 255 0.104929 0.061667
-0.28599 0.827345 0.721855 -1 -1 -3 192 192 192 255 0.104929 0.061667
-0.611912 0.827345 0.840296 2 -1 3 192 192 192 255 0.137858 0.061667
-0.611912 0.501422 0.840296 1 1 3 192 192 192 255 0.137858 0.061667
-0.611912 0.501422 0.721855 2 2 -3 192 192 192 255 0.137858 0.061667
-0.611912 0.827345 0.721855 1 -2 -3 192 192 192 255 0.137858 0.061667
-0.28599 0.827345 0.840296 -2 -2 3 192 192 192 255 0.137858 0.061667
-0.28599 0.827345 0.721855 -1 -1 -3 192 192 192 255 0.137858 0.061667
-0.28599 0.501422 0.721855 -2 1 -3 192 192 192 255 0.137858 0.061667
-0.28599 0.501422 0.840296 -1 2 3 192 192 192 255 0.137858 0.061667
-0.28599 0.501422 0.840296 -1 2 3 192 192 192 255 0.196034 0.061667
-0.28599 0.501422 0.721855 -2 1 -3 192 192 192 255 0.196034 0.061667
-0.611912 0.501422 0.721855 2 2 -3 192 192 192 255 0.196034 0.061667
-0.611912 0.501422 0.840296 1 1 3 192 192 192 255 0.196034 0.061667
-1.25265 0 -0.840296 0 -2 -1 192 192 192 255 0.200168 0.061667
1.25265 0 -0.840296 0 -1 -2 192 192 192 255 0.200168 0.061667
-1.25265 0 0.840296 0 -1 3.06874 192 192 192 255 0.265187 0.061667
1.25265 0 0.840296 0 -2 3.06874 192 192 192 255 0.265187 0.061667
1.03633 1.43461 0.840296 -0.95366 -0.0147887 1.69147 192 192 192 255 0.242082 0.085816
0.914336 1.5745 0.840296 -0.0169593 -1.95402 0.552337 192 192 192 255 0.242082 0.085816
-0.914336 1.5745 0.840296 0.0169593 -0.984405 1.79697 192 192 192 255 0.242082 0.085816
-1.03633 1.43461 0.840296 1.89036 -0.0147887 0.34134 192 192 192 255 0.242082 0.085816
-1.03633 1.43461 0.840296 1.89036 -0.0147887 0.34134 192 192 192 255 0.262938 0.085816
-1.03633 0.31541 0.840296 0.95366 0.0147887 1.69147 192 192 192 255 0.262938 0.085816
-1.08164 1.60509 0.719071 0.95366 -2.95402 -0.866535 192 192 192 255 0.262938 0.085816
-1.03633 0.31541 0.840296 0.95366 0.0147887 1.69147 192 192 192 255 0.359532 0.085816
-0.914336 0.175509 0.840296 0.0169595 1.95402 0.552351 192 192 192 255 0.359532 0.085816
-1.08164 0.144925 0.719071 1.89036 3.98441 -0.972027 192 192 192 255 0.359532 0.085816
0.914336 0.175509 0.840296 -0.0169595 0.984406 1.79698 192 192 192 255 0.359532 0.085816
1.03633 0.31541 0.840296 -1.89036 0.0147887 0.34134 192 192 192 255 0.359532 0.085816
1.03633 0.31541 0.840296 -1.89036 0.0147887 0.34134 192 192 192 255 0.262938 0.085816
1.03633 1.43461 0.840296 -0.95366 -0.0147887 1.69147 192 192 192 255 0.262938 0.085816
1.08164 1.60509 0.719071 -1.89036 -2.9844 -0.972034 192 192 192 255 0.262938 0.085816
1.08164 0.144925 0.719071 -0.95366 4.95402 -0.866521 192 192 192 255 0.262938 0.085816
1.08164 1.60509 0.719071 -1.89036 -2.9844 -0.972034 192 192 192 255 0.238789 0.085816
-1.08164 1.60509 0.719071 0.95366 -2.95402 -0.866535 192 192 192 255 0.238789 0.085816
-1.08164 1.60509 -0.710471 0 -2 1 192 192 192 255 0.238789 0.085816
1.08164 1.60509 -0.710471 0 -1 2 192 192 192 255 0.238789 0.085816
-1.08164 1.32885 0.435836 0.344186 -1.61875 -2.24741 192 192 192 255 0.202414 0.061667
-1.08164 0.875007 0.602588 0.519299 0.344882 -2.81594 192 192 192 255 0.202414 0.061667
-1.08164 1.50249 -3e-006 0.484331 -2.78695 -0.370117 192 192 192 255 0.171679 0.061667
-1.08164 1.32885 0.435836 0.344186 -1.61875 -2.24741 192 192 192 255 0.171679 0.061667
-1.25265 1.32885 0.435836 -0.507584 -2.20285 -1.67889 192 192 192 255 0.171679 0.061667
-1.08164 1.32885 -0.435839 0.338788 -2.20286 1.67889 192 192 192 255 0.171679 0.061667
-1.08164 0.875007 -0.602595 0.498925 -0.344889 2.81593 192 192 192 255 0.202414 0.061667
-1.08164 1.32885 -0.435839 0.338788 -2.20286 1.67889 192 192 192 255 0.202414 0.061667
-1.25265 1.32885 -0.435839 -0.507582 -1.61876 2.24741 192 192 192 255 0.202414 0.061667
-1.08164 0.247523 -3e-006 0.484332 2.78695 0.370124 192 192 192 255 0.299008 0.061667
-1.08164 0.421167 -0.435839 0.338788 1.61876 2.24741 192 192 192 255 0.299008 0.061667
-1.08164 0.421167 -0.435839 0.338788 1.61876 2.24741 192 192 192 255 0.26498 0.061667
-1.08164 0.875007 -0.602595 0.498925 -0.344889 2.81593 192 192 192 255 0.26498 0.061667
-1.25265 0.875007 -0.602595 -0.923562 0.344889 2.81593 192 192 192 255 0.26498 0.061667
-1.25265 0.421167 -0.435839 -0.507582 2.20286 1.67889 192 192 192 255 0.26498 0.061667
-1.08164 0.421167 0.435836 0.344186 2.20285 -1.67889 192 192 192 255 0.299008 0.061667
-1.08164 0.875007 0.602588 0.519299 0.344882 -2.81594 192 192 192 255 0.26498 0.061667
-1.08164 0.421167 0.435836 0.344186 2.20285 -1.67889 192 192 192 255 0.26498 0.061667
-1.25265 0.421167 0.435836 -0.507584 1.61875 -2.24741 192 192 192 255 0.26498 0.061667
-1.25265 0.875007 0.602588 -0.923573 -0.344882 -2.81594 192 192 192 255 0.26498 0.061667
-1.25265 0.247523 -3e-006 -0.923569 2.78695 -0.370117 192 192 192 255 0.233148 0.061667
-1.25265 0.421167 -0.435839 -0.507582 2.20286 1.67889 192 192 192 255 0.233148 0.061667
-1.25265 0.875007 0.602588 -0.923573 -0.344882 -2.81594 192 192 192 255 0.233148 0.061667
-1.25265 0.421167 0.435836 -0.507584 1.61875 -2.24741 192 192 192 255 0.233148 0.061667
-1.25265 1.50249 -3e-006 -0.923569 -2.78695 0.370124 192 192 192 255 0.233148 0.061667
-1.25265 1.32885 0.435836 -0.507584 -2.20285 -1.67889 192 192 192 255 0.233148 0.061667
-1.25265 0.875007 -0.602595 -0.923562 0.344889 2.81593 192 192 192 255 0.233148 0.061667
-1.25265 1.32885 -0.435839 -0.507582 -1.61876 2.24741 192 192 192 255 0.233148 0.061667
1.08164 1.32885 0.435836 -0.344186 -1.61875 -2.24741 192 192 192 255 0.202414 0.061667
1.08164 0.875007 0.602588 -0.519299 0.344882 -2.81594 192 192 192 255 0.202414 0.061667
1.08164 1.50249 -3e-006 -0.484331 -2.78695 -0.370117 192 192 192 255 0.171679 0.061667
1.25265 1.32885 0.435836 0.507584 -2.20285 -1.67889 192 192 192 255 0.171679 0.061667
1.08164 1.32885 0.435836 -0.344186 -1.61875 -2.24741 192 192 192 255 0.171679 0.061667
1.08164 1.32885 -0.435839 -0.338788 -2.20286 1.67889 192 192 192 255 0.171679 0.061667
1.08164 0.875007 -0.602595 -0.498925 -0.344889 2.81593 192 192 192 255 0.202414 0.061667
1.25265 1.32885 -0.435839 0.507582 -1.61876 2.24741 192 192 192 255 0.202414 0.061667
1.08164 1.32885 -0.435839 -0.338788 -2.20286 1.67889 192 192 192 255 0.202414 0.061667
1.08164 0.247523 -3e-006 -0.484332 2.78695 0.370124 192 192 192 255 0.295715 0.061667
1.08164 0.421167 -0.435839 -0.338788 1.61876 2.24741 192 192 192 255 0.295715 0.061667
1.08164 0.421167 -0.435839 -0.338788 1.61876 2.24741 192 192 192 255 0.266078 0.061667
1.25265 0.421167 -0.435839 0.507582 2.20286 1.67889 192 192 192 255 0.266078 0.061667
1.25265 0.875007 -0.602595 0.923562 0.344889 2.81593 192 192 192 255 0.266078 0.061667
1.08164 0.875007 -0.602595 -0.498925 -0.344889 2.81593 192 192 192 255 0.266078 0.061667
1.08164 0.421167 0.435836 -0.344186 2.20285 -1.67889 192 192 192 255 0.295715 0.061667
1.08164 0.875007 0.602588 -0.519299 0.344882 -2.81594 192 192 192 255 0.266078 0.061667
1.25265 0.875007 0.602588 0.923573 -0.344882 -2.81594 192 192 192 255 0.266078 0.061667
1.25265 0.421167 0.435836 0.507584 1.61875 -2.24741 192 192 192 255 0.266078 0.061667
1.08164 0.421167 0.435836 -0.344186 2.20285 -1.67889 192 192 192 255 0.266078 0.061667
1.25265 0.421167 -0.435839 0.507582 2.20286 1.67889 192 192 192 255 0.233148 0.061667
1.25265 0.247523 -3e-006 0.923569 2.78695 -0.370117 192 192 192 255 0.233148 0.061667
1.25265 0.421167 0.435836 0.507584 1.61875 -2.24741 192 192 192 255 0.233148 0.061667
1.25265 0.875007 0.602588 0.923573 -0.344882 -2.81594 192 192 192 255 0.233148 0.061667
1.25265 1.32885 0.435836 0.507584 -2.20285 -1.67889 192 192 192 255 0.233148 0.061667
1.25265 1.50249 -3e-006 0.923569 -2.78695 0.370124 192 192 192 255 0.233148 0.061667
1.25265 1.32885 -0.435839 0.507582 -1.61876 2.24741 192 192 192 255 0.233148 0.061667
1.25265 0.875007 -0.602595 0.923562 0.344889 2.81593 192 192 192 255 0.233148 0.061667
-1.08164 0.144925 0.719071 1.89036 3.98441 -0.972027 192 192 192 255 0.325504 0.085816
1.08164 0.144925 0.719071 -0.95366 4.95402 -0.866521 192 192 192 255 0.325504 0.085816
1.08164 0.144925 -0.710471 0 3 1 192 192 192 255 0.325504 0.085816
-1.08164 0.144925 -0.710471 0 3 2 192 192 192 255 0.325504 0.085816
-0.915904 0.144925 0.560043 -1 3 2 192 192 192 255 0.23702 0.060986
0.253657 0.144925 0.560043 2 3 1 192 192 192 255 0.23702 0.060986
0.253657 0.329951 0.560043 1 1 2 192 192 192 255 0.23702 0.060986
-0.915904 0.329951 0.560043 -2 2 1 192 192 192 255 0.23702 0.060986
0.253657 0.144925 0.560043 2 3 1 192 192 192 255 0.202477 0.060986
0.253657 0.144925 -0.551442 1 3 -2 192 192 192 255 0.202477 0.060986
0.253657 0.329951 -0.551442 2 2 -1 192 192 192 255 0.202477 0.060986
0.253657 0.329951 0.560043 1 1 2 192 192 192 255 0.202477 0.060986
0.253657 0.144925 -0.551442 1 3 -2 192 192 192 255 0.23702 0.060986
-0.915904 0.144925 -0.551442 -2 3 -1 192 192 192 255 0.23702 0.060986
-0.915904 0.329951 -0.551442 -1 1 -2 192 192 192 255 0.23702 0.060986
0.253657 0.329951 -0.551442 2 2 -1 192 192 192 255 0.23702 0.060986
-0.915904 0.144925 -0.551442 -2 3 -1 192 192 192 255 0.202477 0.060986
-0.915904 0.144925 0.560043 -1 3 2 192 192 192 255 0.202477 0.060986
-0.915904 0.329951 0.560043 -2 2 1 192 192 192 255 0.202477 0.060986
-0.915904 0.329951 -0.551442 -1 1 -2 192 192 192 255 0.202477 0.060986
-0.155298 0.329951 -0.525725 -2 -2 -1 192 192 192 255 0.200168 0.35967
0.229248 0.329951 -0.525725 1 -1 -2 192 192 192 255 0.200168 0.35967
0.229248 0.329951 -0.141184 2 -2 1 192 192 192 255 0.200168 0.35967
-0.155298 0.329951 -0.141184 -1 -1 2 192 192 192 255 0.200168 0.35967
0.229248 0.329951 -0.141184 2 -2 1 192 192 192 255 0.170287 0.060029
0.229248 0.329951 -0.525725 1 -1 -2 192 192 192 255 0.170287 0.060029
0.229248 0.429287 -0.525725 2 3 -1 192 192 192 255 0.170287 0.060029
0.229248 0.429287 -0.141184 1 3 2 192 192 192 255 0.170287 0.060029
-0.155298 0.329951 -0.525725 -2 -2 -1 192 192 192 255 0.170287 0.060029
-0.155298 0.329951 -0.141184 -1 -1 2 192 192 192 255 0.170287 0.060029
-0.155298 0.429287 -0.141184 -2 3 1 192 192 192 255 0.170287 0.060029
-0.155298 0.429287 -0.525725 -1 3 -2 192 192 192 255 0.170287 0.060029
-0.155298 0.429287 -0.141184 -2 3 1 192 192 192 255 0.237191 0.060029
0.229248 0.429287 -0.141184 1 3 2 192 192 192 255 0.237191 0.060029
0.229248 0.429287 -0.525725 2 3 -1 192 192 192 255 0.237191 0.060029
-0.155298 0.429287 -0.525725 -1 3 -2 192 192 192 255 0.237191 0.060029
-0.089819 0.429287 -0.206655 -1 3 2 192 192 192 255 0.265912 0.35967
0.163774 0.429287 -0.206655 2 3 1 192 192 192 255 0.265912 0.35967
0.163774 0.429287 -0.206655 2 3 1 192 192 192 255 0.232548 0.35967
0.163774 0.429287 -0.460256 1 3 -2 192 192 192 255 0.232548 0.35967
0.163774 0.909421 -0.206655 1 3 2 192 192 192 255 0.232548 0.35967
0.163774 0.429287 -0.460256 1 3 -2 192 192 192 255 0.265912 0.35967
-0.089819 0.429287 -0.460256 -2 3 -1 192 192 192 255 0.265912 0.35967
0.163774 0.909421 -0.460256 2 3 -1 192 192 192 255 0.265912 0.35967
-0.089819 0.429287 -0.460256 -2 3 -1 192 192 192 255 0.232548 0.35967
-0.089819 0.429287 -0.206655 -1 3 2 192 192 192 255 0.232548 0.35967
-0.089819 0.909421 -0.206655 -2 3 1 192 192 192 255 0.232548 0.35967
-0.089819 0.909421 -0.460256 -1 3 -2 192 192 192 255 0.232548 0.35967
-0.089819 0.909421 -0.206655 -2 3 1 192 192 192 255 0.263615 0.360429
0.163774 0.909421 -0.206655 1 3 2 192 192 192 255 0.263615 0.360429
0.163774 0.909421 -0.460256 2 3 -1 192 192 192 255 0.263615 0.360429
-0.089819 0.909421 -0.460256 -1 3 -2 192 192 192 255 0.263615 0.360429
-0.03185 0.909421 -0.264623 -1 3 2 192 192 192 255 0.264989 0.060788
0.105805 0.909421 -0.264623 2 3 1 192 192 192 255 0.264989 0.060788
0.105805 0.909421 -0.264623 2 3 1 192 192 192 255 0.236895 0.060788
0.105805 0.909421 -0.402285 1 3 -2 192 192 192 255 0.236895 0.060788
0.105805 1.0156 -0.264623 1 -3 2 192 192 192 255 0.236895 0.060788
0.105805 0.909421 -0.402285 1 3 -2 192 192 192 255 0.264989 0.060788
-0.03185 0.909421 -0.402285 -2 3 -1 192 192 192 255 0.264989 0.060788
0.105805 1.0156 -0.402285 2 -3 -1 192 192 192 255 0.264989 0.060788
-0.03185 0.909421 -0.402285 -2 3 -1 192 192 192 255 0.236895 0.060788
-0.03185 0.909421 -0.264623 -1 3 2 192 192 192 255 0.236895 0.060788
-0.03185 1.0156 -0.264623 -2 -3 1 192 192 192 255 0.236895 0.060788
-0.03185 1.0156 -0.402285 -1 -3 -2 192 192 192 255 0.236895 0.060788
-0.03185 1.0156 -0.264623 -2 -3 1 192 192 192 255 0.263615 0.360429
0.105805 1.0156 -0.264623 1 -3 2 192 192 192 255 0.263615 0.360429
0.105805 1.0156 -0.402285 2 -3 -1 192 192 192 255 0.263615 0.360429
-0.03185 1.0156 -0.402285 -1 -3 -2 192 192 192 255 0.263615 0.360429
-0.167149 1.0156 -0.129321 -3 -3 2 192 192 192 255 0.32785 0.360429
0.241096 1.0156 -0.129321 2 -3 1 192 192 192 255 0.32785 0.360429
0.241096 1.31902 -0.129321 1 1 2 192 192 192 255 0.32785 0.360429
-0.167149 1.31902 -0.129321 -3 2 1 192 192 192 255 0.32785 0.360429
0.241096 1.0156 -0.129321 2 -3 1 192 192 192 255 0.299757 0.360429
0.241096 1.0156 -0.53758 1 -3 -2 192 192 192 255 0.299757 0.360429
0.241096 1.31902 -0.53758 2 2 -1 192 192 192 255 0.299757 0.360429
0.241096 1.31902 -0.129321 1 1 2 192 192 192 255 0.299757 0.360429
0.241096 1.0156 -0.53758 1 -3 -2 192 192 192 255 0.32785 0.360429
-0.167149 1.0156 -0.53758 -3 -3 -1 192 192 192 255 0.32785 0.360429
-0.167149 1.31902 -0.53758 -3 1 -2 192 192 192 255 0.32785 0.360429
0.241096 1.31902 -0.53758 2 2 -1 192 192 192 255 0.32785 0.360429
-0.167149 1.0156 -0.53758 -3 -3 -1 192 192 192 255 0.299757 0.360429
-0.167149 1.0156 -0.129321 -3 -3 2 192 192 192 255 0.299757 0.360429
-0.167149 1.31902 -0.129321 -3 2 1 192 192 192 255 0.299757 0.360429
-0.167149 1.31902 -0.53758 -3 1 -2 192 192 192 255 0.299757 0.360429
-0.167149 1.11348 -0.405874 -3 -2 -1 192 192 192 255 0.200754 0.060788
-0.167149 1.11348 -0.261026 -3 -1 2 192 192 192 255 0.200754 0.060788
-0.167149 1.11348 -0.261026 -3 -1 2 192 192 192 255 0.264989 0.060788
-0.167149 1.22114 -0.261026 -3 2 1 192 192 192 255 0.264989 0.060788
-0.269485 1.11348 -0.261026 3 -2 1 192 192 192 255 0.264989 0.060788
-0.167149 1.22114 -0.261026 -3 2 1 192 192 192 255 0.303707 0.060788
-0.167149 1.22114 -0.405874 -3 1 -2 192 192 192 255 0.303707 0.060788
-0.269485 1.22114 -0.261026 3 1 2 192 192 192 255 0.303707 0.060788
-0.167149 1.22114 -0.405874 -3 1 -2 192 192 192 255 0.264989 0.060788
-0.167149 1.11348 -0.405874 -3 -2 -1 192 192 192 255 0.264989 0.060788
-0.269485 1.11348 -0.405874 3 -1 -2 192 192 192 255 0.264989 0.060788
-0.269485 1.22114 -0.405874 3 2 -1 192 192 192 255 0.264989 0.060788
-0.269485 1.11348 -0.405874 3 -1 -2 192 192 192 255 0.299757 0.360429
-0.269485 1.11348 -0.261026 3 -2 1 192 192 192 255 0.299757 0.360429
-0.269485 1.22114 -0.261026 3 1 2 192 192 192 255 0.299757 0.360429
-0.269485 1.22114 -0.405874 3 2 -1 192 192 192 255 0.299757 0.360429
-0.269485 1.07441 -0.458449 3 -2 -1 192 192 192 255 0.263615 0.360429
-0.269485 1.07441 -0.208454 3 -1 3 192 192 192 255 0.263615 0.360429
-0.630905 1.07441 -0.208454 -1 -2 3 192 192 192 255 0.263615 0.360429
-0.630905 1.07441 -0.458449 -2 -1 -2 192 192 192 255 0.263615 0.360429
-0.269485 1.26021 -0.208454 3 2 3 192 192 192 255 0.366569 0.360429
-0.269485 1.26021 -0.458449 3 1 -2 192 192 192 255 0.366569 0.360429
-0.630905 1.26021 -0.458449 -1 2 -1 192 192 192 255 0.366569 0.360429
-0.630905 1.26021 -0.208454 -2 1 3 192 192 192 255 0.366569 0.360429
-0.269485 1.26021 -0.458449 3 1 -2 192 192 192 255 0.32785 0.360429
-0.269485 1.07441 -0.458449 3 -2 -1 192 192 192 255 0.32785 0.360429
-0.630905 1.07441 -0.458449 -2 -1 -2 192 192 192 255 0.32785 0.360429
-0.630905 1.26021 -0.458449 -1 2 -1 192 192 192 255 0.32785 0.360429
-0.269485 1.07441 -0.208454 3 -1 3 192 192 192 255 0.32785 0.360429
-0.269485 1.26021 -0.208454 3 2 3 192 192 192 255 0.32785 0.360429
-0.630905 1.26021 -0.208454 -2 1 3 192 192 192 255 0.32785 0.360429
-0.630905 1.07441 -0.208454 -1 -2 3 192 192 192 255 0.32785 0.360429
-0.473764 1.12075 -0.208454 2 -1 3 192 192 192 255 0.236895 0.060788
-0.473764 1.21387 -0.208454 1 2 3 192 192 192 255 0.236895 0.060788
-0.473764 1.21387 -0.208454 1 2 3 192 192 192 255 0.270949 0.060788
-0.564155 1.21387 -0.208454 -2 1 3 192 192 192 255 0.270949 0.060788
-0.473764 1.21387 -0.131899 2 1 -3 192 192 192 255 0.270949 0.060788
-0.564155 1.21387 -0.208454 -2 1 3 192 192 192 255 0.236895 0.060788
-0.564155 1.12075 -0.208454 -1 -2 3 192 192 192 255 0.236895 0.060788
-0.564155 1.21387 -0.131899 -1 2 -3 192 192 192 255 0.236895 0.060788
-0.564155 1.12075 -0.208454 -1 -2 3 192 192 192 255 0.200754 0.060788
-0.473764 1.12075 -0.208454 2 -1 3 192 192 192 255 0.200754 0.060788
-0.473764 1.12075 -0.131899 1 -2 -3 192 192 192 255 0.200754 0.060788
-0.564155 1.12075 -0.131899 -2 -1 -3 192 192 192 255 0.200754 0.060788
-0.473764 1.12075 -0.131899 1 -2 -3 192 192 192 255 0.32785 0.360429
-0.473764 1.21387 -0.131899 2 1 -3 192 192 192 255 0.32785 0.360429
-0.564155 1.21387 -0.131899 -1 2 -3 192 192 192 255 0.32785 0.360429
-0.564155 1.12075 -0.131899 -2 -1 -3 192 192 192 255 0.32785 0.360429
-0.437555 1.08344 -0.131899 2 -1 -3 192 192 192 255 0.299757 0.360429
-0.437555 1.25118 -0.131899 1 2 -3 192 192 192 255 0.299757 0.360429
-0.437555 1.25118 -0.131899 1 2 -3 192 192 192 255 0.366569 0.360429
-0.600378 1.25118 -0.131899 -2 1 -3 192 192 192 255 0.366569 0.360429
-0.437555 1.25118 0.110059 2 1 3 192 192 192 255 0.366569 0.360429
-0.600378 1.25118 -0.131899 -2 1 -3 192 192 192 255 0.299757 0.360429
-0.600378 1.08344 -0.131899 -1 -2 -3 192 192 192 255 0.299757 0.360429
-0.600378 1.25118 0.110059 -1 2 3 192 192 192 255 0.299757 0.360429
-0.600378 1.08344 -0.131899 -1 -2 -3 192 192 192 255 0.263615 0.360429
-0.437555 1.08344 -0.131899 2 -1 -3 192 192 192 255 0.263615 0.360429
-0.437555 1.08344 0.110059 1 -2 3 192 192 192 255 0.263615 0.360429
-0.600378 1.08344 0.110059 -2 -1 3 192 192 192 255 0.263615 0.360429
-0.437555 1.08344 0.110059 1 -2 3 192 192 192 255 0.32785 0.360429
-0.437555 1.25118 0.110059 2 1 3 192 192 192 255 0.32785 0.360429
-0.600378 1.25118 0.110059 -1 2 3 192 192 192 255 0.32785 0.360429
-0.600378 1.08344 0.110059 -2 -1 3 192 192 192 255 0.32785 0.360429
-0.476068 1.12312 0.110059 2 -1 3 192 192 192 255 0.236895 0.060788
-0.476068 1.2115 0.110059 1 2 3 192 192 192 255 0.236895 0.060788
-0.476068 1.2115 0.110059 1 2 3 192 192 192 255 0.303707 0.060788
-0.561856 1.2115 0.110059 -2 1 3 192 192 192 255 0.303707 0.060788
-0.476068 1.2115 0.144759 2 1 3 192 192 192 255 0.303707 0.060788
-0.561856 1.2115 0.110059 -2 1 3 192 192 192 255 0.236895 0.060788
-0.561856 1.12312 0.110059 -1 -2 3 192 192 192 255 0.236895 0.060788
-0.561856 1.2115 0.144759 -1 2 3 192 192 192 255 0.236895 0.060788
-0.561856 1.12312 0.110059 -1 -2 3 192 192 192 255 0.200754 0.060788
-0.476068 1.12312 0.110059 2 -1 3 192 192 192 255 0.200754 0.060788
-0.476068 1.12312 0.144759 1 -2 3 192 192 192 255 0.200754 0.060788
-0.561856 1.12312 0.144759 -2 -1 3 192 192 192 255 0.200754 0.060788
-0.476068 1.12312 0.144759 1 -2 3 192 192 192 255 0.264989 0.060788
-0.476068 1.2115 0.144759 2 1 3 192 192 192 255 0.264989 0.060788
-0.561856 1.2115 0.144759 -1 2 3 192 192 192 255 0.264989 0.060788
-0.561856 1.12312 0.144759 -2 -1 3 192 192 192 255 0.264989 0.060788
-0.492773 1.14033 0.144759 1.98037 -0.989597 3.42341 192 192 192 255 0.236895 0.060788
-0.492773 1.19429 0.144759 0.990184 1.97919 3.42751 192 192 192 255 0.236895 0.060788
-0.509312 1.17726 0.261927 1.98037 0.989597 1.42341 192 192 192 255 0.236895 0.060788
-0.509312 1.15736 0.261927 0.990184 -1.97919 2.42751 192 192 192 255 0.236895 0.060788
-0.492773 1.19429 0.144759 0.990184 1.97919 3.42751 192 192 192 255 0.303707 0.060788
-0.545155 1.19429 0.144759 -1.98037 0.989597 3.42339 192 192 192 255 0.303707 0.060788
-0.528617 1.17726 0.261927 -0.990185 1.97919 2.4275 192 192 192 255 0.303707 0.060788
-0.509312 1.17726 0.261927 1.98037 0.989597 1.42341 192 192 192 255 0.303707 0.060788
-0.545155 1.19429 0.144759 -1.98037 0.989597 3.42339 192 192 192 255 0.236895 0.060788
-0.545155 1.14033 0.144759 -0.990185 -1.97919 3.4275 192 192 192 255 0.236895 0.060788
-0.528617 1.15736 0.261927 -1.98037 -0.989597 1.42339 192 192 192 255 0.236895 0.060788
-0.528617 1.17726 0.261927 -0.990185 1.97919 2.4275 192 192 192 255 0.236895 0.060788
-0.545155 1.14033 0.144759 -0.990185 -1.97919 3.4275 192 192 192 255 0.200754 0.060788
-0.492773 1.14033 0.144759 1.98037 -0.989597 3.42341 192 192 192 255 0.200754 0.060788
-0.509312 1.15736 0.261927 0.990184 -1.97919 2.42751 192 192 192 255 0.200754 0.060788
-0.528617 1.15736 0.261927 -1.98037 -0.989597 1.42339 192 192 192 255 0.200754 0.060788
-1.25265 1.75001 0.840296 0 3 3.06874 192 192 192 255 0.300052 0.061667
1.25265 1.75001 0.840296 0 3 3.06874 192 192 192 255 0.300052 0.061667
1.03937 1.75001 0.659395 0 4 0 192 192 192 255 0.300052 0.061667
-1.03937 1.75001 0.659395 0 5 0 192 192 192 255 0.300052 0.061667
1.25265 1.75001 -0.840296 0 3 -1 192 192 192 255 0.300052 0.061667
1.03937 1.75001 -0.659395 0 5 0 192 192 192 255 0.300052 0.061667
-1.25265 1.75001 -0.840296 0 3 -2 192 192 192 255 0.300052 0.061667
-1.03937 1.75001 -0.659395 0 4 0 192 192 192 255 0.300052 0.061667
3 0 1 3 
3 0 3 2 
3 204 205 5 
3 204 5 4 
3 206 7 207 
3 206 207 208 
3 6 209 210 
3 6 210 211 
3 10 11 13 
3 10 13 12 
3 14 15 9 
3 14 9 8 
3 212 213 214 
3 212 214 215 
3 216 217 218 
3 216 218 219 
3 220 221 17 
3 220 17 16 
3 221 222 18 
3 221 18 17 
3 222 223 19 
3 222 19 18 
3 223 220 16 
3 223 16 19 
3 224 225 21 
3 224 21 20 
3 225 226 22 
3 225 22 21 
3 226 227 23 
3 226 23 22 
3 227 224 20 
3 227 20 23 
3 228 229 230 
3 228 230 231 
3 232 233 234 
3 232 234 235 
3 236 237 238 
3 236 238 239 
3 240 241 242 
3 240 242 243 
3 26 27 29 
3 26 29 28 
3 30 31 25 
3 30 25 24 
3 244 245 246 
3 244 246 247 
3 248 249 250 
3 248 250 251 
3 252 253 33 
3 252 33 32 
3 253 254 34 
3 253 34 33 
3 254 255 35 
3 254 35 34 
3 255 252 32 
3 255 32 35 
3 256 257 37 
3 256 37 36 
3 257 258 38 
3 257 38 37 
3 258 259 39 
3 258 39 38 
3 259 256 36 
3 259 36 39 
3 260 261 262 
3 260 262 263 
3 264 265 266 
3 264 266 267 
3 268 269 270 
3 268 270 271 
3 272 273 274 
3 272 274 275 
3 60 61 62 
3 60 62 63 
3 200 201 202 
3 200 202 203 
3 46 40 41 
3 46 41 47 
3 276 277 42 
3 276 42 44 
3 278 279 49 
3 278 49 48 
3 279 54 49 
3 43 45 51 
3 43 51 50 
3 45 52 51 
3 45 278 53 
3 45 53 52 
3 53 278 48 
3 279 43 55 
3 279 55 54 
3 55 43 50 
3 280 281 56 
3 281 282 57 
3 281 57 56 
3 282 283 57 
3 284 285 58 
3 284 58 286 
3 287 288 289 
3 288 290 59 
3 288 59 289 
3 290 291 59 
3 292 293 294 
3 292 294 295 
3 296 297 298 
3 296 298 299 
3 116 117 118 
3 116 118 119 
3 73 64 69 
3 74 65 71 
3 75 66 68 
3 72 67 70 
3 70 64 73 
3 72 70 73 
3 69 65 74 
3 73 69 74 
3 71 66 75 
3 74 71 75 
3 68 67 72 
3 75 68 72 
3 300 301 83 
3 300 83 78 
3 302 303 304 
3 302 304 80 
3 305 302 80 
3 305 80 79 
3 306 307 308 
3 306 308 82 
3 309 310 76 
3 309 76 81 
3 311 312 313 
3 311 313 314 
3 315 309 81 
3 315 81 77 
3 316 317 318 
3 316 318 319 
3 85 320 321 
3 86 322 323 
3 87 324 325 
3 84 326 327 
3 326 85 321 
3 84 85 326 
3 320 86 323 
3 85 86 320 
3 322 87 325 
3 86 87 322 
3 324 84 327 
3 87 84 324 
3 97 93 88 
3 98 95 89 
3 99 92 90 
3 96 94 91 
3 94 97 88 
3 96 97 94 
3 93 98 89 
3 97 98 93 
3 95 99 90 
3 98 99 95 
3 92 96 91 
3 99 96 92 
3 328 102 107 
3 328 107 329 
3 330 104 331 
3 330 331 332 
3 333 103 104 
3 333 104 330 
3 334 106 335 
3 334 335 336 
3 337 105 100 
3 337 100 338 
3 339 340 341 
3 339 341 342 
3 343 101 105 
3 343 105 337 
3 344 345 346 
3 344 346 347 
3 109 348 349 
3 110 350 351 
3 111 352 353 
3 108 354 355 
3 355 348 109 
3 108 355 109 
3 349 350 110 
3 109 349 110 
3 351 352 111 
3 110 351 111 
3 353 354 108 
3 111 353 108 
3 356 357 113 
3 356 113 112 
3 357 358 114 
3 357 114 113 
3 358 359 115 
3 358 115 114 
3 359 356 112 
3 359 112 115 
3 360 361 362 
3 360 362 363 
3 364 365 366 
3 364 366 367 
3 368 369 370 
3 368 370 371 
3 372 373 374 
3 372 374 375 
3 120 121 123 
3 120 123 122 
3 148 149 150 
3 148 150 151 
3 124 125 127 
3 124 127 126 
3 376 377 378 
3 376 378 379 
3 380 381 382 
3 380 382 383 
3 384 385 386 
3 384 386 387 
3 388 389 129 
3 388 129 128 
3 389 390 130 
3 389 130 129 
3 390 391 131 
3 390 131 130 
3 391 388 128 
3 391 128 131 
3 392 393 133 
3 392 133 132 
3 394 395 134 
3 394 134 396 
3 397 398 135 
3 397 135 399 
3 400 401 402 
3 400 402 403 
3 404 405 137 
3 404 137 136 
3 405 406 138 
3 405 138 137 
3 406 407 139 
3 406 139 138 
3 407 404 136 
3 407 136 139 
3 408 409 141 
3 408 141 140 
3 410 411 142 
3 410 142 412 
3 413 414 143 
3 413 143 415 
3 416 417 418 
3 416 418 419 
3 420 421 145 
3 420 145 144 
3 421 422 146 
3 421 146 145 
3 422 423 147 
3 422 147 146 
3 423 420 144 
3 423 144 147 
3 424 425 426 
3 424 426 427 
3 428 429 430 
3 428 430 431 
3 432 433 434 
3 432 434 435 
3 165 164 166 
3 165 166 167 
3 436 437 152 
3 436 152 153 
3 437 438 154 
3 437 154 152 
3 438 439 155 
3 438 155 154 
3 439 436 153 
3 439 153 155 
3 440 441 156 
3 440 156 157 
3 442 443 158 
3 442 158 444 
3 445 446 159 
3 445 159 447 
3 448 449 450 
3 448 450 451 
3 452 453 160 
3 452 160 161 
3 453 454 162 
3 453 162 160 
3 454 455 163 
3 454 163 162 
3 455 452 161 
3 455 161 163 
3 456 457 458 
3 456 458 459 
3 196 197 198 
3 196 198 199 
3 460 461 462 
3 460 462 463 
3 464 465 466 
3 464 466 467 
3 468 469 169 
3 468 169 168 
3 469 470 170 
3 469 170 169 
3 470 471 171 
3 470 171 170 
3 471 468 168 
3 471 168 171 
3 472 473 173 
3 472 173 172 
3 474 475 174 
3 474 174 476 
3 477 478 175 
3 477 175 479 
3 480 481 482 
3 480 482 483 
3 484 485 177 
3 484 177 176 
3 485 486 178 
3 485 178 177 
3 486 487 179 
3 486 179 178 
3 487 484 176 
3 487 176 179 
3 488 489 181 
3 488 181 180 
3 490 491 182 
3 490 182 492 
3 493 494 183 
3 493 183 495 
3 496 497 498 
3 496 498 499 
3 500 501 185 
3 500 185 184 
3 501 502 186 
3 501 186 185 
3 502 503 187 
3 502 187 186 
3 503 500 184 
3 503 184 187 
3 504 505 189 
3 504 189 188 
3 506 507 190 
3 506 190 508 
3 509 510 191 
3 509 191 511 
3 512 513 514 
3 512 514 515 
3 516 517 193 
3 516 193 192 
3 517 518 194 
3 517 194 193 
3 518 519 195 
3 518 195 194 
3 519 516 192 
3 519 192 195 
3 520 521 522 
3 520 522 523 
3 524 525 526 
3 524 526 527 
3 528 529 530 
3 528 530 531 
3 532 533 534 
3 532 534 535 
3 536 537 538 
3 536 538 539 
3 537 540 541 
3 537 541 538 
3 540 542 543 
3 540 543 541 
3 542 536 539 
3 542 539 543 
