ply
format ascii 1.0
comment VCGLIB generated
element vertex 330
property float x
property float y
property float z
property float nx
property float ny
property float nz
property float texture_u
property float texture_v
element face 652
property list uchar int vertex_indices
end_header
0.302416 0.5738601 -11.67266 0.3720996 0.2402337 -0.8965656 0.626627 0.373985
0.604832 0.4832521 -11.3345 1 -4.945633e-07 7.753956e-07 0.753253 0.393881
0.302416 0.3926421 -10.99634 0.3720991 -0.2402352 0.8965653 0.626627 0.413779
-0.302416 0.3926421 -10.99634 -0.3720991 -0.2402352 0.8965654 0.373373 0.413779
-0.604832 0.4832521 -11.3345 -1 -4.940663e-07 7.873247e-07 0.246747 0.393881
-0.302416 0.5738601 -11.67266 -0.3720996 0.2402337 -0.8965655 0.373373 0.373985
0.302416 1.567816 -11.09879 0.3720985 0.656332 -0.6563315 0.626627 0.155719
0.604832 1.320266 -10.85125 1 -5.566941e-07 5.527177e-07 0.753253 0.210079
0.302416 1.072716 -10.60369 0.3720989 -0.6563326 0.6563307 0.626627 0.264439
-0.302416 1.072716 -10.60369 -0.3720989 -0.6563326 0.6563307 0.373373 0.264439
-0.604832 1.320266 -10.85125 -1 -5.527178e-07 5.487414e-07 0.246747 0.210079
-0.302416 1.567816 -11.09879 -0.3720985 0.656332 -0.6563315 0.373373 0.155719
0.302416 2.141674 -10.10484 0.3720973 0.8965665 -0.2402337 0.626627 0.029703
0.604832 1.803516 -10.01423 1 -5.56694e-07 9.543321e-08 0.753253 0.103961
0.302416 1.465356 -9.923622 0.3720969 -0.8965665 0.2402341 0.626627 0.178218
-0.302416 1.465356 -9.923622 -0.3720969 -0.8965665 0.2402341 0.373373 0.178218
-0.604832 1.803516 -10.01423 -1 -5.527177e-07 9.344502e-08 0.246747 0.103961
-0.302416 2.141674 -10.10484 -0.3720973 0.8965665 -0.2402337 0.373373 0.029703
0.302416 2.141674 -8.957121 0.3720969 0.8965665 0.2402344 0.626627 0.029703
0.604832 1.803516 -9.047731 1 -6.640565e-07 -1.237651e-07 0.753253 0.103961
0.302416 1.465356 -9.13834 0.3720973 -0.8965664 -0.2402341 0.626627 0.178218
-0.302416 1.465356 -9.13834 -0.372097 -0.8965665 -0.2402341 0.373373 0.178218
-0.604832 1.803516 -9.047731 -1 -4.811426e-07 -5.467572e-09 0.246747 0.103961
-0.302416 2.141674 -8.957121 -0.3720969 0.8965665 0.2402344 0.373373 0.029703
0.302416 1.567816 -7.963168 0.3720987 0.6563318 0.6563316 0.626627 0.155719
0.604832 1.320266 -8.210718 1 1.073624e-07 1.351971e-07 0.753253 0.210079
0.302416 1.072716 -8.458265 0.3720976 -0.6563323 -0.6563318 0.626627 0.264439
-0.302416 1.072716 -8.458265 -0.3720976 -0.6563323 -0.6563318 0.373373 0.264439
-0.604832 1.320266 -8.210718 -1 1.153152e-07 1.351971e-07 0.246747 0.210079
-0.302416 1.567816 -7.963168 -0.3720988 0.6563317 0.6563315 0.373373 0.155719
0.302416 0.5738618 -7.389308 0.372099 0.2402338 0.8965657 0.626627 0.373984
0.604832 0.4832518 -7.727466 1 1.332089e-07 1.180987e-06 0.753253 0.393881
0.302416 0.3926419 -8.065626 0.3720996 -0.2402342 -0.8965653 0.626627 0.413779
-0.302416 0.3926419 -8.065626 -0.3720997 -0.2402342 -0.8965653 0.373373 0.413779
-0.604832 0.4832518 -7.727466 -1 1.371853e-07 1.169058e-06 0.246747 0.393881
-0.302416 0.5738618 -7.389308 -0.372099 0.2402339 0.8965657 0.373373 0.373984
0.302416 -0.5738583 -7.389308 0.3720991 -0.2402337 0.8965657 0.626627 0.626015
0.604832 -0.4832502 -7.727466 1 -1.655172e-07 1.391736e-06 0.753253 0.606119
0.302416 -0.3926402 -8.065626 0.3720997 0.2402345 -0.8965653 0.626627 0.586221
-0.302416 -0.3926402 -8.065626 -0.3720998 0.2402345 -0.8965653 0.373373 0.586221
-0.604832 -0.4832502 -7.727466 -1 -1.640261e-07 1.403665e-06 0.246747 0.606119
-0.302416 -0.5738583 -7.389308 -0.3720991 -0.2402337 0.8965657 0.373373 0.626015
0.302416 -1.567814 -7.963168 0.3720983 -0.6563319 0.6563318 0.626627 0.844281
0.604832 -1.320264 -8.210716 1 -7.515371e-07 7.833481e-07 0.753253 0.789921
0.302416 -1.072714 -8.458265 0.3720977 0.6563318 -0.6563321 0.626627 0.735561
-0.302416 -1.072714 -8.458265 -0.3720978 0.6563318 -0.656332 0.373373 0.735561
-0.604832 -1.320264 -8.210716 -1 -7.475606e-07 7.913009e-07 0.246747 0.789921
-0.302416 -1.567814 -7.963168 -0.3720983 -0.6563319 0.6563318 0.373373 0.844281
0.302416 -2.141672 -8.957121 0.3720969 -0.8965665 0.2402343 0.626627 0.970296
0.604832 -1.803514 -9.047731 1 -1.630318e-07 2.982289e-08 0.753253 0.896039
0.302416 -1.465354 -9.13834 0.3720974 0.8965663 -0.2402339 0.626627 0.821782
-0.302416 -1.465354 -9.13834 -0.3720974 0.8965664 -0.2402339 0.373373 0.821782
-0.604832 -1.803514 -9.047731 -1 -1.709846e-07 2.783469e-08 0.246747 0.896039
-0.302416 -2.141674 -8.957121 -0.372097 -0.8965664 0.2402343 0.373373 0.970297
0.302416 -2.141672 -10.10484 0.3720972 -0.8965665 -0.240234 0.626627 0.970296
0.604832 -1.803514 -10.01423 1 -2.624415e-07 -5.318419e-08 0.753253 0.896039
0.302416 -1.465354 -9.923622 0.372097 0.8965665 0.2402343 0.626627 0.821782
-0.302416 -1.465354 -9.923622 -0.372097 0.8965665 0.2402342 0.373373 0.821782
-0.604832 -1.803514 -10.01423 -1 -2.624415e-07 -5.716057e-08 0.246747 0.896039
-0.302416 -2.141672 -10.10484 -0.3720972 -0.8965665 -0.2402341 0.373373 0.970296
0.302416 -1.567814 -11.09879 0.3720986 -0.6563318 -0.6563317 0.626627 0.844281
0.604832 -1.320264 -10.85125 1 5.725996e-07 5.904936e-07 0.753253 0.789921
0.302416 -1.072714 -10.60369 0.372099 0.6563323 0.6563309 0.626627 0.735561
-0.302416 -1.072714 -10.60369 -0.372099 0.6563323 0.6563309 0.373373 0.735561
-0.604832 -1.320264 -10.85125 -1 5.725996e-07 5.924817e-07 0.246747 0.789921
-0.302416 -1.567814 -11.09879 -0.3720986 -0.6563319 -0.6563316 0.373373 0.844281
0.302416 -0.5738579 -11.67266 0.3720993 -0.2402338 -0.8965656 0.626627 0.626015
0.604832 -0.4832499 -11.3345 1 5.24883e-07 9.742149e-07 0.753253 0.606119
0.302416 -0.3926399 -10.99634 0.372099 0.2402352 0.8965653 0.626627 0.586221
-0.302416 -0.3926399 -10.99634 -0.3720991 0.2402352 0.8965653 0.373373 0.586221
-0.604832 -0.4832499 -11.3345 -1 5.248831e-07 9.702386e-07 0.246747 0.606119
-0.302416 -0.5738579 -11.67266 -0.3720992 -0.2402338 -0.8965656 0.373373 0.626015
0.604832 1.61796 -8.596853 1 3.476268e-16 -3.976387e-09 0.753253 0.144707
0.302416 1.921328 -10.64026 0.3722912 0.8037726 -0.4640571 0.626627 0.078090
0.302416 -1.109278 -11.45231 0.3722926 -0.4640574 -0.8037718 0.626627 0.743590
0.302416 -1.31459 -10.28996 0.3722911 0.803772 0.4640582 0.626627 0.788675
0.529228 -1.606254 -9.100586 0.7800186 0.6044342 -0.1619577 0.721597 0.852722
-0.529228 -1.17586 -8.355122 -0.7800176 0.4424777 -0.4424774 0.278403 0.758211
0.529228 -0.5361043 -7.530208 0.7800174 -0.1619573 0.604436 0.721597 0.617725
-0.302416 -1.109278 -11.45231 -0.3722926 -0.4640574 -0.8037718 0.373373 0.743590
-0.529228 -1.464668 -10.99565 -0.7800182 -0.4424769 -0.442477 0.278403 0.821631
-0.302416 -1.31459 -8.772001 -0.3722897 0.8037733 -0.464057 0.373373 0.788675
0 -0.3775382 -8.121986 -3.824465e-09 0.2588185 -0.965926 0.500000 0.582905
0.302416 1.314592 -10.28996 0.3722909 -0.8037723 0.4640577 0.626627 0.211325
0 0.3775399 -8.121986 0 -0.2588186 -0.9659259 0.500000 0.417095
-0.529228 -0.4303942 -7.924726 -0.7800194 0.1619584 -0.604433 0.278403 0.594512
0.302416 1.712157e-06 -7.312426 0.3722928 -8.113843e-08 0.9281154 0.626627 0.500000
0.604832 -1.617958 -8.596853 1 6.362219e-08 -4.374024e-08 0.753253 0.855293
0.302416 1.51796 -9.530981 0.37229 -0.9281165 -8.113852e-08 0.626627 0.166667
0 -1.609072 -7.92191 0 -0.7071069 0.7071068 0.500000 0.853341
0.302416 1.773405e-06 -8.013021 0.3722928 -2.093562e-07 -0.9281154 0.626627 0.500000
-0.529228 0.5361078 -7.530208 -0.7800176 0.1619575 0.6044356 0.278403 0.382275
-0.302416 1.10928 -11.45231 -0.3722926 0.4640574 -0.8037717 0.373373 0.256410
0.529228 -1.606254 -9.961376 0.7800188 0.6044341 0.1619573 0.721597 0.852722
0.604832 -0.9341282 -7.913022 1 -7.992536e-07 1.415593e-06 0.753253 0.705128
0 1.408998 -9.153444 0 -0.9659261 -0.2588182 0.500000 0.190594
-0.604832 1.868258 -9.530981 -1 -1.511027e-06 -1.320982e-13 0.246747 0.089744
0.529228 -1.464668 -10.99565 0.7800182 -0.4424769 -0.442477 0.721597 0.821631
0.529228 -1.17586 -8.355122 0.7800176 0.4424777 -0.4424774 0.721597 0.758211
-0.529228 2.000776 -8.994875 -0.7800171 0.604436 0.1619585 0.278403 0.060644
0 -1.031456 -10.56244 -3.824463e-09 0.7071071 0.7071065 0.500000 0.726501
-0.529228 2.000776 -10.06709 -0.7800169 0.6044363 -0.161958 0.278403 0.060644
0.529228 1.606256 -9.961376 0.780019 -0.6044338 0.1619572 0.721597 0.147278
-0.604832 1.620881e-07 -11.39924 -1 -1.988195e-09 1.590556e-08 0.246747 0.500000
-0.529228 -1.606254 -9.961376 -0.7800188 0.6044341 0.1619572 0.278403 0.852722
-0.604832 0.9341298 -7.913022 -1 8.111827e-07 1.447405e-06 0.246747 0.294872
0.604832 0.9341298 -7.913022 1 8.111827e-07 1.447405e-06 0.753253 0.294872
0.529228 1.175862 -10.70684 0.7800195 -0.4424756 0.442476 0.721597 0.241789
-0.529228 0.5361062 -11.53176 -0.7800182 0.1619579 -0.6044347 0.278403 0.382275
0.302416 1.10928 -11.45231 0.3722926 0.4640573 -0.8037718 0.626627 0.256410
-0.604832 -1.617958 -10.46511 -1 1.367877e-06 8.509469e-07 0.246747 0.855293
0.302416 2.218558 -9.530981 0.37229 0.9281165 8.304967e-08 0.626627 0.012820
0.529228 1.46467 -10.99565 0.7800182 0.4424768 -0.442477 0.721597 0.178369
-0.529228 -0.4303939 -11.13724 -0.7800176 0.1619596 0.6044351 0.278403 0.594512
0.529228 0.5361062 -11.53176 0.7800182 0.1619579 -0.6044347 0.721597 0.382275
-0.302416 -1.517958 -9.530981 -0.3722899 0.9281165 7.922738e-08 0.373373 0.833333
-0.302416 2.218558 -9.530981 -0.37229 0.9281165 8.496082e-08 0.373373 0.012820
-0.529228 1.175862 -10.70684 -0.7800195 -0.4424756 0.442476 0.278403 0.241789
-0.302416 -0.7589782 -8.21639 -0.3722902 0.4640566 -0.8037733 0.373373 0.666667
-0.302416 1.927124e-07 -11.74954 -0.3722928 -1.252656e-07 -0.9281154 0.373373 0.500000
-0.302416 -0.7589799 -10.84557 -0.3722903 0.4640601 0.8037713 0.373373 0.666667
0 2.198034 -10.11994 0 0.965926 -0.2588184 0.500000 0.017327
0.302416 1.314639e-07 -11.04894 0.3722928 2.284677e-07 0.9281154 0.626627 0.500000
0 0.5889618 -7.332948 -3.824464e-09 0.2588188 0.9659259 0.500000 0.370668
0.302416 0.7589818 -8.21639 0.3722903 -0.4640569 -0.803773 0.626627 0.333333
-0.302416 0.7589821 -10.84557 -0.3722903 -0.4640602 0.8037711 0.373373 0.333333
0.604832 -1.617958 -10.46511 1 1.367877e-06 8.509469e-07 0.753253 0.855293
0.529228 -1.464668 -8.066314 0.7800181 -0.4424773 0.4424767 0.721597 0.821631
0.529228 1.46467 -8.066314 0.7800188 0.4424767 0.4424761 0.721597 0.178369
-0.604832 1.61796 -10.46511 -1 -1.304255e-06 8.072063e-07 0.246747 0.144707
0.529228 -0.4303939 -11.13724 0.7800176 0.1619596 0.604435 0.721597 0.594512
-0.302416 -2.218556 -9.530981 -0.37229 -0.9281165 -1.793529e-06 0.373373 0.987180
-0.529228 -2.000774 -8.994875 -0.7800191 -0.6044335 0.1619579 0.278403 0.939356
0.529228 -2.000774 -10.06709 0.7800168 -0.6044364 -0.1619584 0.721597 0.939356
-0.302416 1.921328 -8.421703 -0.3722912 0.8037724 0.4640573 0.373373 0.078090
0.529228 -2.000774 -8.994875 0.780017 -0.604436 0.1619584 0.721597 0.939356
0.302416 1.314592 -8.772001 0.3722895 -0.8037734 -0.4640569 0.626627 0.211325
-0.604832 -1.617958 -8.596853 -1 6.36222e-08 -4.374024e-08 0.246747 0.855293
0.604832 1.61796 -10.46511 1 -1.304255e-06 8.072063e-07 0.753253 0.144707
0.604832 -0.9341279 -11.14894 1 6.401981e-07 1.137246e-06 0.753253 0.705128
0 -1.609072 -11.14005 0 -0.7071071 -0.7071065 0.500000 0.853341
0.529228 -0.4303942 -7.924726 0.7800194 0.1619584 -0.604433 0.721597 0.594512
0.302416 1.927124e-07 -11.74954 0.3722928 -1.233545e-07 -0.9281154 0.626627 0.500000
0.604832 1.742781e-06 -7.662724 1 -1.988195e-09 7.952777e-09 0.753253 0.500000
0.302416 -2.218556 -9.530981 0.37229 -0.9281165 -8.113852e-08 0.626627 0.987180
-0.529228 1.175862 -8.355122 -0.7800169 -0.4424782 -0.442478 0.278403 0.241789
-0.302416 -1.31459 -10.28996 -0.3722911 0.803772 0.4640582 0.373373 0.788675
0 -1.408996 -9.153444 -3.824462e-09 0.9659261 -0.258818 0.500000 0.809406
0 -0.5889598 -11.72902 3.824464e-09 -0.2588191 -0.9659258 0.500000 0.629332
-0.529228 -0.5361043 -7.530208 -0.7800173 -0.1619573 0.604436 0.278403 0.617725
-0.529228 1.606256 -9.100588 -0.7800186 -0.6044344 -0.1619576 0.278403 0.147278
-0.302416 1.51796 -9.530981 -0.37229 -0.9281165 -8.113852e-08 0.373373 0.166667
-0.529228 -1.17586 -10.70684 -0.7800196 0.4424755 0.442476 0.278403 0.758211
-0.302416 -1.921326 -8.421703 -0.3722912 -0.8037718 0.4640585 0.373373 0.921910
0.302416 1.921328 -8.421703 0.3722912 0.8037724 0.4640573 0.626627 0.078090
0.302416 -1.31459 -8.772001 0.3722897 0.8037733 -0.464057 0.626627 0.788675
-0.302416 1.314592 -10.28996 -0.3722909 -0.8037723 0.4640577 0.373373 0.211325
0 -0.5889602 -7.332948 -3.824466e-09 -0.2588194 0.9659258 0.500000 0.629332
0 -1.408996 -9.908522 0 0.9659258 0.2588194 0.500000 0.809406
-0.302416 1.773405e-06 -8.013021 -0.3722928 -2.093562e-07 -0.9281154 0.373373 0.500000
0 1.609074 -11.14005 -3.824462e-09 0.7071072 -0.7071064 0.500000 0.146659
0 -1.031456 -8.499525 0 0.7071065 -0.7071071 0.500000 0.726501
0.529228 0.4303958 -7.924726 0.7800193 -0.1619585 -0.6044331 0.721597 0.405488
-0.529228 -1.464668 -8.066314 -0.7800182 -0.4424773 0.4424766 0.278403 0.821631
0 1.031458 -8.499525 0 -0.7071064 -0.7071072 0.500000 0.273499
-0.604832 1.61796 -8.596853 -1 3.476268e-16 -3.976387e-09 0.246747 0.144707
-0.529228 -0.5361058 -11.53176 -0.780018 -0.1619582 -0.6044348 0.278403 0.617725
-0.529228 0.4303958 -7.924726 -0.7800193 -0.1619584 -0.6044331 0.278403 0.405488
0.529228 1.606256 -9.100586 0.7800187 -0.6044341 -0.1619579 0.721597 0.147278
0.529228 -1.17586 -10.70684 0.7800195 0.4424755 0.442476 0.721597 0.758211
0.302416 -1.109278 -7.609656 0.3722903 -0.4640578 0.8037726 0.626627 0.743590
0.302416 1.10928 -7.609656 0.3722918 0.4640578 0.8037719 0.626627 0.256410
-0.529228 1.606256 -9.961376 -0.780019 -0.6044338 0.1619572 0.278403 0.147278
0.302416 -1.921326 -8.421703 0.3722912 -0.8037726 0.4640571 0.626627 0.921910
-0.302416 -1.109278 -7.609656 -0.3722903 -0.4640578 0.8037726 0.373373 0.743590
0 1.031458 -10.56244 3.824463e-09 -0.7071072 0.7071064 0.500000 0.273499
-0.302416 0.7589818 -8.21639 -0.3722903 -0.4640569 -0.803773 0.373373 0.333333
0 2.198034 -8.94202 -3.824464e-09 0.9659259 0.2588188 0.500000 0.017327
-0.529228 0.4303961 -11.13724 -0.7800176 -0.1619597 0.604435 0.278403 0.405488
-0.604832 -1.868258 -9.530981 -1 -1.51898e-06 -1.988326e-09 0.246747 0.910257
0.604832 0.9341301 -11.14894 1 -6.441746e-07 1.137246e-06 0.753253 0.294872
0.604832 1.868258 -9.530981 1 -1.511027e-06 -1.320982e-13 0.753253 0.089744
0 0.5889621 -11.72902 0 0.2588191 -0.9659259 0.500000 0.370668
-0.604832 0.9341301 -11.14894 -1 -6.441747e-07 1.137246e-06 0.246747 0.294872
0 -2.198032 -10.11994 -3.824466e-09 -0.9659259 -0.2588188 0.500000 0.982673
-0.302416 1.712157e-06 -7.312426 -0.3722928 -8.113843e-08 0.9281154 0.373373 0.500000
-0.604832 1.742781e-06 -7.662724 -1 -1.988195e-09 7.952777e-09 0.246747 0.500000
0.529228 2.000776 -10.06709 0.7800169 0.6044363 -0.1619581 0.721597 0.060644
0.529228 0.4303961 -11.13724 0.7800176 -0.1619596 0.604435 0.721597 0.405488
0 -0.3775379 -10.93998 0 0.2588197 0.9659256 0.500000 0.582905
0 1.408998 -9.908522 0 -0.9659258 0.2588192 0.500000 0.190594
-0.302416 1.314639e-07 -11.04894 -0.3722928 2.284677e-07 0.9281154 0.373373 0.500000
-0.302416 1.921328 -10.64026 -0.3722912 0.8037726 -0.4640571 0.373373 0.078090
0 1.609074 -7.92191 0 0.7071074 0.7071062 0.500000 0.146659
0.302416 -1.517958 -9.530981 0.37229 0.9281165 8.113852e-08 0.626627 0.833333
-0.302416 1.10928 -7.609656 -0.3722918 0.4640578 0.8037719 0.373373 0.256410
-0.529228 1.46467 -8.066314 -0.7800189 0.4424766 0.4424761 0.278403 0.178369
0.604832 1.620881e-07 -11.39924 1 -1.988195e-09 1.590556e-08 0.753253 0.500000
0.302416 -0.7589782 -8.21639 0.3722902 0.4640566 -0.8037733 0.626627 0.666667
0.529228 0.5361078 -7.530208 0.7800176 0.1619575 0.6044356 0.721597 0.382275
0.529228 2.000776 -8.994875 0.7800172 0.6044359 0.1619585 0.721597 0.060644
-0.529228 -2.000774 -10.06709 -0.7800168 -0.6044363 -0.1619584 0.278403 0.939356
0.529228 1.175862 -8.355122 0.7800169 -0.4424783 -0.4424779 0.721597 0.241789
-0.529228 1.46467 -10.99565 -0.7800182 0.4424768 -0.442477 0.278403 0.178369
0.302416 0.7589821 -10.84557 0.3722903 -0.4640602 0.8037711 0.626627 0.333333
0.529228 -0.5361058 -11.53176 0.780018 -0.1619582 -0.6044348 0.721597 0.617725
-0.604832 -0.9341279 -11.14894 -1 6.401981e-07 1.137246e-06 0.246747 0.705128
-0.302416 -1.921326 -10.64026 -0.3722912 -0.8037723 -0.4640574 0.373373 0.921910
-0.529228 -1.606254 -9.100586 -0.7800186 0.6044342 -0.1619577 0.278403 0.852722
-0.604832 -0.9341282 -7.913022 -1 -7.992536e-07 1.415593e-06 0.246747 0.705128
-0.302416 1.314592 -8.772001 -0.3722895 -0.8037734 -0.4640569 0.373373 0.211325
0.604832 -1.868258 -9.530981 1 -1.51898e-06 -1.988326e-09 0.753253 0.910257
0.302416 -0.7589799 -10.84557 0.3722903 0.4640602 0.8037712 0.626627 0.666667
0.302416 -1.921326 -10.64026 0.3722912 -0.8037723 -0.4640574 0.626627 0.921910
0 -2.198032 -8.94202 3.296686e-06 -0.9659259 0.2588188 0.500000 0.982673
0 0.3775401 -10.93998 3.824465e-09 -0.2588197 0.9659257 0.500000 0.417095
0 1.978161e-07 -11.80792 0 -1.345296e-07 -1 0.500000 0.500000
0.529228 1.799522e-07 -11.60358 0.7802016 -2.119905e-08 -0.6255282 0.721597 0.500000
0.529228 1.442241e-07 -11.1949 0.7802013 1.374895e-07 0.6255285 0.721597 0.500000
0 1.263602e-07 -10.99056 -3.826765e-09 2.435924e-07 1 0.500000 0.500000
-0.529228 1.442241e-07 -11.1949 -0.7802013 1.379822e-07 0.6255285 0.278403 0.500000
-0.529228 1.799522e-07 -11.60358 -0.7802017 -1.922802e-08 -0.6255281 0.278403 0.500000
0 1.13847 -11.50287 -1.913382e-09 0.4999999 -0.8660256 0.500000 0.250000
0.529228 1.0363 -11.3259 0.7802025 0.3127633 -0.5417225 0.721597 0.272436
0.529228 0.8319601 -10.97198 0.780201 -0.3127651 0.5417237 0.721597 0.317308
0 0.72979 -10.79501 0 -0.5000016 0.8660245 0.500000 0.339743
-0.529228 0.8319601 -10.97198 -0.7802009 -0.312765 0.5417237 0.278403 0.317308
-0.529228 1.0363 -11.3259 -0.7802025 0.3127633 -0.5417225 0.278403 0.272436
0 1.971888 -10.66945 0 0.8660257 -0.4999995 0.500000 0.066987
0.529228 1.794924 -10.56728 0.780202 0.541723 -0.3127637 0.721597 0.105847
0.529228 1.440996 -10.36294 0.7802023 -0.5417228 0.3127632 0.721597 0.183567
0 1.264032 -10.26077 -1.91338e-09 -0.8660251 0.5000005 0.500000 0.222428
-0.529228 1.440996 -10.36294 -0.7802023 -0.5417228 0.3127632 0.278403 0.183567
-0.529228 1.794924 -10.56728 -0.780202 0.541723 -0.3127637 0.278403 0.105847
0 2.27694 -9.530981 1.913381e-09 1 1.983989e-07 0.500000 0.000000
0.529228 2.0726 -9.530981 0.7802015 0.6255283 7.193191e-08 0.721597 0.044872
0.529228 1.663918 -9.530981 0.780202 -0.6255278 -8.819279e-08 0.721597 0.134615
0 1.459578 -9.530981 1.913379e-09 -1 -4.165241e-07 0.500000 0.179487
-0.529228 1.663918 -9.530981 -0.7802019 -0.6255278 -1.724541e-07 0.278403 0.134615
-0.529228 2.0726 -9.530981 -0.7802015 0.6255283 7.341017e-08 0.278403 0.044872
0 1.971888 -8.392511 1.913381e-09 0.8660257 0.4999995 0.500000 0.066987
0.529228 1.794924 -8.494682 0.780202 0.5417229 0.312764 0.721597 0.105847
0.529228 1.440996 -8.699024 0.7802014 -0.5417238 -0.3127639 0.721597 0.183567
0 1.264032 -8.801193 -3.826762e-09 -0.8660259 -0.4999992 0.500000 0.222428
-0.529228 1.440996 -8.699024 -0.7802013 -0.541724 -0.3127637 0.278403 0.183567
-0.529228 1.794924 -8.494682 -0.7802019 0.541723 0.312764 0.278403 0.105847
0 1.138472 -7.559094 -3.826764e-09 0.5000001 0.8660254 0.500000 0.250000
0.529228 1.0363 -7.736058 0.7802013 0.3127643 0.5417235 0.721597 0.272436
0.529228 0.8319598 -8.089988 0.7802011 -0.3127646 -0.5417237 0.721597 0.317308
0 0.7297898 -8.266952 0 -0.4999988 -0.8660261 0.500000 0.339743
-0.529228 0.8319598 -8.089988 -0.7802011 -0.3127646 -0.5417237 0.278403 0.317308
-0.529228 1.0363 -7.736058 -0.7802013 0.3127643 0.5417235 0.278403 0.272436
0 1.707052e-06 -7.254042 3.826764e-09 3.312033e-08 1 0.500000 0.500000
0.529228 1.724917e-06 -7.458384 0.7802011 -4.384484e-08 0.6255288 0.721597 0.500000
0.529228 1.760645e-06 -7.867064 0.7802022 -1.266489e-07 -0.6255274 0.721597 0.500000
0 1.778509e-06 -8.071405 0 -2.340255e-07 -1 0.500000 0.500000
-0.529228 1.760645e-06 -7.867064 -0.7802022 -1.291126e-07 -0.6255274 0.278403 0.500000
-0.529228 1.724917e-06 -7.458384 -0.7802011 -4.483034e-08 0.6255288 0.278403 0.500000
0 -1.138468 -7.559094 0 -0.4999998 0.8660256 0.500000 0.750000
0.529228 -1.036298 -7.736058 0.7802011 -0.3127642 0.541724 0.721597 0.727564
0.529228 -0.8319582 -8.089988 0.7802018 0.312764 -0.5417231 0.721597 0.682692
0 -0.7297882 -8.266952 -1.913381e-09 0.4999987 -0.8660262 0.500000 0.660257
-0.529228 -0.8319582 -8.089988 -0.7802018 0.312764 -0.5417231 0.278403 0.682692
-0.529228 -1.036298 -7.736058 -0.7802011 -0.3127642 0.541724 0.278403 0.727564
0 -1.971886 -8.392511 7.940529e-07 -0.8660257 0.4999996 0.500000 0.933013
0.529228 -1.794922 -8.494682 0.7802019 -0.5417231 0.3127639 0.721597 0.894153
0.529228 -1.440994 -8.699024 0.7802015 0.5417237 -0.3127636 0.721597 0.816432
0 -1.26403 -8.801193 -1.913381e-09 0.866026 -0.4999991 0.500000 0.777572
-0.529228 -1.440994 -8.699024 -0.7802015 0.5417237 -0.3127636 0.278403 0.816432
-0.529228 -1.794922 -8.494682 -0.7802023 -0.5417225 0.3127639 0.278403 0.894153
0 -2.276938 -9.530981 8.418875e-07 -1 -4.107841e-07 0.500000 1.000000
0.529228 -2.072598 -9.530981 0.7802009 -0.6255291 -3.842453e-08 0.721597 0.955128
0.529228 -1.663916 -9.530981 0.7802024 0.6255272 2.413444e-08 0.721597 0.865385
0 -1.459576 -9.530981 3.826759e-09 1 -2.34025e-07 0.500000 0.820513
-0.529228 -1.663916 -9.530981 -0.7802023 0.6255273 2.462721e-08 0.278403 0.865385
-0.529228 -2.072598 -9.530981 -0.7802014 -0.6255285 -5.119632e-07 0.278403 0.955128
0 -1.971886 -10.66945 0 -0.8660256 -0.4999998 0.500000 0.933013
0.529228 -1.794922 -10.56728 0.780202 -0.5417229 -0.3127639 0.721597 0.894153
0.529228 -1.440994 -10.36294 0.7802023 0.5417228 0.3127634 0.721597 0.816432
0 -1.26403 -10.26077 -1.91338e-09 0.8660249 0.5000008 0.500000 0.777572
-0.529228 -1.440994 -10.36294 -0.7802023 0.5417228 0.3127634 0.278403 0.816432
-0.529228 -1.794922 -10.56728 -0.780202 -0.5417229 -0.3127639 0.278403 0.894153
0 -1.138468 -11.50287 0 -0.4999997 -0.8660256 0.500000 0.750000
0.529228 -1.036298 -11.3259 0.7802024 -0.3127635 -0.5417225 0.721597 0.727564
0.529228 -0.8319579 -10.97198 0.7802009 0.3127649 0.5417237 0.721597 0.682692
0 -0.7297878 -10.79501 0 0.5000015 0.8660246 0.500000 0.660257
-0.529228 -0.8319579 -10.97198 -0.7802009 0.3127649 0.5417237 0.278403 0.682692
-0.529228 -1.036298 -11.3259 -0.7802024 -0.3127635 -0.5417225 0.278403 0.727564
0 0.5307438 -7.800128 0.02485145 0.2782417 -0.9601896 0.500000 0.383453
0 0.5307429 1.43899 -0.08413079 0.9419446 0.3250577 0.500000 0.383453
0.265372 0.4596379 -7.800128 0.5438318 0.7736824 -0.3250575 0.611116 0.399067
0.265372 0.4596369 1.43899 0.1175986 0.25339 0.9601896 0.611116 0.399067
0.459638 0.2653718 -7.800128 0.7474844 0.3469083 -0.5664995 0.692458 0.441726
0.459638 0.2653709 1.43899 0.7736825 0.5438317 0.3250577 0.692458 0.441726
0.530744 -2.121608e-07 -7.800128 0.8207946 -0.07331122 -0.5664995 0.722232 0.500000
0.530744 -1.079475e-06 1.43899 0.8207948 0.0733097 0.5664995 0.722232 0.500000
0.459638 -0.2653702 -7.800128 0.6741737 -0.4738863 -0.5664995 0.692458 0.558274
0.459638 -0.2653711 1.43899 0.747484 -0.3469094 0.5664994 0.692458 0.558274
0.265372 -0.4596362 -7.800128 0.3469083 -0.7474844 -0.5664996 0.611116 0.600933
0.265372 -0.4596371 1.43899 0.4738859 -0.6741741 0.5664994 0.611116 0.600933
0 -0.5307422 -7.800128 -0.07331023 -0.8207948 -0.5664995 0.500000 0.616547
0 -0.5307431 1.43899 0.07331023 -0.8207949 0.5664994 0.500000 0.616548
-0.265372 -0.4596362 -7.800128 -0.4738881 -0.6741722 -0.5664998 0.388884 0.600933
-0.265372 -0.4596371 1.43899 -0.3469095 -0.7474837 0.5664997 0.388884 0.600933
-0.459636 -0.2653702 -7.800128 -0.7474833 -0.3469117 -0.5664989 0.307543 0.558274
-0.459636 -0.2653711 1.43899 -0.6741746 -0.4738857 0.5664988 0.307543 0.558274
-0.530744 -2.121608e-07 -7.800128 -0.8207947 0.0733079 -0.5664998 0.277768 0.500000
-0.530744 -1.079475e-06 1.43899 -0.820794 -0.0733152 0.5664999 0.277768 0.500000
-0.459638 0.2653718 -7.800128 -0.674174 0.4738859 -0.5664994 0.307542 0.441726
-0.459638 0.2653709 1.43899 -0.7474844 0.3469083 0.5664996 0.307542 0.441726
-0.265372 0.4596379 -7.800128 -0.3981121 0.8578137 -0.3250575 0.388884 0.399067
-0.265372 0.4596369 1.43899 -0.4738859 0.6741739 0.5664996 0.388884 0.399067
-0.227568 -0.3941591 1.085226 -0.2053525 -0.5307592 -0.8222683 0.404713 0.586555
-0.001108 -0.03073015 11.80792 -0.5781924 -0.6492783 0.4940964 0.499536 0.506748
-0.227568 0.394159 1.085226 -0.5253977 0.5611464 -0.6395875 0.404713 0.413445
-0.001108 0.03072785 11.80792 -0.2368151 0.665143 0.7081692 0.499536 0.493252
0.227568 -0.3941591 1.085226 0.5253972 -0.5611466 -0.6395876 0.595287 0.586555
0.001108 -0.03073015 11.80792 0.2368104 -0.6651464 0.7081674 0.500464 0.506748
0.227568 0.394159 1.085226 0.2053529 0.5307593 -0.8222681 0.595287 0.413445
0.001108 0.03072785 11.80792 0.578198 0.649272 0.4940982 0.500464 0.493252
-0.072136 -2.000001 3.56316 -0.5136683 -0.8527783 -0.09441491 0.469795 0.939186
-0.072136 1.999999 3.56316 -0.523958 0.8334692 -0.175491 0.469795 0.060814
0.072136 1.999999 3.56316 0.5136686 0.8527781 -0.09441447 0.530205 0.060814
0.072136 -2.000001 3.56316 0.5239543 -0.8334718 -0.17549 0.530205 0.939186
-0.018348 -2.105165e-06 11.80792 -0.6063451 0.1133811 0.7870771 0.492317 0.500000
-0.455136 -1.048548e-06 1.085226 -0.5533173 -0.1037223 -0.8264876 0.309427 0.500000
0.018348 -2.105165e-06 11.80792 0.6063434 -0.1133917 0.7870769 0.507683 0.500000
0.455136 -1.048548e-06 1.085226 0.5533175 0.1037218 -0.8264875 0.690573 0.500000
1.194124 -1.32478e-06 3.56316 0.9971833 0.0003278544 -0.07500328 1.000000 0.500000
-1.194124 -1.32478e-06 3.56316 -0.9971832 -0.0003326747 -0.07500376 0.000000 0.500000
3 0 142 216 
3 0 216 182 
3 0 182 222 
3 0 222 109 
3 0 109 223 
3 0 223 114 
3 0 114 217 
3 0 217 142 
3 1 197 217 
3 1 217 114 
3 1 114 223 
3 1 223 180 
3 1 180 224 
3 1 224 188 
3 1 188 218 
3 1 218 197 
3 2 122 218 
3 2 218 188 
3 2 188 224 
3 2 224 204 
3 2 204 225 
3 2 225 215 
3 2 215 219 
3 2 219 122 
3 3 191 219 
3 3 219 215 
3 3 215 225 
3 3 225 125 
3 3 125 226 
3 3 226 178 
3 3 178 220 
3 3 220 191 
3 4 103 220 
3 4 220 178 
3 4 178 226 
3 4 226 183 
3 4 183 227 
3 4 227 108 
3 4 108 221 
3 4 221 103 
3 5 182 216 
3 5 216 119 
3 5 119 221 
3 5 221 108 
3 5 108 227 
3 5 227 92 
3 5 92 222 
3 5 222 182 
3 6 109 222 
3 6 222 160 
3 6 160 228 
3 6 228 73 
3 6 73 229 
3 6 229 112 
3 6 112 223 
3 6 223 109 
3 7 180 223 
3 7 223 112 
3 7 112 229 
3 7 229 138 
3 7 138 230 
3 7 230 107 
3 7 107 224 
3 7 224 180 
3 8 204 224 
3 8 224 107 
3 8 107 230 
3 8 230 83 
3 8 83 231 
3 8 231 175 
3 8 175 225 
3 8 225 204 
3 9 125 225 
3 9 225 175 
3 9 175 231 
3 9 231 156 
3 9 156 232 
3 9 232 117 
3 9 117 226 
3 9 226 125 
3 10 183 226 
3 10 226 117 
3 10 117 232 
3 10 232 129 
3 10 129 233 
3 10 233 203 
3 10 203 227 
3 10 227 183 
3 11 92 227 
3 11 227 203 
3 11 203 233 
3 11 233 192 
3 11 192 228 
3 11 228 160 
3 11 160 222 
3 11 222 92 
3 12 73 228 
3 12 228 121 
3 12 121 234 
3 12 234 111 
3 12 111 235 
3 12 235 187 
3 12 187 229 
3 12 229 73 
3 13 138 229 
3 13 229 187 
3 13 187 235 
3 13 235 181 
3 13 181 236 
3 13 236 102 
3 13 102 230 
3 13 230 138 
3 14 83 230 
3 14 230 102 
3 14 102 236 
3 14 236 88 
3 14 88 237 
3 14 237 190 
3 14 190 231 
3 14 231 83 
3 15 156 231 
3 15 231 190 
3 15 190 237 
3 15 237 151 
3 15 151 238 
3 15 238 172 
3 15 172 232 
3 15 232 156 
3 16 129 232 
3 16 232 172 
3 16 172 238 
3 16 238 96 
3 16 96 239 
3 16 239 101 
3 16 101 233 
3 16 233 129 
3 17 192 233 
3 17 233 101 
3 17 101 239 
3 17 239 116 
3 17 116 234 
3 17 234 121 
3 17 121 228 
3 17 228 192 
3 18 111 234 
3 18 234 177 
3 18 177 240 
3 18 240 154 
3 18 154 241 
3 18 241 200 
3 18 200 235 
3 18 235 111 
3 19 181 235 
3 19 235 200 
3 19 200 241 
3 19 241 72 
3 19 72 242 
3 19 242 168 
3 19 168 236 
3 19 236 181 
3 20 88 236 
3 20 236 168 
3 20 168 242 
3 20 242 136 
3 20 136 243 
3 20 243 95 
3 20 95 237 
3 20 237 88 
3 21 151 237 
3 21 237 95 
3 21 95 243 
3 21 243 210 
3 21 210 244 
3 21 244 150 
3 21 150 238 
3 21 238 151 
3 22 96 238 
3 22 238 150 
3 22 150 244 
3 22 244 165 
3 22 165 245 
3 22 245 99 
3 22 99 239 
3 22 239 96 
3 23 116 239 
3 23 239 99 
3 23 99 245 
3 23 245 134 
3 23 134 240 
3 23 240 177 
3 23 177 234 
3 23 234 116 
3 24 154 240 
3 24 240 193 
3 24 193 246 
3 24 246 171 
3 24 171 247 
3 24 247 128 
3 24 128 241 
3 24 241 154 
3 25 72 241 
3 25 241 128 
3 25 128 247 
3 25 247 106 
3 25 106 248 
3 25 248 202 
3 25 202 242 
3 25 242 72 
3 26 136 242 
3 26 242 202 
3 26 202 248 
3 26 248 124 
3 26 124 249 
3 26 249 164 
3 26 164 243 
3 26 243 136 
3 27 210 243 
3 27 243 164 
3 27 164 249 
3 27 249 176 
3 27 176 250 
3 27 250 145 
3 27 145 244 
3 27 244 210 
3 28 165 244 
3 28 244 145 
3 28 145 250 
3 28 250 105 
3 28 105 251 
3 28 251 196 
3 28 196 245 
3 28 245 165 
3 29 134 245 
3 29 245 196 
3 29 196 251 
3 29 251 195 
3 29 195 246 
3 29 246 193 
3 29 193 240 
3 29 240 134 
3 30 171 246 
3 30 246 123 
3 30 123 252 
3 30 252 86 
3 30 86 253 
3 30 253 199 
3 30 199 247 
3 30 247 171 
3 31 106 247 
3 31 247 199 
3 31 199 253 
3 31 253 143 
3 31 143 254 
3 31 254 162 
3 31 162 248 
3 31 248 106 
3 32 124 248 
3 32 248 162 
3 32 162 254 
3 32 254 90 
3 32 90 255 
3 32 255 84 
3 32 84 249 
3 32 249 124 
3 33 176 249 
3 33 249 84 
3 33 84 255 
3 33 255 159 
3 33 159 256 
3 33 256 167 
3 33 167 250 
3 33 250 176 
3 34 105 250 
3 34 250 167 
3 34 167 256 
3 34 256 186 
3 34 186 257 
3 34 257 91 
3 34 91 251 
3 34 251 105 
3 35 195 251 
3 35 251 91 
3 35 91 257 
3 35 257 185 
3 35 185 252 
3 35 252 123 
3 35 123 246 
3 35 246 195 
3 36 86 252 
3 36 252 157 
3 36 157 258 
3 36 258 170 
3 36 170 259 
3 36 259 78 
3 36 78 253 
3 36 253 86 
3 37 143 253 
3 37 253 78 
3 37 78 259 
3 37 259 94 
3 37 94 260 
3 37 260 141 
3 37 141 254 
3 37 254 143 
3 38 90 254 
3 38 254 141 
3 38 141 260 
3 38 260 198 
3 38 198 261 
3 38 261 82 
3 38 82 255 
3 38 255 90 
3 39 159 255 
3 39 255 82 
3 39 82 261 
3 39 261 118 
3 39 118 262 
3 39 262 85 
3 39 85 256 
3 39 256 159 
3 40 186 256 
3 40 256 85 
3 40 85 262 
3 40 262 209 
3 40 209 263 
3 40 263 149 
3 40 149 257 
3 40 257 186 
3 41 185 257 
3 41 257 149 
3 41 149 263 
3 41 263 174 
3 41 174 258 
3 41 258 157 
3 41 157 252 
3 41 252 185 
3 42 170 258 
3 42 258 89 
3 42 89 264 
3 42 264 173 
3 42 173 265 
3 42 265 127 
3 42 127 259 
3 42 259 170 
3 43 94 259 
3 43 259 127 
3 43 127 265 
3 43 265 87 
3 43 87 266 
3 43 266 98 
3 43 98 260 
3 43 260 94 
3 44 198 260 
3 44 260 98 
3 44 98 266 
3 44 266 155 
3 44 155 267 
3 44 267 161 
3 44 161 261 
3 44 261 198 
3 45 118 261 
3 45 261 161 
3 45 161 267 
3 45 267 81 
3 45 81 268 
3 45 268 77 
3 45 77 262 
3 45 262 118 
3 46 209 262 
3 46 262 77 
3 46 77 268 
3 46 268 137 
3 46 137 269 
3 46 269 163 
3 46 163 263 
3 46 263 209 
3 47 174 263 
3 47 263 163 
3 47 163 269 
3 47 269 153 
3 47 153 264 
3 47 264 89 
3 47 89 258 
3 47 258 174 
3 48 173 264 
3 48 264 214 
3 48 214 270 
3 48 270 144 
3 48 144 271 
3 48 271 135 
3 48 135 265 
3 48 265 173 
3 49 87 265 
3 49 265 135 
3 49 135 271 
3 49 271 211 
3 49 211 272 
3 49 272 76 
3 49 76 266 
3 49 266 87 
3 50 155 266 
3 50 266 76 
3 50 76 272 
3 50 272 194 
3 50 194 273 
3 50 273 147 
3 50 147 267 
3 50 267 155 
3 51 81 267 
3 51 267 147 
3 51 147 273 
3 51 273 115 
3 51 115 274 
3 51 274 208 
3 51 208 268 
3 51 268 81 
3 52 137 268 
3 52 268 208 
3 52 208 274 
3 52 274 179 
3 52 179 275 
3 52 275 132 
3 52 132 269 
3 52 269 137 
3 53 153 269 
3 53 269 132 
3 53 132 275 
3 53 275 131 
3 53 131 270 
3 53 270 214 
3 53 214 264 
3 53 264 153 
3 54 144 270 
3 54 270 184 
3 54 184 276 
3 54 276 213 
3 54 213 277 
3 54 277 133 
3 54 133 271 
3 54 271 144 
3 55 211 271 
3 55 271 133 
3 55 133 277 
3 55 277 126 
3 55 126 278 
3 55 278 93 
3 55 93 272 
3 55 272 211 
3 56 194 272 
3 56 272 93 
3 56 93 278 
3 56 278 75 
3 56 75 279 
3 56 279 158 
3 56 158 273 
3 56 273 194 
3 57 115 273 
3 57 273 158 
3 57 158 279 
3 57 279 146 
3 57 146 280 
3 57 280 104 
3 57 104 274 
3 57 274 115 
3 58 179 274 
3 58 274 104 
3 58 104 280 
3 58 280 110 
3 58 110 281 
3 58 281 201 
3 58 201 275 
3 58 275 179 
3 59 131 275 
3 59 275 201 
3 59 201 281 
3 59 281 207 
3 59 207 276 
3 59 276 184 
3 59 184 270 
3 59 270 131 
3 60 213 276 
3 60 276 140 
3 60 140 282 
3 60 282 74 
3 60 74 283 
3 60 283 97 
3 60 97 277 
3 60 277 213 
3 61 126 277 
3 61 277 97 
3 61 97 283 
3 61 283 139 
3 61 139 284 
3 61 284 169 
3 61 169 278 
3 61 278 126 
3 62 75 278 
3 62 278 169 
3 62 169 284 
3 62 284 212 
3 62 212 285 
3 62 285 100 
3 62 100 279 
3 62 279 75 
3 63 146 279 
3 63 279 100 
3 63 100 285 
3 63 285 120 
3 63 120 286 
3 63 286 152 
3 63 152 280 
3 63 280 146 
3 64 110 280 
3 64 280 152 
3 64 152 286 
3 64 286 206 
3 64 206 287 
3 64 287 80 
3 64 80 281 
3 64 281 110 
3 65 207 281 
3 65 281 80 
3 65 80 287 
3 65 287 79 
3 65 79 282 
3 65 282 140 
3 65 140 276 
3 65 276 207 
3 66 74 282 
3 66 282 148 
3 66 148 216 
3 66 216 142 
3 66 142 217 
3 66 217 205 
3 66 205 283 
3 66 283 74 
3 67 139 283 
3 67 283 205 
3 67 205 217 
3 67 217 197 
3 67 197 218 
3 67 218 130 
3 67 130 284 
3 67 284 139 
3 68 212 284 
3 68 284 130 
3 68 130 218 
3 68 218 122 
3 68 122 219 
3 68 219 189 
3 68 189 285 
3 68 285 212 
3 69 120 285 
3 69 285 189 
3 69 189 219 
3 69 219 191 
3 69 191 220 
3 69 220 113 
3 69 113 286 
3 69 286 120 
3 70 206 286 
3 70 286 113 
3 70 113 220 
3 70 220 103 
3 70 103 221 
3 70 221 166 
3 70 166 287 
3 70 287 206 
3 71 79 287 
3 71 287 166 
3 71 166 221 
3 71 221 119 
3 71 119 216 
3 71 216 148 
3 71 148 282 
3 71 282 79 
3 288 289 291 
3 288 291 290 
3 290 291 293 
3 290 293 292 
3 292 293 295 
3 292 295 294 
3 294 295 297 
3 294 297 296 
3 296 297 299 
3 296 299 298 
3 298 299 301 
3 298 301 300 
3 300 301 303 
3 300 303 302 
3 302 303 305 
3 302 305 304 
3 304 305 307 
3 304 307 306 
3 306 307 309 
3 306 309 308 
3 291 289 311 
3 291 311 309 
3 291 309 307 
3 291 307 305 
3 291 305 303 
3 291 303 301 
3 291 301 299 
3 291 299 297 
3 291 297 295 
3 291 295 293 
3 310 311 289 
3 310 289 288 
3 308 309 311 
3 308 311 310 
3 288 290 292 
3 288 292 294 
3 288 294 296 
3 288 296 298 
3 288 298 300 
3 288 300 302 
3 288 302 304 
3 288 304 306 
3 288 306 308 
3 288 308 310 
3 329 321 314 
3 329 314 325 
3 321 322 318 
3 321 318 314 
3 328 323 316 
3 328 316 327 
3 323 320 312 
3 323 312 316 
3 325 314 318 
3 325 318 327 
3 326 319 315 
3 326 315 324 
3 317 313 320 
3 317 320 323 
3 326 317 323 
3 326 323 328 
3 315 319 322 
3 315 322 321 
3 324 315 321 
3 324 321 329 
3 313 324 329 
3 313 329 320 
3 319 326 328 
3 319 328 322 
3 317 326 324 
3 317 324 313 
3 312 325 327 
3 312 327 316 
3 322 328 327 
3 322 327 318 
3 320 329 325 
3 320 325 312 
