ply
format ascii 1.0
comment VCGLIB generated
element vertex 45
property float x
property float y
property float z
property float nx
property float ny
property float nz
property float texture_u
property float texture_v
element face 68
property list uchar int vertex_indices
end_header
10.8642 22.5519 24.8219 0.229898 -0.03042631 0.972739 0.612900 0.211700
11.4256 34.5046 24.8219 0.266011 0.004782969 0.9639581 0.622700 0.500000
3.3187 34.4954 25.8721 0.05507058 0.01412468 0.9983826 0.490500 0.500000
2.2109 20.928 25.8721 0.04776898 -0.05816199 0.9971637 0.483000 0.207700
10.8662 46.454 24.8219 0.206547 0.03600579 0.977774 0.632400 0.788300
2.2109 48.0624 25.8721 0.0343893 0.08730329 0.995588 0.498000 0.792300
10.0974 13.6589 24.2587 0.116725 -0.3190861 0.9405102 0.618900 0.025500
8.9658 14.9471 24.8219 0.154347 -0.170735 0.9731529 0.602600 0.064200
0.3737 13.3313 24.8219 0.0304628 -0.256726 0.966004 0.478900 0.054200
0.0238 11.8843 24.2587 0.02867229 -0.3708559 0.9282477 0.478100 0.024900
8.9513 54.0359 24.8219 0.1577759 0.1640029 0.9737607 0.632300 0.934800
0.3443 56.1349 24.8219 0.05727562 0.232772 0.9708433 0.502100 0.945000
-0.0113 57.6725 24.2587 0.05642579 0.349909 0.9350829 0.502800 0.974000
-14.0492 58.0041 24.2587 -2.09976e-06 0.354461 0.9350709 0.341000 0.974600
-14.0633 56.5604 24.8219 0.009976263 0.2840511 0.9587573 0.340500 0.946200
-14.1375 48.9813 25.8721 -0.001597519 0.1145729 0.9934136 0.337900 0.797100
-14.1465 34.4942 25.8721 -0.001216579 0.02166658 0.9997645 0.333100 0.500000
-14.1369 20.0092 25.8721 -1.27831e-06 -0.08148021 0.996675 0.328300 0.202900
-14.0632 12.9051 24.8219 -1.98447e-06 -0.298879 0.954291 0.325700 0.052900
-36.3126 55.3746 24.2587 -0.177474 0.29434 0.9390777 0.062900 0.975700
-35.5449 54.0421 24.8219 -0.192226 0.177062 0.9652452 0.076300 0.939100
-28.464 56.1351 24.8219 -0.04424949 0.2458719 0.9682918 0.179000 0.947500
-28.0754 57.6728 24.2587 -0.03995251 0.3539751 0.9344012 0.179300 0.975200
-37.5883 46.4435 24.8219 -0.26495 0.06438939 0.96211 0.071400 0.805000
-38.1837 34.5045 24.8219 -0.3195399 -8.670385e-07 0.9475728 0.071100 0.500000
-31.6116 34.4957 25.8721 -0.06633221 0.005912638 0.9977801 0.175700 0.500000
-30.5038 48.0624 25.8721 -0.06118572 0.08117181 0.9948203 0.177900 0.801800
-37.5882 22.5621 24.8219 -0.2510611 -0.04573273 0.9668903 0.070700 0.195000
-30.5038 20.928 25.8721 -0.03935881 -0.06610513 0.9970362 0.173600 0.198200
-35.5653 14.947 24.8219 -0.178513 -0.188713 0.965671 0.075400 0.060100
-28.4982 13.3312 24.8219 -0.0483618 -0.250866 0.966813 0.172500 0.051700
-36.6977 54.9876 24.2587 -0.3464721 0.147758 0.9263502 0.051100 0.954800
-38.9378 46.1352 24.2587 -0.3953611 0.0459609 0.9173752 0.051100 0.805600
10.4075 13.9568 24.2587 0.290915 -0.10807 0.9506258 0.631800 0.048400
12.5125 22.8612 24.2587 0.336794 -0.006633471 0.941555 0.637600 0.212500
12.9698 34.5063 24.2587 0.334573 0.01357479 0.9422721 0.647800 0.500000
12.5148 46.1476 24.2587 0.3261239 0.03656647 0.9446195 0.658000 0.787500
10.0596 55.3506 24.2587 0.126043 0.3000171 0.9455702 0.651900 0.973500
-14.0492 11.5519 24.2587 -2.520279e-06 -0.3743149 0.9273017 0.325200 0.024400
-39.4356 34.5062 24.2587 -0.399211 -1.083074e-06 0.9168591 0.051100 0.500000
-38.9376 22.8734 24.2587 -0.3959542 -0.04579903 0.9171274 0.051100 0.194400
-36.3603 13.6468 24.2587 -0.127937 -0.3372421 0.9326843 0.062300 0.023400
-28.1162 11.8842 24.2587 -0.03370121 -0.3723551 0.9274783 0.172200 0.023800
10.4109 54.9968 24.2587 0.268134 0.148144 0.9519231 0.663800 0.950500
-36.6985 13.9686 24.2587 -0.3131849 -0.176136 0.9332156 0.051100 0.044200
3 0 1 2 
3 0 2 3 
3 2 1 4 
3 2 4 5 
3 6 7 8 
3 6 8 9 
3 5 10 11 
3 12 13 14 
3 12 14 11 
3 15 16 2 
3 15 2 5 
3 16 17 3 
3 16 3 2 
3 17 18 8 
3 17 8 3 
3 19 20 21 
3 19 21 22 
3 23 24 25 
3 23 25 26 
3 25 24 27 
3 25 27 28 
3 28 29 30 
3 22 21 14 
3 22 14 13 
3 26 25 16 
3 26 16 15 
3 25 28 17 
3 25 17 16 
3 17 28 30 
3 17 30 18 
3 31 32 23 
3 31 23 20 
3 19 31 20 
3 5 4 10 
3 0 7 33 
3 0 33 34 
3 6 33 7 
3 28 27 29 
3 1 0 34 
3 1 34 35 
3 1 35 36 
3 1 36 4 
3 7 3 8 
3 37 12 11 
3 37 11 10 
3 15 5 11 
3 15 11 14 
3 18 38 9 
3 18 9 8 
3 20 26 21 
3 32 39 24 
3 32 24 23 
3 24 39 40 
3 24 40 27 
3 41 42 30 
3 41 30 29 
3 21 26 15 
3 21 15 14 
3 42 38 18 
3 42 18 30 
3 23 26 20 
3 43 10 4 
3 43 4 36 
3 10 43 37 
3 0 3 7 
3 44 29 27 
3 44 27 40 
3 29 44 41 
